<?xml version="1.0" encoding="utf-8"?>
<!-- Generator: Adobe Illustrator 24.1.2, SVG Export Plug-In . SVG Version: 6.00 Build 0)  -->
<svg width="1087" height="790" viewBox="0 0 1087 790" fill="none" xmlns="http://www.w3.org/2000/svg">
<style type="text/css">
	.st0{fill:#F07A78;}
	.st1{fill:#E6E8EC;}
	.st2{fill:#FCDEDE;}
	.st3{fill:none;stroke:#3F3D56;stroke-miterlimit:10;}
	.st4{fill:#EF5B59;}
	.st5{fill:#47465A;}
	.st6{opacity:0.1;enable-background:new    ;}
	.st7{fill:#7A799C;}
	.st8{fill:#9493B6;}
	.st9{fill:#FF6584;}
	.st10{fill:#B96B6B;}
	.st11{fill:#FBBEBE;}
	.st12{fill:#575988;}
	.st13{fill:#6C63FF;}
	.st14{fill:#F68080;}
</style>
<g>
	<rect x="716.9" y="53.3" class="st0" width="84" height="31.3"/>
	<rect x="856.5" class="st1" width="84" height="31.3"/>
	<rect x="862.3" y="96.8" class="st1" width="84" height="31.3"/>
	<rect x="593.4" y="132.7" class="st2" width="84" height="31.3"/>
	<rect x="566.8" y="206.4" class="st1" width="84" height="31.3"/>
	<rect x="686.1" y="206" class="st1" width="84" height="31.3"/>
	<polyline class="st3" points="856.5,15.4 800.9,68.2 862.3,112.4 	"/>
	<line class="st3" x1="716.9" y1="68.2" x2="635.5" y2="132.7"/>
	<polyline class="st3" points="612.4,207.6 637.4,164 731.4,206.3 	"/>
	<rect x="150.1" y="85.6" class="st4" width="84" height="31.3"/>
	<rect x="289.8" y="32.2" class="st2" width="84" height="31.3"/>
	<rect x="295.6" y="129" class="st2" width="84" height="31.3"/>
	<rect x="26.7" y="165" class="st0" width="84" height="31.3"/>
	<rect y="293.6" class="st1" width="84" height="31.3"/>
	<rect x="126.9" y="290.7" class="st1" width="84" height="31.3"/>
	<polyline class="st3" points="289.8,47.7 234.1,100.5 295.6,144.7 	"/>
	<line class="st3" x1="150.1" y1="100.5" x2="68.7" y2="165"/>
	<polyline class="st3" points="42,293.6 68.7,196.2 168.9,290.7 	"/>
	<line class="st3" x1="379.6" y1="144.7" x2="474.9" y2="144.7"/>
	<rect x="432.1" y="128.7" class="st4" width="98.8" height="31.2"/>
	<line class="st3" x1="531" y1="144.3" x2="593.4" y2="144.3"/>
	<line class="st3" x1="431.6" y1="144.3" x2="373.8" y2="47.7"/>
	<ellipse class="st0" cx="668.8" cy="696.7" rx="415.1" ry="92.4"/>
	<polygon class="st5" points="856.2,387.4 815.8,590.2 807,590.2 806,588.7 803.3,584.4 838.3,394.9 843.6,392.7 	"/>
	<polygon class="st6" points="843.6,392.7 806,588.7 803.3,584.4 838.3,394.9 	"/>
	<polygon class="st5" points="917.2,663.6 906.8,667 904.2,667.8 900.9,660.3 843.6,399.1 849.6,397.7 862.1,394.9 	"/>
	<polygon class="st6" points="906.8,667 904.2,667.8 900.9,660.3 843.6,399.1 849.6,397.7 	"/>
	<polygon class="st5" points="421.1,387.4 411.9,650.3 401.4,652.6 400.6,652.8 397.7,647.4 403.5,389.9 409.1,389.1 	"/>
	<polygon class="st6" points="409.1,389.1 401.4,652.6 400.6,652.8 397.7,647.4 403.5,389.9 	"/>
	<polygon class="st5" points="475.7,743.3 464.8,745.2 463.6,745.4 460.3,738.3 407.3,394.9 408.8,394.5 416.9,392 	"/>
	<polygon class="st6" points="464.8,745.2 463.6,745.4 460.3,738.3 407.3,394.9 408.8,394.5 	"/>
	<path class="st7" d="M706,366.1l40.5,51.8c2.8,3.6,7.3,5.5,11.9,5l166.3-19.5c6.6-0.8,11.6-6.4,11.6-13v-38.4L706,366.1z"/>
	<path class="st5" d="M842.5,374.5h11.3l0,0v16.3c0,2.3-1.9,4.2-4.2,4.2l0,0h-2.9c-2.3,0-4.2-1.9-4.2-4.2l0,0L842.5,374.5
		L842.5,374.5z"/>
	<path class="st7" d="M407.3,399.1l40.5,51.8c2.8,3.6,7.3,5.5,11.9,5L626,436.3c6.6-0.8,11.6-6.4,11.6-13v-38.4L407.3,399.1z"/>
	<path class="st5" d="M543.7,407.4H555l0,0v16.3c0,2.3-1.9,4.2-4.2,4.2l0,0h-2.9c-2.3,0-4.2-1.9-4.2-4.2l0,0V407.4L543.7,407.4z"/>
	<path class="st5" d="M453.8,425.3l494.7-57.6c4-0.5,6.8-4.1,6.4-8.1c-0.3-2.4-1.8-4.6-4-5.7l-88.5-44.5
		c-17.4-8.8-37-12.4-56.4-10.4l-439.5,44.8c-4.6,0.5-8,4.6-7.5,9.2c0.2,1.9,1,3.6,2.3,5l51.2,52.5
		C423.3,421.6,438.6,427.1,453.8,425.3z"/>
	<path class="st5" d="M1003,359.9l-5.3-2.9c0,0-5.7,4.2-10.4,21.9c-4.7,17.7,8.7,0.2,8.7,0.2l5.8-12.1L1003,359.9z"/>
	<path class="st5" d="M946.4,522.2c0,0-5.4,25.5-7.9,32.5c-1.2,3.5-7.2,6.6-13.7,9.1c-5.8,2.2-11.9,3.7-18,4.7
		c-7.1,0.8-98.1-13.4-142.3-22.9c-29.8-6.5-33.6-13.9-33-18c0.2-1.2,0.8-2.4,1.7-3.3c0,0,43.8-29.6,59.2-43.8
		c15.4-14.2,45.9-2.9,79.3,2.9C905.1,489.2,946.4,522.2,946.4,522.2z"/>
	<path class="st5" d="M997.7,356.9c0,0,20.4,13.4-48.4,40.9c0,0-37.4,21.1-32.5,108c0.2,3.9,1.4,7.7,3.5,11
		c7.1,11.7,22.3,41.3-3,44.9v6.7c0,0,45.9-22.9,50.9-42.6c5-19.6,21.7-128.5,30-138.5S1011.9,361.5,997.7,356.9z"/>
	<path class="st6" d="M924.7,563.8c-5.8,2.2-11.9,3.7-18,4.7c-7.1,0.8-98.1-13.4-142.3-22.9c-29.8-6.5-33.6-13.9-33-18
		c19.6,6.7,83.2,28,106,29.7c27.1,2.1,78.9,7.9,82.9,3.9C921.8,559.7,923.4,561.3,924.7,563.8z"/>
	<path class="st5" d="M686.4,737.5l39.6-181.1c0,0,7.1-19.2,23.4-18.4l15,7.5c0,0-25-5.8-30.5,13.4s-40.1,178.6-40.1,178.6H686.4z"
		/>
	<polygon class="st5" points="781.6,654.9 797.4,544.3 804.5,544.3 788.2,654.9 	"/>
	<path class="st5" d="M933.4,762.9l-15-172.7c0,0,0-14.6,7.5-21.7c7.5-7.1,31.8-27.3,31.8-27.3s6.2-1.5,11.2,12.7
		c5,14.2,39.6,156.1,39.6,156.1l-6.7,2.9l-43-163.6l-29.6,28c0,0-5.8,10.4-2.9,20c2.9,9.6,13.8,165.6,13.8,165.6H933.4z"/>
	<polygon class="st5" points="887.1,564.3 924.7,575.2 933,567.2 911.3,564.3 	"/>
	<path class="st7" d="M553.3,259.8l6.1,91.3l133.1-12.9l-5.3-89.3c-0.3-5-4.5-8.7-9.5-8.4c-0.1,0-0.1,0-0.2,0l-116,9.8
		C556.6,250.6,553,254.9,553.3,259.8z"/>
	<polygon class="st7" points="737.1,364.5 604.4,378.9 599.4,379.5 560.6,354.4 560.6,349 692.5,337.1 	"/>
	<polygon class="st6" points="604.4,378.9 599.4,379.5 560.6,354.4 560.6,349.6 	"/>
	<polygon class="st8" points="562.3,258.9 566.9,340.3 683.7,329.4 679.5,250.1 	"/>
	<polygon class="st6" points="632,362.8 646.2,372.4 689.1,368.2 674.5,359 	"/>
	<polygon class="st8" points="574,351.1 591.9,364.5 706.7,353.6 686.2,340.3 	"/>
	<rect x="777.6" y="227.8" class="st9" width="84.7" height="84.7"/>
	<rect x="777.6" y="227.8" class="st10" width="84.7" height="84.7"/>
	<path class="st11" d="M806.8,267c0,0,11.9,32.4,0,38.3c-11.9,6,42.8,0,42.8,0l15.4-12.4c0,0-34.9-10-29.9-32.9
		C840.1,237.1,806.8,267,806.8,267z"/>
	<path class="st6" d="M806.8,267c0,0,11.9,32.4,0,38.3c-11.9,6,42.8,0,42.8,0l15.4-12.4c0,0-34.9-10-29.9-32.9
		C840.1,237.1,806.8,267,806.8,267z"/>
	<path class="st11" d="M708.7,591.6c0,0,44.8,63.2,37.3,80.7c-7.5,17.4-3.5,28.4-18.4,34.4c-14.9,6-18.9,16.9-6,16.4
		s29.9-4,32.4-8.5c2.5-4.5,8.5-25.9,16.9-28.9s24.4-14.4,12.9-28.4c-11.5-13.9-40.3-65.3-38.1-70.5
		C748,581.7,708.7,591.6,708.7,591.6z"/>
	<path class="st12" d="M802.3,466.7c0,0-92.6,6-116.5,28.4c-23.9,22.4,20.9,106,25.9,107c5,1,43.8-3,42.3-13.9
		c-1.5-11-27.9-55.8-27.9-55.8s34.4-12.4,53.3-15.4c18.9-3,39.8-16.9,39.8-16.9L802.3,466.7z"/>
	<path class="st11" d="M760,452.7c0,0,1.5,55.3,15.4,57.3c13.9,2,0-42.3,0-42.3l-0.5-16.9L760,452.7z"/>
	<path class="st13" d="M802.3,307.8c0,0-25.9-7.5-30.9,12.4c-5,19.9-6.5,88.6-6.5,88.6l-9,54.8c0,0,16.4-5,19.9-2.5l20.9-26.4
		L802.3,307.8z"/>
	<path class="st14" d="M802.3,307.8c0,0-25.9-7.5-30.9,12.4c-5,19.9-6.5,88.6-6.5,88.6l-9,54.8c0,0,16.4-5,19.9-2.5l20.9-26.4
		L802.3,307.8z"/>
	<path class="st11" d="M837.7,602.2c0,0,17.4,34.2,27.9,33.7s20.4-7,25.4,13.4c5,20.4-1,14.9,5,26.9c6,11.9,7,32.9-4.5,37.8
		s-21.9,5.5-22.4,0c-0.5-5.5,10-5.5-2-24.9c-11.9-19.4-37.3-54.8-47.8-58.2C808.8,627.5,837.7,602.2,837.7,602.2z"/>
	<path class="st12" d="M882.9,446.2c0,0,35.8,59.7,12.4,77.2c-23.4,17.4-93.1,50.8-93.1,50.8s37.3,25.4,39.3,33.9
		s-17.9,31.4-24.9,31.9c-7,0.5-27.4-22.9-49.3-28.9c-21.9-6-35.3-48.8-11.5-64.7c23.9-15.9,46.3-42.3,46.3-42.3l-7-38.3L882.9,446.2
		z"/>
	<path class="st11" d="M851.9,247c0,21.2-21.7,38.7-42.9,38.7c-21.2,0-38.3-17.2-38.3-38.3c0-21.2,17.2-38.3,38.3-38.3
		C830.2,209,851.9,225.8,851.9,247z"/>
	<path class="st14" d="M818.7,302.4c0,0,34.4-14.9,34.4-16.9s19.9,4.5,24.4,8.5s7,3.5,10,11.5c3,8-14.9,82.1-14.9,82.1
		s10,57.3,15.4,62.7c5.5,5.5-44.3,13.4-44.3,13.4s-32.9,6-38.3,8.5c-5.5,2.5-15.4,6-13.4,0c2-6,10.5-10.5-4-17.9c0,0,5-24.4,0-35.3
		s-27.9-50.8-9.5-79.7c18.4-28.9,26.9-39.3,26.9-39.3S811.7,305.3,818.7,302.4z"/>
	<path class="st11" d="M829.7,438.3c0,0-38.8,17.2-50.5,18.8c-11.7,1.6-47,10.6-27.6,18.5c19.4,8,48.8-4,48.8-4l41.3-17.4
		L829.7,438.3z"/>
	<path class="st6" d="M871.5,300.8c0,0,14.3-6.9,18.3,17.5c4,24.4,17.9,101.6,0,113c-17.9,11.5-59.2,29.9-59.2,29.9
		s-24.4-16.4-12.9-22.4c11.5-6,38.8-22.9,42.8-28.9c4-6,8-72.7,1-83.6C854.5,315.3,871.5,300.8,871.5,300.8z"/>
	<path class="st14" d="M870.5,294.9c0,0,19.9-1,23.9,23.4c4,24.4,17.9,101.6,0,113c-17.9,11.5-59.2,29.9-59.2,29.9
		s-24.4-16.4-12.9-22.4c11.5-6,38.8-22.9,42.8-28.9c4-6-3-68.2-10-79.2S870.5,294.9,870.5,294.9z"/>
	<path class="st10" d="M799.6,182.8c-6.1,0.8-12.7,3.1-15.7,8.4c-1.5,2.6-2,5.7-3.2,8.5c-3.2,7.7-11,12.3-16.6,18.4
		c-7.3,8-10.9,20.1-6.6,30.1c1.7,3.9,4.4,7.2,6.4,10.8c5.7,10.2,6,22.5,6.2,34.2l0.3,23.1c0,3.5,0.1,7.1-1,10.5s-3.4,6.5-6.8,7.6
		c7.6,2.6,16.1-0.2,20.5-7c0.9,5.9-1.1,11.9-5.5,15.9c9.1-2.1,16.8-8.8,21.6-16.8c4.8-8,7.1-17.4,8.1-26.7c0.5-4.9,0.7-10-0.8-14.7
		c-1.1-3.3-3-6.3-4.8-9.3c-4.7-7.7-8.9-15.9-10.4-24.8s0-18.6,5.8-25.5c4.5-5.4,11.2-8.5,18.2-8.4c7.1,0.3,13.5,4.2,16.9,10.4
		c1.3,2.5,3.2,5.9,5.9,5c0.5-0.2,1-0.5,1.5-0.7c3-1.4,6.4,1.3,7.8,4.4c4.2,9.6-3.5,20-4.3,30.4c-0.7,9.7,4.7,18.8,11.1,26
		c11.1,12.5,25.7,21.4,41.8,25.7c-2.4-0.6-4.5-1.9-6.1-3.8c6.6,0.3,13.1-0.3,19.6-1.6c-7-5.3-14.1-10.6-19.9-17.1
		c-5.8-6.5-10.5-14.4-11.7-23.1c-1.7-11.6,2.6-24.3-2.3-34.9c-4.5-9.8-15.8-15.2-19.9-25.2c-4.2-10.1-6.9-18.9-17.9-23.3
		C825.6,184.4,812.6,181,799.6,182.8z"/>
</g>
</svg>
