<svg width="1083" height="787" viewBox="0 0 1083 787" fill="none" xmlns="http://www.w3.org/2000/svg">
<g clip-path="url(#clip0)">
<path opacity="0.1" d="M345.48 29.6601C374.7 3.66005 420.55 -1.66995 462.28 0.400052C593.37 6.91005 711.7 70.2001 814.05 141.79C851.11 167.7 887.59 195.63 911.64 231.32C960.64 303.96 946.08 404.61 878 464.45C854.83 484.82 826.75 500.45 797.92 514.26C746.66 538.87 691.35 558.62 633.18 564.26C591.69 568.26 549.69 565.01 508.45 559.42C393.22 543.77 280.11 509.21 185.31 450.14C143.73 424.2 104.53 391.97 87.39 350.01C70.25 308.05 81.22 254.9 123.68 230.07C141.24 219.8 162.24 215.16 182.79 210.81C213.05 204.4 243.79 198.08 271.1 185.05C299.3 171.59 332.69 145.55 327.1 115.76C321.12 83.7401 316.31 55.66 345.48 29.6601Z" fill="#EF5B59"/>
<path opacity="0.1" d="M850.44 715.01C910.893 715.01 959.9 711.867 959.9 707.99C959.9 704.113 910.893 700.97 850.44 700.97C789.987 700.97 740.98 704.113 740.98 707.99C740.98 711.867 789.987 715.01 850.44 715.01Z" fill="#EF5B59"/>
<path opacity="0.1" d="M565.93 668.03C626.383 668.03 675.39 664.887 675.39 661.01C675.39 657.133 626.383 653.99 565.93 653.99C505.477 653.99 456.47 657.133 456.47 661.01C456.47 664.887 505.477 668.03 565.93 668.03Z" fill="#EF5B59"/>
<path opacity="0.1" d="M164.07 779.39C224.523 779.39 273.53 776.247 273.53 772.37C273.53 768.493 224.523 765.35 164.07 765.35C103.617 765.35 54.61 768.493 54.61 772.37C54.61 776.247 103.617 779.39 164.07 779.39Z" fill="#EF5B59"/>
<path opacity="0.1" d="M372.07 786.29C396.945 786.29 417.11 784.996 417.11 783.4C417.11 781.804 396.945 780.51 372.07 780.51C347.195 780.51 327.03 781.804 327.03 783.4C327.03 784.996 347.195 786.29 372.07 786.29Z" fill="#EF5B59"/>
<path opacity="0.1" d="M1047 711.24C1066.39 711.24 1082.1 710.233 1082.1 708.99C1082.1 707.748 1066.39 706.74 1047 706.74C1027.61 706.74 1011.9 707.748 1011.9 708.99C1011.9 710.233 1027.61 711.24 1047 711.24Z" fill="#EF5B59"/>
<path opacity="0.1" d="M724.85 664.01C741.286 664.01 754.61 663.155 754.61 662.1C754.61 661.046 741.286 660.19 724.85 660.19C708.414 660.19 695.09 661.046 695.09 662.1C695.09 663.155 708.414 664.01 724.85 664.01Z" fill="#EF5B59"/>
<path d="M1052.05 654.99C1052.05 654.99 1056.75 661.14 1049.89 670.42C1043.03 679.7 1037.35 687.53 1039.64 693.31C1039.64 693.31 1050.01 676.08 1058.44 675.84C1066.87 675.6 1061.34 665.36 1052.05 654.99Z" fill="#EF5B59"/>
<path opacity="0.1" d="M1052.05 654.99C1052.47 655.583 1052.81 656.233 1053.05 656.92C1061.28 666.59 1065.66 675.61 1057.75 675.84C1050.38 676.05 1041.54 689.23 1039.42 692.56C1039.49 692.815 1039.57 693.065 1039.67 693.31C1039.67 693.31 1050.04 676.08 1058.47 675.84C1066.9 675.6 1061.34 665.36 1052.05 654.99Z" fill="black"/>
<path d="M1060.8 662.82C1060.8 664.99 1060.56 666.74 1060.26 666.74C1059.96 666.74 1059.72 664.99 1059.72 662.82C1059.72 660.65 1060.02 661.68 1060.32 661.68C1060.62 661.68 1060.8 660.66 1060.8 662.82Z" fill="#FFD037"/>
<path d="M1063.8 665.41C1061.9 666.41 1060.25 667.07 1060.1 666.81C1059.95 666.55 1061.38 665.49 1063.28 664.45C1065.18 663.41 1064.43 664.17 1064.57 664.45C1064.71 664.73 1065.7 664.37 1063.8 665.41Z" fill="#FFD037"/>
<path d="M1027.24 654.99C1027.24 654.99 1022.54 661.14 1029.41 670.42C1036.28 679.7 1041.94 687.53 1039.65 693.31C1039.65 693.31 1029.29 676.08 1020.85 675.84C1012.41 675.6 1017.96 665.36 1027.24 654.99Z" fill="#EF5B59"/>
<path opacity="0.1" d="M1027.24 654.99C1026.82 655.582 1026.48 656.232 1026.24 656.92C1018.01 666.59 1013.62 675.61 1021.53 675.84C1028.9 676.05 1037.75 689.23 1039.86 692.56C1039.79 692.815 1039.71 693.065 1039.61 693.31C1039.61 693.31 1029.25 676.08 1020.81 675.84C1012.37 675.6 1017.96 665.36 1027.24 654.99Z" fill="black"/>
<path d="M1018.5 662.82C1018.5 664.99 1018.74 666.74 1019.04 666.74C1019.34 666.74 1019.59 664.99 1019.59 662.82C1019.59 660.65 1019.28 661.68 1018.98 661.68C1018.68 661.68 1018.5 660.66 1018.5 662.82Z" fill="#FFD037"/>
<path d="M1015.5 665.41C1017.4 666.41 1019.06 667.07 1019.2 666.81C1019.34 666.55 1017.92 665.49 1016.02 664.45C1014.12 663.41 1014.87 664.17 1014.73 664.45C1014.59 664.73 1013.6 664.37 1015.5 665.41Z" fill="#FFD037"/>
<path d="M1020.05 692.51C1020.05 692.51 1033.19 692.11 1037.15 689.29C1041.11 686.47 1057.36 683.1 1058.35 687.62C1059.34 692.14 1078.09 710.11 1063.26 710.23C1048.43 710.35 1028.79 707.92 1024.83 705.52C1020.87 703.12 1020.05 692.51 1020.05 692.51Z" fill="#A8A8A8"/>
<path opacity="0.2" d="M1063.47 708.66C1048.64 708.78 1029 706.35 1025.05 703.94C1022.05 702.11 1020.84 695.53 1020.44 692.49H1020C1020 692.49 1020.83 703.09 1024.78 705.49C1028.73 707.89 1048.37 710.32 1063.21 710.2C1067.49 710.2 1068.97 708.65 1068.89 706.39C1068.29 707.78 1066.66 708.63 1063.47 708.66Z" fill="black"/>
<path d="M730.13 615.93C730.13 615.93 734.13 621.18 728.27 629.12C722.41 637.06 717.55 643.76 719.51 648.71C719.51 648.71 728.37 633.97 735.59 633.71C742.81 633.45 738.05 624.79 730.13 615.93Z" fill="#EF5B59"/>
<path opacity="0.1" d="M730.13 615.93C730.479 616.439 730.755 616.994 730.95 617.58C737.95 625.85 741.74 633.58 734.95 633.76C728.65 633.94 721.08 645.22 719.27 648.07C719.33 648.287 719.403 648.501 719.49 648.71C719.49 648.71 728.35 633.97 735.57 633.71C742.79 633.45 738.05 624.79 730.13 615.93Z" fill="black"/>
<path d="M737.6 622.63C737.6 624.48 737.39 625.981 737.14 625.981C736.89 625.981 736.67 624.48 736.67 622.63C736.67 620.78 736.93 621.63 737.19 621.63C737.45 621.63 737.6 620.78 737.6 622.63Z" fill="#FFD037"/>
<path d="M740.17 624.84C738.54 625.72 737.17 626.26 737 626.03C736.83 625.8 738.1 624.91 739.72 624.03C741.34 623.15 740.72 623.79 740.83 624.03C740.94 624.27 741.79 623.95 740.17 624.84Z" fill="#FFD037"/>
<path d="M708.89 615.93C708.89 615.93 704.89 621.18 710.74 629.12C716.59 637.06 721.47 643.76 719.51 648.71C719.51 648.71 710.64 633.97 703.42 633.71C696.2 633.45 700.95 624.79 708.89 615.93Z" fill="#EF5B59"/>
<path opacity="0.1" d="M708.89 615.93C708.535 616.437 708.255 616.992 708.06 617.58C701.06 625.85 697.27 633.58 704.06 633.76C710.37 633.94 717.93 645.22 719.74 648.07C719.68 648.28 719.61 648.5 719.53 648.71C719.53 648.71 710.66 633.97 703.44 633.71C696.22 633.45 700.95 624.79 708.89 615.93Z" fill="black"/>
<path d="M701.41 622.63C701.41 624.48 701.62 625.981 701.88 625.981C702.14 625.981 702.34 624.48 702.34 622.63C702.34 620.78 702.08 621.63 701.82 621.63C701.56 621.63 701.41 620.78 701.41 622.63Z" fill="#FFD037"/>
<path d="M698.85 624.84C700.47 625.72 701.85 626.26 702.01 626.03C702.17 625.8 700.92 624.91 699.29 624.03C697.66 623.15 698.29 623.79 698.18 624.03C698.07 624.27 697.22 623.95 698.85 624.84Z" fill="#FFD037"/>
<path d="M702.69 648.03C702.69 648.03 713.93 647.68 717.32 645.27C720.71 642.86 734.62 639.97 735.46 643.84C736.3 647.71 752.35 663.09 739.66 663.19C726.97 663.29 710.17 661.19 706.79 659.19C703.41 657.19 702.69 648.03 702.69 648.03Z" fill="#A8A8A8"/>
<path opacity="0.2" d="M739.89 661.84C727.19 661.95 710.39 659.84 707.01 657.84C704.44 656.27 703.41 650.64 703.07 648.04H702.69C702.69 648.04 703.4 657.1 706.79 659.16C710.18 661.22 726.97 663.3 739.66 663.16C743.32 663.16 744.59 661.83 744.52 659.9C744.05 661.14 742.61 661.82 739.89 661.84Z" fill="black"/>
<g opacity="0.8">
<path opacity="0.8" d="M147.78 621.77C162.568 621.775 177.022 626.166 189.315 634.385C201.608 642.605 211.188 654.285 216.844 667.949C222.5 681.612 223.978 696.646 221.091 711.149C218.204 725.653 211.081 738.975 200.624 749.431C190.167 759.886 176.844 767.007 162.34 769.892C147.836 772.778 132.803 771.298 119.14 765.64C105.477 759.982 93.7983 750.401 85.5803 738.107C77.3623 725.812 72.9739 711.357 72.97 696.57C72.9634 686.744 74.894 677.013 78.6514 667.935C82.4087 658.856 87.9191 650.607 94.8673 643.66C101.815 636.712 110.065 631.203 119.144 627.447C128.224 623.691 137.954 621.762 147.78 621.77Z" fill="#E74D89"/>
<path opacity="0.8" d="M147.78 776.65C131.941 776.632 116.462 771.919 103.301 763.107C90.1394 754.295 79.8855 741.779 73.8351 727.141C67.7847 712.503 66.2093 696.4 69.3081 680.867C72.4069 665.334 80.0408 651.068 91.2449 639.872C102.449 628.676 116.721 621.053 132.256 617.966C147.791 614.879 163.893 616.466 178.527 622.528C193.16 628.589 205.668 638.852 214.471 652.02C223.273 665.189 227.974 680.671 227.98 696.51C227.961 717.769 219.504 738.151 204.466 753.178C189.428 768.205 169.039 776.647 147.78 776.65ZM215.39 707.48C201.545 703.442 186.994 702.419 172.72 704.48C178.567 720.33 183.027 736.658 186.05 753.28C193.827 748.073 200.446 741.318 205.494 733.438C210.542 725.558 213.911 716.721 215.39 707.48ZM174.54 759.6C171.321 741.888 166.432 724.52 159.94 707.73C159.802 707.796 159.653 707.837 159.5 707.85C120.84 721.32 106.99 748.08 105.74 750.58C117.742 759.931 132.525 765.003 147.74 764.99C156.936 765.054 166.046 763.219 174.5 759.6H174.54ZM96.91 742.37C98.47 739.74 117.27 708.67 152.61 697.2C153.48 696.89 154.42 696.64 155.3 696.39C153.61 692.5 151.73 688.62 149.72 684.8C115.52 695.01 82.31 694.57 79.3 694.51C79.3 695.2 79.24 695.89 79.24 696.57C79.26 713.497 85.5558 729.815 96.91 742.37ZM80.74 682.6C102.11 682.506 123.383 679.707 144.05 674.27C136.303 660.645 127.831 647.447 118.67 634.73C109.083 639.241 100.67 645.91 94.0893 654.215C87.5089 662.52 82.94 672.235 80.74 682.6ZM131.74 630.1C141.135 642.856 149.676 656.218 157.31 670.1C181.68 660.96 191.95 647.17 193.21 645.42C180.691 634.301 164.524 628.169 147.78 628.19C142.377 628.229 136.995 628.883 131.74 630.14V630.1ZM200.79 653.34C199.35 655.29 187.88 670.01 162.57 680.34C164.13 683.6 165.7 686.92 167.14 690.24C167.64 691.43 168.14 692.62 168.65 693.75C191.45 690.86 214.07 695.5 216.33 695.94C216.161 680.38 210.678 665.345 200.79 653.33V653.34Z" fill="#B2215A"/>
</g>
<path d="M333.23 468.3C331.42 466.03 329.36 450.42 329.36 450.42L321.36 410.64L317.22 387.72C317.22 387.72 316.22 358.77 298.1 344.41L296.69 343.3C296.69 343.04 296.69 342.79 296.69 342.53C296.525 339.735 295.914 336.983 294.88 334.38C294.442 333.538 294.219 332.6 294.23 331.65C294.277 331.276 294.399 330.916 294.59 330.59C295.439 329.427 296.558 328.486 297.85 327.85C301.14 325.85 303.94 322.7 304.7 318.97C304.695 318.887 304.695 318.804 304.7 318.72C304.7 318.56 304.7 318.39 304.77 318.22C304.84 318.05 304.77 318.04 304.77 317.94C304.78 317.767 304.78 317.594 304.77 317.42V317.2C304.77 317 304.77 316.79 304.77 316.58C304.765 316.537 304.765 316.494 304.77 316.45C304.77 316.22 304.72 315.98 304.68 315.75V315.7C304.499 314.347 303.979 313.062 303.168 311.964C302.356 310.865 301.28 309.991 300.04 309.42C300.49 309.313 300.91 309.103 301.266 308.806C301.621 308.509 301.903 308.134 302.09 307.71C302.213 307.465 302.31 307.206 302.38 306.94C302.448 306.692 302.492 306.437 302.51 306.18C302.51 306.18 302.51 306.1 302.51 306.06C302.525 305.841 302.525 305.62 302.51 305.4C302.51 305.33 302.51 305.26 302.51 305.19C302.48 304.97 302.433 304.753 302.37 304.54C302.375 304.484 302.375 304.427 302.37 304.37L302.31 304.23C301.64 302.31 300.05 300.83 298.68 299.29C290.78 290.44 289.25 277.99 287.1 266.45C285.91 260.05 283.66 252.76 277.46 250.33C275.708 249.775 273.925 249.321 272.12 248.97C266.62 247.51 262.12 243.67 256.74 241.79C253.107 240.543 249.221 240.217 245.43 240.84C242.54 241.32 240.12 242.74 237.33 243.41C231.33 244.88 224.05 243.24 219.33 248.09C216.02 251.46 215.76 256.6 214.13 260.99C211.05 269.14 203.05 275.07 200.98 283.54C199.65 289 201.03 294.54 202.48 300.03C203.572 303.718 204.309 307.502 204.68 311.33C204.735 312.296 204.735 313.264 204.68 314.23C204.466 317.05 203.829 319.821 202.79 322.45C196.03 324.95 189.04 327.9 188.52 329.56C187.52 332.83 171.2 342.15 171.2 342.15C171.2 342.15 165 347.44 165 349.45C165 351.46 162.94 357.76 161.64 357.76C160.34 357.76 157.77 383.19 157.77 383.19V409.63C157.77 409.63 148.22 440.85 146.02 468.55C146.02 468.55 142.16 486.24 148.46 496.39C149.284 497.767 150.336 498.995 151.57 500.02L154.79 508.43C155.923 506.539 157.362 504.849 159.05 503.43C159.21 504.48 159.39 505.71 159.61 507.08C159.88 508.8 160.2 510.75 160.61 512.84C158.61 515.97 153.78 522.52 147.98 524.97C142.62 527.23 149.6 533.21 154.42 536.7C153.14 543.07 151.29 550.89 149.79 551.91C147.2 553.67 138.94 575.83 138.94 575.83C138.94 575.83 122.67 613.83 146.05 618.13C169.43 622.43 181.35 612.34 181.35 612.34H186.95C186.95 612.34 193.76 608.5 193.95 600.56C197.76 597.42 203.61 592.44 204.8 590.43C205.99 588.42 202.71 581.88 200.63 578.31L201.18 577.31C201.18 577.31 223.41 548.86 226.25 551.88C229.09 554.9 230.9 559.68 229.61 562.71L230.83 580.14V607.33C230.83 607.33 227.64 619.67 230.83 620.93C234.02 622.19 230.83 626.93 230.83 626.93C230.83 626.93 232.02 632.47 232.24 634.23C232.354 636.496 232.354 638.765 232.24 641.03L231.17 668.23L229.1 708.51C229.1 708.51 226.78 711.79 228.59 714.05C230.4 716.31 229.59 721.61 229.1 722.61C228.61 723.61 228.33 731.93 228.33 731.93C228.33 731.93 220.83 739.73 226.78 741.75L227.01 741.82C224.55 744.1 224.52 749.23 224.71 750.82C224.9 752.41 223.13 758.82 221.8 762.45C221.534 763.373 221.122 764.248 220.58 765.04C219.67 765.68 220.58 772.73 220.58 772.73C220.58 772.73 249.64 775.12 252.1 772.73C253.1 771.8 252.85 769.54 252.15 766.93C251.034 763.143 249.547 759.475 247.71 755.98C246.02 752.84 246.81 748.81 246.81 748.81V745.81C248.76 746.12 250.03 746.3 250.03 746.3C250.03 746.3 253.65 743.3 252.1 740.51C250.55 737.72 254.94 722.14 254.94 722.14C254.94 722.14 259.85 704.51 259.85 702.75C259.85 700.99 266.31 678.08 266.31 678.08C266.31 678.08 275.87 637.54 271.22 618.4C271.22 618.4 275.35 613.62 274.83 612.4C274.31 611.18 273.11 605.85 274.88 603.59C276.65 601.33 284.14 573.12 286.21 568.34C287.16 566.13 289.54 560.03 291.82 554.08C302.11 552.54 314.37 549.7 314.37 549.7C314.37 549.7 312.54 541.91 311.18 533.95L312.3 528.48L312.7 526.59C313.624 527.498 314.446 528.504 315.15 529.59L317.21 519.52C317.21 519.52 317.44 519.17 317.83 518.52C320.24 514.75 329.02 501.2 333.23 497.09C338.14 492.22 335.05 470.56 333.23 468.3Z" fill="url(#paint0_linear)"/>
<path d="M270.54 299.83H242.04V331.83H270.54V299.83Z" fill="#925978"/>
<path opacity="0.1" d="M270.54 299.83H242.04V331.83H270.54V299.83Z" fill="black"/>
<path d="M200.28 575.58C200.28 575.58 207.53 587.08 205.78 590.08C204.03 593.08 192.05 602.83 192.05 602.83L188.51 578.83L200.28 575.58Z" fill="#FF6484"/>
<path d="M177.78 612.58L183.07 611.83H188.49C188.49 611.83 195.69 607.69 195.28 599.08C194.87 590.47 195.28 582.08 195.28 582.08L177.78 612.58Z" fill="#575988"/>
<path opacity="0.1" d="M177.78 612.58L183.07 611.83H188.49C188.49 611.83 195.69 607.69 195.28 599.08C194.87 590.47 195.28 582.08 195.28 582.08L177.78 612.58Z" fill="black"/>
<path d="M188.49 495.33L158.49 528.33C158.49 528.33 154.99 550.08 152.49 551.83C149.99 553.58 142.05 575.58 142.05 575.58C142.05 575.58 126.32 613.33 148.93 617.58C171.54 621.83 183.05 611.83 183.05 611.83L202.25 577.08C202.25 577.08 223.76 548.83 226.51 551.83C229.26 554.83 231.01 559.58 229.76 562.58L230.93 579.83V606.83C230.93 606.83 227.85 619.08 230.93 620.33C234.01 621.58 230.93 626.33 230.93 626.33C230.93 626.33 232.09 631.83 232.3 633.58C232.51 635.33 232.3 640.33 232.3 640.33L231.3 667.33L229.3 707.33C229.3 707.33 227.05 710.58 228.8 712.83C230.55 715.08 229.8 720.33 229.3 721.33C228.8 722.33 228.55 730.58 228.55 730.58C228.55 730.58 221.3 738.33 227.05 740.33C232.8 742.33 249.55 744.83 249.55 744.83C249.55 744.83 253.05 741.83 251.55 739.08C250.05 736.33 254.3 720.83 254.3 720.83C254.3 720.83 259.05 703.33 259.05 701.58C259.05 699.83 265.3 677.08 265.3 677.08C265.3 677.08 274.55 636.83 270.05 617.83C270.05 617.83 274.05 613.08 273.55 611.83C273.05 610.58 271.88 605.33 273.55 603.08C275.22 600.83 282.55 572.83 284.55 568.08C286.55 563.33 295.05 540.33 295.05 540.33V497.83L188.49 495.33Z" fill="#575988"/>
<path d="M278.05 344.58L260.79 377.19L256.24 385.77L255.55 387.08L211.05 388.83C211.05 388.83 209.78 386.02 207.98 381.66C204.87 374.11 200.17 361.89 197.8 351.58C197.214 349.113 196.779 346.611 196.5 344.09C195.84 337.85 196.84 333.4 200.84 333.02C201.851 332.929 202.869 333.034 203.84 333.33C206.621 334.152 209.533 334.434 212.42 334.16C222.98 332.88 226.07 321.73 226.59 311.25C226.59 310.51 226.66 309.77 226.67 309.04C226.67 306.77 226.67 304.57 226.52 302.55C226.32 299.124 225.926 295.712 225.34 292.33C227.983 291.036 230.75 290.015 233.6 289.28C242.04 287.12 253.93 287.18 254.09 304.58C254.072 308.436 254.454 312.283 255.23 316.06C255.68 318.213 256.403 320.3 257.38 322.27C260.31 327.9 264.38 328.51 266.29 328.44C266.643 328.441 266.995 328.404 267.34 328.33L278.05 344.58Z" fill="#FFC5CB"/>
<path opacity="0.1" d="M233.63 363.46C234.246 365.232 234.56 367.094 234.56 368.97C234.749 370.945 234.702 372.936 234.42 374.9C234.135 376.887 233.149 378.707 231.64 380.03" fill="black"/>
<path opacity="0.1" d="M246.22 318.6C260.994 318.6 272.97 306.623 272.97 291.85C272.97 277.076 260.994 265.1 246.22 265.1C231.446 265.1 219.47 277.076 219.47 291.85C219.47 306.623 231.446 318.6 246.22 318.6Z" fill="black"/>
<path d="M272.96 290.85C272.962 296.226 271.344 301.478 268.317 305.92C265.289 310.362 260.993 313.789 255.989 315.753C250.984 317.717 245.504 318.127 240.264 316.929C235.023 315.732 230.265 312.983 226.61 309.04C226.377 308.802 226.156 308.552 225.95 308.29C223.135 305.022 221.152 301.121 220.171 296.92C219.19 292.719 219.239 288.343 220.316 284.166C221.392 279.989 223.464 276.134 226.353 272.93C229.242 269.727 232.863 267.27 236.908 265.769C240.952 264.268 245.299 263.768 249.579 264.312C253.858 264.855 257.943 266.426 261.484 268.89C265.025 271.354 267.917 274.638 269.913 278.462C271.91 282.286 272.952 286.536 272.95 290.85H272.96Z" fill="#FFC5CB"/>
<path opacity="0.1" d="M203.28 357.58C203.28 357.58 212.78 382.33 232.78 378.33C232.78 378.33 252.97 379.91 264.53 365.08C276.09 350.25 276.78 450.08 276.78 450.08L272.28 516.33C272.28 516.33 240.05 535.58 226.05 533.08C212.05 530.58 205.3 523.08 205.3 523.08C205.3 523.08 190.55 509.33 186.55 507.58C182.55 505.83 188.3 420.58 188.3 420.58L193.05 388.58L203.28 357.58Z" fill="black"/>
<path d="M203.28 355.58C203.28 355.58 212.78 380.33 232.78 376.33C232.78 376.33 252.97 377.91 264.53 363.08C276.09 348.25 276.78 448.08 276.78 448.08L272.28 514.33C272.28 514.33 240.05 533.58 226.05 531.08C212.05 528.58 205.3 521.08 205.3 521.08C205.3 521.08 190.55 507.33 186.55 505.58C182.55 503.83 188.3 418.58 188.3 418.58L193.05 386.58L203.28 355.58Z" fill="#E8F4FF"/>
<path opacity="0.1" d="M202.28 495.33C202.28 495.33 223.78 519.33 222.53 521.83C221.28 524.33 201.78 502.58 202.28 495.33Z" fill="black"/>
<path opacity="0.1" d="M198.58 435.65C198.58 435.65 205.45 445.25 209.75 444.25L198.58 435.65Z" fill="black"/>
<path opacity="0.1" d="M213.43 333.33C213.43 333.33 213.43 333.62 213.36 334.16C213.13 337.23 212.27 348.36 211.11 360.76C210.46 367.76 209.72 375.1 208.96 381.66C207.72 392.33 206.4 400.87 205.28 402.08C202.03 405.58 203.28 438.58 203.28 438.58V480.33C203.28 480.33 200.54 493.58 198.28 496.58C196.02 499.58 190.5 510.83 186.08 512.33C184.525 513.182 183.128 514.295 181.95 515.62C177.95 519.62 172.29 526.29 167.95 531.55C164.37 535.94 161.72 539.33 161.72 539.33C161.72 539.33 144.22 528.33 151.72 525.08C157.33 522.65 161.97 516.15 163.94 513.08C164.61 512.08 164.94 511.37 164.94 511.37C165.294 509.04 165.826 506.74 166.53 504.49C167.165 502.369 168.098 500.349 169.3 498.49C170.215 496.943 171.702 495.819 173.44 495.36C179.94 494.11 183.19 432.36 183.19 432.36L163.19 388.72L161.19 384.36C161.19 384.36 163.69 359.11 164.94 359.11C166.19 359.11 168.19 352.86 168.19 350.86C168.19 348.86 174.19 343.61 174.19 343.61C174.19 343.61 190.05 334.33 191.05 331.08C191.58 329.37 198.85 326.28 205.62 323.74C211.7 321.46 217.37 319.62 217.37 319.62C220.68 324.66 213.43 333.33 213.43 333.33Z" fill="black"/>
<path d="M212.43 333.33C212.43 333.33 212.43 333.62 212.36 334.16C212.13 337.23 211.27 348.36 210.11 360.76C209.46 367.76 208.72 375.1 207.96 381.66C206.72 392.33 205.4 400.87 204.28 402.08C201.03 405.58 202.28 438.58 202.28 438.58V480.33C202.28 480.33 199.54 493.58 197.28 496.58C195.02 499.58 189.5 510.83 185.08 512.33C183.525 513.182 182.128 514.295 180.95 515.62C176.95 519.62 171.29 526.29 166.95 531.55C163.37 535.94 160.72 539.33 160.72 539.33C160.72 539.33 143.22 528.33 150.72 525.08C156.33 522.65 160.97 516.15 162.94 513.08C163.61 512.08 163.94 511.37 163.94 511.37C164.294 509.04 164.826 506.74 165.53 504.49C166.165 502.369 167.098 500.349 168.3 498.49C169.215 496.943 170.702 495.819 172.44 495.36C178.94 494.11 182.19 432.36 182.19 432.36L162.19 388.72L160.19 384.36C160.19 384.36 162.69 359.11 163.94 359.11C165.19 359.11 167.19 352.86 167.19 350.86C167.19 348.86 173.19 343.61 173.19 343.61C173.19 343.61 189.05 334.33 190.05 331.08C190.58 329.37 197.85 326.28 204.62 323.74C210.7 321.46 216.37 319.62 216.37 319.62C219.68 324.66 212.43 333.33 212.43 333.33Z" fill="#FF6484"/>
<path opacity="0.1" d="M311.87 390.77L290.28 416.08C290.28 416.08 309.03 513.33 306.78 517.83C306.608 518.204 306.497 518.602 306.45 519.01C306.219 521.341 306.262 523.69 306.58 526.01C306.84 528.46 307.24 531.18 307.69 533.89C309.01 541.79 310.78 549.53 310.78 549.53C310.78 549.53 285.53 555.53 277.78 554.78C270.03 554.03 274.53 541.53 275.78 535.78C277.03 530.03 267.28 521.98 267.28 521.98L253.53 465.53C253.53 465.53 252.53 453.03 249.53 447.03C246.53 441.03 249.28 434.53 248.28 426.03C247.57 419.97 251.93 398.31 255.22 385.72C256.47 380.93 257.57 377.46 258.22 376.65C258.248 376.606 258.282 376.566 258.32 376.53C260.32 374.78 258.32 364.53 258.32 364.53C258.32 364.53 263.07 337.53 262.57 335.28C262.29 334 263.86 330.86 265.27 328.39C266.34 326.52 267.32 325.03 267.32 325.03C267.32 325.03 276.99 331.16 293.57 344.56L295.07 345.78C312.57 360.03 313.57 388.78 313.57 388.78L311.87 390.77Z" fill="black"/>
<path d="M312.87 390.77L291.28 416.08C291.28 416.08 310.03 513.33 307.78 517.83C307.608 518.204 307.497 518.602 307.45 519.01C307.219 521.341 307.262 523.69 307.58 526.01C307.84 528.46 308.24 531.18 308.69 533.89C310.01 541.79 311.78 549.53 311.78 549.53C311.78 549.53 286.53 555.53 278.78 554.78C271.03 554.03 275.53 541.53 276.78 535.78C278.03 530.03 268.28 521.98 268.28 521.98L254.53 465.53C254.53 465.53 253.53 453.03 250.53 447.03C247.53 441.03 250.28 434.53 249.28 426.03C248.57 419.97 252.93 398.31 256.22 385.72C257.47 380.93 258.57 377.46 259.22 376.65C259.248 376.606 259.282 376.566 259.32 376.53C261.32 374.78 259.32 364.53 259.32 364.53C259.32 364.53 264.07 337.53 263.57 335.28C263.29 334 264.86 330.86 266.27 328.39C267.34 326.52 268.32 325.03 268.32 325.03C268.32 325.03 277.99 331.16 294.57 344.56L296.07 345.78C313.57 360.03 314.57 388.78 314.57 388.78L312.87 390.77Z" fill="#FF6484"/>
<path opacity="0.1" d="M267.28 404.33C267.03 406.33 273.28 512.58 279.78 518.83L267.28 404.33Z" fill="black"/>
<path d="M182.99 552.08C175.99 556.48 170.65 544.9 166.99 531.55C165.28 525.28 163.99 518.62 162.99 513.04C162.62 510.96 162.31 509.04 162.05 507.32C161.36 502.86 161.05 499.94 161.05 499.94L168.41 498.46L176.55 496.83L177.55 506.02L178.02 510.19C178.02 510.19 179.3 512.31 181.02 515.62C185.85 525.3 194.05 545.19 182.99 552.08Z" fill="#FFC5CB"/>
<path d="M311.53 519.88L309.78 528.51L308.69 533.94L308.63 534.21C308.63 534.21 286.78 563.83 279.78 551.58C274.43 542.22 287.48 526.87 293.92 520.16C295.92 518.08 297.28 516.83 297.28 516.83L307.45 519.01L311.53 519.88Z" fill="#FFC5CB"/>
<path d="M251.53 771.08C249.15 773.45 221.03 771.08 221.03 771.08C221.03 771.08 220.15 764.08 221.03 763.45C221.56 762.66 221.959 761.788 222.21 760.87C223.5 757.22 225.21 750.87 225.03 749.33C224.78 747.21 224.91 738.71 230.65 739.33C230.65 739.33 238.15 724.08 246.41 742.83V747.33C245.998 749.737 246.3 752.213 247.28 754.45C249.06 757.926 250.5 761.567 251.58 765.32C252.26 767.91 252.46 770.14 251.53 771.08Z" fill="#FF6484"/>
<path d="M251.53 771.08C249.15 773.45 221.03 771.08 221.03 771.08C221.03 771.08 220.15 764.08 221.03 763.45C221.56 762.659 221.959 761.788 222.21 760.87C225.93 759.28 230.99 757.74 234.53 759.08C239 760.78 247.25 763.76 251.53 765.32C252.26 767.91 252.46 770.14 251.53 771.08Z" fill="#E8F4FF"/>
<path opacity="0.1" d="M226.53 311.25C227.24 314.11 228.22 317 228.26 319.92C228.32 323.92 226.59 327.78 224.75 331.38C222.65 335.5 220.28 339.92 220.98 344.49C221.359 346.222 221.857 347.926 222.47 349.59C224.023 354.952 223.517 360.702 221.05 365.71C219.41 369.02 216.05 372.22 212.46 371.15C212.19 367.62 211.75 363.77 210.08 360.76C209.42 359.538 208.51 358.468 207.41 357.62C204.81 355.62 201.22 355.2 198.86 352.94C198.436 352.534 198.063 352.077 197.75 351.58C196.6 349.641 196.109 347.382 196.35 345.14C196.35 344.8 196.42 344.46 196.48 344.14C196.962 341.707 197.776 339.351 198.9 337.14C199.52 335.8 200.17 334.46 200.82 333.14C202.324 330.152 203.588 327.049 204.6 323.86C210.68 321.58 216.35 319.74 216.35 319.74C219.68 324.74 212.43 333.45 212.43 333.45C212.43 333.45 212.43 333.74 212.36 334.28C222.92 332.88 226.05 321.73 226.53 311.25Z" fill="black"/>
<path opacity="0.1" d="M241.51 273.63C238.59 274.56 235.8 276.42 234.51 279.22C233.13 282.32 233.84 285.9 233.51 289.28C233.435 290.021 233.294 290.754 233.09 291.47C231.85 295.62 227.96 298.55 226.43 302.55C226.32 302.85 226.22 303.15 226.13 303.47C225.726 305.045 225.655 306.686 225.92 308.29C222.345 304.129 220.138 298.968 219.597 293.509C219.055 288.05 220.207 282.556 222.895 277.774C225.584 272.992 229.678 269.153 234.623 266.778C239.568 264.403 245.125 263.607 250.538 264.498C255.951 265.389 260.959 267.923 264.881 271.758C268.804 275.593 271.452 280.542 272.466 285.934C273.48 291.325 272.81 296.898 270.547 301.896C268.285 306.893 264.54 311.074 259.82 313.87C260.95 310.5 262.14 307.14 263.06 303.7C265.22 295.61 265.59 286.26 260.5 279.61C258.29 276.836 255.302 274.784 251.919 273.719C248.535 272.653 244.911 272.622 241.51 273.63Z" fill="black"/>
<path opacity="0.1" d="M293.75 354.6C292.87 357.79 290.63 361.29 287.33 361.14C285.76 361.07 284.33 360.14 282.76 359.99C280.53 359.79 278.42 361.23 277.08 362.99C275.864 364.88 274.807 366.866 273.92 368.93C271.46 373.71 266.64 378.01 261.32 377.26L260.77 377.16C260.225 377.051 259.692 376.887 259.18 376.67C254.41 374.67 251.83 368.53 252 363.1C252.2 356.91 254.79 351.05 255.64 344.91C256.43 339.25 255.71 333.48 256.32 327.8C256.527 325.926 256.862 324.069 257.32 322.24C260.25 327.87 264.32 328.48 266.23 328.41C267.3 326.54 268.28 325.05 268.28 325.05C268.28 325.05 277.95 331.18 294.53 344.58C294.906 347.94 294.641 351.34 293.75 354.6Z" fill="black"/>
<path d="M256.05 243.91C261.24 245.78 265.61 249.59 270.93 251.04C272.678 251.384 274.405 251.831 276.1 252.38C282.1 254.79 284.28 262.03 285.43 268.38C287.5 279.84 288.99 292.2 296.63 300.99C297.99 302.55 299.57 304.05 300.2 305.99C300.83 307.93 299.98 310.61 297.95 311.04C301.43 312.51 303.14 316.81 302.41 320.52C301.68 324.23 298.97 327.29 295.78 329.33C294.29 330.33 292.49 331.33 292.29 333.09C292.278 334.034 292.494 334.967 292.92 335.81C294.981 341.157 295.279 347.022 293.77 352.55C292.89 355.73 290.65 359.24 287.35 359.09C285.78 359.02 284.35 358.09 282.79 357.94C280.55 357.74 278.45 359.18 277.1 360.94C275.882 362.828 274.825 364.815 273.94 366.88C271.49 371.66 266.67 375.96 261.34 375.21C255.21 374.34 251.83 367.21 252.02 361.05C252.21 354.89 254.82 349 255.67 342.86C256.45 337.2 255.73 331.43 256.35 325.75C257.25 317.43 260.96 309.7 263.12 301.62C265.28 293.54 265.64 284.18 260.55 277.53C258.343 274.749 255.354 272.692 251.968 271.622C248.582 270.553 244.954 270.521 241.55 271.53C238.62 272.46 235.84 274.32 234.55 277.12C232.87 280.9 234.3 285.4 233.12 289.37C231.79 293.83 227.39 296.89 226.12 301.37C224.64 306.76 228.12 312.24 228.22 317.82C228.28 321.82 226.55 325.68 224.72 329.28C222.61 333.4 220.24 337.82 220.95 342.39C221.325 344.122 221.82 345.826 222.43 347.49C224.016 352.879 223.524 358.667 221.05 363.71C219.41 367.02 215.99 370.22 212.46 369.15C212.07 364.2 211.37 358.62 207.41 355.62C204.8 353.62 201.21 353.2 198.85 350.93C197.879 349.893 197.149 348.654 196.712 347.302C196.275 345.951 196.141 344.519 196.32 343.11C196.696 340.296 197.559 337.568 198.87 335.05C201.74 328.85 205.23 322.67 205.63 315.85C206.23 305.56 199.63 295.42 202.03 285.38C204.03 276.98 211.79 271.09 214.73 262.97C216.3 258.61 216.55 253.5 219.73 250.15C224.33 245.34 231.36 246.97 237.18 245.52C239.88 244.84 242.18 243.44 245.02 242.97C248.716 242.322 252.517 242.646 256.05 243.91Z" fill="#925978"/>
<path opacity="0.1" d="M185.05 457.31C185.05 457.31 185.05 479.81 185.05 489.81C185.05 491.15 185.05 492.54 184.97 493.94C184.63 502.94 183.26 512.31 183.26 512.31C181.66 509.953 179.734 507.836 177.54 506.02C172.75 502.25 168.67 502.73 165.6 504.45C164.274 505.219 163.073 506.187 162.04 507.32C161.35 502.86 161.04 499.94 161.04 499.94L168.4 498.46C169.315 496.913 170.802 495.788 172.54 495.33C179.04 494.08 182.29 432.33 182.29 432.33L162.29 388.69V386.56L169.05 375.81C180.3 366.06 183.05 380.06 183.05 380.06C183.05 380.06 185.05 418.06 185.05 419.06C185.05 420.06 185.05 457.31 185.05 457.31Z" fill="black"/>
<path d="M183.05 455.08C183.05 455.08 183.05 477.58 183.05 487.58C183.05 488.92 183.05 490.31 182.97 491.71C182.63 500.71 181.26 510.08 181.26 510.08C167.26 490.33 157.38 508.68 157.38 508.68L154.26 500.33C153.066 499.306 152.052 498.089 151.26 496.73C145.17 486.65 148.9 469.08 148.9 469.08C151.03 441.58 160.27 410.58 160.27 410.58V384.33L167.05 373.58C178.3 363.83 183.05 377.83 183.05 377.83C183.05 377.83 183.05 415.83 183.05 416.83C183.05 417.83 183.05 455.08 183.05 455.08Z" fill="#FF6484"/>
<path opacity="0.1" d="M182.99 490.71C182.65 499.71 181.28 509.08 181.28 509.08C167.28 489.33 157.4 507.68 157.4 507.68L154.28 499.33C153.086 498.306 152.072 497.089 151.28 495.73C157.8 492.14 172.17 485.52 182.99 490.71Z" fill="black"/>
<path d="M182.99 491.71C182.65 500.71 181.28 510.08 181.28 510.08C167.28 490.33 157.4 508.68 157.4 508.68L154.28 500.33C153.086 499.306 152.072 498.089 151.28 496.73C157.8 493.14 172.17 486.52 182.99 491.71Z" fill="#FF6484"/>
<path opacity="0.1" d="M182.99 491.71C182.65 500.71 181.28 510.08 181.28 510.08C167.28 490.33 157.4 508.68 157.4 508.68L154.28 500.33C153.086 499.306 152.072 498.089 151.28 496.73C157.8 493.14 172.17 486.52 182.99 491.71Z" fill="white"/>
<path opacity="0.1" d="M164.05 424.08C164.05 424.08 168.55 448.83 173.05 456.08C177.55 463.33 164.05 424.08 164.05 424.08Z" fill="black"/>
<path opacity="0.1" d="M152.53 466.08C152.53 466.08 155.28 481.08 161.03 482.83C166.78 484.58 152.53 466.08 152.53 466.08Z" fill="black"/>
<path opacity="0.1" d="M307.45 519.01L311.53 519.88L309.78 528.51C309.116 527.634 308.38 526.814 307.58 526.06C303.876 522.527 299.031 520.434 293.92 520.16C291.698 520.017 289.467 520.158 287.28 520.58C288.232 517.183 288.861 513.704 289.16 510.19C289.338 508.869 289.119 507.525 288.53 506.33C286.53 503.58 285.53 478.08 285.53 478.08C285.53 478.08 287.28 465.08 288.28 462.58C289.28 460.08 283.78 447.3 284.03 443.44C284.28 439.58 287.28 406.33 287.28 404.58C287.28 402.83 293.78 368.58 307.28 381.58L312.53 388.83L312.87 390.77L291.28 416.08C291.28 416.08 310.03 513.33 307.78 517.83C307.608 518.203 307.497 518.601 307.45 519.01Z" fill="black"/>
<path d="M330.05 497.33C325.97 501.41 317.48 514.87 315.15 518.61L314.55 519.61L312.55 529.61C312.55 529.61 305.55 517.61 289.3 520.61C290.252 517.213 290.881 513.735 291.18 510.22C291.358 508.899 291.139 507.555 290.55 506.36C288.55 503.61 287.55 478.11 287.55 478.11C287.55 478.11 289.3 465.11 290.3 462.61C291.3 460.11 285.8 447.33 286.05 443.47C286.3 439.61 289.3 406.36 289.3 404.61C289.3 402.86 295.8 368.61 309.3 381.61L314.55 388.86L318.55 411.61L326.3 451.11C326.3 451.11 328.3 466.61 330.05 468.86C331.8 471.11 334.78 492.58 330.05 497.33Z" fill="#FF6484"/>
<path opacity="0.1" d="M315.13 517.61L314.53 518.61L312.53 528.61C312.53 528.61 305.53 516.61 289.28 519.61C290.232 516.213 290.861 512.734 291.16 509.22C296.73 509.57 307.95 511.14 315.13 517.61Z" fill="black"/>
<path d="M315.13 518.61L314.53 519.61L312.53 529.61C312.53 529.61 305.53 517.61 289.28 520.61C290.232 517.213 290.861 513.734 291.16 510.22C296.73 510.57 307.95 512.14 315.13 518.61Z" fill="#FF6484"/>
<path opacity="0.1" d="M315.13 518.61L314.53 519.61L312.53 529.61C312.53 529.61 305.53 517.61 289.28 520.61C290.232 517.213 290.861 513.734 291.16 510.22C296.73 510.57 307.95 512.14 315.13 518.61Z" fill="white"/>
<path opacity="0.1" d="M298.78 448.331C298.78 448.331 315.78 448.121 318.28 456.971C320.78 465.821 298.78 448.331 298.78 448.331Z" fill="black"/>
<path opacity="0.1" d="M295.53 473.33C295.53 473.33 324.28 472.08 323.03 484.58C321.78 497.08 295.53 473.33 295.53 473.33Z" fill="black"/>
<path opacity="0.1" d="M297.28 492.58C297.28 492.58 299.53 492.08 301.03 497.33C302.53 502.58 297.28 492.58 297.28 492.58Z" fill="black"/>
<path opacity="0.1" d="M239.05 614.83C239.05 614.83 245.9 612.83 249.05 614.83C252.2 616.83 239.05 614.83 239.05 614.83Z" fill="black"/>
<path opacity="0.1" d="M240.28 622.08C240.28 622.08 256.53 622.33 258.03 624.08C259.53 625.83 240.28 622.08 240.28 622.08Z" fill="black"/>
<g opacity="0.1">
<path opacity="0.1" d="M205.67 312.85C206.15 304.67 202.12 296.6 201.62 288.59C201.1 296.67 205.2 304.81 205.62 313.05C205.641 312.984 205.658 312.918 205.67 312.85Z" fill="black"/>
<path opacity="0.1" d="M224.76 326.371C222.68 330.431 220.36 334.771 220.96 339.281C221.39 335.851 223.15 332.531 224.76 329.381C226.59 325.781 228.32 321.961 228.27 317.921C228.27 317.481 228.24 317.041 228.18 316.601C227.83 320.021 226.33 323.281 224.76 326.371Z" fill="black"/>
<path opacity="0.1" d="M297.93 308.08C298.672 308.394 299.35 308.842 299.93 309.4C300.429 308.351 300.522 307.154 300.19 306.04C300.19 306.04 300.19 305.95 300.14 305.9C299.999 306.427 299.719 306.907 299.331 307.29C298.942 307.673 298.459 307.946 297.93 308.08Z" fill="black"/>
<path opacity="0.1" d="M221.05 360.7C219.41 364.01 215.99 367.21 212.46 366.14C212.07 361.19 211.37 355.61 207.41 352.61C204.8 350.61 201.21 350.19 198.86 347.93C197.452 346.498 196.577 344.628 196.38 342.63C196.38 342.79 196.33 342.95 196.32 343.11C196.14 344.52 196.274 345.953 196.713 347.305C197.153 348.657 197.886 349.895 198.86 350.93C201.21 353.2 204.8 353.65 207.41 355.62C211.41 358.62 212.07 364.2 212.46 369.15C215.99 370.22 219.41 367.02 221.05 363.71C222.76 360.197 223.521 356.298 223.26 352.4C223.071 355.284 222.32 358.103 221.05 360.7Z" fill="black"/>
<path opacity="0.1" d="M302.39 317.561C301.66 321.261 298.95 324.331 295.77 326.371C294.27 327.371 292.47 328.371 292.27 330.131C292.224 330.815 292.341 331.5 292.61 332.131C293.429 330.983 294.513 330.05 295.77 329.411C298.95 327.411 301.66 324.301 302.39 320.601C302.585 319.526 302.585 318.425 302.39 317.351C302.394 317.421 302.394 317.491 302.39 317.561Z" fill="black"/>
<path opacity="0.1" d="M293.75 349.59C292.87 352.77 290.64 356.28 287.33 356.13C285.76 356.06 284.33 355.13 282.77 354.98C280.53 354.78 278.43 356.22 277.08 357.98C275.864 359.868 274.81 361.855 273.93 363.92C271.47 368.7 266.65 373 261.33 372.25C256.01 371.5 252.6 365.77 252.08 360.16C252.08 360.47 252.01 360.78 252.01 361.1C251.81 367.29 255.19 374.39 261.33 375.26C266.65 376.01 271.47 371.71 273.93 366.93C274.808 364.864 275.862 362.877 277.08 360.99C278.43 359.2 280.53 357.76 282.77 357.99C284.33 358.14 285.77 359.07 287.33 359.14C290.64 359.29 292.87 355.78 293.75 352.6C294.524 349.783 294.825 346.856 294.64 343.94C294.549 345.85 294.25 347.745 293.75 349.59Z" fill="black"/>
<path opacity="0.1" d="M260.53 277.61C263.065 281.104 264.462 285.294 264.53 289.61C264.79 284.17 263.77 278.81 260.53 274.55C258.323 271.769 255.334 269.712 251.948 268.643C248.562 267.573 244.934 267.541 241.53 268.55C238.6 269.48 235.82 271.34 234.53 274.14C232.84 277.92 234.27 282.43 233.09 286.39C231.76 290.85 227.36 293.91 226.09 298.39C225.72 299.826 225.632 301.32 225.83 302.79C225.884 302.321 225.971 301.857 226.09 301.4C227.32 296.92 231.72 293.86 233.09 289.4C234.27 285.4 232.84 280.93 234.53 277.15C235.78 274.35 238.53 272.49 241.53 271.56C244.939 270.557 248.57 270.597 251.957 271.675C255.343 272.753 258.329 274.82 260.53 277.61Z" fill="black"/>
</g>
<g opacity="0.8">
<path opacity="0.8" d="M567.86 661.02C612.153 661.02 648.06 625.113 648.06 580.82C648.06 536.527 612.153 500.62 567.86 500.62C523.567 500.62 487.66 536.527 487.66 580.82C487.66 625.113 523.567 661.02 567.86 661.02Z" fill="#1769FF"/>
<path opacity="0.8" d="M544.31 544.47C547.49 544.444 550.664 544.752 553.78 545.39C556.396 545.9 558.887 546.919 561.11 548.39C563.147 549.792 564.779 551.706 565.84 553.94C567.047 556.628 567.625 559.556 567.53 562.5C567.643 565.736 566.771 568.93 565.03 571.66C563.147 574.281 560.6 576.352 557.65 577.66C561.681 578.66 565.225 581.059 567.65 584.43C569.595 587.583 570.721 591.173 570.926 594.872C571.13 598.571 570.406 602.262 568.82 605.61C567.456 608.226 565.484 610.476 563.07 612.17C560.567 613.91 557.773 615.186 554.82 615.94C551.715 616.751 548.519 617.161 545.31 617.16H510.11V544.47H544.31ZM542.31 573.89C544.798 573.998 547.254 573.296 549.31 571.89C551.15 570.557 552.067 568.35 552.06 565.27C552.115 563.825 551.798 562.389 551.14 561.1C550.565 560.05 549.724 559.171 548.7 558.55C547.616 557.919 546.427 557.488 545.19 557.28C543.826 557.043 542.444 556.926 541.06 556.93H526.06V573.93L542.31 573.89ZM543.23 604.73C544.735 604.737 546.237 604.583 547.71 604.27C549.047 604.004 550.323 603.488 551.47 602.75C552.571 602.023 553.467 601.024 554.07 599.85C554.776 598.39 555.119 596.781 555.07 595.16C555.07 591.44 554.02 588.77 551.91 587.16C549.469 585.458 546.532 584.614 543.56 584.76H526.16V604.76L543.23 604.73ZM591.13 603.2C593.303 605.307 596.423 606.36 600.49 606.36C603.18 606.426 605.823 605.65 608.05 604.14C609.83 603.083 611.196 601.45 611.92 599.51H624.64C622.6 605.824 619.477 610.337 615.27 613.05C610.673 615.882 605.347 617.304 599.95 617.14C596.127 617.191 592.329 616.512 588.76 615.14C585.561 613.903 582.676 611.973 580.31 609.49C577.95 606.968 576.13 603.99 574.96 600.74C573.675 597.148 573.039 593.356 573.08 589.54C573.045 585.786 573.699 582.058 575.01 578.54C576.216 575.27 578.081 572.282 580.489 569.762C582.897 567.242 585.798 565.243 589.01 563.89C592.473 562.427 596.201 561.699 599.96 561.75C604.016 561.656 608.035 562.548 611.67 564.35C614.908 566.014 617.712 568.411 619.86 571.35C622.037 574.352 623.61 577.748 624.49 581.35C625.442 585.176 625.779 589.129 625.49 593.06H587.49C587.69 597.72 588.88 601.12 591.05 603.21L591.13 603.2ZM607.47 575.52C605.737 573.62 603.107 572.67 599.58 572.67C597.598 572.6 595.627 573.001 593.83 573.84C592.412 574.527 591.163 575.517 590.17 576.74C589.29 577.821 588.631 579.065 588.23 580.4C587.891 581.528 587.67 582.687 587.57 583.86H611.05C610.383 580.2 609.177 577.42 607.43 575.52H607.47ZM585.05 548.14H614.42V556.29H585.05V548.14Z" fill="white"/>
</g>
<g opacity="0.8">
<path opacity="0.8" d="M930.28 627.79C930.28 628.54 930.28 629.3 930.28 630.06C929.733 649.259 922.316 667.624 909.377 681.818C896.438 696.012 878.836 705.093 859.77 707.41C856.567 707.792 853.345 707.982 850.12 707.98C834.257 707.98 818.751 703.276 805.562 694.463C792.373 685.65 782.094 673.124 776.024 658.469C769.954 643.814 768.366 627.688 771.462 612.13C774.557 596.573 782.196 582.282 793.414 571.067C804.631 559.851 818.922 552.213 834.48 549.12C850.038 546.027 866.164 547.616 880.818 553.688C895.473 559.76 907.997 570.04 916.809 583.231C925.62 596.421 930.322 611.928 930.32 627.79H930.28Z" fill="#B3BBC6"/>
<path opacity="0.8" d="M930.24 630.06C929.693 649.259 922.276 667.624 909.337 681.818C896.398 696.012 878.796 705.093 859.73 707.41L794.25 658.7L802.43 605.7L834.81 607.7L853.23 623.14L866.33 601.79L888.33 620.07L900.16 628.54V601.81L929.98 629.41C930.05 629.63 930.16 629.84 930.24 630.06Z" fill="#666C76"/>
<path opacity="0.8" d="M844.34 629.76C844.34 612.76 833.89 601.24 813.99 601.24H794.34V658.46H814.4C833.72 658.46 844.34 646.76 844.34 629.76ZM830.07 629.85C830.07 642.12 823.77 647.43 813.66 647.43H808.51V612.27H813.66C823.36 612.27 830.07 617.82 830.07 629.85ZM900.81 658.46V601.24H887.62V633.24L866.56 601.24H852.79V658.45H865.98V624.21L888.53 658.45H900.81V658.46Z" fill="white"/>
</g>
<path d="M869.98 542.47C868.98 540.47 859.65 527.09 859.65 527.09L859.37 525.89L856.31 512.24L856.1 511.24C858.1 510.73 859.54 510.1 859.99 509.31C862.19 505.46 858.13 500.78 858.13 500.78L857.28 480.54L855.08 431.54C855.08 431.54 850.51 415.14 849.83 411.3C849.15 407.46 842.89 399.42 842.89 399.42C842.89 399.42 844.24 395.42 842.55 392.56C840.86 389.7 837.13 376.33 837.13 376.33L833.92 339.33L832.39 302.93C833.924 302.919 835.455 303.063 836.96 303.36C837.18 303.54 837.06 303.09 836.74 302.28C836.818 302.293 836.892 302.32 836.96 302.36C837.48 302.78 836.09 299.65 834.59 296.46L834.41 296.09C835.13 293.48 838.11 282.91 840.18 279.09C841.72 276.27 838.76 256.8 836.5 243.5C836.34 242.55 836.18 241.64 836.03 240.76C839.7 234.34 843.91 227.06 843.91 227.06C843.91 227.06 854.57 196.62 858.97 183.4C863.37 170.18 858.97 135.9 858.97 135.9C858.97 135.9 858.97 134.22 858.73 131.6C858.04 124.52 855.4 110.67 845.26 105.29C831.38 97.9301 826.98 88.9001 826.98 88.9001C826.98 88.9001 809.66 73.1401 807.47 78.4301L807.32 78.1301C806.026 75.4851 805.075 72.6858 804.49 69.8001C804.43 69.5001 804.38 69.2001 804.33 68.9101C806.543 67.1628 808.467 65.0771 810.03 62.7301C810.03 63.1701 809.96 63.6101 809.93 64.0501C809.93 64.3301 809.93 64.6101 809.93 64.8801V65.2601C809.92 65.4433 809.92 65.6269 809.93 65.8101C809.93 65.9201 809.93 66.0301 809.93 66.1401C810.571 66.2027 811.215 66.0688 811.778 65.7562C812.34 65.4436 812.795 64.9671 813.08 64.3901C813.622 63.2358 813.983 62.0046 814.15 60.7401C814.735 58.0472 815.809 55.4846 817.32 53.1801C818.8 50.9101 820.78 48.6301 821.04 46.0401C821.08 45.6612 821.08 45.279 821.04 44.9001C820.91 43.5801 820.29 42.3501 820.1 41.0401C820.018 40.3759 820.018 39.7043 820.1 39.0401C820.1 38.6501 820.19 38.2601 820.25 37.8801C820.31 37.5001 820.41 36.8801 820.48 36.3201C820.55 35.7601 820.61 35.4501 820.66 35.0101V34.9601C820.8 33.8077 820.8 32.6425 820.66 31.4901C820.575 30.4249 820.236 29.3955 819.672 28.4875C819.109 27.5795 818.337 26.8193 817.42 26.2701C816.42 25.7601 815.27 25.6001 814.27 25.0901C811.63 23.7401 810.79 20.5001 809.27 18.0001C808.19 16.3335 806.729 14.9481 805.008 13.9586C803.286 12.9691 801.353 12.404 799.37 12.3101C795.37 12.1501 791.45 13.9001 787.52 13.3101C785.01 12.9101 782.7 11.5501 780.16 11.3701C776.45 11.1101 773.11 13.3701 770.1 15.5401C767.97 17.0701 765.7 18.8001 765 21.3201C764.44 23.3801 765 25.7501 763.84 27.5501C763.09 28.7201 761.73 29.3901 760.89 30.5501C760.196 31.4726 759.843 32.6067 759.89 33.7601C759.89 33.8601 759.89 33.9701 759.89 34.0801C759.89 34.1901 759.89 34.4401 759.89 34.6201C759.96 35.3901 760.1 36.1701 760.23 36.9301C760.234 37.01 760.234 37.0902 760.23 37.1701C760.53 39.2801 759.85 40.7601 759.09 42.8201C758.766 43.6887 758.584 44.6037 758.55 45.5301C758.55 45.5301 758.55 45.6201 758.55 45.6701C758.55 45.7201 758.55 45.8001 758.55 45.8701C758.54 46.0633 758.54 46.2569 758.55 46.4501C758.64 47.1691 758.955 47.8412 759.45 48.3701C759.699 47.9618 760.042 47.619 760.45 47.3701C760.45 47.6701 760.45 47.9701 760.45 48.2801V48.3401C760.452 51.8652 761.162 55.354 762.536 58.6003C763.91 61.8466 765.921 64.7844 768.45 67.2401C768.45 67.5301 768.37 67.8301 768.33 68.1201C767.9 71.1201 767.33 74.4201 766.64 77.5801L766.4 78.5801H761.4C761.4 78.5801 762.25 74.9001 753.95 79.4201C745.65 83.9401 735.49 86.1101 733.95 86.9401C732.41 87.7701 713.64 102.34 713.64 102.34C713.64 102.34 697.38 111.7 697.89 127.76L696.03 145.76L694.68 179.38C694.68 179.38 692.14 207.99 694.68 212C697.22 216.01 701.62 239.77 700.77 242.78C700.16 244.96 706.29 260.28 710.55 269.21C709.406 270.416 708.347 271.699 707.38 273.05C707.38 273.05 705.68 279.75 705.68 280.42C705.68 280.42 705.68 280.49 705.76 280.53C702.01 284.33 696.03 290.58 696.03 291.96C696.03 293.96 697.22 295.71 695.36 295.59C693.5 295.47 693.44 297.65 693.55 298.98C693.66 300.31 691.29 298.32 691.46 300.82C691.63 303.32 674.19 342.64 674.19 342.64C674.19 342.64 666.24 361.88 663.19 365.06C660.14 368.24 655.91 382.29 656.25 387.47C656.59 392.65 656.76 394.17 655.4 394.17C654.04 394.17 651.34 398.85 651.34 398.85L637.97 440C637.97 440 634.07 452.71 632.89 452.55C631.71 452.39 629.05 474.39 629.05 474.39C629.05 474.39 626.18 480.91 625.67 480.91C625.57 480.91 626.04 481.38 626.91 482.12L626.33 482.61C625.073 483.686 623.754 484.688 622.38 485.61C622.33 485.61 614.65 480.28 609.38 480.78C604.11 481.28 593.3 482.61 587.87 478.78C584.87 476.64 578.54 474.78 573.45 474.7C569.39 474.64 566.1 475.7 565.87 478.78C565.36 485.63 584.32 498.52 584.32 498.52C584.32 498.52 604.32 504.2 608.19 509.52C612.06 514.84 628.05 522.9 628.05 522.9C628.05 522.9 632.86 520.78 634.67 518.65C634.886 518.447 635.057 518.2 635.17 517.926C635.284 517.652 635.339 517.357 635.33 517.06C634.99 514.55 641.93 505.06 641.93 505.06L642.93 500.35C643.42 498.02 644.04 495.18 644.65 492.69C644.73 492.35 644.81 492.017 644.89 491.69C645.683 491.73 646.476 491.608 647.22 491.33C653.99 488.66 654.67 481.33 654.67 481.33L664.8 460.14C664.8 460.14 669.2 447.93 670.55 445.75C671.9 443.57 682.4 421.67 682.4 421.67C682.4 421.67 684.26 412.3 685.96 409.46C687.66 406.62 687.82 400.46 687.82 400.46C687.82 400.46 691.37 391.09 695.1 387.41C697.786 384.522 700.116 381.323 702.04 377.88C702.04 377.88 717.44 353.62 727.94 346.77C727.94 346.77 753.17 315.99 754.69 313.31C756.21 310.63 760.95 303.61 766.69 309.96C772.43 316.31 778.53 324.52 778.53 324.52L788.87 352.62L800.38 388.62C800.38 388.62 805.79 397.31 805.46 399.15C805.13 400.99 814.26 417.39 814.26 417.39C814.26 417.39 817.81 423.39 817.14 426.39C816.47 429.39 819.68 432.39 819.68 432.39L820.68 444.6C820.68 444.6 824.41 456.6 823.39 458.49C822.37 460.38 826.95 471.87 826.95 471.87C826.95 471.87 826.95 482.07 828.64 485.42C830.33 488.77 832.39 502.14 832.22 503.14C832.05 504.14 832.22 513.35 832.22 513.35C832.22 513.35 833.41 513.35 835.3 513.29L835.38 514.29L836.22 524.36L836.3 525.29C835.846 525.64 835.473 526.084 835.205 526.591C834.938 527.099 834.783 527.658 834.75 528.23C834.75 530.95 835.15 538.94 835.49 545.23C835.57 546.9 835.66 548.44 835.74 549.73C835.767 550.181 835.885 550.621 836.089 551.024C836.292 551.428 836.576 551.785 836.922 552.074C837.269 552.364 837.671 552.579 838.104 552.708C838.537 552.836 838.992 552.874 839.44 552.82C844.254 552.213 849.135 552.395 853.89 553.36C859.159 554.57 864.581 554.968 869.97 554.54C869.97 554.54 870.34 550.77 870.4 547.39C870.45 545.23 870.37 543.24 869.98 542.47Z" fill="url(#paint1_linear)"/>
<path d="M857.03 527.56H834.2L833.98 524.87L833.15 514.83L832.53 507.23H852.53L853.75 512.76L856.76 526.36L857.03 527.56Z" fill="#FFAAB0"/>
<path d="M647.19 487.22C646.76 487.64 646.05 490.17 645.33 493.22C644.04 498.58 642.69 505.55 642.69 505.55L641.85 505.75L624.05 510.05C624.05 510.05 614.72 488.72 619.05 488.22C620.577 487.9 622.019 487.26 623.28 486.34C624.707 485.394 626.073 484.358 627.37 483.24C629.74 481.24 631.55 479.38 631.55 479.38C631.55 479.38 648.36 486.05 647.19 487.22Z" fill="#FFAAB0"/>
<path opacity="0.1" d="M647.19 487.22C646.76 487.64 646.05 490.17 645.33 493.22C639.18 492.86 629.88 485.56 627.33 483.22C629.7 481.22 631.51 479.36 631.51 479.36C631.51 479.36 648.36 486.05 647.19 487.22Z" fill="black"/>
<path opacity="0.1" d="M853.74 512.75C848.26 514.23 838.21 514.68 833.14 514.82L832.52 507.22H852.52L853.74 512.75Z" fill="black"/>
<path d="M708.69 278.89C708.69 278.89 696.19 291.22 696.19 293.22C696.19 295.22 697.36 296.95 695.53 296.84C693.7 296.73 693.64 298.89 693.75 300.22C693.86 301.55 691.53 299.55 691.69 302.05C691.85 304.55 674.69 343.72 674.69 343.72C674.69 343.72 666.86 362.89 663.86 366.05C660.86 369.21 656.69 383.22 657.03 388.39C657.37 393.56 657.53 395.05 656.19 395.05C654.85 395.05 652.19 399.72 652.19 399.72L639.03 440.72C639.03 440.72 635.19 453.39 634.03 453.22C632.87 453.05 630.03 475.05 630.03 475.05C630.03 475.05 627.19 481.55 626.69 481.55C626.19 481.55 641.19 494.55 647.86 491.89C654.53 489.23 655.19 481.89 655.19 481.89L665.19 460.89C665.19 460.89 669.53 448.72 670.86 446.55C672.19 444.38 682.53 422.55 682.53 422.55C682.53 422.55 684.36 413.22 686.03 410.39C687.7 407.56 687.86 401.39 687.86 401.39C687.86 401.39 691.36 392.05 695.03 388.39C697.676 385.505 699.968 382.316 701.86 378.89C701.86 378.89 717.03 354.72 727.36 347.89C727.36 347.89 752.19 317.22 753.69 314.55C755.19 311.88 759.86 304.89 765.53 311.22C771.2 317.55 777.19 325.72 777.19 325.72L787.36 353.72L798.69 389.55C798.69 389.55 804.03 398.22 803.69 400.05C803.35 401.88 812.36 418.22 812.36 418.22C812.36 418.22 815.86 424.22 815.19 427.22C814.52 430.22 817.69 433.22 817.69 433.22L818.69 445.39C818.69 445.39 822.36 457.39 821.36 459.22C820.36 461.05 824.86 472.55 824.86 472.55C824.86 472.55 824.86 482.72 826.53 486.05C828.2 489.38 830.19 502.72 830.03 503.72C829.87 504.72 830.03 513.89 830.03 513.89C830.03 513.89 855.18 513.72 857.35 509.89C859.52 506.06 855.52 501.39 855.52 501.39L854.68 481.22L852.52 432.39C852.52 432.39 848.02 416.05 847.35 412.22C846.68 408.39 840.52 400.39 840.52 400.39C840.52 400.39 841.85 396.39 840.18 393.55C838.51 390.71 834.85 377.39 834.85 377.39L831.68 340.55L830.05 300.39L708.69 278.89Z" fill="#DCE6F2"/>
<path opacity="0.1" d="M834.69 304.72C833.69 303.88 792.69 303.55 792.19 303.55C791.69 303.55 776.19 297.38 776.19 297.38C776.19 297.38 741.69 291.72 736.36 294.22C731.03 296.72 714.52 289.55 714.52 289.55V286.38C714.52 286.38 705.69 283.38 705.69 282.72C705.69 282.06 707.36 275.38 707.36 275.38L708.36 275.03L712.18 273.72L829.35 292.55C829.35 292.55 830.9 295.73 832.35 298.84C833.8 301.95 835.2 305.14 834.69 304.72Z" fill="black"/>
<path d="M834.69 303.72C833.69 302.88 792.69 302.55 792.19 302.55C791.69 302.55 776.19 296.38 776.19 296.38C776.19 296.38 741.69 290.72 736.36 293.22C731.03 295.72 714.52 288.55 714.52 288.55V285.38C714.52 285.38 705.69 282.38 705.69 281.72C705.69 281.06 707.36 274.38 707.36 274.38L708.36 274.03L712.18 272.72L829.35 291.55C829.35 291.55 830.9 294.73 832.35 297.84C833.8 300.95 835.2 304.14 834.69 303.72Z" fill="#F1FAFF"/>
<path opacity="0.1" d="M643.64 499.84L642.64 504.55C642.64 504.55 642.31 505.01 641.8 505.75L624.05 510.05C624.05 510.05 614.72 488.72 619.05 488.22C620.577 487.9 622.019 487.259 623.28 486.34C622.37 493.02 627.55 500.05 627.55 500.05C634.86 505.55 643.64 499.84 643.64 499.84Z" fill="black"/>
<path d="M643.64 500.85L642.64 505.56C642.64 505.56 635.81 515.06 636.14 517.56C636.149 517.855 636.095 518.15 635.983 518.423C635.871 518.697 635.703 518.945 635.49 519.15C633.71 521.27 628.97 523.38 628.97 523.38C628.97 523.38 613.31 515.38 609.47 510.05C605.63 504.72 585.97 499.05 585.97 499.05C585.97 499.05 567.31 486.21 567.81 479.38C568.03 476.38 571.27 475.26 575.27 475.32C580.27 475.38 586.5 477.25 589.47 479.38C594.81 483.21 605.47 481.88 610.64 481.38C615.81 480.88 623.41 486.2 623.41 486.2C621.68 493.2 627.47 501.05 627.47 501.05C634.86 506.56 643.64 500.85 643.64 500.85Z" fill="#575988"/>
<path d="M635.54 519.14C633.76 521.26 629.02 523.37 629.02 523.37C629.02 523.37 613.36 515.37 609.52 510.04C605.68 504.71 586.02 499.04 586.02 499.04C586.02 499.04 567.36 486.2 567.86 479.37C568.08 476.37 571.32 475.25 575.32 475.31C578.32 480.31 582.75 487.26 586.02 489.2C591.36 492.37 601.86 498.37 601.86 498.37C601.86 498.37 618.52 508.87 619.69 510.04C620.65 511.01 630.3 517.39 635.54 519.14Z" fill="#F1FAFF"/>
<path opacity="0.1" d="M857.05 527.55H834.19L833.97 524.86C836.85 522.15 843.02 520.86 843.02 520.86C847.3 519.55 855.19 525.17 856.75 526.33L857.05 527.55Z" fill="black"/>
<path d="M867.62 547.77C867.56 551.14 867.19 554.89 867.19 554.89C861.885 555.319 856.545 554.924 851.36 553.72C846.682 552.756 841.877 552.573 837.14 553.18C836.695 553.233 836.245 553.194 835.816 553.065C835.387 552.936 834.989 552.721 834.647 552.432C834.305 552.144 834.025 551.788 833.826 551.386C833.627 550.985 833.513 550.548 833.49 550.1C833.42 548.82 833.33 547.28 833.25 545.62C832.91 539.39 832.52 531.43 832.52 528.72C832.52 524.06 843.02 521.89 843.02 521.89C847.78 520.43 857.02 527.56 857.02 527.56C857.02 527.56 866.19 540.89 867.19 542.89C867.58 543.66 867.66 545.64 867.62 547.77Z" fill="#575988"/>
<path d="M867.62 547.77C867.56 551.14 867.19 554.89 867.19 554.89C861.885 555.319 856.545 554.924 851.36 553.72C846.682 552.756 841.877 552.573 837.14 553.18C836.695 553.233 836.245 553.194 835.816 553.065C835.387 552.936 834.989 552.721 834.647 552.432C834.305 552.143 834.025 551.787 833.826 551.386C833.627 550.985 833.513 550.548 833.49 550.1C833.42 548.82 833.33 547.28 833.25 545.62C837.09 545.04 842.75 544.48 846.69 545.39C851.27 546.45 861.79 547.34 867.62 547.77Z" fill="#F1FAFF"/>
<path opacity="0.1" d="M639.94 447.64C639.94 447.64 636.44 453.64 639.94 456.39C643.44 459.14 639.94 447.64 639.94 447.64Z" fill="black"/>
<path opacity="0.1" d="M827.94 470.89C828.94 472.89 831.6 475.89 831.14 479.39C830.68 482.89 827.94 470.89 827.94 470.89Z" fill="black"/>
<path d="M824.86 105.22C824.86 105.22 809.59 103.67 793.76 101.57L793.11 101.48C774.73 99.0302 755.87 95.8602 759.52 93.5502C761.15 92.5502 762.52 90.0102 763.65 86.8102C764.354 84.7607 764.945 82.6743 765.42 80.5602C765.5 80.2302 765.57 79.8902 765.65 79.5602C766.34 76.4102 766.89 73.1202 767.32 70.1402C768.17 64.0702 768.52 59.2302 768.52 59.2302C768.52 59.2302 807.69 44.3902 802.86 62.8902C802.128 65.8606 802.08 68.9585 802.72 71.9502C803.296 74.8236 804.233 77.6125 805.51 80.2502C811.75 93.5702 824.86 105.22 824.86 105.22Z" fill="#FFAAB0"/>
<path opacity="0.1" d="M802.86 62.8799C802.128 65.8504 802.08 68.9483 802.72 71.9399C797.637 76.0627 791.209 78.1589 784.673 77.8248C778.137 77.4906 771.956 74.7496 767.32 70.1299C768.17 64.0599 768.52 59.2199 768.52 59.2199C768.52 59.2199 807.69 44.3799 802.86 62.8799Z" fill="black"/>
<path d="M812.52 50.3599C812.528 57.3881 809.744 64.1316 804.78 69.107C802.322 71.5705 799.403 73.5258 796.189 74.8612C792.975 76.1966 789.53 76.8859 786.05 76.8899C782.57 76.8938 779.123 76.2123 775.907 74.8842C772.69 73.556 769.766 71.6074 767.303 69.1494C762.328 64.1853 759.528 57.4481 759.52 50.4199V50.3599C759.52 43.3316 762.312 36.5912 767.282 31.6215C772.251 26.6518 778.992 23.8599 786.02 23.8599C793.048 23.8599 799.789 26.6518 804.758 31.6215C809.728 36.5912 812.52 43.3316 812.52 50.3599Z" fill="#FFAAB0"/>
<path opacity="0.1" d="M794.11 100.48C794.035 100.855 793.917 101.221 793.76 101.57L793.11 101.48C774.73 99.0301 755.87 95.8601 759.52 93.5501C761.15 92.5501 762.52 90.0101 763.65 86.8101C764.354 84.7606 764.945 82.6742 765.42 80.5601C765.5 80.2301 765.57 79.8901 765.65 79.5601H766.42C766.48 79.9801 768.42 92.7901 785.61 94.9801L786.19 95.0501C792.9 95.8001 794.61 98.0001 794.11 100.48Z" fill="black"/>
<path d="M793.11 101.48C792.27 105.63 785.19 110.55 785.19 110.55L765.52 106.88C765.52 106.88 753.19 95.8798 753.19 95.5498C753.19 95.2198 760.52 80.5498 760.52 80.5498H765.42C765.48 80.9698 767.42 93.7798 784.61 95.9698L785.19 96.0398C791.9 96.7998 793.61 98.9998 793.11 101.48Z" fill="#F1FAFF"/>
<path opacity="0.1" d="M824.86 105.22C824.86 105.22 809.17 103.63 793.11 101.48C792.27 105.63 785.19 110.55 785.19 110.55L765.52 106.88C765.52 106.88 753.19 95.8802 753.19 95.5502C753.19 95.2202 760.52 80.5502 760.52 80.5502H760.77C761.415 82.7678 762.386 84.8774 763.65 86.8102C766.74 91.5302 772.65 96.7002 783.65 96.0502L784.57 95.9802C801.08 94.6102 804.79 83.1802 805.47 80.2402C811.75 93.5702 824.86 105.22 824.86 105.22Z" fill="black"/>
<path opacity="0.1" d="M832.35 297.84L832.02 299.05C828.02 296.05 798.86 294.05 798.86 294.05C798.86 294.05 791.19 293.15 783.86 291.98C778.54 291.13 773.4 290.13 771.51 289.22C771.07 289.024 770.62 288.853 770.16 288.71C763.52 286.63 743.16 284.22 743.16 284.22C743.16 284.22 733.16 288.72 727.83 286.72C722.5 284.72 707.33 275.38 707.33 275.38C707.33 275.38 707.66 274.88 708.33 274.03L712.15 272.72L829.32 291.55C829.32 291.55 830.91 294.73 832.35 297.84Z" fill="black"/>
<path d="M834.23 245.14C836.46 258.4 839.37 277.79 837.86 280.6C835.52 284.93 832.02 298.1 832.02 298.1C828.02 295.1 798.86 293.1 798.86 293.1C798.86 293.1 791.19 292.2 783.86 291.03C778.54 290.18 773.4 289.18 771.51 288.27C771.07 288.074 770.619 287.904 770.16 287.76C763.52 285.68 743.16 283.27 743.16 283.27C743.16 283.27 733.16 287.77 727.83 285.77C722.5 283.77 707.33 274.43 707.33 274.43C709.514 271.436 712.03 268.698 714.83 266.27C719.99 261.6 729.49 221.43 729.25 220.93C729.01 220.43 726.66 207.6 727.33 200.1C728 192.6 725.33 155.93 725.33 155.93C725.33 155.93 698.52 145.55 698.05 129.55C697.58 113.55 713.55 104.22 713.55 104.22C713.55 104.22 732.05 89.7201 733.55 88.8801C735.05 88.0401 745.05 85.8801 753.22 81.3801C761.39 76.8801 760.55 80.5501 760.55 80.5501C760.55 80.5501 763.89 98.2201 783.72 97.0501C803.55 95.8801 805.72 80.5501 805.72 80.5501C807.85 75.2201 824.93 91.0501 824.93 91.0501C824.93 91.0501 829.26 100.05 842.93 107.38C852.93 112.74 855.51 126.54 856.19 133.59C856.44 136.2 856.43 137.88 856.43 137.88L816.26 166.72L832.05 232.55C832.05 232.55 833.05 237.92 834.23 245.14Z" fill="#575988"/>
<path d="M734.86 279.39C734.86 279.39 748.03 302.05 761.69 295.72C764.768 294.32 767.324 291.982 768.99 289.04C774.38 279.72 768.99 267.83 758.55 265.04C754.7 264.04 750.55 263.41 747.19 264.04C737.69 265.72 734.86 279.39 734.86 279.39Z" fill="#FFAAB0"/>
<path opacity="0.1" d="M734.86 279.39C734.86 279.39 748.03 302.05 761.69 295.72C764.768 294.32 767.324 291.982 768.99 289.04C774.38 279.72 768.99 267.83 758.55 265.04C754.7 264.04 750.55 263.41 747.19 264.04C737.69 265.72 734.86 279.39 734.86 279.39Z" fill="black"/>
<path opacity="0.1" d="M715.53 113.89C715.53 113.89 725.92 120.89 726.14 131.89L715.53 113.89Z" fill="black"/>
<path opacity="0.1" d="M731.86 119.22C731.86 119.89 728.86 166.22 734.19 182.05C739.52 197.88 731.86 119.22 731.86 119.22Z" fill="black"/>
<path opacity="0.1" d="M812.52 50.3601C812.532 55.4955 811.041 60.5221 808.23 64.8201C808.23 64.4801 808.23 64.1501 808.23 63.8201C808.06 61.0401 806.59 58.5301 805.16 56.1301C804.187 54.2217 802.824 52.5388 801.16 51.1901C800.674 50.9078 800.222 50.5724 799.81 50.1901C798.89 49.1901 798.99 47.6001 798.81 46.1901C798.544 44.3462 797.707 42.6317 796.418 41.2868C795.129 39.9419 793.451 39.034 791.62 38.6901C790.86 38.5003 790.056 38.6151 789.38 39.0101C788.7 39.4901 788.38 40.3801 787.81 40.9301C786.91 41.7401 785.53 41.6401 784.34 41.4101C781.72 40.8901 778.99 39.9401 776.45 40.7801C772.09 42.2301 770.45 48.2601 765.98 49.3801C764.656 49.5778 763.319 49.6714 761.98 49.6601C761.119 49.7164 760.284 49.9732 759.54 50.4101V50.3501C759.54 43.3219 762.332 36.5815 767.302 31.6118C772.271 26.6421 779.012 23.8501 786.04 23.8501C793.068 23.8501 799.809 26.6421 804.778 31.6118C809.748 36.5815 812.54 43.3219 812.54 50.3501L812.52 50.3601Z" fill="black"/>
<path d="M759.78 32.7702C760.61 31.6602 761.94 30.9902 762.69 29.8202C763.83 28.0302 763.27 25.6702 763.83 23.6202C764.51 21.1102 766.75 19.3902 768.83 17.8602C771.83 15.7002 775.08 13.4502 778.73 13.7002C781.23 13.8802 783.5 15.2402 785.98 15.6402C789.85 16.2702 793.73 14.5302 797.65 14.6402C799.609 14.7386 801.517 15.3057 803.212 16.2941C804.906 17.2825 806.339 18.6632 807.39 20.3202C808.94 22.8002 809.76 26.0302 812.39 27.3202C813.39 27.8302 814.51 27.9902 815.49 28.5002C816.397 29.053 817.16 29.8139 817.714 30.7199C818.269 31.6259 818.6 32.6509 818.68 33.7102C818.818 35.8238 818.67 37.9463 818.24 40.0202C818.044 41.065 817.997 42.1323 818.1 43.1902C818.28 44.5002 818.9 45.7202 819.03 47.0402C819.33 50.0402 817.03 52.6702 815.36 55.2402C813.878 57.5458 812.824 60.1001 812.25 62.7802C812.087 64.041 811.729 65.2689 811.19 66.4202C810.911 66.9914 810.465 67.4645 809.912 67.777C809.358 68.0895 808.723 68.2266 808.09 68.1702C807.9 66.3602 808.35 64.5302 808.23 62.7102C808.06 59.9302 806.59 57.4202 805.16 55.0302C804.19 53.1173 802.827 51.4306 801.16 50.0802C800.675 49.801 800.226 49.4653 799.82 49.0802C798.89 48.0802 798.99 46.5002 798.82 45.0802C798.552 43.2381 797.714 41.5259 796.425 40.183C795.136 38.84 793.46 37.9335 791.63 37.5902C790.871 37.3974 790.068 37.5087 789.39 37.9002C788.71 38.3802 788.39 39.2702 787.82 39.8202C786.92 40.6302 785.54 40.5402 784.35 40.3002C781.73 39.7902 779 38.8302 776.46 39.6702C772.1 41.1202 770.46 47.1502 765.99 48.2702C764.667 48.4734 763.329 48.567 761.99 48.5502C761.315 48.5519 760.651 48.7153 760.052 49.0267C759.454 49.3382 758.938 49.7886 758.55 50.3402C757.21 48.9402 757.48 46.6602 758.14 44.8402C758.91 42.7102 759.61 41.2002 759.23 38.9602C758.85 36.7202 758.35 34.6802 759.78 32.7702Z" fill="#794F6A"/>
<path opacity="0.1" d="M662.44 396.39C662.44 396.39 652.94 401.39 657.94 402.39C662.94 403.39 662.44 396.39 662.44 396.39Z" fill="black"/>
<path opacity="0.1" d="M818.94 408.39C818.94 408.39 824.19 401.39 829.94 405.64C835.69 409.89 818.94 408.39 818.94 408.39Z" fill="black"/>
<path opacity="0.1" d="M831.14 412.89C831.14 412.89 837.69 410.64 841.69 412.89H831.14Z" fill="black"/>
<path opacity="0.1" d="M701.69 299.39C701.69 299.39 715.69 312.89 720.19 313.39C724.69 313.89 701.69 299.39 701.69 299.39Z" fill="black"/>
<path opacity="0.1" d="M703.69 121.89L700.05 129.55L698.21 147.55L696.88 181.05C696.88 181.05 694.38 209.55 696.88 213.55C699.38 217.55 703.71 241.22 702.88 244.22C702.05 247.22 713.88 275.22 716.05 276.89C718.22 278.56 725.88 278.89 730.21 278.05L738.13 285.58L760.55 264.89L746.71 254.39C746.71 254.39 749.88 249.05 741.05 243.22C741.05 243.22 737.05 236.55 736.88 233.05C736.672 225.91 735.436 218.838 733.21 212.05C730.05 202.72 728.21 150.89 728.21 150.89C728.21 150.89 720.69 113.05 703.69 121.89Z" fill="black"/>
<path d="M701.69 121.89L698.05 129.55L696.21 147.55L694.88 181.05C694.88 181.05 692.38 209.55 694.88 213.55C697.38 217.55 701.71 241.22 700.88 244.22C700.05 247.22 711.88 275.22 714.05 276.89C716.22 278.56 723.88 278.89 728.21 278.05L736.13 285.58L758.55 264.89L744.71 254.39C744.71 254.39 747.88 249.05 739.05 243.22C739.05 243.22 735.05 236.55 734.88 233.05C734.672 225.91 733.436 218.838 731.21 212.05C728.05 202.72 726.21 150.89 726.21 150.89C726.21 150.89 718.69 113.05 701.69 121.89Z" fill="#575988"/>
<path opacity="0.1" d="M736.53 247.22C735.53 247.72 715.36 266.39 722.86 266.89C730.36 267.39 736.53 247.22 736.53 247.22Z" fill="black"/>
<path d="M762.19 269.72C762.19 269.72 733.36 272.72 734.86 284.39C736.36 296.06 756.86 307.3 763.36 303.76C769.86 300.22 775.36 296.84 775.36 296.84L762.19 269.72Z" fill="#FFAAB0"/>
<path opacity="0.1" d="M850.19 129.89L854.36 137.89C854.36 137.89 858.69 172.05 854.36 185.22C850.03 198.39 839.53 228.72 839.53 228.72C839.53 228.72 826.86 250.89 826.53 251.89C826.2 252.89 802.19 287.55 797.86 289.39C793.53 291.23 785.36 290.26 784.86 288.24C784.36 286.22 773.36 296.84 773.36 296.84C773.36 296.84 752.16 271.22 755.53 268.55C758.9 265.88 769.11 265.22 769.11 265.22C769.11 265.22 769.86 267.72 770.69 262.55C771.52 257.38 775.36 254.72 778.19 255.05C781.02 255.38 779.86 252.39 780.36 249.22C780.86 246.05 788.69 240.39 788.69 240.39C788.69 240.39 792.53 234.22 792.53 230.55C792.53 226.88 800.53 223.72 801.19 223.72C801.85 223.72 801.69 222.22 801.69 216.89C801.69 211.56 805.69 202.05 805.69 202.05L808.16 172.05L812.5 141.55C812.5 141.55 824.36 104.39 850.19 129.89Z" fill="black"/>
<path opacity="0.1" d="M832.05 232.55C832.05 232.55 833.05 237.92 834.26 245.09C832.26 248.68 830.67 251.54 830.55 251.88C830.22 252.88 806.22 287.55 801.89 289.38C797.56 291.21 789.39 290.25 788.89 288.24C788.67 287.34 786.38 288.93 783.89 290.98C780.79 293.54 777.38 296.83 777.38 296.83C777.38 296.83 774.02 292.77 770.19 287.71C764.39 280.07 757.52 270.16 759.54 268.55C762.91 265.88 773.13 265.22 773.13 265.22C773.13 265.22 773.88 267.72 774.71 262.55C775.54 257.38 779.38 254.72 782.21 255.05C785.04 255.38 783.88 252.38 784.38 249.22C784.88 246.06 792.71 240.38 792.71 240.38C792.71 240.38 796.54 234.22 796.54 230.55C796.54 226.88 804.54 223.72 805.21 223.72C805.88 223.72 805.71 222.22 805.71 216.88C805.71 211.54 809.71 202.05 809.71 202.05L812.18 172.05L816.51 141.55C816.51 141.55 828.35 104.38 854.18 129.88L856.11 133.59C856.36 136.2 856.35 137.88 856.35 137.88L816.18 166.72L832.05 232.55Z" fill="black"/>
<path d="M852.19 129.89L856.36 137.89C856.36 137.89 860.69 172.05 856.36 185.22C852.03 198.39 841.53 228.72 841.53 228.72C841.53 228.72 828.86 250.89 828.53 251.89C828.2 252.89 804.19 287.55 799.86 289.39C795.53 291.23 787.36 290.26 786.86 288.24C786.36 286.22 775.36 296.84 775.36 296.84C775.36 296.84 754.16 271.22 757.53 268.55C760.9 265.88 771.11 265.22 771.11 265.22C771.11 265.22 771.86 267.72 772.69 262.55C773.52 257.38 777.36 254.72 780.19 255.05C783.02 255.38 781.86 252.39 782.36 249.22C782.86 246.05 790.69 240.39 790.69 240.39C790.69 240.39 794.53 234.22 794.53 230.55C794.53 226.88 802.53 223.72 803.19 223.72C803.85 223.72 803.69 222.22 803.69 216.89C803.69 211.56 807.69 202.05 807.69 202.05L810.16 172.05L814.5 141.55C814.5 141.55 826.36 104.39 852.19 129.89Z" fill="#575988"/>
<path opacity="0.1" d="M777.86 263.82C777.86 263.82 778.86 266.07 783.36 266.89C787.86 267.71 777.86 263.82 777.86 263.82Z" fill="black"/>
<path opacity="0.1" d="M831.69 130.05C831.53 130.55 816.69 147.32 819.69 151.69C822.69 156.06 831.69 130.05 831.69 130.05Z" fill="black"/>
<path opacity="0.1" d="M814.86 207.05C814.86 207.05 823.36 215.39 821.69 219.39C820.02 223.39 814.86 207.05 814.86 207.05Z" fill="black"/>
<path opacity="0.1" d="M816.19 191.22C816.69 192.05 835.03 194.22 836.03 201.22C837.03 208.22 816.19 191.22 816.19 191.22Z" fill="black"/>
<g opacity="0.1">
<path opacity="0.1" d="M818.05 41.3201C818.05 40.9401 818.14 40.5501 818.2 40.1601C818.573 38.2538 818.734 36.3119 818.68 34.3701C818.6 35.6401 818.38 36.9101 818.2 38.1601C818.001 39.2011 817.95 40.265 818.05 41.3201Z" fill="black"/>
<path opacity="0.1" d="M759.24 39.36C759.359 38.6214 759.359 37.8686 759.24 37.13C759.12 36.42 758.99 35.71 758.92 35C758.813 36.3849 758.921 37.778 759.24 39.13V39.36Z" fill="black"/>
<path opacity="0.1" d="M818.94 46.77C818.51 49.15 816.72 51.28 815.35 53.39C813.862 55.6889 812.808 58.2411 812.24 60.92C812.069 62.1791 811.712 63.4058 811.18 64.56C810.903 65.133 810.458 65.6077 809.904 65.9205C809.35 66.2333 808.714 66.3692 808.08 66.31C808.084 66.2768 808.084 66.2432 808.08 66.21C808.025 66.9089 808.025 67.6111 808.08 68.31C808.714 68.3692 809.35 68.2333 809.904 67.9205C810.458 67.6077 810.903 67.133 811.18 66.56C811.712 65.4058 812.069 64.1791 812.24 62.92C812.808 60.2411 813.862 57.6889 815.35 55.39C817.01 52.82 819.35 50.23 819.01 47.18C819.05 47.04 818.96 46.91 818.94 46.77Z" fill="black"/>
<path opacity="0.1" d="M808.22 60.8604C808.05 58.0804 806.58 55.5604 805.15 53.1704C804.183 51.241 802.82 49.5373 801.15 48.1704C800.664 47.8884 800.211 47.5529 799.8 47.1704C798.88 46.1704 798.98 44.5804 798.8 43.1704C798.532 41.3282 797.694 39.616 796.405 38.2731C795.116 36.9301 793.44 36.0237 791.61 35.6804C790.851 35.4876 790.048 35.5988 789.37 35.9904C788.69 36.4704 788.37 37.3604 787.8 37.9204C787.294 38.2543 786.72 38.4708 786.119 38.5539C785.519 38.6369 784.908 38.5845 784.33 38.4004C781.71 37.8804 778.98 36.9204 776.44 37.7704C772.08 39.2104 770.44 45.2404 765.96 46.3604C764.636 46.5623 763.299 46.6592 761.96 46.6504C761.287 46.6474 760.623 46.8079 760.026 47.1179C759.428 47.4279 758.915 47.8783 758.53 48.4304C758.074 47.9454 757.771 47.3366 757.66 46.6804C757.504 47.33 757.501 48.0072 757.652 48.6582C757.803 49.3091 758.104 49.9159 758.53 50.4304C758.915 49.8783 759.428 49.4279 760.026 49.1179C760.623 48.8079 761.287 48.6474 761.96 48.6504C763.299 48.6592 764.636 48.5623 765.96 48.3604C770.42 47.2404 772.08 41.2104 776.44 39.7704C778.98 38.9204 781.71 39.8804 784.33 40.4004C784.908 40.5845 785.519 40.6369 786.119 40.5539C786.72 40.4708 787.294 40.2543 787.8 39.9204C788.42 39.3604 788.69 38.4704 789.37 37.9904C790.048 37.5988 790.851 37.4876 791.61 37.6804C793.44 38.0237 795.116 38.9301 796.405 40.2731C797.694 41.616 798.532 43.3282 798.8 45.1704C798.97 46.5504 798.87 48.1004 799.8 49.1704C800.211 49.5529 800.664 49.8884 801.15 50.1704C802.82 51.5373 804.183 53.241 805.15 55.1704C806.54 57.5004 807.95 59.9404 808.15 62.6304C808.213 62.0426 808.237 61.4513 808.22 60.8604Z" fill="black"/>
</g>
<path d="M479.55 146.83V251.77C479.547 251.991 479.589 252.21 479.673 252.414C479.756 252.619 479.88 252.804 480.037 252.96C480.193 253.116 480.38 253.239 480.585 253.321C480.79 253.403 481.009 253.444 481.23 253.44C510.13 252.54 534.23 228.65 534.23 199.3C534.23 169.95 510.15 146.05 481.23 145.16C481.009 145.154 480.789 145.194 480.583 145.276C480.377 145.357 480.19 145.48 480.033 145.636C479.877 145.792 479.753 145.978 479.67 146.183C479.587 146.389 479.546 146.608 479.55 146.83Z" fill="#61BEEC"/>
<path d="M407.38 290.14V203.29C407.277 189.401 411.727 175.86 420.05 164.74C427.92 154.4 440.17 145.04 458.69 145.16C458.939 145.159 459.187 145.207 459.418 145.301C459.649 145.395 459.859 145.534 460.036 145.71C460.214 145.885 460.355 146.094 460.451 146.324C460.548 146.554 460.599 146.801 460.6 147.05V236.45C460.6 236.45 463.6 285.31 408.44 291.09C408.308 291.098 408.175 291.08 408.05 291.037C407.925 290.993 407.81 290.925 407.711 290.837C407.613 290.749 407.533 290.641 407.476 290.522C407.419 290.402 407.386 290.273 407.38 290.14Z" fill="#4064AC"/>
<path opacity="0.1" d="M179.99 135.36C197.387 135.36 211.49 121.257 211.49 103.86C211.49 86.4629 197.387 72.3599 179.99 72.3599C162.593 72.3599 148.49 86.4629 148.49 103.86C148.49 121.257 162.593 135.36 179.99 135.36Z" fill="#EF5B59"/>
<path opacity="0.1" d="M113.99 48.3599C124.76 48.3599 133.49 39.6294 133.49 28.8599C133.49 18.0903 124.76 9.35986 113.99 9.35986C103.22 9.35986 94.49 18.0903 94.49 28.8599C94.49 39.6294 103.22 48.3599 113.99 48.3599Z" fill="#EF5B59"/>
<path opacity="0.1" d="M12 84.3599C18.6274 84.3599 24 78.9873 24 72.3599C24 65.7324 18.6274 60.3599 12 60.3599C5.37258 60.3599 0 65.7324 0 72.3599C0 78.9873 5.37258 84.3599 12 84.3599Z" fill="#EF5B59"/>
<path d="M409.87 671.93C408.911 673.245 408.143 674.69 407.59 676.22C407.45 676.59 407.31 677.02 407.17 677.43C406.918 677.311 406.653 677.22 406.38 677.16C405.215 676.864 404.009 676.759 402.81 676.85C402.81 676.39 402.87 675.85 402.88 675.39C403.03 670.12 402.41 662.77 397.38 665.88C392.56 668.88 396 673.88 399.11 677.09L399.91 677.87C397.07 679.87 396.53 684.6 396.06 689.51C395.59 694.42 391.42 699.8 388.65 702.85C388.37 703.16 388.12 703.44 387.87 703.7C386.752 702.804 385.456 702.156 384.068 701.799C382.68 701.442 381.232 701.385 379.82 701.63C379.71 701.2 379.59 700.75 379.45 700.27C377.22 692.14 372.57 678.14 366.63 675.14L367.41 674.14C369.93 670.84 372.77 665.94 368.58 664.69C364.39 663.44 364.01 668.94 364.24 673.06C364.24 673.57 364.32 674.06 364.36 674.52C363.523 674.559 362.702 674.769 361.949 675.137C361.195 675.505 360.525 676.024 359.98 676.66L359.33 675.9C355.93 671.9 349.7 665.53 347.81 670.34C346.06 674.82 351.54 680.63 355.4 684L355.64 684.21C353.05 694.73 364.36 703.3 370.45 707.05L371.24 707.53C362.84 717.43 357.65 735.98 357.65 735.98L381.18 740.18C381.18 740.18 396.77 726.72 394.77 714.09H394.93C410.52 710.97 414.06 694.35 411.64 684.48C411.73 684.48 411.82 684.41 411.91 684.36C414.748 683.2 417.236 681.322 419.13 678.91C423.49 672.82 414.35 665.98 409.87 671.93Z" fill="#EF5B59"/>
<path opacity="0.1" d="M409.87 671.93C408.911 673.245 408.143 674.69 407.59 676.22C407.45 676.59 407.31 677.02 407.17 677.43C406.918 677.311 406.653 677.22 406.38 677.16C405.215 676.864 404.009 676.759 402.81 676.85C402.81 676.39 402.87 675.85 402.88 675.39C403.03 670.12 402.41 662.77 397.38 665.88C392.56 668.88 396 673.88 399.11 677.09L399.91 677.87C397.07 679.87 396.53 684.6 396.06 689.51C395.59 694.42 391.42 699.8 388.65 702.85C388.37 703.16 388.12 703.44 387.87 703.7C386.752 702.804 385.456 702.156 384.068 701.799C382.68 701.442 381.232 701.385 379.82 701.63C379.71 701.2 379.59 700.75 379.45 700.27C377.22 692.14 372.57 678.14 366.63 675.14L367.41 674.14C369.93 670.84 372.77 665.94 368.58 664.69C364.39 663.44 364.01 668.94 364.24 673.06C364.24 673.57 364.32 674.06 364.36 674.52C363.523 674.559 362.702 674.769 361.949 675.137C361.195 675.505 360.525 676.024 359.98 676.66L359.33 675.9C355.93 671.9 349.7 665.53 347.81 670.34C346.06 674.82 351.54 680.63 355.4 684L355.64 684.21C353.05 694.73 364.36 703.3 370.45 707.05L371.24 707.53C362.84 717.43 357.65 735.98 357.65 735.98L381.18 740.18C381.18 740.18 396.77 726.72 394.77 714.09H394.93C410.52 710.97 414.06 694.35 411.64 684.48C411.73 684.48 411.82 684.41 411.91 684.36C414.748 683.2 417.236 681.322 419.13 678.91C423.49 672.82 414.35 665.98 409.87 671.93Z" fill="black"/>
<path d="M363.05 678.71L360.3 686.71C360.3 686.71 358.77 685.63 356.84 683.93C352.98 680.56 347.5 674.75 349.25 670.27C351.14 665.46 357.37 671.81 360.77 675.83C362.14 677.47 363.05 678.71 363.05 678.71Z" fill="#EF5B59"/>
<path d="M368.85 674.14C368.013 675.237 367.119 676.288 366.17 677.29C365.936 675.889 365.772 674.477 365.68 673.06C365.45 668.94 365.89 663.47 370.02 664.69C374.15 665.91 371.37 670.82 368.85 674.14Z" fill="#EF5B59"/>
<path d="M404.32 675.39C404.24 678.04 403.98 680.15 403.98 680.15C402.771 679.225 401.625 678.219 400.55 677.14C397.44 673.91 394 668.93 398.82 665.93C403.85 662.77 404.47 670.14 404.32 675.39Z" fill="#EF5B59"/>
<path d="M420.57 678.86C418.676 681.271 416.188 683.149 413.35 684.31C412.564 684.656 411.755 684.95 410.93 685.19L407.69 680.64C408.033 679.137 408.481 677.66 409.03 676.22C409.583 674.689 410.351 673.244 411.31 671.93C415.79 665.98 424.93 672.82 420.57 678.86Z" fill="#EF5B59"/>
<path opacity="0.1" d="M360.77 675.88C362.14 677.47 363.05 678.71 363.05 678.71L360.3 686.71C360.3 686.71 358.77 685.63 356.84 683.93C357.271 681.353 358.336 678.923 359.94 676.86C360.21 676.54 360.5 676.19 360.77 675.88Z" fill="black"/>
<path opacity="0.1" d="M368.85 674.14C368.013 675.236 367.118 676.288 366.17 677.29C365.936 675.889 365.772 674.477 365.68 673.06C366.824 673.079 367.932 673.456 368.85 674.14Z" fill="black"/>
<path d="M382.38 706.07L375.53 709.07C375.53 709.07 374.04 708.35 371.89 707.02C364.7 702.59 350.25 691.46 359.94 678.34C369.63 665.22 377.71 688.75 380.89 700.26C381.86 703.71 382.38 706.07 382.38 706.07Z" fill="#EF5B59"/>
<path opacity="0.1" d="M400.55 677.14C401.543 676.113 402.892 675.504 404.32 675.44C404.24 678.09 403.98 680.2 403.98 680.2C402.769 679.259 401.623 678.237 400.55 677.14Z" fill="black"/>
<path opacity="0.1" d="M413.35 684.31C412.564 684.656 411.755 684.95 410.93 685.19L407.69 680.64C408.033 679.137 408.481 677.66 409.03 676.22C411.12 677.45 412.66 680.48 413.35 684.31Z" fill="black"/>
<path d="M396.37 714.04L395.22 714.24C372.29 717.73 387.66 705.35 387.66 705.35C387.66 705.35 388.66 704.35 390.09 702.85C392.86 699.8 397.02 694.45 397.5 689.51C398.22 682.08 399.05 675.11 407.82 677.16C416.43 679.14 418.05 709.69 396.37 714.04Z" fill="#EF5B59"/>
<path d="M395.95 771.13H352.14V782.65H395.95V771.13Z" fill="#D4DFEC"/>
<path d="M402.42 733.69H345.18V773.89H402.42V733.69Z" fill="#D4DFEC"/>
<path opacity="0.1" d="M395.95 771.13H352.14V782.65H395.95V771.13Z" fill="black"/>
<path opacity="0.1" d="M402.42 733.69H345.18V773.89H402.42V733.69Z" fill="black"/>
<path d="M398.83 771.13H355.02V782.65H398.83V771.13Z" fill="#D4DFEC"/>
<path opacity="0.1" d="M380.89 700.27C381.89 703.71 382.38 706.07 382.38 706.07L375.53 709.07C375.53 709.07 374.04 708.35 371.89 707.02C374.57 703.63 377.59 701.06 380.89 700.27Z" fill="black"/>
<path opacity="0.1" d="M396.37 714.04L395.22 714.24C372.29 717.73 387.66 705.35 387.66 705.35C387.66 705.35 388.66 704.35 390.09 702.85C394.37 706.28 396.14 710.14 396.37 714.04Z" fill="black"/>
<path d="M359.05 735.961C359.05 735.961 371.89 689.961 389.9 704.161C407.91 718.361 382.58 740.161 382.58 740.161L359.05 735.961Z" fill="#EF5B59"/>
<path opacity="0.1" d="M365.58 687C366.375 687 367.02 686.355 367.02 685.56C367.02 684.765 366.375 684.12 365.58 684.12C364.785 684.12 364.14 684.765 364.14 685.56C364.14 686.355 364.785 687 365.58 687Z" fill="black"/>
<path opacity="0.1" d="M365.46 693.72C366.255 693.72 366.9 693.075 366.9 692.28C366.9 691.485 366.255 690.84 365.46 690.84C364.665 690.84 364.02 691.485 364.02 692.28C364.02 693.075 364.665 693.72 365.46 693.72Z" fill="black"/>
<path opacity="0.1" d="M407.22 688.32C408.015 688.32 408.66 687.676 408.66 686.88C408.66 686.085 408.015 685.44 407.22 685.44C406.425 685.44 405.78 686.085 405.78 686.88C405.78 687.676 406.425 688.32 407.22 688.32Z" fill="black"/>
<path opacity="0.1" d="M373.62 722.77C374.415 722.77 375.06 722.125 375.06 721.33C375.06 720.534 374.415 719.89 373.62 719.89C372.825 719.89 372.18 720.534 372.18 721.33C372.18 722.125 372.825 722.77 373.62 722.77Z" fill="black"/>
<path opacity="0.1" d="M404.22 699.48C405.015 699.48 405.66 698.835 405.66 698.04C405.66 697.244 405.015 696.6 404.22 696.6C403.425 696.6 402.78 697.244 402.78 698.04C402.78 698.835 403.425 699.48 404.22 699.48Z" fill="black"/>
<path opacity="0.1" d="M389.34 714.37C390.135 714.37 390.78 713.726 390.78 712.93C390.78 712.135 390.135 711.49 389.34 711.49C388.545 711.49 387.9 712.135 387.9 712.93C387.9 713.726 388.545 714.37 389.34 714.37Z" fill="black"/>
<path opacity="0.1" d="M370.5 689.88C371.295 689.88 371.94 689.235 371.94 688.44C371.94 687.645 371.295 687 370.5 687C369.705 687 369.06 687.645 369.06 688.44C369.06 689.235 369.705 689.88 370.5 689.88Z" fill="black"/>
<path opacity="0.1" d="M403.26 692.64C404.055 692.64 404.7 691.995 404.7 691.2C404.7 690.404 404.055 689.76 403.26 689.76C402.465 689.76 401.82 690.404 401.82 691.2C401.82 691.995 402.465 692.64 403.26 692.64Z" fill="black"/>
<path opacity="0.1" d="M398.34 703.8C399.135 703.8 399.78 703.155 399.78 702.36C399.78 701.565 399.135 700.92 398.34 700.92C397.545 700.92 396.9 701.565 396.9 702.36C396.9 703.155 397.545 703.8 398.34 703.8Z" fill="black"/>
<path opacity="0.1" d="M383.22 721.69C384.015 721.69 384.66 721.045 384.66 720.25C384.66 719.454 384.015 718.81 383.22 718.81C382.425 718.81 381.78 719.454 381.78 720.25C381.78 721.045 382.425 721.69 383.22 721.69Z" fill="black"/>
<path opacity="0.1" d="M380.1 714.61C380.895 714.61 381.54 713.966 381.54 713.17C381.54 712.375 380.895 711.73 380.1 711.73C379.305 711.73 378.66 712.375 378.66 713.17C378.66 713.966 379.305 714.61 380.1 714.61Z" fill="black"/>
<path opacity="0.1" d="M372.66 698.64C373.455 698.64 374.1 697.995 374.1 697.2C374.1 696.404 373.455 695.76 372.66 695.76C371.865 695.76 371.22 696.404 371.22 697.2C371.22 697.995 371.865 698.64 372.66 698.64Z" fill="black"/>
<path opacity="0.1" d="M398.83 771.13H355.02V775.34H398.83V771.13Z" fill="black"/>
<path d="M405.3 733.69H348.06V773.89H405.3V733.69Z" fill="#D4DFEC"/>
<path opacity="0.1" d="M385.14 728.17C385.935 728.17 386.58 727.525 386.58 726.73C386.58 725.935 385.935 725.29 385.14 725.29C384.345 725.29 383.7 725.935 383.7 726.73C383.7 727.525 384.345 728.17 385.14 728.17Z" fill="black"/>
<path opacity="0.1" d="M376.5 729.97C377.295 729.97 377.94 729.325 377.94 728.53C377.94 727.735 377.295 727.09 376.5 727.09C375.705 727.09 375.06 727.735 375.06 728.53C375.06 729.325 375.705 729.97 376.5 729.97Z" fill="black"/>
</g>
<defs>
<linearGradient id="paint0_linear" x1="234.65" y1="773.77" x2="234.65" y2="240.51" gradientUnits="userSpaceOnUse">
<stop stop-color="#808080" stop-opacity="0.25"/>
<stop offset="0.54" stop-color="#808080" stop-opacity="0.12"/>
<stop offset="1" stop-color="#808080" stop-opacity="0.1"/>
</linearGradient>
<linearGradient id="paint1_linear" x1="237240" y1="332301" x2="237240" y2="37062.9" gradientUnits="userSpaceOnUse">
<stop stop-color="#808080" stop-opacity="0.25"/>
<stop offset="0.54" stop-color="#808080" stop-opacity="0.12"/>
<stop offset="1" stop-color="#808080" stop-opacity="0.1"/>
</linearGradient>
<clipPath id="clip0">
<rect width="1082.11" height="786.29" fill="white"/>
</clipPath>
</defs>
</svg>
