<svg xmlns="http://www.w3.org/2000/svg" fill="none" viewBox="0 0 1049 813">
  <g clip-path="url(#clip0)">
    <path fill="#EF5B59" d="M550.9 727.6c72 0 130.5-6.5 130.5-14.4 0-8-58.4-14.5-130.5-14.5-72.2 0-130.6 6.5-130.6 14.5s58.4 14.4 130.6 14.4zM421.4 790.5c19.1 0 34.6-1.7 34.6-3.8 0-2.1-15.5-3.8-34.6-3.8-19 0-34.5 1.7-34.5 3.8 0 2.1 15.5 3.8 34.6 3.8zM757.5 812.5c19 0 34.5-1.7 34.5-3.8 0-2.1-15.5-3.8-34.5-3.8-19.1 0-34.6 1.7-34.6 3.8 0 2.1 15.5 3.8 34.6 3.8zM979.5 728.5c19 0 34.5-1.7 34.5-3.8 0-2.1-15.5-3.8-34.5-3.8-19.1 0-34.6 1.7-34.6 3.8 0 2.1 15.5 3.8 34.6 3.8zM142.9 792.9c72.1 0 130.6-13.4 130.6-29.9s-58.5-29.8-130.6-29.8S12.3 746.5 12.3 763 70.8 793 143 793zM60 306.4h92v125.3H66.8l-.7 3.9h86v101l-.5-.1-7.2-3-1.6-.8a143.5 143.5 0 01-9.7-5c-13.5-7.5-25.6-17-36.2-28.2l-.9-.9-4.3-4.8-1.5-1.9c-1.7-2-3.3-4-4.8-6.2l-.7-.9A133.6 133.6 0 0164.2 442l-.3-1.2c-5.1-20-5.7-41-5.7-61.7v-7.3c0-8.3 0-16.8.3-25.2v-6.6a845.5 845.5 0 01.8-21.3l.2-2.6.6-9.6zM152 166.9h-50.4a456.4 456.4 0 0150.4-63.7v63.7zM152 170.7v131.8H60.3l.1-1.1.3-3.1c0-1.3.2-2.5.3-3.7l.4-4 .4-4 .5-3.9.4-4a367.2 367.2 0 011.1-7.8l.1-.6c1.7-11.2 4-22.2 6.8-33.1A244.2 244.2 0 0199 170.7h53zM174 306.4v125.3h196.3V306.4H174zm0 129.2v107.7l3.3.6 4.5.8 1 .1 1.7.3 4.6.5 2.1.2 1.8.1a68 68 0 004.6.3h6.4l2.3-.1h2.1l1.3-.1h.3l3-.3 3-.3 2.1-.3c8.4-1.1 16.7-2.9 24.9-5.2 18.3-5.1 36.2-12.3 54.5-17.5 23.8-6.8 50-10.1 72.8-2v-84.8H174zm196.3-268.7V0c-21.5-.2-43 2.3-63.8 7.5C256.8 20 212.2 47 174 81.7v85.2h9.9v3.8h-9.9v131.8h196.4V170.7h-146V167h146zm252.3-56.4a81.4 81.4 0 01-35.6-10.3c-21.1-11.6-38-29.3-57-44.3A261.3 261.3 0 00392.4 1V167h280.3l.7-.8-50.7-55.6zm25.6-4.6l27 29.8V98c-9 1.2-17 3.9-27 7.8zm27 464V435.6h-57.7l-.5-1.7.5 1.7H392.3v97.1l6.4 5 6.7 5.6 2.3 1.9 3.2 2.6 6.6 5.3 3.3 2.5a455.2 455.2 0 0091.6 54.5 499 499 0 00162.8 42V570h1-1zM392.3 170.7v131.8h283V170.7h-283zm0 135.7v125.3h283V306.4h-283zM697.3 98v41.9l34.5-38c-11.5-1.8-23-3.1-34.6-4zm0 208.4v125.3h275.1V306.4H697.2zm274.1 273.5l1-144.3H697.2v218c17.7.7 35.5.5 53.2-.6h.3c8.4-.6 16.9-1.4 25.3-2.4h.1A464.8 464.8 0 00906 616l65.5-36.1zm54-252.8a295.6 295.6 0 00-9.6-20.6h-21.4v125.2h54.3c0-35.4-9-71.7-23.2-104.7zm-31 108.6v124a177.6 177.6 0 0037.5-50.6c11.2-23 16.3-48 16.7-73.5h-54.2zm0-165.7v32.6h19.4a352.7 352.7 0 00-19.4-32.7zM807.8 122.6l-4.4-1.7a391.1 391.1 0 00-46.4-14l-53 58-1 1.1.8.8H892a402.5 402.5 0 00-84.3-44.2zm89.7 48.1H701l-3.9 3.6v128.2h275.2v-62.1a391.8 391.8 0 00-75-69.7z" opacity=".1"/>
    <path fill="#EF5B59" d="M152 237.2v65.3H60.3l.1-1.1.3-3.1c0-1.3.2-2.5.3-3.7l.4-4 .4-4 .5-3.9.4-4a367.2 367.2 0 011.1-7.8l.1-.6c1.7-11.2 4-22.2 6.8-33.1H152zM60 306.4h92v125.3H66.8l-.7 3.9h86v101l-.5-.1-7.2-3-1.6-.8a143.5 143.5 0 01-9.7-5c-13.5-7.5-25.6-17-36.2-28.2l-.9-.9-4.3-4.8-1.5-1.9c-1.7-2-3.3-4-4.8-6.2l-.7-.9A133.6 133.6 0 0164.2 442l-.3-1.2c-5.1-20-5.7-41-5.7-61.7v-7.3c0-8.3 0-16.8.3-25.2v-6.6a845.5 845.5 0 01.8-21.3l.2-2.6.6-9.6zM243.1 189.6v113H174v-113h9.8v-38.2h40.5v38.2H243zM243.1 306.4H174v125.3H243V306.4zM174 435.6H243v104.2a178.5 178.5 0 01-30 5.9l-3 .2h-2l-1.7.1H196l-2.8-.1-1.7-.2-2.2-.2-4.6-.5-1.8-.2-.9-.2-4.5-.7-3.3-.7-.1-107.6zM675.3 176.3h-57v126.2h57V176.3zM675.3 306.4v125.3h-283v-54H543v31.9h75.3V306.4h57zM676.2 570h-1v82.2a498.8 498.8 0 01-198.6-60 455.9 455.9 0 01-69-47l-9-7.5a263 263 0 00-6.3-5v-97.1h225.2l-.5-1.7.5 1.7h57.8v134.3h.9zM824 166.9h-37.2v-11.6h16.6v-34.4l4.4 1.7v32.7h16.1v11.6zM913.4 302.5H697.2V176.3h9.6v93.3h43.8v-55.2h36.2v-43.7h37.1v43.7h36.2v55.2h53.3v33zM697.2 306.4v125.3h216.2V306.4H697.2zm275 272.9l.2-99.2h-59v-44.5H697.2v218c17.7.7 35.5.5 53.2-.6h.3c8.4-.6 16.9-1.4 25.3-2.4h.1A464.8 464.8 0 00906 616M998.2 435.6h50.4c-.4 25.4-5.5 50.4-16.7 73.5-9.3 19.2-22.2 36-37.5 50.6V480h3.8v-44.4zM1048.7 431.7h-50.5V327h27.3c14.1 33 23.1 69.3 23.2 104.7z" opacity=".1"/>
    <path fill="#EF5B59" d="M675.3 211.4h-30.6v39.5h30.6v-39.5zM675.3 293.4h-30.6v9.1h30.6v-9zM675.3 306.4h-30.6V333h30.6v-26.6zM675.3 375.4h-30.6V415h30.6v-39.6zM675.3 457.5h-30.6v39.6h30.6v-39.6zM675.3 570h.9-1v9.2h-30.5v-39.7h30.6V570zM675.3 621.6V652c-10.3-.8-20.4-2-30.6-3.5v-27h30.6zM523.2 428.8H392.3v3h130.9v-3zM523.2 435.6H392.3v11.1h130.9v-11.1zM523.2 483.3H392.3v17.9h130.9v-18zM523.2 537.7v18H420.8a457 457 0 01-13.1-10.5l-9-7.5h124.5zM523.2 592.1v18h-10.8a479 479 0 01-35.7-18h46.5zM776.2 318.5h-25.8v25.8h25.8v-25.8zM218.3 198.5h-25.8v25.8h25.8v-25.8zM218.3 258.3h-25.8v25.8h25.8v-25.8zM218.3 318.2h-25.8v25.7h25.8v-25.7zM218.3 378h-25.8v25.8h25.8V378zM218.3 437.9h-25.8v25.7h25.8V438zM218.3 497.7h-25.8v25.8h25.8v-25.8zM874.5 318.5h-25.7v25.8h25.7v-25.8zM776.2 382h-25.8V408h25.8V382zM874.5 382h-25.7V408h25.7V382zM776.2 445.6h-25.8v25.8h25.8v-25.8zM874.5 445.6h-25.7v25.8h25.7v-25.8zM776.2 509.2h-25.8V535h25.8v-25.8zM874.5 509.2h-25.7V535h25.7v-25.8zM776.2 572.7h-25.8v25.8h25.8v-25.8zM874.5 572.7h-25.7v25.8h25.7v-25.8zM750.4 652.9v-16.6h25.8v14.2l-25.8 2.4zM63.8 270.3V285H152v-14.7H63.8zm8.8 13.8h-7.2v-12.8h7.2V284zm8.8 0h-7.2v-12.8h7.2V284zm8.8 0h-7.3v-12.8h7.3V284zm8.7 0h-7.2v-12.8H99V284zm8.8 0h-7.2v-12.8h7.2V284zm8.8 0h-7.2v-12.8h7.2V284zm8.8 0H118v-12.8h7.3V284zm8.7 0h-7.2v-12.8h7.2V284zm8.8 0h-7.2v-12.8h7.2V284zm8.8 0h-7.3v-12.8h7.3V284zM63.8 313.2v14.7H152v-14.7H63.8zm8.8 13.8h-7.2v-12.9h7.2v13zm8.8 0h-7.2v-12.9h7.2v13zm8.8 0h-7.3v-12.9h7.3v13zm8.7 0h-7.2v-12.9H99v13zm8.8 0h-7.2v-12.9h7.2v13zm8.8 0h-7.2v-12.9h7.2v13zm8.8 0H118v-12.9h7.3v13zm8.7 0h-7.2v-12.9h7.2v13zm8.8 0h-7.2v-12.9h7.2v13zm8.8 0h-7.3v-12.9h7.3v13zM63.8 356.1v14.7H152v-14.7H63.8zm8.8 13.8h-7.2V357h7.2v13zm8.8 0h-7.2V357h7.2v13zm8.8 0h-7.3V357h7.3v13zm8.7 0h-7.2V357H99v13zm8.8 0h-7.2V357h7.2v13zm8.8 0h-7.2V357h7.2v13zm8.8 0H118V357h7.3v13zm8.7 0h-7.2V357h7.2v13zm8.8 0h-7.2V357h7.2v13zm8.8 0h-7.3V357h7.3v13zM63.8 399v14.7H152V399H63.8zm8.8 13.8h-7.2V400h7.2v13zm8.8 0h-7.2V400h7.2v13zm8.8 0h-7.3V400h7.3v13zm8.7 0h-7.2V400H99v13zm8.8 0h-7.2V400h7.2v13zm8.8 0h-7.2V400h7.2v13zm8.8 0H118V400h7.3v13zm8.7 0h-7.2V400h7.2v13zm8.8 0h-7.2V400h7.2v13zm8.8 0h-7.3V400h7.3v13zM64.2 442l1.2 4v-3.2h7.2v13h-3.8l.3.8h83V442H64.1zm17.2 13.7h-7.2v-12.9h7.2v13zm8.8 0h-7.3v-12.9h7.3v13zm8.7 0h-7.2v-12.9H99v13zm8.8 0h-7.2v-12.9h7.2v13zm8.8 0h-7.2v-12.9h7.2v13zm8.8 0H118v-12.9h7.3v13zm8.7 0h-7.2v-12.9h7.2v13zm8.8 0h-7.2v-12.9h7.2v13zm8.8 0h-7.3v-12.9h7.3v13zM84.7 484.8l.7 1h4.8v6.1l1.5 1.9v-8H99v12.9H96l.9.9H152v-14.8H84.7zm23 13.8h-7.2v-12.9h7.2v13zm8.8 0h-7.3v-12.9h7.3v13zm8.8 0H118v-12.9h7.3v13zm8.7 0h-7.2v-12.9h7.2v13zm8.8 0h-7.2v-12.9h7.2v13zm8.8 0h-7.3v-12.9h7.3v13zM133 527.7l2.6 1.4v-.5h7.2v4.1l1.5.7v-4.8h7.3v7.9l.4.1v-8.9h-19zM675.3 570h.9-1zM617 434l.5 1.6-.5-1.7zM183.8 166.8v3.8h40.5V167h-40.5zm491.5 403h.9-1zm-58.3-136l.5 1.7-.5-1.7zm58.3 136h.9-1zM617 434l.5 1.7-.5-1.7z" opacity=".1"/>
    <path fill="#EEC5CD" d="M7.8 396.6L1 397l6.8 43.9 16.7 46.3 4.9-12.1 643.7-49.3V406l-97-35.5-568.3 26z"/>
    <path fill="#D48A9B" d="M585.6 512.2l-7-3.2-34.7-16-.5-7.2 33 14.7 6.9 3 2.4 8.7zM104.7 535.7l-2 10.6-5-6.9-7.5-10-5.2-7.1 2.8-5.8 4.4 5 2.4 2.7 4.2 4.8.5.6 5.4 6z"/>
    <path fill="#D48A9B" d="M566.2 626.3c-.8 4.7-3.2 4-5.3 2.3a13 13 0 01-4.6-8.4l-18.6-137.8-.7-5-.8-6-.7-4.8-1.3-10-.9-6.3 9.6-3.4 1.2 9 3 22 .6 5 .7 5.2.1 1 .7 5 .2 1.5 16.8 126.3c.2 1.4.2 3 0 4.4z"/>
    <path fill="#000" d="M585.6 512.2l-7-3.2-1.7-7-.4-1.5 6.8 3 2.4 8.7z" opacity=".1"/>
    <path fill="#D48A9B" d="M634 671.7c-.4 4.1-2.7 4.6-5 4a9.6 9.6 0 01-6.4-7L582 510.5l-2.2-8.4-12.2-47.6-1.5-6 8.1-9.6 4 14.9 55.6 213.8c.4 1.3.5 2.8.3 4.2z"/>
    <path fill="#000" d="M549.2 494l-3.6-3.6-1.6-1.6-6.3-6.4-.7-5-.8-5.9 8 7.8 3.5 3.5.7 5.2.1 1 .7 5z" opacity=".1"/>
    <path fill="#D48A9B" d="M570.3 500.6h-10.1l-.3-.3-11.4-11.3-1.6-1.7-9.9-9.9-19.8-19.7-4-4.1 6.7-2.4 6 5.9 9.6 9.5 11.5 11.3 17.9 17.4 5.4 5.3zM100.3 476.2l-2.2 9L90 519l-1.9 7.5-34.6 141.7c-.5 2-1.4 4-2.7 5.6-3.4 4-5.5 2-6.6-.3-1-2.2-1.3-4.7-.7-7.1l44.4-180.4 2.4-9.7h10.1zM151.7 475.7l-6.4 6.4-25.4 25.7-1.8 1.8-3.5 3.5-9.8 10-1.8 1.7-3.5 3.5-.7.7L97 531l-4.3-4.8 1.9-1.9 6.8-6.6 3.4-3.3 1.8-1.7 9.8-9.6 3.5-3.4 1.8-1.7 15.6-15.2 7.2-7h7.2z"/>
    <path fill="#000" d="M121.7 497.9l-.3 1.7-1.5 8.2-1.8 1.8-13.3 13.4 1.5-8.7.3-1.7 13.3-13 1.8-1.7zM99.3 529.6l5.4 6-2 10.7-5-6.9 1.2-7 .4-2.8z" opacity=".1"/>
    <path fill="#000" d="M116.4 503l-1.2 6.6-.6 3.5-9.8 10-1.8 1.7-3.5 3.5.7-3.5 1.2-7.2 3.4-3.3 1.8-1.7 9.8-9.6z" opacity=".1"/>
    <path fill="#D48A9B" d="M124.8 472.8l-2 10.8-2.9 16-1.8 10-39.9 219c-3.6 9-6.3 7-7.9 3.8a14.2 14.2 0 01-1.1-8.6L100 542.6l1.7-10.2 1.3-7.6 1.8-10.5 5-29.8 1-6 14-5.7z"/>
    <path fill="#EEC5CD" d="M1 397l24 47.5L673 406l-97-35.5L1 397z"/>
    <path fill="#D48A9B" d="M1 397l-1 38.8 24.5 51.4.5-42.7L1 397z"/>
    <path fill="#000" d="M90.3 476.2h10l-2.2 9-10.3.7 2.5-9.7zM110.9 478.6l14-5.8-2 10.8-13 .9 1-6zM144.5 475.7h7.2l-6.4 6.4-8 .6 7.2-7zM519.9 451.2l6 5.9-8.7.6-4-4.1 6.7-2.4zM543 446.9l1.1 9-10 .7-.8-6.4 9.6-3.3zM578 453.7l-10.5.7-1.5-6 8.1-9.7 4 15z" opacity=".1"/>
    <path fill="#D48A9B" d="M673 406l1 38.5-649.5 42.7.5-42.7L673 406z"/>
    <path fill="#000" d="M34.6 452.6l149.3-6.7.4 26.4-148.8 6.3-1-26z" opacity=".1"/>
    <path fill="#fff" d="M33.1 451.2l149.3-6.7.5 26.4L34.1 477l-1-25.9z"/>
    <path fill="#000" d="M194 445l337.4-19.7-.5 25-338 21.5 1-26.8z" opacity=".1"/>
    <path fill="#fff" d="M192.5 443.5L530 423.8l-.5 25-338 21.6 1-26.9z"/>
    <path fill="#000" d="M537.2 424.3l128.6-8.1 1 24.4-128.2 8.7-1.4-25z" opacity=".1"/>
    <path fill="#fff" d="M535.7 422.9l128.7-8.2 1 24.5-128.2 8.6-1.5-25z"/>
    <path fill="#000" d="M118.5 462.5l-18.2.5v1.4l18.3-.5v-1.4z" opacity=".1"/>
    <path fill="#D48A9B" d="M118.5 461l-18.2.5v1.5l18.3-.5V461z"/>
    <path fill="#000" d="M471.9 441.8l-18.3.5v1.5l18.3-.5v-1.5z" opacity=".1"/>
    <path fill="#D48A9B" d="M471.9 440.4l-18.3.5v1.4l18.3-.5v-1.4z"/>
    <path fill="#000" d="M273.6 453.4l-18.2.4v1.5l18.2-.5v-1.4z" opacity=".1"/>
    <path fill="#D48A9B" d="M273.6 452l-18.2.4v1.4l18.2-.4v-1.5z"/>
    <path fill="#000" d="M613.5 432.2l-18.3.5v1.5l18.3-.5v-1.5z" opacity=".1"/>
    <path fill="#D48A9B" d="M613.5 430.8l-18.3.5v1.4l18.3-.5v-1.4zM824.7 614l-17.3-1-1.1-49.6-.3-11.9 18.2-3.3.1 15.2.4 50.5z"/>
    <path fill="#D48A9B" d="M811.3 605.3l-88.8 55.2-2 16.8 9.6.5v-12l58.1-32.7-70 87v13.4h11.5l-1-15 81.1-92 10.1.9 85.5 97 1.9 16.3 11.5.4-2-16.8-67.6-84.4 45.1 31.2 1 13.4 9.1.5-1-16.3-85.9-66.3-6.2 2.9z"/>
    <path fill="#EF5B59" d="M699.7 510.9a158.4 158.4 0 0021-34.1A216 216 0 00734 443c1-8.6 25.5-25.9 52.3-26.8 17.6-.7 44.9-14.3 61.8-23.8 15.9-9 33.6-14.5 51.8-16 19.8-1.5 38.3 2.4 29 25.3L803 554S696 573 689.3 542.5c-.3-1.6-.8-3-1.5-4.5-1.3-2.9-1.6-10.4 11.9-27.1z"/>
    <path fill="#fff" d="M709.1 513.9a163.1 163.1 0 0021.2-34.4 196.2 196.2 0 0012.2-31.1c1-8.3 24.3-24.8 50-25.7 16.8-.6 43-13.7 59.1-22.7a120.3 120.3 0 0149.6-15.3c19-1.4 36.7 2.3 27.8 24.2l-99.7 146s-123 17.5-129.5-11.4c-.4-1.5-1-3-1.6-4.5-1.1-2.8-1.3-9.8 11-25.1z" opacity=".2"/>
    <path fill="#000" d="M824.3 563.4h-18l-.3-11.9 18.2-3.3.1 15.2z" opacity=".1"/>
    <g fill="#000" opacity=".1">
      <path d="M894.3 668.2L849.2 637l5.2 6.4 40 27.7.9 13.4 9.1.5-.2-3-9-.4-.9-13.4zM730.1 662.9v2.9l53.9-30.3 4.2-5.2-58 32.6zM718.1 730.6v2.9h11.6l-.2-3H718zM730.1 674.9l-9.2-.5-.4 2.9 9.6.5v-2.9zM907.3 737.8l-2-16.3-85.4-97-10-1-81.2 92.2.2 2.7 81-92 10 1 85.5 97 1.9 16.3 11.5.4-.3-2.9-11.2-.4z" opacity=".1"/>
    </g>
    <path fill="url(#paint0_linear)" d="M500.6 630.3c15.7 12.5 25.6.9 25.6.9s26.5-19 27.1-21.6c.4-1.6.9-3.2 1.6-4.7 0 0 4.3.8 4.3-1.3 0-2 4.6-2.8 7.2-4.5 2.7-1.7 19.4-16.3 19.4-16.3s.6-3.2 8.2-5.6c5.4-1.7 16.9-12.4 23.2-18.7.4-2.5 1.7-10.1 3.1-12.4a3.4 3.4 0 012.5-1.1l.6-2.4c1.9-7 3.3-14.2 4.1-21.5 1.7-15 14.4-19.7 17.7-19.7 3.2 0 28.8-10.8 28.8-10.8l41.5-16.9s25.7-8 24.7-13.5v-1.7c.6-2.6 2.8-5.6 5-8 1.6-1.8 3.3-3.4 5-5l13.9-8.5 1-.6a119.1 119.1 0 00-14.8-17.2s3-5.7 6.4-5.7c2.3 0 15-4 23.2-6.6-.8-9.1-2.5-36.8 8-42.5l12.4-6.7-1 2.5 1.8-1-.6 1.3 1.2-.2c1.1-4 1.8-7.2 1.5-8.2-.9-2.7-1-20.5 6.5-29.7l-6-17.4a3.4 3.4 0 012.2-4.3l15.5-5.3c.5-.1 1-.2 1.5-.1a3.5 3.5 0 013.7 2.3l4.4 12.8 5.7-1c1.3-2.3 2.9-4.6 2.6-7.2-.2-1.6-.8-3-1.6-4.3-2-4-3.3-8.1-4.2-12.4-.2-1-.2-1.8 0-2.7.6-2 3.4-2.8 4.6-4.7 1-1.5.6-3.5.1-5.3-.7-2.8-1.9-5.4-2.5-8.2a12 12 0 01.7-8.4c1.2-2 3-3.6 5-4.7.5-2.5 2.3-4.8 1.8-7.3-.4-1.5-1.6-2.7-1.8-4.2-.4-2.7 2.4-4.8 4.7-6.2l21.1-12.4c1.9-1.1 3.8-2.3 5.8-3.2 3.8-2 7.9-3.4 12-2.9 5.4.7 9.8 4.5 13.1 8.7 3.3 4.2 5.9 9 9.6 12.9 6.8 7 16.6 10.5 24 17 2 1.7 3.7 3.8 4.8 6.3 3 8.1-4.5 16.6-4.5 25.3 0 7.6 6 14 12 18.7 2.6 2 5.5 4.2 6 7.4.4 2.5-.7 5-1.5 7.3a24 24 0 00.8 15.1l8.2 5.3s19.7 16.5 30.7 20.3a55.6 55.6 0 0114 10.5c2 3.3 14.9 16 6.5 20.6a46.5 46.5 0 01-15.5 5.2s-19.4 6-27 9.8a83 83 0 01-14.3 5 29 29 0 005.8 14.6h.2c1 1.2 2 2.4 3.1 3.4l-2 .4v.1c-5.4.9-11 1.8-16.5.5-5.4-1.2-10.6-5.1-11.6-10.5-1-5.9 2.6-12.9-1.4-17.3a8.6 8.6 0 00-5-2.5c-2.6 3.4-22 28-39.5 22.6 4 10.7 11.2 29.3 12.5 29.8 2 .8-19.3 7.5-19.3 7.5s-4.2-.7-10.2-1.2l.1 2.2c.4 7.4.7 17.3-.6 20a14 14 0 00-.7 2.1 37 37 0 01-11.5 18.4l-1.8 1.6a24.9 24.9 0 00-6 7.9 30.7 30.7 0 01-18 15.5c-6 1.9-12.5 2.3-18.7 1.1 0 0-42.7 4.2-66.2 6-23.5 2-49.2 12.8-49.2 12.8s-11.8 8.4-20.2 19.2l-1.8 2.5 3.6 6.4s-17.3 12.7-29 22.1v1.7c.6 12.6-16 30.2-16 30.2l-7.9 10.7c-2.6 3.5 4.6 5.8 4.6 5.8s-12 3.4-7.2 16c4.8 12.5 1.3 20.7 1.3 20.7l-7 33.6h-14.7l2.9-23.3c-5.1-.3-18.8 20.7-18.8 20.7s-35.7-5.5-42.1-7.4c-6.5-1.8-5.3-13.8 7-11.2a21.2 21.2 0 0019.7-5.8s8.7-10.1 13.7-36c1.6-7.6 3.7-15.1 6.3-22.4-6.8 10.2-10.5 25.3-12 26.1-2 1.2-28.3 30.8-28.3 30.8L539.3 676l17.8-20.7s-16.2.2-22.8 4.7c-6.7 4.5-15.4 2.3-15.4 2.3s-20.1-16-25-22c-5-6-9-22.6 6.8-10z"/>
    <path fill="#575989" d="M795.5 362.9s8.6-2.6 8.2 1.8c-.4 4.5 4.5 8.6 4.5 8.6l-7.9 20.6-17.5-6.4 5.5-17.5 7.2-7.1z"/>
    <path fill="#FFD7E3" d="M795.5 362.9s8.6-2.6 8.2 1.8c-.4 4.5 4.5 8.6 4.5 8.6l-7.9 20.6-17.5-6.4 5.5-17.5 7.2-7.1z"/>
    <path fill="#3F2B3B" d="M840.5 252.4c-2.6 1.6-5.4 3.2-6.9 6a12.2 12.2 0 00-.7 8.3c.6 2.8 1.8 5.4 2.6 8.2.4 1.8.7 3.7-.2 5.3-1.2 1.9-4 2.6-4.6 4.7-.2.8-.1 1.7 0 2.6 1 4.3 2.3 8.4 4.2 12.4.8 1.3 1.4 2.7 1.6 4.3.4 4.1-3.8 7.5-4.2 11.6-.2 2.3.8 4.5 1.7 6.5 1 2.3 2.2 4.7 4.2 6 2.5 1.8 6 1.7 9 .9 2.9-.9 5.7-2.3 8.7-3 2.7-.7 5.7-.8 8.2-2.1 4.3-2.3 6-7.4 7.3-12a19 19 0 00.8-9.6c-.7-2-1.5-4-2.6-5.7-1-2.4-1.9-5-3.4-7-1.6-2.1-3.6-3.7-4.2-6.1-.8-2.8.8-5.6 2-8.2 1.2-2.2 2.2-4.6 3-7 .8-1.9 1-4 .8-6-.7-4.2-5-6.8-9.2-8-3-.7-6.3-1.1-9.2-2.2-1.4-.5-2.5-1.4-4-1.5-1.7-.1-3.4.8-4.9 1.6z"/>
    <path fill="#C77486" d="M622 550.1l34.7 4.7h.1s34.6-41.3 35.1-41.5l39.1-13.8 26.2-7.7 3.5-17-34.7-1.3-11.4 1.7-41 16.8s-25.2 10.8-28.4 10.8c-3.2 0-15.7 4.7-17.4 19.7-.8 7.2-2.1 14.4-4 21.4-1 3.9-1.8 6.2-1.8 6.2z"/>
    <path fill="#000" d="M622 550.5l34.7 4.6h.1s34.6-41.3 35.1-41.4l39.1-13.9 26.2-7.6 3.5-17-34.7-1.3-11.4 1.6-41 16.9s-25.2 10.8-28.4 10.8c-3.2 0-15.7 4.7-17.4 19.6-.8 7.3-2.1 14.4-4 21.5l-1.8 6.2z" opacity=".1"/>
    <path fill="#000" d="M726.5 474.4l-1.7 2.9s12 6.4 11 8.9l17.4-7-26.7-4.8zM622 550.1l34.7 4.7c2.2-8 4-13.8 4-13.8l-24 4s-8.2-1.5-13-1c-.9 3.8-1.7 6.1-1.7 6.1z" opacity=".1"/>
    <path fill="#D4DFEC" d="M636.8 547.3s-14.4-2.8-16 0a61.6 61.6 0 00-3.2 13.3s-28.3 66.1-33.1 92c-4.9 25.7-13.5 35.8-13.5 35.8a20.8 20.8 0 01-19.4 5.8c-12.1-2.6-13.3 9.3-7 11.2 6.4 1.9 41.6 7.3 41.6 7.3s13.4-21 18.5-20.6l-2.8 23.2h14.4l6.9-33.4s3.3-8.3-1.3-20.8c-4.7-12.5 7-15.9 7-15.9s-7-2.2-4.4-5.8l7.6-10.6s16.5-17.5 16-30c-.6-12.6 12.6-55.6 12.6-55.6l-23.9 4.1z"/>
    <path fill="#000" d="M636.8 547.3s-14.4-2.8-16 0a61.6 61.6 0 00-3.2 13.3s-28.3 66.1-33.1 92c-4.9 25.7-13.5 35.8-13.5 35.8a20.8 20.8 0 01-19.4 5.8c-12.1-2.6-13.3 9.3-7 11.2 6.4 1.9 41.6 7.3 41.6 7.3s13.4-21 18.5-20.6l-2.8 23.2h14.4l6.9-33.4s3.3-8.3-1.3-20.8c-4.7-12.5 7-15.9 7-15.9s-7-2.2-4.4-5.8l7.6-10.6s16.5-17.5 16-30c-.6-12.6 12.6-55.6 12.6-55.6l-23.9 4.1z" opacity=".1"/>
    <path fill="#000" d="M607.9 649.4s-5 33.8-11.6 36.2c-6.6 2.4 11.6-36.2 11.6-36.2zM621.5 622.6c-.6.6-16 20.8-22.3 21-6.1.1 22.3-21 22.3-21z" opacity=".1"/>
    <path fill="#C77486" d="M646 541.7s17 44.3 24.6 30.7c1.3-2.2 2.7-4.3 4.2-6.3 8.3-10.8 20-19.2 20-19.2s25.2-10.8 48.4-12.7c23.1-1.8 65.1-6 65.1-6l5.5-4.6c.5-30.3-60.6-44.5-60.6-44.5S706.5 498.4 689 504c-17.5 5.6-20.5 14-20.5 14l-17.5 18.5-5 5.2z"/>
    <path fill="#000" d="M646 541.7s17 44.3 24.6 30.7c1.3-2.2 2.7-4.3 4.2-6.3l-2.8-5c-4-7.3-9-13.9-15-19.6a37 37 0 00-6.1-5l-5 5.2z" opacity=".1"/>
    <path fill="#D4DFEC" d="M666 556s-15.7-19.3-20-17.3c-4.3 2-24 16.6-24 16.6s-19.6 20.6-27.2 23c-7.5 2.5-8 5.7-8 5.7s-16.5 14.5-19.1 16.2c-2.7 1.7-7.1 2.4-7.1 4.5 0 2-4.3 1.3-4.3 1.3-.7 1.5-1.2 3-1.5 4.7-.6 2.6-26.8 21.5-26.8 21.5s-9.7 11.5-25.2-1c-15.5-12.4-11.6 4.2-6.7 10.2 4.8 6 24.7 21.8 24.7 21.8s8.6 2.3 15.1-2.2c6.6-4.5 22.4-4.7 22.4-4.7L541 676.8 551 687s25.8-29.5 27.9-30.6c2-1.1 8.2-29 20.6-34.6 0 0 35-13.5 46.5-23 11.4-9.5 30.6-23.7 30.6-23.7L666 556z"/>
    <path fill="#000" d="M549.3 622.6c1.2-.5 26 4 20.8 6.7-5.3 2.7-20.8-6.7-20.8-6.7zM576.3 610.7c1 .7 14.4 3.9 11 7.4-3.4 3.6-11-7.4-11-7.4z" opacity=".1"/>
    <path fill="#fff" d="M714.6 475.2s9 .2 37.9 6.2c29 6 55.8 46.9 55.8 46.9a39 39 0 0018.5-1.1 30.4 30.4 0 0017.7-15.6c1.4-3 3.4-5.6 6-7.8l1.7-1.6a36.8 36.8 0 0011.3-18.3l.7-2.2c1.3-2.7 1-12.6.6-19.9-.2-4.8-.6-8.5-.6-8.5l-96.4-18.1-5.5 3.4-13.6 8.5a54.2 54.2 0 00-5 5 19.7 19.7 0 00-4.8 8c-.1.5-.2 1 0 1.7.9 5.3-24.3 13.4-24.3 13.4z"/>
    <path fill="#C77486" d="M859.4 292.3s9.3 13-2.3 37c-11.5 23.9 49-13.9 49-13.9s-22.8-34.4-19.4-40.7c3.4-6.4-27.3 17.6-27.3 17.6z"/>
    <path fill="#000" d="M868 306.4a29.5 29.5 0 100-59 29.5 29.5 0 000 59z" opacity=".1"/>
    <path fill="#C77486" d="M868 304.2a29.5 29.5 0 100-59 29.5 29.5 0 000 59z"/>
    <path fill="#000" d="M862.8 312.7s-9.8 15.4 20 6.8c29.7-8.6-23.4 58.7-23.4 58.7l-21-21.7 8.3-38.1 16-5.7z" opacity=".1"/>
    <path fill="#DCE6F2" d="M862.8 314.1s-9.8 15.5 20 6.9c29.7-8.6-23.4 58.7-23.4 58.7l-21-21.7 8.3-38.1 16-5.8z"/>
    <path fill="#000" d="M762.3 438.6c1 1.4 1.8 2.8 2.5 4.3 3.4 7.4 11.6 5.6 11.6 5.6 13.5 8.2 49 6 49 6s-7.9 13 7 8.6c9.3-2.8 23-2.2 32.4-1.3l-.5-8.4-96.5-18.2-5.5 3.4z" opacity=".1"/>
    <path fill="#FFD7E3" d="M748.8 420.8s12.7 12.3 16 19.8c3.4 7.5 11.6 5.6 11.6 5.6 13.5 8.2 49 6 49 6s-7.8 13 7.1 8.6c15-4.5 42.2 0 42.2 0s21-6.7 19.1-7.5c-1.9-.7-15-37-15-37-.7-2-1-4-1-6.2 0-2.9 1.1-5.6 3-7.9 2-2.2 4.3-3.9 7-5a435.7 435.7 0 0040.4-22.4s65.8-9.7 55-13.4c-11-3.8-30.4-20.2-30.4-20.2s-30.6-19.5-36.6-27.7-18.3-10.8-18.3-10.8l-17.1 12.7-31.1 27.7-1.5-16.8s-3.4-11.3-7.9-14.2c-4.4-3-21.1 2.9-22.3 3.3h-.1s-17.2 49.7-16.4 58.7c.1 2.3-.9 5.7-2.5 9.3a183.6 183.6 0 01-14 22.8s-26.5 9-29.9 9c-3.4 0-6.3 5.6-6.3 5.6z"/>
    <path fill="#000" d="M849.7 346.2L853 361l32.4-17.6-3.1-26.5-31.1 27.7-1.5 1.6z" opacity=".1"/>
    <path fill="#FFD7E3" d="M848.2 344.7l3.3 14.8 32.4-17.6-3.1-26.5-31.1 27.7-1.5 1.6z"/>
    <path fill="#000" d="M795.2 392.1c12.3 2.6 67 14 82.6 19.5 0-2.9 1.1-5.7 3-7.9-15.5-7-63.2-27.4-81.8-18.8-1.1 2.4-2.4 4.8-3.8 7.3z" opacity=".1"/>
    <path fill="#000" d="M795.2 389.2c12.3 2.5 67 14 82.6 19.4 0-2.9 1.1-5.7 3-7.9-15.5-7-63.2-27.4-81.8-18.8-1.1 2.4-2.4 4.9-3.8 7.3z" opacity=".1"/>
    <path fill="#FFD7E3" d="M795.2 390.6c12.3 2.6 67 14.1 82.6 19.5 0-2.9 1.1-5.7 3-7.9-15.5-7-63.2-27.4-81.8-18.8a83 83 0 01-3.8 7.3z"/>
    <path fill="#FEFFFF" d="M808.2 401.5a3.8 3.8 0 100-7.7 3.8 3.8 0 000 7.7zM795.2 428.3a3.8 3.8 0 100-7.7 3.8 3.8 0 000 7.7zM838.5 409.1a3.8 3.8 0 100-7.6 3.8 3.8 0 000 7.6zM823 437.1a3.8 3.8 0 100-7.6 3.8 3.8 0 000 7.6zM818 372a3.8 3.8 0 100-7.7 3.8 3.8 0 000 7.6z"/>
    <path fill="#000" d="M862.4 409.1s15.7 38.6 12 43.8c-3.7 5.3-12-43.8-12-43.8zM849.1 409.1c2.2-.5-9.3 10.4-10.6 20.4-1.4 10-9.4 18.4-9.4 18.4l8-19.6s9.4-18.5 12-19.2zM799 405.3c-1 1.6-16.6 4.6-18.3 22l18.3-22zM903.3 377.6c-1.8 1.7-23 16-30.4 16.2-7.5.3 30.4-16.2 30.4-16.2zM869.9 385.5s-3.2 4.5-6.4 4.5 6.4-4.5 6.4-4.5zM738.9 460c13.5.4 58.9 1.8 65.5-.1.6-.2-40.1-2.1-49.7-4-3.8-.7-7.5-2-10.9-3.9a19.9 19.9 0 00-4.9 8zM814.1 468.8s22.5 16.5 12.7 16.7c-9.8.1-12.7-16.7-12.7-16.7z" opacity=".1"/>
    <path fill="#3F2B3B" d="M862.9 309.5c-1 2.3-.2 2.7-.7 4.8-.5 1.9-.7 4-.4 5.9.2 2.8-1.5 6.1-.1 8.5l.5 1.1a3.2 3.2 0 01-1.4 3.3c-1 .7-2 1.3-2.6 2.4-1.4 2.7 1.2 6.4 0 9.2-.5.8-1.1 1.5-2 2a24.3 24.3 0 01-6 3.2c-1.3-2.2.3-5.4-1-7.8-.7-1-1.5-1.8-2.5-2.6-2-1.9-3-4.8-3.6-7.7-.5-2.8-.6-5.8-1.2-8.6-.9-4.7-3.1-9.1-3.6-13.9-.1-.4 0-.9.1-1.3a1.6 1.6 0 011.3-.5c4.4-.4 9.1.8 13.3 0 4-.7 6.5-1.6 9.9 2z"/>
    <path fill="#000" d="M817.2 316.9c1.3 6 5.6 22.7 15 30 11.3 9.2 20 33 20 33l-2.7 6.1c2-.5 3.9-1.4 5.6-2.6 2.6-1.8-6.2-38.8-6.2-38.8l-1.5-16.9s-3.3-11.2-7.8-14.2c-4.4-2.9-21.2 3-22.4 3.4z" opacity=".1"/>
    <path fill="#FFD7E3" d="M818 315.4c1.3 6 5.6 22.7 14.9 30 11.4 9.2 20 33 20 33l-2.7 6.1c2-.5 4-1.4 5.6-2.6 2.7-1.8-6.1-38.8-6.1-38.8l-1.5-16.8s-3.4-11.3-7.9-14.2c-4.4-3-21.1 2.9-22.3 3.3z"/>
    <path fill="#464A5F" d="M821.3 296.9l-18.6 6.3c-.8.3-1.3 1.2-1 2.1l14.5 42.8c.3 1 1.3 1.4 2.2 1.1l18.5-6.3c1-.3 1.4-1.3 1.1-2.2L823.5 298a1.7 1.7 0 00-2.2-1z"/>
    <path fill="#D4DFEC" d="M820.5 296.9l-18.6 6.3c-.9.3-1.4 1.3-1 2.1l14.5 42.8c.3 1 1.3 1.4 2.2 1.1l18.5-6.3c.9-.3 1.4-1.3 1-2.2L822.7 298a1.7 1.7 0 00-2.1-1z"/>
    <path fill="#939498" d="M815.4 317.2a3.6 3.6 0 100-7.2 3.6 3.6 0 000 7.2z"/>
    <path fill="#C77486" d="M791.4 386.4v1.3l14-7.2 1.4-7 2.5-12.3s28.4-41.7 9.5-42.2c-18.8-.6-19 31.3-17.9 34.9.8 2.5-4.4 18.1-7.4 26.8l-2.1 5.7z"/>
    <path fill="#000" d="M779 413s-4.8-38.6 7.5-45.3l12.3-6.7s-10 22.6-6 23.4c4.1.9 16.1-9.6 16.1-9.6v24.3L779 413z" opacity=".1"/>
    <path fill="#000" d="M791.4 386.4v1.3l14-7.2 1.4-7c-3.8 3-10.4 7.8-13.2 7.2h-.2l-2 5.7z" opacity=".1"/>
    <path fill="#FFD7E3" d="M778.3 411.4s-4.8-38.4 7.5-45.2l12.3-6.7s-10 22.6-6 23.5c4.1.8 16.1-9.7 16.1-9.7v24.3l-29.9 13.8z"/>
    <path fill="#FEFFFF" d="M848.2 380.5a3.8 3.8 0 100-7.6 3.8 3.8 0 000 7.6z"/>
    <path fill="#EF5B59" d="M719.8 558.7S757 555.8 771 529c0 0 28.4-56.2 51.4-62.4 23-6.3 65.8-20.2 83.5-41.8a190.5 190.5 0 0025.2-38.2s4.6 17.6-9.8 38.2-19.7 52.3-29.8 86c-10 33.5-13.9 47-32.1 49-13.8 1.4-86.5.7-121.2 0-11.4-.3-18.3-1-18.3-1z"/>
    <path fill="#fff" d="M719.8 558.7S757 555.8 771 529c0 0 28.4-56.2 51.4-62.4 23-6.3 65.8-20.2 83.5-41.8a190.5 190.5 0 0025.2-38.2s4.6 17.6-9.8 38.2-19.7 52.3-29.8 86c-10 33.5-13.9 47-32.1 49-13.8 1.4-86.5.7-121.2 0-11.4-.3-18.3-1-18.3-1z" opacity=".2"/>
    <path fill="#EF5B59" d="M729.2 558.8S764.7 556 778 530c0 0 27.1-54.4 49.1-60.4S890 450 907 429c17-20.9 24-37 24-37s4.4 17-9.3 37c-13.8 20-18.9 50.7-28.5 83.2-9.6 32.5-13.3 45.5-30.7 47.4-13.2 1.4-82.7.7-115.9 0-10.9-.2-17.4-1-17.4-1z"/>
    <path fill="#C77486" d="M935.6 384.5s-17.2 1.2-22.4 3.2c-2.8 1.1-9.9 2-15.9 2.7a32.2 32.2 0 00-22 11.9c-4.9 6.2-7.3 13.8 2.4 19.6 19.4 11.6 43-21.3 43-21.3l20.5-3-5.6-13z"/>
    <path fill="#FFD7E3" d="M927.4 383c6.7-.5 14.2 30.7 14.2 30.7s12.4-2.6 19.8-6.4a269 269 0 0126.6-9.7c5.3-.8 10.5-2.6 15.3-5.2 8.2-4.5-4.5-17.2-6.4-20.6-1.8-3.3-13.8-10.4-13.8-10.4l-9.3-1.9-42.3 7.5 27.3 6.3-3.4 1-9.1 2.9-18.9 5.8z"/>
    <path fill="#FFD7E3" d="M946.3 377.2l8 21.6c16.3 12.6 15-5 15-5l-13.8-19.5-9.2 2.9z"/>
    <path fill="#000" d="M947.7 377.9l8 21.6c16.3 12.7 15-5 15-5L957 375l-9.2 2.8z" opacity=".1"/>
    <path fill="#FEFFFF" d="M964.1 401.5a3.8 3.8 0 100-7.7 3.8 3.8 0 000 7.7z"/>
    <path fill="#000" d="M842.7 260a5.3 5.3 0 01-4.3-5.2c0-2.9 2.5-5.6 1.8-8.4-.3-1.5-1.5-2.7-1.7-4.2-.4-2.7 2.3-4.8 4.7-6.2l20.7-12.4c5-3 10.4-6 16.1-5.3 5.3.7 9.6 4.5 12.9 8.7 3.3 4.2 5.8 9 9.4 12.8 6.7 7 16.4 10.5 23.6 17 2 1.6 3.7 3.8 4.7 6.2 3 8.2-4.4 16.6-4.4 25.3 0 7.6 5.8 14 11.8 18.6 2.6 2 5.5 4.2 6 7.4.4 2.5-.8 5-1.5 7.3-3.5 12.2 4.3 25.2 14.3 33 3 2.4 6.3 4.7 7.4 8.3 1.6 5.4-2.4 10.6-5.8 15-6 7.7-11 16.4-12.4 26a30.1 30.1 0 008.4 26.8c-5.4 1-11 1.8-16.3.5-5.4-1.2-10.5-5-11.5-10.5-1-5.8 2.6-12.8-1.3-17.2-3-3.3-8.3-2.7-12.7-3.3a20.7 20.7 0 01-17.4-19c-.3-6.6 2.6-12.8 4.9-19 2.2-6.2 3.9-13.2 1.1-19.2-4.4-9.7-18.8-13.7-19.4-24.3-.3-6.3 4.6-12.6 2-18.3-1.7-3.8-6-5.5-9.3-8.1-5.2-4.1-7.7-10.6-11-16.3a77 77 0 00-9.8-12.4c-1.1-1.3-3.4-4.6-5.1-5-2-.4-3.7 1.7-5.9 1.3z" opacity=".1"/>
    <path fill="#3F2B3B" d="M844.2 259.2a5.3 5.3 0 01-4.3-5.1c0-3 2.5-5.6 1.8-8.5-.3-1.4-1.5-2.7-1.7-4.2-.4-2.7 2.3-4.7 4.7-6.1l20.7-12.4c5-3 10.4-6 16.1-5.3 5.3.7 9.6 4.5 12.9 8.7 3.2 4.1 5.8 9 9.4 12.8 6.7 7 16.4 10.4 23.6 17 2 1.6 3.7 3.7 4.7 6.2 3 8.1-4.4 16.5-4.4 25.2 0 7.6 5.8 14 11.8 18.7 2.6 2 5.5 4.2 6 7.4.4 2.4-.8 4.9-1.5 7.3-3.6 12.2 4.3 25.1 14.3 33 3 2.3 6.3 4.7 7.4 8.3 1.6 5.3-2.4 10.5-5.8 15-6 7.6-11 16.4-12.4 26a30.1 30.1 0 008.4 26.8c-5.4.9-11 1.7-16.3.5-5.4-1.2-10.5-5.1-11.5-10.5-1-5.8 2.6-12.8-1.3-17.2-3-3.4-8.3-2.8-12.7-3.4a20.7 20.7 0 01-17.4-19c-.3-6.5 2.6-12.8 4.9-19 2.3-6.1 3.9-13.1 1.1-19.1-4.4-9.7-18.8-13.7-19.4-24.3-.3-6.2 4.6-12.6 2-18.3-1.7-3.8-6-5.5-9.4-8.1-5.1-4.1-7.6-10.6-11-16.3-2.8-4.4-6-8.6-9.7-12.4-1.2-1.3-3.4-4.6-5.1-5-2-.5-3.7 1.6-5.9 1.3z"/>
    <path fill="#000" d="M842.2 246c-.4-1.6-1.5-2.8-1.7-4.3-.4-2.7 2.3-4.7 4.6-6.1l.5-.3c-.3.6-.4 1.3-.3 2 .2 1.5 1.4 2.7 1.7 4.2.7 2.8-1.8 5.5-1.8 8.4a5.3 5.3 0 004.3 5.1c2.2.4 3.8-1.7 5.9-1.3 1.7.4 4 3.7 5.1 5 3.7 3.8 7 8 9.7 12.5 3.4 5.6 6 12.1 11 16.2 3.3 2.6 7.7 4.3 9.4 8.2 2.5 5.6-2.4 12-2 18.2.6 10.6 15 14.7 19.4 24.3 2.8 6 1.1 13-1.1 19.3-2.3 6.2-5.3 12.4-5 19a20.7 20.7 0 0017.5 19c4.4.5 9.7 0 12.7 3.3 3.9 4.4.3 11.4 1.3 17.2 1 5.4 6.1 9.3 11.5 10.5 2.7.6 5.5.8 8.3.5 1 1.2 2 2.4 3.1 3.4-5.4.8-11 1.7-16.3.5-5.3-1.3-10.5-5.1-11.4-10.5-1-5.9 2.5-12.8-1.4-17.2-3-3.4-8.2-2.8-12.7-3.4a20.7 20.7 0 01-17.4-19c-.3-6.6 2.6-12.8 4.9-19 2.3-6.1 4-13.2 1.2-19.2-4.4-9.6-18.8-13.7-19.5-24.3-.3-6.2 4.6-12.6 2-18.3-1.7-3.8-6-5.5-9.3-8-5.2-4.2-7.6-10.7-11-16.3a77 77 0 00-9.7-12.5c-1.2-1.2-3.4-4.5-5.2-5-2-.4-3.6 1.7-5.9 1.3a5.3 5.3 0 01-4.3-5c0-3 2.5-5.6 1.9-8.5zM700.4 544.8s19.4 7.5 30.5 3.4c11-4.1 38.4-16.1 38.4-16.1s-46.1 2.9-69 12.7z" opacity=".1"/>
    <path fill="#EF5B59" d="M535 339.4s-4.5 21.4 16 24l1.2-2.4s-15.9-15-17.1-21.6z"/>
    <path fill="#EF5B59" d="M558.7 360.8l-4.8 1-.4.1s-12.7-10.3-12.5-33.2c1.6 3.3 3.6 6.5 6 9.5 5 6.7 10.7 15.6 11.7 22.6z"/>
    <path fill="#EF5B59" d="M560.3 363a3 3 0 01-2.5.4c-12.2-2.9-8.1-42.6-8.1-42.6.7.3 1.4 5.3 4.2 11.8 4.9 11.5 10.3 27.5 6.4 30.4zM587.3 339.4s.8 21.4-19.6 24l-1.3-2.4s19.7-15 21-21.6z"/>
    <path fill="#EF5B59" d="M581.5 328.7c.1 23-16.3 33.2-16.3 33.2h-.5l-4.8-1c1-7.1 6.7-16 11.7-22.6 2.9-3.7 6.2-6.9 9.9-9.6z"/>
    <path fill="#EF5B59" d="M564.6 361a7.5 7.5 0 01-3.7 2.4c-3 .7-4-1.5-3.9-5.2.3-6.5 4.4-17.9 8.1-26.4 2.7-6.1 7-10.7 7.7-11 0 0-.2 30.9-8.2 40.1z"/>
    <path fill="#EF5B59" d="M561.2 306.8s-13.6 48.3-1.9 55.6c11.7 7.3 5-51.3 2-55.6z"/>
    <path fill="#000" d="M535 339.4s-4.5 21.4 16 24l1.2-2.4s-15.9-15-17.1-21.6z" opacity=".1"/>
    <path fill="#000" d="M558.7 360.8l-4.8 1-.4.1s-12.7-10.3-12.5-33.2c1.6 3.3 3.6 6.5 6 9.5 5 6.7 10.7 15.6 11.7 22.6z" opacity=".1"/>
    <path fill="#000" d="M560.3 363a3 3 0 01-2.5.4c-12.2-2.9-8.1-42.6-8.1-42.6.7.3 1.4 5.3 4.2 11.8 4.9 11.5 10.3 27.5 6.4 30.4zM587.3 339.4s.8 21.4-19.6 24l-1.3-2.4s19.7-15 21-21.6z" opacity=".1"/>
    <path fill="#000" d="M581.5 328.7c.1 23-16.3 33.2-16.3 33.2h-.5l-4.8-1c1-7.1 6.7-16 11.7-22.6 2.9-3.7 6.2-6.9 9.9-9.6z" opacity=".1"/>
    <path fill="#000" d="M564.6 361a7.5 7.5 0 01-3.7 2.4c-3 .7-4-1.5-3.9-5.2.3-6.5 4.4-17.9 8.1-26.4 2.7-6.1 7-10.7 7.7-11 0 0-.2 30.9-8.2 40.1z" opacity=".1"/>
    <path fill="#000" d="M561.2 306.8s-13.6 48.3-1.9 55.6c11.7 7.3 5-51.3 2-55.6z" opacity=".1"/>
    <path fill="#EF5B59" d="M535 339.4s-2.6 21.4 17.8 24l1.3-2.4s-17.8-15-19-21.6z"/>
    <path fill="#EF5B59" d="M560.6 360.8l-4.8 1-.4.1s-14.6-10.3-14.4-33.2c0 0 3.7 4 8 9.5 5 6.7 10.6 15.6 11.6 22.6z"/>
    <path fill="#000" d="M560.6 360.8l-4.8 1c-4.5-4-6.3-14.3-6.9-23.6 5 6.7 10.7 15.6 11.7 22.6z" opacity=".1"/>
    <path fill="#EF5B59" d="M562.2 363a3 3 0 01-2.6.4c-12.2-2.9-10-42.6-10-42.6.7.3 3.4 5.3 6.2 11.8 4.9 11.5 10.3 27.5 6.4 30.4zM587.3 339.4s2.7 21.4-17.7 24l-1.3-2.4s17.8-15 19-21.6z"/>
    <path fill="#EF5B59" d="M581.5 328.7c.1 23-14.4 33.2-14.4 33.2h-.5l-4.8-1c1-7.1 6.7-16 11.7-22.6 4.3-5.6 8-9.6 8-9.6z"/>
    <path fill="#000" d="M573.5 338.3c-.6 8.6-2.2 18.2-6 22.7l-.9.9-4.8-1c1-7.1 6.7-16 11.7-22.6z" opacity=".1"/>
    <path fill="#EF5B59" d="M566.5 361a7.5 7.5 0 01-3.7 2.4c-3 .7-4-1.5-3.9-5.2.3-6.5 4.4-17.9 8.1-26.4a50 50 0 015.8-11s1.7 30.9-6.3 40.1z"/>
    <path fill="#000" d="M562.2 363c-.7 0-1.4-.2-2-.6-5.7-3.6-5.8-17-4.4-29.8 4.9 11.5 10.3 27.5 6.4 30.4z" opacity=".1"/>
    <path fill="#000" d="M566.5 361c-.6 1.4-1.5 2.1-2.7 2-.6 0-1.1-.3-1.6-.6a8.7 8.7 0 01-3.3-4.2c.3-6.5 4.4-17.9 8.1-26.4 1.3 11.8 1.8 24.3-.5 29.1z" opacity=".1"/>
    <path fill="#EF5B59" d="M561.2 306.8s-11.7 48.3 0 55.6c11.7 7.3 3-51.3 0-55.6z"/>
    <path fill="#4B4770" d="M583.7 360H535v8.1h7.5l.2 1 3 15.6h28.3l3-15.6.2-1h6.6v-8z"/>
    <path fill="#000" d="M583.7 360H535v8.1h7.5l.2 1 3 15.6h28.3l3-15.6.2-1h6.6v-8z" opacity=".1"/>
    <path fill="#4B4770" d="M579.6 364.8l-.8 4.3-3 15.6h-28.4l-3-15.6-.8-4.3h36z"/>
    <path fill="#000" d="M579.6 364.8l-.8 4.3h-34.3l-.9-4.3h36z" opacity=".1"/>
    <path fill="#4B4770" d="M585.6 360h-48.8v8.1h48.8v-8z"/>
    <path fill="#EF5B59" d="M165.5 662.4c-1 1.3-1.7 2.8-2.3 4.3l-.4 1.2-.8-.3c-1.1-.2-2.3-.4-3.5-.3V666c.2-5.3-.4-12.6-5.5-9.5-4.8 3-1.3 8 1.8 11.2l.8.8c-2.9 2-3.4 6.7-3.9 11.6-.5 5-4.6 10.3-7.4 13.3l-.8.9a10.2 10.2 0 00-8-2l-.3-1.4c-2.3-8.1-7-22.1-12.8-25.2l.7-1c2.6-3.3 5.4-8.2 1.2-9.5-4.2-1.2-4.6 4.3-4.3 8.4v1.5a6.1 6.1 0 00-4.3 2.1l-.6-.8c-3.4-4-9.7-10.3-11.6-5.5-1.7 4.5 3.8 10.3 7.6 13.7l.3.2c-2.6 10.5 8.7 19 14.8 22.8l.8.5c-8.4 9.9-13.6 28.4-13.6 28.4l23.5 4.2s15.6-13.4 13.6-26h.2c15.5-3.2 19-19.8 16.7-29.7h.2c2.9-1.2 5.4-3.1 7.3-5.5 4.3-6.1-4.9-13-9.4-7z"/>
    <path fill="#000" d="M165.5 662.4c-1 1.3-1.7 2.8-2.3 4.3l-.4 1.2-.8-.3c-1.1-.2-2.3-.4-3.5-.3V666c.2-5.3-.4-12.6-5.5-9.5-4.8 3-1.3 8 1.8 11.2l.8.8c-2.9 2-3.4 6.7-3.9 11.6-.5 5-4.6 10.3-7.4 13.3l-.8.9a10.2 10.2 0 00-8-2l-.3-1.4c-2.3-8.1-7-22.1-12.8-25.2l.7-1c2.6-3.3 5.4-8.2 1.2-9.5-4.2-1.2-4.6 4.3-4.3 8.4v1.5a6.1 6.1 0 00-4.3 2.1l-.6-.8c-3.4-4-9.7-10.3-11.6-5.5-1.7 4.5 3.8 10.3 7.6 13.7l.3.2c-2.6 10.5 8.7 19 14.8 22.8l.8.5c-8.4 9.9-13.6 28.4-13.6 28.4l23.5 4.2s15.6-13.4 13.6-26h.2c15.5-3.2 19-19.8 16.7-29.7h.2c2.9-1.2 5.4-3.1 7.3-5.5 4.3-6.1-4.9-13-9.4-7z" opacity=".1"/>
    <path fill="#EF5B59" d="M118.7 669.2l-2.8 8s-1.5-1-3.4-2.7c-3.9-3.4-9.3-9.2-7.6-13.7 1.9-4.8 8.1 1.6 11.5 5.6l2.3 2.8zM124.5 664.6a38 38 0 01-2.7 3.2 39 39 0 01-.5-4.3c-.2-4 .2-9.6 4.4-8.3 4.1 1.2 1.3 6-1.2 9.4zM160 665.9c-.1 2.6-.4 4.7-.4 4.7l-3.4-3c-3.1-3.3-6.5-8.2-1.7-11.2 5-3.1 5.6 4.2 5.5 9.5zM176.2 669.3a17.7 17.7 0 01-9.6 6.4l-3.3-4.6c.4-1.5.8-3 1.4-4.4.5-1.5 1.3-3 2.2-4.3 4.5-6 13.7.9 9.3 7z"/>
    <path fill="#000" d="M116.4 666.4l2.3 2.8-2.8 8s-1.5-1-3.4-2.7c.4-2.6 1.5-5 3-7l1-1.1zM124.5 664.6a38 38 0 01-2.7 3.2 39 39 0 01-.5-4.3c1.2 0 2.3.4 3.2 1.1z" opacity=".1"/>
    <path fill="#EF5B59" d="M138 696.6l-6.8 3-3.6-2.1c-7.2-4.4-21.7-15.5-12-28.7 9.6-13 17.7 10.4 21 22 1 3.4 1.4 5.8 1.4 5.8z"/>
    <path fill="#000" d="M156.2 667.6c1-1 2.4-1.7 3.8-1.7-.1 2.6-.4 4.7-.4 4.7l-3.4-3zM169 674.8l-2.4.9-3.3-4.6c.4-1.5.8-3 1.4-4.4 2 1.2 3.6 4.3 4.3 8.1z" opacity=".1"/>
    <path fill="#EF5B59" d="M152 704.5l-1.1.2c-23 3.5-7.6-8.9-7.6-8.9l2.4-2.5c2.8-3 7-8.4 7.5-13.3.7-7.4 1.5-14.4 10.3-12.4 8.6 2 10.2 32.6-11.5 37z"/>
    <path fill="#D4DFEC" d="M151.6 761.6h-43.8v11.5h43.8v-11.5z"/>
    <path fill="#D4DFEC" d="M158 724.2h-57.2v40.2h57.3v-40.2z"/>
    <path fill="#000" d="M151.6 761.6h-43.8v11.5h43.8v-11.5z" opacity=".1"/>
    <path fill="#000" d="M158 724.2h-57.2v40.2h57.3v-40.2z" opacity=".1"/>
    <path fill="#D4DFEC" d="M154.5 761.6h-43.8v11.5h43.8v-11.5z"/>
    <path fill="#000" d="M136.6 690.8c1 3.4 1.4 5.8 1.4 5.8l-6.8 3-3.6-2.1c2.6-3.4 5.7-6 9-6.7zM152 704.5l-1.1.2c-23 3.5-7.6-8.9-7.6-8.9l2.4-2.5c4.3 3.5 6.1 7.3 6.3 11.2z" opacity=".1"/>
    <path fill="#EF5B59" d="M114.8 726.5s12.8-46 30.8-31.9c18 14.3-7.3 36-7.3 36l-23.6-4.1z"/>
    <path fill="#000" d="M121.2 677.5a1.4 1.4 0 100-2.9 1.4 1.4 0 000 2.9zM121.1 684.2a1.4 1.4 0 100-2.9 1.4 1.4 0 000 3zM162.9 678.8a1.4 1.4 0 100-2.9 1.4 1.4 0 000 3zM129.3 713.3a1.4 1.4 0 100-3 1.4 1.4 0 000 3zM159.9 690a1.4 1.4 0 100-3 1.4 1.4 0 000 3zM145 704.9a1.4 1.4 0 100-3 1.4 1.4 0 000 3zM126.2 680.4a1.4 1.4 0 100-3 1.4 1.4 0 000 3zM159 683.1a1.4 1.4 0 100-2.9 1.4 1.4 0 000 3zM154 694.3a1.4 1.4 0 100-2.9 1.4 1.4 0 000 2.9zM138.9 712.2a1.4 1.4 0 100-3 1.4 1.4 0 000 3zM135.8 705a1.4 1.4 0 100-2.8 1.4 1.4 0 000 2.9zM128.3 689.1a1.4 1.4 0 100-2.9 1.4 1.4 0 000 3zM154.5 761.6h-43.8v4.2h43.8v-4.2z" opacity=".1"/>
    <path fill="#D4DFEC" d="M161 724.2h-57.3v40.2H161v-40.2z"/>
    <path fill="#000" d="M140.8 718.6a1.4 1.4 0 100-2.8 1.4 1.4 0 000 2.9zM132.2 720.5a1.4 1.4 0 100-3 1.4 1.4 0 000 3z" opacity=".1"/>
    <path fill="#E8EAF2" d="M631.1 396.7c0 4.4-9.3 9.5-20.8 9.5s-20.8-5.1-20.8-9.5c0-4.3 9.3-6.3 20.8-6.3s20.9 2 20.9 6.3z"/>
    <path fill="#000" d="M631.1 396.7c0 4.4-9.3 9.5-20.8 9.5s-20.8-5.1-20.8-9.5c0-4.3 9.3-6.3 20.8-6.3s20.9 2 20.9 6.3z" opacity=".1"/>
    <path fill="#E8EAF2" d="M610.3 404.6c11.5 0 20.9-3.5 20.9-7.9 0-4.3-9.4-7.8-20.9-7.8-11.5 0-20.8 3.5-20.8 7.8 0 4.4 9.3 7.9 20.8 7.9z"/>
    <path fill="#000" d="M610.3 401.2c6.5 0 11.8-2 11.8-4.5 0-2.4-5.3-4.4-11.8-4.4-6.5 0-11.8 2-11.8 4.4 0 2.5 5.3 4.5 11.8 4.5z" opacity=".1"/>
    <path fill="#FFD7E3" d="M627.4 387.3c-2 5.1-5.1 6.6-7.6 7-1.2.1-2.4 0-3.6-.4l1.4-3c1 .2 2 .2 2.8 0 1.3-.5 2.7-1.5 3.7-4 1.5-4-.4-4.6-1.7-4.5h-.8l1.1-2.4 1.1-.2c2.2-.2 6.4.2 3.6 7.5z"/>
    <path fill="#F1CEC8" d="M618.2 398c-8.2 4.3-16.1 0-16.1 0l.1-1.1v-1l15.8-.2v1.4l.2 1z"/>
    <path fill="#000" d="M620.4 390.8c0 1.1-.3 2.3-.6 3.4-1.2.2-2.4 0-3.6-.3l1.4-3.1c1 .3 2 .3 2.8 0zM623.8 379.8c0 .3-.2.6-.4.9l-.1.1-1 1.6h-.7l1.1-2.4 1.1-.2zM618 397c-2.7 1.6-13.1 2-15.8-.1v-1l15.8-.2v1.4z" opacity=".1"/>
    <path fill="#FFD7E3" d="M623.1 380.7l-.1.1c-1.6 2.3-2.5 5-2.7 7.7-.4 6.7-1.4 7.4-1.6 7.7-.8 2-14.8 2.8-16.9 0-1.7-2.4-3.4-7.5-2.6-10.3.4-1.6-.5-3.3-1.4-4.5a3.5 3.5 0 011-5c4-2.5 11-2.7 11-2.7 6-.4 9.8.7 12.1 2l.3.2a3.4 3.4 0 01.9 4.8z"/>
    <path fill="#000" d="M610 382.5c6 0 10.7-1 10.7-2.5 0-1.4-4.7-2.5-10.6-2.5-5.9 0-10.6 1.1-10.6 2.5s4.7 2.5 10.6 2.5z" opacity=".1"/>
    <path fill="#42312E" d="M610 382.8c6 0 10.7-1 10.7-2.5 0-1.4-4.7-2.5-10.6-2.5-5.9 0-10.6 1.1-10.6 2.5s4.7 2.5 10.6 2.5z"/>
    <path fill="#fff" d="M612.3 378.7s-7.6.3-7.4 3c2.2-1.5 4.8-2.5 7.4-3zM614.5 379.4s-4.6 0-3.9 2.3c0 0 1.1-.2 1-.7-.2-.6 2.9-1.2 2.9-1.2v-.4z" opacity=".2"/>
    <path fill="#F6E2DF" d="M598.3 378.7s-.3 4.7 11.6 4.5c11.9-.3 11.8-3.4 12-4.5h-.7s-.1 3.9-11.1 3.8c-11-.1-11.3-3.8-11.3-3.8h-.5z"/>
    <path fill="#000" d="M623.6 378l-7.2 3.8a.7.7 0 01-.8-.2l-.1-.1a.9.9 0 01-.2-.7.9.9 0 01.4-.6l6.5-4.2c.7.5 1.2 1.2 1.4 2z" opacity=".1"/>
    <path fill="#E8EAF2" d="M615.7 380l18.6-11.9c.4-.2 1-.4 1.4-.4 1 0 2.3.1 1.9 1.6a2.8 2.8 0 01-1.4 1.8l-19.8 10.5a.7.7 0 01-.8-.2l-.1-.1a.9.9 0 01.2-1.3z"/>
    <path fill="#000" d="M615.7 380l18.6-11.9c.4-.2 1-.4 1.4-.4 1 0 2.3.1 1.9 1.6a2.8 2.8 0 01-1.4 1.8l-19.8 10.5a.7.7 0 01-.8-.2l-.1-.1a.9.9 0 01.2-1.3z" opacity=".1"/>
    <path fill="#E8EAF2" d="M615.7 379.8l18.6-11.8c.4-.3 1-.4 1.4-.5 1 0 2.3.2 1.9 1.7a2.8 2.8 0 01-1.4 1.7l-19.8 10.5a.7.7 0 01-.8-.1l-.1-.2a.9.9 0 01.2-1.3z"/>
    <path fill="#000" d="M614.6 380.1s2-.4 1.8.1c-.3.6.8 1.2.8 1.2s-2 .5-2.4.2c-.3-.3-.2-1.5-.2-1.5z" opacity=".1"/>
    <path fill="#42312E" d="M614.5 380.3s2-.4 1.7 0c-.3.6.9 1.3.9 1.3s-2 .5-2.4.2c-.3-.3-.2-1.5-.2-1.5z"/>
    <path fill="#F2DCDC" d="M611.3 359.5c-.8 1-1.5 2-1.8 3.3-.1 1.2 0 2.3.2 3.5 0 .8.2 1.5.4 2.3 0 .4.4 1 .6.6 0-1-.3-2.1-.2-3.2 0-1.1.4-2.2 1-3.2l1.4-2.8c.1-.4.7-4.7-.1-4-.2.2-.4 1.6-.5 2a7 7 0 01-1 1.5zM611.7 366.5c0 .4.4.7.5 1l.1.8c.3 1.2 0 2.4-.5 3.5a2.4 2.4 0 001.4-1.8l.1-1.2v-1.2c0-.6.2-2.1-.5-2.4-.8-.3-1.1.7-1.1 1.3z"/>
    <path fill="#000" d="M599.3 385a4.5 4.5 0 003.5 1.6s-2.5.3-3.6-.5l.1-1z" opacity=".1"/>
    <path fill="#464A5F" d="M391.6 341v48.3l-49.9 1.4v-48.2l50-1.4z"/>
    <path fill="#000" d="M391.4 383.3l.3 7.4h-50v-4.6l49.7-2.9z" opacity=".1"/>
    <path fill="#464A5F" d="M407 391.6l-77.8 3a7.6 7.6 0 017.6-7.7l62.5-2.9a7.6 7.6 0 017.6 7.6zM505.1 340.3l-275.4 8.6a4.8 4.8 0 01-4.8-4.8V178.6a4.8 4.8 0 014.8-4.8l275.4-8.7a4.8 4.8 0 014.9 4.9v165.4a4.8 4.8 0 01-4.9 4.9z"/>
    <path fill="#EF5B59" d="M503.4 328.6l-272.5 8.7v-143l272.5-8.7v143z"/>
    <path fill="#fff" d="M366.6 182.5c1.4 0 2.4-1 2.4-2.4 0-1.3-1-2.3-2.4-2.3-1.3 0-2.4 1-2.4 2.3 0 1.3 1.1 2.4 2.4 2.4z"/>
    <path fill="#000" d="M391.6 348.5l-49.8 1.4v-1l49.8-1.4v1z" opacity=".1"/>
    <path fill="#000" d="M503.5 190.3L231 198.9v-5l272.6-8.6v5z" opacity=".2"/>
    <path fill="#464A5F" d="M80.7 386.7l2.7 4.8 86.2-18.3-3.4-5.4-85.5 19z"/>
    <path fill="#464A5F" d="M70.4 391.4l-13-77.5a2.5 2.5 0 012.1-2.8l99-10.6a2.5 2.5 0 012.7 2.1l9.3 67.9-100.1 20.9z"/>
    <path fill="#000" d="M70.4 391.4l-13-77.5a2.5 2.5 0 012.1-2.8l99-10.6a2.5 2.5 0 012.7 2.1l9.3 67.9-100.1 20.9z" opacity=".1"/>
    <path fill="#464A5F" d="M71.9 391.4l-13-77.5a2.5 2.5 0 012.1-2.8l99-10.6a2.5 2.5 0 012.7 2.1l9.3 67.9-100.1 20.9z"/>
    <path fill="#EF5B59" d="M65.7 317.4l10.7 65.8 89.5-18.4-8.3-58.5-91.9 11.1z"/>
    <path fill="#9C9CA1" d="M82.9 390l-.7-1.2-11.8 2.6 30.2 46.1a3.9 3.9 0 004.3 1.6l106-30.8a3.9 3.9 0 001.3-6.8l-41-31.1-8.7 2 .4.8L83 390z"/>
    <path fill="#000" d="M82.9 390l-.7-1.2-11.8 2.6 30.2 46.1a3.9 3.9 0 004.3 1.6l106-30.8a3.9 3.9 0 001.3-6.8l-41-31.1-8.7 2 .4.8L83 390z" opacity=".1"/>
    <path fill="#9C9CA1" d="M84.4 390l-.7-1.2-11.8 2.6 30.2 46.1a4 4 0 004.3 1.6l106-30.8a3.9 3.9 0 001.3-6.8l-41-31.1-8.6 2 .3.8-80 16.8z"/>
    <path fill="#000" d="M131.7 409l34-9a.7.7 0 01.6.2l15.2 13.7a.7.7 0 01.2.7.7.7 0 01-.5.5l-36 10.6a.7.7 0 01-.7-.2L131.3 410l-.1-.3a.7.7 0 01.2-.6l.3-.2z" opacity=".1"/>
    <path fill="#939498" d="M132.4 408.2l34-9a.7.7 0 01.7.2l15.1 13.7a.7.7 0 01.2.7.7.7 0 01-.4.5l-36 10.6a.7.7 0 01-.7-.2L132 409.3a.6.6 0 01-.2-.7.6.6 0 01.5-.4z"/>
    <g fill="#000" opacity=".1">
      <path d="M84.4 396.4L86 399l.1.1h.2l5.1-1.1a.3.3 0 00.3-.2.3.3 0 000-.3l-1.8-2.3a.3.3 0 00-.3-.2l-5 1.1h-.1a.3.3 0 00-.1.3v.1zM91.2 395l1.5 2.5.1.1h.2l5.2-1.1a.3.3 0 00.2-.5l-1.8-2.4h-.3l-5 1a.3.3 0 00-.1.2.3.3 0 000 .2zM97.7 393.6l1.6 2.5h.1l.2.1 5.1-1.1.2-.1a.3.3 0 000-.4l-1.7-2.3a.3.3 0 00-.3-.2l-5 1.1a.3.3 0 00-.2.3v.1zM104.2 392.3l1.5 2.4.1.1h.2l5.1-1.1a.3.3 0 00.3-.2.3.3 0 000-.3l-1.8-2.3-.1-.1h-.2l-5 1a.3.3 0 00-.1.2.3.3 0 000 .3zM103.7 396l1.5 2.4a.3.3 0 00.3.2l5.2-1.2.2-.2v-.1-.1l-1.8-2.4a.3.3 0 00-.3-.1l-5 1v.1l-.2.1a.3.3 0 000 .3zM97 397.4l1.5 2.5h.1c.1.1.2.1.2 0l5.2-1 .1-.1v-.1l.1-.2v-.1l-1.8-2.4v-.1h-.3l-5 1v.1a.3.3 0 00-.2.3v.1zM101.3 400.4l1.6 2.5a.3.3 0 00.3.1l5.1-1.1.2-.1v-.1-.2l-1.7-2.5h-.1c0-.1-.2-.1-.2 0l-5 1h-.1l-.1.2v.2zM107.5 403l1.5 2.5.1.1h.2l5.2-1a.3.3 0 00.2-.5l-1.8-2.4a.3.3 0 00-.3-.1l-5 1-.1.2a.3.3 0 000 .3zM108.5 407.4l2.5 3a.3.3 0 00.3.2l5.2-1.4h.1a.3.3 0 00.1-.3v-.2l-2.6-3a.3.3 0 00-.3-.2l-5.1 1.4h-.1a.3.3 0 000 .5zM115.3 405.6l2.6 3.2a.3.3 0 00.3.1l6.8-1.8v-.1a.3.3 0 00.1-.4l-2.5-3.1a.3.3 0 00-.4-.1l-6.7 1.8a.3.3 0 00-.2.2.3.3 0 000 .3zM101.9 409l2.5 3 .1.2h.2l5.2-1.4a.3.3 0 00.2-.2.3.3 0 000-.2l-2.6-3.1-.2-.1h-.1l-5.2 1.4a.3.3 0 00-.1.1v.2zM94.9 410.8l2.4 3.1.2.1h.1l5.2-1.3.2-.1a.3.3 0 000-.4l-2.6-3.1a.3.3 0 00-.3-.1l-5 1.4a.3.3 0 00-.2.4zM110.6 390.7l1.6 2.4a.3.3 0 00.3.2l5.1-1.2a.3.3 0 00.2-.2.3.3 0 000-.3l-1.7-2.3-.1-.1h-.2l-5 1a.3.3 0 00-.2.2.3.3 0 000 .3zM110.2 394.5l1.5 2.4a.3.3 0 00.4.2l5-1.2h.2a.3.3 0 00.1-.3v-.2l-1.7-2.3a.3.3 0 00-.3-.1l-5 1a.3.3 0 00-.2.4zM117 389.3l1.4 2.4.2.1h.2l5-1.1h.2a.3.3 0 000-.5l-1.6-2.3-.2-.1h-.1l-5 1a.3.3 0 00-.2.2.3.3 0 000 .3zM135.3 385.3l2 2.2a.3.3 0 00.3.1l4.6-1 .1-.1a.2.2 0 000-.3l-2.4-2.3a.2.2 0 00-.2-.1l-4.3 1-.1.1-.1.1a.3.3 0 000 .3zM141.1 384l2.1 2.2a.2.2 0 00.3 0l4.6-1a.3.3 0 00.1-.2.2.2 0 000-.2l-2.4-2.3a.3.3 0 00-.3 0l-4.3 1-.1.2a.2.2 0 000 .2zM135.4 389l2.1 2.2a.2.2 0 00.3 0l4.5-1h.1a.3.3 0 00.1-.2v-.2l-2.4-2.2h-.2c0-.1 0-.1 0 0l-4.4 1a.3.3 0 00-.1.3zM129.3 390.3l2 2.2a.3.3 0 00.3 0l4.5-1a.3.3 0 00.1-.4l-2.3-2.2h-.1-.2l-4.2 1a.3.3 0 00-.2.1v.2l.1.1zM134 397.1l2 2.2a.3.3 0 00.2.1l4.5-1h.1l.1-.2a.3.3 0 000-.3l-2.4-2.2a.3.3 0 00-.3 0l-4.1 1a.3.3 0 00-.2.2v.2zM127.7 398.6l2 2.1a.3.3 0 00.3.1l4.4-1a.3.3 0 00.2-.2.3.3 0 000-.3l-2.3-2.2a.3.3 0 00-.3 0l-4.1 1h-.2a.3.3 0 00-.1.3v.2zM121.3 400.1l2 2.2a.3.3 0 00.3 0l4.5-1a.3.3 0 00.2-.1v-.2l-.1-.1-2.3-2.2h-.1c0-.1-.1 0-.2 0l-4.1 1a.3.3 0 00-.3.3l.1.1zM114.6 401.5l2 2.2a.3.3 0 00.3 0l4.5-1a.3.3 0 00.1-.4l-2.3-2.2a.3.3 0 00-.3-.1l-4.2 1h-.1l-.1.2V401.5zM127.6 394.6l2 2.2H129.9l4.4-1h.2v-.1-.2-.1l-2.3-2.2a.3.3 0 00-.3 0l-4.2 1a.3.3 0 00-.2.1.3.3 0 00.1.3zM121.5 396l2 2.2a.3.3 0 00.3.1l4.4-1a.3.3 0 00.2-.2.3.3 0 000-.3l-2.3-2.2a.3.3 0 00-.3 0l-4.2 1a.3.3 0 00-.2.2.3.3 0 000 .3zM115 397.4l2 2.2h.2l4.5-1a.3.3 0 00.2-.1v-.2l-.1-.2-2.3-2.1a.3.3 0 00-.3 0l-4.1 1h-.2v.4zM108.2 399l2 2.2a.3.3 0 00.4 0l4.4-1h.2v-.1a.3.3 0 000-.3l-2.3-2.2-.2-.1h-.1l-4.2 1a.3.3 0 00-.2.4zM134 393.1l2 2.2.2.1 4.4-1a.3.3 0 00.3-.2.3.3 0 00-.1-.3l-2.3-2.2a.3.3 0 00-.3 0l-4.2 1h-.1v.4zM123.2 392l2 2 .2.2h.1l4.4-1a.3.3 0 00.3-.4l-.1-.2-2.3-2.1a.3.3 0 00-.3-.1l-4.2 1a.3.3 0 00-.2.2.3.3 0 00.1.3zM146.8 382.5l2.2 2.4h.2l4.7-1a.2.2 0 000-.4l-2.4-2.4h-.1l-4.5 1a.2.2 0 00-.2.2.2.2 0 000 .2zM152.5 381.3l2.2 2.3c.1 0 .2.1.2 0l4.7-1a.2.2 0 00.1-.3l-2.5-2.4h-.2l-4.4 1.1a.2.2 0 00-.1.3zM158.3 379.9l2 2.2h.2l4.4-1.2h.1v-.1-.1l-2.3-2a.2.2 0 00-.1 0l-4.2 1h-.1v.1zM164.5 382l2 2.1c.1.1.1.1.2 0l4.4-1.1a.2.2 0 000-.3l-2.2-2h-.1l-4.2 1h-.1a.2.2 0 000 .2zM163.8 386l1.9 2a.2.2 0 00.2 0l4.3-1a.3.3 0 00.1-.3v-.1-.1l-2.2-1.8h-.2l-4 .8a.2.2 0 00-.2.4zM158.7 391l2 2v.2h.2l4.3-1.2.1-.2v-.1-.1l-2.2-1.9h-.1-.1l-4 .9a.2.2 0 00-.2.4zM152.7 392.6l2 2v.1h.2l4.2-1.1a.3.3 0 00.2-.2.3.3 0 000-.3l-2.2-1.8h-.1-.1l-4 .9a.2.2 0 00-.2.4zM164.4 389.5l2 2.1h.2l4.2-1 .2-.1v-.2-.1-.1l-2.2-1.8a.3.3 0 00-.2 0l-4 .8h-.2a.3.3 0 000 .3v.1zM163.4 394l3 2.6c.1.1.1.1.2 0l4.2-1.1h.1v-.2-.1-.1l-3.2-2.8a.2.2 0 00-.2 0l-4 1.3a.2.2 0 000 .4zM153.2 384.8l2 2.2h.2l4.4-1.2h.1a.2.2 0 000-.2v-.1l-2.3-2h-.1l-4.2 1v.1a.2.2 0 000 .2zM147.6 386.2l1.9 2a.3.3 0 00.2.1l4.3-1.1a.3.3 0 000-.5l-2-1.8h-.2-.1l-4 .9h-.1v.1a.3.3 0 000 .3zM146.4 390.2l2 2v.1h.2l4.2-1.1a.3.3 0 00.2-.2v-.1-.1l-2.2-1.9h-.1-.1l-4 .9a.3.3 0 00-.2.4zM140.4 391.7l2 2a.3.3 0 00.2.1l4.2-1.1a.2.2 0 00.2-.2v-.2l-2.2-1.9h-.1-.2l-4 .8v.1l-.2.1a.3.3 0 000 .3zM141.5 387.5l1.9 2.1h.1c0 .1.1.1.2 0l4.2-1a.2.2 0 00.2-.3l-.1-.2-2.2-1.8a.2.2 0 00-.2 0l-4 .8h-.1a.2.2 0 000 .4zM146.5 394l2 2c0 .1.1.1.2 0l4.2-1 .1-.1v-.2-.2l-2.2-1.8h-.2l-4 .8a.3.3 0 00-.1.4zM140.6 395.5l1.8 2 .2.1h.1l4.1-1.1a.3.3 0 00.1-.6l-2-1.7a.3.3 0 00-.2 0l-3.9.8a.3.3 0 00-.2.2.3.3 0 000 .3zM159 383.3l2 2.2h.2l4.4-1.1h.1v-.2-.1l-2.3-2h-.1l-4.2 1a.2.2 0 000 .2zM158.2 387.3l2 2v.1h.2l4.3-1.1a.2.2 0 00.1-.2v-.2l-2.2-1.9a.3.3 0 00-.2 0l-4 .9h-.1a.3.3 0 000 .4zM152.5 388.9l1.9 2 .1.1h.2l4.2-1.1.1-.1v-.1-.2l-2.2-1.9a.3.3 0 00-.2 0l-4 .8-.1.1v.1c-.1 0-.1.1 0 .1v.2zM129.3 386.6l2 2.2.2.1h.1l4.6-1 .1-.1v-.1c.1 0 .1-.1 0-.2l-2.4-2.3v-.1h-.2l-4.3 1-.1.1v.1c-.1 0-.1.1 0 .2zM123.2 388l2 2.2a.3.3 0 00.3.1l4.4-1h.1a.3.3 0 000-.5l-2.3-2.2a.3.3 0 00-.3 0l-4.1 1a.3.3 0 00-.1.5zM116.6 393.1l1.5 2.5a.3.3 0 00.4.1l5-1.1a.3.3 0 00.3-.2.3.3 0 000-.3l-1.7-2.4a.3.3 0 00-.3-.1l-5 1a.3.3 0 00-.2.2.3.3 0 000 .3zM83.1 394l5-1.1a.3.3 0 01.4 0l.9 1.3a.3.3 0 010 .3l-.2.1-5.2 1.2a.3.3 0 01-.4-.1l-.7-1.2a.3.3 0 01.1-.4h.1zM90 392.5l5-1.1h.4l.9 1.2a.3.3 0 010 .3v.1l-.2.1-5.2 1.2a.3.3 0 01-.4-.1l-.7-1.2a.3.3 0 01.1-.4h.2zM96.8 391l5-1a.3.3 0 01.3 0l1 1.2V391.5a.3.3 0 01-.3.2l-5.2 1.2h-.2l-.1-.2-.7-1.2a.3.3 0 010-.2.3.3 0 01.2-.2zM103.3 389.6l5-1.2a.3.3 0 01.4.1l.9 1.2v.1a.3.3 0 01-.2.4l-5.2 1.2h-.2l-.2-.1-.7-1.3v-.1a.3.3 0 01.2-.3zM110 388.1l5-1.1H115.3l.9 1.2a.3.3 0 010 .3v.1l-.2.1-5.2 1.2a.3.3 0 01-.4-.1l-.7-1.2a.3.3 0 01.3-.5zM116.4 386.8l5-1.2a.3.3 0 01.3.1l.9 1.2a.3.3 0 010 .4h-.2l-5.2 1.3a.3.3 0 01-.3-.2l-.7-1.2v-.1a.3.3 0 010-.3h.2zM122.7 385.5l4.7-1.2a.3.3 0 01.3.1l.9 1a.3.3 0 010 .3.3.3 0 01-.2.2l-4.6 1.1a.3.3 0 01-.3 0l-1-1a.3.3 0 01.2-.5zM128.9 384l4.7-1.1h.2l1 1.1.2.1a.2.2 0 01-.1.3h-.1l-4.7 1.2h-.2l-1.1-1.1a.3.3 0 010-.4zM135 382.6l4.8-1.2h.1l.1.1 1 1a.3.3 0 01-.1.4l-4.7 1.2h-.1-.2l-1-1.1a.2.2 0 010-.2v-.1h.1zM141.1 381.4l4.8-1.2a.3.3 0 01.2 0l1 1.1v.1a.3.3 0 01-.1.3l-4.7 1.2h-.1-.1l-1-1.1a.3.3 0 010-.4zM147 380l4.8-1.2a.2.2 0 01.2 0l1.1 1.2v.2l-5 1.3a.2.2 0 01-.1 0l-1.2-1.2v-.1a.2.2 0 01.1-.2zM152.8 378.7l4.9-1.2h.2l1 1.2.1.1v.1l-.1.1-4.9 1.3a.2.2 0 01-.2 0l-1.1-1.3a.2.2 0 010-.3zM158.6 377.4l4.6-1h.2l.8 1.1V377.8l-4.3 1.1a.2.2 0 01-.2 0l-1.2-1.2a.2.2 0 010-.3h.1zM164.2 376l4.6-1 .1.1 1 1.1v.1a.2.2 0 01-.2.2l-4.3 1.2h-.1l-1.2-1.3a.2.2 0 010-.3h.1zM86.7 400l1.6 2.4a.3.3 0 00.3.2l8.8-2a.3.3 0 00.2-.4v-.1l-1.9-2.5a.3.3 0 00-.3 0l-8.6 2a.3.3 0 00-.2.3v.2zM89.3 403.3l1.7 2.6a.3.3 0 00.3.2l10.6-2.6h.1l.1-.1a.3.3 0 000-.3l-2.1-2.6-.2-.1h-.1l-10.2 2.4a.3.3 0 00-.2.5zM91.7 406.8l2 2.9h.1l.2.1 14-3.5h.1l.1-.2v-.1-.1l-2.3-3a.3.3 0 00-.3 0l-13.8 3.4a.3.3 0 00-.2.4h.1zM123.8 403.6l2.5 3.1a.3.3 0 00.3.1l30.8-7.7a.3.3 0 00.3-.2.3.3 0 00-.1-.3l-3.2-3.1a.3.3 0 00-.3-.1l-30.2 7.7a.3.3 0 00-.2.2.3.3 0 000 .3zM155.6 395.7l3 3a.3.3 0 00.2 0l6.3-1.7h.1a.2.2 0 000-.4l-3.1-3a.3.3 0 00-.3-.1l-6.1 1.8h-.1v.1c-.1 0-.1.1 0 .2zM170.8 393.8l1.4 1.4a.2.2 0 00.2 0l4.6-1.2h.1v-.1-.1-.1l-1.7-1.6a.2.2 0 00-.1 0l-4.4 1.4a.2.2 0 00-.1.1.2.2 0 000 .2zM174.8 390.6l1.6 1.8a.2.2 0 00.2 0l4.3-1.5a.2.2 0 00.1-.1v-.1l-1.7-1.5h-.1l-4.4 1.2v.2z" opacity=".1"/>
      <path d="M178 393.6l-1.2-1h-.1v-.1a.2.2 0 010-.2l4.3-1.5a.2.2 0 01.2 0l1.4 1.3v.1a.2.2 0 010 .2h-.1l-4.4 1.2h-.2zM182.3 391l1.3 1.3a.2.2 0 00.2 0l4.4-1.2a.2.2 0 00.1-.3l-1.6-1.4a.2.2 0 00-.2 0l-4 1.3h-.2a.2.2 0 000 .2zM169.8 388.2l2.4 2.3h.2l11.5-3a.2.2 0 000-.3l-2.7-2.3a.2.2 0 00-.2 0l-11 3h-.2V388.2zM169 384.6l2.5 2.2a.2.2 0 00.2 0l8.6-2h.1v-.1a.2.2 0 000-.2l-2.8-2.4h-.1-.1l-8.3 2.2-.1.1v.2zM169.8 380.9l2.4 2h.1l4.5-1a.2.2 0 000-.3l-2.7-2.3a.2.2 0 00-.2 0l-4 1.3h-.1v.2zM163.8 378.8l2.2 2a.2.2 0 00.2 0l7-1.6.1-.2a.2.2 0 000-.2l-2.7-2.2a.2.2 0 00-.2 0l-6.6 1.9a.2.2 0 000 .2z" opacity=".1"/>
    </g>
    <path fill="#464A5F" d="M84.4 395.7l1.6 2.5a.3.3 0 00.3 0l5.1-1 .2-.1a.3.3 0 000-.3v-.1l-1.7-2.4a.3.3 0 00-.3-.2l-5 1.1a.3.3 0 00-.2.2.3.3 0 000 .3zM91.2 394.3l1.5 2.4a.3.3 0 00.3.2l5.2-1.2a.3.3 0 00.2-.2.3.3 0 000-.2l-1.8-2.4-.1-.1h-.2l-5 1a.3.3 0 00-.1.5zM97.7 392.9l1.6 2.4.1.1h.2l5.1-1.1a.3.3 0 00.3-.2.3.3 0 000-.3l-1.8-2.3-.1-.1h-.2l-5 1h-.1a.3.3 0 00-.1.3v.2zM104.2 391.5l1.5 2.4a.3.3 0 00.3.1l5.1-1.1a.3.3 0 00.3-.2.3.3 0 000-.3l-1.8-2.3a.3.3 0 00-.3-.2l-5 1a.3.3 0 00-.1.3.3.3 0 000 .3zM103.7 395.3l1.5 2.4a.3.3 0 00.3.2l5.2-1.2a.3.3 0 00.2-.2.3.3 0 000-.2l-1.8-2.4-.1-.1h-.2l-5 1v.1a.3.3 0 00-.1.4zM97 396.6l1.5 2.5a.3.3 0 00.3.1l5.2-1.1a.3.3 0 00.2-.2v-.1-.2l-1.8-2.3a.3.3 0 00-.3-.2l-5 1.1a.3.3 0 00-.2.3v.1zM101.3 399.7l1.6 2.4v.1h.3l5.1-1a.3.3 0 00.2-.3v-.1-.2l-1.7-2.3a.3.3 0 00-.3-.1l-5 1a.3.3 0 00-.2.2.3.3 0 000 .3zM107.5 402.3l1.5 2.4.1.2h.2l5.2-1.2a.3.3 0 00.2-.4l-1.8-2.4v-.1h-.3l-5 1a.3.3 0 00-.1.2.3.3 0 000 .3zM108.5 406.6l2.5 3a.3.3 0 00.3.2l5.2-1.4a.3.3 0 00.2-.2.3.3 0 000-.2l-2.6-3.1-.1-.1h-.2l-5.1 1.3a.3.3 0 00-.2.2V406.6zM115.3 404.9l2.6 3.2a.3.3 0 00.3 0l6.8-1.8a.3.3 0 00.1-.5l-2.5-3a.3.3 0 00-.4-.2l-6.7 1.8a.3.3 0 00-.2.5zM101.9 408.3l2.5 3 .1.2h.2l5.2-1.4a.3.3 0 00.2-.2.3.3 0 000-.3l-2.6-3-.2-.2h-.1l-5.2 1.4-.2.2a.3.3 0 000 .3zM94.9 410l2.4 3.2H97.6l5.2-1.3h.2a.3.3 0 000-.5l-2.6-3a.3.3 0 00-.3-.2l-5 1.4a.3.3 0 00-.3.2.3.3 0 000 .3zM110.6 390l1.6 2.4a.3.3 0 00.3.1l5.1-1.1a.3.3 0 00.2-.2.3.3 0 000-.3l-1.7-2.4a.3.3 0 00-.3 0l-5 1h-.1l-.1.2a.3.3 0 000 .3zM110.2 393.7l1.5 2.5a.3.3 0 00.4.1l5-1.1.2-.1.1-.1a.3.3 0 000-.3l-1.7-2.4a.3.3 0 00-.3-.1l-5 1-.1.1-.1.2a.3.3 0 000 .2zM117 388.5l1.4 2.5h.2l.2.1 5-1.1a.3.3 0 00.3-.2v-.2-.1l-1.7-2.4a.3.3 0 00-.3-.1l-5 1-.1.1-.1.1a.3.3 0 000 .3zM135.3 384.5l2 2.3a.2.2 0 00.3 0l4.6-1a.2.2 0 00.2-.2v-.1-.1l-2.5-2.3h-.1-.1l-4.3 1h-.1l-.1.2a.3.3 0 000 .2zM141.1 383.2l2.1 2.2a.3.3 0 00.3.1l4.6-1a.3.3 0 00.1-.2.2.2 0 000-.3l-2.4-2.2-.1-.1h-.2l-4.3 1v.1l-.1.1a.2.2 0 000 .3zM135.4 388.2l2.1 2.3a.3.3 0 00.3 0l4.5-1 .1-.1.1-.1v-.2l-2.5-2.3c-.1-.1-.2-.1-.2 0l-4.3 1h-.1a.3.3 0 000 .3zM129.3 389.6l2 2.1a.3.3 0 00.3.1l4.5-1a.3.3 0 00.2-.2.3.3 0 00-.1-.3l-2.3-2.2a.3.3 0 00-.3 0l-4.2 1a.3.3 0 00-.2.4h.1zM134 396.4l2 2.2h.2l4.5-1h.1v-.2c.1 0 .1-.1 0-.2v-.1l-2.3-2.2a.3.3 0 00-.3 0l-4.1 1h-.2v.2a.3.3 0 000 .3zM127.7 397.8l2 2.2a.3.3 0 00.3 0l4.4-1h.1a.3.3 0 000-.5l-2.2-2.2h-.1-.2l-4.1 1a.3.3 0 00-.2.5zM121.3 399.4l2 2.2a.3.3 0 00.3 0l4.5-1h.1v-.2c.1 0 .1 0 0-.1v-.2l-2.3-2.2a.3.3 0 00-.3 0l-4.1 1a.3.3 0 00-.2.4zM114.6 400.7l2 2.2a.3.3 0 00.3 0l4.5-1h.1a.3.3 0 000-.3v-.1l-2.3-2.2a.3.3 0 00-.3-.1l-4.2 1a.3.3 0 00-.2.2.3.3 0 000 .3zM127.6 393.9l2 2.1a.3.3 0 00.3.1l4.4-1a.3.3 0 00.2-.2.3.3 0 000-.3l-2.3-2.2a.3.3 0 00-.3 0l-4.2 1a.3.3 0 00-.2.3l.1.2zM121.5 395.3l2 2.1a.3.3 0 00.3.1l4.4-1h.2v-.2a.3.3 0 000-.3l-2.3-2.2a.3.3 0 00-.3 0l-4.2 1a.3.3 0 00-.2.3v.2zM115 396.7l2 2.1a.3.3 0 00.2.1l4.5-1h.1v-.2c.1 0 .1-.1 0-.2v-.1l-2.3-2.2a.3.3 0 00-.3 0l-4.1 1a.3.3 0 00-.2.5zM108.2 398.3l2 2.2h.4l4.4-1a.3.3 0 00.3-.2v-.1l-.1-.2-2.3-2.1a.3.3 0 00-.3-.1l-4.2 1h-.2a.3.3 0 000 .3v.2zM134 392.4l2 2.2a.3.3 0 00.2 0l4.4-1h.2v-.2a.3.3 0 000-.3l-2.3-2.2a.3.3 0 00-.3 0l-4.2 1a.3.3 0 00-.2.4h.1zM123.2 391.2l2 2.1.2.1h.1l4.4-1a.3.3 0 00.3-.2.3.3 0 00-.1-.3l-2.3-2.2h-.1-.2l-4.2 1a.3.3 0 000 .5zM146.8 381.7l2.2 2.4h.2l4.7-1a.2.2 0 000-.4l-2.4-2.3h-.1l-4.5 1h-.1a.2.2 0 000 .3zM152.5 380.5l2.2 2.4h.2l4.7-1a.2.2 0 00.1-.4l-2.5-2.4h-.2l-4.4 1-.1.1v.1a.2.2 0 000 .2zM158.3 379.1l2 2.2h.2l4.4-1.1h.1v-.2-.1l-2.3-2h-.1l-4.2 1a.2.2 0 000 .2zM164.5 381.2l2 2.2h.2l4.4-1.2.1-.1a.2.2 0 000-.2l-2.3-2a.2.2 0 00-.2 0l-4.1 1h-.1a.2.2 0 000 .2zM163.8 385.2l1.9 2a.2.2 0 00.2.1l4.3-1.1v-.1l.1-.1v-.1-.2L168 384a.2.2 0 00-.2 0l-4 .9h-.1v.1a.3.3 0 000 .3zM158.7 390.3l2 2v.1h.2l4.3-1.1a.3.3 0 00.1-.2.3.3 0 000-.3L163 389a.2.2 0 00-.2 0l-4 .9h-.1l-.1.1v.2zM152.7 391.8l2 2.1a.3.3 0 00.2 0l4.2-1 .2-.2v-.2-.1l-2.2-1.8a.2.2 0 00-.2 0l-4 .8h-.1a.3.3 0 000 .4zM164.4 388.8l2 2a.2.2 0 00.2.1l4.2-1.1.1-.1.1-.1a.2.2 0 000-.3l-2.2-1.8h-.1-.1l-4 .9h-.2v.4zM163.4 393.3l3 2.6a.2.2 0 00.2 0l4.2-1.2a.2.2 0 00.2-.1v-.2h-.1l-3.2-2.8a.2.2 0 00-.2 0l-4 1.2a.3.3 0 00-.2.2.3.3 0 00.1.3zM153.2 384l2 2.2h.2l4.4-1.1h.1v-.2-.2l-2.3-1.9h-.1l-4.2 1v.2zM147.6 385.4l1.9 2.1a.2.2 0 00.2 0l4.3-1v-.1l.1-.2a.3.3 0 000-.2l-2.2-1.8h-.2l-4 .9h-.1v.1a.3.3 0 000 .2zM146.4 389.5l2 2v.1h.2l4.2-1.1.1-.1a.3.3 0 000-.4l-2.2-1.8h-.2l-4 .8a.2.2 0 00-.1.5zM140.4 391l2 2h.2l4.2-1a.3.3 0 00.2-.3v-.1-.1l-2.2-1.9a.3.3 0 00-.3 0l-4 .9a.3.3 0 00-.1.4zM141.5 386.8l1.9 2 .1.1h.2l4.2-1.1a.3.3 0 00.2-.2.3.3 0 00-.1-.3l-2.2-1.8h-.2l-4 .9h-.1v.1a.3.3 0 000 .3zM146.5 393.2l2 2v.1h.2l4.2-1.1h.1v-.2-.1-.2l-2.2-1.8a.2.2 0 00-.2 0l-4 1h-.1a.2.2 0 000 .3zM140.6 394.8l1.8 2H142.7l4.1-1a.3.3 0 00.3-.3.3.3 0 00-.2-.3l-2-1.7a.3.3 0 00-.2 0l-3.9.8a.3.3 0 00-.2.5zM159 382.6l2 2.2h.2l4.4-1.2h.1v-.1-.1-.1l-2.3-2a.2.2 0 00-.1 0l-4.2 1v.1a.2.2 0 000 .2zM158.2 386.5l2 2.1h.2l4.3-1v-.1l.1-.2v-.1-.1l-2.2-1.8a.3.3 0 00-.2 0l-4 .8h-.1a.3.3 0 00-.1.3v.1zM152.5 388.1l1.9 2 .1.2h.2l4.2-1.2a.2.2 0 00.2-.2v-.1l-.1-.1-2.2-1.8a.3.3 0 00-.2-.1l-4 .9a.3.3 0 00-.2.1V388.1zM129.3 385.8l2 2.3a.2.2 0 00.3 0l4.6-1h.1v-.2c.1 0 .1 0 0-.1v-.1l-2.4-2.3h-.2l-4.3 1h-.1v.2a.2.2 0 000 .2zM123.2 387.3l2 2.2a.3.3 0 00.3 0l4.4-1h.1l.1-.1a.3.3 0 000-.4l-2.4-2.1v-.1h-.3l-4.1 1a.3.3 0 00-.2.2V387.3zM116.6 392.4l1.5 2.4a.3.3 0 00.4.1l5-1a.3.3 0 00.3-.3v-.1-.2L122 391a.3.3 0 00-.3-.1l-5 1h-.1a.3.3 0 000 .5zM83.1 393.3l5-1.2a.3.3 0 01.4.1l.9 1.2a.3.3 0 010 .4h-.2l-5.2 1.3h-.2l-.2-.2-.7-1.2a.3.3 0 01.1-.4h.1zM90 391.8l5-1.2a.3.3 0 01.4.1l.9 1.2a.3.3 0 010 .4H96l-5.2 1.3a.3.3 0 01-.4-.2l-.7-1.2a.3.3 0 01.1-.4h.2zM96.8 390.3l5-1.1H102.1l1 1.2a.3.3 0 010 .3.3.3 0 01-.3.2l-5.2 1.2a.3.3 0 01-.3-.1l-.7-1.2a.3.3 0 010-.4h.2zM103.3 388.8l5-1.1a.3.3 0 01.3 0l1 1.3a.3.3 0 010 .2.3.3 0 01-.3.2l-5.2 1.2a.3.3 0 01-.3-.1l-.7-1.2v-.2a.3.3 0 01.2-.3zM110 387.4l5-1.2a.3.3 0 01.3.1l.9 1.2v.1a.3.3 0 010 .3h-.2l-5.2 1.3a.3.3 0 01-.4-.2l-.7-1.2a.3.3 0 01.1-.4h.2zM116.4 386l5-1.1H121.7l.9 1.2V386.4a.3.3 0 01-.2.2l-5.2 1.2a.3.3 0 01-.3-.1l-.7-1.2a.3.3 0 010-.4h.2zM122.7 384.7l4.7-1.1a.3.3 0 01.3 0l.9 1a.3.3 0 010 .4.3.3 0 01-.2.2l-4.6 1a.3.3 0 01-.3 0l-1-1v-.2a.3.3 0 01.1-.2h.1zM128.9 383.3l4.7-1.2a.3.3 0 01.3 0l1 1.1a.3.3 0 01-.1.4l-4.7 1.2h-.2l-1.1-1.1a.3.3 0 010-.4zM135 381.9l4.8-1.2a.3.3 0 01.2 0l1 1.1a.3.3 0 01-.1.4l-4.7 1.2h-.1-.2l-1-1.1v-.1-.2l.1-.1zM141.1 380.6l4.8-1.2a.2.2 0 01.2.1l1 1a.2.2 0 010 .4h-.1l-4.7 1.3h-.1l-.1-.1-1-1-.1-.2v-.1-.1l.1-.1zM147 379.2l4.8-1.2a.2.2 0 01.2 0l1.1 1.2v.1a.2.2 0 010 .2l-5 1.3a.2.2 0 01-.1-.1l-1.2-1.2a.2.2 0 01.1-.3zM152.8 378l4.9-1.2h.2l1 1.2h.1v.1a.2.2 0 01-.1.2l-4.9 1.2a.2.2 0 01-.2 0l-1.1-1.2v-.1-.1a.2.2 0 010-.2zM158.6 376.6l4.6-1h.2l.8 1.1v.2a.2.2 0 010 .2l-4.3 1h-.1-.1l-1.2-1.2a.2.2 0 010-.2h.1zM164.2 375.3l4.6-1h.1l1 1.2a.2.2 0 010 .1.2.2 0 01-.2.2l-4.3 1.1h-.1l-1.2-1.2a.2.2 0 010-.2.2.2 0 01.1-.2zM86.7 399.3l1.6 2.4a.3.3 0 00.3 0l8.8-2h.1l.1-.2a.3.3 0 000-.2l-1.9-2.5h-.1-.2l-8.6 2a.3.3 0 00-.2.2.3.3 0 000 .3zM89.3 402.5l1.7 2.7a.3.3 0 00.3.1l10.6-2.5a.3.3 0 00.2-.2.3.3 0 000-.3l-2.1-2.6a.3.3 0 00-.3 0L89.5 402h-.1a.3.3 0 000 .4zM91.7 406l2 3a.3.3 0 00.3 0l14-3.4h.1a.3.3 0 000-.5l-2.2-2.9h-.1-.2l-13.8 3.4a.3.3 0 00-.2.3l.1.1zM123.8 402.9l2.5 3a.3.3 0 00.3.2l30.8-7.7.2-.1a.3.3 0 000-.3v-.1l-3.2-3.2a.3.3 0 00-.3 0l-30.2 7.7a.3.3 0 00-.2.2.3.3 0 000 .3zM155.6 395l3 3h.2l6.3-1.7h.1v-.2a.2.2 0 000-.2l-3.1-3.1h-.1-.2l-6.2 1.6a.3.3 0 000 .5zM170.8 393l1.4 1.4a.2.2 0 00.2.1l4.6-1.3a.2.2 0 00.1-.3l-1.7-1.5a.2.2 0 00-.1 0l-4.4 1.3h-.1a.2.2 0 000 .2v.1zM174.8 389.9l1.6 1.7a.2.2 0 00.2 0l4.3-1.5.1-.1v-.1l-1.7-1.5a.2.2 0 00-.1 0l-4.4 1.2a.2.2 0 000 .2zM178 392.9l-1.2-1a.2.2 0 01-.1-.2.2.2 0 010-.1l4.3-1.5a.2.2 0 01.2 0l1.4 1.3a.2.2 0 010 .2.2.2 0 01-.1.1L178 393h-.2zM182.3 390.3l1.3 1.3h.2l4.4-1.2a.2.2 0 00.1-.3l-1.6-1.4a.2.2 0 00-.2 0l-4 1.3a.2.2 0 00-.2.1v.1zM169.8 387.4l2.4 2.3h.1l11.6-3 .1-.1a.2.2 0 000-.2l-2.8-2.3h-.1-.1l-11 3a.2.2 0 00-.2.2v.1zM169 383.9l2.5 2.2a.2.2 0 00.2 0l8.6-2 .1-.1a.2.2 0 000-.2l-2.8-2.4h-.1-.1l-8.3 2.2V384zM169.8 380l2.4 2.2h.1l4.5-1 .1-.2a.2.2 0 000-.1l-2.8-2.4a.1.1 0 00-.2 0l-4 1.3-.1.1v.1zM163.8 378l2.2 2h.1l7-1.6a.2.2 0 00.2-.3l-2.7-2.3h-.1l-6.7 1.9a.2.2 0 000 .2v.1z"/>
  </g>
  <defs>
    <linearGradient id="paint0_linear" x1="750.4" x2="750.4" y1="714.6" y2="215.2" gradientUnits="userSpaceOnUse">
      <stop stop-color="gray" stop-opacity=".3"/>
      <stop offset=".5" stop-color="gray" stop-opacity=".1"/>
      <stop offset="1" stop-color="gray" stop-opacity=".1"/>
    </linearGradient>
    <clipPath id="clip0">
      <path fill="#fff" d="M0 0h1048.7v812.5H0z"/>
    </clipPath>
  </defs>
</svg>
