<svg xmlns="http://www.w3.org/2000/svg" fill="none" viewBox="0 0 1165 556">
  <g clip-path="url(#clip0)">
    <path fill="#EF5B59" d="M1155.21 461.06a83.61 83.61 0 01-23 27.6 116.87 116.87 0 01-4.16 3.17c-1.9 1.33-3.85 2.64-5.84 3.93-15.49 9.83-33.63 16.55-51.34 21.45a462.35 462.35 0 01-26.84 6.54l-4.68 1c-1.56.34-3.35.67-5 1l-2.37.45c-45.82 8.45-92.24 10.06-139 7.94l-2.22-.11-3.55-.18c-9.5-.5-19-1.12-28.51-1.89l-3.6-.29-1.59-.13c-5.33-.45-10.67-.94-16-1.47-7.03-.67-14.06-1.4-21.11-2.21l-.91-.1-.74-.09a3011.32 3011.32 0 01-75.6-9.72l-3.57-.5-6.41-.89-5.4-.75-1.6-.22c-8.52-1.2-17.04-2.37-25.56-3.54l-1.38-.19c-16-2.19-32.09-4.3-48.13-6.22l-2.09-.25a1824.3 1824.3 0 00-19.69-2.23l-5-.53-6.65-.67a1119.6 1119.6 0 00-55.23-4.2c-8.84-.44-17.7-.77-26.58-1a1441.32 1441.32 0 00-51.9-.12h-2.26c-14.07.23-28.17.63-42.28 1.11l-2.54.08h-.84c-30 1.06-60 2.47-89.92 3.48l-7.31.24h-1.06c-10.4.33-20.79.59-31.17.77h-6.18l-4.64.06c-4.82.05-9.63.07-14.43.08h-5.89c-17.62-.05-35.17-.44-52.61-1.35l-1.94-.11c-33.89-1.83-67.4-5.61-100.31-12.48-3.4-.71-6.8-1.46-10.2-2.24a468.49 468.49 0 01-66.8-20.31c-10.24-4-20.54-8.62-28.33-16.44-19.76-20-12.34-59.17 13.37-70.56 20.11-8.91 43.67-1.66 65.3-5.68 1.33-.25 2.64-.59 3.93-1a54.64 54.64 0 008-3.3 75.73 75.73 0 008.57-5.02 90.85 90.85 0 0012.7-10.19 70.79 70.79 0 0010.92-13.07 46.2 46.2 0 004.24-8.76c.52-1.5.92-3.05 1.19-4.62 1.26-7.42-.78-14.66-7.88-20.78a30.5 30.5 0 00-8.22-4.86c-9.14-3.85-20.93-5.33-30.87-8a54.5 54.5 0 01-8.84-3.07c-1.81-.84-3.61-1.72-5.38-2.64l-.47-.26a120.4 120.4 0 01-39-32 104.17 104.17 0 01-9.2-13.9c-17.57-31.7-19.38-72.32-1.1-103.49a97.86 97.86 0 0110.13-14.22c17.4-20.53 42.4-34.44 67.64-44.74 33.88-13.82 69.35-22.55 105.5-28.3a692.91 692.91 0 0122-3.14c30.7-3.92 61.76-6 92.6-7.58 28.85-1.46 57.82-2.4 86.92-2.83 9.86-.13 19.73-.19 29.61-.17a1729.64 1729.64 0 0188.78 2.29 1468.51 1468.51 0 0183.25 6.69c68.24 7.46 135.49 20.11 200.42 39.78a794.7 794.7 0 0122 7 849.62 849.62 0 0187.81 34.43 783.28 783.28 0 0148.48 24.31 539.43 539.43 0 0160.6 38 406.45 406.45 0 0122 17.32 315.87 315.87 0 0137.96 38 271.62 271.62 0 0113.9 18.21c21.4 30.76 35.76 65.94 46.36 101.88 9.35 31.36 15.57 66.57.74 95.8z" opacity=".1"/>
    <path fill="#EF5B59" d="M1141.76 353.78h-85.43V245.11h38a266.2 266.2 0 00-2.85-3.36h-35.11v-34.64a411.6 411.6 0 00-22-17.32v52H837.42V127.47h87.81c-2.47-1.13-4.95-2.25-7.42-3.36h-80.39V93.04c-7.33-2.42-14.67-4.75-22-7v38H534.34l-.67-.64 81.31-77.18c-8.96-.99-17.94-1.88-26.94-2.69l-56.31 53.44v-57.4c-7.33-.39-14.67-.72-22-1v62.09l-66.78-63.38c-9.87 0-19.74.06-29.61.17l90.56 85.95-.67.64H233.8V47.97c-7.33.93-14.67 1.97-22 3.14v73H38.64a87.04 87.04 0 00-2.73 3.36h175.87v114.28H29.57a86.08 86.08 0 001.94 3.36h180.27v108.67h-88.67a79.88 79.88 0 01-3.7 3.36h92.37v111.2c7.33 1.05 14.67 2.14 22 3.28V357.14h275.93v139.33c7.33 0 14.67.1 22 .29V357.14H815.4v170.57l.91.1c7.04.79 14.08 1.52 21.11 2.21V357.14h196.89V525.7c1.68-.31 3.36-.64 5-1 1.64-.36 3.12-.63 4.68-1 4.11-.87 8.21-1.8 12.31-2.78V357.14h86.12l-.66-3.36zm-632.05 0H233.8V245.11h275.91v108.67zm0-112H233.8V127.47h272l3.88 3.06.03 111.25zm305.69 112H531.73V245.11H815.4v108.67zm0-112H531.73V127.47H815.4v114.31zm218.91 112H837.42V245.11h196.89v108.67z" opacity=".1"/>
    <path fill="#EAECF0" d="M297.19 507.21c0 .11-.08.22-.11.33 0-.11.07-.22.12-.33h-.01zM302.41 502.42h-6.18l-4.64.06-.51-5.27-.47-5-2.18-22.81-.07-.7v-.31l-.61-6.42 9.34-3.5 1.14 9.31.08.69v.08l2.31 18.9.71 5.8.41 3.37.35 2.89v.1l.32 2.81z"/>
    <path fill="#3A3768" d="M335.94 507.2l.11.33h-.74l-.11-.33h.74zM480.78 375.45v.43s-8.72 23.83-11.56 44.17a82.42 82.42 0 00-.79 8.13c-.08 1.57-.1 3.09-.06 4.54v1c0 .67.07 1.36.11 2.07.04.71.1 1.42.16 2.16l.19 2.1c2.15 22 10.32 54.21 10.32 54.21s.27.87.62 2.35h-2.26c-14.07.23-28.17.63-42.28 1.11l-2.54.08h-.84c-30 1.06-60 2.47-89.92 3.48l-7.31.24h-1.06c-10.4.33-20.79.59-31.17.77h-2.75a17.6 17.6 0 014.87-4.63 55.1 55.1 0 0115.35-6.59 12.2 12.2 0 013.51-.43l7 .14h1.08l10.74.21 92.12 1.83h.23l.65-.13c1.07-.27 2.11-.63 3.11-1.1a10.92 10.92 0 006.56-8.48c0-.31.08-.64.1-1 .03-.49.03-.97 0-1.46 0-.34 0-.7-.08-1.07-.08-.37-.1-.74-.17-1.12-2.22-12.41-6-50.61-6-50.61v.12s0-1.63.09-4.37v-1.26c0-.61.07-1.27.11-2 0-.43.06-.87.09-1.33l.17-2.08v-.13l.12-1.38v-.15c1.49-14.75 6.18-38.1 21-46.75 6.95-4.07 11.55-4.89 14.58-4.09 4.42 1.16 5.53 5.76 5.77 8.75v.58c.08.56.13 1.12.14 1.69z"/>
    <path fill="#000" d="M297.19 507.21c0 .11-.08.22-.11.33 0-.11.07-.22.12-.33h-.01zM335.94 507.2l.11.33h-.74l-.11-.33h.74zM480.78 375.45v.31s-7.19 19.65-10.62 38.49a205.67 205.67 0 00-.94 5.79 82.57 82.57 0 00-.79 8.13c-.08 1.57-.1 3.09-.06 4.54v1c0 .67.07 1.36.11 2.07.04.71.1 1.43.16 2.16a126 126 0 00.41 4.19c.32 2.83.72 5.8 1.18 8.82 3.13 20.37 8.92 43.19 8.92 43.19s.29.92.64 2.46h-2.26c-14.07.23-28.17.63-42.28 1.11l-2.54.08h-.84c-30 1.06-60 2.47-89.92 3.48l-7.31.24h-1.06c-10.4.33-20.79.59-31.17.77h-2.84a17.17 17.17 0 012.5-2.83c.76-.72 1.58-1.36 2.46-1.92a55.74 55.74 0 0115.35-6.59c1.14-.3 2.33-.45 3.51-.42l7 .14h1.08l10.77.21 92.19 1.82h.16s.27 0 .72-.15a16.2 16.2 0 003.13-1.13 10.91 10.91 0 006.47-8.31c0-.31.08-.64.1-1 .03-.49.03-.97 0-1.46 0-.34 0-.7-.08-1.07-.08-.37-.1-.81-.17-1.23-2.22-12.41-6-50.61-6-50.61s0-1.63.09-4.37v-1.26c0-.61.07-1.27.11-2 0-.43.06-.87.09-1.33l.17-2.08v-.13l.12-1.38v-.15c.18-1.84.42-3.82.72-5.89 2.08-14.48 7.28-33.39 20.24-41 6.77-4 11.3-4.84 14.34-4.15 4.68 1.07 5.79 5.89 6 8.93v.58c.09.65.14 1.3.14 1.95z" opacity=".1"/>
    <path fill="#3A3768" d="M297.19 507.21c0 .11-.08.22-.11.33 0-.11.07-.22.12-.33h-.01zM335.94 507.2l.11.33h-.74l-.11-.33h.74zM478.22 374.6s-13.05 35.66-12.42 57c.63 21.34 10.82 61.44 10.82 61.44s.44 1.41.91 3.66c-14.07.23-28.17.63-42.28 1.11l-2.54.08h-.84c-30 1.06-60 2.47-89.92 3.48l-7.31.24h-1.06c-10.4.33-20.79.59-31.17.77h-6.18a18 18 0 015.49-5.77l.27-.19a55.7 55.7 0 0115.34-6.45c1.14-.3 2.33-.45 3.51-.42l9.24.18h1.08l11.13.22 89.75 1.79a15.05 15.05 0 004.85-1.82 11.98 11.98 0 003-2.45c1.89-2.15 3.15-5.35 2.31-10-2.23-12.41-6-50.61-6-50.61s-.64-46.48 21.64-59.53c9-5.27 14.06-5.09 16.89-3l.24.18c3.9 3.14 3.25 10.09 3.25 10.09z"/>
    <path fill="#EAECF0" d="M119.12 462.1l-.36 3.73-2.18 22.89c-3.4-.71-6.8-1.46-10.2-2.24l2.55-20.81.86-7.07 9.33 3.5z"/>
    <path fill="#EFC6CD" d="M55.12 454.7l54.46-115.91 219.37 17.11 20.22 98.8H55.12z"/>
    <path fill="#D48A9B" d="M55.12 464.81V454.7h294.05v14.78l-294.05-4.67z"/>
    <path fill="#DFE6F5" d="M138.04 437.77l131.56 2.68a1.83 1.83 0 001.84-1.53c.05-.29.02-.58-.07-.86l-20.51-55.32-88.61-1.69-26.21 53.66a2.17 2.17 0 00.96 2.8c.32.17.68.26 1.04.26z"/>
    <path fill="#000" d="M138.04 437.77l131.56 2.68a1.83 1.83 0 001.84-1.53c.05-.29.02-.58-.07-.86l-20.51-55.32-88.61-1.69-26.21 53.66a2.17 2.17 0 00.96 2.8c.32.17.68.26 1.04.26z" opacity=".15"/>
    <path fill="#DFE6F5" d="M136.98 435.46l132.92 2.8-18.07-54.73a4.5 4.5 0 00-4.19-3.1l-85.42-1.62-25.24 56.65z"/>
    <path fill="#4C4C56" d="M147.96 423.07l15.93-35.05a4.25 4.25 0 013.86-2.48h39.59a4.23 4.23 0 014.23 4.23v37.87a4.25 4.25 0 01-4.44 4.23l-55.53-2.83a4.23 4.23 0 01-3.64-5.97z"/>
    <path fill="#D1D9EC" d="M226.04 418.63l.68-20a3.07 3.07 0 013.06-3h11.7a3.06 3.06 0 013 2.54l3.44 19.89a3.07 3.07 0 01-3 3.59l-15.83.14a3.06 3.06 0 01-3.05-3.16z"/>
    <path fill="#4C4C56" d="M71.04 288.55l44.11-3.68a3 3 0 013.14 1.77L160 381.05l-23.28 52.26c.73-1.64 1.27 11.12-4 .06L66.43 295.08c-.89-1.85 2.54-6.27 4.61-6.53z"/>
    <path fill="#000" d="M71.04 288.55l44.11-3.68a3 3 0 013.14 1.77L160 381.05l-23.28 52.26c.73-1.64 1.27 11.12-4 .06L66.43 295.08c-.89-1.85 2.54-6.27 4.61-6.53z" opacity=".15"/>
    <path fill="#4C4C56" d="M71.04 288.55l46.35-5.92a3 3 0 013.14 1.77l41.72 94.41-25.24 56.65-68.34-142.62a3 3 0 012.37-4.29z"/>
    <path fill="#EF5B59" d="M82.61 295.19l33.51-5.22a3 3 0 013.25 1.84l35.1 85.86a2.7 2.7 0 01-.06 2.2l-16.07 33.58a2.7 2.7 0 01-4.91 0l-53.09-114a3 3 0 012.27-4.26z"/>
    <path fill="url(#paint0_linear)" d="M440.16 488.65s-.69 1.14-1.7 3l-.09.17c-.9 1.6-2 3.7-3.12 6l-2.54.08h-.84c-30 1.06-60 2.47-89.92 3.48l-7.31.24h-1.06c-10.4.33-20.79.59-31.17.77h-6.18l-4.64.06c-4.82.05-9.63.07-14.43.08h-5.72c-17.62-.05-35.17-.44-52.61-1.35l-1.94-.11c3.43-7.46 9.56-19.69 14.54-23.6 3.85-3 31.5-6.33 56.93-8.77l2.68-.26h.06l7.1-.66c9.73-.89 18.56-1.61 24.86-2.1l.58-.05-3.28-11-4.75-16 1.35-13.44.11-1.08h-.15a8.83 8.83 0 01-4-.5l-47.49-1.64h-.86l-18.24-.65c-9.78-.35-16.73-.61-17-.66a3.79 3.79 0 01-2-.93c-.4-.34-.74-.75-1-1.2h-.64l-2.58.17-1.31.09-.14-.41-.35-1.14h-.69l-9-.19h-.16s-23.22 1.77-35.35-2.65c-4.45-1.62-7.41-4.07-7.18-7.74.05-.84.23-1.66.52-2.44-3.9-7.29 15.15-20.59 29.67-16.92a25.7 25.7 0 0012.06.5 15.52 15.52 0 006.49-3.12c-.24-.15-.49-.28-.72-.4-1-.52-2.06-.9-3.17-1.1l3.94-1.15h.06s14-1.28 23.11-1.79h.06c2.71-.14 5-.23 6.36-.19 6 .17 17.69-4.12 18.19-5.44.5-1.32 5.84 0 5.84 0l4.67-1.82c4.67-1.81 7.34-4.28 7.34-6.1 0-1.82 4.17-3.79 4.17-3.79 1.88-3.16 5.57-6.55 9.44-9.55 3.35-2.59 6.83-4.9 9.41-6.51 1-6.48 2.33-12.9 4-19.24 1.77-5.91 7.26-10.29 9.23-11.71l.72-.48a51.88 51.88 0 00-2.44-7.92c-.2-.47-.41-.93-.62-1.36l-.31-.6a35.02 35.02 0 01-6.54.63 34.32 34.32 0 01-33.15-25v-.06a33.87 33.87 0 01.53-19.62l.28-.82c-1.48.22-2.97.35-4.47.39h-1c-2.86.1-5.7-.37-8.37-1.39a11.3 11.3 0 01-1.93-1.06c-.76-.44-1.45-1-2.06-1.63a10.59 10.59 0 004.07-7.08c.27-2.16-.09-4.57 1.2-6.33a9.08 9.08 0 012.34-2c5.32-3.63 9.54-8.61 14.35-12.9 4.81-4.29 10.63-8 17.1-8.2 8.68-.27 16.32 5.77 24.92 6.91 2.64.35 5.35.23 7.93.89 2.9.9 5.61 2.28 8.05 4.08 2.2 1.25 4.15 2.9 5.74 4.88 1.1 1.71 1.9 3.6 2.34 5.59a61.82 61.82 0 012 12.81c.23 4.53 0 9.09.48 13.59.34 3.9 1.66 7.67 3.84 10.93h.13c.38.53.8 1.04 1.24 1.52-.85.27-1.7.51-2.57.72-1.45.37-2.91.66-4.39.87-.68.11-1.36.17-2.05.17a6.1 6.1 0 01-1.42-.13l.88.59 2.44 1.64.92.61 1.85 1.23c.42-1.23 1-1.56 1.67-1.48 1.36-1.28 3.39 1.49 3.39 1.49 1.19 2.28 4.39 4.55 7.22 6.23 1.66.98 3.38 1.87 5.13 2.68 37.37 22.27 35 55.59 37.2 58.23 2.2 2.64 2.34 12.2 2.34 12.2s5.51 32.49 8 35.3c2.49 2.81.16 3.79 2.33 6.93 2.17 3.14 1.67 11.54 1.67 11.54s1.5 19.79 6.84 24.08c4.79 3.85 11.19 36.24 12.46 42.86l.28 1.23z"/>
    <path fill="#D38884" d="M221.13 384.41s-5.19 8.17-19.89 4.41-34.15 10.46-28.6 17.48c5.55 7.02 41.34-2 41.34-2l13.73-2.78-.9-11.43-5.68-5.68z"/>
    <path fill="#000" d="M221.13 384.41s-5.19 8.17-19.89 4.41-34.15 10.46-28.6 17.48c5.55 7.02 41.34-2 41.34-2l13.73-2.78-.9-11.43-5.68-5.68z" opacity=".1"/>
    <path fill="#A36468" d="M225.91 383.97l-6.37-.33-3.92 1.14s12.42 1.8 9 18.63l13.39-.81-12.1-18.63z"/>
    <path fill="#000" d="M225.91 383.97l-6.37-.33-3.92 1.14s12.42 1.8 9 18.63l13.39-.81-12.1-18.63z" opacity=".1"/>
    <path fill="#444053" d="M310.23 346.33s-17.48 10-22.39 18.31c0 0-4.08 2-4.08 3.76 0 1.76-2.62 4.24-7.19 6l-4.58 1.8s-5.23-1.31-5.72 0c-.49 1.31-11.92 5.55-17.81 5.39-5.89-.16-28.92 2-28.92 2a20.47 20.47 0 0111.6 22.71l54.42-2.28 20.58-4.58 12.1-12.09-8.01-41.02z"/>
    <path fill="#000" d="M310.23 346.33s-17.48 10-22.39 18.31c0 0-4.08 2-4.08 3.76 0 1.76-2.62 4.24-7.19 6l-4.58 1.8s-5.23-1.31-5.72 0c-.49 1.31-11.92 5.55-17.81 5.39-5.89-.16-28.92 2-28.92 2a20.47 20.47 0 0111.6 22.71l54.42-2.28 20.58-4.58 12.1-12.09-8.01-41.02z" opacity=".1"/>
    <path fill="#D38884" d="M230.04 418.63l-7.7-.15-9-.19s-42.5 3.27-41.67-10.32c.83-13.59 33.52-18.36 38.07-14.46 3.45 2.95 11.43 5.33 15.07 6.3 1.16.31 1.87.48 1.87.48l3.36 18.34z"/>
    <path fill="#000" d="M230.04 418.63l-7.7-.15c-3.07-10.55.49-16.36 2.51-18.64 1.16.31 1.87.48 1.87.48l3.32 18.31z" opacity=".1"/>
    <path fill="#A36468" d="M235.23 419.21l-8 .56-3.8.26c-5.23-15.36 3.22-21.41 3.22-21.41h2.5l4.09.49 1.99 20.1z"/>
    <path fill="#D38884" d="M332.13 317.25l-9.48 18s-1.45-18.23-5.67-26.82c-1.08-2.2-2.34-3.76-3.81-4.23-4-1.26 19-26.47 19-26.47.77.16 5.17 3 10.56 6.67 5.93 4 13.07 8.88 17.87 12 9.11 5.81-28.47 20.85-28.47 20.85z"/>
    <path fill="#444053" d="M319.97 317.59s-7.62 4.89-9.74 12.08-4.09 20.1-4.09 20.1 3.44 30.88 5.23 32.35c1.79 1.47 8.6 32.35 8.6 32.35l6.6-4.41-8.66-38.89s5.76-49.97 2.06-53.58z"/>
    <path fill="#000" d="M319.97 317.59s-7.62 4.89-9.74 12.08-4.09 20.1-4.09 20.1 3.44 30.88 5.23 32.35c1.79 1.47 8.6 32.35 8.6 32.35l6.6-4.41-8.66-38.89s5.76-49.97 2.06-53.58z" opacity=".1"/>
    <path fill="#A36468" d="M353.13 386.48h-38.09l6.17-60.09h31.92v60.09z"/>
    <path fill="#67647E" d="M264.88 507.21h.46l-.86.33.4-.33zM336.54 479.84l-7.45 2.86-1 .37-26.82 10.31-10.23 3.93-13.92 5.35h-5.68c-17.62-.05-35.17-.44-52.61-1.35 3.38-7.41 9.29-19.27 14.11-23.1 3.76-3 30.66-6.24 55.49-8.68 3.1-.3 6.16-.59 9.14-.86l.71-.07c9.86-.9 18.78-1.63 25-2.13l1-.08 7.82-.6.82-.82 1 4.28.83 3.42 1.79 7.17z"/>
    <path fill="#000" d="M264.88 507.21h.46l-.86.33.4-.33zM336.54 479.84l-7.45 2.86-1 .37-26.82 10.31-10.23 3.93-13.92 5.35h-5.68c-17.62-.05-35.17-.44-52.61-1.35 3.38-7.41 9.29-19.27 14.11-23.1 3.76-3 30.66-6.24 55.49-8.68 3.1-.3 6.16-.59 9.14-.86l.71-.07c9.86-.9 18.78-1.63 25-2.13l1-.08 7.82-.6.82-.82 1 4.28.83 3.42 1.79 7.17z" opacity=".1"/>
    <path fill="#67647E" d="M264.88 507.21h.46l-.86.33.4-.33zM297.19 507.21c0 .11-.08.22-.11.33 0-.11.07-.22.12-.33h-.01zM336.05 507.53h-.74l-.11-.33h.74l.11.33zM342.91 469.39l-.62 20.58V491.19l-.31 10.19-7.31.24h-1.06c-10.4.33-20.79.59-31.17.77h-6.18l-4.64.06c-4.82.05-9.63.07-14.43.08h-5.75c5.2-3.22 11.93-6.77 19.17-10.32 3.25-1.6 6.62-3.19 10-4.76 9-4.18 18.11-8.13 25.54-11.28l.95-.4a898.61 898.61 0 0115.81-6.51v.13z"/>
    <path fill="#000" d="M276.12 384.81c1.87 3.9 3.8 7.88 6.89 10.92.49.48 1.34.92 1.78.39.14-.22.2-.48.19-.74a9.54 9.54 0 00-1.8-5.1c-1-1.54-2.18-2.94-3.07-4.54-.89-1.6-1.91-4.68-3.91-5.1-2.57-.54-.65 2.99-.08 4.17zM342.69 284.37a33.68 33.68 0 01-25.71 24.03c-1.08-2.2-2.34-3.76-3.81-4.23-4-1.26 19-26.47 19-26.47.73.16 5.13 3.05 10.52 6.67z" opacity=".1"/>
    <path fill="#D38884" d="M343.89 274.76a33.66 33.66 0 11-33.66-33.66 33.58 33.58 0 0133.66 33.66z"/>
    <path fill="#67647E" d="M323.14 324.76s-7 8.5-5.88 14.06h8.49l6.21-7-8.82-7.06z"/>
    <path fill="#000" d="M348.04 288.87l-26.7 36.71s6.86 9.81 10.13 10.3c3.27.49 21.92-43.42 21.92-43.42l-5.35-3.59z" opacity=".1"/>
    <path fill="#A36468" d="M348.38 288.21l-26.71 36.76s6.86 9.8 10.13 10.29c3.27.49 21.92-43.41 21.92-43.41l-5.34-3.64z"/>
    <path fill="#67647E" d="M318.24 335.23s-1.31 20.58-2.62 24.67c-1.31 4.09 0 41.66 0 41.66l12.26-5.06-2.13-57.68-7.51-3.59z"/>
    <path fill="#000" d="M335.94 507.2l.11.33h-.74l-.11-.33h.74zM436.38 489.48l-.61 1c-.38.62-.79 1.39-1.32 2.37a129.81 129.81 0 00-2.58 5c-30 1.06-60 2.47-89.92 3.48l-7.31.24h-1.06l-3.14-10.6v-.11l-.33-1.12-2-6.66-2-6.77-2.07-7.22-.76-2.62-.2-.66-3.26-11.1-4.42-15.07 1.43-14.38.1-1.09 1.29-12.88.18-3.82.1-2v-.57l.22-4.64.66-13.8.34-7.06.06-1.07.68-14.17 1.93-5.79 1-2.88 2.22-6.69.48-1.65c.7-2.51 2.11-7.47 3.43-12.24l.12-.41.09-.31.94-3.39 1.17-4.35c.44-1.67.73-2.86.8-3.27.11-.71 2-3.85 4.48-8 5-8.27 12.52-20.44 13.38-24.52v-.1c.05-.25.12-.5.21-.73.41-1.22 1-1.55 1.62-1.47a2 2 0 01.79.31c.6.4 1.13.91 1.56 1.5 1.17 2.25 4.3 4.5 7.07 6.17l.54.31.32.19a55.69 55.69 0 004.16 2.15c36.6 22.06 34.32 55.07 36.44 57.68 2.12 2.61 2.29 12.1 2.29 12.1s5.39 32.19 7.84 35c2.45 2.81.17 3.76 2.29 6.87 2.12 3.11 1.63 11.33 1.63 11.33s1.47 19.6 6.7 23.85 12.42 43.66 12.42 43.66z" opacity=".1"/>
    <path fill="#444053" d="M437.36 489.16l-.44.76c-.35.62-.91 1.6-1.58 2.83l-.07.14c-.76 1.41-1.66 3.12-2.55 5h-.84c-30 1.06-60 2.47-89.92 3.48l-7.31.24-3.13-10.64v-.11l-.33-1.12-2.07-7-2-6.8-2-6.79-.79-2.72-3.42-11.68-4.52-15.39 1.25-12.51.17-1.67 1.38-14.21.53-11.08.65-13.39.17-3.51.19-4.06.08-1.71.65-13.38 1.93-5.78.83-2.49 1.94-5.85.41-1.24s1.87-6.57 3.68-13.08l.2-.72.47-1.67.45-1.66c.51-1.82 1-3.52 1.34-4.92.49-1.83.82-3.16.89-3.59.11-.71 2-3.94 4.57-8.14 4.73-7.82 11.63-19 13.09-23.64.08-.24.15-.48.2-.73.09-.74.4-1.43.87-2 1.34-1.29 3.33 1.48 3.33 1.48 1.17 2.25 4.3 4.51 7.07 6.17 1.62.97 3.29 1.86 5 2.65 36.6 22.06 34.32 55.07 36.44 57.69 2.12 2.62 2.29 12.09 2.29 12.09s5.39 32.19 7.84 35c2.45 2.81.17 3.76 2.29 6.86 2.12 3.1 1.63 11.44 1.63 11.44s1.47 19.61 6.7 23.86 12.44 43.59 12.44 43.59z"/>
    <path fill="#000" d="M362.73 296.62c-3.59 5.22-9.44 14.4-11 21 0 0-5.72 5.89-7.85 5.56-2.13-.33 2 4.41 2 4.41l-22.47 31.14 3.19-9.57s6.7-23.53 7-25.65c.3-2.12 16.57-26.41 17.86-32.52 1-4.89 4.2-.49 4.2-.49 1.16 2.2 4.29 4.47 7.07 6.12z" opacity=".1"/>
    <path fill="#444053" d="M362.73 295.97c-3.59 5.21-9.44 14.4-11 20.95 0 0-5.72 5.88-7.85 5.56-2.13-.32 2 4.41 2 4.41l-22.47 31.14 3.19-9.57s6.7-23.53 7-25.66c.3-2.13 16.57-26.4 17.86-32.51 1-4.9 4.2-.49 4.2-.49 1.16 2.25 4.29 4.5 7.07 6.17z"/>
    <path fill="#000" d="M392.91 360.49c.17 7.14-10.29 16.89-10.78 17.46-.49.57-32.52 27-32.52 27l-23 17.64a19.54 19.54 0 01-9 4.16l1.57-15.78 1.55-32c3.59-4 7.07-8.2 7.15-9.54.16-2.77 6-5.72 6-5.72s4.09-3.43 3.43-5.39c-.66-1.96 2.17-11.35 2.17-11.35 1.47-26.64 28.92-29.25 28.92-29.25s13.24 5.23 22.55 10.78c9.31 5.55 1.8 24.86 1.96 31.99zM235.23 419.21l-8 .56c-3.38-5.75 1.27-21.15 1.27-21.15h.65l4.09.49 1.99 20.1z" opacity=".1"/>
    <path fill="#444053" d="M368.4 316.1s-27.45 2.62-28.92 29.25c0 0-2.78 9.32-2.13 11.28.65 1.96-3.43 5.39-3.43 5.39s-5.88 2.94-6 5.72c-.12 2.78-15 17.94-15 17.94s-6.2 7.06-20.58 7.8c-14.38.74-21.08 5.14-21.08 5.14s-7-4.9-12.1-3.43c-5.1 1.47-29.9 3.43-29.9 3.43s-6.59 21.84 1.63 23.21c1 .16 81.9 2.94 81.9 2.94s5.53 2.61 13.86-3.76c8.33-6.37 23-17.65 23-17.65s32-26.47 32.52-27c.52-.53 11-10.33 10.78-17.46-.22-7.13 7.36-26.42-2-32-9.36-5.58-22.55-10.8-22.55-10.8z"/>
    <path fill="#000" d="M343.89 274.76c0 3.54-.55 7.06-1.65 10.43-.46-.54-.87-1.11-1.24-1.71l-4.69-7.2a19.43 19.43 0 00-4.77-5.62c-2-1.42-4.84-2-7-.74-1.9 1.12-2.83 3.41-3 5.61-.06 2.2 0 4.42.17 6.62.08.84-.13 1.69-.61 2.39-.71.63-1.63 1-2.58 1l-3 .41a2.15 2.15 0 01-2.76-1.37c-2.49-4.51-4.21-10.11-8.88-12.28-2.88-1.34-6.68-1.25-8.53-3.83-1.26-1.76-1.09-4.15-.72-6.3.4-2.4 1-4.78 1.75-7.11.53-1.64 1.71-4.91-.91-5.24-1.78-.23-4.24 1.66-5.14 3-.9 1.34-1.12 3.13-1.76 4.66a11.13 11.13 0 01-6.15 5.71 17.6 17.6 0 01-4.24 1.15 33.66 33.66 0 0165.7 10.34l.01.08z" opacity=".1"/>
    <path fill="#444053" d="M290.34 251.97c-.91 1.39-1.12 3.12-1.76 4.65a11.14 11.14 0 01-6.14 5.71c-2.7 1-5.55 1.52-8.43 1.5-4.66.14-9.86-.57-12.86-4.14a10.52 10.52 0 004-7c.26-2.14-.09-4.53 1.18-6.28a9 9 0 012.28-1.93c5.22-3.6 9.34-8.54 14.06-12.78 4.72-4.24 10.41-7.93 16.75-8.13 8.49-.26 16 5.72 24.4 6.85 2.58.35 5.24.23 7.76.88 2.84.88 5.5 2.23 7.89 4a20.17 20.17 0 015.63 4.84 17.4 17.4 0 012.29 5.54c1.1 4.15 1.78 8.4 2 12.69.23 4.48 0 9 .48 13.46.48 4.46 1.9 9 4.95 12.3-2.22.7-4.5 1.23-6.81 1.57a7.1 7.1 0 01-4.33-.34 7.63 7.63 0 01-2.64-2.85l-4.69-7.2a19.44 19.44 0 00-4.77-5.62c-2-1.42-4.84-2-7-.74-1.9 1.12-2.82 3.41-3 5.61-.06 2.2 0 4.42.17 6.62.08.84-.13 1.69-.61 2.39-.71.64-1.63 1-2.59 1l-3 .41a2.15 2.15 0 01-2.76-1.37c-2.49-4.52-4.21-10.11-8.88-12.28-2.88-1.34-6.68-1.25-8.53-3.83-1.26-1.76-1.09-4.15-.72-6.29.4-2.41 1-4.8 1.75-7.12.53-1.64 1.71-4.91-.91-5.25-1.8-.19-4.26 1.7-5.16 3.13z"/>
    <path fill="#000" d="M366.48 331.04c2.53-.35 5.19-.58 7.56.39-6.17-2.53-16.21-1.56-21.83 1.92.51 1.17 12.31-2.04 14.27-2.31zM369.43 339.24c6.15.41 12.5 1.27 18.33-.73-4.88-1.68-10.25-.62-15.39-1.13-4.1-.41-8.27-1.83-12.27-.79-1.67.43-7.82 3.26-7.4 5.33a33.23 33.23 0 0116.73-2.68zM353.14 352.68c1.29-.14 2.59 0 3.82.4a58.43 58.43 0 0014.08 1.55c3.62 0 7.52-.55 10.16-3l-28.06 1.05zM333.33 383.97a28.17 28.17 0 0013.75 2.5c4.7-.35 9.35-1.24 13.84-2.66 2-.59 4.18-1.33 5.35-3.07l-32.94 3.23zM377.6 388.37a73.45 73.45 0 0030.52 9.45 414.77 414.77 0 00-16.38-6.17 118.74 118.74 0 00-17.25-4.62 8.8 8.8 0 013.11 1.34zM392.71 382.64c1.88.31 3.79.42 5.69.31 1 0 2.19-.14 2.78-1-4.29.18-8.52-.92-12.71-1.87-1.19-.28-3.33-.94-4.33-.23 1.9 1.36 6.17 2.31 8.57 2.79zM418.5 471.97c2.25 3.86 4.53 7.76 7.64 11a56.16 56.16 0 005.73 4.92c-3.71-9.46-7.48-19-13.42-27.27-1.5-2.08-3.74-5.06-6.47-5.44-.78 2.31 1.19 6.4 2.14 8.57a82.52 82.52 0 004.38 8.22zM309.17 401.23c-.17 1.6-.3 3.37.63 4.68a3.38 3.38 0 001.9 1.31c-.48-.12-1-4.82-1.12-5.46-.22-1.31 0-3.76-.93-4.73-.24 1.38-.33 2.8-.48 4.2zM314.37 399.39a10.65 10.65 0 005 6.77c-1.75-2.16-2.32-5-3.84-7.37-.49-.76-1.06-1.85-2-2 .24.88.52 1.75.84 2.6zM309.97 370.59a12.48 12.48 0 01-9.9 1.25c-.75-.22-2.5-1-2.08-2.1.42-1.1 2.45-.34 3.28-.24l4.35.55c.8.1 3.7.92 4.35.54zM295.25 377.71c2.05-.26 3.89 1.16 5.81 1.93 2.13.7 4.36 1 6.6.88 1.12 0 2.39-.09 3.08-1-5.21-1.19-10.08-2.5-15.49-1.81z" opacity=".1"/>
    <path fill="#A36468" d="M319.97 317.58h.33l2.45 8.81-2.78 2.96v-11.77z"/>
    <g fill="#000" opacity=".1">
      <path d="M265.79 247.73c-.3 1.43-.45 2.89-.45 4.35.13-.46.22-.93.27-1.4.12-.96.11-1.97.18-2.95zM295.62 248.87a1.76 1.76 0 011.64 2c.47-1.66.73-3.7-1.31-4-1.78-.22-4.24 1.67-5.14 3.05-.9 1.38-1.12 3.13-1.76 4.66a11.1 11.1 0 01-6.14 5.71c-2.7 1-5.55 1.52-8.43 1.5-4.24.13-8.93-.46-12-3.26-.37.4-.77.75-1.19 1.08 3 3.57 8.2 4.28 12.87 4.14 2.88.02 5.73-.5 8.42-1.5a11.16 11.16 0 006.15-5.71c.64-1.53.84-3.26 1.75-4.65.91-1.39 3.36-3.24 5.14-3.02zM348.44 283.73a7.08 7.08 0 01-4.33-.34 7.71 7.71 0 01-2.64-2.85l-4.69-7.2a19.3 19.3 0 00-4.76-5.62c-2-1.43-4.85-2-7-.74-1.91 1.12-2.83 3.41-3.05 5.61v.27a6.32 6.32 0 012.73-3.92c2.13-1.26 5-.68 7 .74a19.62 19.62 0 014.77 5.62l4.69 7.2a7.54 7.54 0 002.64 2.85c1.37.56 2.88.68 4.32.34 2.31-.34 4.6-.87 6.82-1.57-.44-.48-.85-.98-1.22-1.51-1.74.48-3.5.86-5.28 1.12zM321.55 281.6a4 4 0 01-2.58 1l-3 .41a2.17 2.17 0 01-2.34-.63 2.15 2.15 0 01-.42-.74c-2.49-4.52-4.21-10.11-8.88-12.28-2.88-1.34-6.67-1.25-8.52-3.83a7.36 7.36 0 01-.89-5.24l-.17.91c-.36 2.14-.54 4.53.73 6.29 1.85 2.58 5.65 2.49 8.52 3.83 4.68 2.17 6.4 7.76 8.89 12.28.23.57.63 1.05 1.15 1.37.52.17 1.08.2 1.61.07l3-.41c.95 0 1.87-.36 2.58-1 .48-.7.7-1.55.61-2.39-.09.13-.18.25-.29.36z" opacity=".1"/>
    </g>
    <path fill="#EAECF0" d="M735.44 517.4l-6.41-.89v-94.63l1.31.4 4 1.23v9.11l.05 4.11.09 8.46v11.54l.48 42.61v1.14l.17 15v.23l.31 1.69z"/>
    <path fill="#D3DAE1" d="M739.04 517.9l-3.57-.5v-1.94l-.17-15v-1.14l-.48-42.61V445.17l-.09-8.46-.05-4.11v-9.11h3.85v12.23l.08 9.14v9.67l.37 44.72v1.15l.12 14.87v.24l-.06 2.39z"/>
    <path fill="#EAECF0" d="M1128.04 410.15v81.68c-1.9 1.33-3.85 2.64-5.84 3.93l-.08-68v-7.22l5.92-10.39z"/>
    <path fill="#D3DAE1" d="M1132.2 408.97v79.7a116.87 116.87 0 01-4.16 3.17v-81.69l4.16-1.18z"/>
    <path fill="#EAECF0" d="M1039.34 524.72c-2.46.5-4.93 1-7.4 1.43l-.09-73.91v-3.2l7.13-3v6.78l.36 71.9z"/>
    <path fill="#D3DAE1" d="M1044.04 443.7v80l-4.68 1-.33-71.87v-6.78l.47-.22 4.54-2.13z"/>
    <path fill="#EAECF0" d="M620.19 502.58l-6.65-.67-.85-83.34V414.6h6.53V419.13l.97 83.45z"/>
    <path fill="#D3DAE1" d="M625.14 503.11l-5-.53-1-83.45V414.6h5.05v4.97l.95 83.54z"/>
    <path fill="#000" d="M1039.45 445.84l4.57-2.15v10.09l-4.45 1.49-.12-9.43zM1132.19 408.95v15.44l-4.15 1.39-5.93 1.97-.01-7.22 5.94-10.39 4.15-1.19z" opacity=".1"/>
    <path fill="#D48A9B" d="M1132.19 379.27v42.75l-92.62 30.87-.6-45.72 93.22-27.9z"/>
    <path fill="#EFC6CD" d="M611.46 376.3l121.72-23.16 399.01 26.13-93.22 27.9-427.51-30.87z"/>
    <path fill="#000" d="M624.23 414.6l.04 4.96-5.04-.44-6.55-.56-.03-3.96h11.58zM738.28 429.36l-3.85-.34-5.4-.46v-6.68l5.34 1.62h3.86l.05 5.86z" opacity=".1"/>
    <path fill="#D48A9B" d="M611.46 376.3v39.78l428.11 36.81-.6-45.72-427.51-30.87z"/>
    <path fill="#D48A9B" d="M950.9 423.6h-55.92v-20.29l55.92 3.94v16.35z"/>
    <path fill="#000" d="M950.9 423.6h-55.92v-20.29l55.92 3.94v16.35z" opacity=".1"/>
    <path fill="#000" d="M819.87 398.86v32.06l214.65 16.33v-34.14l-83.72-4.75-8.32 7.42-34.14-2.37-12.17-8.91-76.3-5.64z" opacity=".1"/>
    <path fill="#fff" d="M818.68 397.67v32.07l214.65 16.32v-34.14l-83.72-4.75-8.31 7.43-34.15-2.38-12.17-8.91-76.3-5.64z"/>
    <path fill="#D48A9B" d="M686.27 389.06l50.77 3.57-.59 16.13H703.3l-22.17-8.71 5.14-10.99z"/>
    <path fill="#000" d="M686.27 389.06l50.77 3.57-.59 16.13H703.3l-22.17-8.71 5.14-10.99z" opacity=".1"/>
    <path fill="#000" d="M618.59 384.61v28.8l194.75 15.44v-30.58l-75.11-4.46-8.02 5.94-30.28-1.78-12.47-7.72-68.87-5.64z" opacity=".1"/>
    <path fill="#fff" d="M617.4 383.42v28.8l194.75 15.44v-30.58l-75.11-4.45-8.01 5.93-30.29-1.78-12.47-7.72-68.87-5.64z"/>
    <path fill="#000" d="M1034.54 383.53l27.3 1.79-45.23 13.54-23.04-1.66 40.97-13.67z" opacity=".1"/>
    <path fill="#fff" d="M1034.54 382.35l27.3 1.78-45.23 13.54-23.04-1.66 40.97-13.66z"/>
    <path fill="#D3DAE1" d="M1031.28 385.42c1.08-.47 2.23.4 3.38.62.65.13 1.33 0 2 .13 1.34.18 2.66 1.07 3.94.62l-9.32-1.37zM1029.87 386.23c1.07-.46 2.22.41 3.37.63.66.12 1.34 0 2 .12 1.33.18 2.66 1.08 3.94.63l-9.31-1.38zM1026.63 387.87c1.07-.46 2.22.4 3.37.62.66.13 1.33 0 2 .13 1.34.18 2.67 1.08 3.94.62l-9.31-1.37z"/>
    <path fill="#000" d="M850.35 368.55l60.87 3.99-12.97 18.63-66.92-7.15 19.02-15.47z" opacity=".1"/>
    <path fill="#3A3768" d="M849.16 367.36l60.87 3.98-12.97 18.64-66.93-7.15 19.03-15.47z"/>
    <path fill="#D5E1F4" d="M851.84 368.73l53.09 3.25-11.31 15.18-58.37-5.83 16.59-12.6z"/>
    <path fill="#3A3768" d="M816.24 520.97c0 .28 0 .57-.05.85s0 .5-.08.75a16.9 16.9 0 01-1.45 5.09 3011.32 3011.32 0 01-75.6-9.72l-3.57-.5-6.41-.89-5.4-.75c-5.91-.15-11.8-.7-17.64-1.65a91.23 91.23 0 01-10.9-2.3c-16-2.19-32.09-4.3-48.13-6.22l-2.09-.25c.38-1.7.7-2.73.7-2.73s3.44-13.52 6.3-28.63a298.5 298.5 0 002.87-17.72 130.78 130.78 0 00.64-6.08l.16-2.11c.05-.69.07-1.3.1-1.93v-.94c0-1.35 0-2.76-.05-4.21-.5-7.22-1.64-14.39-3.4-21.41-.28-1.2-.57-2.4-.87-3.57l-.29-1.12c-3.23-12.51-7-22.73-7-22.73v-.17a2.6 2.6 0 000-.37v-1.4-.38c.07-1.05.25-2.09.54-3.1.1-.36.24-.71.38-1.06a6.6 6.6 0 014.5-4.16c2.83-.73 7.11 0 13.57 3.83 1.05.6 2.05 1.3 3 2.06.48.38 1 .78 1.4 1.21 7.4 6.89 11.34 18.26 13.44 28.64l.22 1.11a118.48 118.48 0 011.46 9.93c0 .52.11 1 .16 1.53s.1 1 .13 1.48c.13 1.56.22 3 .28 4.22.17 3.24.14 5.23.14 5.23v.1s0 .15-.05.43v.98l-.15 1.47-.31 3-.28 2.71-.72 6.76-.16 1.38-.72 6.47c-.27 2.5-.57 5-.86 7.47l-.2 1.61c-.74 6-1.48 11.45-2.08 14.84-.1.5-.16 1.01-.2 1.52v.52c-.03.45-.03.9 0 1.36.49 8.54 9.72 10 9.72 10l41.91-.83 6.22-.12 3.62-.07 32.67-.65 3-.06 16.25-.32c1.1-.03 2.2.1 3.27.39a51.92 51.92 0 0114.2 6.21 16.68 16.68 0 013.81 3.36 17.3 17.3 0 013.93 9.36v.69a9 9 0 01.07 1.59z"/>
    <path fill="#000" d="M816.24 520.97c0 .28 0 .57-.05.85s0 .5-.08.75a17.49 17.49 0 01-1.5 5.09 3011.32 3011.32 0 01-75.6-9.72l-3.57-.5-6.41-.89-5.4-.75c-5.91-.15-11.8-.7-17.64-1.65a91.23 91.23 0 01-10.9-2.3c-16-2.19-32.09-4.3-48.13-6.22l-2.09-.25c.38-1.76.72-2.83.72-2.83s2.81-11 5.48-24.33l.55-2.77.27-1.41c.62-3.27 1.22-6.63 1.75-9.93.42-2.65.8-5.27 1.12-7.79a130.78 130.78 0 00.64-6.08l.16-2.11c.05-.69.07-1.3.1-1.93v-.94c0-1.35 0-2.76-.05-4.21-.5-7.22-1.62-14.39-3.37-21.41-.28-1.21-.57-2.4-.87-3.57l-.29-1.12c-3.24-12.55-7-22.83-7-22.83v-.07a2.6 2.6 0 000-.37v-1.4-.38c.06-1.05.23-2.09.51-3.1.11-.35.23-.71.37-1.06a6.62 6.62 0 014.74-4.31c2.83-.66 7.06.16 13.38 3.86a24.15 24.15 0 014.48 3.38c7.34 6.93 11.25 18.28 13.33 28.63l.22 1.12a118.76 118.76 0 011.45 9.9l.15 1.55c.04.5.1 1 .13 1.48.13 1.56.22 3 .28 4.22.17 3.24.14 5.23.14 5.23v1.51l-.15 1.47-.31 3c-.1.83-.19 1.74-.29 2.71l-.72 6.76-.16 1.38-.72 6.49-.88 7.46-.2 1.61c-.73 6-1.46 11.37-2.06 14.74a13.95 13.95 0 00-.2 3.51c.57 8.44 9.72 9.85 9.72 9.85l41.91-.82 6.21-.13 3.63-.07 32.73-.64 3.06-.06 16.19-.32c1.1-.04 2.2.1 3.27.39a51.32 51.32 0 0114.31 6.15 16.46 16.46 0 013.86 3.42 17.13 17.13 0 013.88 9.4v.69c-.09.56-.09 1.1-.1 1.67z" opacity=".1"/>
    <path fill="#3A3768" d="M816.31 527.81l-1.65-.19a3011.32 3011.32 0 01-75.6-9.72l-3.57-.5-6.41-.89-5.4-.75c-5.91-.15-11.8-.7-17.64-1.65a91.23 91.23 0 01-10.9-2.3c-16-2.19-32.09-4.3-48.13-6.22.26-1.4.6-2.8 1-4.16 0 0 9.5-37.41 10.09-57.3.21-7.11-1.2-15.91-3.11-24.3-.28-1.21-.56-2.41-.86-3.59l-.27-1.12c-3.39-13.15-7.42-24.15-7.42-24.15a16.28 16.28 0 01.47-5.14 8.15 8.15 0 012.77-4.46c2.63-2 7.35-2.14 15.75 2.78 1.7 1 3.28 2.2 4.69 3.59.4.38.8.78 1.18 1.19 6.75 7.31 10.33 18.51 12.21 28.53l.21 1.11c.22 1.25.41 2.48.59 3.67v.1a119.22 119.22 0 011.3 17.3s-.39 3.95-1 9.64l-.79 7.37v.4l-.15 1.4a1025.92 1025.92 0 01-1.84 15.74c-.64 5.13-1.28 9.69-1.81 12.66-2.08 11.58 9.5 13.36 9.5 13.36l39.54-.78 6.2-.12 3.63-.08h2.01l31.36-.62h3l18-.36c1.1-.03 2.2.1 3.27.4a51.58 51.58 0 0114.32 6.14 16.97 16.97 0 013.54 3.06 17.32 17.32 0 011.92 19.96z"/>
    <path fill="#4C4C56" d="M957.67 347.05l12.23 26.2h-2.05l-14.34-25.89 4.16-.31z"/>
    <path fill="#000" d="M957.67 347.05l12.23 26.2h-2.05l-14.34-25.89 4.16-.31z" opacity=".1"/>
    <path fill="#4C4C56" d="M957.67 373.25h12.23v2.74l-12.23.31v-3.05z"/>
    <path fill="#000" d="M957.67 373.25h12.23v2.74l-12.23.31v-3.05z" opacity=".1"/>
    <path fill="#4C4C56" d="M862.54 250.64v91.49a6.79 6.79 0 006.79 6.79h152.5a6.7 6.7 0 006.27-4.26c.34-.83.5-1.72.48-2.62l-1.73-91.57a6.74 6.74 0 00-6.75-6.62H869.33a6.79 6.79 0 00-6.79 6.79z"/>
    <path fill="#000" d="M862.54 250.64v91.49a6.79 6.79 0 006.79 6.79h152.5a6.7 6.7 0 006.27-4.26c.34-.83.5-1.72.48-2.62l-1.73-91.57a6.74 6.74 0 00-6.75-6.62H869.33a6.79 6.79 0 00-6.79 6.79z" opacity=".1"/>
    <path fill="#4C4C56" d="M857.04 250.64v91.49a6.79 6.79 0 006.79 6.79h152.5a6.74 6.74 0 006.74-6.88l-1.73-91.57a6.74 6.74 0 00-6.74-6.62H863.87a6.78 6.78 0 00-6.83 6.79z"/>
    <path fill="#EF5B59" d="M863.04 256.36v80.55a6.79 6.79 0 006.79 6.79h141.21a6.73 6.73 0 006.75-6.75v-80.64a6.76 6.76 0 00-6.75-6.74H869.83a6.79 6.79 0 00-6.79 6.79z"/>
    <path fill="#4C4C56" d="M924.14 347.42l13.41 25.83h30.3L952.7 343.7l-28.56 3.72zM913.46 373.25l-2.24 2.74h46.45v-2.74h-44.21z"/>
    <path fill="url(#paint1_linear)" d="M714.46 265.32c.82 4.43 1.64 8.87 3.14 13.09l.03.09.05.15a1.49 1.49 0 01-.51-.31c-.3-.31-.51-.7-.63-1.11-1.53-4.26-2.36-8.71-3.2-13.16-1-5.42-2.02-10.83-4.28-15.84a33.56 33.56 0 01-1.71-4c-.1-.29-.17-.58-.23-.88l.23-.14.25-.1.25-.07.25-.06c.05.88.2 1.76.46 2.61a35.1 35.1 0 001.69 4c2.22 4.98 3.21 10.35 4.2 15.73z"/>
    <path fill="#EFB7B9" d="M751.04 283.67a23.29 23.29 0 00-3.84 5.94c-.15.33-.3.65-.44 1-4.42 10-5.92 24.15-5.92 24.15s-2.74-1.23-6.62-3.15c-7.23-3.58-18.39-9.54-22.9-14.29-2-2.15-2.72-4.05-1.06-5.38.36-.29.73-.62 1.1-1a31.8 31.8 0 003.49-4.14c1.44-2 2.86-4.23 4.2-6.52a109.7 109.7 0 002.24-4l.28-.52c3-5.69 5.19-10.55 5.19-10.55s1 .32 2.62.89c7.47 2.67 28.04 10.78 21.66 17.57zM887.92 515.36s1.22 9.06 2.77 18.62l-3.55-.18c-9.5-.5-19-1.12-28.51-1.89-5.4-12.51-11-27.36-11-27.59l-.36-10.58-.19-5.76-.24-6.94c0-1.08-.06-1.72-.06-1.72s-5.14.9-9.76 1.53l-2.05.27c-1.06.13-2 .23-2.85.29-.73.11-1.48.11-2.21 0-1.58-.61 1.7-16 1.7-16l8.16-19.75 2.28-5.5 1-.25a39.6 39.6 0 011.94-.41c7.79-1.43 28.6-3.25 32.13 17.29 4.37 25.37 5 31.07 5 31.07l5.8 27.5z"/>
    <path fill="#000" d="M887.92 515.36s1.22 9.06 2.77 18.62l-3.55-.18c-9.5-.5-19-1.12-28.51-1.89-5.4-12.51-11-27.36-11-27.59l-.36-10.58-.19-5.76-.24-6.94c0-1.08-.06-1.72-.06-1.72s-5.14.9-9.76 1.53l-2.05.27c-1.06.13-2 .23-2.85.29-.73.11-1.48.11-2.21 0-1.58-.61 1.7-16 1.7-16l8.16-19.75 2.28-5.5 1-.25a39.6 39.6 0 011.94-.41c7.79-1.43 28.6-3.25 32.13 17.29 4.37 25.37 5 31.07 5 31.07l5.8 27.5z" opacity=".05"/>
    <path fill="#EFB7B9" d="M887.14 533.8c-9.5-.5-19-1.12-28.51-1.89l-3.6-.29-1.59-.13a525.87 525.87 0 01-8.46-21.57l-.36-10.58-.49-14.42-.67.11-.28.05h-.36l-1.61.27-.88.14c-1.59.26-3.51.55-5.39.82l-.42.06-1.1.14-1 .12c-.77.1-1.5.18-2.16.24l-.81.07a7 7 0 01-2.21 0c-1.58-.61 1.7-16 1.7-16l10.44-25.25.36-.1a44.44 44.44 0 015.22-.97c9.06-1.16 26.3-.83 29.49 17.7 4.37 25.37 5 31.07 5 31.07l5.83 27.58s.76 5.7 1.86 12.83z"/>
    <path fill="#000" d="M844.62 499.34l-.49-14.43s-10 1.75-14.66 2.09l.94-3.18s17.12-4.73 17.48-2.06c.26 1.87-1.94 11.81-3.27 17.58z" opacity=".1"/>
    <path fill="#000" d="M844.98 439.45v7.23s-.85 13-7.53 32.89a45.27 45.27 0 01-2.93 6.85c-1.88.26-3.7.48-5.05.58-.73.11-1.48.11-2.21 0-1.58-.61 1.69-16 1.69-16l10.44-25.24.37-.1 2.27-5.51s1.12-.36 2.95-.7z" opacity=".1"/>
    <path fill="#444053" d="M843.04 438.31v8.37s-.85 13-7.53 32.9c-.17.52-.36 1-.55 1.53a47.14 47.14 0 01-2.51 5.58c-5.23 9.91-13.2 17-18.26 20.9-.74.57-1.43 1.07-2 1.49h-.05c-1 .68-1.72 1.17-2.18 1.46l-.5.31c-4.74-2.91-18.21-3.4-18.21-3.4l-31.44 5.71a182.4 182.4 0 01-20.77 2.36l-3.57.17c-2.06.08-4.2.13-6.39.14-1.77 0-3.57 0-5.4-.07-5.91-.15-11.8-.7-17.64-1.65a88.21 88.21 0 01-9.52-2.11 67.26 67.26 0 01-6.59-2.2c-22-8.64-16.27-29.13-12.56-38l.57-1.3c.82-1.81 1.43-2.87 1.43-2.87l1.46-3.53 2.39-5.79.53-1.27.15-.37 1.77-4.29 25-3.24 18.37-2.38 5.59-.72 3.79-.49 7.23-.94 2.72-.35c1.68-.26 3.37-.4 5.07-.4.92-.04 1.83.1 2.7.4 2 .91 17.24-1.58 17.24-1.58s11.89-3.64 22.33-2.43c5.16.36 10.34.39 15.51.1l1.28-.06 1.66-.07h.36c13.52-.63 28.52-1.91 28.52-1.91z"/>
    <path fill="#000" d="M753.09 463.43s-12 27.31-12.5 27.79c-.5.48-.48 9 0 8.5s17.12-37.38 17.12-37.38l-4.62 1.09zM811.23 440.33s-6.07 3.92-7.89 7.08c-1.82 3.16-18.45 34.59-22.57 39.2-3.42 4.12-6.5 8.51-9.23 13.13-.48.83-.48 6.05 2.43 1.07 2.91-4.98 2.19-5.82 7.89-12 5.7-6.18 12-20.15 14.44-22.94 2.44-2.79 5.83-11.17 10.08-16.15l8.14-9.51-3.29.12zM812.69 494.26s-4.25-2.91-8.25 2.06c-4 4.97 8.25-2.06 8.25-2.06zM817.91 495.76s-3.52 6.14-5.22 6.63c-1.7.49 5.22-6.63 5.22-6.63zM812.69 497.29s-2.79 4.86-5.22 4.37l5.22-4.37z" opacity=".1"/>
    <path fill="#EFB7B9" d="M793.04 366.08s25.73-1.09 28.28-1.94c2.55-.85 25.12-3.76 25.12-3.76s66.88 4.73 47.83 10.44c-19.05 5.71-44.91 3.27-44.91 3.27s-25.25 6.56-29.13 10c-3.88 3.44-32.53 3.52-32.53 3.52l5.34-21.53z"/>
    <path fill="#000" d="M793.04 366.08s25.73-1.09 28.28-1.94c2.55-.85 25.12-3.76 25.12-3.76s66.88 4.73 47.83 10.44c-19.05 5.71-44.91 3.27-44.91 3.27s-25.25 6.56-29.13 10c-3.88 3.44-32.53 3.52-32.53 3.52l5.34-21.53z" opacity=".05"/>
    <path fill="#A36468" d="M701.51 307.46s-23.55 8-12.14 28.4 26.1 30 26.1 30l37.87 26.22s15.9 9.1 23.18 5.34l11.89-1 2-31.2s-10 7.77-20.88-3c-10.88-10.77-24.28-18.09-25.37-23.91-1.09-5.82-28.94-35.83-42.65-30.85z"/>
    <path fill="#67647E" d="M775.91 373.49s12.26 4.37 11.78 4.61c-.48.24-11.78 4.49-11.78 4.49l.85 16.63 16.63-.91s6.07-30.28.85-33.32l-18.33-.85v9.35z"/>
    <path fill="#000" d="M775.91 373.49s12.26 4.37 11.78 4.61c-.48.24-11.78 4.49-11.78 4.49l.85 16.63 16.63-.91s6.07-30.28.85-33.32l-18.33-.85v9.35zM751.04 283.67a23.3 23.3 0 00-3.84 5.94c-.15.33-.3.65-.44 1-8.93 0-15.35-6.94-20.83-13.15-1-1.15-3.53.59-4.36-.7l-.28-.45.28-.52c3-5.69 5.19-10.55 5.19-10.55s1 .32 2.62.89c7.47 2.64 28.04 10.75 21.66 17.54z" opacity=".1"/>
    <path fill="#EFB7B9" d="M777.04 259.52a30.1 30.1 0 01-29.82 30.09h-.29a30.05 30.05 0 01-25.34-13.85 30.13 30.13 0 0116.88-45.16 30.1 30.1 0 0138.57 28.92z"/>
    <path fill="#000" d="M746.42 446.19s-2.29 2.8-4.82 5.41c-1.91 2-3.95 3.83-5.26 4.3-3 1.1-16.75 11.53-16.75 11.53s-10.92 7.41-13.71 9.59c-2.79 2.18-12.87.85-12.87.85s-9.7-2.12-15.71-6a39.14 39.14 0 012-4.16l6.31-15.3 25-3.23 35.81-2.99z" opacity=".1"/>
    <path fill="#67647E" d="M745.93 444.25s-2.28 2.8-4.81 5.41c-1.91 2-4 3.83-5.26 4.3-3 1.09-16.75 11.53-16.75 11.53s-10.93 7.41-13.72 9.59c-2.79 2.18-12.86.85-12.86.85s-13.84-3-18.7-8.5c-3.4-3.83.12-10.93 2.52-14.84 1-1.67 1.85-2.76 1.85-2.76l67.73-5.58zM763.9 350.18c-8.26-.73-35.45-34-35.45-34l.62-.85 5.7-7.89h13.33l1.47 7.28c10.14 14.22 16.11 24.11 17.73 29.77 1.17 4.12.06 6-3.4 5.69z"/>
    <path fill="#000" d="M763.9 350.18c-8.26-.73-35.45-34-35.45-34l.62-.85a153.5 153.5 0 0113.71 14.32c19.9 23.42 23.84 16.88 24.52 14.84 1.17 4.12.06 6-3.4 5.69zM745.93 444.25s-2.28 2.8-4.81 5.41c-1.33.52-2.74.82-4.17.9-3.16-.12-10.44 4.86-10.44 4.86s-12.86-.73-15.29.6c-2.43 1.33-11.78 1.58-11.78 1.58-17.11 4.88-21.84-2.53-23.09-5 1-1.67 1.85-2.76 1.85-2.76l67.73-5.59z" opacity=".1"/>
    <path fill="#A36468" d="M775.65 371.97c0 .47-.09.94-.15 1.39l-.19 1.34a21.99 21.99 0 01-2.19 7.09c-2.18 3.64-8.86 17.84-8.86 17.84l-.45 2.62-.23 1.37-.24 1.35-1.63 9.57-.73 11.05s-4 5.58-5.7 8c-1.7 2.42-1.46 5.95-.85 8.5s-5.58 2.91-5.58 2.91-8.74 4.25-11.9 4.13c-3.16-.12-10.44 4.84-10.44 4.84s-12.86-.73-15.29.61c-2.43 1.34-11.78 1.58-11.78 1.58-18.32 5.21-22.45-3.65-23.3-5.47-.85-1.82 3.64-9.22 3.64-9.22s1-9.35 2.91-10.08c1.91-.73 4.25-13.1 4.25-13.1s-.73-3.77.85-5.83 1.46-7.89 3.52-10.68-2.18-12.14-1.45-14.57c.73-2.43-2.31-12.26-2.07-14.81.24-2.55-.6-4.61-2.55-9.71-1.66-4.35-1.19-23.68-1-29.22 0-.94.05-1.48.05-1.48s1.7-5.47 6.19-16.39c3.4-8.27 11.05-11.4 14.56-12.42.6-.18 1.21-.33 1.83-.45.88.13 1.75.34 2.58.65 3.54 1.19 10.62 4.56 20.72 14a155.5 155.5 0 0112.63 13.32c22.77 26.76 24.63 14.27 24.63 14.27s1 2.28 5.69 11.38c2.51 4.84 2.97 10.62 2.53 15.62z"/>
    <path fill="#000" d="M738.16 305.97l-22.84-18.22s-8.23 1-11.63 14.82l23.51 20.59 10.96-17.19z" opacity=".1"/>
    <path fill="#67647E" d="M738.16 305.97l-4 5.59-4.06 5.73-3.06 4.49-18.77-15.81-3.23-2.8-1.81-1.54c1.83-7.47 5.08-11.2 7.67-13a9.54 9.54 0 014-1.79l23.26 19.13z"/>
    <path fill="#EFB7B9" d="M895.23 378.1c-19.06 5.7-44.91 3.28-44.91 3.28s-25.25 6.55-29.13 10c-2.5 2.19-15.27 3-24 3.33-4.85.18-8.48.19-8.48.19l5.33-21.53 3.08-.14c6.91-.32 23.2-1.14 25.2-1.81 2.55-.85 25.12-3.76 25.12-3.76s66.84 4.73 47.79 10.44z"/>
    <path fill="#000" d="M775.31 374.65a22 22 0 01-2.19 7.09c-2.18 3.64-8.86 17.84-8.86 17.84l-.92 5.39a65.84 65.84 0 01-9-4.14l-37.9-26.25s-14.69-9.59-26.1-30c-11.41-20.41 12.14-28.4 12.14-28.4 13.71-5 41.51 25 42.6 30.83 1.09 5.83 14.45 13.11 25.37 23.91a22.2 22.2 0 004.86 3.73z" opacity=".1"/>
    <path fill="#000" d="M775.65 371.97c-.09.95-.2 1.86-.34 2.73a22 22 0 01-2.19 7.09c-2.18 3.64-8.86 17.84-8.86 17.84l-.45 2.62a64.9 64.9 0 01-9.5-4.32l-37.87-26.26s-14.69-9.59-26.1-30c-11.41-20.41 12.14-28.41 12.14-28.41 13.71-5 41.51 25 42.6 30.83 1.09 5.83 14.45 13.11 25.37 23.92a21.92 21.92 0 005.2 3.96z" opacity=".1"/>
    <path fill="#A36468" d="M791.33 372.52l-1.94 31.19-11.9 1c-.26.14-.53.25-.81.35-7.58 2.78-22.37-5.69-22.37-5.69l-37.87-26.25s-14.69-9.59-26.1-30c-11.41-20.41 12.14-28.4 12.14-28.4 13.71-5 41.51 25 42.6 30.83 1.09 5.83 14.45 13.11 25.37 23.91 1.6 1.6 3.44 2.96 5.46 4a14.92 14.92 0 0015.42-.94z"/>
    <path fill="#000" d="M791.33 372.52l-1.94 31.19-11.9 1c-.26.14-.53.25-.81.35l-.77-15.16s11.29-4.25 11.78-4.49c.49-.24-11.78-4.61-11.78-4.61v-7.25a14.91 14.91 0 0015.42-1.03z" opacity=".1"/>
    <path fill="#000" d="M797.14 394.66c-4.85.18-8.48.19-8.48.19l5.38-21.48 3.08-.14c1.98 3.41 1.13 13.43.02 21.43z" opacity=".1"/>
    <path fill="#67647E" d="M776.88 380.77s12.26 4.37 11.78 4.61c-.48.24-11.78 4.49-11.78 4.49l.85 16.63 16.63-.91s6.07-30.28.85-33.32l-18.33-.85v9.35z"/>
    <path fill="#000" d="M704.18 400.68s-4.13 3.88-7.53 4.91l7.53-4.91zM694.35 412.21s10.07-.37 11.28-2.43c1.21-2.06-11.28 2.43-11.28 2.43zM689.37 426.65c.61 0 12.74-1.7 13.23-3.28l-13.23 3.28zM685.61 435.88c4.37-.13 11.77-4.86 11.77-4.86l-11.77 4.86zM713.89 438.3s26.34 0 27.55-4.85c1.21-4.85-27.55 4.85-27.55 4.85zM733.67 370.45c.49 0 20.76 0 22.7-2.79 1.94-2.79-22.7 2.79-22.7 2.79zM711.35 290.97a18.6 18.6 0 01-.04 6.33 28.86 28.86 0 01-1.88 6.07l-.21.49a56.64 56.64 0 01-6.19 10.7 94.46 94.46 0 01-15.72 16.35c-1.02.86-2.05 1.71-3.09 2.55 0-.94.05-1.48.05-1.48s1.7-5.47 6.19-16.39c3.4-8.27 11.05-11.4 14.56-12.42l-1.81-1.54c1.83-7.47 5.08-11.2 7.67-13 .16.74.35 1.52.47 2.34zM772.64 243.89c-.3.08-.6.2-.88.35-1.9 1.05-2.45 3.54-4 5.11-1.79 1.85-4.59 2.13-7.14 2.45-2.55.32-5.4.95-6.75 3.14-1 1.63-.91 3.68-1.27 5.56-.04.34-.17.66-.39.92a1.8 1.8 0 01-1.22.4c-5 .35-8.64-1.37-13.32-2.58-2.2-.56-4.76-.49-6.44 1-1.52 1.37-1.94 3.61-1.9 5.66v.18c.21 2 .28 4 .18 6a9.9 9.9 0 01-9.01 8.41 3.07 3.07 0 01-1.5-.22c.89-1.52 1.74-3 2.52-4.51a30.1 30.1 0 1151.08-31.88l.04.01z" opacity=".1"/>
    <path fill="#444053" d="M780.88 240.05a5.08 5.08 0 01-1.67 2.05c-2.28 1.48-5.55-.15-7.93 1.17-1.91 1.05-2.45 3.54-4 5.11-1.78 1.85-4.58 2.13-7.14 2.45-2.56.32-5.39.95-6.75 3.14-1 1.63-.9 3.67-1.27 5.56-.03.34-.17.66-.39.92-.35.28-.78.42-1.22.4-5 .35-8.64-1.38-13.32-2.58-2.19-.56-4.75-.49-6.43 1-1.68 1.49-1.94 3.62-1.91 5.67.2 2.05.27 4.1.19 6.16a10 10 0 01-9 8.41 2.45 2.45 0 01-1.85-.47c-.29-.31-.5-.69-.61-1.1-3.33-9.36-3.3-19.75-7.34-28.83a32.64 32.64 0 01-1.69-4 12.02 12.02 0 01-.46-2.61c-.41.06-.8.22-1.14.47-.12.1-.23.22-.32.34a5.93 5.93 0 00-.84 3.17c-.75 12.5.47 25.04 3.6 37.17a38.82 38.82 0 011.73 9.33c-.11 3.43-.93 6.8-2.4 9.89-6.27 14.46-18.87 25.05-31.4 34.62a13.94 13.94 0 003.72-10.33 4.08 4.08 0 01-3.17 2.84c-1.48.25-3 .23-4.47-.07 1.92-.63 2.67-2.89 3.15-4.85.98-4 1.89-8.04 2.73-12.11a76.3 76.3 0 001.76-11.82c.15-3.38-.11-6.77-.25-10.16-.3-9.3.04-18.6 1-27.85.74-8 2.08-16.65 7.95-22.11a34.54 34.54 0 018.4-5.24c0-1 7.33-3 8.3-3.14.4-.08.81-.13 1.22-.14a2.51 2.51 0 012.61 1.37 23.15 23.15 0 013.08-4.29c3.81-4.2 8.75-7.16 13.16-10.72a33.82 33.82 0 015.24-3.86 18.85 18.85 0 017.85-2c4.51-.25 9.03.45 13.25 2.08 6.08 2.34 11.39 6.54 17.68 8.24 1.55.34 3.09.76 4.59 1.27a11.11 11.11 0 015.8 15.42l-.04.03z"/>
    <g fill="#000" opacity=".1">
      <path d="M679.61 329.62c.73-1.88 1.04-3.9.91-5.9a4.1 4.1 0 01-3.18 2.84c-.38.1-.77.15-1.16.17-.5 1.6-1.29 3.14-2.82 3.64 1.47.3 2.99.33 4.47.08a5.03 5.03 0 001.78-.83zM781.6 232.08a11.18 11.18 0 01-1.2 4.54c-.38.8-.96 1.49-1.68 2-2.27 1.48-5.55-.14-7.93 1.17-1.9 1.05-2.45 3.55-4 5.11-1.79 1.85-4.59 2.14-7.14 2.45-2.55.31-5.4 1-6.75 3.14-1 1.63-.91 3.68-1.27 5.56a1.42 1.42 0 01-.5 1.02 1.4 1.4 0 01-1.11.31c-5 .35-8.64-1.38-13.32-2.59-2.2-.56-4.76-.49-6.44 1-1.52 1.38-1.94 3.61-1.9 5.67.21 2.04.27 4.1.18 6.15a9.94 9.94 0 01-9 8.42 2.49 2.49 0 01-1.85-.47c-.29-.32-.5-.7-.61-1.11-3.33-9.36-3.31-19.75-7.35-28.82-.64-1.3-1.2-2.63-1.68-4-.25-.85-.41-1.72-.47-2.61a2.2 2.2 0 00-1.46.81 6.14 6.14 0 00-.84 3.17c-.47 8.01-.13 16.05 1 24-.72-6.69-.89-13.43-.49-20.14a5.93 5.93 0 01.84-3.17 2.1 2.1 0 011.46-.81c.05.88.2 1.76.46 2.61.48 1.37 1.04 2.7 1.69 4 4 9.08 4 19.46 7.34 28.82.12.41.33.8.62 1.11a2.42 2.42 0 001.84.55 10 10 0 009-8.41c.08-2.06.02-4.11-.19-6.16 0-2.06.39-4.29 1.91-5.67 1.68-1.52 4.24-1.58 6.43-1 4.68 1.2 8.3 2.93 13.32 2.58.44.02.88-.12 1.22-.4.22-.26.36-.59.39-.93.37-1.88.26-3.93 1.27-5.55 1.36-2.19 4.2-2.83 6.75-3.15 2.55-.32 5.36-.59 7.15-2.44 1.51-1.57 2.05-4.06 4-5.12 2.37-1.31 5.65.32 7.93-1.16a5.08 5.08 0 001.67-2.05 11.34 11.34 0 00.71-8.43zM710.64 289.57a25 25 0 01-2.39 9.89c-5.61 12.93-16.29 22.77-27.44 31.54a14 14 0 01-3.48 7c12.52-9.56 25.14-20.15 31.4-34.61a24.91 24.91 0 002.4-9.89c-.02-1.46-.2-2.92-.51-4.35l.02.42z" opacity=".1"/>
    </g>
    <path fill="#000" d="M711.89 231.97c-.9 4.14-2.14 9.52-3.07 12.29-.11-.58-.2-1.16-.24-1.75-.41.06-.8.22-1.13.47 0-2.91.35-7.24.65-10.48a2.52 2.52 0 012.62 1.37c.32-.64.75-1.28 1.17-1.9z" opacity=".1"/>
    <path fill="#67647E" d="M711.41 231.97c-.9 4.14-2.14 9.52-3.07 12.29-.12-.58-.2-1.16-.24-1.75-.41.06-.8.22-1.14.47 0-2.91.35-7.24.66-10.48a2.5 2.5 0 012.61 1.37c.36-.64.81-1.28 1.18-1.9z"/>
    <g opacity=".7">
      <path fill="#2E001E" d="M915.04 7.54h165.67v161.14H915.04V7.54z" opacity=".7"/>
      <path fill="#FF2BC2" d="M907.55-.03v176.24h180.73V-.03H907.55zm7.53 7.54h165.67v161.17H915.04l.04-161.17z" opacity=".7"/>
      <path fill="#FF2BC2" d="M1038.8 74.03a10.3 10.3 0 00-4.37-.76c-9.48 0-15.81 7.31-15.81 19.43 0 13.86 6.48 19.43 14.91 19.43 1.77.05 3.53-.23 5.2-.83V74.03h.07zm-33.76 19.28c0-17.55 11.29-31.26 29.82-31.26a31.3 31.3 0 013.91.16V42.63c0-.2.08-.4.22-.54a.78.78 0 01.54-.22h12.12c.6 0 .75.23.75.61v68.82a52 52 0 00.38 7.38c0 .53 0 .61-.45.83a44.92 44.92 0 01-19.28 4.37c-16.34 0-28-10.09-28-30.57h-.01zm-25.68-12.2l21.11 40.86c.38.6.15 1.2-.45 1.2h-13.1a1.47 1.47 0 01-1.58-1c-4.82-9.94-9.74-20.26-14.76-30.95h-.15a1117.67 1117.67 0 01-14.31 31 1.45 1.45 0 01-1.36.83h-12.5c-.75 0-.82-.61-.45-1.06l20.63-39.68-19.95-39.34a.67.67 0 01.14-1.04c.12-.07.25-.1.39-.09h12.95c.75 0 1.13.15 1.35.83 4.75 10 9.57 19.88 14.09 30h.15c4.36-9.94 9.18-20 13.78-29.82.37-.61.6-1 1.35-1h12.13c.6 0 .82.45.45 1.13l-19.88 38.18-.03-.05z" opacity=".7"/>
    </g>
    <g opacity=".7">
      <path fill="#EA6C00" d="M228.35 72.43l56.62 110.81-95.16-110.81h38.54zM341.6 72.43l-56.62 110.81 95.16-110.81H341.6z" opacity=".7"/>
      <path fill="#FDAD00" d="M228.35 72.43h113.23l-56.61 110.81-56.62-110.81z" opacity=".7"/>
      <path fill="#FDD231" d="M284.97 11.02l-53.64 5.67-3 55.74 56.64-61.41zM284.97 11.02l53.63 5.67 3 55.74-56.63-61.41z" opacity=".7"/>
      <path fill="#FDAD00" d="M380.14 72.43l-41.52-55.74 3 55.74h38.52zM189.81 72.43l41.52-55.74-3 55.74h-38.52z" opacity=".7"/>
      <path fill="#FEEEB7" d="M284.97 11.02l-56.62 61.41h113.23l-56.61-61.41z" opacity=".7"/>
    </g>
  </g>
  <defs>
    <linearGradient id="paint0_linear" x1="50842.4" x2="124431" y1="150743" y2="150743" gradientUnits="userSpaceOnUse">
      <stop stop-color="gray" stop-opacity=".25"/>
      <stop offset=".54" stop-color="gray" stop-opacity=".12"/>
      <stop offset="1" stop-color="gray" stop-opacity=".1"/>
    </linearGradient>
    <linearGradient id="paint1_linear" x1="-227437" x2="-227437" y1="95901.3" y2="52195.4" gradientUnits="userSpaceOnUse">
      <stop stop-color="gray" stop-opacity=".25"/>
      <stop offset=".54" stop-color="gray" stop-opacity=".12"/>
      <stop offset="1" stop-color="gray" stop-opacity=".1"/>
    </linearGradient>
    <clipPath id="clip0">
      <path fill="#fff" d="M0 0h1164.07v555.93H0z"/>
    </clipPath>
  </defs>
</svg>
