<svg xmlns="http://www.w3.org/2000/svg" fill="none" viewBox="0 0 1083 787">
  <g clip-path="url(#clip0)">
    <path fill="#EF5B59" d="M345.48 29.66C374.7 3.66 420.55-1.67 462.28.4 593.37 6.91 711.7 70.2 814.05 141.79c37.06 25.91 73.54 53.84 97.59 89.53 49 72.64 34.44 173.29-33.64 233.13-23.17 20.37-51.25 36-80.08 49.81-51.26 24.61-106.57 44.36-164.74 50-41.49 4-83.49.75-124.73-4.84-115.23-15.65-228.34-50.21-323.14-109.28-41.58-25.94-80.78-58.17-97.92-100.13-17.14-41.96-6.17-95.11 36.29-119.94 17.56-10.27 38.56-14.91 59.11-19.26 30.26-6.41 61-12.73 88.31-25.76 28.2-13.46 61.59-39.5 56-69.29-5.98-32.02-10.79-60.1 18.38-86.1zM850.44 715.01c60.45 0 109.46-3.14 109.46-7.02 0-3.88-49-7.02-109.46-7.02-60.45 0-109.46 3.14-109.46 7.02 0 3.88 49 7.02 109.46 7.02zM565.93 668.03c60.45 0 109.46-3.14 109.46-7.02 0-3.88-49-7.02-109.46-7.02-60.45 0-109.46 3.14-109.46 7.02 0 3.88 49 7.02 109.46 7.02zM164.07 779.39c60.45 0 109.46-3.14 109.46-7.02 0-3.88-49-7.02-109.46-7.02-60.45 0-109.46 3.14-109.46 7.02 0 3.88 49 7.02 109.46 7.02zM372.07 786.29c24.88 0 45.04-1.3 45.04-2.89 0-1.6-20.17-2.89-45.04-2.89-24.88 0-45.04 1.3-45.04 2.89 0 1.6 20.17 2.89 45.04 2.89zM1047 711.24c19.39 0 35.1-1 35.1-2.25 0-1.24-15.71-2.25-35.1-2.25s-35.1 1-35.1 2.25c0 1.24 15.71 2.25 35.1 2.25zM724.85 664.01c16.44 0 29.76-.86 29.76-1.91 0-1.05-13.32-1.91-29.76-1.91s-29.76.86-29.76 1.91c0 1.05 13.32 1.91 29.76 1.91z" opacity=".1"/>
    <path fill="#EF5B59" d="M1052.05 654.99s4.7 6.15-2.16 15.43-12.54 17.11-10.25 22.89c0 0 10.37-17.23 18.8-17.47 8.43-.24 2.9-10.48-6.39-20.85z"/>
    <path fill="#000" d="M1052.05 654.99c.42.6.76 1.24 1 1.93 8.23 9.67 12.61 18.69 4.7 18.92-7.37.21-16.21 13.39-18.33 16.72.07.26.15.5.25.75 0 0 10.37-17.23 18.8-17.47 8.43-.24 2.87-10.48-6.42-20.85z" opacity=".1"/>
    <path fill="#FFD037" d="M1060.8 662.82c0 2.17-.24 3.92-.54 3.92-.3 0-.54-1.75-.54-3.92s.3-1.14.6-1.14.48-1.02.48 1.14z"/>
    <path fill="#FFD037" d="M1063.8 665.41c-1.9 1-3.55 1.66-3.7 1.4-.15-.26 1.28-1.32 3.18-2.36 1.9-1.04 1.15-.28 1.29 0 .14.28 1.13-.08-.77.96z"/>
    <path fill="#EF5B59" d="M1027.24 654.99s-4.7 6.15 2.17 15.43 12.53 17.11 10.24 22.89c0 0-10.36-17.23-18.8-17.47-8.44-.24-2.89-10.48 6.39-20.85z"/>
    <path fill="#000" d="M1027.24 654.99c-.42.6-.76 1.24-1 1.93-8.23 9.67-12.62 18.69-4.71 18.92 7.37.21 16.22 13.39 18.33 16.72-.07.26-.15.5-.25.75 0 0-10.36-17.23-18.8-17.47-8.44-.24-2.85-10.48 6.43-20.85z" opacity=".1"/>
    <path fill="#FFD037" d="M1018.5 662.82c0 2.17.24 3.92.54 3.92.3 0 .55-1.75.55-3.92s-.31-1.14-.61-1.14-.48-1.02-.48 1.14z"/>
    <path fill="#FFD037" d="M1015.5 665.41c1.9 1 3.56 1.66 3.7 1.4.14-.26-1.28-1.32-3.18-2.36-1.9-1.04-1.15-.28-1.29 0-.14.28-1.13-.08.77.96z"/>
    <path fill="#A8A8A8" d="M1020.05 692.51s13.14-.4 17.1-3.22c3.96-2.82 20.21-6.19 21.2-1.67.99 4.52 19.74 22.49 4.91 22.61-14.83.12-34.47-2.31-38.43-4.71-3.96-2.4-4.78-13.01-4.78-13.01z"/>
    <path fill="#000" d="M1063.47 708.66c-14.83.12-34.47-2.31-38.42-4.72-3-1.83-4.21-8.41-4.61-11.45h-.44s.83 10.6 4.78 13c3.95 2.4 23.59 4.83 38.43 4.71 4.28 0 5.76-1.55 5.68-3.81-.6 1.39-2.23 2.24-5.42 2.27z" opacity=".2"/>
    <path fill="#EF5B59" d="M730.13 615.93s4 5.25-1.86 13.19c-5.86 7.94-10.72 14.64-8.76 19.59 0 0 8.86-14.74 16.08-15 7.22-.26 2.46-8.92-5.46-17.78z"/>
    <path fill="#000" d="M730.13 615.93c.35.5.63 1.06.82 1.65 7 8.27 10.79 16 4 16.18-6.3.18-13.87 11.46-15.68 14.31.06.22.13.43.22.64 0 0 8.86-14.74 16.08-15 7.22-.26 2.48-8.92-5.44-17.78z" opacity=".1"/>
    <path fill="#FFD037" d="M737.6 622.63c0 1.85-.21 3.35-.46 3.35s-.47-1.5-.47-3.35.26-1 .52-1 .41-.85.41 1z"/>
    <path fill="#FFD037" d="M740.17 624.84c-1.63.88-3 1.42-3.17 1.19-.17-.23 1.1-1.12 2.72-2 1.62-.88 1-.24 1.11 0 .11.24.96-.08-.66.81z"/>
    <path fill="#EF5B59" d="M708.89 615.93s-4 5.25 1.85 13.19c5.85 7.94 10.73 14.64 8.77 19.59 0 0-8.87-14.74-16.09-15-7.22-.26-2.47-8.92 5.47-17.78z"/>
    <path fill="#000" d="M708.89 615.93c-.36.5-.63 1.06-.83 1.65-7 8.27-10.79 16-4 16.18 6.31.18 13.87 11.46 15.68 14.31-.06.21-.13.43-.21.64 0 0-8.87-14.74-16.09-15-7.22-.26-2.49-8.92 5.45-17.78z" opacity=".1"/>
    <path fill="#FFD037" d="M701.41 622.63c0 1.85.21 3.35.47 3.35s.46-1.5.46-3.35-.26-1-.52-1-.41-.85-.41 1z"/>
    <path fill="#FFD037" d="M698.85 624.84c1.62.88 3 1.42 3.16 1.19.16-.23-1.09-1.12-2.72-2-1.63-.88-1-.24-1.11 0-.11.24-.96-.08.67.81z"/>
    <path fill="#A8A8A8" d="M702.69 648.03s11.24-.35 14.63-2.76c3.39-2.41 17.3-5.3 18.14-1.43.84 3.87 16.89 19.25 4.2 19.35-12.69.1-29.49-2-32.87-4-3.38-2-4.1-11.16-4.1-11.16z"/>
    <path fill="#000" d="M739.89 661.84c-12.7.11-29.5-2-32.88-4-2.57-1.57-3.6-7.2-3.94-9.8h-.38s.71 9.06 4.1 11.12c3.39 2.06 20.18 4.14 32.87 4 3.66 0 4.93-1.33 4.86-3.26-.47 1.24-1.91 1.92-4.63 1.94z" opacity=".2"/>
    <g opacity=".8">
      <path fill="#E74D89" d="M147.78 621.77a74.78 74.78 0 11-.06 149.55 74.78 74.78 0 01.06-149.55z" opacity=".8"/>
      <path fill="#B2215A" d="M147.78 776.65a80.11 80.11 0 1180.2-80.14 80.21 80.21 0 01-80.2 80.14zm67.61-69.17a100.9 100.9 0 00-42.67-3 291.93 291.93 0 0113.33 48.8 68.06 68.06 0 0029.34-45.8zm-40.85 52.12a285.28 285.28 0 00-14.6-51.87c-.14.07-.29.1-.44.12-38.66 13.47-52.51 40.23-53.76 42.73a68.24 68.24 0 0042 14.41c9.2.06 18.3-1.77 26.76-5.39h.04zm-77.63-17.23c1.56-2.63 20.36-33.7 55.7-45.17.87-.31 1.81-.56 2.69-.81a173.12 173.12 0 00-5.58-11.59c-34.2 10.21-67.41 9.77-70.42 9.71 0 .69-.06 1.38-.06 2.06a68.4 68.4 0 0017.67 45.8zM80.74 682.6c21.37-.1 42.64-2.9 63.31-8.33a438.2 438.2 0 00-25.38-39.54 68.66 68.66 0 00-37.93 47.87zm51-52.5a359.82 359.82 0 0125.57 40c24.37-9.14 34.64-22.93 35.9-24.68a68.28 68.28 0 00-45.43-17.23c-5.4.04-10.78.7-16.04 1.95v-.04zm69.05 23.24c-1.44 1.95-12.91 16.67-38.22 27 1.56 3.26 3.13 6.58 4.57 9.9.5 1.19 1 2.38 1.51 3.51 22.8-2.89 45.42 1.75 47.68 2.19a68.22 68.22 0 00-15.54-42.61v.01z" opacity=".8"/>
    </g>
    <path fill="url(#paint0_linear)" d="M333.23 468.3c-1.81-2.27-3.87-17.88-3.87-17.88l-8-39.78-4.14-22.92s-1-28.95-19.12-43.31l-1.41-1.11v-.77c-.17-2.8-.78-5.55-1.81-8.15a5.77 5.77 0 01-.65-2.73c.05-.37.17-.73.36-1.06a8.91 8.91 0 013.26-2.74c3.29-2 6.09-5.15 6.85-8.88v-.25c0-.16 0-.33.07-.5.07-.17 0-.18 0-.28v-.74-.62-.13c0-.23-.05-.47-.09-.7v-.05a8.1 8.1 0 00-4.64-6.28 3 3 0 002.05-1.71 3.97 3.97 0 00.42-1.53v-.12-.66-.21a4.37 4.37 0 00-.14-.65v-.17l-.06-.14c-.67-1.92-2.26-3.4-3.63-4.94-7.9-8.85-9.43-21.3-11.58-32.84-1.19-6.4-3.44-13.69-9.64-16.12-1.75-.56-3.53-1-5.34-1.36-5.5-1.46-10-5.3-15.38-7.18a23.23 23.23 0 00-11.31-.95c-2.89.48-5.31 1.9-8.1 2.57-6 1.47-13.28-.17-18 4.68-3.31 3.37-3.57 8.51-5.2 12.9-3.08 8.15-11.08 14.08-13.15 22.55-1.33 5.46.05 11 1.5 16.49a60.29 60.29 0 012.2 11.3c.06.97.06 1.93 0 2.9-.21 2.82-.85 5.6-1.89 8.22-6.76 2.5-13.75 5.45-14.27 7.11-1 3.27-17.32 12.59-17.32 12.59s-6.2 5.29-6.2 7.3-2.06 8.31-3.36 8.31c-1.3 0-3.87 25.43-3.87 25.43v26.44s-9.55 31.22-11.75 58.92c0 0-3.86 17.69 2.44 27.84a14.2 14.2 0 003.11 3.63l3.22 8.41a19.88 19.88 0 014.26-5l.56 3.65c.27 1.72.59 3.67 1 5.76-2 3.13-6.83 9.68-12.63 12.13-5.36 2.26 1.62 8.24 6.44 11.73-1.28 6.37-3.13 14.19-4.63 15.21-2.59 1.76-10.85 23.92-10.85 23.92s-16.27 38 7.11 42.3c23.38 4.3 35.3-5.79 35.3-5.79h5.6s6.81-3.84 7-11.78c3.81-3.14 9.66-8.12 10.85-10.13 1.19-2.01-2.09-8.55-4.17-12.12l.55-1s22.23-28.45 25.07-25.43c2.84 3.02 4.65 7.8 3.36 10.83l1.22 17.43v27.19s-3.19 12.34 0 13.6c3.19 1.26 0 6 0 6s1.19 5.54 1.41 7.3c.11 2.27.11 4.53 0 6.8l-1.07 27.2-2.07 40.28s-2.32 3.28-.51 5.54c1.81 2.26 1 7.56.51 8.56-.49 1-.77 9.32-.77 9.32s-7.5 7.8-1.55 9.82l.23.07c-2.46 2.28-2.49 7.41-2.3 9 .19 1.59-1.58 8-2.91 11.63a9 9 0 01-1.22 2.59c-.91.64 0 7.69 0 7.69s29.06 2.39 31.52 0c1-.93.75-3.19.05-5.8a59.97 59.97 0 00-4.44-10.95c-1.69-3.14-.9-7.17-.9-7.17v-3c1.95.31 3.22.49 3.22.49s3.62-3 2.07-5.79c-1.55-2.79 2.84-18.37 2.84-18.37s4.91-17.63 4.91-19.39c0-1.76 6.46-24.67 6.46-24.67s9.56-40.54 4.91-59.68c0 0 4.13-4.78 3.61-6-.52-1.22-1.72-6.55.05-8.81 1.77-2.26 9.26-30.47 11.33-35.25.95-2.21 3.33-8.31 5.61-14.26 10.29-1.54 22.55-4.38 22.55-4.38s-1.83-7.79-3.19-15.75l1.12-5.47.4-1.89c.92.9 1.75 1.91 2.45 3l2.06-10.07s.23-.35.62-1c2.41-3.77 11.19-17.32 15.4-21.43 4.91-4.87 1.82-26.53 0-28.79z"/>
    <path fill="#925978" d="M270.54 299.83h-28.5v32h28.5v-32z"/>
    <path fill="#000" d="M270.54 299.83h-28.5v32h28.5v-32z" opacity=".1"/>
    <path fill="#FF6484" d="M200.28 575.58s7.25 11.5 5.5 14.5-13.73 12.75-13.73 12.75l-3.54-24 11.77-3.25z"/>
    <path fill="#575988" d="M177.78 612.58l5.29-.75h5.42s7.2-4.14 6.79-12.75c-.41-8.61 0-17 0-17l-17.5 30.5z"/>
    <path fill="#000" d="M177.78 612.58l5.29-.75h5.42s7.2-4.14 6.79-12.75c-.41-8.61 0-17 0-17l-17.5 30.5z" opacity=".1"/>
    <path fill="#575988" d="M188.49 495.33l-30 33s-3.5 21.75-6 23.5-10.44 23.75-10.44 23.75-15.73 37.75 6.88 42 34.12-5.75 34.12-5.75l19.2-34.75s21.51-28.25 24.26-25.25 4.5 7.75 3.25 10.75l1.17 17.25v27s-3.08 12.25 0 13.5 0 6 0 6 1.16 5.5 1.37 7.25c.21 1.75 0 6.75 0 6.75l-1 27-2 40s-2.25 3.25-.5 5.5 1 7.5.5 8.5-.75 9.25-.75 9.25-7.25 7.75-1.5 9.75 22.5 4.5 22.5 4.5 3.5-3 2-5.75 2.75-18.25 2.75-18.25 4.75-17.5 4.75-19.25 6.25-24.5 6.25-24.5 9.25-40.25 4.75-59.25c0 0 4-4.75 3.5-6s-1.67-6.5 0-8.75 9-30.25 11-35 10.5-27.75 10.5-27.75v-42.5l-106.56-2.5z"/>
    <path fill="#FFC5CB" d="M278.05 344.58l-17.26 32.61-4.55 8.58-.69 1.31-44.5 1.75s-1.27-2.81-3.07-7.17c-3.11-7.55-7.81-19.77-10.18-30.08a61.86 61.86 0 01-1.3-7.49c-.66-6.24.34-10.69 4.34-11.07 1.01-.1 2.03.01 3 .31 2.78.82 5.7 1.1 8.58.83 10.56-1.28 13.65-12.43 14.17-22.91 0-.74.07-1.48.08-2.21 0-2.27 0-4.47-.15-6.49-.2-3.43-.6-6.84-1.18-10.22a43.47 43.47 0 018.26-3.05c8.44-2.16 20.33-2.1 20.49 15.3-.02 3.86.36 7.7 1.14 11.48a25.9 25.9 0 002.15 6.21c2.93 5.63 7 6.24 8.91 6.17.35 0 .7-.04 1.05-.11l10.71 16.25z"/>
    <path fill="#000" d="M233.63 363.46c.62 1.77.93 3.63.93 5.51.19 1.97.14 3.97-.14 5.93a8.41 8.41 0 01-2.78 5.13M246.22 318.6a26.75 26.75 0 100-53.5 26.75 26.75 0 000 53.5z" opacity=".1"/>
    <path fill="#FFC5CB" d="M272.96 290.85a26.74 26.74 0 11-53.47.02 26.74 26.74 0 0153.46-.02h.01z"/>
    <path fill="#000" d="M203.28 357.58s9.5 24.75 29.5 20.75c0 0 20.19 1.58 31.75-13.25 11.56-14.83 12.25 85 12.25 85l-4.5 66.25s-32.23 19.25-46.23 16.75-20.75-10-20.75-10-14.75-13.75-18.75-15.5 1.75-87 1.75-87l4.75-32 10.23-31z" opacity=".1"/>
    <path fill="#E8F4FF" d="M203.28 355.58s9.5 24.75 29.5 20.75c0 0 20.19 1.58 31.75-13.25 11.56-14.83 12.25 85 12.25 85l-4.5 66.25s-32.23 19.25-46.23 16.75-20.75-10-20.75-10-14.75-13.75-18.75-15.5 1.75-87 1.75-87l4.75-32 10.23-31z"/>
    <path fill="#000" d="M202.28 495.33s21.5 24 20.25 26.5-20.75-19.25-20.25-26.5zM198.58 435.65s6.87 9.6 11.17 8.6l-11.17-8.6z" opacity=".1"/>
    <path fill="#000" d="M213.43 333.33s0 .29-.07.83c-.23 3.07-1.09 14.2-2.25 26.6-.65 7-1.39 14.34-2.15 20.9-1.24 10.67-2.56 19.21-3.68 20.42-3.25 3.5-2 36.5-2 36.5v41.75s-2.74 13.25-5 16.25-7.78 14.25-12.2 15.75a15.48 15.48 0 00-4.13 3.29c-4 4-9.66 10.67-14 15.93-3.58 4.39-6.23 7.78-6.23 7.78s-17.5-11-10-14.25c5.61-2.43 10.25-8.93 12.22-12 .67-1 1-1.71 1-1.71.35-2.33.89-4.63 1.59-6.88a23.42 23.42 0 012.77-6 6.84 6.84 0 014.14-3.13c6.5-1.25 9.75-63 9.75-63l-20-43.64-2-4.36s2.5-25.25 3.75-25.25 3.25-6.25 3.25-8.25 6-7.25 6-7.25 15.86-9.28 16.86-12.53c.53-1.71 7.8-4.8 14.57-7.34 6.08-2.28 11.75-4.12 11.75-4.12 3.31 5.04-3.94 13.71-3.94 13.71z" opacity=".1"/>
    <path fill="#FF6484" d="M212.43 333.33s0 .29-.07.83c-.23 3.07-1.09 14.2-2.25 26.6-.65 7-1.39 14.34-2.15 20.9-1.24 10.67-2.56 19.21-3.68 20.42-3.25 3.5-2 36.5-2 36.5v41.75s-2.74 13.25-5 16.25-7.78 14.25-12.2 15.75a15.48 15.48 0 00-4.13 3.29c-4 4-9.66 10.67-14 15.93-3.58 4.39-6.23 7.78-6.23 7.78s-17.5-11-10-14.25c5.61-2.43 10.25-8.93 12.22-12 .67-1 1-1.71 1-1.71.35-2.33.89-4.63 1.59-6.88a23.42 23.42 0 012.77-6 6.84 6.84 0 014.14-3.13c6.5-1.25 9.75-63 9.75-63l-20-43.64-2-4.36s2.5-25.25 3.75-25.25 3.25-6.25 3.25-8.25 6-7.25 6-7.25 15.86-9.28 16.86-12.53c.53-1.71 7.8-4.8 14.57-7.34 6.08-2.28 11.75-4.12 11.75-4.12 3.31 5.04-3.94 13.71-3.94 13.71z"/>
    <path fill="#000" d="M311.87 390.77l-21.59 25.31s18.75 97.25 16.5 101.75c-.17.37-.28.77-.33 1.18-.23 2.33-.19 4.68.13 7 .26 2.45.66 5.17 1.11 7.88a307.8 307.8 0 003.09 15.64s-25.25 6-33 5.25-3.25-13.25-2-19-8.5-13.8-8.5-13.8l-13.75-56.45s-1-12.5-4-18.5-.25-12.5-1.25-21c-.71-6.06 3.65-27.72 6.94-40.31 1.25-4.79 2.35-8.26 3-9.07a.64.64 0 01.1-.12c2-1.75 0-12 0-12s4.75-27 4.25-29.25c-.28-1.28 1.29-4.42 2.7-6.89 1.07-1.87 2.05-3.36 2.05-3.36s9.67 6.13 26.25 19.53l1.5 1.22c17.5 14.25 18.5 43 18.5 43l-1.7 1.99z" opacity=".1"/>
    <path fill="#FF6484" d="M312.87 390.77l-21.59 25.31s18.75 97.25 16.5 101.75c-.17.37-.28.77-.33 1.18-.23 2.33-.19 4.68.13 7 .26 2.45.66 5.17 1.11 7.88a307.8 307.8 0 003.09 15.64s-25.25 6-33 5.25-3.25-13.25-2-19-8.5-13.8-8.5-13.8l-13.75-56.45s-1-12.5-4-18.5-.25-12.5-1.25-21c-.71-6.06 3.65-27.72 6.94-40.31 1.25-4.79 2.35-8.26 3-9.07a.64.64 0 01.1-.12c2-1.75 0-12 0-12s4.75-27 4.25-29.25c-.28-1.28 1.29-4.42 2.7-6.89 1.07-1.87 2.05-3.36 2.05-3.36s9.67 6.13 26.25 19.53l1.5 1.22c17.5 14.25 18.5 43 18.5 43l-1.7 1.99z"/>
    <path fill="#000" d="M267.28 404.33c-.25 2 6 108.25 12.5 114.5l-12.5-114.5z" opacity=".1"/>
    <path fill="#FFC5CB" d="M182.99 552.08c-7 4.4-12.34-7.18-16-20.53-1.71-6.27-3-12.93-4-18.51-.37-2.08-.68-4-.94-5.72-.69-4.46-1-7.38-1-7.38l7.36-1.48 8.14-1.63 1 9.19.47 4.17s1.28 2.12 3 5.43c4.83 9.68 13.03 29.57 1.97 36.46zM311.53 519.88l-1.75 8.63-1.09 5.43-.06.27s-21.85 29.62-28.85 17.37c-5.35-9.36 7.7-24.71 14.14-31.42 2-2.08 3.36-3.33 3.36-3.33l10.17 2.18 4.08.87z"/>
    <path fill="#FF6484" d="M251.53 771.08c-2.38 2.37-30.5 0-30.5 0s-.88-7 0-7.63a8.8 8.8 0 001.18-2.58c1.29-3.65 3-10 2.82-11.54-.25-2.12-.12-10.62 5.62-10 0 0 7.5-15.25 15.76 3.5v4.5a12.5 12.5 0 00.87 7.12 60.65 60.65 0 014.3 10.87c.68 2.59.88 4.82-.05 5.76z"/>
    <path fill="#E8F4FF" d="M251.53 771.08c-2.38 2.37-30.5 0-30.5 0s-.88-7 0-7.63c.53-.8.93-1.66 1.18-2.58 3.72-1.59 8.78-3.13 12.32-1.79 4.47 1.7 12.72 4.68 17 6.24.73 2.59.93 4.82 0 5.76z"/>
    <path fill="#000" d="M226.53 311.25c.71 2.86 1.69 5.75 1.73 8.67.06 4-1.67 7.86-3.51 11.46-2.1 4.12-4.47 8.54-3.77 13.11.38 1.73.88 3.44 1.49 5.1a22.39 22.39 0 01-1.42 16.12c-1.64 3.31-5 6.51-8.59 5.44-.27-3.53-.71-7.38-2.38-10.39a9.91 9.91 0 00-2.67-3.14c-2.6-2-6.19-2.42-8.55-4.68-.42-.4-.8-.86-1.11-1.36a10.44 10.44 0 01-1.4-6.44c0-.34.07-.68.13-1 .48-2.43 1.3-4.79 2.42-7 .62-1.34 1.27-2.68 1.92-4 1.5-2.99 2.77-6.1 3.78-9.28 6.08-2.28 11.75-4.12 11.75-4.12 3.33 5-3.92 13.71-3.92 13.71s0 .29-.07.83c10.56-1.4 13.69-12.55 14.17-23.03zM241.51 273.63c-2.92.93-5.71 2.79-7 5.59-1.38 3.1-.67 6.68-1 10.06-.07.74-.22 1.47-.42 2.19-1.24 4.15-5.13 7.08-6.66 11.08a11.71 11.71 0 00-.51 5.74 26.73 26.73 0 1133.9 5.58c1.13-3.37 2.32-6.73 3.24-10.17 2.16-8.09 2.53-17.44-2.56-24.09a17.81 17.81 0 00-18.99-5.98zM293.75 354.6c-.88 3.19-3.12 6.69-6.42 6.54-1.57-.07-3-1-4.57-1.15-2.23-.2-4.34 1.24-5.68 3a40.61 40.61 0 00-3.16 5.94c-2.46 4.78-7.28 9.08-12.6 8.33l-.55-.1a8.2 8.2 0 01-1.59-.49c-4.77-2-7.35-8.14-7.18-13.57.2-6.19 2.79-12.05 3.64-18.19.79-5.66.07-11.43.68-17.11.2-1.87.54-3.73 1-5.56 2.93 5.63 7 6.24 8.91 6.17 1.07-1.87 2.05-3.36 2.05-3.36s9.67 6.13 26.25 19.53c.38 3.36.11 6.76-.78 10.02z" opacity=".1"/>
    <path fill="#925978" d="M256.05 243.91c5.19 1.87 9.56 5.68 14.88 7.13 1.75.34 3.47.8 5.17 1.34 6 2.41 8.18 9.65 9.33 16 2.07 11.46 3.56 23.82 11.2 32.61 1.36 1.56 2.94 3.06 3.57 5 .63 1.94-.22 4.62-2.25 5.05 3.48 1.47 5.19 5.77 4.46 9.48-.73 3.71-3.44 6.77-6.63 8.81-1.49 1-3.29 2-3.49 3.76-.01.94.2 1.88.63 2.72a26.87 26.87 0 01.85 16.74c-.88 3.18-3.12 6.69-6.42 6.54-1.57-.07-3-1-4.56-1.15-2.24-.2-4.34 1.24-5.69 3a40.08 40.08 0 00-3.16 5.94c-2.45 4.78-7.27 9.08-12.6 8.33-6.13-.87-9.51-8-9.32-14.16.19-6.16 2.8-12.05 3.65-18.19.78-5.66.06-11.43.68-17.11.9-8.32 4.61-16.05 6.77-24.13 2.16-8.08 2.52-17.44-2.57-24.09a17.8 17.8 0 00-19-6c-2.93.93-5.71 2.79-7 5.59-1.68 3.78-.25 8.28-1.43 12.25-1.33 4.46-5.73 7.52-7 12-1.48 5.39 2 10.87 2.1 16.45.06 4-1.67 7.86-3.5 11.46-2.11 4.12-4.48 8.54-3.77 13.11.38 1.73.87 3.44 1.48 5.1a22.44 22.44 0 01-1.38 16.22c-1.64 3.31-5.06 6.51-8.59 5.44-.39-4.95-1.09-10.53-5.05-13.53-2.61-2-6.2-2.42-8.56-4.69a9.65 9.65 0 01-2.53-7.82 24.47 24.47 0 012.55-8.06c2.87-6.2 6.36-12.38 6.76-19.2.6-10.29-6-20.43-3.6-30.47 2-8.4 9.76-14.29 12.7-22.41 1.57-4.36 1.82-9.47 5-12.82 4.6-4.81 11.63-3.18 17.45-4.63 2.7-.68 5-2.08 7.84-2.55 3.7-.65 7.5-.32 11.03.94z"/>
    <path fill="#000" d="M185.05 457.31v32.5c0 1.34 0 2.73-.08 4.13-.34 9-1.71 18.37-1.71 18.37a30.14 30.14 0 00-5.72-6.29c-4.79-3.77-8.87-3.29-11.94-1.57a15 15 0 00-3.56 2.87c-.69-4.46-1-7.38-1-7.38l7.36-1.48a6.83 6.83 0 014.14-3.13c6.5-1.25 9.75-63 9.75-63l-20-43.64v-2.13l6.76-10.75c11.25-9.75 14 4.25 14 4.25s2 38 2 39v38.25z" opacity=".1"/>
    <path fill="#FF6484" d="M183.05 455.08v32.5c0 1.34 0 2.73-.08 4.13-.34 9-1.71 18.37-1.71 18.37-14-19.75-23.88-1.4-23.88-1.4l-3.12-8.35a14.09 14.09 0 01-3-3.6c-6.09-10.08-2.36-27.65-2.36-27.65 2.13-27.5 11.37-58.5 11.37-58.5v-26.25l6.78-10.75c11.25-9.75 16 4.25 16 4.25v77.25z"/>
    <path fill="#000" d="M182.99 490.71c-.34 9-1.71 18.37-1.71 18.37-14-19.75-23.88-1.4-23.88-1.4l-3.12-8.35a14.09 14.09 0 01-3-3.6c6.52-3.59 20.89-10.21 31.71-5.02z" opacity=".1"/>
    <path fill="#FF6484" d="M182.99 491.71c-.34 9-1.71 18.37-1.71 18.37-14-19.75-23.88-1.4-23.88-1.4l-3.12-8.35a14.09 14.09 0 01-3-3.6c6.52-3.59 20.89-10.21 31.71-5.02z"/>
    <path fill="#fff" d="M182.99 491.71c-.34 9-1.71 18.37-1.71 18.37-14-19.75-23.88-1.4-23.88-1.4l-3.12-8.35a14.09 14.09 0 01-3-3.6c6.52-3.59 20.89-10.21 31.71-5.02z" opacity=".1"/>
    <path fill="#000" d="M164.05 424.08s4.5 24.75 9 32-9-32-9-32zM152.53 466.08s2.75 15 8.5 16.75-8.5-16.75-8.5-16.75zM307.45 519.01l4.08.87-1.75 8.63a21.46 21.46 0 00-15.86-8.35c-2.22-.14-4.45 0-6.64.42.95-3.4 1.58-6.88 1.88-10.39a6.7 6.7 0 00-.63-3.86c-2-2.75-3-28.25-3-28.25s1.75-13 2.75-15.5-4.5-15.28-4.25-19.14c.25-3.86 3.25-37.11 3.25-38.86s6.5-36 20-23l5.25 7.25.34 1.94-21.59 25.31s18.75 97.25 16.5 101.75c-.17.37-.28.77-.33 1.18z" opacity=".1"/>
    <path fill="#FF6484" d="M330.05 497.33c-4.08 4.08-12.57 17.54-14.9 21.28l-.6 1-2 10s-7-12-23.25-9c.95-3.4 1.58-6.88 1.88-10.39a6.7 6.7 0 00-.63-3.86c-2-2.75-3-28.25-3-28.25s1.75-13 2.75-15.5-4.5-15.28-4.25-19.14c.25-3.86 3.25-37.11 3.25-38.86s6.5-36 20-23l5.25 7.25 4 22.75 7.75 39.5s2 15.5 3.75 17.75 4.73 23.72 0 28.47z"/>
    <path fill="#000" d="M315.13 517.61l-.6 1-2 10s-7-12-23.25-9c.95-3.4 1.58-6.88 1.88-10.39 5.57.35 16.79 1.92 23.97 8.39z" opacity=".1"/>
    <path fill="#FF6484" d="M315.13 518.61l-.6 1-2 10s-7-12-23.25-9c.95-3.4 1.58-6.88 1.88-10.39 5.57.35 16.79 1.92 23.97 8.39z"/>
    <path fill="#fff" d="M315.13 518.61l-.6 1-2 10s-7-12-23.25-9c.95-3.4 1.58-6.88 1.88-10.39 5.57.35 16.79 1.92 23.97 8.39z" opacity=".1"/>
    <path fill="#000" d="M298.78 448.33s17-.2 19.5 8.64c2.5 8.85-19.5-8.64-19.5-8.64zM295.53 473.33s28.75-1.25 27.5 11.25-27.5-11.25-27.5-11.25zM297.28 492.58s2.25-.5 3.75 4.75-3.75-4.75-3.75-4.75zM239.05 614.83s6.85-2 10 0c3.15 2-10 0-10 0zM240.28 622.08s16.25.25 17.75 2-17.75-2-17.75-2z" opacity=".1"/>
    <g fill="#000" opacity=".1">
      <path d="M205.67 312.85c.48-8.18-3.55-16.25-4.05-24.26-.52 8.08 3.58 16.22 4 24.46l.05-.2zM224.76 326.37c-2.08 4.06-4.4 8.4-3.8 12.91.43-3.43 2.19-6.75 3.8-9.9 1.83-3.6 3.56-7.42 3.51-11.46 0-.44-.03-.88-.09-1.32-.35 3.42-1.85 6.68-3.42 9.77zM297.93 308.08c.74.31 1.42.76 2 1.32.5-1.05.6-2.25.26-3.36 0 0 0-.09-.05-.14a3.07 3.07 0 01-2.21 2.18zM221.05 360.7c-1.64 3.31-5.06 6.51-8.59 5.44-.39-4.95-1.09-10.53-5.05-13.53-2.61-2-6.2-2.42-8.55-4.68a8.79 8.79 0 01-2.48-5.3c0 .16-.05.32-.06.48a9.63 9.63 0 002.54 7.82c2.35 2.27 5.94 2.72 8.55 4.69 4 3 4.66 8.58 5.05 13.53 3.53 1.07 6.95-2.13 8.59-5.44a22.42 22.42 0 002.21-11.31 22.2 22.2 0 01-2.21 8.3zM302.39 317.56c-.73 3.7-3.44 6.77-6.62 8.81-1.5 1-3.3 2-3.5 3.76-.05.69.07 1.37.34 2a8.76 8.76 0 013.16-2.72c3.18-2 5.89-5.1 6.62-8.8a9.1 9.1 0 000-3.26v.21zM293.75 349.59c-.88 3.18-3.11 6.69-6.42 6.54-1.57-.07-3-1-4.56-1.15-2.24-.2-4.34 1.24-5.69 3a39.75 39.75 0 00-3.15 5.94c-2.46 4.78-7.28 9.08-12.6 8.33-5.32-.75-8.73-6.48-9.25-12.09 0 .31-.07.62-.07.94-.2 6.19 3.18 13.29 9.32 14.16 5.32.75 10.14-3.55 12.6-8.33a39.29 39.29 0 013.15-5.94c1.35-1.79 3.45-3.23 5.69-3 1.56.15 3 1.08 4.56 1.15 3.31.15 5.54-3.36 6.42-6.54.77-2.82 1.07-5.74.89-8.66a26.4 26.4 0 01-.89 5.65zM260.53 277.61a21 21 0 014 12c.26-5.44-.76-10.8-4-15.06a17.8 17.8 0 00-19-6c-2.93.93-5.71 2.79-7 5.59-1.69 3.78-.26 8.29-1.44 12.25-1.33 4.46-5.73 7.52-7 12a11.49 11.49 0 00-.26 4.4c.05-.47.14-.93.26-1.39 1.23-4.48 5.63-7.54 7-12 1.18-4-.25-8.47 1.44-12.25 1.25-2.8 4-4.66 7-5.59a17.8 17.8 0 0119 6.05z" opacity=".1"/>
    </g>
    <g opacity=".8">
      <path fill="#1769FF" d="M567.86 661.02a80.2 80.2 0 100-160.4 80.2 80.2 0 000 160.4z" opacity=".8"/>
      <path fill="#fff" d="M544.31 544.47c3.18-.03 6.35.28 9.47.92 2.62.51 5.1 1.53 7.33 3a14.06 14.06 0 014.73 5.55 19.37 19.37 0 011.69 8.56 16 16 0 01-2.5 9.16 18.14 18.14 0 01-7.38 6c4.03 1 7.58 3.4 10 6.77a22.23 22.23 0 011.17 21.18 18.41 18.41 0 01-5.75 6.56 25.5 25.5 0 01-8.25 3.77c-3.1.81-6.3 1.22-9.51 1.22h-35.2v-72.69h34.2zm-2 29.42c2.49.1 4.94-.6 7-2 1.84-1.33 2.76-3.54 2.75-6.62a8.47 8.47 0 00-.92-4.17 6.8 6.8 0 00-2.44-2.55 10.4 10.4 0 00-3.51-1.27 23.73 23.73 0 00-4.13-.35h-15v17l16.25-.04zm.92 30.84c1.5 0 3-.15 4.48-.46 1.34-.27 2.61-.78 3.76-1.52 1.1-.73 2-1.73 2.6-2.9.7-1.46 1.05-3.07 1-4.69 0-3.72-1.05-6.39-3.16-8a13.45 13.45 0 00-8.35-2.4h-17.4v20l17.07-.03zm47.9-1.53c2.17 2.1 5.3 3.16 9.36 3.16a12.9 12.9 0 007.56-2.22 9.08 9.08 0 003.87-4.63h12.72c-2.04 6.31-5.16 10.83-9.37 13.54a27.6 27.6 0 01-15.32 4.09c-3.82.05-7.62-.63-11.19-2a23.26 23.26 0 01-8.45-5.65 25.4 25.4 0 01-5.35-8.75 32.22 32.22 0 01-1.88-11.2c-.04-3.75.62-7.48 1.93-11a25.46 25.46 0 0114-14.65c3.46-1.46 7.2-2.2 10.95-2.14 4.06-.1 8.07.8 11.71 2.6a23.38 23.38 0 018.19 7c2.18 3 3.75 6.4 4.63 10a37.2 37.2 0 011 11.71h-38c.2 4.66 1.39 8.06 3.56 10.15l.08-.01zm16.34-27.68c-1.73-1.9-4.36-2.85-7.89-2.85-1.98-.07-3.95.33-5.75 1.17a10.75 10.75 0 00-5.6 6.56 17.05 17.05 0 00-.66 3.46h23.48c-.67-3.66-1.87-6.44-3.62-8.34h.04zm-22.42-27.38h29.37v8.15h-29.37v-8.15z" opacity=".8"/>
    </g>
    <g opacity=".8">
      <path fill="#B3BBC6" d="M930.28 627.79v2.27a80.22 80.22 0 01-80.16 77.92 80.2 80.2 0 1180.2-80.19h-.04z" opacity=".8"/>
      <path fill="#666C76" d="M930.24 630.06a80.22 80.22 0 01-70.51 77.35l-65.48-48.71 8.18-53 32.38 2 18.42 15.44 13.1-21.35 22 18.28 11.83 8.47v-26.73l29.82 27.6c.07.22.18.43.26.65z" opacity=".8"/>
      <path fill="#fff" d="M844.34 629.76c0-17-10.45-28.52-30.35-28.52h-19.65v57.22h20.06c19.32 0 29.94-11.7 29.94-28.7zm-14.27.09c0 12.27-6.3 17.58-16.41 17.58h-5.15v-35.16h5.15c9.7 0 16.41 5.55 16.41 17.58zm70.74 28.61v-57.22h-13.19v32l-21.06-32h-13.77v57.21h13.19v-34.24l22.55 34.24h12.28v.01z" opacity=".8"/>
    </g>
    <path fill="url(#paint1_linear)" d="M869.98 542.47c-1-2-10.33-15.38-10.33-15.38l-.28-1.2-3.06-13.65-.21-1c2-.51 3.44-1.14 3.89-1.93 2.2-3.85-1.86-8.53-1.86-8.53l-.85-20.24-2.2-49s-4.57-16.4-5.25-20.24c-.68-3.84-6.94-11.88-6.94-11.88s1.35-4-.34-6.86c-1.69-2.86-5.42-16.23-5.42-16.23l-3.21-37-1.53-36.4c1.53-.01 3.07.13 4.57.43.22.18.1-.27-.22-1.08.08.01.15.04.22.08.52.42-.87-2.71-2.37-5.9l-.18-.37c.72-2.61 3.7-13.18 5.77-17 1.54-2.82-1.42-22.29-3.68-35.59l-.47-2.74c3.67-6.42 7.88-13.7 7.88-13.7s10.66-30.44 15.06-43.66c4.4-13.22 0-47.5 0-47.5s0-1.68-.24-4.3c-.69-7.08-3.33-20.93-13.47-26.31-13.88-7.36-18.28-16.39-18.28-16.39s-17.32-15.76-19.51-10.47l-.15-.3a34.6 34.6 0 01-2.83-8.33l-.16-.89a26.8 26.8 0 005.7-6.18c0 .44-.07.88-.1 1.32v1.21V66.14a3.17 3.17 0 003.15-1.75c.54-1.15.9-2.39 1.07-3.65a22.5 22.5 0 013.17-7.56c1.48-2.27 3.46-4.55 3.72-7.14.04-.38.04-.76 0-1.14-.13-1.32-.75-2.55-.94-3.86a8.16 8.16 0 010-2c0-.39.09-.78.15-1.16.06-.38.16-1 .23-1.56s.13-.87.18-1.31v-.05c.14-1.15.14-2.32 0-3.47a6.7 6.7 0 00-3.24-5.22c-1-.51-2.15-.67-3.15-1.18-2.64-1.35-3.48-4.59-5-7.09a12.5 12.5 0 00-9.9-5.69c-4-.16-7.92 1.59-11.85 1-2.51-.4-4.82-1.76-7.36-1.94-3.71-.26-7.05 2-10.06 4.17-2.13 1.53-4.4 3.26-5.1 5.78-.56 2.06 0 4.43-1.16 6.23-.75 1.17-2.11 1.84-2.95 3a5 5 0 00-1 3.21V34.62c.07.77.21 1.55.34 2.31v.24c.3 2.11-.38 3.59-1.14 5.65-.32.87-.5 1.78-.54 2.71v.34.58c.09.72.4 1.4.9 1.92a3 3 0 011-1v.97a26.36 26.36 0 008 18.9c0 .29-.08.59-.12.88-.43 3-1 6.3-1.69 9.46l-.24 1h-5s.85-3.68-7.45.84c-8.3 4.52-18.46 6.69-20 7.52-1.54.83-20.31 15.4-20.31 15.4s-16.26 9.36-15.75 25.42l-1.86 18-1.35 33.62s-2.54 28.61 0 32.62c2.54 4.01 6.94 27.77 6.09 30.78-.61 2.18 5.52 17.5 9.78 26.43a36.16 36.16 0 00-3.17 3.84s-1.7 6.7-1.7 7.37c0 0 0 .07.08.11-3.75 3.8-9.73 10.05-9.73 11.43 0 2 1.19 3.75-.67 3.63-1.86-.12-1.92 2.06-1.81 3.39.11 1.33-2.26-.66-2.09 1.84.17 2.5-17.27 41.82-17.27 41.82s-7.95 19.24-11 22.42c-3.05 3.18-7.28 17.23-6.94 22.41.34 5.18.51 6.7-.85 6.7-1.36 0-4.06 4.68-4.06 4.68L637.97 440s-3.9 12.71-5.08 12.55c-1.18-.16-3.84 21.84-3.84 21.84s-2.87 6.52-3.38 6.52c-.1 0 .37.47 1.24 1.21l-.58.49a42.44 42.44 0 01-3.95 3c-.05 0-7.73-5.33-13-4.83s-16.08 1.83-21.51-2c-3-2.14-9.33-4-14.42-4.08-4.06-.06-7.35 1-7.58 4.08-.51 6.85 18.45 19.74 18.45 19.74s20 5.68 23.87 11c3.87 5.32 19.86 13.38 19.86 13.38s4.81-2.12 6.62-4.25a2.09 2.09 0 00.66-1.59c-.34-2.51 6.6-12 6.6-12l1-4.71a250.4 250.4 0 011.96-8.66c.8.04 1.59-.08 2.33-.36 6.77-2.67 7.45-10 7.45-10l10.13-21.19s4.4-12.21 5.75-14.39c1.35-2.18 11.85-24.08 11.85-24.08s1.86-9.37 3.56-12.21c1.7-2.84 1.86-9 1.86-9s3.55-9.37 7.28-13.05a49.32 49.32 0 006.94-9.53s15.4-24.26 25.9-31.11c0 0 25.23-30.78 26.75-33.46 1.52-2.68 6.26-9.7 12-3.35a232.03 232.03 0 0111.84 14.56l10.34 28.1 11.51 36s5.41 8.69 5.08 10.53c-.33 1.84 8.8 18.24 8.8 18.24s3.55 6 2.88 9c-.67 3 2.54 6 2.54 6l1 12.21s3.73 12 2.71 13.89c-1.02 1.89 3.56 13.38 3.56 13.38s0 10.2 1.69 13.55c1.69 3.35 3.75 16.72 3.58 17.72-.17 1 0 10.21 0 10.21s1.19 0 3.08-.06l.08 1 .84 10.07.08.93a4 4 0 00-1.55 2.94c0 2.72.4 10.71.74 17 .08 1.67.17 3.21.25 4.5a3.3 3.3 0 003.7 3.09c4.81-.6 9.7-.43 14.45.54a53.07 53.07 0 0016.08 1.18s.37-3.77.43-7.15c.05-2.16-.03-4.15-.42-4.92z"/>
    <path fill="#FFAAB0" d="M857.03 527.56H834.2l-.22-2.69-.83-10.04-.62-7.6h20l1.22 5.53 3.01 13.6.27 1.2zM647.19 487.22c-.43.42-1.14 2.95-1.86 6-1.29 5.36-2.64 12.33-2.64 12.33l-.84.2-17.8 4.3s-9.33-21.33-5-21.83a11 11 0 004.23-1.88c1.43-.95 2.8-1.98 4.09-3.1 2.37-2 4.18-3.86 4.18-3.86s16.81 6.67 15.64 7.84z"/>
    <path fill="#000" d="M647.19 487.22c-.43.42-1.14 2.95-1.86 6-6.15-.36-15.45-7.66-18-10 2.37-2 4.18-3.86 4.18-3.86s16.85 6.69 15.68 7.86zM853.74 512.75c-5.48 1.48-15.53 1.93-20.6 2.07l-.62-7.6h20l1.22 5.53z" opacity=".1"/>
    <path fill="#DCE6F2" d="M708.69 278.89s-12.5 12.33-12.5 14.33 1.17 3.73-.66 3.62c-1.83-.11-1.89 2.05-1.78 3.38.11 1.33-2.22-.67-2.06 1.83.16 2.5-17 41.67-17 41.67s-7.83 19.17-10.83 22.33c-3 3.16-7.17 17.17-6.83 22.34.34 5.17.5 6.66-.84 6.66-1.34 0-4 4.67-4 4.67l-13.16 41s-3.84 12.67-5 12.5c-1.16-.17-4 21.83-4 21.83s-2.84 6.5-3.34 6.5 14.5 13 21.17 10.34c6.67-2.66 7.33-10 7.33-10l10-21s4.34-12.17 5.67-14.34 11.67-24 11.67-24 1.83-9.33 3.5-12.16 1.83-9 1.83-9 3.5-9.34 7.17-13a49.35 49.35 0 006.83-9.5s15.17-24.17 25.5-31c0 0 24.83-30.67 26.33-33.34 1.5-2.67 6.17-9.66 11.84-3.33a225.63 225.63 0 0111.66 14.5l10.17 28 11.33 35.83s5.34 8.67 5 10.5c-.34 1.83 8.67 18.17 8.67 18.17s3.5 6 2.83 9c-.67 3 2.5 6 2.5 6l1 12.17s3.67 12 2.67 13.83 3.5 13.33 3.5 13.33 0 10.17 1.67 13.5 3.66 16.67 3.5 17.67c-.16 1 0 10.17 0 10.17s25.15-.17 27.32-4c2.17-3.83-1.83-8.5-1.83-8.5l-.84-20.17-2.16-48.83s-4.5-16.34-5.17-20.17c-.67-3.83-6.83-11.83-6.83-11.83s1.33-4-.34-6.84c-1.67-2.84-5.33-16.16-5.33-16.16l-3.17-36.84-1.63-40.16-121.36-21.5z"/>
    <path fill="#000" d="M834.69 304.72c-1-.84-42-1.17-42.5-1.17s-16-6.17-16-6.17-34.5-5.66-39.83-3.16c-5.33 2.5-21.84-4.67-21.84-4.67v-3.17s-8.83-3-8.83-3.66c0-.66 1.67-7.34 1.67-7.34l1-.35 3.82-1.31 117.17 18.83s1.55 3.18 3 6.29 2.85 6.3 2.34 5.88z" opacity=".1"/>
    <path fill="#F1FAFF" d="M834.69 303.72c-1-.84-42-1.17-42.5-1.17s-16-6.17-16-6.17-34.5-5.66-39.83-3.16c-5.33 2.5-21.84-4.67-21.84-4.67v-3.17s-8.83-3-8.83-3.66c0-.66 1.67-7.34 1.67-7.34l1-.35 3.82-1.31 117.17 18.83s1.55 3.18 3 6.29 2.85 6.3 2.34 5.88z"/>
    <path fill="#000" d="M643.64 499.84l-1 4.71-.84 1.2-17.75 4.3s-9.33-21.33-5-21.83c1.53-.32 2.97-.96 4.23-1.88-.91 6.68 4.27 13.71 4.27 13.71 7.31 5.5 16.09-.21 16.09-.21z" opacity=".1"/>
    <path fill="#575988" d="M643.64 500.85l-1 4.71s-6.83 9.5-6.5 12a2.1 2.1 0 01-.65 1.59c-1.78 2.12-6.52 4.23-6.52 4.23s-15.66-8-19.5-13.33-23.5-11-23.5-11-18.66-12.84-18.16-19.67c.22-3 3.46-4.12 7.46-4.06 5 .06 11.23 1.93 14.2 4.06 5.34 3.83 16 2.5 21.17 2 5.17-.5 12.77 4.82 12.77 4.82-1.73 7 4.06 14.85 4.06 14.85 7.39 5.51 16.17-.2 16.17-.2z"/>
    <path fill="#F1FAFF" d="M635.54 519.14c-1.78 2.12-6.52 4.23-6.52 4.23s-15.66-8-19.5-13.33-23.5-11-23.5-11-18.66-12.84-18.16-19.67c.22-3 3.46-4.12 7.46-4.06 3 5 7.43 11.95 10.7 13.89 5.34 3.17 15.84 9.17 15.84 9.17s16.66 10.5 17.83 11.67c.96.97 10.61 7.35 15.85 9.1z"/>
    <path fill="#000" d="M857.05 527.55h-22.86l-.22-2.69c2.88-2.71 9.05-4 9.05-4 4.28-1.31 12.17 4.31 13.73 5.47l.3 1.22z" opacity=".1"/>
    <path fill="#575988" d="M867.62 547.77c-.06 3.37-.43 7.12-.43 7.12a51.6 51.6 0 01-15.83-1.17 43.23 43.23 0 00-14.22-.54 3.26 3.26 0 01-3.65-3.08l-.24-4.48c-.34-6.23-.73-14.19-.73-16.9 0-4.66 10.5-6.83 10.5-6.83 4.76-1.46 14 5.67 14 5.67s9.17 13.33 10.17 15.33c.39.77.47 2.75.43 4.88z"/>
    <path fill="#F1FAFF" d="M867.62 547.77c-.06 3.37-.43 7.12-.43 7.12a51.6 51.6 0 01-15.83-1.17 43.23 43.23 0 00-14.22-.54 3.26 3.26 0 01-3.65-3.08l-.24-4.48c3.84-.58 9.5-1.14 13.44-.23 4.58 1.06 15.1 1.95 20.93 2.38z"/>
    <path fill="#000" d="M639.94 447.64s-3.5 6 0 8.75 0-8.75 0-8.75zM827.94 470.89c1 2 3.66 5 3.2 8.5-.46 3.5-3.2-8.5-3.2-8.5z" opacity=".1"/>
    <path fill="#FFAAB0" d="M824.86 105.22s-15.27-1.55-31.1-3.65l-.65-.09c-18.38-2.45-37.24-5.62-33.59-7.93 1.63-1 3-3.54 4.13-6.74.7-2.05 1.3-4.14 1.77-6.25l.23-1a134.8 134.8 0 001.67-9.42c.85-6.07 1.2-10.91 1.2-10.91s39.17-14.84 34.34 3.66a20.2 20.2 0 00-.14 9.06 34.7 34.7 0 002.79 8.3c6.24 13.32 19.35 24.97 19.35 24.97z"/>
    <path fill="#000" d="M802.86 62.88a20.2 20.2 0 00-.14 9.06 26.5 26.5 0 01-35.4-1.81c.85-6.07 1.2-10.91 1.2-10.91s39.17-14.84 34.34 3.66z" opacity=".1"/>
    <path fill="#FFAAB0" d="M812.52 50.36a26.5 26.5 0 11-53 .06v-.06a26.5 26.5 0 1153 0z"/>
    <path fill="#000" d="M794.11 100.48c-.08.38-.2.74-.35 1.09l-.65-.09c-18.38-2.45-37.24-5.62-33.59-7.93 1.63-1 3-3.54 4.13-6.74.7-2.05 1.3-4.14 1.77-6.25l.23-1h.77c.06.42 2 13.23 19.19 15.42l.58.07c6.71.75 8.42 2.95 7.92 5.43z" opacity=".1"/>
    <path fill="#F1FAFF" d="M793.11 101.48c-.84 4.15-7.92 9.07-7.92 9.07l-19.67-3.67s-12.33-11-12.33-11.33c0-.33 7.33-15 7.33-15h4.9c.06.42 2 13.23 19.19 15.42l.58.07c6.71.76 8.42 2.96 7.92 5.44z"/>
    <path fill="#000" d="M824.86 105.22s-15.69-1.59-31.75-3.74c-.84 4.15-7.92 9.07-7.92 9.07l-19.67-3.67s-12.33-11-12.33-11.33c0-.33 7.33-15 7.33-15h.25a23.36 23.36 0 002.88 6.26c3.09 4.72 9 9.89 20 9.24l.92-.07c16.51-1.37 20.22-12.8 20.9-15.74 6.28 13.33 19.39 24.98 19.39 24.98zM832.35 297.84l-.33 1.21c-4-3-33.16-5-33.16-5s-7.67-.9-15-2.07c-5.32-.85-10.46-1.85-12.35-2.76-.44-.2-.89-.37-1.35-.51-6.64-2.08-27-4.49-27-4.49s-10 4.5-15.33 2.5-20.5-11.34-20.5-11.34.33-.5 1-1.35l3.82-1.31 117.17 18.83s1.59 3.18 3.03 6.29z" opacity=".1"/>
    <path fill="#575988" d="M834.23 245.14c2.23 13.26 5.14 32.65 3.63 35.46-2.34 4.33-5.84 17.5-5.84 17.5-4-3-33.16-5-33.16-5s-7.67-.9-15-2.07c-5.32-.85-10.46-1.85-12.35-2.76-.44-.2-.9-.37-1.35-.51-6.64-2.08-27-4.49-27-4.49s-10 4.5-15.33 2.5-20.5-11.34-20.5-11.34c2.18-3 4.7-5.73 7.5-8.16 5.16-4.67 14.66-44.84 14.42-45.34-.24-.5-2.59-13.33-1.92-20.83.67-7.5-2-44.17-2-44.17s-26.81-10.38-27.28-26.38c-.47-16 15.5-25.33 15.5-25.33s18.5-14.5 20-15.34c1.5-.84 11.5-3 19.67-7.5 8.17-4.5 7.33-.83 7.33-.83s3.34 17.67 23.17 16.5c19.83-1.17 22-16.5 22-16.5 2.13-5.33 19.21 10.5 19.21 10.5s4.33 9 18 16.33c10 5.36 12.58 19.16 13.26 26.21.25 2.61.24 4.29.24 4.29l-40.17 28.84 15.79 65.83s1 5.37 2.18 12.59z"/>
    <path fill="#FFAAB0" d="M734.86 279.39s13.17 22.66 26.83 16.33a16 16 0 007.3-6.68c5.39-9.32 0-21.21-10.44-24-3.85-1-8-1.63-11.36-1-9.5 1.68-12.33 15.35-12.33 15.35z"/>
    <path fill="#000" d="M734.86 279.39s13.17 22.66 26.83 16.33a16 16 0 007.3-6.68c5.39-9.32 0-21.21-10.44-24-3.85-1-8-1.63-11.36-1-9.5 1.68-12.33 15.35-12.33 15.35zM715.53 113.89s10.39 7 10.61 18l-10.61-18zM731.86 119.22c0 .67-3 47 2.33 62.83 5.33 15.83-2.33-62.83-2.33-62.83zM812.52 50.36a26.3 26.3 0 01-4.29 14.46v-1c-.17-2.78-1.64-5.29-3.07-7.69-.97-1.9-2.34-3.6-4-4.94a7.59 7.59 0 01-1.35-1c-.92-1-.82-2.59-1-4a8.93 8.93 0 00-7.19-7.5 3 3 0 00-2.24.32c-.68.48-1 1.37-1.57 1.92-.9.81-2.28.71-3.47.48-2.62-.52-5.35-1.47-7.89-.63-4.36 1.45-6 7.48-10.47 8.6-1.32.2-2.66.3-4 .28-.86.06-1.7.31-2.44.75v-.06a26.5 26.5 0 1153 0l-.02.01z" opacity=".1"/>
    <path fill="#794F6A" d="M759.78 32.77c.83-1.11 2.16-1.78 2.91-2.95 1.14-1.79.58-4.15 1.14-6.2.68-2.51 2.92-4.23 5-5.76 3-2.16 6.25-4.41 9.9-4.16 2.5.18 4.77 1.54 7.25 1.94 3.87.63 7.75-1.11 11.67-1a12.26 12.26 0 019.74 5.68c1.55 2.48 2.37 5.71 5 7 1 .51 2.12.67 3.1 1.18a6.68 6.68 0 013.19 5.21c.14 2.11-.01 4.24-.44 6.31-.2 1.04-.24 2.11-.14 3.17.18 1.31.8 2.53.93 3.85.3 3-2 5.63-3.67 8.2a22.76 22.76 0 00-3.11 7.54 12.3 12.3 0 01-1.06 3.64 3.14 3.14 0 01-3.1 1.75c-.19-1.81.26-3.64.14-5.46-.17-2.78-1.64-5.29-3.07-7.68a15.24 15.24 0 00-4-4.95 7.08 7.08 0 01-1.34-1c-.93-1-.83-2.58-1-4a8.93 8.93 0 00-7.19-7.49 3 3 0 00-2.24.31c-.68.48-1 1.37-1.57 1.92-.9.81-2.28.72-3.47.48-2.62-.51-5.35-1.47-7.89-.63-4.36 1.45-6 7.48-10.47 8.6-1.32.2-2.66.3-4 .28a4.22 4.22 0 00-3.44 1.79c-1.34-1.4-1.07-3.68-.41-5.5.77-2.13 1.47-3.64 1.09-5.88-.38-2.24-.88-4.28.55-6.19z"/>
    <path fill="#000" d="M662.44 396.39s-9.5 5-4.5 6 4.5-6 4.5-6zM818.94 408.39s5.25-7 11-2.75-11 2.75-11 2.75zM831.14 412.89s6.55-2.25 10.55 0h-10.55zM701.69 299.39s14 13.5 18.5 14-18.5-14-18.5-14zM703.69 121.89l-3.64 7.66-1.84 18-1.33 33.5s-2.5 28.5 0 32.5 6.83 27.67 6 30.67c-.83 3 11 31 13.17 32.67 2.17 1.67 9.83 2 14.16 1.16l7.92 7.53 22.42-20.69-13.84-10.5s3.17-5.34-5.66-11.17c0 0-4-6.67-4.17-10.17a74.34 74.34 0 00-3.67-21c-3.16-9.33-5-61.16-5-61.16s-7.52-37.84-24.52-29z" opacity=".1"/>
    <path fill="#575988" d="M701.69 121.89l-3.64 7.66-1.84 18-1.33 33.5s-2.5 28.5 0 32.5 6.83 27.67 6 30.67c-.83 3 11 31 13.17 32.67 2.17 1.67 9.83 2 14.16 1.16l7.92 7.53 22.42-20.69-13.84-10.5s3.17-5.34-5.66-11.17c0 0-4-6.67-4.17-10.17a74.34 74.34 0 00-3.67-21c-3.16-9.33-5-61.16-5-61.16s-7.52-37.84-24.52-29z"/>
    <path fill="#000" d="M736.53 247.22c-1 .5-21.17 19.17-13.67 19.67 7.5.5 13.67-19.67 13.67-19.67z" opacity=".1"/>
    <path fill="#FFAAB0" d="M762.19 269.72s-28.83 3-27.33 14.67 22 22.91 28.5 19.37c6.5-3.54 12-6.92 12-6.92l-13.17-27.12z"/>
    <path fill="#000" d="M850.19 129.89l4.17 8s4.33 34.16 0 47.33c-4.33 13.17-14.83 43.5-14.83 43.5s-12.67 22.17-13 23.17c-.33 1-24.34 35.66-28.67 37.5-4.33 1.84-12.5.87-13-1.15s-11.5 8.6-11.5 8.6-21.2-25.62-17.83-28.29c3.37-2.67 13.58-3.33 13.58-3.33s.75 2.5 1.58-2.67c.83-5.17 4.67-7.83 7.5-7.5 2.83.33 1.67-2.66 2.17-5.83s8.33-8.83 8.33-8.83 3.84-6.17 3.84-9.84 8-6.83 8.66-6.83c.66 0 .5-1.5.5-6.83s4-14.84 4-14.84l2.47-30 4.34-30.5s11.86-37.16 37.69-11.66z" opacity=".1"/>
    <path fill="#000" d="M832.05 232.55s1 5.37 2.21 12.54c-2 3.59-3.59 6.45-3.71 6.79-.33 1-24.33 35.67-28.66 37.5-4.33 1.83-12.5.87-13-1.14-.22-.9-2.51.69-5 2.74-3.1 2.56-6.51 5.85-6.51 5.85s-3.36-4.06-7.19-9.12c-5.8-7.64-12.67-17.55-10.65-19.16 3.37-2.67 13.59-3.33 13.59-3.33s.75 2.5 1.58-2.67c.83-5.17 4.67-7.83 7.5-7.5 2.83.33 1.67-2.67 2.17-5.83s8.33-8.84 8.33-8.84 3.83-6.16 3.83-9.83 8-6.83 8.67-6.83c.67 0 .5-1.5.5-6.84s4-14.83 4-14.83l2.47-30 4.33-30.5s11.84-37.17 37.67-11.67l1.93 3.71c.25 2.61.24 4.29.24 4.29l-40.17 28.84 15.87 65.83z" opacity=".1"/>
    <path fill="#575988" d="M852.19 129.89l4.17 8s4.33 34.16 0 47.33c-4.33 13.17-14.83 43.5-14.83 43.5s-12.67 22.17-13 23.17c-.33 1-24.34 35.66-28.67 37.5-4.33 1.84-12.5.87-13-1.15s-11.5 8.6-11.5 8.6-21.2-25.62-17.83-28.29c3.37-2.67 13.58-3.33 13.58-3.33s.75 2.5 1.58-2.67c.83-5.17 4.67-7.83 7.5-7.5 2.83.33 1.67-2.66 2.17-5.83s8.33-8.83 8.33-8.83 3.84-6.17 3.84-9.84 8-6.83 8.66-6.83c.66 0 .5-1.5.5-6.83s4-14.84 4-14.84l2.47-30 4.34-30.5s11.86-37.16 37.69-11.66z"/>
    <path fill="#000" d="M777.86 263.82s1 2.25 5.5 3.07c4.5.82-5.5-3.07-5.5-3.07zM831.69 130.05c-.16.5-15 17.27-12 21.64 3 4.37 12-21.64 12-21.64zM814.86 207.05s8.5 8.34 6.83 12.34-6.83-12.34-6.83-12.34zM816.19 191.22c.5.83 18.84 3 19.84 10s-19.84-10-19.84-10z" opacity=".1"/>
    <g fill="#000" opacity=".1">
      <path d="M818.05 41.32c0-.38.09-.77.15-1.16.37-1.9.53-3.85.48-5.79-.08 1.27-.3 2.54-.48 3.79a11.2 11.2 0 00-.15 3.16zM759.24 39.36a7 7 0 000-2.23c-.12-.71-.25-1.42-.32-2.13-.1 1.38 0 2.78.32 4.13v.23zM818.94 46.77c-.43 2.38-2.22 4.51-3.59 6.62a22.41 22.41 0 00-3.11 7.53 12.81 12.81 0 01-1.06 3.64 3.12 3.12 0 01-3.1 1.75v-.1c-.06.7-.06 1.4 0 2.1a3.12 3.12 0 003.1-1.75c.53-1.15.89-2.38 1.06-3.64a22.41 22.41 0 013.11-7.53c1.66-2.57 4-5.16 3.66-8.21.04-.14-.05-.27-.07-.41zM808.22 60.86c-.17-2.78-1.64-5.3-3.07-7.69a15.35 15.35 0 00-4-5 7.53 7.53 0 01-1.35-1c-.92-1-.82-2.59-1-4a8.93 8.93 0 00-7.19-7.49 3 3 0 00-2.24.31c-.68.48-1 1.37-1.57 1.93a4.06 4.06 0 01-3.47.48c-2.62-.52-5.35-1.48-7.89-.63-4.36 1.44-6 7.47-10.48 8.59-1.32.2-2.66.3-4 .29a4.16 4.16 0 00-3.43 1.78 3.38 3.38 0 01-.87-1.75 4.3 4.3 0 00.87 3.75 4.15 4.15 0 013.43-1.78c1.34 0 2.68-.09 4-.29 4.46-1.12 6.12-7.15 10.48-8.59 2.54-.85 5.27.11 7.89.63a4.06 4.06 0 003.47-.48c.62-.56.89-1.45 1.57-1.93a3 3 0 012.24-.31 8.93 8.93 0 017.19 7.49c.17 1.38.07 2.93 1 4 .41.38.86.72 1.35 1a15.35 15.35 0 014 5c1.39 2.33 2.8 4.77 3 7.46.06-.59.09-1.18.07-1.77z" opacity=".1"/>
    </g>
    <path fill="#61BEEC" d="M479.55 146.83v104.94a1.63 1.63 0 00.49 1.19 1.63 1.63 0 001.19.48c28.9-.9 53-24.79 53-54.14s-24.08-53.25-53-54.14a1.63 1.63 0 00-1.56 1.02c-.08.2-.12.43-.12.65z"/>
    <path fill="#4064AC" d="M407.38 290.14v-86.85a63.55 63.55 0 0112.67-38.55c7.87-10.34 20.12-19.7 38.64-19.58a1.91 1.91 0 011.76 1.16c.1.23.15.48.15.73v89.4s3 48.86-52.16 54.64a1.01 1.01 0 01-.73-.25 1.01 1.01 0 01-.33-.7z"/>
    <path fill="#EF5B59" d="M179.99 135.36a31.5 31.5 0 100-63 31.5 31.5 0 000 63zM113.99 48.36a19.5 19.5 0 100-39 19.5 19.5 0 000 39zM12 84.36a12 12 0 100-24 12 12 0 000 24z" opacity=".1"/>
    <path fill="#EF5B59" d="M409.87 671.93a17.21 17.21 0 00-2.28 4.29c-.14.37-.28.8-.42 1.21a3.72 3.72 0 00-.79-.27 11.1 11.1 0 00-3.57-.31c0-.46.06-1 .07-1.46.15-5.27-.47-12.62-5.5-9.51-4.82 3-1.38 8 1.73 11.21l.8.78c-2.84 2-3.38 6.73-3.85 11.64-.47 4.91-4.64 10.29-7.41 13.34l-.78.85a10.1 10.1 0 00-8.05-2.07l-.37-1.36c-2.23-8.13-6.88-22.13-12.82-25.13l.78-1c2.52-3.3 5.36-8.2 1.17-9.45s-4.57 4.25-4.34 8.37c0 .51.08 1 .12 1.46a6.14 6.14 0 00-4.38 2.14l-.65-.76c-3.4-4-9.63-10.37-11.52-5.56-1.75 4.48 3.73 10.29 7.59 13.66l.24.21c-2.59 10.52 8.72 19.09 14.81 22.84l.79.48c-8.4 9.9-13.59 28.45-13.59 28.45l23.53 4.2s15.59-13.46 13.59-26.09h.16c15.59-3.12 19.13-19.74 16.71-29.61.09 0 .18-.07.27-.12a17.69 17.69 0 007.22-5.45c4.36-6.09-4.78-12.93-9.26-6.98z"/>
    <path fill="#000" d="M409.87 671.93a17.21 17.21 0 00-2.28 4.29c-.14.37-.28.8-.42 1.21a3.72 3.72 0 00-.79-.27 11.1 11.1 0 00-3.57-.31c0-.46.06-1 .07-1.46.15-5.27-.47-12.62-5.5-9.51-4.82 3-1.38 8 1.73 11.21l.8.78c-2.84 2-3.38 6.73-3.85 11.64-.47 4.91-4.64 10.29-7.41 13.34l-.78.85a10.1 10.1 0 00-8.05-2.07l-.37-1.36c-2.23-8.13-6.88-22.13-12.82-25.13l.78-1c2.52-3.3 5.36-8.2 1.17-9.45s-4.57 4.25-4.34 8.37c0 .51.08 1 .12 1.46a6.14 6.14 0 00-4.38 2.14l-.65-.76c-3.4-4-9.63-10.37-11.52-5.56-1.75 4.48 3.73 10.29 7.59 13.66l.24.21c-2.59 10.52 8.72 19.09 14.81 22.84l.79.48c-8.4 9.9-13.59 28.45-13.59 28.45l23.53 4.2s15.59-13.46 13.59-26.09h.16c15.59-3.12 19.13-19.74 16.71-29.61.09 0 .18-.07.27-.12a17.69 17.69 0 007.22-5.45c4.36-6.09-4.78-12.93-9.26-6.98z" opacity=".1"/>
    <path fill="#EF5B59" d="M363.05 678.71l-2.75 8s-1.53-1.08-3.46-2.78c-3.86-3.37-9.34-9.18-7.59-13.66 1.89-4.81 8.12 1.54 11.52 5.56 1.37 1.64 2.28 2.88 2.28 2.88zM368.85 674.14a38.85 38.85 0 01-2.68 3.15c-.23-1.4-.4-2.81-.49-4.23-.23-4.12.21-9.59 4.34-8.37 4.13 1.22 1.35 6.13-1.17 9.45zM404.32 675.39c-.08 2.65-.34 4.76-.34 4.76a34.04 34.04 0 01-3.43-3.01c-3.11-3.23-6.55-8.21-1.73-11.21 5.03-3.16 5.65 4.21 5.5 9.46zM420.57 678.86a17.7 17.7 0 01-7.22 5.45c-.79.35-1.6.64-2.42.88l-3.24-4.55c.34-1.5.8-2.98 1.34-4.42a17.18 17.18 0 012.28-4.29c4.48-5.95 13.62.89 9.26 6.93z"/>
    <path fill="#000" d="M360.77 675.88a51.63 51.63 0 012.28 2.83l-2.75 8s-1.53-1.08-3.46-2.78c.43-2.58 1.5-5 3.1-7.07l.83-.98zM368.85 674.14a39.23 39.23 0 01-2.68 3.15c-.23-1.4-.4-2.81-.49-4.23 1.14.02 2.25.4 3.17 1.08z" opacity=".1"/>
    <path fill="#EF5B59" d="M382.38 706.07l-6.85 3s-1.49-.72-3.64-2.05c-7.19-4.43-21.64-15.56-11.95-28.68 9.69-13.12 17.77 10.41 20.95 21.92.97 3.45 1.49 5.81 1.49 5.81z"/>
    <path fill="#000" d="M400.55 677.14a5.6 5.6 0 013.77-1.7c-.08 2.65-.34 4.76-.34 4.76a33.85 33.85 0 01-3.43-3.06zM413.35 684.31c-.79.35-1.6.64-2.42.88l-3.24-4.55c.34-1.5.8-2.98 1.34-4.42 2.09 1.23 3.63 4.26 4.32 8.09z" opacity=".1"/>
    <path fill="#EF5B59" d="M396.37 714.04l-1.15.2c-22.93 3.49-7.56-8.89-7.56-8.89s1-1 2.43-2.5c2.77-3.05 6.93-8.4 7.41-13.34.72-7.43 1.55-14.4 10.32-12.35 8.61 1.98 10.23 32.53-11.45 36.88z"/>
    <path fill="#D4DFEC" d="M395.95 771.13h-43.81v11.52h43.81v-11.52z"/>
    <path fill="#D4DFEC" d="M402.42 733.69h-57.24v40.2h57.24v-40.2z"/>
    <path fill="#000" d="M395.95 771.13h-43.81v11.52h43.81v-11.52z" opacity=".1"/>
    <path fill="#000" d="M402.42 733.69h-57.24v40.2h57.24v-40.2z" opacity=".1"/>
    <path fill="#D4DFEC" d="M398.83 771.13h-43.81v11.52h43.81v-11.52z"/>
    <path fill="#000" d="M380.89 700.27c1 3.44 1.49 5.8 1.49 5.8l-6.85 3s-1.49-.72-3.64-2.05c2.68-3.39 5.7-5.96 9-6.75zM396.37 714.04l-1.15.2c-22.93 3.49-7.56-8.89-7.56-8.89s1-1 2.43-2.5c4.28 3.43 6.05 7.29 6.28 11.19z" opacity=".1"/>
    <path fill="#EF5B59" d="M359.05 735.96s12.84-46 30.85-31.8-7.32 36-7.32 36l-23.53-4.2z"/>
    <path fill="#000" d="M365.58 687a1.44 1.44 0 100-2.88 1.44 1.44 0 000 2.88zM365.46 693.72a1.44 1.44 0 100-2.88 1.44 1.44 0 000 2.88zM407.22 688.32a1.44 1.44 0 100-2.88 1.44 1.44 0 000 2.88zM373.62 722.77a1.44 1.44 0 100-2.88 1.44 1.44 0 000 2.88zM404.22 699.48a1.44 1.44 0 100-2.88 1.44 1.44 0 000 2.88zM389.34 714.37a1.44 1.44 0 100-2.88 1.44 1.44 0 000 2.88zM370.5 689.88a1.44 1.44 0 100-2.88 1.44 1.44 0 000 2.88zM403.26 692.64a1.44 1.44 0 100-2.88 1.44 1.44 0 000 2.88zM398.34 703.8a1.44 1.44 0 100-2.88 1.44 1.44 0 000 2.88zM383.22 721.69a1.44 1.44 0 100-2.88 1.44 1.44 0 000 2.88zM380.1 714.61a1.44 1.44 0 100-2.88 1.44 1.44 0 000 2.88zM372.66 698.64a1.44 1.44 0 100-2.88 1.44 1.44 0 000 2.88zM398.83 771.13h-43.81v4.21h43.81v-4.21z" opacity=".1"/>
    <path fill="#D4DFEC" d="M405.3 733.69h-57.24v40.2h57.24v-40.2z"/>
    <path fill="#000" d="M385.14 728.17a1.44 1.44 0 100-2.88 1.44 1.44 0 000 2.88zM376.5 729.97a1.44 1.44 0 100-2.88 1.44 1.44 0 000 2.88z" opacity=".1"/>
  </g>
  <defs>
    <linearGradient id="paint0_linear" x1="234.65" x2="234.65" y1="773.77" y2="240.51" gradientUnits="userSpaceOnUse">
      <stop stop-color="gray" stop-opacity=".25"/>
      <stop offset=".54" stop-color="gray" stop-opacity=".12"/>
      <stop offset="1" stop-color="gray" stop-opacity=".1"/>
    </linearGradient>
    <linearGradient id="paint1_linear" x1="237240" x2="237240" y1="332301" y2="37062.9" gradientUnits="userSpaceOnUse">
      <stop stop-color="gray" stop-opacity=".25"/>
      <stop offset=".54" stop-color="gray" stop-opacity=".12"/>
      <stop offset="1" stop-color="gray" stop-opacity=".1"/>
    </linearGradient>
    <clipPath id="clip0">
      <path fill="#fff" d="M0 0h1082.11v786.29H0z"/>
    </clipPath>
  </defs>
</svg>
