<svg width="1165" height="556" viewBox="0 0 1165 556" fill="none" xmlns="http://www.w3.org/2000/svg">
<g clip-path="url(#clip0)">
<path opacity="0.1" d="M1155.21 461.06C1149.63 471.818 1141.79 481.235 1132.21 488.66C1130.85 489.75 1129.46 490.8 1128.05 491.83C1126.15 493.163 1124.2 494.473 1122.21 495.76C1106.72 505.59 1088.58 512.31 1070.87 517.21C1066.04 518.543 1061.2 519.797 1056.34 520.97C1052.24 521.963 1048.14 522.89 1044.03 523.75C1042.47 524.09 1040.91 524.41 1039.35 524.75C1037.79 525.09 1036 525.42 1034.35 525.75L1031.98 526.2C986.16 534.65 939.74 536.26 892.98 534.14L890.76 534.03L887.21 533.85C877.717 533.357 868.213 532.727 858.7 531.96L855.1 531.67L853.51 531.54C848.177 531.093 842.843 530.603 837.51 530.07C830.483 529.403 823.447 528.667 816.4 527.86L815.49 527.76L814.75 527.67C789.6 524.84 764.39 521.44 739.15 517.95L735.58 517.45L729.17 516.56L723.77 515.81L722.17 515.59C713.65 514.397 705.13 513.217 696.61 512.05L695.23 511.86C679.23 509.67 663.14 507.56 647.1 505.64L645.01 505.39C638.443 504.61 631.88 503.867 625.32 503.16L620.32 502.63L613.67 501.96C595.24 500.13 576.82 498.67 558.44 497.76C549.6 497.32 540.74 496.987 531.86 496.76C524.527 496.593 517.193 496.497 509.86 496.47C499.913 496.423 489.947 496.48 479.96 496.64H477.7C463.63 496.87 449.53 497.27 435.42 497.75L432.88 497.83H432.04C402.04 498.89 372.04 500.3 342.12 501.31L334.81 501.55H333.75C323.35 501.883 312.96 502.14 302.58 502.32H299.83H299.74H296.4L291.76 502.38C286.94 502.427 282.13 502.453 277.33 502.46H271.44C253.82 502.41 236.27 502.02 218.83 501.11L216.89 501C183 499.17 149.49 495.39 116.58 488.52C113.173 487.807 109.773 487.06 106.38 486.28C83.6391 481.181 61.3104 474.392 39.58 465.97C29.34 461.97 19.04 457.35 11.25 449.53C-8.51001 429.53 -1.09001 390.36 24.62 378.97C44.73 370.06 68.29 377.31 89.92 373.29C91.249 373.037 92.5615 372.703 93.85 372.29C96.5998 371.403 99.2748 370.3 101.85 368.99C102.73 368.55 103.61 368.08 104.5 367.59C106.5 366.5 108.5 365.29 110.42 363.97C113.559 361.882 116.565 359.601 119.42 357.14C120.687 356.06 121.92 354.94 123.12 353.78C127.273 349.879 130.939 345.49 134.04 340.71C135.169 338.902 136.171 337.017 137.04 335.07C137.51 334.07 137.93 332.99 138.28 331.95C138.803 330.445 139.201 328.9 139.47 327.33C140.73 319.91 138.69 312.67 131.59 306.55C130.954 306.007 130.286 305.503 129.59 305.04C128.215 304.086 126.763 303.246 125.25 302.53C124.64 302.24 124.01 301.96 123.37 301.69C114.23 297.84 102.44 296.36 92.5 293.69C89.4708 292.922 86.5132 291.895 83.66 290.62C81.85 289.78 80.05 288.9 78.28 287.98L77.81 287.72C62.6959 279.927 49.4042 269.021 38.81 255.72C36.1764 252.359 33.7518 248.839 31.55 245.18C30.88 244.08 30.23 242.95 29.61 241.82C12.04 210.12 10.23 169.5 28.51 138.33C30.7307 134.548 33.2029 130.92 35.91 127.47C36.79 126.33 37.7 125.21 38.64 124.11C56.04 103.58 81.04 89.6701 106.28 79.3701C140.16 65.5501 175.63 56.8201 211.78 51.0701C219.113 49.9034 226.447 48.8568 233.78 47.9301C264.48 44.0101 295.54 41.9301 326.38 40.3501C355.227 38.8901 384.2 37.9468 413.3 37.5201C423.16 37.3868 433.03 37.3301 442.91 37.3501C465.17 37.3501 487.43 37.7801 509.69 38.6401C517.023 38.9201 524.357 39.2534 531.69 39.6401C550.497 40.6134 569.267 41.9468 588 43.6401C597 44.4534 605.98 45.3501 614.94 46.3301C683.18 53.7901 750.43 66.4401 815.36 86.1101C822.727 88.3368 830.06 90.6701 837.36 93.1101C864.665 102.1 891.496 112.47 917.75 124.18C920.23 125.293 922.703 126.413 925.17 127.54C941.563 135.06 957.723 143.163 973.65 151.85C994.669 163.161 1014.91 175.856 1034.25 189.85C1041.8 195.383 1049.13 201.157 1056.25 207.17C1068.84 217.786 1080.58 229.368 1091.36 241.81C1092.32 242.923 1093.27 244.043 1094.21 245.17C1099.09 251.03 1103.72 257.1 1108.11 263.38C1129.51 294.14 1143.87 329.32 1154.47 365.26C1163.82 396.62 1170.04 431.83 1155.21 461.06Z" fill="#EF5B59"/>
<path opacity="0.1" d="M1141.76 353.78H1056.33V245.11H1094.33C1093.39 243.983 1092.44 242.863 1091.48 241.75H1056.37V207.11C1049.26 201.11 1041.93 195.336 1034.37 189.79V241.79H837.42V127.47H925.23C922.757 126.343 920.283 125.223 917.81 124.11H837.42V93.0398C830.087 90.6198 822.753 88.2865 815.42 86.0398V124.04H534.34L533.67 123.4L614.98 46.2198C606.02 45.2331 597.04 44.3365 588.04 43.5298L531.73 96.9698V39.5698C524.397 39.1831 517.063 38.8498 509.73 38.5698V100.66L442.95 37.2798C433.077 37.2798 423.207 37.3364 413.34 37.4498L503.9 123.4L503.23 124.04H233.8V47.9698C226.467 48.8965 219.133 49.9431 211.8 51.1098V124.11H38.64C37.7 125.21 36.79 126.33 35.91 127.47H211.78V241.75H29.57C30.19 242.88 30.84 244.01 31.51 245.11H211.78V353.78H123.11C121.91 354.94 120.677 356.06 119.41 357.14H211.78V468.34C219.113 469.386 226.447 470.48 233.78 471.62V357.14H509.71V496.47C517.043 496.47 524.377 496.566 531.71 496.76V357.14H815.4V527.71L816.31 527.81C823.35 528.596 830.387 529.333 837.42 530.02V357.14H1034.31V525.7C1035.99 525.39 1037.67 525.06 1039.31 524.7C1040.95 524.34 1042.43 524.07 1043.99 523.7C1048.1 522.826 1052.2 521.9 1056.3 520.92V357.14H1142.42C1142.2 356.02 1141.98 354.9 1141.76 353.78ZM509.71 353.78H233.8V245.11H509.71V353.78ZM509.71 241.78H233.8V127.47H505.8L509.68 130.53L509.71 241.78ZM815.4 353.78H531.73V245.11H815.4V353.78ZM815.4 241.78H531.73V127.47H815.4V241.78ZM1034.31 353.78H837.42V245.11H1034.31V353.78Z" fill="#EF5B59"/>
<path d="M297.19 507.21C297.19 507.32 297.11 507.43 297.08 507.54C297.08 507.43 297.15 507.32 297.2 507.21H297.19Z" fill="#EAECF0"/>
<path d="M302.41 502.42H299.66H299.57H296.23L291.59 502.48L291.08 497.21L290.61 492.21L288.43 469.4L288.36 468.7V468.39L287.75 461.97L297.09 458.47L298.23 467.78L298.31 468.47V468.55L300.62 487.45L301.33 493.25L301.74 496.62L302.09 499.51V499.61L302.41 502.42Z" fill="#EAECF0"/>
<path d="M335.94 507.2L336.05 507.53H335.31L335.2 507.2H335.94Z" fill="#3A3768"/>
<path d="M480.78 375.45C480.78 375.65 480.78 375.76 480.78 375.76V375.88C480.78 375.88 472.06 399.71 469.22 420.05C469.027 421.383 468.867 422.716 468.74 424.05C468.6 425.46 468.49 426.84 468.43 428.18C468.35 429.75 468.33 431.27 468.37 432.72C468.37 433.05 468.37 433.39 468.37 433.72C468.37 434.39 468.44 435.08 468.48 435.79C468.52 436.5 468.58 437.21 468.64 437.95C468.7 438.69 468.76 439.34 468.83 440.05C470.98 462.05 479.15 494.26 479.15 494.26C479.15 494.26 479.42 495.13 479.77 496.61H477.51C463.44 496.84 449.34 497.24 435.23 497.72L432.69 497.8H431.85C401.85 498.86 371.85 500.27 341.93 501.28L334.62 501.52H333.56C323.16 501.853 312.77 502.11 302.39 502.29H299.64C300.346 501.295 301.157 500.379 302.06 499.56C302.819 498.856 303.639 498.22 304.51 497.66C309.262 494.696 314.438 492.474 319.86 491.07C321.003 490.757 322.185 490.612 323.37 490.64L330.37 490.78H331.45L342.19 490.99L434.31 492.82H434.54L435.19 492.69C436.259 492.423 437.301 492.055 438.3 491.59C440.03 490.86 441.543 489.696 442.692 488.21C443.841 486.725 444.588 484.968 444.86 483.11C444.86 482.8 444.94 482.47 444.96 482.11C444.99 481.624 444.99 481.136 444.96 480.65C444.96 480.31 444.96 479.95 444.88 479.58C444.8 479.21 444.78 478.84 444.71 478.46C442.49 466.05 438.71 427.85 438.71 427.85V427.97C438.71 427.97 438.71 426.34 438.8 423.6C438.8 423.39 438.8 423.16 438.8 422.93V422.34C438.8 421.73 438.87 421.07 438.91 420.34C438.91 419.91 438.97 419.47 439 419.01C439.05 418.34 439.11 417.65 439.17 416.93C439.165 416.887 439.165 416.843 439.17 416.8C439.21 416.346 439.25 415.886 439.29 415.42C439.29 415.42 439.29 415.32 439.29 415.27C440.78 400.52 445.47 377.17 460.29 368.52C467.24 364.45 471.84 363.63 474.87 364.43C479.29 365.59 480.4 370.19 480.64 373.18C480.64 373.38 480.64 373.57 480.64 373.76C480.719 374.32 480.766 374.884 480.78 375.45Z" fill="#3A3768"/>
<path opacity="0.1" d="M297.19 507.21C297.19 507.32 297.11 507.43 297.08 507.54C297.08 507.43 297.15 507.32 297.2 507.21H297.19Z" fill="black"/>
<path opacity="0.1" d="M335.94 507.2L336.05 507.53H335.31L335.2 507.2H335.94Z" fill="black"/>
<path opacity="0.1" d="M480.78 375.45C480.78 375.65 480.78 375.76 480.78 375.76C480.78 375.76 473.59 395.41 470.16 414.25C469.92 415.583 469.7 416.873 469.5 418.12C469.4 418.76 469.31 419.4 469.22 420.04C469.027 421.373 468.867 422.707 468.74 424.04C468.6 425.45 468.49 426.83 468.43 428.17C468.35 429.74 468.33 431.26 468.37 432.71C468.37 433.04 468.37 433.38 468.37 433.71C468.37 434.38 468.44 435.07 468.48 435.78C468.52 436.49 468.58 437.21 468.64 437.94C468.7 438.67 468.76 439.33 468.83 440.04C468.9 440.75 468.97 441.43 469.05 442.13C469.37 444.96 469.77 447.93 470.23 450.95C473.36 471.32 479.15 494.14 479.15 494.14C479.15 494.14 479.44 495.06 479.79 496.6H477.53C463.46 496.83 449.36 497.23 435.25 497.71L432.71 497.79H431.87C401.87 498.85 371.87 500.26 341.95 501.27L334.64 501.51H333.58C323.18 501.843 312.79 502.1 302.41 502.28H299.66H299.57C300.297 501.248 301.135 500.298 302.07 499.45C302.828 498.734 303.651 498.091 304.53 497.53C309.287 494.575 314.461 492.353 319.88 490.94C321.024 490.635 322.206 490.494 323.39 490.52L330.39 490.66H331.47L342.24 490.87L434.43 492.69H434.59C434.59 492.69 434.86 492.69 435.31 492.54C436.389 492.272 437.438 491.893 438.44 491.41C440.132 490.683 441.613 489.54 442.744 488.087C443.875 486.634 444.621 484.918 444.91 483.1C444.91 482.79 444.99 482.46 445.01 482.1C445.04 481.614 445.04 481.126 445.01 480.64C445.01 480.3 445.01 479.94 444.93 479.57C444.85 479.2 444.83 478.76 444.76 478.34C442.54 465.93 438.76 427.73 438.76 427.73C438.76 427.73 438.76 426.1 438.85 423.36C438.85 423.15 438.85 422.92 438.85 422.69V422.1C438.85 421.49 438.92 420.83 438.96 420.1C438.96 419.67 439.02 419.23 439.05 418.77C439.1 418.1 439.16 417.41 439.22 416.69C439.215 416.647 439.215 416.603 439.22 416.56C439.26 416.107 439.3 415.647 439.34 415.18C439.34 415.18 439.34 415.08 439.34 415.03C439.52 413.19 439.76 411.21 440.06 409.14C442.14 394.66 447.34 375.75 460.3 368.14C467.07 364.14 471.6 363.3 474.64 363.99C479.32 365.06 480.43 369.88 480.64 372.92C480.64 373.12 480.64 373.31 480.64 373.5C480.73 374.146 480.777 374.797 480.78 375.45Z" fill="black"/>
<path d="M297.19 507.21C297.19 507.32 297.11 507.43 297.08 507.54C297.08 507.43 297.15 507.32 297.2 507.21H297.19Z" fill="#3A3768"/>
<path d="M335.94 507.2L336.05 507.53H335.31L335.2 507.2H335.94Z" fill="#3A3768"/>
<path d="M478.22 374.6C478.22 374.6 465.17 410.26 465.8 431.6C466.43 452.94 476.62 493.04 476.62 493.04C476.62 493.04 477.06 494.45 477.53 496.7C463.46 496.93 449.36 497.331 435.25 497.811L432.71 497.89H431.87C401.87 498.95 371.87 500.361 341.95 501.37L334.64 501.61H333.58C323.18 501.944 312.79 502.2 302.41 502.38H299.66H299.57H296.23C297.606 500.071 299.482 498.1 301.72 496.61L301.99 496.42C306.751 493.514 311.922 491.34 317.33 489.97C318.474 489.666 319.656 489.525 320.84 489.55L330.08 489.73H331.16L342.29 489.95L432.04 491.74C433.324 491.499 434.571 491.093 435.75 490.53C436.142 490.35 436.523 490.147 436.89 489.92C438.016 489.272 439.029 488.444 439.89 487.47C441.78 485.32 443.04 482.12 442.2 477.47C439.97 465.06 436.2 426.86 436.2 426.86C436.2 426.86 435.56 380.38 457.84 367.33C466.84 362.06 471.9 362.24 474.73 364.33C474.815 364.384 474.895 364.444 474.97 364.51C478.87 367.65 478.22 374.6 478.22 374.6Z" fill="#3A3768"/>
<path d="M119.12 462.1L118.76 465.83L116.58 488.72C113.173 488.006 109.773 487.26 106.38 486.48L108.93 465.67L109.79 458.6L119.12 462.1Z" fill="#EAECF0"/>
<path d="M55.12 454.7L109.58 338.79L328.95 355.9L349.17 454.7H55.12Z" fill="#EFC6CD"/>
<path d="M55.12 464.81V454.7H349.17V469.48L55.12 464.81Z" fill="#D48A9B"/>
<path d="M138.04 437.77L269.6 440.45C269.891 440.456 270.18 440.393 270.442 440.265C270.704 440.137 270.931 439.948 271.104 439.713C271.278 439.479 271.392 439.207 271.439 438.919C271.485 438.631 271.461 438.337 271.37 438.06L250.86 382.74L162.25 381.05L136.04 434.71C135.893 435.042 135.832 435.406 135.862 435.768C135.891 436.13 136.011 436.478 136.21 436.782C136.408 437.086 136.68 437.336 137 437.508C137.319 437.681 137.677 437.771 138.04 437.77Z" fill="#DFE6F5"/>
<path opacity="0.15" d="M138.04 437.77L269.6 440.45C269.891 440.456 270.18 440.393 270.442 440.265C270.704 440.137 270.931 439.948 271.104 439.713C271.278 439.479 271.392 439.207 271.439 438.919C271.485 438.631 271.461 438.337 271.37 438.06L250.86 382.74L162.25 381.05L136.04 434.71C135.893 435.042 135.832 435.406 135.862 435.768C135.891 436.13 136.011 436.478 136.21 436.782C136.408 437.086 136.68 437.336 137 437.508C137.319 437.681 137.677 437.771 138.04 437.77Z" fill="black"/>
<path d="M136.98 435.46L269.9 438.26L251.83 383.53C251.538 382.643 250.979 381.868 250.228 381.313C249.478 380.758 248.573 380.449 247.64 380.43L162.22 378.81L136.98 435.46Z" fill="#DFE6F5"/>
<path d="M147.96 423.07L163.89 388.02C164.229 387.281 164.772 386.654 165.457 386.214C166.141 385.775 166.937 385.541 167.75 385.54H207.34C208.462 385.54 209.538 385.986 210.331 386.779C211.124 387.572 211.57 388.648 211.57 389.77V427.64C211.569 428.213 211.452 428.78 211.226 429.307C211 429.834 210.67 430.309 210.255 430.705C209.84 431.1 209.349 431.407 208.812 431.607C208.275 431.808 207.703 431.897 207.13 431.87L151.6 429.04C150.912 429.005 150.242 428.803 149.65 428.45C149.058 428.098 148.56 427.606 148.201 427.017C147.843 426.429 147.633 425.762 147.591 425.074C147.549 424.386 147.676 423.698 147.96 423.07Z" fill="#4C4C56"/>
<path d="M226.04 418.63L226.72 398.63C226.738 397.83 227.068 397.068 227.64 396.508C228.212 395.947 228.98 395.632 229.78 395.63H241.48C242.199 395.634 242.893 395.89 243.442 396.354C243.99 396.819 244.358 397.462 244.48 398.17L247.92 418.06C247.995 418.499 247.975 418.948 247.859 419.378C247.743 419.808 247.535 420.207 247.25 420.549C246.965 420.89 246.609 421.165 246.206 421.356C245.804 421.546 245.365 421.646 244.92 421.65L229.09 421.79C228.68 421.789 228.275 421.705 227.899 421.545C227.522 421.384 227.181 421.15 226.897 420.855C226.612 420.56 226.39 420.212 226.243 419.829C226.096 419.447 226.027 419.039 226.04 418.63Z" fill="#D1D9EC"/>
<path d="M71.04 288.55L115.15 284.87C115.795 284.785 116.449 284.911 117.015 285.23C117.582 285.55 118.029 286.044 118.29 286.64L160 381.05L136.72 433.31C137.45 431.67 137.99 444.43 132.72 433.37L66.43 295.08C65.54 293.23 68.97 288.81 71.04 288.55Z" fill="#4C4C56"/>
<path opacity="0.15" d="M71.04 288.55L115.15 284.87C115.795 284.785 116.449 284.911 117.015 285.23C117.582 285.55 118.029 286.044 118.29 286.64L160 381.05L136.72 433.31C137.45 431.67 137.99 444.43 132.72 433.37L66.43 295.08C65.54 293.23 68.97 288.81 71.04 288.55Z" fill="black"/>
<path d="M71.04 288.55L117.39 282.63C118.034 282.545 118.689 282.672 119.255 282.991C119.822 283.31 120.269 283.805 120.53 284.4L162.25 378.81L137.01 435.46L68.67 292.84C68.4606 292.408 68.358 291.932 68.3708 291.452C68.3837 290.972 68.5116 290.502 68.7438 290.081C68.9761 289.661 69.3058 289.303 69.7054 289.036C70.105 288.77 70.5627 288.603 71.04 288.55Z" fill="#4C4C56"/>
<path d="M82.61 295.19L116.12 289.97C116.79 289.865 117.476 289.989 118.066 290.323C118.656 290.657 119.116 291.181 119.37 291.81L154.47 377.67C154.614 378.021 154.683 378.398 154.672 378.777C154.662 379.156 154.573 379.528 154.41 379.87L138.34 413.45C138.122 413.917 137.775 414.312 137.34 414.589C136.905 414.866 136.4 415.013 135.885 415.013C135.37 415.013 134.865 414.866 134.43 414.589C133.995 414.312 133.648 413.917 133.43 413.45L80.34 299.45C80.1378 299.027 80.0378 298.561 80.0482 298.092C80.0586 297.622 80.1791 297.162 80.3999 296.747C80.6207 296.333 80.9357 295.976 81.3196 295.706C81.7035 295.435 82.1454 295.259 82.61 295.19Z" fill="#EF5B59"/>
<path d="M440.16 488.65C440.16 488.65 439.47 489.79 438.46 491.65L438.37 491.82C437.47 493.42 436.37 495.52 435.25 497.82L432.71 497.9H431.87C401.87 498.96 371.87 500.37 341.95 501.38L334.64 501.62H333.58C323.18 501.953 312.79 502.21 302.41 502.39H299.66H299.57H296.23L291.59 502.45C286.77 502.497 281.96 502.523 277.16 502.53H271.44C253.82 502.48 236.27 502.09 218.83 501.18L216.89 501.07C220.32 493.61 226.45 481.38 231.43 477.47C235.28 474.47 262.93 471.14 288.36 468.7L291.04 468.44H291.1L298.2 467.78C307.93 466.89 316.76 466.17 323.06 465.68L323.64 465.63L320.36 454.63L315.61 438.63L316.96 425.19L317.07 424.11H316.92C315.566 424.254 314.197 424.083 312.92 423.61L265.43 421.97H264.57L246.33 421.32C236.55 420.97 229.6 420.71 229.33 420.66C229.043 420.612 228.762 420.535 228.49 420.43C228.064 420.268 227.671 420.031 227.33 419.73C226.931 419.389 226.593 418.984 226.33 418.53H226.13H225.69L223.11 418.7L221.8 418.79C221.75 418.65 221.71 418.51 221.66 418.38C221.54 417.99 221.42 417.62 221.31 417.24H220.62L211.62 417.05H211.46C211.46 417.05 188.24 418.82 176.11 414.4C171.66 412.78 168.7 410.33 168.93 406.66C168.98 405.825 169.156 405.003 169.45 404.22C165.55 396.93 184.6 383.63 199.12 387.3C203.043 388.422 207.177 388.593 211.18 387.8C213.352 387.33 215.399 386.399 217.18 385.07C217.36 384.94 217.52 384.81 217.67 384.68C217.43 384.53 217.18 384.4 216.95 384.28C215.955 383.756 214.886 383.385 213.78 383.18L217.72 382.03H217.78C217.78 382.03 231.78 380.75 240.89 380.24H240.95C243.66 380.1 245.95 380.01 247.31 380.05C253.31 380.22 265 375.93 265.5 374.61C266 373.29 271.34 374.61 271.34 374.61L276.01 372.79C280.68 370.98 283.35 368.51 283.35 366.69C283.35 364.87 287.52 362.9 287.52 362.9C289.4 359.74 293.09 356.35 296.96 353.35C300.31 350.76 303.79 348.45 306.37 346.84C307.37 340.362 308.705 333.94 310.37 327.6C312.14 321.69 317.63 317.31 319.6 315.89L320.32 315.41C319.768 312.919 319.032 310.473 318.12 308.09C318.053 307.89 317.973 307.69 317.88 307.49C317.68 307.02 317.47 306.56 317.26 306.13L316.95 305.53C316.44 305.63 315.95 305.72 315.41 305.79C313.754 306.033 312.083 306.156 310.41 306.16C302.912 306.188 295.611 303.758 289.624 299.244C283.637 294.729 279.295 288.377 277.26 281.16C277.26 281.16 277.26 281.16 277.26 281.1C276.458 278.167 276.054 275.14 276.06 272.1C276.055 269.182 276.439 266.277 277.2 263.46C277.35 262.86 277.53 262.27 277.72 261.68C277.739 261.612 277.762 261.545 277.79 261.48C277.88 261.21 277.97 260.93 278.07 260.66C276.59 260.885 275.097 261.015 273.6 261.05H272.6C269.745 261.156 266.898 260.684 264.23 259.66C263.584 259.385 262.964 259.05 262.38 258.66C262.349 258.646 262.322 258.625 262.3 258.6C261.54 258.156 260.847 257.607 260.24 256.97C261.353 256.118 262.286 255.053 262.984 253.838C263.683 252.622 264.133 251.281 264.31 249.89C264.58 247.73 264.22 245.32 265.51 243.56C266.17 242.765 266.962 242.089 267.85 241.56C273.17 237.93 277.39 232.95 282.2 228.66C287.01 224.37 292.83 220.66 299.3 220.46C307.98 220.19 315.62 226.23 324.22 227.37C326.86 227.72 329.57 227.6 332.15 228.26C335.041 229.164 337.762 230.543 340.2 232.34C342.402 233.592 344.349 235.248 345.94 237.22C347.044 238.93 347.837 240.823 348.28 242.81C349.394 246.998 350.064 251.292 350.28 255.62C350.51 260.15 350.28 264.71 350.76 269.21C351.1 273.118 352.421 276.878 354.6 280.14H354.73C355.11 280.673 355.524 281.181 355.97 281.66C355.12 281.93 354.27 282.17 353.4 282.38C351.954 282.751 350.488 283.041 349.01 283.25C348.332 283.362 347.647 283.418 346.96 283.42C346.483 283.432 346.007 283.389 345.54 283.29L346.42 283.88L348.86 285.52L349.78 286.13L351.63 287.36C352.05 286.13 352.63 285.8 353.3 285.88C354.66 284.6 356.69 287.37 356.69 287.37C357.88 289.65 361.08 291.92 363.91 293.6C365.574 294.58 367.286 295.474 369.04 296.28C406.41 318.55 404.04 351.87 406.24 354.51C408.44 357.15 408.58 366.71 408.58 366.71C408.58 366.71 414.09 399.2 416.58 402.01C419.07 404.82 416.74 405.8 418.91 408.94C421.08 412.08 420.58 420.48 420.58 420.48C420.58 420.48 422.08 440.27 427.42 444.56C432.21 448.41 438.61 480.8 439.88 487.42L440.16 488.65Z" fill="url(#paint0_linear)"/>
<path d="M221.13 384.41C221.13 384.41 215.94 392.58 201.24 388.82C186.54 385.06 167.09 399.28 172.64 406.3C178.19 413.32 213.98 404.3 213.98 404.3L227.71 401.52L226.81 390.09L221.13 384.41Z" fill="#D38884"/>
<path opacity="0.1" d="M221.13 384.41C221.13 384.41 215.94 392.58 201.24 388.82C186.54 385.06 167.09 399.28 172.64 406.3C178.19 413.32 213.98 404.3 213.98 404.3L227.71 401.52L226.81 390.09L221.13 384.41Z" fill="black"/>
<path d="M225.91 383.97L219.54 383.64L215.62 384.78C215.62 384.78 228.04 386.58 224.62 403.41L238.01 402.6L225.91 383.97Z" fill="#A36468"/>
<path opacity="0.1" d="M225.91 383.97L219.54 383.64L215.62 384.78C215.62 384.78 228.04 386.58 224.62 403.41L238.01 402.6L225.91 383.97Z" fill="black"/>
<path d="M310.23 346.33C310.23 346.33 292.75 356.33 287.84 364.64C287.84 364.64 283.76 366.64 283.76 368.4C283.76 370.16 281.14 372.64 276.57 374.4L271.99 376.2C271.99 376.2 266.76 374.89 266.27 376.2C265.78 377.51 254.35 381.75 248.46 381.59C242.57 381.43 219.54 383.59 219.54 383.59C223.758 385.505 227.201 388.793 229.308 392.918C231.415 397.043 232.061 401.761 231.14 406.3L285.56 404.02L306.14 399.44L318.24 387.35L310.23 346.33Z" fill="#444053"/>
<path opacity="0.1" d="M310.23 346.33C310.23 346.33 292.75 356.33 287.84 364.64C287.84 364.64 283.76 366.64 283.76 368.4C283.76 370.16 281.14 372.64 276.57 374.4L271.99 376.2C271.99 376.2 266.76 374.89 266.27 376.2C265.78 377.51 254.35 381.75 248.46 381.59C242.57 381.43 219.54 383.59 219.54 383.59C223.758 385.505 227.201 388.793 229.308 392.918C231.415 397.043 232.061 401.761 231.14 406.3L285.56 404.02L306.14 399.44L318.24 387.35L310.23 346.33Z" fill="black"/>
<path d="M230.04 418.63L222.34 418.48L213.34 418.29C213.34 418.29 170.84 421.56 171.67 407.97C172.5 394.38 205.19 389.61 209.74 393.51C213.19 396.46 221.17 398.84 224.81 399.81C225.97 400.12 226.68 400.29 226.68 400.29L230.04 418.63Z" fill="#D38884"/>
<path opacity="0.1" d="M230.04 418.63L222.34 418.48C219.27 407.93 222.83 402.12 224.85 399.84C226.01 400.15 226.72 400.32 226.72 400.32L230.04 418.63Z" fill="black"/>
<path d="M235.23 419.21L227.23 419.77L223.43 420.03C218.2 404.67 226.65 398.62 226.65 398.62H229.15L233.24 399.11L235.23 419.21Z" fill="#A36468"/>
<path d="M332.13 317.25L322.65 335.25C322.65 335.25 321.2 317.02 316.98 308.43C315.9 306.23 314.64 304.67 313.17 304.2C309.17 302.94 332.17 277.73 332.17 277.73C332.94 277.89 337.34 280.73 342.73 284.4C348.66 288.4 355.8 293.28 360.6 296.4C369.71 302.21 332.13 317.25 332.13 317.25Z" fill="#D38884"/>
<path d="M319.97 317.59C319.97 317.59 312.35 322.48 310.23 329.67C308.11 336.86 306.14 349.77 306.14 349.77C306.14 349.77 309.58 380.65 311.37 382.12C313.16 383.59 319.97 414.47 319.97 414.47L326.57 410.06L317.91 371.17C317.91 371.17 323.67 321.2 319.97 317.59Z" fill="#444053"/>
<path opacity="0.1" d="M319.97 317.59C319.97 317.59 312.35 322.48 310.23 329.67C308.11 336.86 306.14 349.77 306.14 349.77C306.14 349.77 309.58 380.65 311.37 382.12C313.16 383.59 319.97 414.47 319.97 414.47L326.57 410.06L317.91 371.17C317.91 371.17 323.67 321.2 319.97 317.59Z" fill="black"/>
<path d="M353.13 386.48H315.04L321.21 326.39H353.13V386.48Z" fill="#A36468"/>
<path d="M264.88 507.21H265.34L264.48 507.54L264.88 507.21Z" fill="#67647E"/>
<path d="M336.54 479.84L329.09 482.7L328.09 483.07L301.27 493.38L291.04 497.31L277.12 502.66H271.44C253.82 502.61 236.27 502.22 218.83 501.31C222.21 493.9 228.12 482.04 232.94 478.21C236.7 475.21 263.6 471.97 288.43 469.53C291.53 469.23 294.59 468.94 297.57 468.67L298.28 468.6C308.14 467.7 317.06 466.97 323.28 466.47L324.28 466.39L332.1 465.79L332.92 464.97L333.92 469.25L334.75 472.67L336.54 479.84Z" fill="#67647E"/>
<path opacity="0.1" d="M264.88 507.21H265.34L264.48 507.54L264.88 507.21Z" fill="black"/>
<path opacity="0.1" d="M336.54 479.84L329.09 482.7L328.09 483.07L301.27 493.38L291.04 497.31L277.12 502.66H271.44C253.82 502.61 236.27 502.22 218.83 501.31C222.21 493.9 228.12 482.04 232.94 478.21C236.7 475.21 263.6 471.97 288.43 469.53C291.53 469.23 294.59 468.94 297.57 468.67L298.28 468.6C308.14 467.7 317.06 466.97 323.28 466.47L324.28 466.39L332.1 465.79L332.92 464.97L333.92 469.25L334.75 472.67L336.54 479.84Z" fill="black"/>
<path d="M264.88 507.21H265.34L264.48 507.54L264.88 507.21Z" fill="#67647E"/>
<path d="M297.19 507.21C297.19 507.32 297.11 507.43 297.08 507.54C297.08 507.43 297.15 507.32 297.2 507.21H297.19Z" fill="#67647E"/>
<path d="M336.05 507.53H335.31L335.2 507.2H335.94L336.05 507.53Z" fill="#67647E"/>
<path d="M342.91 469.39L342.29 489.97V491.08V491.19L341.98 501.38L334.67 501.62H333.61C323.21 501.953 312.82 502.21 302.44 502.39H299.69H299.6H296.26L291.62 502.45C286.8 502.496 281.99 502.523 277.19 502.53H271.44C276.64 499.31 283.37 495.76 290.61 492.21C293.86 490.61 297.23 489.02 300.61 487.45C309.61 483.27 318.72 479.32 326.15 476.17L327.1 475.77C329.98 474.55 332.59 473.46 334.82 472.54C339.64 470.54 342.7 469.34 342.91 469.26V469.39Z" fill="#67647E"/>
<path opacity="0.1" d="M276.12 384.81C277.99 388.71 279.92 392.69 283.01 395.73C283.5 396.21 284.35 396.65 284.79 396.12C284.928 395.899 284.995 395.64 284.98 395.38C284.885 393.542 284.259 391.771 283.18 390.28C282.18 388.74 281 387.34 280.11 385.74C279.22 384.14 278.2 381.06 276.2 380.64C273.63 380.1 275.55 383.63 276.12 384.81Z" fill="black"/>
<path opacity="0.1" d="M342.69 284.37C342.55 284.87 342.4 285.37 342.24 285.85C340.395 291.504 337.086 296.569 332.649 300.529C328.212 304.49 322.806 307.206 316.98 308.4C315.9 306.2 314.64 304.64 313.17 304.17C309.17 302.91 332.17 277.7 332.17 277.7C332.9 277.86 337.3 280.75 342.69 284.37Z" fill="black"/>
<path d="M343.89 274.76C343.89 281.417 341.916 287.925 338.217 293.46C334.519 298.996 329.262 303.31 323.111 305.857C316.961 308.405 310.193 309.072 303.663 307.773C297.134 306.474 291.136 303.268 286.429 298.561C281.721 293.853 278.516 287.856 277.217 281.326C275.918 274.797 276.585 268.029 279.132 261.879C281.68 255.728 285.994 250.471 291.529 246.772C297.065 243.074 303.573 241.1 310.23 241.1C314.653 241.09 319.034 241.955 323.122 243.643C327.21 245.331 330.924 247.81 334.052 250.938C337.179 254.065 339.658 257.78 341.347 261.868C343.035 265.956 343.899 270.337 343.89 274.76Z" fill="#D38884"/>
<path d="M323.14 324.76C323.14 324.76 316.14 333.26 317.26 338.82H325.75L331.96 331.82L323.14 324.76Z" fill="#67647E"/>
<path opacity="0.1" d="M348.04 288.87L321.34 325.58C321.34 325.58 328.2 335.39 331.47 335.88C334.74 336.37 353.39 292.46 353.39 292.46L348.04 288.87Z" fill="black"/>
<path d="M348.38 288.21L321.67 324.97C321.67 324.97 328.53 334.77 331.8 335.26C335.07 335.75 353.72 291.85 353.72 291.85L348.38 288.21Z" fill="#A36468"/>
<path d="M318.24 335.23C318.24 335.23 316.93 355.81 315.62 359.9C314.31 363.99 315.62 401.56 315.62 401.56L327.88 396.5L325.75 338.82L318.24 335.23Z" fill="#67647E"/>
<path opacity="0.1" d="M335.94 507.2L336.05 507.53H335.31L335.2 507.2H335.94Z" fill="black"/>
<path opacity="0.1" d="M436.38 489.48C436.38 489.48 436.15 489.86 435.77 490.48C435.39 491.1 434.98 491.87 434.45 492.85C434.423 492.888 434.4 492.928 434.38 492.97C433.64 494.34 432.76 496.02 431.87 497.85C401.87 498.91 371.87 500.32 341.95 501.33L334.64 501.57H333.58L330.44 490.97V490.86L330.11 489.74L328.11 483.08L326.11 476.31L324.04 469.09L323.28 466.47L323.08 465.81L319.82 454.71L315.4 439.64L316.83 425.26L316.93 424.17L318.22 411.29L318.4 407.47L318.5 405.47V404.9L318.72 400.26L319.38 386.46L319.72 379.4L319.78 378.33L320.46 364.16L322.39 358.37L323.39 355.49L325.61 348.8L326.09 347.15C326.79 344.64 328.2 339.68 329.52 334.91L329.64 334.5L329.73 334.19L330.67 330.8L331.84 326.45C332.28 324.78 332.57 323.59 332.64 323.18C332.75 322.47 334.64 319.33 337.12 315.18C342.12 306.91 349.64 294.74 350.5 290.66C350.504 290.627 350.504 290.593 350.5 290.56C350.551 290.312 350.622 290.068 350.71 289.83C351.12 288.61 351.71 288.28 352.33 288.36C352.612 288.406 352.882 288.511 353.12 288.67C353.723 289.076 354.251 289.584 354.68 290.17C355.85 292.42 358.98 294.67 361.75 296.34L362.29 296.65L362.61 296.84C364.91 298.15 366.77 298.99 366.77 298.99C403.37 321.05 401.09 354.06 403.21 356.67C405.33 359.28 405.5 368.77 405.5 368.77C405.5 368.77 410.89 400.96 413.34 403.77C415.79 406.58 413.51 407.53 415.63 410.64C417.75 413.75 417.26 421.97 417.26 421.97C417.26 421.97 418.73 441.57 423.96 445.82C429.19 450.07 436.38 489.48 436.38 489.48Z" fill="black"/>
<path d="M437.36 489.16L436.92 489.92C436.57 490.54 436.01 491.52 435.34 492.75L435.27 492.89C434.51 494.3 433.61 496.01 432.72 497.89H431.88C401.88 498.95 371.88 500.36 341.96 501.37L334.65 501.61L331.52 490.97V490.86L331.19 489.74L329.12 482.74L327.12 475.94L325.12 469.15L324.33 466.43L320.91 454.75L316.39 439.36L317.64 426.85L317.81 425.18L319.19 410.97L319.72 399.89L320.37 386.5L320.54 382.99L320.73 378.93L320.81 377.22L321.46 363.84L323.39 358.06L324.22 355.57L326.16 349.72L326.57 348.48C326.57 348.48 328.44 341.91 330.25 335.4C330.32 335.16 330.39 334.92 330.45 334.68C330.61 334.12 330.76 333.56 330.92 333.01C331.08 332.45 331.23 331.9 331.37 331.35C331.88 329.53 332.37 327.83 332.71 326.43C333.2 324.6 333.53 323.27 333.6 322.84C333.71 322.13 335.6 318.9 338.17 314.7C342.9 306.88 349.8 295.7 351.26 291.06C351.339 290.82 351.406 290.576 351.46 290.33C351.549 289.593 351.851 288.897 352.33 288.33C353.67 287.04 355.66 289.81 355.66 289.81C356.83 292.06 359.96 294.32 362.73 295.98C364.348 296.952 366.017 297.836 367.73 298.63C404.33 320.69 402.05 353.7 404.17 356.32C406.29 358.94 406.46 368.41 406.46 368.41C406.46 368.41 411.85 400.6 414.3 403.41C416.75 406.22 414.47 407.17 416.59 410.27C418.71 413.37 418.22 421.71 418.22 421.71C418.22 421.71 419.69 441.32 424.92 445.57C430.15 449.82 437.36 489.16 437.36 489.16Z" fill="#444053"/>
<path opacity="0.1" d="M362.73 296.62C359.14 301.84 353.29 311.02 351.73 317.62C351.73 317.62 346.01 323.51 343.88 323.18C341.75 322.85 345.88 327.59 345.88 327.59L323.41 358.73L326.6 349.16C326.6 349.16 333.3 325.63 333.6 323.51C333.9 321.39 350.17 297.1 351.46 290.99C352.46 286.1 355.66 290.5 355.66 290.5C356.82 292.7 359.95 294.97 362.73 296.62Z" fill="black"/>
<path d="M362.73 295.97C359.14 301.18 353.29 310.37 351.73 316.92C351.73 316.92 346.01 322.8 343.88 322.48C341.75 322.16 345.88 326.89 345.88 326.89L323.41 358.03L326.6 348.46C326.6 348.46 333.3 324.93 333.6 322.8C333.9 320.67 350.17 296.4 351.46 290.29C352.46 285.39 355.66 289.8 355.66 289.8C356.82 292.05 359.95 294.3 362.73 295.97Z" fill="#444053"/>
<path opacity="0.1" d="M392.91 360.49C393.08 367.63 382.62 377.38 382.13 377.95C381.64 378.52 349.61 404.95 349.61 404.95L326.61 422.59C324.018 424.727 320.918 426.16 317.61 426.75L319.18 410.97L320.73 378.97C324.32 374.97 327.8 370.77 327.88 369.43C328.04 366.66 333.88 363.71 333.88 363.71C333.88 363.71 337.97 360.28 337.31 358.32C336.65 356.36 339.48 346.97 339.48 346.97C340.95 320.33 368.4 317.72 368.4 317.72C368.4 317.72 381.64 322.95 390.95 328.5C400.26 334.05 392.75 353.36 392.91 360.49Z" fill="black"/>
<path opacity="0.1" d="M235.23 419.21L227.23 419.77C223.85 414.02 228.5 398.62 228.5 398.62H229.15L233.24 399.11L235.23 419.21Z" fill="black"/>
<path d="M368.4 316.1C368.4 316.1 340.95 318.72 339.48 345.35C339.48 345.35 336.7 354.67 337.35 356.63C338 358.59 333.92 362.02 333.92 362.02C333.92 362.02 328.04 364.96 327.92 367.74C327.8 370.52 312.92 385.68 312.92 385.68C312.92 385.68 306.72 392.74 292.34 393.48C277.96 394.22 271.26 398.62 271.26 398.62C271.26 398.62 264.26 393.72 259.16 395.19C254.06 396.66 229.26 398.62 229.26 398.62C229.26 398.62 222.67 420.46 230.89 421.83C231.89 421.99 312.79 424.77 312.79 424.77C312.79 424.77 318.32 427.38 326.65 421.01C334.98 414.64 349.65 403.36 349.65 403.36C349.65 403.36 381.65 376.89 382.17 376.36C382.69 375.83 393.17 366.03 392.95 358.9C392.73 351.77 400.31 332.48 390.95 326.9C381.59 321.32 368.4 316.1 368.4 316.1Z" fill="#444053"/>
<path opacity="0.1" d="M343.89 274.76C343.893 278.301 343.336 281.822 342.24 285.19C341.784 284.651 341.37 284.08 341 283.48C339.44 281.08 337.877 278.68 336.31 276.28C335.093 274.119 333.474 272.212 331.54 270.66C329.54 269.24 326.7 268.66 324.54 269.92C322.64 271.04 321.71 273.33 321.54 275.53C321.482 277.738 321.539 279.947 321.71 282.149C321.79 282.993 321.575 283.838 321.1 284.54C320.39 285.175 319.473 285.531 318.52 285.54L315.52 285.95C315.249 286.045 314.962 286.085 314.675 286.067C314.388 286.05 314.108 285.975 313.851 285.847C313.594 285.719 313.364 285.541 313.177 285.324C312.99 285.106 312.848 284.853 312.76 284.579C310.27 280.069 308.55 274.469 303.88 272.299C301 270.959 297.2 271.05 295.35 268.47C294.09 266.71 294.26 264.319 294.63 262.179C295.037 259.766 295.622 257.386 296.38 255.059C296.91 253.419 298.09 250.15 295.47 249.82C293.69 249.59 291.23 251.48 290.33 252.82C289.43 254.16 289.21 255.95 288.57 257.48C287.344 260.112 285.137 262.162 282.42 263.19C281.06 263.748 279.636 264.135 278.18 264.339C280.639 256.701 285.747 250.193 292.581 245.988C299.415 241.783 307.526 240.158 315.453 241.405C323.38 242.653 330.6 246.691 335.812 252.792C341.024 258.893 343.886 266.655 343.88 274.679L343.89 274.76Z" fill="black"/>
<path d="M290.34 251.97C289.43 253.36 289.22 255.09 288.58 256.62C287.355 259.25 285.152 261.299 282.44 262.33C279.745 263.339 276.888 263.847 274.01 263.83C269.35 263.97 264.15 263.26 261.15 259.69C262.244 258.843 263.16 257.789 263.846 256.588C264.533 255.387 264.976 254.062 265.15 252.69C265.41 250.55 265.06 248.16 266.33 246.41C266.977 245.644 267.748 244.992 268.61 244.48C273.83 240.88 277.95 235.94 282.67 231.7C287.39 227.46 293.08 223.77 299.42 223.57C307.91 223.31 315.42 229.29 323.82 230.42C326.4 230.77 329.06 230.65 331.58 231.3C334.416 232.181 337.083 233.533 339.47 235.3C341.63 236.551 343.539 238.192 345.1 240.14C346.178 241.84 346.953 243.715 347.39 245.68C348.495 249.829 349.166 254.082 349.39 258.37C349.62 262.85 349.39 267.37 349.87 271.83C350.35 276.29 351.77 280.83 354.82 284.13C352.595 284.833 350.318 285.358 348.01 285.7C346.567 286.042 345.052 285.923 343.68 285.36C342.569 284.653 341.659 283.672 341.04 282.51L336.35 275.31C335.133 273.15 333.514 271.242 331.58 269.69C329.58 268.27 326.74 267.69 324.58 268.95C322.68 270.07 321.76 272.36 321.58 274.56C321.522 276.768 321.579 278.978 321.75 281.18C321.83 282.023 321.615 282.868 321.14 283.57C320.427 284.207 319.506 284.563 318.55 284.57L315.55 284.98C315.279 285.075 314.992 285.115 314.705 285.097C314.418 285.08 314.138 285.005 313.881 284.877C313.624 284.75 313.394 284.572 313.207 284.354C313.02 284.136 312.878 283.883 312.79 283.61C310.3 279.09 308.58 273.5 303.91 271.33C301.03 269.99 297.23 270.08 295.38 267.5C294.12 265.74 294.29 263.35 294.66 261.21C295.067 258.797 295.652 256.417 296.41 254.09C296.94 252.45 298.12 249.18 295.5 248.84C293.7 248.65 291.24 250.54 290.34 251.97Z" fill="#444053"/>
<path opacity="0.1" d="M366.48 331.04C369.01 330.69 371.67 330.46 374.04 331.43C367.87 328.9 357.83 329.87 352.21 333.35C352.72 334.52 364.52 331.31 366.48 331.04Z" fill="black"/>
<path opacity="0.1" d="M369.43 339.24C375.58 339.65 381.93 340.51 387.76 338.51C382.88 336.83 377.51 337.89 372.37 337.38C368.27 336.97 364.1 335.55 360.1 336.59C358.43 337.02 352.28 339.85 352.7 341.92C357.951 339.596 363.715 338.673 369.43 339.24Z" fill="black"/>
<path opacity="0.1" d="M353.14 352.68C354.427 352.544 355.729 352.68 356.96 353.08C361.573 354.166 366.301 354.686 371.04 354.63C374.66 354.63 378.56 354.08 381.2 351.63L353.14 352.68Z" fill="black"/>
<path opacity="0.1" d="M333.33 383.97C337.631 385.945 342.359 386.805 347.08 386.47C351.781 386.124 356.426 385.231 360.92 383.81C362.92 383.22 365.1 382.48 366.27 380.74L333.33 383.97Z" fill="black"/>
<path opacity="0.1" d="M377.6 388.37C386.957 393.721 397.377 396.948 408.12 397.82C402.7 395.647 397.24 393.59 391.74 391.65C386.114 389.679 380.348 388.135 374.49 387.03C375.604 387.271 376.66 387.726 377.6 388.37Z" fill="black"/>
<path opacity="0.1" d="M392.71 382.64C394.589 382.954 396.498 383.058 398.4 382.95C399.4 382.95 400.59 382.81 401.18 381.95C396.89 382.13 392.66 381.03 388.47 380.08C387.28 379.8 385.14 379.14 384.14 379.85C386.04 381.21 390.31 382.16 392.71 382.64Z" fill="black"/>
<path opacity="0.1" d="M418.5 471.97C420.75 475.83 423.03 479.73 426.14 482.97C427.937 484.737 429.852 486.38 431.87 487.89C428.16 478.43 424.39 468.89 418.45 460.62C416.95 458.54 414.71 455.56 411.98 455.18C411.2 457.49 413.17 461.58 414.12 463.75C415.424 466.57 416.886 469.314 418.5 471.97Z" fill="black"/>
<path opacity="0.1" d="M309.17 401.23C309 402.83 308.87 404.6 309.8 405.91C310.26 406.556 310.933 407.02 311.7 407.22C311.22 407.1 310.7 402.4 310.58 401.76C310.36 400.45 310.58 398 309.65 397.03C309.41 398.41 309.32 399.83 309.17 401.23Z" fill="black"/>
<path opacity="0.1" d="M314.37 399.39C314.7 400.799 315.314 402.125 316.174 403.289C317.033 404.453 318.121 405.43 319.37 406.16C317.62 404 317.05 401.16 315.53 398.79C315.04 398.03 314.47 396.94 313.53 396.79C313.767 397.67 314.047 398.538 314.37 399.39Z" fill="black"/>
<path opacity="0.1" d="M309.97 370.59C308.494 371.468 306.854 372.032 305.15 372.247C303.447 372.462 301.717 372.323 300.07 371.84C299.32 371.62 297.57 370.84 297.99 369.74C298.41 368.64 300.44 369.4 301.27 369.5L305.62 370.05C306.42 370.15 309.32 370.97 309.97 370.59Z" fill="black"/>
<path opacity="0.1" d="M295.25 377.71C297.3 377.45 299.14 378.87 301.06 379.64C303.185 380.348 305.424 380.647 307.66 380.52C308.78 380.52 310.05 380.43 310.74 379.52C305.53 378.33 300.66 377.02 295.25 377.71Z" fill="black"/>
<path d="M319.97 317.58H320.3L322.75 326.39L319.97 329.35V317.58Z" fill="#A36468"/>
<g opacity="0.1">
<path opacity="0.1" d="M265.79 247.73C265.486 249.16 265.336 250.619 265.34 252.08C265.465 251.621 265.555 251.153 265.61 250.68C265.73 249.72 265.72 248.71 265.79 247.73Z" fill="black"/>
<path opacity="0.1" d="M295.62 248.87C295.863 248.884 296.1 248.949 296.316 249.059C296.532 249.169 296.724 249.323 296.878 249.511C297.032 249.699 297.145 249.917 297.211 250.151C297.277 250.385 297.294 250.629 297.26 250.87C297.73 249.21 297.99 247.17 295.95 246.87C294.17 246.65 291.71 248.54 290.81 249.92C289.91 251.3 289.69 253.05 289.05 254.58C287.828 257.212 285.624 259.262 282.91 260.29C280.215 261.299 277.358 261.808 274.48 261.79C270.24 261.92 265.55 261.33 262.48 258.53C262.112 258.921 261.715 259.282 261.29 259.61C264.29 263.18 269.49 263.89 274.16 263.75C277.035 263.767 279.888 263.258 282.58 262.25C285.295 261.219 287.501 259.171 288.73 256.54C289.37 255.01 289.57 253.28 290.48 251.89C291.39 250.5 293.84 248.65 295.62 248.87Z" fill="black"/>
<path opacity="0.1" d="M348.44 283.73C346.997 284.073 345.482 283.954 344.11 283.39C343.001 282.681 342.093 281.7 341.47 280.54C339.91 278.14 338.347 275.74 336.78 273.34C335.569 271.179 333.953 269.271 332.02 267.72C330.02 266.29 327.17 265.72 325.02 266.98C323.11 268.1 322.19 270.39 321.97 272.59C321.97 272.68 321.97 272.77 321.97 272.86C322.332 271.247 323.312 269.839 324.7 268.94C326.83 267.68 329.7 268.26 331.7 269.68C333.631 271.235 335.249 273.142 336.47 275.3C338.03 277.7 339.593 280.1 341.16 282.5C341.776 283.664 342.686 284.647 343.8 285.35C345.169 285.914 346.68 286.032 348.12 285.69C350.431 285.347 352.712 284.822 354.94 284.12C354.5 283.644 354.093 283.14 353.72 282.61C351.985 283.094 350.222 283.468 348.44 283.73Z" fill="black"/>
<path opacity="0.1" d="M321.55 281.6C320.836 282.23 319.922 282.584 318.97 282.6L315.97 283.01C315.699 283.105 315.412 283.145 315.125 283.128C314.838 283.11 314.558 283.035 314.301 282.908C314.044 282.78 313.814 282.602 313.627 282.384C313.44 282.167 313.298 281.913 313.21 281.64C310.72 277.12 309 271.53 304.33 269.36C301.45 268.02 297.66 268.11 295.81 265.53C294.871 263.955 294.554 262.087 294.92 260.29C294.87 260.6 294.8 260.9 294.75 261.2C294.39 263.34 294.21 265.73 295.48 267.49C297.33 270.07 301.13 269.98 304 271.32C308.68 273.49 310.4 279.08 312.89 283.6C313.117 284.168 313.52 284.648 314.04 284.97C314.56 285.143 315.117 285.168 315.65 285.04L318.65 284.63C319.603 284.621 320.52 284.266 321.23 283.63C321.709 282.93 321.925 282.084 321.84 281.24C321.753 281.367 321.656 281.488 321.55 281.6Z" fill="black"/>
</g>
<path d="M735.44 517.4L729.03 516.51V421.88L730.34 422.28L734.34 423.51V426.66V429.03V432.62L734.39 436.73L734.48 445.19V446.04V447.17V449.57V451.02V454.53V456.73L734.96 499.34V500.48L735.13 515.48V515.71L735.44 517.4Z" fill="#EAECF0"/>
<path d="M739.04 517.9L735.47 517.4V515.69V515.46L735.3 500.46V499.32L734.82 456.71V454.51V451V449.55V447.15V446.02V445.17L734.73 436.71L734.68 432.6V429.01V426.64V423.49H738.53V426.97V429.35V432.09V435.72L738.61 444.86V446.86V448.95V450.41V452.2V454.53L738.98 499.25V500.4L739.1 515.27V515.51L739.04 517.9Z" fill="#D3DAE1"/>
<path d="M1128.04 410.15V491.83C1126.14 493.164 1124.19 494.474 1122.2 495.76L1122.12 427.76V420.54L1128.04 410.15Z" fill="#EAECF0"/>
<path d="M1132.2 408.97V488.67C1130.84 489.76 1129.45 490.81 1128.04 491.84V410.15L1132.2 408.97Z" fill="#D3DAE1"/>
<path d="M1039.34 524.72C1036.88 525.22 1034.41 525.72 1031.94 526.15L1031.85 452.24V449.04L1038.98 446.04V452.82L1039.34 524.72Z" fill="#EAECF0"/>
<path d="M1044.04 443.7V523.7C1042.48 524.04 1040.92 524.36 1039.36 524.7L1039.03 452.83V446.05L1039.5 445.83L1044.04 443.7Z" fill="#D3DAE1"/>
<path d="M620.19 502.58L613.54 501.91L612.69 418.57V416.19V414.6H619.22V416.75V419.13L620.19 502.58Z" fill="#EAECF0"/>
<path d="M625.14 503.11L620.14 502.58L619.14 419.13V416.75V414.6H624.19V417.19V419.57L625.14 503.11Z" fill="#D3DAE1"/>
<path opacity="0.1" d="M1039.45 445.84L1044.02 443.69V453.78L1039.57 455.27L1039.45 445.84Z" fill="black"/>
<path opacity="0.1" d="M1132.19 408.95V424.39L1128.04 425.78L1122.11 427.75L1122.1 420.53L1128.04 410.14L1132.19 408.95Z" fill="black"/>
<path d="M1132.19 379.27V422.02L1039.57 452.89L1038.97 407.17L1132.19 379.27Z" fill="#D48A9B"/>
<path d="M611.46 376.3L733.18 353.14L1132.19 379.27L1038.97 407.17L611.46 376.3Z" fill="#EFC6CD"/>
<path opacity="0.1" d="M624.23 414.6L624.27 419.56L619.23 419.12L612.68 418.56L612.65 414.6H624.23Z" fill="black"/>
<path opacity="0.1" d="M738.28 429.36L734.43 429.02L729.03 428.56V421.88L734.37 423.5H738.23L738.28 429.36Z" fill="black"/>
<path d="M611.46 376.3V416.08L1039.57 452.89L1038.97 407.17L611.46 376.3Z" fill="#D48A9B"/>
<path d="M950.9 423.6H894.98V403.31L950.9 407.25V423.6Z" fill="#D48A9B"/>
<path opacity="0.1" d="M950.9 423.6H894.98V403.31L950.9 407.25V423.6Z" fill="black"/>
<path opacity="0.1" d="M819.87 398.86V430.92L1034.52 447.25V413.11L950.8 408.36L942.48 415.78L908.34 413.41L896.17 404.5L819.87 398.86Z" fill="black"/>
<path d="M818.68 397.67V429.74L1033.33 446.06V411.92L949.61 407.17L941.3 414.6L907.15 412.22L894.98 403.31L818.68 397.67Z" fill="white"/>
<path d="M686.27 389.06L737.04 392.63L736.45 408.76H703.3L681.13 400.05L686.27 389.06Z" fill="#D48A9B"/>
<path opacity="0.1" d="M686.27 389.06L737.04 392.63L736.45 408.76H703.3L681.13 400.05L686.27 389.06Z" fill="black"/>
<path opacity="0.1" d="M618.59 384.61V413.41L813.34 428.85V398.27L738.23 393.81L730.21 399.75L699.93 397.97L687.46 390.25L618.59 384.61Z" fill="black"/>
<path d="M617.4 383.42V412.22L812.15 427.66V397.08L737.04 392.63L729.03 398.56L698.74 396.78L686.27 389.06L617.4 383.42Z" fill="white"/>
<path opacity="0.1" d="M1034.54 383.53L1061.84 385.32L1016.61 398.86L993.57 397.2L1034.54 383.53Z" fill="black"/>
<path d="M1034.54 382.35L1061.84 384.13L1016.61 397.67L993.57 396.01L1034.54 382.35Z" fill="white"/>
<path d="M1031.28 385.42C1032.36 384.95 1033.51 385.82 1034.66 386.04C1035.31 386.17 1035.99 386.04 1036.66 386.17C1038 386.35 1039.32 387.24 1040.6 386.79L1031.28 385.42Z" fill="#D3DAE1"/>
<path d="M1029.87 386.23C1030.94 385.77 1032.09 386.64 1033.24 386.86C1033.9 386.98 1034.58 386.86 1035.24 386.98C1036.57 387.16 1037.9 388.06 1039.18 387.61L1029.87 386.23Z" fill="#D3DAE1"/>
<path d="M1026.63 387.87C1027.7 387.41 1028.85 388.27 1030 388.49C1030.66 388.62 1031.33 388.49 1032 388.62C1033.34 388.8 1034.67 389.7 1035.94 389.24L1026.63 387.87Z" fill="#D3DAE1"/>
<path opacity="0.1" d="M850.35 368.55L911.22 372.54L898.25 391.17L831.33 384.02L850.35 368.55Z" fill="black"/>
<path d="M849.16 367.36L910.03 371.34L897.06 389.98L830.13 382.83L849.16 367.36Z" fill="#3A3768"/>
<path d="M851.84 368.73L904.93 371.98L893.62 387.16L835.25 381.33L851.84 368.73Z" fill="#D5E1F4"/>
<path d="M816.24 520.97C816.24 521.25 816.24 521.54 816.19 521.82C816.14 522.1 816.19 522.32 816.11 522.57C815.897 524.332 815.408 526.05 814.66 527.66C789.51 524.83 764.3 521.43 739.06 517.94L735.49 517.44L729.08 516.55L723.68 515.8C717.769 515.652 711.876 515.1 706.04 514.15C702.363 513.606 698.723 512.838 695.14 511.85C679.14 509.66 663.05 507.55 647.01 505.63L644.92 505.38C645.3 503.68 645.62 502.65 645.62 502.65C645.62 502.65 649.06 489.13 651.92 474.02C652.55 470.74 653.15 467.4 653.67 464.09C654.09 461.44 654.47 458.82 654.79 456.3C654.97 454.91 655.12 453.55 655.25 452.22C655.32 451.56 655.38 450.9 655.43 450.22C655.48 449.54 655.54 448.8 655.59 448.11C655.64 447.42 655.66 446.81 655.69 446.18V445.24C655.69 443.89 655.69 442.48 655.64 441.03C655.134 433.808 653.996 426.644 652.24 419.62C651.96 418.42 651.67 417.22 651.37 416.05C651.28 415.67 651.18 415.3 651.08 414.93C647.85 402.42 644.08 392.2 644.08 392.2C644.076 392.143 644.076 392.087 644.08 392.03C644.084 391.99 644.084 391.95 644.08 391.91C644.084 391.827 644.084 391.743 644.08 391.66C644.08 391.34 644.08 390.85 644.08 390.26C644.08 390.14 644.08 390.01 644.08 389.88C644.153 388.831 644.334 387.792 644.62 386.78C644.729 386.421 644.856 386.067 645 385.72C645.357 384.714 645.953 383.81 646.737 383.085C647.521 382.36 648.469 381.837 649.5 381.56C652.33 380.83 656.61 381.56 663.07 385.39C664.122 385.998 665.125 386.686 666.07 387.45C666.55 387.83 667.07 388.23 667.47 388.66C674.87 395.55 678.81 406.92 680.91 417.3C680.99 417.67 681.06 418.04 681.13 418.41C681.38 419.69 681.59 420.94 681.78 422.17C682.12 424.33 682.39 426.41 682.59 428.34C682.59 428.86 682.7 429.34 682.75 429.87C682.8 430.4 682.85 430.87 682.88 431.35C683.01 432.91 683.1 434.35 683.16 435.57C683.33 438.81 683.3 440.8 683.3 440.8V440.9C683.3 440.9 683.3 441.05 683.25 441.33C683.244 441.356 683.244 441.384 683.25 441.41C683.25 441.53 683.25 441.68 683.25 441.85C683.25 442.02 683.25 442.14 683.25 442.31C683.21 442.73 683.16 443.22 683.1 443.78C683.01 444.64 682.91 445.65 682.79 446.78C682.71 447.62 682.61 448.53 682.51 449.49C682.29 451.49 682.05 453.81 681.79 456.25C681.73 456.71 681.68 457.17 681.63 457.63C681.4 459.72 681.16 461.9 680.91 464.1C680.64 466.6 680.34 469.1 680.05 471.57C679.98 472.11 679.91 472.65 679.85 473.18C679.11 479.18 678.37 484.63 677.77 488.02C677.676 488.523 677.609 489.03 677.57 489.54C677.56 489.713 677.56 489.887 677.57 490.06C677.54 490.513 677.54 490.967 677.57 491.42C678.06 499.96 687.29 501.42 687.29 501.42L729.2 500.59L735.42 500.47L739.04 500.4L771.71 499.75L774.71 499.69L790.96 499.37C792.063 499.344 793.164 499.475 794.23 499.76C799.247 501.108 804.034 503.201 808.43 505.97C809.803 506.851 811.04 507.93 812.1 509.17C812.152 509.219 812.199 509.272 812.24 509.33C814.456 511.987 815.825 515.247 816.17 518.69C816.17 518.92 816.17 519.15 816.17 519.38C816.25 519.86 816.25 520.4 816.24 520.97Z" fill="#3A3768"/>
<path opacity="0.1" d="M816.24 520.97C816.24 521.25 816.24 521.54 816.19 521.82C816.14 522.1 816.19 522.32 816.11 522.57C815.872 524.333 815.366 526.049 814.61 527.66C789.46 524.83 764.25 521.43 739.01 517.94L735.44 517.44L729.03 516.55L723.63 515.8C717.719 515.651 711.826 515.1 705.99 514.15C702.313 513.606 698.673 512.838 695.09 511.85C679.09 509.66 663 507.55 646.96 505.63L644.87 505.38C645.25 503.62 645.59 502.55 645.59 502.55C645.59 502.55 648.4 491.55 651.07 478.22C651.26 477.3 651.44 476.38 651.62 475.45L651.89 474.04C652.51 470.77 653.11 467.41 653.64 464.11C654.06 461.46 654.44 458.84 654.76 456.32C654.94 454.93 655.09 453.57 655.22 452.24C655.29 451.58 655.35 450.92 655.4 450.24C655.45 449.56 655.51 448.82 655.56 448.13C655.61 447.44 655.63 446.83 655.66 446.2V445.26C655.66 443.91 655.66 442.5 655.61 441.05C655.119 433.828 653.991 426.663 652.24 419.64C651.96 418.427 651.67 417.237 651.37 416.07C651.27 415.69 651.18 415.32 651.08 414.95C647.84 402.4 644.08 392.12 644.08 392.12C644.083 392.097 644.083 392.073 644.08 392.05C644.084 392.01 644.084 391.97 644.08 391.93C644.084 391.847 644.084 391.763 644.08 391.68C644.08 391.36 644.08 390.87 644.08 390.28C644.08 390.16 644.08 390.03 644.08 389.9C644.143 388.852 644.314 387.813 644.59 386.8C644.7 386.45 644.82 386.09 644.96 385.74C645.32 384.679 645.944 383.726 646.773 382.972C647.602 382.218 648.609 381.688 649.7 381.43C652.53 380.77 656.76 381.59 663.08 385.29C664.176 385.934 665.219 386.662 666.2 387.47C666.67 387.86 667.12 388.25 667.56 388.67C674.9 395.6 678.81 406.95 680.89 417.3C680.97 417.67 681.04 418.05 681.11 418.42C681.36 419.69 681.57 420.95 681.76 422.17C682.1 424.33 682.36 426.4 682.56 428.32C682.61 428.85 682.67 429.37 682.71 429.87C682.75 430.37 682.81 430.87 682.84 431.35C682.97 432.91 683.06 434.35 683.12 435.57C683.29 438.81 683.26 440.8 683.26 440.8V441.14C683.26 441.2 683.26 441.26 683.26 441.33C683.254 441.356 683.254 441.384 683.26 441.41C683.26 441.53 683.26 441.68 683.26 441.85C683.26 442.02 683.26 442.14 683.26 442.31C683.22 442.73 683.17 443.22 683.11 443.78C683.02 444.64 682.92 445.65 682.8 446.78C682.7 447.61 682.61 448.52 682.51 449.49C682.29 451.49 682.05 453.81 681.79 456.25C681.73 456.71 681.68 457.17 681.63 457.63C681.4 459.72 681.15 461.92 680.91 464.12C680.62 466.62 680.33 469.12 680.03 471.58C679.96 472.12 679.9 472.66 679.83 473.19C679.1 479.19 678.37 484.56 677.77 487.93C677.671 488.469 677.605 489.013 677.57 489.56C677.56 489.733 677.56 489.907 677.57 490.08C677.54 490.533 677.54 490.987 677.57 491.44C678.14 499.88 687.29 501.29 687.29 501.29L729.2 500.47L735.41 500.34L739.04 500.27L771.77 499.63L774.83 499.57L791.02 499.25C792.123 499.214 793.226 499.346 794.29 499.64C799.345 500.95 804.171 503.024 808.6 505.79C809.997 506.683 811.251 507.782 812.32 509.05C812.372 509.098 812.419 509.152 812.46 509.21C814.675 511.878 816.028 515.156 816.34 518.61C816.34 518.84 816.34 519.07 816.34 519.3C816.25 519.86 816.25 520.4 816.24 520.97Z" fill="black"/>
<path d="M816.31 527.81L814.66 527.62C789.51 524.79 764.3 521.39 739.06 517.9L735.49 517.4L729.08 516.51L723.68 515.76C717.769 515.611 711.876 515.06 706.04 514.11C702.363 513.566 698.723 512.798 695.14 511.81C679.14 509.62 663.05 507.51 647.01 505.59C647.271 504.187 647.604 502.798 648.01 501.43C648.01 501.43 657.51 464.02 658.1 444.13C658.31 437.02 656.9 428.22 654.99 419.83C654.71 418.62 654.43 417.42 654.13 416.24L653.86 415.12C650.47 401.97 646.44 390.97 646.44 390.97C646.346 389.609 646.423 388.241 646.67 386.9C646.732 386.539 646.812 386.182 646.91 385.83C647.293 384.154 648.196 382.642 649.49 381.51C649.549 381.458 649.613 381.411 649.68 381.37C652.31 379.37 657.03 379.23 665.43 384.15C667.132 385.154 668.706 386.359 670.12 387.74C670.52 388.12 670.92 388.52 671.3 388.93C678.05 396.24 681.63 407.44 683.51 417.46L683.72 418.57C683.94 419.82 684.13 421.05 684.31 422.24C684.31 422.24 684.31 422.31 684.31 422.34C684.54 423.92 684.73 425.43 684.89 426.87C685.358 431.111 685.599 435.373 685.61 439.64C685.61 439.64 685.22 443.59 684.61 449.28C684.38 451.51 684.11 454.01 683.82 456.65C683.82 456.78 683.82 456.91 683.82 457.05L683.67 458.45C683.16 463.06 682.6 467.98 682.03 472.54C681.97 473.1 681.9 473.65 681.83 474.19C681.19 479.32 680.55 483.88 680.02 486.85C677.94 498.43 689.52 500.21 689.52 500.21L729.06 499.43L735.26 499.31L738.89 499.23H740.41H740.9L772.26 498.61H775.26L793.26 498.25C794.364 498.222 795.466 498.357 796.53 498.65C801.587 499.96 806.415 502.03 810.85 504.79C812.093 505.592 813.226 506.554 814.22 507.65C814.282 507.712 814.339 507.779 814.39 507.85C816.741 510.567 818.188 513.947 818.532 517.524C818.876 521.1 818.1 524.695 816.31 527.81Z" fill="#3A3768"/>
<path d="M957.67 347.05L969.9 373.25H967.85L953.51 347.36L957.67 347.05Z" fill="#4C4C56"/>
<path opacity="0.1" d="M957.67 347.05L969.9 373.25H967.85L953.51 347.36L957.67 347.05Z" fill="black"/>
<path d="M957.67 373.25H969.9V375.99L957.67 376.3V373.25Z" fill="#4C4C56"/>
<path opacity="0.1" d="M957.67 373.25H969.9V375.99L957.67 376.3V373.25Z" fill="black"/>
<path d="M862.54 250.64V342.13C862.54 343.93 863.255 345.657 864.529 346.931C865.802 348.204 867.529 348.92 869.33 348.92H1021.83C1022.73 348.92 1023.62 348.741 1024.44 348.394C1025.27 348.046 1026.02 347.537 1026.65 346.897C1027.28 346.256 1027.77 345.497 1028.1 344.663C1028.44 343.829 1028.6 342.937 1028.58 342.04L1026.85 250.47C1026.82 248.702 1026.09 247.018 1024.83 245.78C1023.57 244.543 1021.87 243.849 1020.1 243.85H869.33C868.438 243.85 867.555 244.025 866.732 244.366C865.908 244.708 865.159 245.208 864.529 245.838C863.898 246.469 863.398 247.217 863.057 248.041C862.716 248.865 862.54 249.748 862.54 250.64Z" fill="#4C4C56"/>
<path opacity="0.1" d="M862.54 250.64V342.13C862.54 343.93 863.255 345.657 864.529 346.931C865.802 348.204 867.529 348.92 869.33 348.92H1021.83C1022.73 348.92 1023.62 348.741 1024.44 348.394C1025.27 348.046 1026.02 347.537 1026.65 346.897C1027.28 346.256 1027.77 345.497 1028.1 344.663C1028.44 343.829 1028.6 342.937 1028.58 342.04L1026.85 250.47C1026.82 248.702 1026.09 247.018 1024.83 245.78C1023.57 244.543 1021.87 243.849 1020.1 243.85H869.33C868.438 243.85 867.555 244.025 866.732 244.366C865.908 244.708 865.159 245.208 864.529 245.838C863.898 246.469 863.398 247.217 863.057 248.041C862.716 248.865 862.54 249.748 862.54 250.64Z" fill="black"/>
<path d="M857.04 250.64V342.13C857.04 343.931 857.755 345.658 859.029 346.931C860.302 348.204 862.029 348.92 863.83 348.92H1016.33C1017.23 348.92 1018.11 348.741 1018.94 348.394C1019.77 348.046 1020.52 347.537 1021.15 346.896C1021.77 346.256 1022.27 345.496 1022.6 344.662C1022.93 343.828 1023.09 342.937 1023.07 342.04L1021.34 250.47C1021.31 248.704 1020.58 247.022 1019.32 245.784C1018.06 244.546 1016.37 243.852 1014.6 243.85H863.87C862.975 243.844 862.088 244.016 861.259 244.355C860.431 244.694 859.678 245.193 859.043 245.824C858.408 246.455 857.904 247.206 857.561 248.032C857.217 248.858 857.04 249.745 857.04 250.64Z" fill="#4C4C56"/>
<path d="M863.04 256.36V336.91C863.04 338.711 863.755 340.438 865.029 341.712C866.302 342.985 868.029 343.7 869.83 343.7H1011.04C1012.83 343.7 1014.55 342.989 1015.81 341.723C1017.08 340.457 1017.79 338.741 1017.79 336.95V256.31C1017.79 254.522 1017.07 252.808 1015.81 251.544C1014.54 250.28 1012.83 249.57 1011.04 249.57H869.83C868.029 249.57 866.302 250.286 865.029 251.559C863.755 252.832 863.04 254.56 863.04 256.36Z" fill="#EF5B59"/>
<path d="M924.14 347.42L937.55 373.25H967.85L952.7 343.7L924.14 347.42Z" fill="#4C4C56"/>
<path d="M913.46 373.25L911.22 375.99H957.67V373.25H913.46Z" fill="#4C4C56"/>
<path d="M714.457 265.323C715.277 269.751 716.097 274.185 717.6 278.41C717.608 278.44 717.619 278.468 717.63 278.499C717.646 278.54 717.663 278.587 717.68 278.65C717.491 278.582 717.317 278.477 717.17 278.34C716.875 278.025 716.659 277.645 716.54 277.23C715.013 272.973 714.18 268.516 713.349 264.071C712.335 258.648 711.324 253.241 709.06 248.23C708.404 246.935 707.833 245.599 707.35 244.23C707.258 243.941 707.181 243.647 707.12 243.35L707.35 243.21L707.6 243.11L707.85 243.04L708.1 242.98C708.154 243.864 708.308 244.74 708.56 245.59C709.04 246.957 709.605 248.293 710.25 249.59C712.467 254.566 713.461 259.94 714.457 265.323Z" fill="url(#paint1_linear)"/>
<path d="M751.04 283.67C749.465 285.443 748.17 287.446 747.2 289.61C747.05 289.94 746.9 290.26 746.76 290.61C742.34 300.61 740.84 314.76 740.84 314.76C740.84 314.76 738.1 313.53 734.22 311.61C726.99 308.03 715.83 302.07 711.32 297.32C709.32 295.17 708.6 293.27 710.26 291.94C710.62 291.65 710.99 291.32 711.36 290.94C712.639 289.662 713.806 288.277 714.85 286.8C716.29 284.8 717.71 282.57 719.05 280.28C719.84 278.94 720.59 277.59 721.29 276.28L721.57 275.76C724.57 270.07 726.76 265.21 726.76 265.21C726.76 265.21 727.76 265.53 729.38 266.1C736.85 268.77 757.42 276.88 751.04 283.67Z" fill="#EFB7B9"/>
<path d="M887.92 515.36C887.92 515.36 889.14 524.42 890.69 533.98L887.14 533.8C877.647 533.307 868.143 532.677 858.63 531.91C853.23 519.4 847.63 504.55 847.63 504.32C847.63 504.09 847.46 499.2 847.27 493.74C847.21 491.82 847.14 489.84 847.08 487.98C846.98 485.16 846.89 482.62 846.84 481.04C846.84 479.96 846.78 479.32 846.78 479.32C846.78 479.32 841.64 480.22 837.02 480.85L834.97 481.12C833.91 481.25 832.97 481.35 832.12 481.41C831.388 481.522 830.642 481.522 829.91 481.41C828.33 480.8 831.61 465.41 831.61 465.41L839.77 445.66L842.05 440.16L843.05 439.91C843.54 439.79 844.2 439.65 844.99 439.5C852.78 438.07 873.59 436.25 877.12 456.79C881.49 482.16 882.12 487.86 882.12 487.86L887.92 515.36Z" fill="#EFB7B9"/>
<path opacity="0.05" d="M887.92 515.36C887.92 515.36 889.14 524.42 890.69 533.98L887.14 533.8C877.647 533.307 868.143 532.677 858.63 531.91C853.23 519.4 847.63 504.55 847.63 504.32C847.63 504.09 847.46 499.2 847.27 493.74C847.21 491.82 847.14 489.84 847.08 487.98C846.98 485.16 846.89 482.62 846.84 481.04C846.84 479.96 846.78 479.32 846.78 479.32C846.78 479.32 841.64 480.22 837.02 480.85L834.97 481.12C833.91 481.25 832.97 481.35 832.12 481.41C831.388 481.522 830.642 481.522 829.91 481.41C828.33 480.8 831.61 465.41 831.61 465.41L839.77 445.66L842.05 440.16L843.05 439.91C843.54 439.79 844.2 439.65 844.99 439.5C852.78 438.07 873.59 436.25 877.12 456.79C881.49 482.16 882.12 487.86 882.12 487.86L887.92 515.36Z" fill="black"/>
<path d="M887.14 533.8C877.647 533.306 868.143 532.676 858.63 531.91L855.03 531.62L853.44 531.49C848.96 520.68 844.98 510.11 844.98 509.92C844.98 509.73 844.81 504.8 844.62 499.34C844.39 492.52 844.13 484.92 844.13 484.92L843.46 485.03L843.18 485.08H843.06H842.82L841.21 485.35L840.33 485.49C838.74 485.75 836.82 486.04 834.94 486.31L834.52 486.37L833.42 486.51L832.42 486.63C831.65 486.73 830.92 486.81 830.26 486.87L829.45 486.94C828.718 487.057 827.972 487.057 827.24 486.94C825.66 486.33 828.94 470.94 828.94 470.94L839.38 445.69L839.74 445.59C840.29 445.45 841.45 445.18 843.02 444.91C843.61 444.81 844.26 444.71 844.96 444.62C854.02 443.46 871.26 443.79 874.45 462.32C878.82 487.69 879.45 493.39 879.45 493.39L885.28 520.97C885.28 520.97 886.04 526.67 887.14 533.8Z" fill="#EFB7B9"/>
<path opacity="0.1" d="M844.62 499.34C844.39 492.52 844.13 484.91 844.13 484.91C844.13 484.91 834.13 486.66 829.47 487L830.41 483.82C830.41 483.82 847.53 479.09 847.89 481.76C848.15 483.63 845.95 493.57 844.62 499.34Z" fill="black"/>
<path opacity="0.1" d="M844.98 439.45V446.68C844.98 446.68 844.13 459.68 837.45 479.57C837.31 480 837.16 480.42 837 480.84C836.3 482.754 835.471 484.618 834.52 486.42C832.64 486.68 830.82 486.9 829.47 487C828.738 487.112 827.992 487.112 827.26 487C825.68 486.39 828.95 471 828.95 471L839.39 445.76L839.76 445.66L842.03 440.15C842.03 440.15 843.15 439.79 844.98 439.45Z" fill="black"/>
<path d="M843.04 438.31V446.68C843.04 446.68 842.19 459.68 835.51 479.58C835.34 480.1 835.15 480.58 834.96 481.11C834.77 481.64 834.52 482.27 834.27 482.83C833.72 484.16 833.1 485.45 832.45 486.69C827.22 496.6 819.25 503.69 814.19 507.59C813.45 508.16 812.76 508.66 812.19 509.08H812.14C811.14 509.76 810.42 510.25 809.96 510.54C809.5 510.83 809.46 510.85 809.46 510.85C804.72 507.94 791.25 507.45 791.25 507.45L759.81 513.16C752.938 514.343 746.003 515.131 739.04 515.52L735.47 515.69C733.41 515.77 731.27 515.82 729.08 515.83C727.31 515.83 725.51 515.83 723.68 515.76C717.769 515.611 711.876 515.06 706.04 514.11C702.83 513.583 699.652 512.878 696.52 512C694.287 511.381 692.087 510.646 689.93 509.8C667.93 501.16 673.66 480.67 677.37 471.8C677.57 471.33 677.76 470.9 677.94 470.5C678.76 468.69 679.37 467.63 679.37 467.63L680.83 464.1L683.22 458.31L683.75 457.04L683.9 456.67L685.67 452.38L710.67 449.14L729.04 446.76L734.63 446.04L738.42 445.55L745.65 444.61L748.37 444.26C750.048 443.999 751.742 443.866 753.44 443.86C754.357 443.817 755.274 443.953 756.14 444.26C758.14 445.17 773.38 442.68 773.38 442.68C773.38 442.68 785.27 439.04 795.71 440.25C800.873 440.606 806.053 440.639 811.22 440.35L812.5 440.29L814.16 440.22H814.52C828.04 439.59 843.04 438.31 843.04 438.31Z" fill="#444053"/>
<path opacity="0.1" d="M753.09 463.43C753.09 463.43 741.09 490.74 740.59 491.22C740.09 491.7 740.11 500.22 740.59 499.72C741.07 499.22 757.71 462.34 757.71 462.34L753.09 463.43Z" fill="black"/>
<path opacity="0.1" d="M811.23 440.33C811.23 440.33 805.16 444.25 803.34 447.41C801.52 450.57 784.89 482 780.77 486.61C777.349 490.734 774.262 495.125 771.54 499.74C771.06 500.57 771.06 505.79 773.97 500.81C776.88 495.83 776.16 494.99 781.86 488.81C787.56 482.63 793.86 468.66 796.3 465.87C798.74 463.08 802.13 454.7 806.38 449.72L814.52 440.21L811.23 440.33Z" fill="black"/>
<path opacity="0.1" d="M812.69 494.26C812.69 494.26 808.44 491.35 804.44 496.32C800.44 501.29 812.69 494.26 812.69 494.26Z" fill="black"/>
<path opacity="0.1" d="M817.91 495.76C817.91 495.76 814.39 501.9 812.69 502.39C810.99 502.88 817.91 495.76 817.91 495.76Z" fill="black"/>
<path opacity="0.1" d="M812.69 497.29C812.69 497.29 809.9 502.15 807.47 501.66L812.69 497.29Z" fill="black"/>
<path d="M793.04 366.08C793.04 366.08 818.77 364.99 821.32 364.14C823.87 363.29 846.44 360.38 846.44 360.38C846.44 360.38 913.32 365.11 894.27 370.82C875.22 376.53 849.36 374.09 849.36 374.09C849.36 374.09 824.11 380.65 820.23 384.09C816.35 387.53 787.7 387.61 787.7 387.61L793.04 366.08Z" fill="#EFB7B9"/>
<path opacity="0.05" d="M793.04 366.08C793.04 366.08 818.77 364.99 821.32 364.14C823.87 363.29 846.44 360.38 846.44 360.38C846.44 360.38 913.32 365.11 894.27 370.82C875.22 376.53 849.36 374.09 849.36 374.09C849.36 374.09 824.11 380.65 820.23 384.09C816.35 387.53 787.7 387.61 787.7 387.61L793.04 366.08Z" fill="black"/>
<path d="M701.51 307.46C701.51 307.46 677.96 315.46 689.37 335.86C700.78 356.26 715.47 365.86 715.47 365.86L753.34 392.08C753.34 392.08 769.24 401.18 776.52 397.42L788.41 396.42L790.41 365.22C790.41 365.22 780.41 372.99 769.53 362.22C758.65 351.45 745.25 344.13 744.16 338.31C743.07 332.49 715.22 302.48 701.51 307.46Z" fill="#A36468"/>
<path d="M775.91 373.49C775.91 373.49 788.17 377.86 787.69 378.1C787.21 378.34 775.91 382.59 775.91 382.59L776.76 399.22L793.39 398.31C793.39 398.31 799.46 368.03 794.24 364.99L775.91 364.14V373.49Z" fill="#67647E"/>
<path opacity="0.1" d="M775.91 373.49C775.91 373.49 788.17 377.86 787.69 378.1C787.21 378.34 775.91 382.59 775.91 382.59L776.76 399.22L793.39 398.31C793.39 398.31 799.46 368.03 794.24 364.99L775.91 364.14V373.49Z" fill="black"/>
<path opacity="0.1" d="M751.04 283.67C749.465 285.443 748.17 287.447 747.2 289.61C747.05 289.94 746.9 290.26 746.76 290.61C737.83 290.61 731.41 283.67 725.93 277.46C724.93 276.31 722.4 278.05 721.57 276.76C721.48 276.61 721.39 276.46 721.29 276.31L721.57 275.79C724.57 270.1 726.76 265.24 726.76 265.24C726.76 265.24 727.76 265.56 729.38 266.13C736.85 268.77 757.42 276.88 751.04 283.67Z" fill="black"/>
<path d="M777.04 259.52C777.038 267.453 773.904 275.064 768.32 280.699C762.735 286.334 755.153 289.536 747.22 289.61H746.93C742.657 289.613 738.433 288.704 734.54 286.946C730.646 285.187 727.172 282.618 724.35 279.41C723.34 278.264 722.418 277.044 721.59 275.76C719.063 271.822 717.488 267.349 716.99 262.697C716.493 258.044 717.087 253.339 718.725 248.956C720.363 244.573 723 240.632 726.427 237.446C729.854 234.259 733.976 231.916 738.467 230.601C742.958 229.285 747.693 229.035 752.297 229.869C756.901 230.703 761.248 232.599 764.992 235.406C768.736 238.213 771.774 241.853 773.865 246.039C775.957 250.225 777.044 254.841 777.04 259.52Z" fill="#EFB7B9"/>
<path opacity="0.1" d="M746.42 446.19C746.42 446.19 744.13 448.99 741.6 451.6C739.69 453.6 737.65 455.43 736.34 455.9C733.34 457 719.59 467.43 719.59 467.43C719.59 467.43 708.67 474.84 705.88 477.02C703.09 479.2 693.01 477.87 693.01 477.87C693.01 477.87 683.31 475.75 677.3 471.87C677.884 470.446 678.552 469.056 679.3 467.71L685.61 452.41L710.61 449.18L746.42 446.19Z" fill="black"/>
<path d="M745.93 444.25C745.93 444.25 743.65 447.05 741.12 449.66C739.21 451.66 737.12 453.49 735.86 453.96C732.86 455.05 719.11 465.49 719.11 465.49C719.11 465.49 708.18 472.9 705.39 475.08C702.6 477.26 692.53 475.93 692.53 475.93C692.53 475.93 678.69 472.93 673.83 467.43C670.43 463.6 673.95 456.5 676.35 452.59C677.35 450.92 678.2 449.83 678.2 449.83L745.93 444.25Z" fill="#67647E"/>
<path d="M763.9 350.18C755.64 349.45 728.45 316.18 728.45 316.18L729.07 315.33L734.77 307.44H748.1L749.57 314.72C759.71 328.94 765.68 338.83 767.3 344.49C768.47 348.61 767.36 350.49 763.9 350.18Z" fill="#67647E"/>
<path opacity="0.1" d="M763.9 350.18C755.64 349.45 728.45 316.18 728.45 316.18L729.07 315.33C733.944 319.803 738.523 324.586 742.78 329.65C762.68 353.07 766.62 346.53 767.3 344.49C768.47 348.61 767.36 350.49 763.9 350.18Z" fill="black"/>
<path opacity="0.1" d="M745.93 444.25C745.93 444.25 743.65 447.05 741.12 449.66C739.786 450.177 738.379 450.481 736.95 450.56C733.79 450.44 726.51 455.42 726.51 455.42C726.51 455.42 713.65 454.69 711.22 456.02C708.79 457.35 699.44 457.6 699.44 457.6C682.33 462.48 677.6 455.07 676.35 452.6C677.35 450.93 678.2 449.84 678.2 449.84L745.93 444.25Z" fill="black"/>
<path d="M775.65 371.97C775.65 372.44 775.56 372.91 775.5 373.36C775.44 373.81 775.38 374.27 775.31 374.7C774.987 377.171 774.246 379.568 773.12 381.79C770.94 385.43 764.26 399.63 764.26 399.63L763.81 402.25L763.58 403.62L763.34 404.97L761.71 414.54L760.98 425.59C760.98 425.59 756.98 431.17 755.28 433.59C753.58 436.01 753.82 439.54 754.43 442.09C755.04 444.64 748.85 445 748.85 445C748.85 445 740.11 449.25 736.95 449.13C733.79 449.01 726.51 453.97 726.51 453.97C726.51 453.97 713.65 453.24 711.22 454.58C708.79 455.92 699.44 456.16 699.44 456.16C681.12 461.37 676.99 452.51 676.14 450.69C675.29 448.87 679.78 441.47 679.78 441.47C679.78 441.47 680.78 432.12 682.69 431.39C684.6 430.66 686.94 418.29 686.94 418.29C686.94 418.29 686.21 414.52 687.79 412.46C689.37 410.4 689.25 404.57 691.31 401.78C693.37 398.99 689.13 389.64 689.86 387.21C690.59 384.78 687.55 374.95 687.79 372.4C688.03 369.85 687.19 367.79 685.24 362.69C683.58 358.34 684.05 339.01 684.24 333.47C684.24 332.53 684.29 331.99 684.29 331.99C684.29 331.99 685.99 326.52 690.48 315.6C693.88 307.33 701.53 304.2 705.04 303.18C705.642 302.999 706.253 302.849 706.87 302.73C707.75 302.857 708.615 303.075 709.45 303.38C712.99 304.57 720.07 307.94 730.17 317.38C734.639 321.568 738.856 326.015 742.8 330.7C765.57 357.46 767.43 344.97 767.43 344.97C767.43 344.97 768.43 347.25 773.12 356.35C775.63 361.19 776.09 366.97 775.65 371.97Z" fill="#A36468"/>
<path opacity="0.1" d="M738.16 305.97L715.32 287.75C715.32 287.75 707.09 288.75 703.69 302.57L727.2 323.16L738.16 305.97Z" fill="black"/>
<path d="M738.16 305.97L734.16 311.56L730.1 317.29L727.04 321.78L708.27 305.97L705.04 303.17L703.23 301.63C705.06 294.16 708.31 290.43 710.9 288.63C712.076 287.731 713.446 287.118 714.9 286.84L738.16 305.97Z" fill="#67647E"/>
<path d="M895.23 378.1C876.17 383.8 850.32 381.38 850.32 381.38C850.32 381.38 825.07 387.93 821.19 391.38C818.69 393.57 805.92 394.38 797.19 394.71C792.34 394.89 788.71 394.9 788.71 394.9L794.04 373.37L797.12 373.23C804.03 372.91 820.32 372.09 822.32 371.42C824.87 370.57 847.44 367.66 847.44 367.66C847.44 367.66 914.28 372.39 895.23 378.1Z" fill="#EFB7B9"/>
<path opacity="0.1" d="M775.31 374.65C774.987 377.12 774.246 379.517 773.12 381.74C770.94 385.38 764.26 399.58 764.26 399.58L763.34 404.97C760.24 403.818 757.232 402.434 754.34 400.83L716.44 374.58C716.44 374.58 701.75 364.99 690.34 344.58C678.93 324.17 702.48 316.18 702.48 316.18C716.19 311.18 743.99 341.18 745.08 347.01C746.17 352.84 759.53 360.12 770.45 370.92C771.89 372.382 773.525 373.637 775.31 374.65Z" fill="black"/>
<path opacity="0.1" d="M775.65 371.97C775.56 372.92 775.45 373.83 775.31 374.7C774.987 377.17 774.246 379.567 773.12 381.79C770.94 385.43 764.26 399.63 764.26 399.63L763.81 402.25C760.532 401.067 757.356 399.623 754.31 397.93L716.44 371.67C716.44 371.67 701.75 362.08 690.34 341.67C678.93 321.26 702.48 313.26 702.48 313.26C716.19 308.26 743.99 338.26 745.08 344.09C746.17 349.92 759.53 357.2 770.45 368.01C771.975 369.582 773.728 370.917 775.65 371.97Z" fill="black"/>
<path d="M791.33 372.52L789.39 403.71L777.49 404.71C777.229 404.847 776.958 404.964 776.68 405.06C769.1 407.84 754.31 399.37 754.31 399.37L716.44 373.12C716.44 373.12 701.75 363.53 690.34 343.12C678.93 322.71 702.48 314.72 702.48 314.72C716.19 309.72 743.99 339.72 745.08 345.55C746.17 351.38 759.53 358.66 770.45 369.46C772.051 371.069 773.893 372.419 775.91 373.46C778.321 374.726 781.033 375.308 783.751 375.143C786.47 374.977 789.091 374.07 791.33 372.52Z" fill="#A36468"/>
<path opacity="0.1" d="M791.33 372.52L789.39 403.71L777.49 404.71C777.229 404.847 776.958 404.964 776.68 405.06L775.91 389.9C775.91 389.9 787.2 385.65 787.69 385.41C788.18 385.17 775.91 380.8 775.91 380.8V373.55C778.329 374.803 781.045 375.37 783.764 375.188C786.482 375.007 789.099 374.084 791.33 372.52Z" fill="black"/>
<path opacity="0.1" d="M797.14 394.66C792.29 394.84 788.66 394.85 788.66 394.85L794.04 373.37L797.12 373.23C799.1 376.64 798.25 386.66 797.14 394.66Z" fill="black"/>
<path d="M776.88 380.77C776.88 380.77 789.14 385.14 788.66 385.38C788.18 385.62 776.88 389.87 776.88 389.87L777.73 406.5L794.36 405.59C794.36 405.59 800.43 375.31 795.21 372.27L776.88 371.42V380.77Z" fill="#67647E"/>
<path opacity="0.1" d="M704.18 400.68C704.18 400.68 700.05 404.56 696.65 405.59L704.18 400.68Z" fill="black"/>
<path opacity="0.1" d="M694.35 412.21C694.35 412.21 704.42 411.84 705.63 409.78C706.84 407.72 694.35 412.21 694.35 412.21Z" fill="black"/>
<path opacity="0.1" d="M689.37 426.65C689.98 426.65 702.11 424.95 702.6 423.37L689.37 426.65Z" fill="black"/>
<path opacity="0.1" d="M685.61 435.88C689.98 435.75 697.38 431.02 697.38 431.02L685.61 435.88Z" fill="black"/>
<path opacity="0.1" d="M713.89 438.3C713.89 438.3 740.23 438.3 741.44 433.45C742.65 428.6 713.89 438.3 713.89 438.3Z" fill="black"/>
<path opacity="0.1" d="M733.67 370.45C734.16 370.45 754.43 370.45 756.37 367.66C758.31 364.87 733.67 370.45 733.67 370.45Z" fill="black"/>
<path opacity="0.1" d="M711.35 290.97C711.514 291.962 711.601 292.965 711.61 293.97C711.61 295.087 711.51 296.201 711.31 297.3C710.909 299.386 710.278 301.422 709.43 303.37L709.22 303.86C708.92 304.56 708.6 305.24 708.27 305.92C706.784 308.95 705.031 311.842 703.03 314.56C698.466 320.621 693.188 326.111 687.31 330.91C686.29 331.77 685.26 332.62 684.22 333.46C684.22 332.52 684.27 331.98 684.27 331.98C684.27 331.98 685.97 326.51 690.46 315.59C693.86 307.32 701.51 304.19 705.02 303.17L703.21 301.63C705.04 294.16 708.29 290.43 710.88 288.63C711.04 289.37 711.23 290.15 711.35 290.97Z" fill="black"/>
<path opacity="0.1" d="M772.64 243.89C772.332 243.966 772.036 244.084 771.76 244.24C769.86 245.29 769.31 247.78 767.76 249.35C765.97 251.2 763.17 251.48 760.62 251.8C758.07 252.12 755.22 252.75 753.87 254.94C752.87 256.57 752.96 258.62 752.6 260.5C752.561 260.838 752.426 261.157 752.21 261.42C751.866 261.699 751.432 261.841 750.99 261.82C745.99 262.17 742.35 260.45 737.67 259.24C735.47 258.68 732.91 258.75 731.23 260.24C729.71 261.61 729.29 263.85 729.33 265.9V266.08C729.545 268.072 729.606 270.078 729.51 272.08C729.28 273.628 728.686 275.1 727.777 276.374C726.867 277.648 725.669 278.688 724.28 279.41C723.112 280.036 721.823 280.405 720.5 280.49C719.989 280.543 719.474 280.468 719 280.27C719.89 278.75 720.74 277.27 721.52 275.76C719.35 272.405 717.87 268.653 717.165 264.72C716.46 260.788 716.544 256.754 717.414 252.855C718.283 248.956 719.92 245.268 722.228 242.008C724.537 238.747 727.471 235.979 730.86 233.864C734.249 231.748 738.026 230.329 741.969 229.687C745.912 229.046 749.944 229.196 753.828 230.128C757.713 231.06 761.373 232.756 764.596 235.117C767.819 237.478 770.54 240.457 772.6 243.88L772.64 243.89Z" fill="black"/>
<path d="M780.88 240.05C780.514 240.868 779.938 241.576 779.21 242.1C776.93 243.58 773.66 241.95 771.28 243.27C769.37 244.32 768.83 246.81 767.28 248.38C765.5 250.23 762.7 250.51 760.14 250.83C757.58 251.15 754.75 251.78 753.39 253.97C752.39 255.6 752.49 257.64 752.12 259.53C752.086 259.869 751.95 260.189 751.73 260.45C751.385 260.726 750.952 260.868 750.51 260.85C745.51 261.2 741.87 259.47 737.19 258.27C735 257.71 732.44 257.78 730.76 259.27C729.08 260.76 728.82 262.89 728.85 264.94C729.058 266.986 729.121 269.044 729.04 271.1C728.694 273.305 727.62 275.331 725.989 276.855C724.358 278.379 722.264 279.313 720.04 279.51C719.716 279.559 719.385 279.542 719.068 279.461C718.75 279.381 718.451 279.237 718.19 279.04C717.901 278.727 717.692 278.35 717.58 277.94C714.25 268.58 714.28 258.19 710.24 249.11C709.588 247.815 709.024 246.479 708.55 245.11C708.47 244.83 708.39 244.54 708.33 244.25C708.211 243.672 708.131 243.088 708.09 242.5C707.677 242.559 707.285 242.72 706.95 242.97C706.831 243.071 706.724 243.185 706.63 243.31C706.058 244.266 705.766 245.365 705.79 246.48C705.043 258.982 706.258 271.523 709.39 283.65C710.346 286.677 710.927 289.811 711.12 292.98C711.009 296.406 710.192 299.773 708.72 302.87C702.45 317.33 689.85 327.92 677.32 337.49C678.608 336.11 679.601 334.482 680.241 332.707C680.88 330.931 681.152 329.044 681.04 327.16C680.824 327.879 680.414 328.525 679.855 329.026C679.295 329.527 678.609 329.864 677.87 330C676.388 330.251 674.873 330.228 673.4 329.93C675.32 329.3 676.07 327.04 676.55 325.08C677.53 321.08 678.44 317.043 679.28 312.97C680.175 309.082 680.763 305.13 681.04 301.15C681.19 297.77 680.93 294.38 680.79 290.99C680.493 281.694 680.827 272.39 681.79 263.14C682.53 255.14 683.87 246.49 689.74 241.03C692.274 238.889 695.103 237.124 698.14 235.79C698.14 234.79 705.47 232.79 706.44 232.65C706.842 232.571 707.25 232.525 707.66 232.51C708.184 232.434 708.718 232.525 709.187 232.771C709.656 233.017 710.035 233.405 710.27 233.88C710.63 233.23 711.03 232.59 711.45 231.98C712.028 231.14 712.662 230.342 713.35 229.59C717.16 225.39 722.1 222.43 726.51 218.87C728.129 217.418 729.883 216.125 731.75 215.01C734.191 213.782 736.869 213.1 739.6 213.01C744.114 212.755 748.631 213.464 752.85 215.09C758.93 217.43 764.24 221.63 770.53 223.33C772.083 223.666 773.615 224.09 775.12 224.6C776.563 225.171 777.87 226.037 778.958 227.144C780.046 228.25 780.89 229.572 781.436 231.025C781.983 232.477 782.219 234.028 782.13 235.577C782.041 237.126 781.629 238.639 780.92 240.02L780.88 240.05Z" fill="#444053"/>
<g opacity="0.1">
<path opacity="0.1" d="M679.61 329.62C680.34 327.743 680.65 325.729 680.52 323.72C680.301 324.439 679.889 325.085 679.328 325.586C678.767 326.086 678.079 326.423 677.34 326.56C676.959 326.651 676.571 326.708 676.18 326.73C675.68 328.33 674.89 329.87 673.36 330.37C674.832 330.671 676.348 330.698 677.83 330.45C678.472 330.293 679.077 330.011 679.61 329.62Z" fill="black"/>
<path opacity="0.1" d="M781.6 232.08C781.526 233.661 781.117 235.209 780.4 236.62C780.021 237.42 779.443 238.109 778.72 238.62C776.45 240.1 773.17 238.48 770.79 239.79C768.89 240.84 768.34 243.34 766.79 244.9C765 246.75 762.2 247.04 759.65 247.35C757.1 247.66 754.25 248.35 752.9 250.49C751.9 252.12 751.99 254.17 751.63 256.05C751.622 256.247 751.573 256.44 751.486 256.617C751.398 256.794 751.275 256.95 751.123 257.075C750.971 257.201 750.794 257.293 750.604 257.346C750.414 257.398 750.215 257.41 750.02 257.38C745.02 257.73 741.38 256 736.7 254.79C734.5 254.23 731.94 254.3 730.26 255.79C728.74 257.17 728.32 259.4 728.36 261.46C728.57 263.503 728.63 265.558 728.54 267.61C728.206 269.821 727.136 271.855 725.502 273.383C723.869 274.911 721.769 275.844 719.54 276.03C719.216 276.077 718.886 276.06 718.568 275.979C718.251 275.899 717.952 275.756 717.69 275.56C717.401 275.244 717.192 274.863 717.08 274.45C713.75 265.09 713.77 254.7 709.73 245.63C709.088 244.333 708.527 242.997 708.05 241.63C707.795 240.781 707.638 239.905 707.58 239.02C707.006 239.088 706.481 239.379 706.12 239.83C705.558 240.791 705.267 241.887 705.28 243C704.814 251.013 705.149 259.053 706.28 267C705.557 260.312 705.393 253.575 705.79 246.86C705.766 245.745 706.058 244.647 706.63 243.69C706.805 243.462 707.025 243.273 707.276 243.134C707.527 242.994 707.804 242.908 708.09 242.88C708.145 243.765 708.299 244.64 708.55 245.49C709.028 246.858 709.593 248.194 710.24 249.49C714.24 258.57 714.24 268.95 717.58 278.31C717.697 278.723 717.91 279.103 718.2 279.42C718.453 279.632 718.747 279.791 719.063 279.885C719.38 279.98 719.712 280.009 720.04 279.97C722.264 279.774 724.358 278.839 725.989 277.315C727.62 275.791 728.694 273.765 729.04 271.56C729.121 269.505 729.058 267.446 728.85 265.4C728.85 263.34 729.24 261.11 730.76 259.73C732.44 258.21 735 258.15 737.19 258.73C741.87 259.93 745.49 261.66 750.51 261.31C750.952 261.328 751.385 261.186 751.73 260.91C751.949 260.646 752.085 260.322 752.12 259.98C752.49 258.1 752.38 256.05 753.39 254.43C754.75 252.24 757.59 251.6 760.14 251.28C762.69 250.96 765.5 250.69 767.29 248.84C768.8 247.27 769.34 244.78 771.29 243.72C773.66 242.41 776.94 244.04 779.22 242.56C779.948 242.036 780.524 241.329 780.89 240.51C782.205 237.897 782.46 234.876 781.6 232.08Z" fill="black"/>
<path opacity="0.1" d="M710.64 289.57C710.53 292.996 709.716 296.362 708.25 299.46C702.64 312.39 691.96 322.23 680.81 331C680.338 333.617 679.131 336.045 677.33 338C689.85 328.44 702.47 317.85 708.73 303.39C710.202 300.294 711.019 296.927 711.13 293.5C711.106 292.037 710.935 290.58 710.62 289.15C710.63 289.25 710.64 289.41 710.64 289.57Z" fill="black"/>
</g>
<path opacity="0.1" d="M711.89 231.97C710.99 236.11 709.75 241.49 708.82 244.26C708.706 243.682 708.626 243.097 708.58 242.51C708.17 242.569 707.781 242.731 707.45 242.98C707.45 240.07 707.8 235.74 708.1 232.5C708.625 232.423 709.162 232.514 709.632 232.76C710.103 233.006 710.483 233.394 710.72 233.87C711.04 233.23 711.47 232.59 711.89 231.97Z" fill="black"/>
<path d="M711.41 231.97C710.51 236.11 709.27 241.49 708.34 244.26C708.221 243.682 708.141 243.098 708.1 242.51C707.687 242.569 707.295 242.73 706.96 242.98C706.96 240.07 707.31 235.74 707.62 232.5C708.144 232.424 708.679 232.515 709.147 232.761C709.616 233.007 709.995 233.395 710.23 233.87C710.59 233.23 711.04 232.59 711.41 231.97Z" fill="#67647E"/>
<g opacity="0.7">
<path opacity="0.7" d="M915.04 7.54004H1080.71V168.68H915.04V7.54004Z" fill="#2E001E"/>
<path opacity="0.7" d="M907.55 -0.0297852V176.21H1088.28V-0.0297852H907.55ZM915.08 7.51021H1080.75V168.68H915.04L915.08 7.51021Z" fill="#FF2BC2"/>
<path opacity="0.7" d="M1038.8 74.0303C1037.42 73.4623 1035.92 73.203 1034.43 73.2703C1024.95 73.2703 1018.62 80.5803 1018.62 92.7003C1018.62 106.56 1025.1 112.13 1033.53 112.13C1035.3 112.184 1037.06 111.902 1038.73 111.3V74.0303H1038.8ZM1005.04 93.3103C1005.04 75.7603 1016.33 62.0503 1034.86 62.0503C1036.17 62.0221 1037.47 62.0755 1038.77 62.2103V42.6303C1038.77 42.4288 1038.85 42.2355 1038.99 42.0929C1039.14 41.9504 1039.33 41.8703 1039.53 41.8703H1051.65C1052.25 41.8703 1052.4 42.1003 1052.4 42.4803V111.3C1052.35 113.766 1052.48 116.232 1052.78 118.68C1052.78 119.21 1052.78 119.29 1052.33 119.51C1046.31 122.38 1039.72 123.873 1033.05 123.88C1016.71 123.88 1005.05 113.79 1005.05 93.3103H1005.04ZM979.36 81.1103L1000.47 121.97C1000.85 122.57 1000.62 123.17 1000.02 123.17H986.92C986.582 123.213 986.239 123.136 985.951 122.954C985.662 122.772 985.446 122.494 985.34 122.17C980.52 112.23 975.6 101.914 970.58 91.2203H970.43C965.91 101.31 960.94 112.31 956.12 122.22C955.999 122.476 955.806 122.691 955.564 122.839C955.323 122.986 955.043 123.06 954.76 123.05H942.26C941.51 123.05 941.44 122.44 941.81 121.99L962.44 82.3103L942.49 42.9703C942.397 42.8726 942.336 42.7491 942.314 42.616C942.293 42.4829 942.312 42.3464 942.369 42.2244C942.426 42.1023 942.519 42.0004 942.635 41.9318C942.751 41.8633 942.885 41.8314 943.02 41.8403H955.97C956.72 41.8403 957.1 41.9903 957.32 42.6703C962.07 52.6703 966.89 62.5503 971.41 72.6703H971.56C975.92 62.7303 980.74 52.6703 985.34 42.8503C985.71 42.2403 985.94 41.8503 986.69 41.8503H998.82C999.42 41.8503 999.64 42.3003 999.27 42.9803L979.39 81.1603L979.36 81.1103Z" fill="#FF2BC2"/>
</g>
<g opacity="0.7">
<path opacity="0.7" d="M228.35 72.4297L284.97 183.24L189.81 72.4297H228.35Z" fill="#EA6C00"/>
<path opacity="0.7" d="M341.6 72.4297L284.98 183.24L380.14 72.4297H341.6Z" fill="#EA6C00"/>
<path opacity="0.7" d="M228.35 72.4297H341.58L284.97 183.24L228.35 72.4297Z" fill="#FDAD00"/>
<path opacity="0.7" d="M284.97 11.02L231.33 16.69L228.33 72.43L284.97 11.02Z" fill="#FDD231"/>
<path opacity="0.7" d="M284.97 11.02L338.6 16.69L341.6 72.43L284.97 11.02Z" fill="#FDD231"/>
<path opacity="0.7" d="M380.14 72.4299L338.62 16.6899L341.62 72.4299H380.14Z" fill="#FDAD00"/>
<path opacity="0.7" d="M189.81 72.4299L231.33 16.6899L228.33 72.4299H189.81Z" fill="#FDAD00"/>
<path opacity="0.7" d="M284.97 11.02L228.35 72.43H341.58L284.97 11.02Z" fill="#FEEEB7"/>
</g>
</g>
<defs>
<linearGradient id="paint0_linear" x1="50842.4" y1="150743" x2="124431" y2="150743" gradientUnits="userSpaceOnUse">
<stop stop-color="#808080" stop-opacity="0.25"/>
<stop offset="0.54" stop-color="#808080" stop-opacity="0.12"/>
<stop offset="1" stop-color="#808080" stop-opacity="0.1"/>
</linearGradient>
<linearGradient id="paint1_linear" x1="-227437" y1="95901.3" x2="-227437" y2="52195.4" gradientUnits="userSpaceOnUse">
<stop stop-color="#808080" stop-opacity="0.25"/>
<stop offset="0.54" stop-color="#808080" stop-opacity="0.12"/>
<stop offset="1" stop-color="#808080" stop-opacity="0.1"/>
</linearGradient>
<clipPath id="clip0">
<rect width="1164.07" height="555.93" fill="white"/>
</clipPath>
</defs>
</svg>
