<svg xmlns="http://www.w3.org/2000/svg" fill="none" viewBox="0 0 1087 790">
  <g clip-path="url(#clip0)">
    <path fill="#EF5B59" d="M153.4 43.6c-8-.2-16.3 0-23.9 2.3a39.8 39.8 0 00-27.1 45c3.1 17.8 16.2 33.3 29.7 47.6 13.6 14.2 28.2 28.3 35.6 45.3 3.7 8.5 5.5 18 1.7 26.5-5.8 13-23.3 20.3-40 21.9-16.9 1.5-33.7-1.5-50.6-2.5-7-.4-14.3-.4-21 1.5-7.3 2-13.4 6.3-19 10.7C17 259.3-.6 283 2.3 308c3.2 28.2 31.7 50.5 63 62.5 10.3 4 21.3 7.2 30.4 12.8 24 15 29.4 43 27 67.7-2.4 24.7-10.5 49.4-6 74 5.3 28.4 28.9 54.1 60.7 66.2 28.4 10.7 63.8 10 89-5.1a107.7 107.7 0 0029.6-28.3c12-15.6 22-32.8 29.5-51 3.5-8.5 6.8-17.6 15-23.5 5-3.6 11.5-5.7 17.9-7.2 19.3-4.8 39.7-6.1 59.2-10.3 19.4-4.3 39-12.2 49.6-26.3 15-20 8-45.6 8-69.2.2-53.6 39.2-101.6 53.6-154 4.7-17 6.4-36-4-51.2a76.3 76.3 0 00-31.9-23.6c-27.8-12.7-59.4-18.3-90.5-23.8-43.2-7.7-95.6-8.7-129.1-33.4-32.1-23.7-76.1-40.6-119.9-40.6z" opacity=".2"/>
    <g opacity=".5">
      <path fill="#EF5B59" d="M27.3 349.4c-2.1 3.1-3.9 7.7-1 13 5.4 10.6 19 8.4 25.6 18.4 1.8 2.8 2.8 6 2.9 9.3.2 5.7-1.5 10.2-2.4 15.2-1.2 6-.3 12 2.6 17.3 3.2 5.6 8.1 10 14 12.5 5.1 2.3 10 2.9 14.9 4 6 1.4 12 3.4 17.7 6a33.4 33.4 0 0115.1 12.6L138 484a75 75 0 009 9.8c3.6 2.9 7.5 5.3 11.7 7.2 8.5 4.2 17.4 8.6 24.8 8 7.3-.4 12.5-7.5 9-17.5-3.3-9.4-12.6-17.4-16.8-26.8-6.7-15 2-26-3.6-41-5.3-14.3-20.3-23.8-29.8-37-6.9-9.2-10.7-20-16.9-29.8-9-14-22.4-24.7-35-30.1a68 68 0 00-35.2-5c-4.5.6-9 1.4-12.2 4.2-3.5 2.9-3 8.3-5.3 12.1-2.6 4.5-7.5 7-10.4 11.3z" opacity=".5"/>
      <path stroke="#535461" stroke-miterlimit="10" stroke-width="2" d="M40.7 329.2s106.5 99.6 149.4 177M26.6 363s42.6-8.2 72 25M56.9 425.6s47-32.9 63.3-13.8M90.2 326.5s-5 25.2 12.9 66.3M172 424.2s-4 16.5-37.5 4.3M138.1 481.9s20.5-23.6 11.2-35.2" opacity=".5"/>
    </g>
    <path fill="#EF5B59" d="M7.3 233.9c-5 5.9-9.6 14-6 22.1C8.4 272 34.6 264.1 44 279c2.8 4.4 3.2 9.8 2.5 14.6-1.3 9.4-6 17.4-9.1 26-3.3 8.6-5 19-.4 28a34 34 0 0022.5 16.6c9 2.2 17.9 1.7 26.8 2 10.6.4 21 2 31.3 4.6 4.5 1 8.9 2.8 12.8 5.2 4.6 2.9 8.2 7.2 11.8 11.4l32 37.3c4.3 5 8.6 10 13.9 13.6 6 4.3 13 6.4 19.8 8.5 14.7 4.4 30 9 44 5.9 14-3 25.8-16.5 22.3-32-3.4-14.7-18.4-25.2-23.4-39.6-8-22.8 11.7-43.9 5.8-67-5.7-22.3-30.9-33.7-44.9-52.6-10-13.4-14-30.3-22.7-44.6a91.5 91.5 0 00-56.5-39.7c-21.9-5.2-44-2.7-64.5 2.5A63 63 0 0043.7 190c-7.3 5.9-8.1 14.8-13.5 21.9-6.2 8.2-16.1 13.9-22.9 21.9z"/>
    <path stroke="#535461" stroke-miterlimit="10" stroke-width="2" d="M38.5 196.3s169.7 133.5 226.7 249.6M1.9 256.9s82.3-26.7 127.5 19.6M39.7 351.9s98-69 122.9-42.1M132.3 176.8s-17 43.3 4 106.4M256.3 314.6s-12.8 28.7-71.9 18.6M175.1 421s45.5-45.5 31.6-62"/>
    <path fill="#EF5B59" d="M618 771.7c256.8 0 465-55.8 465-124.5 0-68.8-208.2-124.6-465-124.6s-465 55.8-465 124.6c0 68.7 208.2 124.5 465 124.5z" opacity=".1"/>
    <path fill="#EF5B59" d="M980.1.4s-35.8 35.8-15.6 89C984.8 142.6 930 231 930 231s.6 0 1.6-.3A104.3 104.3 0 001000.8 71C985.6 47.8 973 20.5 980.2.4z"/>
    <path stroke="#535461" stroke-miterlimit="10" stroke-width="2" d="M980.1.4s-20.2 44 0 79.8c20.3 35.8 3.5 136.4-50.2 150.8"/>
    <path fill="#EF5B59" d="M1044 145.3s-41-6.5-44.6 30.2c-3.8 36.6-78.7 41.7-78.7 41.7l1.4 1c61.9 40.5 121 25.8 112-28-3.2-20.2-3-40.3 9.9-44.9z"/>
    <path fill="#F5F5F5" d="M1044 145.3s-41-6.5-44.6 30.2c-3.8 36.6-78.7 41.7-78.7 41.7l1.4 1c61.9 40.5 121 25.8 112-28-3.2-20.2-3-40.3 9.9-44.9z" opacity=".2"/>
    <path stroke="#535461" stroke-miterlimit="10" stroke-width="2" d="M1044 145.3s-31.8 7-29.2 35.9c2.7 28.8-47 63.4-94 36M246.7 279.8s-13.3-45 2.5-78.1a71 71 0 005.7-44.6c-1.4-7.2-3.5-14.2-6.3-21"/>
    <path fill="#EF5B59" d="M258.4 115.2c0 5.5-10 21.5-10 21.5s-10-16-10-21.5a10 10 0 1120 0zM275 145.7c-3 4.7-20.2 12.7-20.2 12.7s.4-18.9 3.4-23.5a10 10 0 1116.7 10.8zM274.2 198c-5 2.4-23.7.7-23.7.7s9.8-16 14.7-18.6a10 10 0 119 17.9zM264.8 237.3c-4.5 3.3-23.3 4.8-23.3 4.8s7-17.5 11.4-20.8a10 10 0 1111.9 16zM233.9 159.4c4 3.9 22.4 7.9 22.4 7.9s-4.5-18.3-8.5-22.2a10 10 0 10-14 14.3zM223.4 205.6c5 2.5 23.7.8 23.7.8s-9.8-16.1-14.7-18.6a10 10 0 00-9 17.8zM219.4 252c4.4 3.2 23.3 4.7 23.3 4.7s-7-17.5-11.4-20.8a10 10 0 00-11.9 16z"/>
    <path fill="url(#paint0_linear)" d="M1072.4 541.5h-85c1.9-4 3-8.3 3-12.7V141.4a28.5 28.5 0 00-28.6-28.5H303.2a28.5 28.5 0 00-28.5 28.5v387.4c0 4.4 1 8.8 3 12.7h-88.1a7.5 7.5 0 00-7.6 7.5v6.1a42.1 42.1 0 0042.2 42.1h813.7a42.2 42.2 0 0042.1-42.1v-6a7.6 7.6 0 00-7.6-7.6zm-524.3 24.1l-7.3-8.3H722l-8 8.3H548z"/>
    <path fill="#535461" d="M959 118.3H306a23.3 23.3 0 00-23.3 23.3v387.9a23.3 23.3 0 0023.3 23.2h653a23.3 23.3 0 0023.2-23.2V141.6a23.3 23.3 0 00-23.3-23.3z"/>
    <path fill="#F1F1F4" d="M966 181.7H297.5v354.8H966V181.7z"/>
    <path fill="#fff" d="M631.7 156.6a5.9 5.9 0 100-11.7 5.9 5.9 0 000 11.7z"/>
    <path fill="#535461" d="M735 537.3l-23 23.5H550l-20.8-23.5H199.5a7.4 7.4 0 00-7.3 7.3v6a41.2 41.2 0 0041.2 41.1h795.2a41.2 41.2 0 0041.2-41.1v-6a7.4 7.4 0 00-7.4-7.3H735z"/>
    <path fill="#fff" d="M521 208.7H338.4v137.8h182.8V208.6z"/>
    <path fill="#EF5B59" d="M417.1 220.6h-61v34.5h61v-34.5z" opacity=".2"/>
    <path fill="#E6E8EC" d="M503.2 220.6h-71.5v8h71.5v-8zM482 233.9h-50.3v8H482v-8zM503.2 247.1h-71.5v8h71.5v-8zM503.2 260.4h-147v8h147v-8zM503.2 273.6h-147v8h147v-8zM503.2 286.9h-147v7.9h147v-8zM491.3 300H356.2v8h135v-8zM503.2 313.3h-147v8h147v-8zM503.2 326.6h-147v8h147v-8z"/>
    <path fill="#fff" d="M722.4 208.7H539.6v137.8h182.8V208.6z"/>
    <path fill="#EF5B59" d="M618.4 220.6h-61v34.5h61v-34.5z" opacity=".2"/>
    <path fill="#E6E8EC" d="M704.5 220.6H633v8h71.5v-8zM683.3 233.9H633v8h50.3v-8zM704.5 247.1H633v8h71.5v-8zM704.5 260.4h-147v8h147v-8zM704.5 273.6h-147v8h147v-8zM704.5 286.9h-147v7.9h147v-8zM692.6 300H557.5v8h135v-8zM704.5 313.3h-147v8h147v-8zM704.5 326.6h-147v8h147v-8z"/>
    <path fill="#fff" d="M923.7 208.7H740.9v137.8h182.8V208.6z"/>
    <path fill="#EF5B59" d="M819.7 220.6h-61v34.5h61v-34.5z" opacity=".2"/>
    <path fill="#E6E8EC" d="M905.8 220.6h-71.5v8h71.5v-8zM884.6 233.9h-50.3v8h50.3v-8zM905.8 247.1h-71.5v8h71.5v-8zM905.8 260.4h-147v8h147v-8zM905.8 273.6h-147v8h147v-8zM905.8 286.9h-147v7.9h147v-8zM893.9 300H758.8v8h135v-8zM905.8 313.3h-147v8h147v-8zM905.8 326.6h-147v8h147v-8z"/>
    <path fill="#fff" d="M521 363.7H338.4v137.7h182.8V363.7z"/>
    <path fill="#EF5B59" d="M417.1 375.6h-61V410h61v-34.4z" opacity=".2"/>
    <path fill="#E6E8EC" d="M503.2 375.6h-71.5v8h71.5v-8zM482 388.8h-50.3v8H482v-8zM503.2 402h-71.5v8h71.5v-8zM503.2 415.3h-147v8h147v-8zM503.2 428.6h-147v8h147v-8zM503.2 441.8h-147v8h147v-8zM491.3 455H356.2v8h135v-8zM503.2 468.3h-147v8h147v-8zM503.2 481.5h-147v8h147v-8z"/>
    <path fill="#fff" d="M722.4 363.7H539.6v137.7h182.8V363.7z"/>
    <path fill="#EF5B59" d="M618.4 375.6h-61V410h61v-34.4z" opacity=".2"/>
    <path fill="#E6E8EC" d="M704.5 375.6H633v8h71.5v-8zM683.3 388.8H633v8h50.3v-8zM704.5 402H633v8h71.5v-8zM704.5 415.3h-147v8h147v-8zM704.5 428.6h-147v8h147v-8zM704.5 441.8h-147v8h147v-8zM692.6 455H557.5v8h135v-8zM704.5 468.3h-147v8h147v-8zM704.5 481.5h-147v8h147v-8z"/>
    <path fill="#000" d="M923.7 363.7H740.9v137.7h182.8V363.7z" opacity=".1"/>
    <path fill="url(#paint1_linear)" d="M442 255H160a25.8 25.8 0 00-25.8 25.9v390.7a25.8 25.8 0 0025.9 25.8h282a25.8 25.8 0 0025.8-25.8V281a25.8 25.8 0 00-25.8-25.8z"/>
    <path fill="#535461" d="M444 260.4H158.2c-11 0-20 9-20 20v393c0 11 9 20 20 20H444c11 0 20-9 20-20v-393c0-11-9-20-20-20z"/>
    <path fill="#F1F1F4" d="M447.4 301.3H154.7v351.2h292.7V301.3z"/>
    <path fill="#fff" d="M299.7 284.2a4 4 0 100-8 4 4 0 000 8zM299.7 684.2a12 12 0 100-23.9 12 12 0 000 23.9zM250.8 337.2h-83.4v63h83.4v-63z"/>
    <path fill="#EF5B59" d="M203.4 342.7h-27.9v15.7h27.9v-15.7z" opacity=".2"/>
    <path fill="#E6E8EC" d="M242.7 342.7H210v3.6h32.7v-3.6zM233 348.7h-23v3.6h23v-3.6zM242.7 354.8H210v3.6h32.7v-3.6zM242.7 360.8h-67.2v3.6h67.2v-3.6zM242.7 366.9h-67.2v3.6h67.2v-3.6zM242.7 373h-67.2v3.5h67.2V373zM237.3 379h-61.8v3.6h61.8V379zM242.7 385h-67.2v3.6h67.2V385zM242.7 391h-67.2v3.7h67.2V391z"/>
    <path fill="#fff" d="M342.8 337.2h-83.5v63h83.5v-63z"/>
    <path fill="#EF5B59" d="M295.3 342.7h-27.8v15.7h27.8v-15.7z" opacity=".2"/>
    <path fill="#E6E8EC" d="M334.6 342.7H302v3.6h32.6v-3.6zM325 348.7h-23v3.6h23v-3.6zM334.6 354.8H302v3.6h32.6v-3.6zM334.6 360.8h-67.1v3.6h67.1v-3.6zM334.6 366.9h-67.1v3.6h67.1v-3.6zM334.6 373h-67.1v3.5h67.1V373zM329.2 379h-61.7v3.6h61.7V379zM334.6 385h-67.1v3.6h67.1V385zM334.6 391h-67.1v3.7h67.1V391z"/>
    <path fill="#fff" d="M434.8 337.2h-83.5v63h83.5v-63z"/>
    <path fill="#EF5B59" d="M387.3 342.7h-27.9v15.7h27.9v-15.7z" opacity=".2"/>
    <path fill="#E6E8EC" d="M426.6 342.7h-32.7v3.6h32.7v-3.6zM417 348.7h-23v3.6h23v-3.6zM426.6 354.8h-32.7v3.6h32.7v-3.6zM426.6 360.8h-67.2v3.6h67.2v-3.6zM426.6 366.9h-67.2v3.6h67.2v-3.6zM426.6 373h-67.2v3.5h67.2V373zM421.2 379h-61.8v3.6h61.8V379zM426.6 385h-67.2v3.6h67.2V385zM426.6 391h-67.2v3.7h67.2V391z"/>
    <path fill="#fff" d="M250.8 408h-83.4v63h83.4v-63z"/>
    <path fill="#EF5B59" d="M203.4 413.4h-27.9v15.8h27.9v-15.8z" opacity=".2"/>
    <path fill="#E6E8EC" d="M242.7 413.4H210v3.7h32.7v-3.7zM233 419.5h-23v3.6h23v-3.6zM242.7 425.5H210v3.7h32.7v-3.7zM242.7 431.6h-67.2v3.6h67.2v-3.6zM242.7 437.6h-67.2v3.7h67.2v-3.7zM242.7 443.7h-67.2v3.6h67.2v-3.6zM237.3 449.7h-61.8v3.7h61.8v-3.7zM242.7 455.8h-67.2v3.6h67.2v-3.6zM242.7 461.8h-67.2v3.7h67.2v-3.7z"/>
    <path fill="#fff" d="M342.8 408h-83.5v63h83.5v-63z"/>
    <path fill="#EF5B59" d="M295.3 413.4h-27.8v15.8h27.8v-15.8z" opacity=".2"/>
    <path fill="#E6E8EC" d="M334.6 413.4H302v3.7h32.6v-3.7zM325 419.5h-23v3.6h23v-3.6zM334.6 425.5H302v3.7h32.6v-3.7zM334.6 431.6h-67.1v3.6h67.1v-3.6zM334.6 437.6h-67.1v3.7h67.1v-3.7zM334.6 443.7h-67.1v3.6h67.1v-3.6zM329.2 449.7h-61.7v3.7h61.7v-3.7zM334.6 455.8h-67.1v3.6h67.1v-3.6zM334.6 461.8h-67.1v3.7h67.1v-3.7z"/>
    <path fill="#fff" d="M434.8 408h-83.5v63h83.5v-63z"/>
    <path fill="#EF5B59" d="M387.3 413.4h-27.9v15.8h27.9v-15.8z" opacity=".2"/>
    <path fill="#E6E8EC" d="M426.6 413.4h-32.7v3.7h32.7v-3.7zM417 419.5h-23v3.6h23v-3.6zM426.6 425.5h-32.7v3.7h32.7v-3.7zM426.6 431.6h-67.2v3.6h67.2v-3.6zM426.6 437.6h-67.2v3.7h67.2v-3.7zM426.6 443.7h-67.2v3.6h67.2v-3.6zM421.2 449.7h-61.8v3.7h61.8v-3.7zM426.6 455.8h-67.2v3.6h67.2v-3.6zM426.6 461.8h-67.2v3.7h67.2v-3.7z"/>
    <path fill="#fff" d="M250.8 481.6h-83.4v62.9h83.4v-63z"/>
    <path fill="#EF5B59" d="M203.4 487h-27.9v15.8h27.9V487z" opacity=".2"/>
    <path fill="#E6E8EC" d="M242.7 487H210v3.6h32.7V487zM233 493h-23v3.7h23v-3.6zM242.7 499.1H210v3.6h32.7v-3.6zM242.7 505.2h-67.2v3.6h67.2v-3.6zM242.7 511.2h-67.2v3.7h67.2v-3.7zM242.7 517.3h-67.2v3.6h67.2v-3.6zM237.3 523.3h-61.8v3.7h61.8v-3.7zM242.7 529.4h-67.2v3.6h67.2v-3.6zM242.7 535.4h-67.2v3.6h67.2v-3.6z"/>
    <path fill="#fff" d="M342.8 481.6h-83.5v62.9h83.5v-63z"/>
    <path fill="#EF5B59" d="M295.3 487h-27.8v15.8h27.8V487z" opacity=".2"/>
    <path fill="#E6E8EC" d="M334.6 487H302v3.6h32.6V487zM325 493h-23v3.7h23v-3.6zM334.6 499.1H302v3.6h32.6v-3.6zM334.6 505.2h-67.1v3.6h67.1v-3.6zM334.6 511.2h-67.1v3.7h67.1v-3.7zM334.6 517.3h-67.1v3.6h67.1v-3.6zM329.2 523.3h-61.7v3.7h61.7v-3.7zM334.6 529.4h-67.1v3.6h67.1v-3.6zM334.6 535.4h-67.1v3.6h67.1v-3.6z"/>
    <path fill="#fff" d="M434.8 481.6h-83.5v62.9h83.5v-63z"/>
    <path fill="#EF5B59" d="M387.3 487h-27.9v15.8h27.9V487z" opacity=".2"/>
    <path fill="#E6E8EC" d="M426.6 487h-32.7v3.6h32.7V487zM417 493h-23v3.7h23v-3.6zM426.6 499.1h-32.7v3.6h32.7v-3.6zM426.6 505.2h-67.2v3.6h67.2v-3.6zM426.6 511.2h-67.2v3.7h67.2v-3.7zM426.6 517.3h-67.2v3.6h67.2v-3.6zM421.2 523.3h-61.8v3.7h61.8v-3.7zM426.6 529.4h-67.2v3.6h67.2v-3.6zM426.6 535.4h-67.2v3.6h67.2v-3.6z"/>
    <path fill="#fff" d="M250.8 552.4h-83.4v62.9h83.4v-63z"/>
    <path fill="#EF5B59" d="M203.4 557.8h-27.9v15.7h27.9v-15.7z" opacity=".2"/>
    <path fill="#E6E8EC" d="M242.7 557.8H210v3.6h32.7v-3.6zM233 563.9h-23v3.6h23v-3.6zM242.7 569.9H210v3.6h32.7V570zM242.7 576h-67.2v3.6h67.2V576zM242.7 582h-67.2v3.6h67.2V582zM242.7 588h-67.2v3.7h67.2V588zM237.3 594.1h-61.8v3.6h61.8v-3.6zM242.7 600.1h-67.2v3.7h67.2v-3.6zM242.7 606.2h-67.2v3.6h67.2v-3.6z"/>
    <path fill="#fff" d="M342.8 552.4h-83.5v62.9h83.5v-63z"/>
    <path fill="#EF5B59" d="M295.3 557.8h-27.8v15.7h27.8v-15.7z" opacity=".2"/>
    <path fill="#E6E8EC" d="M334.6 557.8H302v3.6h32.6v-3.6zM325 563.9h-23v3.6h23v-3.6zM334.6 569.9H302v3.6h32.6V570zM334.6 576h-67.1v3.6h67.1V576zM334.6 582h-67.1v3.6h67.1V582zM334.6 588h-67.1v3.7h67.1V588zM329.2 594.1h-61.7v3.6h61.7v-3.6zM334.6 600.1h-67.1v3.7h67.1v-3.6zM334.6 606.2h-67.1v3.6h67.1v-3.6z"/>
    <path fill="#000" d="M434.8 552.4h-83.5v62.9h83.5v-63z" opacity=".1"/>
    <path fill="url(#paint2_linear)" d="M227.1 387.5H82.3A14.3 14.3 0 0068 401.8v317a14.3 14.3 0 0014.3 14.4h144.8a14.3 14.3 0 0014.4-14.3V401.8a14.3 14.3 0 00-14.4-14.3z"/>
    <path fill="#535461" d="M229.2 390.2H80.3c-6 0-11 4.9-11 11v319.7c0 6 5 11 11 11h148.9c6 0 11-5 11-11V401.2c0-6.1-5-11-11-11z"/>
    <path fill="#F1F1F4" d="M227.6 422H81.9v278h145.7V422z"/>
    <path fill="#fff" d="M137.5 407.4a1.3 1.3 0 100-2.7 1.3 1.3 0 000 2.7zM172.3 404.7H145a1 1 0 00-1 1v.7c0 .5.5 1 1 1h27.2c.5 0 1-.5 1-1v-.7c0-.5-.5-1-1-1zM154 722.6a9.3 9.3 0 100-18.6 9.3 9.3 0 000 18.6z"/>
    <path fill="#000" d="M204.4 438.6H105v74.9h99.4v-75z" opacity=".1"/>
    <path fill="#fff" d="M204.4 522.8H105v74.9h99.4v-74.9z"/>
    <path fill="#EF5B59" d="M147.9 529.3h-33.1V548h33v-18.7z" opacity=".2"/>
    <path fill="#E6E8EC" d="M194.7 529.3h-38.9v4.3h38.9v-4.3zM183.2 536.5h-27.4v4.3h27.4v-4.3zM194.7 543.7h-38.9v4.3h38.9v-4.3zM194.7 550.9h-80v4.3h80V551zM194.7 558h-80v4.4h80v-4.3zM194.7 565.3h-80v4.3h80v-4.3zM188.2 572.5h-73.4v4.3h73.4v-4.3zM194.7 579.7h-80v4.3h80v-4.3zM194.7 586.9h-80v4.3h80V587z"/>
    <path fill="#fff" d="M204.4 607.2H105v74.9h99.4v-74.9z"/>
    <path fill="#EF5B59" d="M147.9 613.7h-33.1v18.7h33v-18.7z" opacity=".2"/>
    <path fill="#E6E8EC" d="M194.7 613.7h-38.9v4.3h38.9v-4.3zM183.2 620.9h-27.4v4.3h27.4V621zM194.7 628.1h-38.9v4.3h38.9v-4.3zM194.7 635.3h-80v4.3h80v-4.3zM194.7 642.5h-80v4.3h80v-4.3zM194.7 649.7h-80v4.3h80v-4.3zM188.2 656.9h-73.4v4.3h73.4V657zM194.7 664h-80v4.4h80v-4.3zM194.7 671.3h-80v4.3h80v-4.3z"/>
    <path fill="url(#paint3_linear)" d="M543.7 642.6c-6.8-8.2-14.9-17.5-13.8-28.4 1-8.8-1.3-16.9-.8-25.7.6-12.5-2-22.3-11-30.4-5.2-4.6-14-8.3-16.6-7.4-5.2 1.9-11 1.1-16.3 2.4-4 1-6.7 2.4-8.4 4.2-3.4 3-3.4 7.3-1.9 11.9a20 20 0 009.9 28c-3.8 1.5-7 5.1-8.3 12.4-.8 5-2.2 10-4 14.8l-2.4 1 .6.2-1.2.4 2.2.7c-2.7 7-6.4 13.7-10.9 19.8 0 0-11.3 2.5-15.7-1.8l1.7 2-17.4-7c-4.4-1.8-5.5 0-5.5 2.4a8 8 0 00-3 1c-1.3-.8-2.7-1.6-4.1-2.2-2.5-.6-10.7-5-18.9 10-4.7 8.7-17 24.7-26.3 36.5-18.3 8.3-42 19-50.9 21.6h-5.6l-1.3-2-.4.3-.2-.3s-11 7.7-22.4 7.8c-1.6 0-3.2-.2-4.7-.6a46.7 46.7 0 00-11.5-1.9c-3 0-4.8.7-6 2a5.4 5.4 0 00-.6 1.3l-.3.7a1.4 1.4 0 00.3 1.2l.5.6.3.3A50 50 0 00279 726l2 1.3 1.7 1 .7.5.8.5 1.4.8.8.5 1.6 1 1.2.7 9.6 5.5 2 1.2.3.1 1.3.7 2.3 1.3 1.6.9.7.4.8.4.2.1 1.4.8a2 2 0 001.6-.5c.4-1.7 1.4-5.3 2.4-5.6a36 36 0 006.9-13.5h12.2c2.5-.2 4.8-.6 7.2-1.1-3.2 2.2-6.3 3.7-8.7 3-5.2-1.2-10 2-10.6 5V733l.2.3c0 .2 0 .3.2.5v.1l.3.3h.1l.3.3.1.1.3.3h.2l.3.3h.2l.4.3h.3a24.7 24.7 0 002 .6l.6.3.8.1.4.1 1.6.4.9.1.6.1 1.6.3 3 .5 2.6.4 3.5.5h.7l1.3.3 1.8.2 1.2.1 3.1.5h1l2 .3 7.5.9 2.7.3 1.3.1h.6l1.6.3h1l1 .2 1.6.1h.2l1 .1a1 1 0 001-.8v-.1l.1-.5a20.6 20.6 0 01.8-5.2l.1-.3a22 22 0 01.6-1.6v-.3l.2-.3c1.2-4.4-.3-12.4-.7-15.6l-.7-3h.2c.7-.2 1.3-.6 1.8-1 9.3-3.3 17.1-7 19.6-10.9 4-1 8.3-.6 12 1.3 4.8 2.4 41.1 14.2 58 19.7 3 2.6 5.5 4.2 6.8 4 0 0 21.5 3.5 30.2-3.3l1.2.8s12.6-6.2 14.5-14.4c.6-2.6 1.2-6.5 1.7-10.8 3-3 4.6-6.9 4.6-11 .4-13.7 5.7-29.3 9.6-43.2 4.8.4 6.6-.5 11-2.6l-.2-.3.8-.3zM471.5 663l-2.4-.8a20 20 0 002.1-3.5l.3 4.3zm-13.5 5.8l14.6 8.7.1 1.8c-.2 1.4-.1 2.7.1 4-6.4-5.6-14-12.6-14.8-14.5zm-6-12.8l-3.8-1.7 3.4.2.5 1.5zm-39 14.3s2.6-5.6 8.2 3.7c1 1.5 2.5 3.8 4.7 6.7l-16.5-2.2a24 24 0 003.6-8.2z"/>
    <path fill="#F7C4A7" d="M449.3 647.7s-11.6-4.9-20.7-8.5c-9-3.7-3.6 8.5-3.6 8.5s15.2 4.2 15.2 4.8c0 .7 12.7 1.3 12.7 1.3l-3.6-6.1z"/>
    <path fill="#000" d="M449.3 647.7s-11.6-4.9-20.7-8.5c-9-3.7-3.6 8.5-3.6 8.5s15.2 4.2 15.2 4.8c0 .7 12.7 1.3 12.7 1.3l-3.6-6.1z" opacity=".1"/>
    <path fill="#575988" d="M498.4 599.7s-20.6-10.9-24.3 10.3A86.7 86.7 0 01459 646s-11 2.4-15.2-1.8c0 0 10.3 12.1 5.4 13.3 0 0 11 8 15.8 5.5 4.9-2.4 8.5-18.8 10.4-23 1.8-4.3 8.5-41.4 23-40.2z"/>
    <path fill="#000" d="M498.4 599.7s-20.6-10.9-24.3 10.3A86.7 86.7 0 01459 646s-11 2.4-15.2-1.8c0 0 10.3 12.1 5.4 13.3 0 0 11 8 15.8 5.5 4.9-2.4 8.5-18.8 10.4-23 1.8-4.3 8.5-41.4 23-40.2z" opacity=".1"/>
    <path fill="#F7C4A7" d="M486.9 592.4s12.8 14.6 13.4 26.8c.6 12 14.5-12.8 15.7-13.4 1.3-.6-12.1-21.3-13.3-28-1.2-6.6-15.8 14.6-15.8 14.6z"/>
    <path fill="#F7C4A7" d="M495.7 598.7l-8 7.3 3.8 15.3 10.3-9.7-1.2-9.7-4.9-3.2zM327.8 706.6h-14l5.5 13.3 13.4-3.6-4.9-9.7z"/>
    <path fill="#000" d="M317 704.7s-14.4 10-26.7 6.9c-12.4-3.1-15.7-2-17.2 2-1.3 3.8 34.5 23.5 40.3 26.6a.7.7 0 00.8-.1l.2-.3c.3-1.7 1.3-5.2 2.3-5.5 1.3-.3 7.3-11.5 7-16-.3-4.3-6.6-13.6-6.6-13.6z" opacity=".1"/>
    <path fill="#F3B5B7" d="M316.5 704.7s-14.4 10-26.8 6.9c-12.4-3.1-15.7-2-17.2 2-1.3 3.8 34.5 23.5 40.3 26.6a.7.7 0 00.8-.1l.1-.3c.4-1.7 1.4-5.2 2.4-5.5 1.3-.3 7.3-11.5 7-16-.3-4.3-6.6-13.6-6.6-13.6z"/>
    <path fill="#575988" d="M435.9 680.5l-40.7-5.5s-66.2 31.6-74 32.2l1.8 14H335c4.9 0 52.2-10.3 58.9-20.6 3.9-1 8-.6 11.5 1.2 6.1 3 64.4 21.8 64.4 21.8l-34-43.1z"/>
    <path fill="#000" d="M435.9 680.5l-40.7-5.5s-66.2 31.6-74 32.2l1.8 14H335c4.9 0 52.2-10.3 58.9-20.6 3.9-1 8-.6 11.5 1.2 6.1 3 64.4 21.8 64.4 21.8l-34-43.1z" opacity=".1"/>
    <path fill="#F7C4A7" d="M363.6 699.3l-6.6 8.5 6.6 3.6 9.8-7.2-9.8-4.9z"/>
    <path fill="#575988" d="M479.6 689.6s-21.8-18.7-23.4-22.1c-1.5-3.4-37.3-26.5-39.7-27-2.5-.7-10.4-5-18.2 9.6-8 14.6-37 49.8-37 49.8s9 12.8 12.1 12.1c3-.6 37-29.1 39.5-43 0 0 2.4-5.5 7.9 3.6 5.4 9 40.6 52.8 47.3 52.2 0 0 26.1 4.2 31.6-6 5.4-10.4-20-29.2-20-29.2z"/>
    <path fill="url(#paint4_linear)" d="M473.5 591.6h-91V660h91v-68.5z"/>
    <path fill="#fff" d="M469.8 594.4h-83.5v62.9h83.5v-63z"/>
    <path fill="#EF5B59" d="M422.3 599.8h-27.9v15.7h27.9v-15.7z" opacity=".2"/>
    <path fill="#E6E8EC" d="M461.6 599.8h-32.7v3.6h32.7v-3.6zM452 605.9h-23v3.6h23v-3.6zM461.6 611.9h-32.7v3.6h32.7V612zM461.6 618h-67.2v3.6h67.2V618zM461.6 624h-67.2v3.6h67.2V624zM461.6 630h-67.2v3.7h67.2V630zM456.2 636.1h-61.8v3.6h61.8v-3.6zM461.6 642.1h-67.2v3.7h67.2v-3.6zM461.6 648.2h-67.2v3.6h67.2v-3.6z"/>
    <path fill="#F3B5B7" d="M492 600.6s-7.5 3.4-8.1 17.3c-.6 14-14 37.7-14 37.7l1.2 28s14.5 14.5 15.8 23.6c1.2 9.1 11.5 15.2 11.5 15.2s12.2-6.1 14-14c1.9-8 3-27.4 6-34.6 3.1-7.3 1.3-52.9 1.3-52.9l-9.1-15.8-4.9-5.4-12.7 14.6s-7-9.4-1-13.7z"/>
    <path fill="#000" d="M474.1 674.4s-1.8-21.9 3.7-26.7l11-31s3.9-14.9 3.3-16.1c-.7-1.2-14.3 11.8-14.3 11.8l-9.1 32.2 2.4 34 3-4.2z" opacity=".1"/>
    <path fill="#575988" d="M473.5 674.4s-1.8-21.9 3.7-26.7l11-31s4.2-15.2 3.6-16.4c-.7-1.2-14.6 12.1-14.6 12.1l-9.1 32.2 2.4 34 3-4.2z"/>
    <path fill="#F7C4A7" d="M477.8 664.7s-30.4-9.7-32.2-12.2c-1.8-2.4-21.2-18.2-28-7.2-6.6 10.9 25 14 25 14l32.1 19.4 3-14z"/>
    <path fill="#000" d="M365 707.7l-9-1.6s-14.8 18.9-22.4 17c-7.7-2-14.7 6.3-6.6 9a436.7 436.7 0 0045.3 6.3.9.9 0 00.6-.8c0-2.4.5-4.7 1.4-6.9 1.6-4 0-12.5-.5-15.7-.3-2-.9-3.8-1.8-5.5l-7-1.8z" opacity=".1"/>
    <path fill="#F3B5B7" d="M364.8 708.3l-9-1.6s-14.7 18.9-22.4 17c-7.7-2-14.7 6.3-6.6 9A436.7 436.7 0 00372 739a.9.9 0 00.6-.5v-.4c0-2.3.5-4.6 1.4-6.8 1.6-4 0-12.5-.5-15.8-.2-1.9-.8-3.7-1.7-5.4l-7-1.8z"/>
    <path fill="#000" d="M491.4 599.4a19.4 19.4 0 100-38.8 19.4 19.4 0 000 38.8z" opacity=".1"/>
    <path fill="#F7C4A7" d="M489.6 599.4a19.4 19.4 0 100-38.8 19.4 19.4 0 000 38.8z"/>
    <path fill="#575988" d="M508.8 599.1s23 8 23 24.3c0 16.4-12.7 42.5-13.3 63.8-.6 21.2-34 18.2-34 18.2s-4.9-71.7 0-77.1c4.8-5.5 26.7-26.8 24.3-29.2z"/>
    <path fill="#000" d="M504.5 633.1s-8.5 37.7-28.5 31c0 0-10.4 15.2-3 21.9 0 0 17.6 4.2 29.1-7.3 11.5-11.6 20-15.8 21.8-29.8 1.9-14 3-33.4-3-31.6-6 1.8-16.4 15.8-16.4 15.8z" opacity=".1"/>
    <path fill="#575988" d="M505.1 632.5s-8.5 37.6-28.5 31c0 0-10.4 15.2-3 21.9 0 0 17.6 4.2 29.1-7.3 11.5-11.6 20-15.8 21.9-29.8 1.8-14 3-33.4-3-31.5-6 1.8-16.5 15.7-16.5 15.7z"/>
    <path fill="#DDDBE2" d="M374.6 729.4v.1c-.5 1-.8 2.1-1 3.2 0-.4.3-1 .4-1.4.3-.6.5-1.3.6-2zM327.3 730.9c-2.5-.8-3.6-2.2-3.6-3.6-1 2-.4 4.2 3.1 5.4a437 437 0 0045.4 6.3.9.9 0 00.6-.9.9.9 0 00-.8-.9c-6.6-.7-37.5-4-44.7-6.3zM273.4 712.6c.1-.4.3-.9.6-1.3a6 6 0 00-1.5 2.4c-1.3 3.7 34.5 23.4 40.2 26.5a.6.6 0 00.7 0 .7.7 0 00.3-.4.7.7 0 00-.3-.8c-6.3-3.4-41.4-22.7-40-26.4zM316.9 733.2c-.3.1-.7.5-1 1.1h.1c.3 0 .8-.5 1.3-1.3l-.4.2z"/>
    <path fill="#000" d="M487 597.1c-1.8 3.8-2.1 8-3.4 12a26.4 26.4 0 01-16.3 16.9c6.4 2.5 13.8-.6 18.7-5.7a58.3 58.3 0 0010.4-18.5c7.1 4.8 6.3 15.7 8.6 24.2a26.9 26.9 0 0014.3 17.1 25.6 25.6 0 0022-.4c-6.5-8-15.8-18.8-14.7-29.3.9-8.6-5.2-15.1-4.8-23.7.6-12.1-4-18.3-12.7-26-5.1-4.6 2.9-11-3.7-9.2-2.6.8-5.3-2-7.8-1-5 1.7-10.5 1-15.7 2.2-26.8 6.3 7.5 35.9 5 41.4z" opacity=".1"/>
    <path fill="#B96B6B" d="M487.5 596.5c-1.7 3.8-2 8-3.3 12a26.4 26.4 0 01-16.2 16.9c6.3 2.5 13.7-.6 18.6-5.7a58.3 58.3 0 0010.5-18.5c7 4.8 6.2 15.7 8.5 24.2a26.9 26.9 0 0014.4 17.1 25.6 25.6 0 0021.9-.4c-6.5-8-15.2-17-14-27.5.8-8.6-.5-17.3 0-25.9a40.9 40.9 0 00-14.1-31.7c-5.1-4.5-13-5.1-15.6-4.2-5 1.8-10.5 1.1-15.6 2.3-26.9 6.3 7.4 35.9 5 41.4z"/>
    <path fill="url(#paint5_linear)" d="M163.8 781.4c35-10.8 55.7-10 55.7-10l-2.9-16.2c1-.6 1.7-1.3 2.4-2.1 0 0-3.6-19.8 0-24.7 3.6-5 13.5-49.8 13.5-49.8v-15.3c18-6.3 39-42.6 39-42.6l26.6 68.2s26.4 52.5 30 54.3c2.9 1.4 4.3 13.2 4.8 17.8l-.2.1.1 1.8.2-.1v.1l1.4-.8c-5.1 6-12.9 14.5-19.3 20.1-3.6 3.1 2.8 5.5 5.8 5.5 1.7 0 3.4.2 5 .7 15 5.2 39.9-13.8 39.9-13.8l-6.2-17.3 2.6-.2s-20.2-71-29.6-77.7a43 43 0 01-8-7.5 28 28 0 01-6.4-19.5l3.4-58.2 8.7-1.4s1.2-16 1.2-28.1c0-6.4-.3-12-1.2-14.1a40.3 40.3 0 01-1.5-13c0-7 .6-13.5.6-13.5s7.2-9.4 17-31c4.4-9.5 5.5-17 5.4-22.4.1-2.5-.1-5-.7-7.4a9.4 9.4 0 00-4.2-5.9c-5.7-3.5-18.6-12-22.4-20.4-4.9-10.6-11.9-12-12.1-12.1l-.5-1.9c2.7-2.2 4.7-5.2 5.7-8.5 1.4-4.5 1.7-9.3 3-13.9.5-2.2 1.4-4.3 2-6.5a25.8 25.8 0 00-1.2-16.4c-2.4-4.8-7-8.5-12.2-9.2-3-.3-6.1.2-8.5-1.5-1.7-1.2-2.5-3.1-4-4.5-2.9-2.7-7.4-2.6-11.1-1.3-5 1.7-9.3 5-12.2 9.4-1.7 2.7-3 5.7-5.2 8-1.8 2-4.3 3.2-6.3 4.9a13 13 0 00-5 10v.9c0 3.8 2.7 7.7 6.5 8.4 1 .2 2 .2 3 .1a24.2 24.2 0 0018 30l-.2 1h.2c-.4 1.5-1 3-1.6 4.5h-.3l.7-1.3-10.3-.7c-3-.2-6 .4-8.7 1.7-3.5 1.7-7.4 5-7.9 11.2-.9 11.6-22.9 29-22.9 29-7.6 12.2-57.5 14.4-57.5 14.4l.4.5-1-.2-3.8-.7s-11.7-34.6-22.9-28.3c-11.2 6.3 19.3 40.4 19.3 40.4l8.8.6h1a54 54 0 01-1.5 6.7l-.2.8s23.2-2.7 43-2.3h3c1 10.8 16.4 32.8 16.4 32.8l9.5 2 .7.2c-3 6.3-7 12.2-11.6 17.5l-3.1 17.6.3-.1-.3 1.4c.5-.1 1-.4 1.4-.8-6.1 16.4-16.3 41.8-23.4 50.6-10.8 13.5-9.4 35-9.4 35s-10.8 56.6-10.3 67c0 4.9-1.3 9.8-4 14-2 2.5-3.9 5.1-5.5 8-8 13.8-21 13-21 13-11.3 7.1 2.1 13 2.1 13zm69.4-273.8l1.1-.5h.3l1.1-.6h.2l1-.5.2-.1 1-.5.3-.2 1-.5h.1l1-.6.2-.1 1-.6.2-.1.9-.5.2-.2.9-.6h.2l.9-.7 1-.6.1-.2.9-.6h.1l.7-.6.2-.1.8-.6.1-.1.7-.6.8-.5.2-.2.6-.5.7-.6.7-.6.6-.5.5-.5 1-1 1.6-.2c1.2 1.6 1.7 4.5 1.7 7.7-.1 8.4-2.7 18.8-2.7 18.8a58.5 58.5 0 01-2.6 15.1 9 9 0 01-3.2-.8l-.1 1-.9-.3-4.4-1.1s-3.6-18.5-11-26.1z"/>
    <path fill="#4F4D59" d="M354.9 746.7l8.3 23.2s-22.8 17.5-37.6 13.9c-2.2-.6-4.5-1-6.8-1.1-3-.3-8.4-2.5-5.1-5.4 10.5-9.1 24.5-26.2 24.5-26.2l16.7-4.4zM216.4 744.5l4 22.3s-20.2-.8-54.4 9.7c0 0-13.1-5.7-2.2-12.7 0 0 12.7.8 20.6-12.8 8-13.5 12.7-11.8 12.7-11.8l19.3 5.3z"/>
    <path fill="#787C9C" d="M320.7 582.3l-3.8 68c-.5 7.3 2 14.4 6.7 20 2 2.5 4.5 4.7 7.2 6.7 9.2 6.5 29 75.8 29 75.8s-22.4 1.3-28.6 5.7c0 0-1.3-17.5-4.8-19.3-3.5-1.8-29.3-53-29.3-53l-26-66.6s-20.5 35.5-38 41.6v15s-9.7 43.7-13.2 48.5c-3.5 4.9 0 24.1 0 24.1s-10 12.8-33.3-.8c0 0 7.5-8.4 7-18.4-.4-10.1 10.1-65.3 10.1-65.3s-1.3-21 9.2-34.2c10.5-13.2 28-63.5 28-63.5l12-26 67.8 41.7z"/>
    <g fill="#000" opacity=".1">
      <path d="M355.6 752.8s-19.8-69.2-29-75.8c-2.8-2-5.4-4.5-7.6-7.2a27.8 27.8 0 01-6.3-19.4l3.9-68-64.7-39.9.9-1.9 67.7 41.8-3.9 68c-.4 7 1.9 14 6.4 19.4 2.2 2.7 4.7 5.1 7.6 7.2 9.2 6.5 28.9 75.8 28.9 75.8S337 754 331 758.5l-.1-1.8c8.6-3 24.7-3.9 24.7-3.9zM215.8 748.9s-3.6-19.3 0-24.1c3.5-4.8 13.1-48.7 13.1-48.7v-14.9c17.5-6.1 38.1-41.6 38.1-41.6l1.6 4c-6 9.4-21.8 32.8-35.7 37.6v15s-9.7 43.8-13.2 48.6c-3.5 4.8 0 24 0 24s-4.9 6.2-15.7 5.4c8-.7 11.8-5.3 11.8-5.3z" opacity=".1"/>
    </g>
    <path fill="#714B4F" d="M170 506l8.6.6 4.5.3v-11l-6-1-3.7-.7s-11.4-33.7-22.3-27.6C140 472.7 170 506 170 506zM308 415.8s5.7 22 7.4 35.5c1.8 13.6-40.7 2.6-40.7 2.6s16.2-19.7 7-30.2l26.3-7.9z"/>
    <path fill="#E6E6F0" d="M262 507l-.9 8.3 13.6-.9 13.6-11.8 13.6-38.2 8.7-13.5 6.6-8.3-2.6-10.1-3.3 2.6c-6.6 5-22.3 15.7-33.7 12.8l-1.6-.5-17 29.3 3 30.3z"/>
    <path fill="#000" d="M311 429.9s7 1.3 11.9 11.8c3.7 8.1 16.2 16.4 21.8 19.9a9.3 9.3 0 014.3 5.9c1 5 1.5 14.3-4.6 27.7-9.7 21-16.7 30.2-16.7 30.2s-1.7 21 .9 27.2c2.6 6.2 0 39.9 0 39.9s-46 8.7-61.4 0c-15.3-8.8-13.1-42.6-13.1-42.6s-14.5 30.7-19.7 31.6l3-17.1s17.1-18.4 18-42.1c0 0 5.3-21.5.9-27.2 0 0-74 6.2-78.5 1 0 0 48.7-2.3 56.1-14 0 0 21.5-17.2 22.4-28.6a12.6 12.6 0 016.6-10.3c3-1.7 6.4-2.4 9.8-2.2l9.9.7s-17.1 30.2-16.2 34.2c1 4-.9 36-.9 36s19.8-42.6 28.5-47.4c8.8-4.8 18.8-24.6 18.8-24.6l-1.7-10z" opacity=".1"/>
    <path fill="#000" d="M262 507l-.9 8.3 13.6-.9 13.6-11.8 13.6-38.2 8.7-13.5 6.6-8.3-2.6-10.1-3.3 2.6.6 3.4s-10 19.8-18.8 24.6c-8.8 4.9-28.5 47.4-28.5 47.4s1.8-32 .9-36c-.6-2.6 7-17.4 12-26.6l-1.5-.5-17 29.3 3 30.3zM178.6 506.7l4.5.3v-11l-6-1.1c2.1 2.8 2 7.6 1.5 11.8z" opacity=".1"/>
    <path fill="#67647E" d="M311 428.5s7 1.3 11.9 11.9c3.7 8 16.2 16.4 21.8 19.8a9.3 9.3 0 014.3 6c1 5 1.5 14.2-4.6 27.6-9.7 21-16.7 30.3-16.7 30.3s-1.7 21 .9 27.1c2.6 6.2 0 40 0 40s-46 8.7-61.4 0c-15.3-8.9-13.1-42.6-13.1-42.6s-14.5 30.7-19.7 31.5l3-17s17.1-18.5 18-42.1c0 0 5.3-21.5.9-27.2 0 0-17.1 18.4-36.4 18-19.3-.4-42 2.2-42 2.2s4.3-14 0-19.3c0 0 48.6-2.2 56-14 0 0 21.5-17 22.4-28.5a12.6 12.6 0 016.6-10.3c3-1.7 6.4-2.5 9.8-2.2l9.9.7s-17.1 30.2-16.2 34.1c1 4-.9 36-.9 36s19.8-42.6 28.5-47.4c8.8-4.8 18.9-24.6 18.9-24.6l-1.8-10"/>
    <path fill="#000" d="M320.7 474.5s-10.5 35.5-16.6 40c-6.2 4.3-43.4 26.6-54.4 21.4 0 0-2.6 13.1 1.3 16.2 0 0 40.9-1.6 41.2-1.8 0 0 26.8-3.5 31.1-16.6 4.4-13.2 9.7-35.5 9.7-35.5l-12.3-23.7z" opacity=".1"/>
    <path fill="#BA7855" d="M264.6 514.6c.9 0 1.5-1 1.5-2.2 0-1.2-.6-2.1-1.5-2.1-.8 0-1.5 1-1.5 2.1 0 1.3.7 2.2 1.5 2.2zM260.2 530c.9 0 1.6-1 1.6-2.2 0-1.2-.7-2.2-1.6-2.2-.8 0-1.5 1-1.5 2.2 0 1.2.7 2.2 1.5 2.2z"/>
    <g fill="#000" opacity=".1">
      <path d="M325.5 590.7s2.7-33.8 0-40c-2.6-6-.9-27-.9-27s7-9.3 16.7-30.3a43.7 43.7 0 004.6-27.7 9.3 9.3 0 00-4.3-6c-5.6-3.4-18-11.7-21.8-19.8-2.7-6-6.1-9-8.6-10.4l-.1-1s7 1.3 11.8 11.8c3.7 8 16.2 16.4 21.8 19.9a9.3 9.3 0 014.2 5.9c1.2 5 1.6 14.3-4.5 27.7-9.7 21-16.7 30.2-16.7 30.2s-1.7 21 .9 27.2c2.6 6.1 0 39.9 0 39.9s-32.9 6.2-52.3 2.9c19.6 2.3 49.2-3.3 49.2-3.3zM266.4 474.5c.6 2.7 0 18.6-.5 28.3l-3.4 7.2s1.7-32 .9-36c-.9-3.7 14.5-31.2 16-34l3.2.3s-17.1 30.3-16.2 34.2zM216.8 511.3c19.3.5 36.4-18 36.4-18a7 7 0 011.1 2.4c-5 4.7-19 16.4-34.4 16-19.3-.4-42 2.2-42 2.2l.2-.8c12.9-1.3 25.8-1.9 38.8-1.8zM251 548.1s-.2 2.8 0 6.9c-4.6 9-13 24.5-16.6 25.1l.6-3.6c6.4-8 16-28.4 16-28.4z" opacity=".1"/>
    </g>
    <path fill="url(#paint6_linear)" d="M256.1 437.6H151.3v78.9h104.8v-79z"/>
    <path fill="#fff" d="M253.4 439.6H154v74.9h99.3v-75z"/>
    <path fill="#EF5B59" d="M196.9 446h-33.1v18.8h33V446z" opacity=".2"/>
    <path fill="#E6E8EC" d="M243.7 446h-38.9v4.4h38.9V446zM232.2 453.3h-27.4v4.3h27.4v-4.3zM243.7 460.5h-38.9v4.3h38.9v-4.3zM243.7 467.7h-80v4.3h80v-4.3zM243.7 474.9h-80v4.3h80v-4.3zM243.7 482h-80v4.4h80V482zM237.2 489.3h-73.4v4.3h73.4v-4.3zM243.7 496.5h-80v4.3h80v-4.3zM243.7 503.7h-80v4.3h80v-4.3z"/>
    <path fill="#714B4F" d="M238.8 543.8l9.3 2 7.3 1.5-4-11-2.7-.7-4.2-1s-6.2-30.7-18.4-28.5c-12.3 2.2 12.7 37.7 12.7 37.7z"/>
    <path fill="#000" d="M248 545.7l7.4 1.6-4-11-2.7-.7c-.6 3.3-.8 6.7-.6 10.1z" opacity=".1"/>
    <path fill="#67647E" d="M320.7 473.7s-10.5 35.5-16.6 39.8c-6.2 4.4-43.4 26.8-54.4 21.5 0 0-2.6 13.2 1.3 16.2l41.2-1.7s26.8-3.5 31.1-16.7c4.4-13.1 9.7-35.5 9.7-35.5l-12.3-23.6z"/>
    <path fill="#000" d="M307.6 416.7l2 8.4a23.6 23.6 0 01-26 12c1-4.5.7-9-2.3-12.6l26.3-7.8z" opacity=".1"/>
    <path fill="#714B4F" d="M289.2 436.9a23.7 23.7 0 100-47.4 23.7 23.7 0 000 47.4z"/>
    <path fill="#000" d="M268.6 406.7c-1.7.4-3.5.6-5.3.3-3.7-.8-6.3-4.5-6.4-8.3a12.7 12.7 0 014.9-9.8c2-1.6 4.4-2.8 6.2-4.7 2.2-2.2 3.4-5.2 5-7.8 2.8-4.3 7-7.5 12-9.2 3.5-1.2 8-1.4 10.8 1.3 1.4 1.3 2.2 3.3 3.8 4.4 2.4 1.7 5.5 1.2 8.3 1.5a15.8 15.8 0 0112 9 22.3 22.3 0 011.1 15l-2 6.5c-1.2 4.4-1.5 9-2.9 13.5-1.4 4.4-4.3 8.7-8.8 10 .4-5-.6-9.9-2.8-14.3-.3-1-1-1.8-2-2.2-.8-.2-1.6-.2-2.4 0a24 24 0 01-16-3.3c-1.7-1-4.3-4.5-6-4.8-2.4-.4-7 2.3-9.5 2.9z" opacity=".1"/>
    <path fill="#503F43" d="M268.6 405.8c-1.7.5-3.5.6-5.3.3-3.7-.8-6.3-4.5-6.4-8.3a12.7 12.7 0 014.9-9.7c2-1.7 4.4-2.9 6.2-4.8 2.2-2.2 3.4-5.2 5-7.8 2.8-4.3 7-7.5 12-9.2 3.5-1.2 8-1.4 10.8 1.3 1.4 1.3 2.2 3.3 3.8 4.4 2.4 1.7 5.5 1.2 8.3 1.5a15.8 15.8 0 0112 9 22.3 22.3 0 011.1 15l-2 6.5c-1.2 4.4-1.5 9.1-2.9 13.5s-4.3 8.7-8.8 10c.4-5-.6-9.9-2.8-14.3-.3-1-1-1.7-2-2.2-.8-.2-1.6-.2-2.4 0a24 24 0 01-16-3.3c-1.7-1-4.3-4.5-6-4.8-2.4-.4-7 2.4-9.5 2.9z"/>
    <path fill="#EF5B59" d="M86.2 760.3c1.8-1.5 3.1-3.5 3.8-5.8.5-2.3-.5-5-2.7-5.9-2.4-1-5 .8-7 2.5s-4.3 3.7-7 3.3a10.5 10.5 0 003.3-9.8c-.1-.7-.4-1.4-1-2-1.3-1.4-3.7-.8-5.4.3-5.2 3.7-6.6 10.8-6.7 17.1-.5-2.3 0-4.7 0-7s-.7-5-2.7-6.2a8 8 0 00-4-1c-2.3 0-5 .2-6.5 2-2 2-1.5 5.6.2 8 1.7 2.2 4.4 3.7 6.8 5.3a15 15 0 014.8 4.6l.4.9H77c3.3-1.7 6.3-3.8 9-6.3zM955.2 621.3c1.8-1.5 3.1-3.5 3.8-5.8.5-2.3-.5-5-2.7-5.9-2.4-1-5 .8-7 2.5s-4.3 3.7-7 3.3a10.5 10.5 0 003.3-9.8c-.1-.7-.4-1.4-1-2-1.3-1.4-3.8-.8-5.4.3-5.2 3.7-6.6 10.8-6.7 17.1-.5-2.3 0-4.7 0-7s-.7-5-2.7-6.2a8 8 0 00-4-1c-2.3 0-5 .2-6.5 2-2 2-1.5 5.6.2 8 1.7 2.2 4.4 3.7 6.8 5.3a15 15 0 014.8 4.6l.4.9H946c3.3-1.7 6.4-3.8 9-6.3z"/>
    <path fill="url(#paint7_linear)" d="M1085.2 320.7a46.5 46.5 0 00-8-15.8h-.2v-7.5l-5.6.9c-.9-2.8-1.6-5.5-2-8.3a3.8 3.8 0 004.2.8l-.3-.5h.3c-.9-1.6-1.4-3.4-1.4-5.2 0-1.6.3-3.2.8-4.8 1-3.4 2.7-6.6 3.6-10.1a25 25 0 00-1.8-18.1c-.4-1-1-2-2-2.6a26 26 0 00-2.3-1.2 13 13 0 01-3.6-3.5c-4-4.8-9.2-8.4-15.2-10.2a9 9 0 00-4.9-.4c-3.8 1-5.1 5.7-8.1 8.1-2.7 2.1-6.4 2.4-9.8 3-3.4.8-6.7 2.2-9 4.8a9.9 9.9 0 00-2.5 6.6 6.6 6.6 0 002.7 5.9 8.4 8.4 0 007.1 1 24.2 24.2 0 0018.3 30.3l.7 1.2c2 3.8 3.5 7.7 4.5 11.9-5.1 2.9-10.7 5.6-14.1 5.9a23.7 23.7 0 01-5.2 12.6c-4.6 5.2-25.4 44.4-25.4 44.4l-1.7 4.2c-12.8 1.6-33.8 3.9-39.7 2.7l-23-21.9s-7.5 5.7-6.8 12.6l-4.1-4s-22 16.8 12.6 27.7l52.6 6c-5 15.2-9.7 32.8-8.2 42.4h.4l3-.3-.1 1.7-5 90.7s-1.2 16.7 14.3 24.2c0 0 19 55.8 11.6 62.2l2.4 1-15.7 14s-11.5 2.8-17.8 2.2a4.6 4.6 0 00-5 3.4l-.1.4v1.6l.2.4v.1l.2.4v.1l.2.4v.1l.4.4v.1l.5.4.5.4.6.5.7.4.7.3h.1l.8.3h.1l.9.3h.1l1 .3 1 .2h.2l1 .1h.3l1.2.2 9.3.2v1l.1.5.1.1.2.4.2.5.4.5.5.5.4.4h.1l.6.4v.1l.7.4.7.3h.1l.8.3h.1l.9.3h.1l1 .3 1 .2h.2l1 .1h.3l1.2.1c15 1.2 62.8-2.3 62.8-2.3v-.3c.4-2.2 2.7-15.1-5.4-24.7l.7-.8s-6.4-11-3-14.4c3.5-3.5-17.2-63.4-17.2-63.4s-11-17.2-4.6-36.8c6.3-19.6-.6-40.9-.6-40.9s15.1-4.5 15.4-23v-1.8h1.7s-2.9-10.3.6-17.8c3.4-7.5 10.9-.6 17.8-31 5-22.2 9.4-47.6 11.5-60 .9-4.9.5-10-1-14.8zm-131.5 64.8l-5.2-5c1.7.7 3.7 1.4 5.8 2l19.8 2.4c-8.8.8-17 1.2-20.4.6z"/>
    <path fill="#FDC2CC" d="M1003.9 382.5s-40.8 5.7-49.3 4L932 365s-21.5 16.4 12.5 27.2l63.3 7.3-4-17z"/>
    <path fill="#000" d="M1003.9 382.5s-40.8 5.7-49.3 4L932 365s-21.5 16.4 12.5 27.2l63.3 7.3-4-17z" opacity=".1"/>
    <path fill="#47465A" d="M1018.6 612.2l-19.8 17.5s-11.3 2.9-17.6 2.3c-6.2-.6-9 9.6 5.7 10.8a737 737 0 0061.6-2.3s4.6-18.1-9-28.3h-21z"/>
    <path fill="#000" d="M1018.6 612.2l-19.8 17.5s-11.3 2.9-17.6 2.3c-6.2-.6-9 9.6 5.7 10.8a737 737 0 0061.6-2.3s4.6-18.1-9-28.3h-21z" opacity=".1"/>
    <path fill="#fff" d="M1049.3 632.7c0 2-.3 4-.8 6 0 0-47 3.5-61.6 2.3-7-.5-10-3.1-10.6-5.7-.7 3 1.9 6.8 10.6 7.5a737 737 0 0061.6-2.3c.6-2.6.8-5.2.8-7.8z" opacity=".3"/>
    <path fill="#FDC2CC" d="M1041.8 291.4s12.4 17.6 7.9 29.5c-4.5 11.9 23.7-12.5 23.7-12.5s-9-15.8-4.5-32.8l-27.1 15.8z"/>
    <path fill="#47465A" d="M1038.4 619l-19.8 17.5s-11.3 2.9-17.5 2.3c-6.3-.6-9 9.6 5.6 10.7 14.7 1.2 61.7-2.2 61.7-2.2s4.5-18.1-9-28.3h-21z"/>
    <path fill="#565171" d="M1044 615c-3 3.7-7 5-11.4 5.3-10 .5-20.8-5.3-20.8-5.3 7.3-6.2-11.3-61-11.3-61-15.3-7.4-14.2-23.8-14.2-23.8l5-89.1 1.3-22.4 15.8-9.6 12.5 9.6 11.9 9c.7 3 1.2 6 1.4 9 1.4 20.7-15 25.6-15 25.6s6.8 21 .5 40.1a46.6 46.6 0 004.6 36.3s20.4 58.8 17 62.2c-3.4 3.4 2.7 14.1 2.7 14.1z"/>
    <path fill="#000" d="M1044 615c-3 3.7-7 5-11.4 5.3-10 .5-20.8-5.3-20.8-5.3 7.3-6.2-11.3-61-11.3-61-15.3-7.4-14.2-23.8-14.2-23.8l5-89.1 1.3-22.4 15.8-9.6 12.5 9.6 11.9 9c.7 3 1.2 6 1.4 9 1.4 20.7-15 25.6-15 25.6s6.8 21 .5 40.1a46.6 46.6 0 004.6 36.3s20.4 58.8 17 62.2c-3.4 3.4 2.7 14.1 2.7 14.1z" opacity=".1"/>
    <path fill="#565171" d="M1063.8 621.8c-9.6 11.9-32.2 0-32.2 0 .5-.4.8-1 1-1.5 4.1-11.3-14-65.2-14-65.2-15.3-7.4-17-25-17-25l-4-90.6-.5-11.7 23.8-9.1 7.3-2.8 24.3 18.7c1 3.8 1.6 7.8 1.6 11.8-.3 18.3-15.2 22.7-15.2 22.7s6.8 21 .6 40.1a46.6 46.6 0 004.5 36.3s20.4 58.8 17 62.2c-3.3 3.4 2.8 14.1 2.8 14.1z"/>
    <path fill="#000" d="M1054 446.4a76.2 76.2 0 01-19.8-9.8l-3.2-2s-5-14.1-18.7-3.4a50.9 50.9 0 01-21 10l1.2-22.4 15.9-9.7 12.5 9.6 7.3-2.8 24.3 18.7c1 3.9 1.6 7.8 1.6 11.8z" opacity=".1"/>
    <path fill="#F68080" d="M1084.7 337.9c-2 12.1-6.4 37-11.3 58.8-6.8 30-14.1 23.2-17.5 30.5-3.4 7.4-.6 17.6-.6 17.6-5.6.5-24.3-12-24.3-12s-5-14-18.7-3.3c-13.5 10.7-24.3 10.2-24.3 10.2-2.8-18.7 18.1-68.5 18.1-68.5s20.4-38.4 24.9-43.5a23 23 0 005-12.5c7.4-.6 25.5-13 25.5-13l14.2-2.3v7.4l.4.3c2.4 1.8 5.3 9.3 7.3 15.3a31 31 0 011.3 15z"/>
    <path fill="#000" d="M1073.4 314.6s-14.7-11.8-36.8 26.6c-22 38.5-27.1 32.3-27.1 32.3s4.5 17 2.3 20.4c0 0 15.2-1.2 20.9 0 5.6 1 40.7-43 40.7-43s18.1-25 0-36.3z" opacity=".1"/>
    <path fill="#000" d="M1072.9 312.4s-14.7-11.9-36.8 26.6c-22 38.4-27.1 32.2-27.1 32.2s17.5 19.2 23.2 20.4c5.6 1.1 40.7-43 40.7-43s18-24.9 0-36.2z" opacity=".1"/>
    <path fill="#000" d="M1011.3 390.2c.2-4.2-1.4-11.6-2.3-15.4l5.6-.8 4 17-7.3-.8zM1069.5 276.8l-27.2 15.8a58 58 0 013.2 5.2c1.6.3 3.2.4 4.8.4 7.2 0 10.6-7.6 15-12.7-.4-4 3-4.2 4.2-8.8z" opacity=".1"/>
    <path fill="#FDC2CC" d="M1049.7 297.1a23.8 23.8 0 100-47.5 23.8 23.8 0 000 47.5z"/>
    <path fill="url(#paint8_linear)" d="M1013 300.4H821.6v144.2H1013V300.4z"/>
    <path fill="#fff" d="M1008.7 303.7H825.9v137.7h182.8V303.7z"/>
    <path fill="#EF5B59" d="M904.7 315.6h-61V350h61v-34.4z" opacity=".2"/>
    <path fill="#E6E8EC" d="M990.8 315.6h-71.5v8h71.5v-8zM969.6 328.8h-50.3v8h50.3v-8zM990.8 342h-71.5v8h71.5v-8zM990.8 355.3h-147v8h147v-8zM990.8 368.6h-147v8h147v-8zM990.8 381.8h-147v8h147v-8zM978.9 395H843.8v8h135v-8zM990.8 408.3h-147v8h147v-8zM990.8 421.5h-147v8h147v-8z"/>
    <path fill="#000" d="M1019.6 254.1c2.4-2.4 5.5-4 9-4.6 3.2-.8 6.9-1 9.5-3 3-2.4 4.3-7 8-8 1.6-.3 3.3-.2 4.8.4a31 31 0 0115 10c.9 1.4 2 2.5 3.4 3.4l2.4 1.2c.9.7 1.5 1.5 2 2.5a24.6 24.6 0 011.7 17.3c-1 3.4-2.6 6.6-3.6 10-1 3.4-1.2 7.3.6 10.3-1.8.9-4-.3-5-1.9-1-1.6-1.4-3.6-2-5.5a21 21 0 00-6.2-9.5c-1.7-1.6-5-2.6-6.2-.6-.4.8-.4 1.8-.8 2.6-.8 1.6-3.2 2-4.7 1a7.2 7.2 0 01-3-4.3c-2.3-8-6.3-12.9-14.7-9.5-3.1 1.3-6.8 2.1-9.8 0-4-3-3.2-8.5-.4-11.8z" opacity=".1"/>
    <path fill="#B96B6B" d="M1019.6 253.6c2.4-2.5 5.5-4.1 9-4.7 3.2-.7 6.9-1 9.5-3 3-2.4 4.3-7 8-8 1.6-.3 3.3-.1 4.8.4a31 31 0 0115 10c.9 1.4 2 2.6 3.4 3.5l2.4 1.1c.9.7 1.5 1.6 2 2.6a24.6 24.6 0 011.7 17.2c-1 3.4-2.6 6.6-3.6 10-1 3.5-1.2 7.3.6 10.3-1.8.9-4-.2-5-1.8-1-1.7-1.4-3.7-2-5.5a21 21 0 00-6.2-9.6c-1.7-1.5-5-2.6-6.2-.6-.4.8-.4 1.8-.8 2.6-.8 1.6-3.2 2-4.7 1a7.2 7.2 0 01-3-4.3c-2.3-7.9-6.3-12.9-14.7-9.5-3.1 1.3-6.8 2.1-9.8 0-4-2.9-3.2-8.5-.4-11.7z"/>
    <path fill="#000" d="M1076.2 307.6h-11.5s-22.7 11.3-23.2 10.7c-.4-.4-3.9.3-6.1.8.3-1.3.6-2.6.7-3.9 7.4-.6 25.5-13 25.5-13l14.1-2.2v7.3c.2 0 .3.2.5.3z" opacity=".1"/>
    <path fill="#fff" d="M1069 639.5c0 2-.2 4-.7 6 0 0-47 3.5-61.6 2.3-7-.5-10-3.1-10.6-5.7-.7 3 1.9 6.8 10.6 7.4 14.7 1.2 61.6-2.2 61.6-2.2.6-2.6.8-5.2.8-7.8z" opacity=".3"/>
    <g fill="#000" opacity=".1">
      <path d="M1007 428.9a48 48 0 01-18.8 9.5l.1 1.2s10.8.6 24.3-10.2c2.1-1.8 4.6-3 7.3-3.8-3-1.3-7.2-1.2-13 3.3zM1083.8 322.9a45.1 45.1 0 00-7.8-15.6s-4.7.2-4.5.3c2.3 1.8 4.6 8.8 6.6 14.7a31 31 0 011.2 15c-2 12.1-6.3 37.1-11.2 58.8-6.8 30-14.2 23.2-17.6 30.5-2.8 6-1.4 14-.8 16.7 2.5 1 4.6 1.6 6 1.4 0 0-3-10.1.5-17.5 3.4-7.3 10.7-.6 17.5-30.5 5-21.7 9.3-46.7 11.3-58.8a31 31 0 00-1.3-15z" opacity=".1"/>
    </g>
    <path fill="#FDC2CC" d="M1018.6 391l-7.3-.8-56-6.5c-34-10.8-12.5-27.2-12.5-27.2l22.6 21.5c6.6 1.3 32.2-1.7 43.6-3.2l5.6-.8 4 17z"/>
    <path fill="#F68080" d="M1073.4 313.5s-14.7-11.9-36.8 26.6c-22 38.5-27.1 32.3-27.1 32.3s4.5 17 2.3 20.3c0 0 15.2-1.1 20.9 0 5.6 1.2 40.7-43 40.7-43s18.1-24.9 0-36.2z"/>
  </g>
  <defs>
    <linearGradient id="paint0_linear" x1="631" x2="631" y1="597.2" y2="112.9" gradientUnits="userSpaceOnUse">
      <stop stop-color="gray" stop-opacity=".3"/>
      <stop offset=".5" stop-color="gray" stop-opacity=".1"/>
      <stop offset="1" stop-color="gray" stop-opacity=".1"/>
    </linearGradient>
    <linearGradient id="paint1_linear" x1="119500" x2="119500" y1="333144" y2="137466" gradientUnits="userSpaceOnUse">
      <stop stop-color="gray" stop-opacity=".3"/>
      <stop offset=".5" stop-color="gray" stop-opacity=".1"/>
      <stop offset="1" stop-color="gray" stop-opacity=".1"/>
    </linearGradient>
    <linearGradient id="paint2_linear" x1="36730.3" x2="36730.3" y1="272876" y2="153388" gradientUnits="userSpaceOnUse">
      <stop stop-color="gray" stop-opacity=".3"/>
      <stop offset=".5" stop-color="gray" stop-opacity=".1"/>
      <stop offset="1" stop-color="gray" stop-opacity=".1"/>
    </linearGradient>
    <linearGradient id="paint3_linear" x1="127841" x2="127841" y1="154760" y2="117471" gradientUnits="userSpaceOnUse">
      <stop stop-color="gray" stop-opacity=".3"/>
      <stop offset=".5" stop-color="gray" stop-opacity=".1"/>
      <stop offset="1" stop-color="gray" stop-opacity=".1"/>
    </linearGradient>
    <linearGradient id="paint4_linear" x1="35162" x2="43426.6" y1="43465.8" y2="43465.8" gradientUnits="userSpaceOnUse">
      <stop stop-color="gray" stop-opacity=".3"/>
      <stop offset=".5" stop-color="gray" stop-opacity=".1"/>
      <stop offset="1" stop-color="gray" stop-opacity=".1"/>
    </linearGradient>
    <linearGradient id="paint5_linear" x1="-112210" x2="-112210" y1="362656" y2="178619" gradientUnits="userSpaceOnUse">
      <stop stop-color="gray" stop-opacity=".3"/>
      <stop offset=".5" stop-color="gray" stop-opacity=".1"/>
      <stop offset="1" stop-color="gray" stop-opacity=".1"/>
    </linearGradient>
    <linearGradient id="paint6_linear" x1="21491" x2="21491" y1="41210.1" y2="34978.5" gradientUnits="userSpaceOnUse">
      <stop stop-color="gray" stop-opacity=".3"/>
      <stop offset=".5" stop-color="gray" stop-opacity=".1"/>
      <stop offset="1" stop-color="gray" stop-opacity=".1"/>
    </linearGradient>
    <linearGradient id="paint7_linear" x1="173743" x2="173743" y1="297086" y2="121370" gradientUnits="userSpaceOnUse">
      <stop stop-color="gray" stop-opacity=".3"/>
      <stop offset=".5" stop-color="gray" stop-opacity=".1"/>
      <stop offset="1" stop-color="gray" stop-opacity=".1"/>
    </linearGradient>
    <linearGradient id="paint8_linear" x1="176347" x2="176347" y1="64416.1" y2="43622.4" gradientUnits="userSpaceOnUse">
      <stop stop-color="gray" stop-opacity=".3"/>
      <stop offset=".5" stop-color="gray" stop-opacity=".1"/>
      <stop offset="1" stop-color="gray" stop-opacity=".1"/>
    </linearGradient>
    <clipPath id="clip0">
      <path fill="#fff" d="M0 0h1086.8v789.4H0z"/>
    </clipPath>
  </defs>
</svg>
