<svg width="1087" height="790" viewBox="0 0 1087 790" fill="none" xmlns="http://www.w3.org/2000/svg">
<g clip-path="url(#clip0)">
<path opacity="0.2" d="M153.41 43.6199C145.35 43.3899 137.09 43.6199 129.53 45.9399C108.96 52.2599 99.2099 72.9399 102.38 90.8099C105.55 108.68 118.59 124.25 132.12 138.48C145.65 152.71 160.31 166.78 167.73 183.79C171.43 192.28 173.16 201.79 169.4 210.27C163.6 223.34 146.11 230.64 129.32 232.16C112.53 233.68 95.6699 230.72 78.8199 229.73C71.7499 229.32 64.4799 229.27 57.8199 231.18C50.5099 233.26 44.4199 237.51 38.8199 241.94C16.9299 259.3 -0.590077 283.01 2.26992 307.88C5.46992 336.11 34.0099 358.42 65.2699 370.39C75.6199 374.39 86.5699 377.57 95.6799 383.23C119.68 398.16 125.07 426.16 122.68 450.87C120.29 475.58 112.15 500.32 116.68 524.81C122.01 553.3 145.6 579.04 177.42 591.06C205.77 601.77 241.25 601.06 266.42 585.95C278.69 578.57 287.97 568.32 296.04 557.72C308.023 542.066 317.922 524.923 325.49 506.72C329 498.23 332.3 489.1 340.49 483.2C345.49 479.57 351.97 477.54 358.38 475.96C377.7 471.2 398.05 469.9 417.55 465.66C437.05 461.42 456.62 453.51 467.22 439.38C482.22 419.38 475.22 393.76 475.29 370.24C475.41 316.58 514.4 268.55 528.79 216.24C533.49 199.15 535.24 180.24 524.74 164.99C517.61 154.64 505.58 147.17 492.94 141.4C465.13 128.71 433.52 123.06 402.43 117.56C359.22 109.92 306.75 108.93 273.26 84.2099C241.17 60.5299 197.2 43.6199 153.41 43.6199Z" fill="#EF5B59"/>
<g opacity="0.5">
<path opacity="0.5" d="M27.3399 349.35C25.1999 352.51 23.4399 357.1 26.2399 362.45C31.7399 372.95 45.3399 370.79 51.9499 380.84C53.7161 383.625 54.7005 386.834 54.7999 390.13C55.0499 395.82 53.2899 400.3 52.3799 405.31C51.1897 411.219 52.1173 417.358 54.9999 422.65C58.2447 428.176 63.1413 432.545 68.9999 435.14C74.1199 437.4 78.9999 437.98 83.8999 439.08C89.9786 440.474 95.8992 442.485 101.57 445.08C104.265 446.211 106.8 447.69 109.11 449.48C111.927 451.953 114.484 454.707 116.74 457.7L138.01 483.96C140.713 487.501 143.724 490.794 147.01 493.8C150.594 496.692 154.533 499.115 158.73 501.01C167.22 505.24 176.1 509.57 183.47 509.08C190.84 508.59 195.96 501.48 192.47 491.54C189.17 482.08 179.87 474.11 175.65 464.67C169 449.79 177.71 438.67 172.14 423.77C166.8 409.45 151.83 399.85 142.27 386.77C135.41 377.47 131.59 366.65 125.41 356.88C116.41 342.88 103.01 332.17 90.4099 326.75C79.3287 322.04 67.1944 320.359 55.2499 321.88C50.6899 322.38 46.1999 323.23 42.9599 325.96C39.5199 328.86 39.9599 334.28 37.7199 338.13C35.1499 342.56 30.2499 345.07 27.3399 349.35Z" fill="#EF5B59"/>
<path opacity="0.5" d="M40.6899 329.211C40.6899 329.211 147.17 428.761 190.11 506.271" stroke="#535461" stroke-width="2" stroke-miterlimit="10"/>
<path opacity="0.5" d="M26.6499 363.06C26.6499 363.06 69.1999 354.79 98.6499 387.96" stroke="#535461" stroke-width="2" stroke-miterlimit="10"/>
<path opacity="0.5" d="M56.8899 425.57C56.8899 425.57 103.89 392.7 120.15 411.82" stroke="#535461" stroke-width="2" stroke-miterlimit="10"/>
<path opacity="0.5" d="M90.21 326.511C90.21 326.511 85.26 351.671 103.07 392.771" stroke="#535461" stroke-width="2" stroke-miterlimit="10"/>
<path opacity="0.5" d="M172.09 424.16C172.09 424.16 167.93 440.66 134.49 428.53" stroke="#535461" stroke-width="2" stroke-miterlimit="10"/>
<path opacity="0.5" d="M138.14 481.881C138.14 481.881 158.55 458.291 149.27 446.711" stroke="#535461" stroke-width="2" stroke-miterlimit="10"/>
</g>
<path d="M7.33009 233.88C2.33009 239.79 -2.34991 247.97 1.33009 256.04C8.41009 271.88 34.6201 264.13 43.9701 278.88C46.7701 283.29 47.1501 288.68 46.5001 293.49C45.2401 302.9 40.5801 310.89 37.3601 319.49C34.1401 328.09 32.4701 338.49 37.0101 347.57C41.3801 356.36 50.5901 361.91 59.5101 364.12C68.4301 366.33 77.3701 365.83 86.2801 366.12C96.8652 366.535 107.375 368.084 117.63 370.74C122.137 371.76 126.452 373.496 130.41 375.88C134.96 378.79 138.64 383.06 142.24 387.26L174.24 424.55C178.49 429.55 182.83 434.55 188.1 438.22C194.18 442.45 201.1 444.6 207.91 446.67C222.56 451.15 237.91 455.67 251.91 452.6C265.91 449.53 277.66 436.15 274.16 420.66C270.83 405.91 255.81 395.45 250.75 381C242.75 358.23 262.5 337.11 256.57 313.94C250.89 291.72 225.71 280.26 211.71 261.45C201.71 247.97 197.77 231.11 189.03 216.77C176.41 196.07 154.41 182.36 132.51 177.15C110.61 171.94 88.5801 174.37 68.0401 179.58C59.3401 181.79 50.6401 184.58 43.7401 190.1C36.4101 195.97 35.5701 204.88 30.2301 211.96C24.0401 220.19 14.0701 225.88 7.33009 233.88Z" fill="#EF5B59"/>
<path d="M38.48 196.28C38.48 196.28 208.15 329.78 265.24 445.88" stroke="#535461" stroke-width="2" stroke-miterlimit="10"/>
<path d="M1.87012 256.88C1.87012 256.88 84.2401 230.23 129.41 276.54" stroke="#535461" stroke-width="2" stroke-miterlimit="10"/>
<path d="M39.6699 351.88C39.6699 351.88 137.78 282.88 162.58 309.79" stroke="#535461" stroke-width="2" stroke-miterlimit="10"/>
<path d="M132.26 176.76C132.26 176.76 115.35 220.15 136.26 283.22" stroke="#535461" stroke-width="2" stroke-miterlimit="10"/>
<path d="M256.31 314.57C256.31 314.57 243.5 343.3 184.41 333.25" stroke="#535461" stroke-width="2" stroke-miterlimit="10"/>
<path d="M175.1 420.98C175.1 420.98 220.57 375.5 206.67 358.98" stroke="#535461" stroke-width="2" stroke-miterlimit="10"/>
<path opacity="0.1" d="M617.97 771.68C874.782 771.68 1082.97 715.93 1082.97 647.16C1082.97 578.389 874.782 522.64 617.97 522.64C361.158 522.64 152.97 578.389 152.97 647.16C152.97 715.93 361.158 771.68 617.97 771.68Z" fill="#EF5B59"/>
<path d="M980.15 0.410156C980.15 0.410156 944.32 36.2402 964.55 89.4102C984.78 142.58 929.87 231 929.87 231C929.87 231 930.46 230.91 931.55 230.72C1005.14 217.72 1041.71 133.56 1000.79 71.0302C985.58 47.7902 973.09 20.5302 980.15 0.410156Z" fill="#EF5B59"/>
<path d="M980.15 0.410156C980.15 0.410156 959.92 44.3302 980.15 80.1602C1000.38 115.99 983.62 216.55 929.87 231" stroke="#535461" stroke-width="2" stroke-miterlimit="10"/>
<path d="M1043.97 145.34C1043.97 145.34 1003.08 138.83 999.36 175.47C995.64 212.11 920.74 217.19 920.74 217.19L922.14 218.12C983.98 258.71 1043.14 243.98 1034.14 190.12C1030.87 170.04 1031.14 149.88 1043.97 145.34Z" fill="#EF5B59"/>
<path opacity="0.2" d="M1043.97 145.34C1043.97 145.34 1003.08 138.83 999.36 175.47C995.64 212.11 920.74 217.19 920.74 217.19L922.14 218.12C983.98 258.71 1043.14 243.98 1034.14 190.12C1030.87 170.04 1031.14 149.88 1043.97 145.34Z" fill="#F5F5F5"/>
<path d="M1043.97 145.34C1043.97 145.34 1012.23 152.34 1014.84 181.16C1017.45 209.98 967.71 244.61 920.74 217.16" stroke="#535461" stroke-width="2" stroke-miterlimit="10"/>
<path d="M246.7 279.8C246.7 279.8 233.44 234.8 249.19 201.66C255.882 187.807 257.9 172.157 254.94 157.06C253.48 149.905 251.368 142.899 248.63 136.13" stroke="#535461" stroke-width="2" stroke-miterlimit="10"/>
<path d="M258.41 115.18C258.41 120.7 248.41 136.69 248.41 136.69C248.41 136.69 238.41 120.69 238.41 115.18C238.41 112.528 239.463 109.984 241.339 108.109C243.214 106.233 245.758 105.18 248.41 105.18C251.062 105.18 253.606 106.233 255.481 108.109C257.356 109.984 258.41 112.528 258.41 115.18Z" fill="#EF5B59"/>
<path d="M274.93 145.74C271.93 150.37 254.85 158.37 254.85 158.37C254.85 158.37 255.16 139.51 258.16 134.88C258.842 133.714 259.754 132.698 260.84 131.893C261.926 131.089 263.164 130.513 264.479 130.2C265.794 129.887 267.158 129.844 268.49 130.074C269.822 130.303 271.094 130.8 272.228 131.535C273.362 132.27 274.336 133.227 275.09 134.348C275.845 135.47 276.364 136.732 276.616 138.06C276.869 139.388 276.85 140.753 276.56 142.073C276.27 143.393 275.716 144.641 274.93 145.74Z" fill="#EF5B59"/>
<path d="M274.21 197.96C269.28 200.44 250.5 198.73 250.5 198.73C250.5 198.73 260.29 182.61 265.21 180.13C266.388 179.472 267.686 179.058 269.028 178.914C270.369 178.771 271.726 178.9 273.017 179.294C274.307 179.689 275.504 180.341 276.536 181.21C277.568 182.079 278.413 183.149 279.021 184.353C279.628 185.558 279.986 186.873 280.072 188.22C280.158 189.566 279.971 190.916 279.521 192.189C279.072 193.461 278.37 194.629 277.457 195.623C276.544 196.616 275.44 197.415 274.21 197.97V197.96Z" fill="#EF5B59"/>
<path d="M264.77 237.34C260.33 240.62 241.53 242.1 241.53 242.1C241.53 242.1 248.45 224.56 252.89 221.28C253.938 220.423 255.15 219.788 256.451 219.413C257.752 219.038 259.116 218.931 260.459 219.099C261.803 219.266 263.099 219.705 264.267 220.389C265.436 221.072 266.454 221.986 267.26 223.074C268.065 224.163 268.641 225.404 268.952 226.722C269.264 228.039 269.304 229.407 269.071 230.741C268.838 232.075 268.337 233.347 267.598 234.482C266.858 235.616 265.896 236.589 264.77 237.34Z" fill="#EF5B59"/>
<path d="M233.88 159.44C237.88 163.28 256.27 167.27 256.27 167.27C256.27 167.27 251.76 148.96 247.8 145.12C246.875 144.133 245.759 143.343 244.521 142.8C243.282 142.256 241.946 141.97 240.593 141.957C239.24 141.945 237.899 142.208 236.65 142.729C235.402 143.25 234.272 144.019 233.33 144.989C232.387 145.96 231.651 147.111 231.167 148.374C230.682 149.637 230.458 150.985 230.51 152.337C230.561 153.689 230.887 155.016 231.466 156.239C232.045 157.462 232.866 158.554 233.88 159.45V159.44Z" fill="#EF5B59"/>
<path d="M223.41 205.64C228.34 208.12 247.12 206.41 247.12 206.41C247.12 206.41 237.33 190.29 232.41 187.81C230.061 186.748 227.392 186.635 224.961 187.494C222.531 188.353 220.525 190.117 219.364 192.419C218.203 194.72 217.976 197.382 218.73 199.847C219.483 202.312 221.16 204.391 223.41 205.65V205.64Z" fill="#EF5B59"/>
<path d="M219.41 251.94C223.85 255.22 242.65 256.7 242.65 256.7C242.65 256.7 235.73 239.16 231.29 235.88C229.154 234.454 226.551 233.906 224.021 234.347C221.491 234.789 219.228 236.187 217.701 238.251C216.174 240.316 215.499 242.889 215.817 245.437C216.136 247.986 217.422 250.314 219.41 251.94Z" fill="#EF5B59"/>
<path d="M1072.41 541.5H987.32C989.289 537.566 990.316 533.229 990.32 528.83V141.35C990.315 133.797 987.311 126.556 981.968 121.217C976.626 115.879 969.383 112.88 961.83 112.88H303.16C295.604 112.88 288.357 115.881 283.015 121.224C277.672 126.567 274.67 133.814 274.67 141.37V528.83C274.674 533.229 275.701 537.566 277.67 541.5H189.57C187.573 541.5 185.658 542.293 184.246 543.705C182.833 545.118 182.04 547.033 182.04 549.03V555.1C182.04 566.276 186.48 576.995 194.383 584.897C202.285 592.8 213.004 597.24 224.18 597.24H1037.86C1049.04 597.24 1059.75 592.8 1067.66 584.897C1075.56 576.995 1080 566.276 1080 555.1V549.03C1080 548.036 1079.8 547.052 1079.42 546.134C1079.04 545.217 1078.48 544.384 1077.77 543.684C1077.07 542.984 1076.23 542.431 1075.31 542.056C1074.39 541.681 1073.4 541.492 1072.41 541.5ZM548.12 565.6L540.82 557.31H721.93L713.85 565.6H548.12Z" fill="url(#paint0_linear)"/>
<path d="M958.92 118.35H306C293.154 118.35 282.74 128.763 282.74 141.61V529.48C282.74 542.326 293.154 552.74 306 552.74H958.92C971.766 552.74 982.18 542.326 982.18 529.48V141.61C982.18 128.763 971.766 118.35 958.92 118.35Z" fill="#535461"/>
<path d="M965.99 181.67H297.47V536.54H965.99V181.67Z" fill="#F1F1F4"/>
<path d="M631.73 156.63C634.983 156.63 637.62 153.993 637.62 150.74C637.62 147.487 634.983 144.85 631.73 144.85C628.477 144.85 625.84 147.487 625.84 150.74C625.84 153.993 628.477 156.63 631.73 156.63Z" fill="white"/>
<path d="M734.95 537.27L711.95 560.83H549.95L529.19 537.27H199.54C197.588 537.27 195.716 538.045 194.336 539.425C192.955 540.805 192.18 542.678 192.18 544.63V550.57C192.18 555.982 193.247 561.341 195.319 566.34C197.392 571.339 200.43 575.881 204.259 579.706C208.088 583.53 212.634 586.563 217.636 588.629C222.638 590.696 227.998 591.756 233.41 591.75H1028.61C1039.53 591.75 1050.01 587.411 1057.73 579.688C1065.45 571.965 1069.79 561.491 1069.79 550.57V544.63C1069.79 542.678 1069.01 540.805 1067.63 539.425C1066.25 538.045 1064.38 537.27 1062.43 537.27H734.95Z" fill="#535461"/>
<path d="M521.07 208.71H338.3V346.45H521.07V208.71Z" fill="white"/>
<path opacity="0.2" d="M417.1 220.63H356.18V255.06H417.1V220.63Z" fill="#EF5B59"/>
<path d="M503.19 220.63H431.67V228.58H503.19V220.63Z" fill="#E6E8EC"/>
<path d="M482 233.87H431.67V241.82H482V233.87Z" fill="#E6E8EC"/>
<path d="M503.19 247.11H431.67V255.06H503.19V247.11Z" fill="#E6E8EC"/>
<path d="M503.19 260.36H356.18V268.31H503.19V260.36Z" fill="#E6E8EC"/>
<path d="M503.19 273.6H356.18V281.55H503.19V273.6Z" fill="#E6E8EC"/>
<path d="M503.19 286.85H356.18V294.8H503.19V286.85Z" fill="#E6E8EC"/>
<path d="M491.27 300.09H356.18V308.04H491.27V300.09Z" fill="#E6E8EC"/>
<path d="M503.19 313.33H356.18V321.28H503.19V313.33Z" fill="#E6E8EC"/>
<path d="M503.19 326.58H356.18V334.53H503.19V326.58Z" fill="#E6E8EC"/>
<path d="M722.38 208.71H539.61V346.45H722.38V208.71Z" fill="white"/>
<path opacity="0.2" d="M618.4 220.63H557.48V255.06H618.4V220.63Z" fill="#EF5B59"/>
<path d="M704.5 220.63H632.98V228.58H704.5V220.63Z" fill="#E6E8EC"/>
<path d="M683.31 233.87H632.98V241.82H683.31V233.87Z" fill="#E6E8EC"/>
<path d="M704.5 247.11H632.98V255.06H704.5V247.11Z" fill="#E6E8EC"/>
<path d="M704.49 260.36H557.48V268.31H704.49V260.36Z" fill="#E6E8EC"/>
<path d="M704.49 273.6H557.48V281.55H704.49V273.6Z" fill="#E6E8EC"/>
<path d="M704.49 286.85H557.48V294.8H704.49V286.85Z" fill="#E6E8EC"/>
<path d="M692.57 300.09H557.48V308.04H692.57V300.09Z" fill="#E6E8EC"/>
<path d="M704.49 313.33H557.48V321.28H704.49V313.33Z" fill="#E6E8EC"/>
<path d="M704.49 326.58H557.48V334.53H704.49V326.58Z" fill="#E6E8EC"/>
<path d="M923.68 208.71H740.91V346.45H923.68V208.71Z" fill="white"/>
<path opacity="0.2" d="M819.71 220.63H758.79V255.06H819.71V220.63Z" fill="#EF5B59"/>
<path d="M905.8 220.63H834.28V228.58H905.8V220.63Z" fill="#E6E8EC"/>
<path d="M884.61 233.87H834.28V241.82H884.61V233.87Z" fill="#E6E8EC"/>
<path d="M905.8 247.11H834.28V255.06H905.8V247.11Z" fill="#E6E8EC"/>
<path d="M905.8 260.36H758.79V268.31H905.8V260.36Z" fill="#E6E8EC"/>
<path d="M905.8 273.6H758.79V281.55H905.8V273.6Z" fill="#E6E8EC"/>
<path d="M905.8 286.85H758.79V294.8H905.8V286.85Z" fill="#E6E8EC"/>
<path d="M893.88 300.09H758.79V308.04H893.88V300.09Z" fill="#E6E8EC"/>
<path d="M905.8 313.33H758.79V321.28H905.8V313.33Z" fill="#E6E8EC"/>
<path d="M905.8 326.58H758.79V334.53H905.8V326.58Z" fill="#E6E8EC"/>
<path d="M521.07 363.66H338.3V501.4H521.07V363.66Z" fill="white"/>
<path opacity="0.2" d="M417.1 375.58H356.18V410.01H417.1V375.58Z" fill="#EF5B59"/>
<path d="M503.19 375.58H431.67V383.53H503.19V375.58Z" fill="#E6E8EC"/>
<path d="M482 388.83H431.67V396.78H482V388.83Z" fill="#E6E8EC"/>
<path d="M503.19 402.07H431.67V410.02H503.19V402.07Z" fill="#E6E8EC"/>
<path d="M503.19 415.31H356.18V423.26H503.19V415.31Z" fill="#E6E8EC"/>
<path d="M503.19 428.56H356.18V436.51H503.19V428.56Z" fill="#E6E8EC"/>
<path d="M503.19 441.8H356.18V449.75H503.19V441.8Z" fill="#E6E8EC"/>
<path d="M491.27 455.05H356.18V463H491.27V455.05Z" fill="#E6E8EC"/>
<path d="M503.19 468.29H356.18V476.24H503.19V468.29Z" fill="#E6E8EC"/>
<path d="M503.19 481.53H356.18V489.48H503.19V481.53Z" fill="#E6E8EC"/>
<path d="M722.38 363.66H539.61V501.4H722.38V363.66Z" fill="white"/>
<path opacity="0.2" d="M618.4 375.58H557.48V410.01H618.4V375.58Z" fill="#EF5B59"/>
<path d="M704.5 375.58H632.98V383.53H704.5V375.58Z" fill="#E6E8EC"/>
<path d="M683.31 388.83H632.98V396.78H683.31V388.83Z" fill="#E6E8EC"/>
<path d="M704.5 402.07H632.98V410.02H704.5V402.07Z" fill="#E6E8EC"/>
<path d="M704.49 415.31H557.48V423.26H704.49V415.31Z" fill="#E6E8EC"/>
<path d="M704.49 428.56H557.48V436.51H704.49V428.56Z" fill="#E6E8EC"/>
<path d="M704.49 441.8H557.48V449.75H704.49V441.8Z" fill="#E6E8EC"/>
<path d="M692.57 455.05H557.48V463H692.57V455.05Z" fill="#E6E8EC"/>
<path d="M704.49 468.29H557.48V476.24H704.49V468.29Z" fill="#E6E8EC"/>
<path d="M704.49 481.53H557.48V489.48H704.49V481.53Z" fill="#E6E8EC"/>
<path opacity="0.1" d="M923.68 363.66H740.91V501.4H923.68V363.66Z" fill="black"/>
<path d="M442.07 255.06H160.07C156.675 255.053 153.311 255.716 150.172 257.01C147.033 258.305 144.18 260.206 141.777 262.604C139.373 265.002 137.466 267.85 136.164 270.986C134.862 274.122 134.191 277.484 134.19 280.88V671.62C134.194 675.013 134.866 678.371 136.169 681.504C137.471 684.637 139.378 687.483 141.78 689.879C144.183 692.275 147.033 694.174 150.17 695.468C153.306 696.762 156.667 697.425 160.06 697.42H442.06C445.453 697.425 448.814 696.762 451.95 695.468C455.087 694.174 457.937 692.275 460.34 689.879C462.742 687.483 464.649 684.637 465.951 681.504C467.254 678.371 467.926 675.013 467.93 671.62V280.88C467.929 277.486 467.259 274.126 465.958 270.991C464.658 267.856 462.752 265.009 460.35 262.611C457.949 260.213 455.098 258.312 451.962 257.016C448.825 255.721 445.464 255.056 442.07 255.06Z" fill="url(#paint1_linear)"/>
<path d="M443.97 260.36H158.17C147.124 260.36 138.17 269.315 138.17 280.36V673.44C138.17 684.486 147.124 693.44 158.17 693.44H443.97C455.016 693.44 463.97 684.486 463.97 673.44V280.36C463.97 269.315 455.016 260.36 443.97 260.36Z" fill="#535461"/>
<path d="M447.41 301.33H154.72V652.48H447.41V301.33Z" fill="#F1F1F4"/>
<path d="M299.74 284.2C301.933 284.2 303.71 282.422 303.71 280.23C303.71 278.037 301.933 276.26 299.74 276.26C297.547 276.26 295.77 278.037 295.77 280.23C295.77 282.422 297.547 284.2 299.74 284.2Z" fill="white"/>
<path d="M299.74 684.17C306.323 684.17 311.66 678.833 311.66 672.25C311.66 665.667 306.323 660.33 299.74 660.33C293.157 660.33 287.82 665.667 287.82 672.25C287.82 678.833 293.157 684.17 299.74 684.17Z" fill="white"/>
<path d="M250.85 337.21H167.37V400.13H250.85V337.21Z" fill="white"/>
<path opacity="0.2" d="M203.37 342.66H175.54V358.39H203.37V342.66Z" fill="#EF5B59"/>
<path d="M242.69 342.66H210.02V346.29H242.69V342.66Z" fill="#E6E8EC"/>
<path d="M233.01 348.71H210.02V352.34H233.01V348.71Z" fill="#E6E8EC"/>
<path d="M242.69 354.76H210.02V358.39H242.69V354.76Z" fill="#E6E8EC"/>
<path d="M242.69 360.81H175.54V364.44H242.69V360.81Z" fill="#E6E8EC"/>
<path d="M242.69 366.86H175.54V370.49H242.69V366.86Z" fill="#E6E8EC"/>
<path d="M242.69 372.91H175.54V376.54H242.69V372.91Z" fill="#E6E8EC"/>
<path d="M237.25 378.96H175.54V382.59H237.25V378.96Z" fill="#E6E8EC"/>
<path d="M242.69 385.01H175.54V388.64H242.69V385.01Z" fill="#E6E8EC"/>
<path d="M242.69 391.06H175.54V394.69H242.69V391.06Z" fill="#E6E8EC"/>
<path d="M342.81 337.21H259.33V400.13H342.81V337.21Z" fill="white"/>
<path opacity="0.2" d="M295.32 342.66H267.49V358.39H295.32V342.66Z" fill="#EF5B59"/>
<path d="M334.65 342.66H301.98V346.29H334.65V342.66Z" fill="#E6E8EC"/>
<path d="M324.97 348.71H301.98V352.34H324.97V348.71Z" fill="#E6E8EC"/>
<path d="M334.65 354.76H301.98V358.39H334.65V354.76Z" fill="#E6E8EC"/>
<path d="M334.64 360.81H267.49V364.44H334.64V360.81Z" fill="#E6E8EC"/>
<path d="M334.64 366.86H267.49V370.49H334.64V366.86Z" fill="#E6E8EC"/>
<path d="M334.64 372.91H267.49V376.54H334.64V372.91Z" fill="#E6E8EC"/>
<path d="M329.2 378.96H267.49V382.59H329.2V378.96Z" fill="#E6E8EC"/>
<path d="M334.64 385.01H267.49V388.64H334.64V385.01Z" fill="#E6E8EC"/>
<path d="M334.64 391.06H267.49V394.69H334.64V391.06Z" fill="#E6E8EC"/>
<path d="M434.76 337.21H351.28V400.13H434.76V337.21Z" fill="white"/>
<path opacity="0.2" d="M387.28 342.66H359.45V358.39H387.28V342.66Z" fill="#EF5B59"/>
<path d="M426.6 342.66H393.93V346.29H426.6V342.66Z" fill="#E6E8EC"/>
<path d="M416.92 348.71H393.93V352.34H416.92V348.71Z" fill="#E6E8EC"/>
<path d="M426.6 354.76H393.93V358.39H426.6V354.76Z" fill="#E6E8EC"/>
<path d="M426.6 360.81H359.45V364.44H426.6V360.81Z" fill="#E6E8EC"/>
<path d="M426.6 366.86H359.45V370.49H426.6V366.86Z" fill="#E6E8EC"/>
<path d="M426.6 372.91H359.45V376.54H426.6V372.91Z" fill="#E6E8EC"/>
<path d="M421.16 378.96H359.45V382.59H421.16V378.96Z" fill="#E6E8EC"/>
<path d="M426.6 385.01H359.45V388.64H426.6V385.01Z" fill="#E6E8EC"/>
<path d="M426.6 391.06H359.45V394.69H426.6V391.06Z" fill="#E6E8EC"/>
<path d="M250.85 407.99H167.37V470.91H250.85V407.99Z" fill="white"/>
<path opacity="0.2" d="M203.37 413.44H175.54V429.17H203.37V413.44Z" fill="#EF5B59"/>
<path d="M242.69 413.44H210.02V417.07H242.69V413.44Z" fill="#E6E8EC"/>
<path d="M233.01 419.49H210.02V423.12H233.01V419.49Z" fill="#E6E8EC"/>
<path d="M242.69 425.54H210.02V429.17H242.69V425.54Z" fill="#E6E8EC"/>
<path d="M242.69 431.59H175.54V435.22H242.69V431.59Z" fill="#E6E8EC"/>
<path d="M242.69 437.64H175.54V441.27H242.69V437.64Z" fill="#E6E8EC"/>
<path d="M242.69 443.69H175.54V447.32H242.69V443.69Z" fill="#E6E8EC"/>
<path d="M237.25 449.74H175.54V453.37H237.25V449.74Z" fill="#E6E8EC"/>
<path d="M242.69 455.79H175.54V459.42H242.69V455.79Z" fill="#E6E8EC"/>
<path d="M242.69 461.84H175.54V465.47H242.69V461.84Z" fill="#E6E8EC"/>
<path d="M342.81 407.99H259.33V470.91H342.81V407.99Z" fill="white"/>
<path opacity="0.2" d="M295.32 413.44H267.49V429.17H295.32V413.44Z" fill="#EF5B59"/>
<path d="M334.65 413.44H301.98V417.07H334.65V413.44Z" fill="#E6E8EC"/>
<path d="M324.97 419.49H301.98V423.12H324.97V419.49Z" fill="#E6E8EC"/>
<path d="M334.65 425.54H301.98V429.17H334.65V425.54Z" fill="#E6E8EC"/>
<path d="M334.64 431.59H267.49V435.22H334.64V431.59Z" fill="#E6E8EC"/>
<path d="M334.64 437.64H267.49V441.27H334.64V437.64Z" fill="#E6E8EC"/>
<path d="M334.64 443.69H267.49V447.32H334.64V443.69Z" fill="#E6E8EC"/>
<path d="M329.2 449.74H267.49V453.37H329.2V449.74Z" fill="#E6E8EC"/>
<path d="M334.64 455.79H267.49V459.42H334.64V455.79Z" fill="#E6E8EC"/>
<path d="M334.64 461.84H267.49V465.47H334.64V461.84Z" fill="#E6E8EC"/>
<path d="M434.76 407.99H351.28V470.91H434.76V407.99Z" fill="white"/>
<path opacity="0.2" d="M387.28 413.44H359.45V429.17H387.28V413.44Z" fill="#EF5B59"/>
<path d="M426.6 413.44H393.93V417.07H426.6V413.44Z" fill="#E6E8EC"/>
<path d="M416.92 419.49H393.93V423.12H416.92V419.49Z" fill="#E6E8EC"/>
<path d="M426.6 425.54H393.93V429.17H426.6V425.54Z" fill="#E6E8EC"/>
<path d="M426.6 431.59H359.45V435.22H426.6V431.59Z" fill="#E6E8EC"/>
<path d="M426.6 437.64H359.45V441.27H426.6V437.64Z" fill="#E6E8EC"/>
<path d="M426.6 443.69H359.45V447.32H426.6V443.69Z" fill="#E6E8EC"/>
<path d="M421.16 449.74H359.45V453.37H421.16V449.74Z" fill="#E6E8EC"/>
<path d="M426.6 455.79H359.45V459.42H426.6V455.79Z" fill="#E6E8EC"/>
<path d="M426.6 461.84H359.45V465.47H426.6V461.84Z" fill="#E6E8EC"/>
<path d="M250.85 481.57H167.37V544.49H250.85V481.57Z" fill="white"/>
<path opacity="0.2" d="M203.37 487.02H175.54V502.75H203.37V487.02Z" fill="#EF5B59"/>
<path d="M242.69 487.02H210.02V490.65H242.69V487.02Z" fill="#E6E8EC"/>
<path d="M233.01 493.07H210.02V496.7H233.01V493.07Z" fill="#E6E8EC"/>
<path d="M242.69 499.12H210.02V502.75H242.69V499.12Z" fill="#E6E8EC"/>
<path d="M242.69 505.17H175.54V508.8H242.69V505.17Z" fill="#E6E8EC"/>
<path d="M242.69 511.22H175.54V514.85H242.69V511.22Z" fill="#E6E8EC"/>
<path d="M242.69 517.27H175.54V520.9H242.69V517.27Z" fill="#E6E8EC"/>
<path d="M237.25 523.32H175.54V526.95H237.25V523.32Z" fill="#E6E8EC"/>
<path d="M242.69 529.37H175.54V533H242.69V529.37Z" fill="#E6E8EC"/>
<path d="M242.69 535.42H175.54V539.05H242.69V535.42Z" fill="#E6E8EC"/>
<path d="M342.81 481.57H259.33V544.49H342.81V481.57Z" fill="white"/>
<path opacity="0.2" d="M295.32 487.02H267.49V502.75H295.32V487.02Z" fill="#EF5B59"/>
<path d="M334.65 487.02H301.98V490.65H334.65V487.02Z" fill="#E6E8EC"/>
<path d="M324.97 493.07H301.98V496.7H324.97V493.07Z" fill="#E6E8EC"/>
<path d="M334.65 499.12H301.98V502.75H334.65V499.12Z" fill="#E6E8EC"/>
<path d="M334.64 505.17H267.49V508.8H334.64V505.17Z" fill="#E6E8EC"/>
<path d="M334.64 511.22H267.49V514.85H334.64V511.22Z" fill="#E6E8EC"/>
<path d="M334.64 517.27H267.49V520.9H334.64V517.27Z" fill="#E6E8EC"/>
<path d="M329.2 523.32H267.49V526.95H329.2V523.32Z" fill="#E6E8EC"/>
<path d="M334.64 529.37H267.49V533H334.64V529.37Z" fill="#E6E8EC"/>
<path d="M334.64 535.42H267.49V539.05H334.64V535.42Z" fill="#E6E8EC"/>
<path d="M434.76 481.57H351.28V544.49H434.76V481.57Z" fill="white"/>
<path opacity="0.2" d="M387.28 487.02H359.45V502.75H387.28V487.02Z" fill="#EF5B59"/>
<path d="M426.6 487.02H393.93V490.65H426.6V487.02Z" fill="#E6E8EC"/>
<path d="M416.92 493.07H393.93V496.7H416.92V493.07Z" fill="#E6E8EC"/>
<path d="M426.6 499.12H393.93V502.75H426.6V499.12Z" fill="#E6E8EC"/>
<path d="M426.6 505.17H359.45V508.8H426.6V505.17Z" fill="#E6E8EC"/>
<path d="M426.6 511.22H359.45V514.85H426.6V511.22Z" fill="#E6E8EC"/>
<path d="M426.6 517.27H359.45V520.9H426.6V517.27Z" fill="#E6E8EC"/>
<path d="M421.16 523.32H359.45V526.95H421.16V523.32Z" fill="#E6E8EC"/>
<path d="M426.6 529.37H359.45V533H426.6V529.37Z" fill="#E6E8EC"/>
<path d="M426.6 535.42H359.45V539.05H426.6V535.42Z" fill="#E6E8EC"/>
<path d="M250.85 552.35H167.37V615.27H250.85V552.35Z" fill="white"/>
<path opacity="0.2" d="M203.37 557.8H175.54V573.53H203.37V557.8Z" fill="#EF5B59"/>
<path d="M242.69 557.8H210.02V561.43H242.69V557.8Z" fill="#E6E8EC"/>
<path d="M233.01 563.85H210.02V567.48H233.01V563.85Z" fill="#E6E8EC"/>
<path d="M242.69 569.9H210.02V573.53H242.69V569.9Z" fill="#E6E8EC"/>
<path d="M242.69 575.95H175.54V579.58H242.69V575.95Z" fill="#E6E8EC"/>
<path d="M242.69 582H175.54V585.63H242.69V582Z" fill="#E6E8EC"/>
<path d="M242.69 588.05H175.54V591.68H242.69V588.05Z" fill="#E6E8EC"/>
<path d="M237.25 594.1H175.54V597.73H237.25V594.1Z" fill="#E6E8EC"/>
<path d="M242.69 600.15H175.54V603.78H242.69V600.15Z" fill="#E6E8EC"/>
<path d="M242.69 606.2H175.54V609.83H242.69V606.2Z" fill="#E6E8EC"/>
<path d="M342.81 552.35H259.33V615.27H342.81V552.35Z" fill="white"/>
<path opacity="0.2" d="M295.32 557.8H267.49V573.53H295.32V557.8Z" fill="#EF5B59"/>
<path d="M334.65 557.8H301.98V561.43H334.65V557.8Z" fill="#E6E8EC"/>
<path d="M324.97 563.85H301.98V567.48H324.97V563.85Z" fill="#E6E8EC"/>
<path d="M334.65 569.9H301.98V573.53H334.65V569.9Z" fill="#E6E8EC"/>
<path d="M334.64 575.95H267.49V579.58H334.64V575.95Z" fill="#E6E8EC"/>
<path d="M334.64 582H267.49V585.63H334.64V582Z" fill="#E6E8EC"/>
<path d="M334.64 588.05H267.49V591.68H334.64V588.05Z" fill="#E6E8EC"/>
<path d="M329.2 594.1H267.49V597.73H329.2V594.1Z" fill="#E6E8EC"/>
<path d="M334.64 600.15H267.49V603.78H334.64V600.15Z" fill="#E6E8EC"/>
<path d="M334.64 606.2H267.49V609.83H334.64V606.2Z" fill="#E6E8EC"/>
<path opacity="0.1" d="M434.76 552.35H351.28V615.27H434.76V552.35Z" fill="black"/>
<path d="M227.12 387.5H82.32C80.4394 387.496 78.5766 387.863 76.8377 388.579C75.0988 389.295 73.5179 390.346 72.1854 391.673C70.8529 393 69.7948 394.576 69.0715 396.312C68.3482 398.048 67.9739 399.91 67.97 401.79V718.88C67.9739 720.761 68.3482 722.622 69.0715 724.358C69.7948 726.094 70.8529 727.67 72.1854 728.997C73.5179 730.324 75.0988 731.375 76.8377 732.091C78.5766 732.807 80.4394 733.174 82.32 733.17H227.12C229 733.174 230.863 732.807 232.602 732.091C234.341 731.375 235.922 730.324 237.255 728.997C238.587 727.67 239.645 726.094 240.368 724.358C241.092 722.622 241.466 720.761 241.47 718.88V401.8C241.467 399.919 241.094 398.056 240.371 396.319C239.649 394.582 238.591 393.005 237.258 391.677C235.925 390.349 234.344 389.296 232.605 388.58C230.865 387.863 229.001 387.496 227.12 387.5Z" fill="url(#paint2_linear)"/>
<path d="M229.15 390.16H80.3C74.2249 390.16 69.3 395.085 69.3 401.16V720.86C69.3 726.935 74.2249 731.86 80.3 731.86H229.15C235.225 731.86 240.15 726.935 240.15 720.86V401.16C240.15 395.085 235.225 390.16 229.15 390.16Z" fill="#535461"/>
<path d="M227.56 421.94H81.8799V700.06H227.56V421.94Z" fill="#F1F1F4"/>
<path d="M137.5 407.37C138.229 407.37 138.82 406.779 138.82 406.05C138.82 405.321 138.229 404.73 137.5 404.73C136.771 404.73 136.18 405.321 136.18 406.05C136.18 406.779 136.771 407.37 137.5 407.37Z" fill="white"/>
<path d="M172.27 404.72H145.13C144.578 404.72 144.13 405.167 144.13 405.72V406.37C144.13 406.922 144.578 407.37 145.13 407.37H172.27C172.822 407.37 173.27 406.922 173.27 406.37V405.72C173.27 405.167 172.822 404.72 172.27 404.72Z" fill="white"/>
<path d="M154.06 722.58C159.18 722.58 163.33 718.43 163.33 713.31C163.33 708.19 159.18 704.04 154.06 704.04C148.94 704.04 144.79 708.19 144.79 713.31C144.79 718.43 148.94 722.58 154.06 722.58Z" fill="white"/>
<path opacity="0.1" d="M204.39 438.59H105.05V513.46H204.39V438.59Z" fill="black"/>
<path d="M204.39 522.82H105.05V597.69H204.39V522.82Z" fill="white"/>
<path opacity="0.2" d="M147.88 529.3H114.77V548.02H147.88V529.3Z" fill="#EF5B59"/>
<path d="M194.67 529.3H155.8V533.62H194.67V529.3Z" fill="#E6E8EC"/>
<path d="M183.16 536.5H155.8V540.82H183.16V536.5Z" fill="#E6E8EC"/>
<path d="M194.67 543.69H155.8V548.01H194.67V543.69Z" fill="#E6E8EC"/>
<path d="M194.68 550.89H114.77V555.21H194.68V550.89Z" fill="#E6E8EC"/>
<path d="M194.68 558.09H114.77V562.41H194.68V558.09Z" fill="#E6E8EC"/>
<path d="M194.68 565.29H114.77V569.61H194.68V565.29Z" fill="#E6E8EC"/>
<path d="M188.2 572.49H114.77V576.81H188.2V572.49Z" fill="#E6E8EC"/>
<path d="M194.68 579.69H114.77V584.01H194.68V579.69Z" fill="#E6E8EC"/>
<path d="M194.68 586.89H114.77V591.21H194.68V586.89Z" fill="#E6E8EC"/>
<path d="M204.39 607.22H105.05V682.09H204.39V607.22Z" fill="white"/>
<path opacity="0.2" d="M147.88 613.7H114.77V632.42H147.88V613.7Z" fill="#EF5B59"/>
<path d="M194.67 613.7H155.8V618.02H194.67V613.7Z" fill="#E6E8EC"/>
<path d="M183.16 620.9H155.8V625.22H183.16V620.9Z" fill="#E6E8EC"/>
<path d="M194.67 628.1H155.8V632.42H194.67V628.1Z" fill="#E6E8EC"/>
<path d="M194.68 635.3H114.77V639.62H194.68V635.3Z" fill="#E6E8EC"/>
<path d="M194.68 642.5H114.77V646.82H194.68V642.5Z" fill="#E6E8EC"/>
<path d="M194.68 649.7H114.77V654.02H194.68V649.7Z" fill="#E6E8EC"/>
<path d="M188.2 656.9H114.77V661.22H188.2V656.9Z" fill="#E6E8EC"/>
<path d="M194.68 664.09H114.77V668.41H194.68V664.09Z" fill="#E6E8EC"/>
<path d="M194.68 671.29H114.77V675.61H194.68V671.29Z" fill="#E6E8EC"/>
<path d="M543.66 642.59C536.94 634.44 528.8 625.07 529.94 614.22C530.86 605.43 528.65 597.31 529.09 588.5C529.71 575.98 527.18 566.17 518.16 558.14C512.89 553.45 504.08 549.76 501.46 550.7C496.26 552.56 490.59 551.85 485.24 553.1C481.18 554.1 478.47 555.51 476.8 557.34C473.43 560.34 473.37 564.6 474.91 569.15C473.565 571.608 472.754 574.321 472.528 577.113C472.302 579.905 472.667 582.714 473.599 585.355C474.531 587.997 476.01 590.413 477.938 592.445C479.866 594.477 482.201 596.08 484.79 597.15C481.04 598.71 477.79 602.32 476.54 609.64C475.651 614.67 474.312 619.609 472.54 624.4C471.746 624.778 470.931 625.112 470.1 625.4C470.28 625.47 470.47 625.52 470.66 625.59C470.27 625.74 469.87 625.89 469.48 626.03C470.199 626.309 470.942 626.523 471.7 626.67C468.972 633.751 465.306 640.434 460.8 646.54C460.8 646.54 449.48 649.04 445.08 644.67C445.08 644.67 445.8 645.51 446.77 646.77C442.46 644.98 435.4 642.07 429.36 639.67C424.98 637.93 423.85 639.67 423.91 642.09C422.833 642.215 421.793 642.555 420.85 643.09C419.555 642.259 418.198 641.53 416.79 640.91C414.27 640.29 406.1 635.91 397.92 650.91C393.16 659.64 380.92 675.56 371.57 687.35C353.32 695.74 329.57 706.35 320.75 709.04H315.11C314.37 707.83 313.85 707.04 313.85 707.04L313.41 707.33L313.22 707.04C313.22 707.04 302.11 714.73 290.83 714.79C289.225 714.764 287.628 714.556 286.07 714.17C280.88 712.86 277.23 712.28 274.62 712.33C271.53 712.28 269.78 713.01 268.69 714.39C268.548 714.571 268.418 714.762 268.3 714.96C268.179 715.164 268.069 715.374 267.97 715.59C267.87 715.81 267.78 716.04 267.69 716.28C267.655 716.49 267.669 716.706 267.729 716.91C267.79 717.115 267.896 717.302 268.04 717.46C268.19 717.677 268.354 717.884 268.53 718.08L268.84 718.42C271.074 720.5 273.494 722.371 276.07 724.01C277 724.64 277.98 725.28 279.01 725.94L280.96 727.18L282.7 728.27L283.4 728.7L284.18 729.18L285.57 730.03L286.4 730.53L287.96 731.46L289.22 732.21C292.52 734.21 295.82 736.05 298.78 737.72L300.86 738.89L301.06 739L302.39 739.74L304.7 741.02L306.29 741.89L307.03 742.3L307.83 742.73L307.99 742.82L309.37 743.57C309.654 743.617 309.945 743.602 310.223 743.526C310.501 743.45 310.759 743.315 310.98 743.13C311.38 741.43 312.36 737.79 313.4 737.51C314.44 737.23 318.98 729.27 320.27 723.97H332.54C334.952 723.767 337.347 723.403 339.71 722.88C336.54 725.14 333.4 726.56 330.96 725.95C325.8 724.67 320.91 727.81 320.42 730.95L320.36 731.14C320.36 731.2 320.36 731.27 320.36 731.33C320.36 731.39 320.36 731.48 320.36 731.56C320.36 731.64 320.36 731.69 320.36 731.75C320.36 731.81 320.36 731.9 320.36 731.98C320.36 732.06 320.36 732.11 320.36 732.17C320.36 732.23 320.36 732.33 320.36 732.4C320.36 732.47 320.36 732.52 320.36 732.58C320.36 732.64 320.36 732.75 320.42 732.83C320.48 732.91 320.42 732.94 320.42 732.99C320.457 733.099 320.5 733.206 320.55 733.31V733.39C320.618 733.522 320.695 733.649 320.78 733.77L320.88 733.9L321.08 734.15L321.22 734.29L321.45 734.51L321.62 734.65L321.89 734.85L322.09 734.98L322.42 735.17L322.64 735.29L323.05 735.48L323.26 735.57C323.48 735.66 323.71 735.75 323.96 735.83C324.21 735.91 324.82 736.09 325.35 736.22L325.88 736.35L326.65 736.53L327.06 736.62L328.74 736.96L329.56 737.11L330.23 737.23L331.77 737.5L334.77 737.99L337.42 738.39L340.87 738.88L341.63 738.98L342.87 739.15L344.65 739.39L345.87 739.55L349.02 739.95L350.02 740.07L352.02 740.31C354.63 740.62 357.16 740.92 359.48 741.18L362.17 741.48L363.53 741.63L364.11 741.69L365.74 741.87L366.65 741.97L367.76 742.09L369.33 742.25H369.5L370.5 742.35C370.625 742.362 370.751 742.349 370.871 742.31C370.991 742.271 371.101 742.208 371.195 742.124C371.289 742.041 371.365 741.938 371.417 741.824C371.47 741.71 371.498 741.586 371.5 741.46C371.5 741.46 371.5 741.39 371.5 741.36C371.595 741.218 371.647 741.051 371.65 740.88C371.675 739.384 371.863 737.895 372.21 736.44C372.28 736.19 372.36 735.93 372.44 735.68L372.54 735.39C372.65 735.08 372.76 734.77 372.89 734.45C372.979 734.224 373.056 733.994 373.12 733.76L373.18 733.54C373.18 733.42 373.24 733.29 373.27 733.16C374.54 728.84 373.01 720.79 372.57 717.63C372.432 716.611 372.201 715.607 371.88 714.63C371.96 714.638 372.04 714.638 372.12 714.63C372.772 714.387 373.385 714.05 373.94 713.63C383.21 710.32 391.04 706.54 393.51 702.75C397.528 701.68 401.799 702.125 405.51 704C410.31 706.39 446.64 718.24 463.56 723.72C466.56 726.34 468.98 727.87 470.29 727.72C470.29 727.72 491.82 731.2 500.48 724.4C501.25 724.93 501.73 725.22 501.73 725.22C501.73 725.22 514.31 718.97 516.2 710.85C516.81 708.22 517.36 704.33 517.92 700.03C520.841 697.089 522.483 693.115 522.49 688.97C522.88 675.32 528.17 659.73 532.09 645.84C536.85 646.21 538.69 645.32 543.09 643.16L542.9 642.91L543.66 642.59ZM471.54 663.03L469.14 662.22C469.953 661.134 470.653 659.968 471.23 658.74L471.54 663.03ZM458 668.77L472.58 677.52L472.71 679.3C472.532 680.654 472.572 682.028 472.83 683.37C466.41 677.66 458.89 670.73 458.01 668.77H458ZM452.05 656.03C450.46 655.37 449.14 654.78 448.24 654.29L451.62 654.5C451.82 654.993 451.968 655.506 452.06 656.03H452.05ZM413.05 670.28C413.05 670.28 415.57 664.66 421.23 674.03C422.11 675.49 423.73 677.8 425.87 680.68L409.41 678.47C411.12 675.991 412.348 673.213 413.03 670.28H413.05Z" fill="url(#paint3_linear)"/>
<path d="M449.26 647.69C449.26 647.69 437.72 642.83 428.62 639.19C419.52 635.55 424.98 647.69 424.98 647.69C424.98 647.69 440.16 651.94 440.16 652.55C440.16 653.16 452.91 653.76 452.91 653.76L449.26 647.69Z" fill="#F7C4A7"/>
<path opacity="0.05" d="M449.26 647.69C449.26 647.69 437.72 642.83 428.62 639.19C419.52 635.55 424.98 647.69 424.98 647.69C424.98 647.69 440.16 651.94 440.16 652.55C440.16 653.16 452.91 653.76 452.91 653.76L449.26 647.69Z" fill="black"/>
<path d="M498.41 599.73C498.41 599.73 477.77 588.8 474.12 610.05C471.848 622.987 466.667 635.238 458.97 645.88C458.97 645.88 448.04 648.31 443.79 644.06C443.79 644.06 454.11 656.2 449.25 657.42C449.25 657.42 460.18 665.31 465.04 662.88C469.9 660.45 473.54 644.06 475.36 639.81C477.18 635.56 483.86 598.51 498.41 599.73Z" fill="#575988"/>
<path opacity="0.1" d="M498.41 599.73C498.41 599.73 477.77 588.8 474.12 610.05C471.848 622.987 466.667 635.238 458.97 645.88C458.97 645.88 448.04 648.31 443.79 644.06C443.79 644.06 454.11 656.2 449.25 657.42C449.25 657.42 460.18 665.31 465.04 662.88C469.9 660.45 473.54 644.06 475.36 639.81C477.18 635.56 483.86 598.51 498.41 599.73Z" fill="black"/>
<path d="M486.9 592.44C486.9 592.44 499.65 607.01 500.26 619.15C500.87 631.29 514.83 606.4 516.05 605.79C517.27 605.18 503.9 584.55 502.68 577.88C501.46 571.21 486.9 592.44 486.9 592.44Z" fill="#F7C4A7"/>
<path d="M495.7 598.67L487.66 605.95L491.45 621.28L501.77 611.57L500.56 601.86L495.7 598.67Z" fill="#F7C4A7"/>
<path d="M327.83 706.59H313.87L319.33 719.94L332.69 716.3L327.83 706.59Z" fill="#F7C4A7"/>
<path opacity="0.1" d="M317.09 704.66C317.09 704.66 302.65 714.73 290.28 711.59C277.91 708.45 274.57 709.59 273.13 713.68C271.8 717.4 307.64 737.09 313.35 740.2C313.44 740.26 313.544 740.296 313.651 740.306C313.759 740.316 313.867 740.298 313.966 740.256C314.066 740.213 314.153 740.146 314.22 740.062C314.287 739.977 314.332 739.877 314.35 739.77C314.74 738.12 315.68 734.58 316.68 734.31C317.99 733.96 323.98 722.79 323.68 718.38C323.38 713.97 317.09 704.66 317.09 704.66Z" fill="black"/>
<path d="M316.49 704.66C316.49 704.66 302.05 714.73 289.68 711.59C277.31 708.45 273.97 709.59 272.53 713.68C271.2 717.4 307.04 737.09 312.75 740.2C312.84 740.26 312.944 740.296 313.051 740.306C313.159 740.316 313.267 740.298 313.366 740.256C313.466 740.213 313.553 740.146 313.62 740.062C313.687 739.977 313.731 739.877 313.75 739.77C314.14 738.12 315.08 734.58 316.08 734.31C317.39 733.96 323.38 722.79 323.08 718.38C322.78 713.97 316.49 704.66 316.49 704.66Z" fill="#F3B5B7"/>
<path d="M435.9 680.479L395.22 675.02C395.22 675.02 329.04 706.59 321.15 707.2L322.97 721.2H335.11C339.97 721.2 387.32 710.88 394 700.56C397.864 699.53 401.973 699.961 405.54 701.77C411.61 704.77 469.9 723.63 469.9 723.63L435.9 680.479Z" fill="#575988"/>
<path opacity="0.1" d="M435.9 680.479L395.22 675.02C395.22 675.02 329.04 706.59 321.15 707.2L322.97 721.2H335.11C339.97 721.2 387.32 710.88 394 700.56C397.864 699.53 401.973 699.961 405.54 701.77C411.61 704.77 469.9 723.63 469.9 723.63L435.9 680.479Z" fill="black"/>
<path d="M363.65 699.3L356.97 707.8L363.65 711.44L373.37 704.16L363.65 699.3Z" fill="#F7C4A7"/>
<path d="M479.61 689.58C479.61 689.58 457.77 670.88 456.24 667.48C454.71 664.08 418.9 641.02 416.47 640.41C414.04 639.8 406.15 635.55 398.26 650.12C390.37 664.69 361.26 699.9 361.26 699.9C361.26 699.9 370.37 712.65 373.4 712.04C376.43 711.43 410.4 682.9 412.86 668.93C412.86 668.93 415.29 663.47 420.75 672.57C426.21 681.67 461.43 725.39 468.11 724.78C468.11 724.78 494.22 729.03 499.68 718.71C505.14 708.39 479.61 689.58 479.61 689.58Z" fill="#575988"/>
<path d="M473.48 591.56H382.57V660.07H473.48V591.56Z" fill="url(#paint4_linear)"/>
<path d="M469.76 594.35H386.28V657.27H469.76V594.35Z" fill="white"/>
<path opacity="0.2" d="M422.28 599.8H394.45V615.53H422.28V599.8Z" fill="#EF5B59"/>
<path d="M461.6 599.8H428.93V603.43H461.6V599.8Z" fill="#E6E8EC"/>
<path d="M451.92 605.85H428.93V609.48H451.92V605.85Z" fill="#E6E8EC"/>
<path d="M461.6 611.9H428.93V615.53H461.6V611.9Z" fill="#E6E8EC"/>
<path d="M461.6 617.95H394.45V621.58H461.6V617.95Z" fill="#E6E8EC"/>
<path d="M461.6 624H394.45V627.63H461.6V624Z" fill="#E6E8EC"/>
<path d="M461.6 630.05H394.45V633.68H461.6V630.05Z" fill="#E6E8EC"/>
<path d="M456.16 636.1H394.45V639.73H456.16V636.1Z" fill="#E6E8EC"/>
<path d="M461.6 642.15H394.45V645.78H461.6V642.15Z" fill="#E6E8EC"/>
<path d="M461.6 648.2H394.45V651.83H461.6V648.2Z" fill="#E6E8EC"/>
<path d="M492.06 600.64C492.06 600.64 484.47 603.98 483.86 617.94C483.25 631.9 469.86 655.58 469.86 655.58L471.07 683.51C471.07 683.51 485.64 698.08 486.86 707.19C488.08 716.3 498.41 722.37 498.41 722.37C498.41 722.37 510.55 716.3 512.41 708.37C514.27 700.44 515.41 681.05 518.48 673.76C521.55 666.47 519.69 620.94 519.69 620.94L510.58 605.15L505.72 599.69L492.97 614.26C492.97 614.26 485.99 604.88 492.06 600.64Z" fill="#F3B5B7"/>
<path opacity="0.1" d="M474.15 674.4C474.15 674.4 472.33 652.54 477.79 647.69L488.72 616.69C488.72 616.69 492.67 601.82 492.06 600.6C491.45 599.38 477.79 612.44 477.79 612.44L468.68 644.62L471.11 678.62L474.15 674.4Z" fill="black"/>
<path d="M473.54 674.4C473.54 674.4 471.72 652.54 477.18 647.69L488.11 616.69C488.11 616.69 492.36 601.51 491.75 600.3C491.14 599.09 477.18 612.44 477.18 612.44L468.07 644.62L470.5 678.62L473.54 674.4Z" fill="#575988"/>
<path d="M477.79 664.69C477.79 664.69 447.41 654.98 445.61 652.55C443.81 650.12 424.36 634.34 417.68 645.26C411 656.18 442.57 659.26 442.57 659.26L474.75 678.69L477.79 664.69Z" fill="#F7C4A7"/>
<path opacity="0.1" d="M364.96 707.74L355.96 706.12C355.96 706.12 341.24 724.97 333.58 723.06C325.92 721.15 318.86 729.4 326.96 732.06C334.28 734.45 365.87 737.8 371.91 738.42C372.034 738.437 372.159 738.428 372.279 738.392C372.399 738.357 372.509 738.297 372.604 738.216C372.699 738.134 372.775 738.034 372.828 737.921C372.88 737.808 372.908 737.685 372.91 737.56C372.939 735.218 373.393 732.9 374.25 730.72C375.87 726.72 374.25 718.2 373.8 714.96C373.55 713.05 372.95 711.203 372.03 709.51L364.96 707.74Z" fill="black"/>
<path d="M364.82 708.33L355.82 706.71C355.82 706.71 341.12 725.57 333.41 723.65C325.7 721.73 318.69 729.99 326.79 732.65C334.11 735.04 365.7 738.39 371.74 739.01C371.864 739.027 371.989 739.018 372.109 738.982C372.229 738.947 372.339 738.887 372.434 738.805C372.529 738.724 372.605 738.624 372.658 738.511C372.71 738.398 372.738 738.275 372.74 738.15C372.769 735.808 373.223 733.49 374.08 731.31C375.7 727.31 374.08 718.79 373.63 715.55C373.38 713.64 372.78 711.792 371.86 710.1L364.82 708.33Z" fill="#F3B5B7"/>
<path opacity="0.1" d="M491.45 599.43C502.181 599.43 510.88 590.731 510.88 580C510.88 569.269 502.181 560.57 491.45 560.57C480.719 560.57 472.02 569.269 472.02 580C472.02 590.731 480.719 599.43 491.45 599.43Z" fill="black"/>
<path d="M489.63 599.43C500.361 599.43 509.06 590.731 509.06 580C509.06 569.269 500.361 560.57 489.63 560.57C478.899 560.57 470.2 569.269 470.2 580C470.2 590.731 478.899 599.43 489.63 599.43Z" fill="#F7C4A7"/>
<path d="M508.75 599.12C508.75 599.12 531.82 607.01 531.82 623.41C531.82 639.81 519.07 665.91 518.46 687.16C517.85 708.41 484.46 705.37 484.46 705.37C484.46 705.37 479.6 633.73 484.46 628.26C489.32 622.79 511.18 601.55 508.75 599.12Z" fill="#575988"/>
<path opacity="0.1" d="M504.5 633.12C504.5 633.12 496 670.76 475.96 664.12C475.96 664.12 465.64 679.3 472.96 685.98C472.96 685.98 490.57 690.23 502.1 678.69C513.63 667.15 522.11 662.88 523.93 648.88C525.75 634.88 526.93 615.49 520.93 617.31C514.93 619.13 504.5 633.12 504.5 633.12Z" fill="black"/>
<path d="M505.11 632.51C505.11 632.51 496.61 670.15 476.57 663.51C476.57 663.51 466.25 678.69 473.57 685.37C473.57 685.37 491.18 689.62 502.71 678.08C514.24 666.54 522.71 662.29 524.57 648.33C526.43 634.37 527.57 614.94 521.57 616.76C515.57 618.58 505.11 632.51 505.11 632.51Z" fill="#575988"/>
<path d="M374.6 729.36C374.6 729.42 374.6 729.48 374.54 729.53C374.106 730.566 373.771 731.641 373.54 732.74C373.68 732.26 373.85 731.74 374.05 731.29C374.306 730.67 374.491 730.023 374.6 729.36Z" fill="#DDDBE2"/>
<path d="M327.28 730.88C324.78 730.06 323.73 728.71 323.69 727.29C322.69 729.29 323.31 731.49 326.84 732.65C334.16 735.04 365.76 738.39 371.79 739.01C371.914 739.027 372.041 739.017 372.161 738.982C372.282 738.946 372.393 738.885 372.488 738.802C372.582 738.72 372.658 738.618 372.71 738.504C372.763 738.39 372.79 738.266 372.79 738.14C372.794 737.919 372.715 737.704 372.569 737.537C372.423 737.371 372.22 737.265 372 737.24C365.35 736.52 334.5 733.23 327.28 730.88Z" fill="#DDDBE2"/>
<path d="M273.36 712.61C273.515 712.163 273.713 711.731 273.95 711.32C273.294 711.983 272.804 712.792 272.52 713.68C271.19 717.4 307.03 737.08 312.74 740.2C312.831 740.258 312.934 740.292 313.041 740.3C313.147 740.309 313.255 740.291 313.353 740.249C313.452 740.206 313.538 740.141 313.606 740.057C313.673 739.974 313.719 739.875 313.74 739.77C313.774 739.63 313.76 739.483 313.703 739.352C313.645 739.22 313.546 739.11 313.42 739.04C307.08 735.58 272.04 716.29 273.36 712.61Z" fill="#DDDBE2"/>
<path d="M316.87 733.24C316.55 733.33 316.23 733.75 315.94 734.35H316.04C316.3 734.28 316.76 733.76 317.32 732.95C317.194 733.08 317.04 733.179 316.87 733.24Z" fill="#DDDBE2"/>
<path opacity="0.1" d="M486.93 597.1C485.22 600.87 484.86 605.1 483.6 609.1C482.373 612.972 480.268 616.508 477.449 619.433C474.63 622.357 471.174 624.591 467.35 625.96C473.66 628.48 481.1 625.4 485.98 620.3C490.86 615.2 493.71 608.41 496.45 601.81C503.53 606.57 502.67 617.51 505.04 626.03C506.062 629.736 507.867 633.18 510.334 636.128C512.801 639.077 515.872 641.461 519.34 643.12C522.796 644.672 526.552 645.437 530.34 645.361C534.127 645.285 537.85 644.369 541.24 642.68C534.75 634.76 525.51 623.9 526.61 613.36C527.5 604.82 521.37 598.3 521.8 589.74C522.4 577.58 517.8 571.43 509.05 563.63C503.96 559.07 511.97 552.63 505.41 554.52C502.83 555.26 500.11 552.52 497.58 553.41C492.58 555.21 487.09 554.53 481.93 555.74C455.1 562.02 489.41 591.59 486.93 597.1Z" fill="black"/>
<path d="M487.54 596.49C485.83 600.26 485.47 604.49 484.21 608.49C482.983 612.362 480.878 615.898 478.059 618.822C475.24 621.747 471.784 623.981 467.96 625.35C474.27 627.87 481.71 624.79 486.59 619.69C491.47 614.59 494.32 607.8 497.06 601.2C504.14 605.96 503.28 616.9 505.65 625.42C506.672 629.126 508.477 632.569 510.944 635.518C513.411 638.466 516.482 640.85 519.95 642.51C523.406 644.061 527.162 644.826 530.949 644.75C534.736 644.674 538.46 643.759 541.85 642.07C535.36 634.15 526.73 625.07 527.85 614.57C528.74 606.03 527.41 597.26 527.85 588.7C528.45 576.54 522.5 564.83 513.79 557.03C508.7 552.47 500.79 551.89 498.22 552.8C493.22 554.6 487.73 553.92 482.57 555.13C455.71 561.42 490.04 590.98 487.54 596.49Z" fill="#B96B6B"/>
<path d="M163.83 781.37C198.83 770.6 219.49 771.49 219.49 771.49L216.62 755.22C217.517 754.619 218.33 753.903 219.04 753.09C219.04 753.09 215.45 733.34 219.04 728.4C222.63 723.46 232.51 678.58 232.51 678.58V663.31C250.51 657.03 271.56 620.67 271.56 620.67L298.05 688.88C298.05 688.88 324.53 741.4 328.12 743.19C330.99 744.62 332.42 756.37 332.89 761.04L332.67 761.11C332.78 762.24 332.83 762.94 332.83 762.94L333.04 762.8V762.94C333.484 762.63 333.953 762.356 334.44 762.12C329.27 768.06 321.53 776.6 315.09 782.24C311.54 785.35 317.91 787.75 320.89 787.7C322.585 787.644 324.277 787.885 325.89 788.41C340.98 793.62 365.79 774.6 365.79 774.6L359.58 757.28C361.2 757.15 362.2 757.09 362.2 757.09C362.2 757.09 342 686.17 332.57 679.43C329.589 677.257 326.901 674.709 324.57 671.85C320.085 666.399 317.824 659.456 318.24 652.41L321.55 594.22C326.87 593.44 330.3 592.79 330.3 592.79C330.3 592.79 331.54 576.89 331.5 564.69C331.5 558.34 331.24 552.77 330.3 550.59C329.19 548.01 328.84 542.85 328.82 537.67C328.82 530.67 329.4 524.11 329.4 524.11C329.4 524.11 336.58 514.68 346.46 493.11C350.81 483.62 351.94 476.11 351.84 470.73C351.907 468.223 351.666 465.717 351.12 463.27C350.84 462.059 350.322 460.917 349.596 459.909C348.87 458.901 347.95 458.048 346.89 457.4C341.21 453.92 328.28 445.33 324.47 437.01C319.63 426.45 312.64 424.95 312.36 424.89L311.93 423.03C314.611 420.813 316.568 417.846 317.55 414.51C319.01 410.01 319.31 405.21 320.55 400.64C321.15 398.44 321.98 396.31 322.55 394.11C323.119 391.895 323.392 389.615 323.36 387.33C323.468 384 322.783 380.692 321.36 377.68C319.04 372.91 314.42 369.16 309.16 368.54C306.26 368.2 303.05 368.7 300.67 367.01C299.03 365.84 298.17 363.85 296.67 362.46C293.82 359.76 289.26 359.9 285.55 361.16C280.554 362.873 276.275 366.206 273.39 370.63C271.66 373.29 270.45 376.34 268.23 378.63C266.36 380.54 263.91 381.76 261.85 383.46C260.325 384.649 259.085 386.165 258.22 387.895C257.355 389.625 256.887 391.526 256.85 393.46C256.85 393.46 256.85 393.56 256.85 393.61C256.85 393.86 256.85 394.11 256.85 394.36C256.95 398.22 259.64 402.06 263.42 402.84C264.41 403.022 265.422 403.049 266.42 402.92C265.568 406.07 265.36 409.359 265.81 412.591C266.26 415.823 267.357 418.932 269.037 421.729C270.717 424.527 272.945 426.956 275.586 428.873C278.228 430.789 281.229 432.151 284.41 432.88C284.35 433.2 284.28 433.52 284.21 433.88H284.42C283.987 435.435 283.446 436.959 282.8 438.44H282.51L283.24 437.14L272.94 436.43C269.941 436.204 266.935 436.766 264.22 438.06C260.67 439.78 256.79 443.06 256.31 449.26C255.41 460.88 233.41 478.38 233.41 478.38C225.78 490.5 175.95 492.74 175.95 492.74C175.95 492.74 176.17 493.02 176.27 493.17L175.27 492.98L171.5 492.29C171.5 492.29 159.83 457.73 148.61 464.01C137.39 470.29 167.91 504.41 167.91 504.41L176.73 505L177.62 505.06C177.296 507.297 176.832 509.511 176.23 511.69C176.11 512.13 176.02 512.41 176 512.48C176 512.48 199.2 509.8 218.91 510.23H220.69L221.95 510.17C222.95 521 238.39 543.01 238.39 543.01L247.92 545.01L248.64 545.16C245.569 551.511 241.668 557.426 237.04 562.75L233.9 580.26L234.15 580.2L233.9 581.61C234.438 581.478 234.936 581.218 235.35 580.85C229.2 597.17 219 622.57 211.91 631.43C201.14 644.9 202.48 666.43 202.48 666.43C202.48 666.43 191.71 722.99 192.16 733.31C192.212 738.291 190.864 743.187 188.27 747.44C186.157 749.865 184.301 752.503 182.73 755.31C174.65 769.23 161.63 768.31 161.63 768.31C150.41 775.53 163.83 781.37 163.83 781.37ZM233.16 507.58L234.32 507.12L234.59 507.01L235.7 506.53L235.89 506.44L236.89 505.98L237.11 505.88L238.17 505.35L238.42 505.22L239.42 504.69H239.5L240.5 504.11L240.74 503.97L241.74 503.39L241.9 503.29L242.77 502.76L242.97 502.64L243.9 502.05L244.11 501.91L244.97 501.34L245.05 501.29L245.93 500.68L246.13 500.54L246.97 499.94L247.1 499.85L247.84 499.31L248 499.19L248.77 498.6L248.93 498.48L249.63 497.93H249.69L250.4 497.36L250.55 497.24L251.22 496.69L251.28 496.64L251.88 496.13L251.98 496.04L252.57 495.53L252.66 495.45L253.2 494.96L253.72 494.49L253.79 494.42L254.79 493.42L256.25 493.3C257.49 494.91 257.98 497.76 258.03 501.03C257.89 509.42 255.35 519.78 255.35 519.78C255.134 524.921 254.239 530.012 252.69 534.92C251.595 534.86 250.52 534.599 249.52 534.15C249.52 534.15 249.46 534.47 249.37 535.01L248.51 534.79L244.14 533.7C244.14 533.7 240.51 515.22 233.16 507.58Z" fill="url(#paint5_linear)"/>
<path d="M354.89 746.67L363.22 769.88C363.22 769.88 340.41 787.38 325.59 783.76C323.358 783.205 321.083 782.837 318.79 782.66C315.72 782.43 310.44 780.2 313.7 777.35C324.22 768.15 338.24 751.06 338.24 751.06L354.89 746.67Z" fill="#4F4D59"/>
<path d="M216.41 744.48L220.35 766.83C220.35 766.83 200.19 765.95 166.01 776.47C166.01 776.47 152.86 770.77 163.82 763.76C163.82 763.76 176.53 764.64 184.42 751.05C192.31 737.46 197.13 739.22 197.13 739.22L216.41 744.48Z" fill="#4F4D59"/>
<path d="M320.71 582.33L316.85 650.33C316.437 657.578 318.841 664.705 323.56 670.22C325.694 672.753 328.124 675.019 330.8 676.97C340 683.54 359.72 752.78 359.72 752.78C359.72 752.78 337.37 754.09 331.24 758.48C331.24 758.48 329.93 740.95 326.42 739.2C322.91 737.45 297.06 686.2 297.06 686.2L271.19 619.58C271.19 619.58 250.59 655.08 233.06 661.21V676.11C233.06 676.11 223.42 719.93 219.91 724.75C216.4 729.57 219.91 748.85 219.91 748.85C219.91 748.85 209.83 761.56 186.61 747.97C186.61 747.97 194.06 739.64 193.61 729.56C193.16 719.48 203.71 664.28 203.71 664.28C203.71 664.28 202.4 643.28 212.91 630.1C223.42 616.92 240.91 566.56 240.91 566.56L252.97 540.61L320.71 582.33Z" fill="#787C9C"/>
<g opacity="0.1">
<path opacity="0.1" d="M355.55 752.8C355.55 752.8 335.83 683.56 326.63 676.99C323.802 674.922 321.245 672.506 319.02 669.8C314.518 664.359 312.255 657.409 312.69 650.36L316.55 582.36L251.92 542.52L252.8 540.63L320.49 582.35L316.63 650.35C316.195 657.399 318.458 664.349 322.96 669.79C325.185 672.496 327.742 674.912 330.57 676.98C339.77 683.55 359.49 752.79 359.49 752.79C359.49 752.79 337.14 754.1 331.01 758.49C331.01 758.49 330.96 757.81 330.85 756.7C339.47 753.75 355.55 752.8 355.55 752.8Z" fill="black"/>
<path opacity="0.1" d="M215.76 748.879C215.76 748.879 212.25 729.599 215.76 724.779C219.27 719.959 228.91 676.139 228.91 676.139V661.239C246.44 655.099 267.04 619.609 267.04 619.609L268.57 623.559C262.63 632.979 246.78 656.369 232.86 661.239V676.139C232.86 676.139 223.22 719.959 219.71 724.779C216.2 729.599 219.71 748.879 219.71 748.879C219.71 748.879 214.82 755.029 204.02 754.199C212.07 753.509 215.76 748.879 215.76 748.879Z" fill="black"/>
</g>
<path d="M169.96 506.08L178.57 506.65L183.11 506.95V495.95L177.11 494.87L173.42 494.2C173.42 494.2 162.03 460.46 151.07 466.59C140.11 472.72 169.96 506.08 169.96 506.08Z" fill="#714B4F"/>
<path d="M308 415.81C308 415.81 313.7 437.72 315.45 451.31C317.2 464.9 274.7 453.94 274.7 453.94C274.7 453.94 290.91 434.22 281.7 423.7L308 415.81Z" fill="#714B4F"/>
<path d="M261.99 506.96L261.11 515.29L274.69 514.41L288.27 502.58L301.85 464.45L310.63 450.88L317.2 442.55L314.57 432.47C314.57 432.47 313.37 433.47 311.34 435.07C304.67 440.18 289.01 450.79 277.57 447.86C277.041 447.728 276.52 447.564 276.01 447.37L258.92 476.73L261.99 506.96Z" fill="#E6E6F0"/>
<path opacity="0.1" d="M311.07 429.88C311.07 429.88 318.07 431.19 322.9 441.71C326.61 449.8 339.12 458.14 344.71 461.57C345.776 462.222 346.7 463.081 347.428 464.096C348.157 465.111 348.674 466.261 348.95 467.48C350.08 472.48 350.51 481.78 344.37 495.18C334.73 516.18 327.72 525.42 327.72 525.42C327.72 525.42 325.97 546.42 328.6 552.59C331.23 558.76 328.6 592.47 328.6 592.47C328.6 592.47 282.6 601.23 267.25 592.47C251.9 583.71 254.1 549.88 254.1 549.88C254.1 549.88 239.64 580.58 234.41 581.46L237.41 564.37C237.41 564.37 254.5 545.96 255.41 522.3C255.41 522.3 260.67 500.83 256.29 495.13C256.29 495.13 182.23 501.27 177.85 496.01C177.85 496.01 226.49 493.82 233.94 482.01C233.94 482.01 255.41 464.92 256.29 453.53C256.418 451.393 257.089 449.325 258.239 447.519C259.388 445.713 260.979 444.23 262.86 443.21C265.841 441.515 269.261 440.752 272.68 441.02L282.58 441.7C282.58 441.7 265.5 471.88 266.41 475.88C267.32 479.88 265.53 511.81 265.53 511.81C265.53 511.81 285.25 469.3 294.01 464.48C302.77 459.66 312.82 439.88 312.82 439.88L311.07 429.88Z" fill="black"/>
<path opacity="0.1" d="M261.99 506.96L261.11 515.29L274.69 514.41L288.27 502.58L301.85 464.45L310.63 450.88L317.2 442.55L314.57 432.47C314.57 432.47 313.37 433.47 311.34 435.07L311.94 438.53C311.94 438.53 301.86 458.32 293.1 463.14C284.34 467.96 264.62 510.47 264.62 510.47C264.62 510.47 266.37 478.47 265.5 474.54C264.9 471.86 272.58 457.09 277.57 447.86C277.041 447.728 276.52 447.564 276.01 447.37L258.92 476.73L261.99 506.96Z" fill="black"/>
<path opacity="0.1" d="M178.57 506.66L183.11 506.96V495.96L177.11 494.88C179.22 497.68 179.15 502.54 178.57 506.66Z" fill="black"/>
<path d="M311.07 428.52C311.07 428.52 318.07 429.83 322.9 440.35C326.61 448.44 339.12 456.78 344.71 460.21C345.776 460.861 346.7 461.72 347.428 462.735C348.157 463.75 348.674 464.901 348.95 466.12C350.08 471.12 350.51 480.42 344.37 493.82C334.73 514.82 327.72 524.06 327.72 524.06C327.72 524.06 325.97 545.059 328.6 551.229C331.23 557.399 328.6 591.109 328.6 591.109C328.6 591.109 282.6 599.869 267.25 591.109C251.9 582.35 254.1 548.599 254.1 548.599C254.1 548.599 239.64 579.27 234.41 580.14L237.41 563.049C237.41 563.049 254.5 544.639 255.41 520.979C255.41 520.979 260.67 499.51 256.29 493.81C256.29 493.81 239.2 512.22 219.92 511.81C200.64 511.4 177.85 514 177.85 514C177.85 514 182.23 500 177.85 494.72C177.85 494.72 226.49 492.53 233.94 480.72C233.94 480.72 255.41 463.63 256.29 452.24C256.413 450.095 257.082 448.017 258.233 446.204C259.385 444.391 260.981 442.902 262.87 441.88C265.851 440.185 269.271 439.422 272.69 439.69L282.59 440.37C282.59 440.37 265.5 470.59 266.41 474.53C267.32 478.47 265.53 510.46 265.53 510.46C265.53 510.46 285.25 467.95 294.01 463.13C302.77 458.31 312.85 438.52 312.85 438.52L311.1 428.52" fill="#67647E"/>
<path opacity="0.1" d="M320.71 474.53C320.71 474.53 310.19 510.03 304.06 514.41C297.93 518.79 260.68 541.14 249.72 535.88C249.72 535.88 247.09 549.03 251.03 552.09C251.03 552.09 291.89 550.49 292.22 550.34C292.22 550.34 318.95 546.83 323.33 533.69C327.71 520.55 332.97 498.19 332.97 498.19L320.71 474.53Z" fill="black"/>
<path d="M264.62 514.63C265.465 514.63 266.15 513.65 266.15 512.44C266.15 511.23 265.465 510.25 264.62 510.25C263.775 510.25 263.09 511.23 263.09 512.44C263.09 513.65 263.775 514.63 264.62 514.63Z" fill="#BA7855"/>
<path d="M260.24 529.97C261.085 529.97 261.77 528.989 261.77 527.78C261.77 526.57 261.085 525.59 260.24 525.59C259.395 525.59 258.71 526.57 258.71 527.78C258.71 528.989 259.395 529.97 260.24 529.97Z" fill="#BA7855"/>
<g opacity="0.1">
<path opacity="0.1" d="M325.53 590.66C325.53 590.66 328.16 556.92 325.53 550.78C322.9 544.64 324.65 523.61 324.65 523.61C324.65 523.61 331.65 514.41 341.3 493.37C347.44 479.97 347 470.67 345.88 465.67C345.603 464.45 345.084 463.299 344.354 462.284C343.624 461.269 342.698 460.411 341.63 459.76C336.04 456.33 323.53 447.99 319.83 439.9C317.11 433.97 313.7 430.96 311.23 429.47L311.06 428.47C311.06 428.47 318.06 429.78 322.89 440.3C326.6 448.39 339.11 456.73 344.69 460.16C345.758 460.811 346.684 461.669 347.414 462.684C348.144 463.699 348.663 464.851 348.94 466.07C350.07 471.07 350.5 480.37 344.36 493.77C334.72 514.77 327.71 524.01 327.71 524.01C327.71 524.01 325.96 545.01 328.59 551.18C331.22 557.35 328.59 591.06 328.59 591.06C328.59 591.06 295.72 597.32 276.28 593.97C295.92 596.3 325.53 590.66 325.53 590.66Z" fill="black"/>
<path opacity="0.1" d="M266.41 474.53C267.01 477.23 266.41 493.11 265.92 502.83C263.8 507.16 262.47 510.02 262.47 510.02C262.47 510.02 264.22 478.02 263.35 474.09C262.52 470.34 277.91 442.84 279.44 440.09L282.63 440.31C282.63 440.31 265.5 470.59 266.41 474.53Z" fill="black"/>
<path opacity="0.1" d="M216.85 511.34C236.13 511.78 253.22 493.34 253.22 493.34C253.737 494.056 254.114 494.864 254.33 495.72C249.33 500.43 235.33 512.1 219.92 511.72C200.64 511.28 177.85 513.91 177.85 513.91C177.85 513.91 177.94 513.62 178.08 513.12C190.96 511.807 203.904 511.213 216.85 511.34Z" fill="black"/>
<path opacity="0.1" d="M251.03 548.149C251.03 548.149 250.85 550.889 250.95 554.999C246.39 563.999 238.09 579.519 234.38 580.139L235.03 576.539C241.41 568.529 251.03 548.149 251.03 548.149Z" fill="black"/>
</g>
<path d="M256.1 437.56H151.35V516.5H256.1V437.56Z" fill="url(#paint6_linear)"/>
<path d="M253.39 439.59H154.05V514.46H253.39V439.59Z" fill="white"/>
<path opacity="0.2" d="M196.88 446.07H163.77V464.79H196.88V446.07Z" fill="#EF5B59"/>
<path d="M243.67 446.07H204.8V450.39H243.67V446.07Z" fill="#E6E8EC"/>
<path d="M232.16 453.27H204.8V457.59H232.16V453.27Z" fill="#E6E8EC"/>
<path d="M243.67 460.47H204.8V464.79H243.67V460.47Z" fill="#E6E8EC"/>
<path d="M243.68 467.67H163.77V471.99H243.68V467.67Z" fill="#E6E8EC"/>
<path d="M243.68 474.87H163.77V479.19H243.68V474.87Z" fill="#E6E8EC"/>
<path d="M243.68 482.06H163.77V486.38H243.68V482.06Z" fill="#E6E8EC"/>
<path d="M237.2 489.26H163.77V493.58H237.2V489.26Z" fill="#E6E8EC"/>
<path d="M243.68 496.46H163.77V500.78H243.68V496.46Z" fill="#E6E8EC"/>
<path d="M243.68 503.66H163.77V507.98H243.68V503.66Z" fill="#E6E8EC"/>
<path d="M238.76 543.77L248.07 545.77L255.41 547.28L251.47 536.28L248.73 535.59L244.46 534.53C244.46 534.53 238.33 503.88 226.06 506.08C213.79 508.28 238.76 543.77 238.76 543.77Z" fill="#714B4F"/>
<path opacity="0.1" d="M248.07 545.73L255.41 547.28L251.47 536.28L248.73 535.59C248.117 538.933 247.895 542.336 248.07 545.73Z" fill="black"/>
<path d="M320.71 473.66C320.71 473.66 310.19 509.16 304.06 513.54C297.93 517.92 260.68 540.27 249.72 535.01C249.72 535.01 247.09 548.16 251.03 551.22C251.03 551.22 291.89 549.62 292.22 549.47C292.22 549.47 318.95 545.96 323.33 532.82C327.71 519.68 332.97 497.32 332.97 497.32L320.71 473.66Z" fill="#67647E"/>
<path opacity="0.1" d="M307.56 416.69C307.56 416.69 308.45 420.12 309.64 425.11C307.209 429.702 303.333 433.365 298.612 435.534C293.891 437.703 288.587 438.257 283.52 437.11C284.57 432.61 284.34 428.11 281.26 424.54L307.56 416.69Z" fill="black"/>
<path d="M289.16 436.85C302.227 436.85 312.82 426.257 312.82 413.19C312.82 400.123 302.227 389.53 289.16 389.53C276.093 389.53 265.5 400.123 265.5 413.19C265.5 426.257 276.093 436.85 289.16 436.85Z" fill="#714B4F"/>
<path opacity="0.1" d="M268.61 406.67C266.892 407.147 265.093 407.256 263.33 406.99C259.64 406.23 257.01 402.48 256.92 398.71C256.957 396.821 257.414 394.964 258.258 393.274C259.102 391.584 260.312 390.104 261.8 388.94C263.8 387.27 266.2 386.08 268.03 384.22C270.2 382.01 271.38 379.03 273.03 376.43C275.849 372.111 280.031 368.859 284.91 367.19C288.54 365.96 292.98 365.82 295.77 368.46C297.2 369.81 298.04 371.76 299.64 372.9C301.96 374.55 305.1 374.06 307.93 374.39C310.495 374.784 312.923 375.804 315.001 377.36C317.078 378.916 318.74 380.959 319.84 383.31C321.989 388.072 322.399 393.436 321 398.47C320.45 400.62 319.65 402.71 319.06 404.85C317.83 409.31 317.54 413.99 316.12 418.39C314.7 422.79 311.77 427.09 307.34 428.39C307.69 423.457 306.717 418.52 304.52 414.09C304.156 413.124 303.442 412.332 302.52 411.87C301.729 411.667 300.9 411.667 300.11 411.87C294.562 412.692 288.901 411.546 284.11 408.63C282.43 407.63 279.81 404.12 278.01 403.77C275.74 403.36 271.01 406.13 268.61 406.67Z" fill="black"/>
<path d="M268.61 405.79C266.892 406.267 265.093 406.376 263.33 406.11C259.64 405.35 257.01 401.6 256.92 397.83C256.957 395.941 257.414 394.084 258.258 392.394C259.102 390.704 260.312 389.224 261.8 388.06C263.8 386.39 266.2 385.2 268.03 383.34C270.2 381.13 271.38 378.15 273.03 375.55C275.849 371.232 280.031 367.979 284.91 366.31C288.54 365.08 292.98 364.94 295.77 367.58C297.2 368.93 298.04 370.88 299.64 372.02C301.96 373.67 305.1 373.18 307.93 373.51C310.495 373.904 312.923 374.924 315.001 376.48C317.078 378.036 318.74 380.079 319.84 382.43C321.989 387.192 322.399 392.556 321 397.59C320.45 399.74 319.65 401.83 319.06 403.97C317.83 408.43 317.54 413.11 316.12 417.51C314.7 421.91 311.77 426.21 307.34 427.51C307.69 422.577 306.717 417.64 304.52 413.21C304.156 412.245 303.442 411.452 302.52 410.99C301.729 410.787 300.9 410.787 300.11 410.99C294.562 411.813 288.901 410.666 284.11 407.75C282.43 406.75 279.81 403.24 278.01 402.89C275.74 402.48 271.01 405.26 268.61 405.79Z" fill="#503F43"/>
<path d="M86.1701 760.29C88.0028 758.795 89.3385 756.78 90.0001 754.51C90.5001 752.21 89.5201 749.46 87.3201 748.62C84.8601 747.68 82.2301 749.38 80.2401 751.11C78.2501 752.84 75.9601 754.8 73.3501 754.43C74.6915 753.214 75.6951 751.671 76.2629 749.952C76.8307 748.232 76.9434 746.395 76.5901 744.62C76.4772 743.884 76.1661 743.192 75.6901 742.62C74.3201 741.16 71.8501 741.79 70.2101 742.94C65.0101 746.6 63.5601 753.66 63.5301 760.02C63.0101 757.73 63.4501 755.34 63.4301 753.02C63.4101 750.7 62.7701 748.02 60.7901 746.8C59.5623 746.14 58.1834 745.812 56.7901 745.85C54.4501 745.76 51.8501 746 50.2501 747.71C48.2501 749.83 48.7801 753.4 50.5101 755.71C52.2401 758.02 54.8601 759.51 57.2801 761.13C59.2196 762.283 60.874 763.858 62.1201 765.74C62.2666 766 62.3872 766.275 62.4801 766.56H77.1101C80.3995 764.889 83.4472 762.779 86.1701 760.29Z" fill="#EF5B59"/>
<path d="M955.17 621.29C957.003 619.795 958.338 617.78 959 615.51C959.5 613.21 958.52 610.46 956.32 609.62C953.86 608.68 951.23 610.38 949.24 612.11C947.25 613.84 944.96 615.8 942.35 615.43C943.692 614.214 944.695 612.671 945.263 610.952C945.831 609.232 945.943 607.395 945.59 605.62C945.477 604.884 945.166 604.192 944.69 603.62C943.32 602.16 940.85 602.79 939.21 603.94C934.01 607.6 932.56 614.66 932.53 621.02C932.01 618.73 932.45 616.34 932.43 614.02C932.41 611.7 931.77 609.02 929.79 607.8C928.562 607.14 927.183 606.812 925.79 606.85C923.45 606.76 920.85 607 919.25 608.71C917.25 610.83 917.78 614.4 919.51 616.71C921.24 619.02 923.86 620.51 926.28 622.13C928.22 623.283 929.874 624.858 931.12 626.74C931.267 627 931.387 627.275 931.48 627.56H946.13C949.412 625.887 952.453 623.778 955.17 621.29Z" fill="#EF5B59"/>
<path d="M1085.15 320.69C1083.08 314.63 1080.09 306.95 1077.73 305.14C1077.59 305.025 1077.43 304.927 1077.26 304.85H1076.97V297.36L1071.39 298.25C1070.5 295.545 1069.83 292.773 1069.39 289.96C1069.93 290.499 1070.61 290.866 1071.36 291.015C1072.1 291.165 1072.88 291.09 1073.58 290.8C1073.49 290.65 1073.41 290.49 1073.33 290.33L1073.58 290.22C1072.7 288.671 1072.24 286.922 1072.23 285.14C1072.27 283.514 1072.53 281.9 1073 280.34C1074 276.89 1075.69 273.67 1076.63 270.2C1077.23 267.968 1077.51 265.662 1077.47 263.35C1077.5 259.432 1076.61 255.561 1074.87 252.05C1074.43 251.037 1073.74 250.149 1072.87 249.47C1072.08 249.035 1071.28 248.641 1070.45 248.29C1069.06 247.356 1067.87 246.165 1066.93 244.78C1062.97 239.953 1057.66 236.41 1051.68 234.6C1050.12 234.018 1048.43 233.883 1046.8 234.21C1043.05 235.21 1041.69 239.86 1038.65 242.3C1035.97 244.45 1032.29 244.67 1028.92 245.39C1025.55 246.11 1022.16 247.54 1019.86 250.14C1018.28 251.953 1017.41 254.283 1017.43 256.69C1017.34 257.815 1017.54 258.944 1018 259.97C1018.47 260.996 1019.2 261.885 1020.11 262.55C1021.15 263.231 1022.32 263.673 1023.55 263.846C1024.78 264.019 1026.03 263.918 1027.22 263.55C1026.29 266.751 1026.04 270.109 1026.47 273.413C1026.9 276.717 1028.01 279.897 1029.73 282.751C1031.45 285.606 1033.74 288.074 1036.46 290.001C1039.18 291.928 1042.27 293.273 1045.53 293.95L1046.18 295.12C1048.19 298.862 1049.72 302.844 1050.72 306.97C1045.58 309.88 1039.97 312.61 1036.58 312.87C1036.44 314.196 1036.2 315.507 1035.84 316.79C1035.05 320.01 1033.52 323.004 1031.39 325.54C1026.78 330.72 1006.05 369.88 1006.05 369.88C1006.05 369.88 1005.4 371.44 1004.33 374.1C991.46 375.68 970.45 377.96 964.59 376.79L941.59 354.91C941.59 354.91 934.15 360.59 934.8 367.49L930.65 363.55C930.65 363.55 908.77 380.25 943.32 391.19L995.89 397.29C990.89 412.4 986.21 429.99 987.66 439.56H988.09C989.094 439.56 990.097 439.483 991.09 439.33L991 441.03L985.94 531.69C985.94 531.69 984.79 548.39 1000.34 555.87C1000.34 555.87 1019.34 611.72 1011.86 618.06C1011.86 618.06 1012.75 618.53 1014.25 619.18L998.62 633.03C998.62 633.03 987.1 635.91 980.77 635.33C979.658 635.178 978.528 635.44 977.596 636.067C976.665 636.694 975.997 637.642 975.72 638.73C975.72 638.85 975.72 638.97 975.66 639.09V639.24C975.66 639.36 975.66 639.48 975.66 639.61C975.66 639.74 975.66 639.7 975.66 639.75C975.66 639.8 975.66 639.96 975.66 640.07C975.66 640.18 975.66 640.16 975.66 640.2C975.66 640.24 975.66 640.45 975.73 640.57V640.71C975.763 640.844 975.807 640.977 975.86 641.11L975.91 641.23C975.96 641.36 976.02 641.49 976.09 641.62V641.71C976.16 641.84 976.24 641.96 976.32 642.09L976.39 642.2C976.483 642.334 976.587 642.467 976.7 642.6L976.79 642.7C976.91 642.84 977.04 642.97 977.17 643.1L977.23 643.15L977.66 643.52L977.75 643.59C977.91 643.72 978.09 643.84 978.27 643.96L978.39 644.04C978.58 644.16 978.78 644.28 978.99 644.39H979.08L979.73 644.71H979.82L980.58 645.01L980.74 645.07L981.57 645.34H981.71L982.62 645.58H982.69L983.69 645.78H983.89L984.97 645.94H985.18L986.4 646.06C988.77 646.24 991.96 646.31 995.65 646.29C995.65 646.29 995.65 646.38 995.65 646.43C995.65 646.48 995.65 646.64 995.65 646.75V646.88C995.65 647 995.65 647.13 995.72 647.25V647.39C995.753 647.524 995.797 647.657 995.85 647.79L995.9 647.91C995.95 648.04 996.01 648.17 996.08 648.3V648.39C996.15 648.52 996.23 648.64 996.31 648.77L996.38 648.88C996.473 649.014 996.577 649.147 996.69 649.28L996.78 649.38C996.9 649.52 997.03 649.65 997.16 649.78L997.22 649.83L997.65 650.2L997.74 650.27C997.9 650.4 998.08 650.52 998.26 650.64L998.39 650.72C998.58 650.84 998.78 650.96 998.99 651.07H999.08L999.73 651.39H999.82L1000.58 651.69L1000.74 651.75L1001.57 652.02H1001.71L1002.62 652.26H1002.69L1003.69 652.46H1003.89L1004.97 652.62H1005.18L1006.4 652.74C1021.4 653.89 1069.16 650.44 1069.16 650.44V650.31V650.14C1069.63 647.91 1071.93 634.95 1063.77 625.37C1064.01 625.12 1064.25 624.85 1064.47 624.57C1064.47 624.57 1058.14 613.63 1061.59 610.17C1065.04 606.71 1044.32 546.83 1044.32 546.83C1044.32 546.83 1033.38 529.56 1039.71 509.98C1046.04 490.4 1039.13 469.1 1039.13 469.1C1039.13 469.1 1054.23 464.61 1054.54 446.02C1054.54 445.46 1054.54 444.88 1054.54 444.29C1054.87 444.338 1055.21 444.358 1055.54 444.35C1055.75 444.366 1055.97 444.366 1056.18 444.35C1056.18 444.35 1053.3 433.99 1056.76 426.5C1060.22 419.01 1067.7 425.92 1074.61 395.41C1079.61 373.33 1084.01 347.93 1086.06 335.57C1086.95 330.609 1086.64 325.506 1085.15 320.69ZM953.74 385.46L948.49 380.46C950.23 381.18 952.16 381.89 954.32 382.57L974.12 384.87C965.28 385.69 957.07 386.13 953.74 385.47V385.46Z" fill="url(#paint7_linear)"/>
<path d="M1003.86 382.53C1003.86 382.53 963.13 388.19 954.64 386.53L932.01 365.03C932.01 365.03 910.51 381.44 944.46 392.18L1007.82 399.53L1003.86 382.53Z" fill="#FDC2CC"/>
<path opacity="0.05" d="M1003.86 382.53C1003.86 382.53 963.13 388.19 954.64 386.53L932.01 365.03C932.01 365.03 910.51 381.44 944.46 392.18L1007.82 399.53L1003.86 382.53Z" fill="black"/>
<path d="M1018.57 612.21L998.77 629.75C998.77 629.75 987.46 632.58 981.23 632.01C975 631.44 972.18 641.63 986.89 642.76C1001.6 643.89 1048.55 640.5 1048.55 640.5C1048.55 640.5 1053.08 622.4 1039.5 612.21H1018.57Z" fill="#47465A"/>
<path opacity="0.05" d="M1018.57 612.21L998.77 629.75C998.77 629.75 987.46 632.58 981.23 632.01C975 631.44 972.18 641.63 986.89 642.76C1001.6 643.89 1048.55 640.5 1048.55 640.5C1048.55 640.5 1053.08 622.4 1039.5 612.21H1018.57Z" fill="black"/>
<path opacity="0.3" d="M1049.26 632.66C1049.23 634.722 1048.99 636.775 1048.55 638.79C1048.55 638.79 1001.55 642.18 986.89 641.05C979.82 640.51 976.81 637.87 976.27 635.34C975.63 638.24 978.19 642.08 986.89 642.75C1001.6 643.88 1048.55 640.49 1048.55 640.49C1049.1 637.918 1049.34 635.289 1049.26 632.66Z" fill="white"/>
<path d="M1041.76 291.45C1041.76 291.45 1054.21 308.99 1049.68 320.87C1045.15 332.75 1073.41 308.42 1073.41 308.42C1073.41 308.42 1064.36 292.58 1068.88 275.61L1041.76 291.45Z" fill="#FDC2CC"/>
<path d="M1038.41 618.99L1018.61 636.53C1018.61 636.53 1007.3 639.36 1001.07 638.79C994.84 638.22 992.02 648.41 1006.73 649.54C1021.44 650.67 1068.39 647.28 1068.39 647.28C1068.39 647.28 1072.92 629.18 1059.34 618.99H1038.41Z" fill="#47465A"/>
<path d="M1044.03 615.03C1041.08 618.67 1036.92 620.03 1032.57 620.28C1022.68 620.75 1011.79 615.03 1011.79 615.03C1019.14 608.81 1000.48 553.93 1000.48 553.93C985.21 546.58 986.34 530.17 986.34 530.17L991.34 441.1L992.59 418.73L1008.43 409.11L1020.92 418.69L1032.76 427.78C1033.53 430.671 1034.03 433.627 1034.24 436.61C1035.61 457.4 1019.18 462.29 1019.18 462.29C1019.18 462.29 1025.97 483.22 1019.75 502.45C1013.53 521.68 1024.28 538.65 1024.28 538.65C1024.28 538.65 1044.65 597.48 1041.28 600.88C1037.91 604.28 1044.03 615.03 1044.03 615.03Z" fill="#565171"/>
<path opacity="0.05" d="M1044.03 615.03C1041.08 618.67 1036.92 620.03 1032.57 620.28C1022.68 620.75 1011.79 615.03 1011.79 615.03C1019.14 608.81 1000.48 553.93 1000.48 553.93C985.21 546.58 986.34 530.17 986.34 530.17L991.34 441.1L992.59 418.73L1008.43 409.11L1020.92 418.69L1032.76 427.78C1033.53 430.671 1034.03 433.627 1034.24 436.61C1035.61 457.4 1019.18 462.29 1019.18 462.29C1019.18 462.29 1025.97 483.22 1019.75 502.45C1013.53 521.68 1024.28 538.65 1024.28 538.65C1024.28 538.65 1044.65 597.48 1041.28 600.88C1037.91 604.28 1044.03 615.03 1044.03 615.03Z" fill="black"/>
<path d="M1063.83 621.82C1054.21 633.7 1031.59 621.82 1031.59 621.82C1032.05 621.402 1032.4 620.871 1032.59 620.28C1036.74 609 1018.59 555.07 1018.59 555.07C1003.32 547.72 1001.59 530.18 1001.59 530.18L997.59 439.53L997.07 427.79L1020.87 418.7L1028.18 415.91L1052.51 434.58C1053.56 438.435 1054.09 442.414 1054.07 446.41C1053.76 464.68 1038.93 469.09 1038.93 469.09C1038.93 469.09 1045.72 490.02 1039.5 509.25C1033.28 528.48 1044.03 545.45 1044.03 545.45C1044.03 545.45 1064.4 604.28 1061.03 607.68C1057.66 611.08 1063.83 621.82 1063.83 621.82Z" fill="#565171"/>
<path opacity="0.1" d="M1054.07 446.4C1049.18 445.7 1039.28 439.81 1034.19 436.61C1032.25 435.39 1031.01 434.61 1031.01 434.61C1031.01 434.61 1025.92 420.47 1012.34 431.22C1007.92 434.806 1002.94 437.625 997.59 439.56C995.544 440.284 993.435 440.813 991.29 441.14L992.54 418.77L1008.38 409.15L1020.87 418.73L1028.18 415.94L1052.51 434.61C1053.56 438.452 1054.08 442.418 1054.07 446.4Z" fill="black"/>
<path d="M1084.69 337.88C1082.69 350.02 1078.35 374.97 1073.44 396.67C1066.65 426.67 1059.3 419.86 1055.9 427.22C1052.5 434.58 1055.33 444.76 1055.33 444.76C1049.67 445.33 1031 432.88 1031 432.88C1031 432.88 1025.91 418.74 1012.33 429.49C998.75 440.24 988 439.67 988 439.67C985.17 421 1006.1 371.22 1006.1 371.22C1006.1 371.22 1026.47 332.75 1030.99 327.66C1033.09 325.167 1034.58 322.224 1035.36 319.06C1035.71 317.799 1035.95 316.511 1036.08 315.21C1043.43 314.64 1061.54 302.21 1061.54 302.21L1075.68 299.95V307.3C1075.84 307.374 1076 307.468 1076.14 307.58C1078.47 309.36 1081.4 316.91 1083.43 322.86C1085.08 327.687 1085.51 332.846 1084.69 337.88Z" fill="#F68080"/>
<path opacity="0.1" d="M1073.41 314.65C1073.41 314.65 1058.7 302.77 1036.64 341.24C1014.58 379.71 1009.49 373.48 1009.49 373.48C1009.49 373.48 1014.02 390.48 1011.75 393.85C1011.75 393.85 1027.02 392.72 1032.68 393.85C1038.34 394.98 1073.41 350.88 1073.41 350.88C1073.41 350.88 1091.55 325.96 1073.41 314.65Z" fill="black"/>
<path opacity="0.1" d="M1072.88 312.38C1072.88 312.38 1058.17 300.5 1036.11 338.97C1014.05 377.44 1008.96 371.21 1008.96 371.21C1008.96 371.21 1026.5 390.44 1032.15 391.58C1037.8 392.72 1072.88 348.58 1072.88 348.58C1072.88 348.58 1090.98 323.7 1072.88 312.38Z" fill="black"/>
<path opacity="0.1" d="M1011.26 390.17C1011.49 385.98 1009.91 378.61 1009 374.79C1012.44 374.34 1014.61 374.04 1014.61 374.04L1018.61 391.04L1011.26 390.17Z" fill="black"/>
<path opacity="0.1" d="M1069.48 276.75L1042.33 292.59C1043.47 294.26 1044.53 295.989 1045.49 297.77C1047.06 298.089 1048.65 298.25 1050.25 298.25C1057.5 298.25 1060.88 290.64 1065.25 285.52C1064.94 281.41 1068.27 281.3 1069.48 276.75Z" fill="black"/>
<path d="M1049.69 297.11C1062.81 297.11 1073.45 286.472 1073.45 273.35C1073.45 260.228 1062.81 249.59 1049.69 249.59C1036.57 249.59 1025.93 260.228 1025.93 273.35C1025.93 286.472 1036.57 297.11 1049.69 297.11Z" fill="#FDC2CC"/>
<path d="M1012.97 300.43H821.62V444.63H1012.97V300.43Z" fill="url(#paint8_linear)"/>
<path d="M1008.68 303.66H825.91V441.4H1008.68V303.66Z" fill="white"/>
<path opacity="0.2" d="M904.71 315.58H843.79V350.01H904.71V315.58Z" fill="#EF5B59"/>
<path d="M990.8 315.58H919.28V323.53H990.8V315.58Z" fill="#E6E8EC"/>
<path d="M969.61 328.83H919.28V336.78H969.61V328.83Z" fill="#E6E8EC"/>
<path d="M990.8 342.07H919.28V350.02H990.8V342.07Z" fill="#E6E8EC"/>
<path d="M990.8 355.31H843.79V363.26H990.8V355.31Z" fill="#E6E8EC"/>
<path d="M990.8 368.56H843.79V376.51H990.8V368.56Z" fill="#E6E8EC"/>
<path d="M990.8 381.8H843.79V389.75H990.8V381.8Z" fill="#E6E8EC"/>
<path d="M978.88 395.05H843.79V403H978.88V395.05Z" fill="#E6E8EC"/>
<path d="M990.8 408.29H843.79V416.24H990.8V408.29Z" fill="#E6E8EC"/>
<path d="M990.8 421.53H843.79V429.48H990.8V421.53Z" fill="#E6E8EC"/>
<path opacity="0.1" d="M1019.63 254.13C1022.03 251.671 1025.14 250.036 1028.53 249.46C1031.83 248.75 1035.45 248.53 1038.09 246.46C1041.09 244.07 1042.41 239.53 1046.09 238.52C1047.69 238.198 1049.35 238.329 1050.88 238.9C1056.76 240.673 1061.98 244.154 1065.88 248.9C1066.8 250.259 1067.97 251.431 1069.33 252.35C1070.14 252.694 1070.94 253.081 1071.71 253.51C1072.56 254.178 1073.22 255.048 1073.65 256.04C1076.3 261.396 1076.91 267.535 1075.37 273.31C1074.45 276.72 1072.79 279.88 1071.81 283.31C1070.83 286.74 1070.58 290.55 1072.38 293.58C1070.64 294.47 1068.44 293.35 1067.38 291.73C1066.32 290.11 1065.96 288.11 1065.38 286.24C1064.25 282.561 1062.13 279.265 1059.25 276.71C1057.47 275.13 1054.25 274.07 1053.04 276.11C1052.56 276.9 1052.59 277.9 1052.18 278.72C1051.37 280.32 1049.03 280.64 1047.48 279.72C1045.99 278.688 1044.94 277.131 1044.54 275.36C1042.21 267.48 1038.24 262.52 1029.81 265.89C1026.67 267.15 1022.97 268 1019.95 265.84C1016.01 262.99 1016.78 257.35 1019.63 254.13Z" fill="black"/>
<path d="M1019.63 253.56C1022.03 251.102 1025.14 249.467 1028.53 248.89C1031.83 248.18 1035.45 247.96 1038.09 245.89C1041.09 243.5 1042.41 238.96 1046.09 237.95C1047.69 237.629 1049.35 237.76 1050.88 238.33C1056.76 240.104 1061.98 243.585 1065.88 248.33C1066.8 249.69 1067.97 250.861 1069.33 251.78C1070.14 252.125 1070.94 252.512 1071.71 252.94C1072.56 253.609 1073.22 254.478 1073.65 255.47C1076.3 260.827 1076.91 266.966 1075.37 272.74C1074.45 276.15 1072.79 279.31 1071.81 282.74C1070.83 286.17 1070.58 289.98 1072.38 293.01C1070.64 293.9 1068.44 292.78 1067.38 291.16C1066.32 289.54 1065.96 287.54 1065.38 285.67C1064.25 281.992 1062.13 278.695 1059.25 276.14C1057.47 274.56 1054.25 273.5 1053.04 275.54C1052.56 276.33 1052.59 277.33 1052.18 278.15C1051.37 279.75 1049.03 280.07 1047.48 279.15C1045.99 278.119 1044.94 276.562 1044.54 274.79C1042.21 266.91 1038.24 261.95 1029.81 265.32C1026.67 266.58 1022.97 267.43 1019.95 265.27C1016.01 262.42 1016.78 256.79 1019.63 253.56Z" fill="#B96B6B"/>
<path opacity="0.05" d="M1076.17 307.58H1064.67C1064.67 307.58 1042.04 318.89 1041.48 318.33C1041.1 317.95 1037.6 318.6 1035.38 319.07C1035.73 317.809 1035.97 316.521 1036.1 315.22C1043.45 314.65 1061.56 302.22 1061.56 302.22L1075.7 299.96V307.31C1075.87 307.38 1076.03 307.471 1076.17 307.58Z" fill="black"/>
<path opacity="0.3" d="M1069.06 639.45C1069.03 641.512 1068.79 643.565 1068.35 645.58C1068.35 645.58 1021.35 648.97 1006.69 647.84C999.62 647.3 996.61 644.66 996.07 642.13C995.43 645.03 997.99 648.87 1006.69 649.54C1021.4 650.67 1068.35 647.28 1068.35 647.28C1068.9 644.708 1069.14 642.079 1069.06 639.45Z" fill="white"/>
<g opacity="0.05">
<path opacity="0.05" d="M1006.97 428.88C999.34 434.88 992.59 437.39 988.16 438.39C988.16 438.81 988.24 439.23 988.3 439.63C988.3 439.63 999.05 440.2 1012.63 429.45C1014.73 427.648 1017.22 426.348 1019.9 425.65C1016.94 424.28 1012.71 424.37 1006.97 428.88Z" fill="black"/>
<path opacity="0.05" d="M1083.75 322.88C1081.75 316.88 1078.75 309.38 1076.46 307.6C1076.32 307.488 1076.16 307.394 1076 307.32C1076 307.32 1071.32 307.48 1071.47 307.6C1073.8 309.38 1076.06 316.36 1078.09 322.31C1079.73 327.133 1080.15 332.285 1079.32 337.31C1077.32 349.45 1072.98 374.4 1068.07 396.1C1061.28 426.1 1053.93 419.29 1050.53 426.65C1047.75 432.65 1049.14 440.59 1049.74 443.26C1052.16 444.26 1054.26 444.89 1055.62 444.75C1055.62 444.75 1052.79 434.57 1056.19 427.21C1059.59 419.85 1066.94 426.64 1073.73 396.66C1078.64 374.97 1082.96 350.01 1084.98 337.87C1085.81 332.848 1085.38 327.7 1083.75 322.88Z" fill="black"/>
</g>
<path d="M1018.57 391.02L1011.26 390.17L955.26 383.66C921.32 372.91 942.81 356.51 942.81 356.51L965.44 378.01C971.97 379.32 997.57 376.27 1009.04 374.8C1012.48 374.35 1014.65 374.05 1014.65 374.05L1018.57 391.02Z" fill="#FDC2CC"/>
<path d="M1073.41 313.52C1073.41 313.52 1058.7 301.64 1036.64 340.11C1014.58 378.58 1009.49 372.35 1009.49 372.35C1009.49 372.35 1014.02 389.35 1011.75 392.72C1011.75 392.72 1027.02 391.59 1032.68 392.72C1038.34 393.85 1073.41 349.72 1073.41 349.72C1073.41 349.72 1091.55 324.83 1073.41 313.52Z" fill="#F68080"/>
</g>
<defs>
<linearGradient id="paint0_linear" x1="630.99" y1="597.24" x2="630.99" y2="112.86" gradientUnits="userSpaceOnUse">
<stop stop-color="#808080" stop-opacity="0.25"/>
<stop offset="0.54" stop-color="#808080" stop-opacity="0.12"/>
<stop offset="1" stop-color="#808080" stop-opacity="0.1"/>
</linearGradient>
<linearGradient id="paint1_linear" x1="119500" y1="333144" x2="119500" y2="137466" gradientUnits="userSpaceOnUse">
<stop stop-color="#808080" stop-opacity="0.25"/>
<stop offset="0.54" stop-color="#808080" stop-opacity="0.12"/>
<stop offset="1" stop-color="#808080" stop-opacity="0.1"/>
</linearGradient>
<linearGradient id="paint2_linear" x1="36730.3" y1="272876" x2="36730.3" y2="153388" gradientUnits="userSpaceOnUse">
<stop stop-color="#808080" stop-opacity="0.25"/>
<stop offset="0.54" stop-color="#808080" stop-opacity="0.12"/>
<stop offset="1" stop-color="#808080" stop-opacity="0.1"/>
</linearGradient>
<linearGradient id="paint3_linear" x1="127841" y1="154760" x2="127841" y2="117471" gradientUnits="userSpaceOnUse">
<stop stop-color="#808080" stop-opacity="0.25"/>
<stop offset="0.54" stop-color="#808080" stop-opacity="0.12"/>
<stop offset="1" stop-color="#808080" stop-opacity="0.1"/>
</linearGradient>
<linearGradient id="paint4_linear" x1="35162" y1="43465.8" x2="43426.6" y2="43465.8" gradientUnits="userSpaceOnUse">
<stop stop-color="#808080" stop-opacity="0.25"/>
<stop offset="0.54" stop-color="#808080" stop-opacity="0.12"/>
<stop offset="1" stop-color="#808080" stop-opacity="0.1"/>
</linearGradient>
<linearGradient id="paint5_linear" x1="-112210" y1="362656" x2="-112210" y2="178619" gradientUnits="userSpaceOnUse">
<stop stop-color="#808080" stop-opacity="0.25"/>
<stop offset="0.54" stop-color="#808080" stop-opacity="0.12"/>
<stop offset="1" stop-color="#808080" stop-opacity="0.1"/>
</linearGradient>
<linearGradient id="paint6_linear" x1="21491" y1="41210.1" x2="21491" y2="34978.5" gradientUnits="userSpaceOnUse">
<stop stop-color="#808080" stop-opacity="0.25"/>
<stop offset="0.54" stop-color="#808080" stop-opacity="0.12"/>
<stop offset="1" stop-color="#808080" stop-opacity="0.1"/>
</linearGradient>
<linearGradient id="paint7_linear" x1="173743" y1="297086" x2="173743" y2="121370" gradientUnits="userSpaceOnUse">
<stop stop-color="#808080" stop-opacity="0.25"/>
<stop offset="0.54" stop-color="#808080" stop-opacity="0.12"/>
<stop offset="1" stop-color="#808080" stop-opacity="0.1"/>
</linearGradient>
<linearGradient id="paint8_linear" x1="176347" y1="64416.1" x2="176347" y2="43622.4" gradientUnits="userSpaceOnUse">
<stop stop-color="#808080" stop-opacity="0.25"/>
<stop offset="0.54" stop-color="#808080" stop-opacity="0.12"/>
<stop offset="1" stop-color="#808080" stop-opacity="0.1"/>
</linearGradient>
<clipPath id="clip0">
<rect width="1086.82" height="789.35" fill="white"/>
</clipPath>
</defs>
</svg>
