<svg width="553" height="265" viewBox="0 0 553 265" fill="none" xmlns="http://www.w3.org/2000/svg">
<g clip-path="url(#clip0)">
<path opacity="0.1" d="M548.791 219.778C546.142 224.905 542.414 229.394 537.865 232.934C537.219 233.453 536.558 233.954 535.888 234.445C534.986 235.08 534.061 235.705 533.114 236.318C525.755 241.004 517.138 244.207 508.725 246.543C506.432 247.179 504.131 247.776 501.822 248.335C499.874 248.809 497.925 249.251 495.974 249.661C495.233 249.823 494.492 249.975 493.751 250.137C493.01 250.299 492.159 250.457 491.376 250.614L490.25 250.828C468.482 254.856 446.43 255.624 424.217 254.613L423.162 254.561L421.476 254.475C416.966 254.24 412.451 253.939 407.932 253.574L406.221 253.436L405.466 253.374C402.933 253.161 400.399 252.927 397.865 252.673C394.527 252.355 391.184 252.004 387.837 251.62L387.404 251.572L387.053 251.529C375.105 250.18 363.129 248.559 351.139 246.896L349.443 246.657L346.398 246.233L343.832 245.876L343.072 245.771C339.025 245.202 334.977 244.639 330.93 244.083L330.274 243.993C322.673 242.949 315.029 241.943 307.41 241.028L306.417 240.909C303.297 240.537 300.179 240.183 297.063 239.846L294.688 239.593L291.528 239.274C282.773 238.401 274.023 237.705 265.291 237.272C261.091 237.062 256.882 236.903 252.664 236.795C249.18 236.715 245.696 236.669 242.213 236.657C237.487 236.634 232.753 236.661 228.008 236.738H226.935C220.251 236.847 213.552 237.038 206.849 237.267L205.643 237.305H205.244C190.992 237.81 176.74 238.482 162.527 238.964L159.054 239.078H158.55C153.61 239.237 148.674 239.359 143.743 239.445H142.436H142.394H140.807L138.603 239.474C136.313 239.496 134.028 239.509 131.748 239.512H128.95C120.579 239.488 112.242 239.302 103.957 238.869L103.035 238.816C86.9355 237.944 71.0163 236.142 55.3822 232.867C53.7638 232.527 52.1486 232.171 50.5366 231.799C39.7333 229.369 29.1259 226.133 18.8027 222.118C13.9382 220.211 9.04507 218.009 5.34437 214.281C-4.04276 204.748 -0.517833 186.076 11.6959 180.647C21.2493 176.4 32.4416 179.856 42.7171 177.939C43.3485 177.819 43.972 177.659 44.5841 177.463C45.8904 177.04 47.1612 176.514 48.3846 175.89C48.8026 175.68 49.2207 175.456 49.6435 175.222C50.5936 174.703 51.5437 174.126 52.4558 173.497C53.9469 172.502 55.3748 171.414 56.7313 170.241C57.3331 169.726 57.919 169.192 58.489 168.639C60.4619 166.78 62.2037 164.688 63.6767 162.409C64.213 161.547 64.6892 160.649 65.1018 159.721C65.3251 159.244 65.5246 158.729 65.6909 158.234C65.9392 157.516 66.1283 156.78 66.2562 156.031C66.8548 152.494 65.8857 149.043 62.5128 146.126C62.2107 145.867 61.8934 145.627 61.5627 145.406C60.9092 144.951 60.2197 144.551 59.5009 144.21C59.2111 144.071 58.9118 143.938 58.6078 143.809C54.2658 141.974 48.6649 141.269 43.9428 139.996C42.5037 139.63 41.0987 139.14 39.7433 138.532C38.8834 138.132 38.0283 137.712 37.1875 137.274L36.9642 137.15C29.7841 133.435 23.4698 128.237 18.437 121.896C17.1858 120.294 16.034 118.616 14.988 116.872C14.6697 116.348 14.361 115.809 14.0664 115.27C5.71967 100.16 4.85981 80.797 13.5439 65.939C14.5988 64.1364 15.7733 62.4069 17.0593 60.7622C17.4773 60.2188 17.9096 59.685 18.3562 59.1606C26.6222 49.3744 38.4986 42.7438 50.4891 37.834C66.584 31.2463 83.4343 27.0849 100.608 24.344C104.091 23.7879 107.575 23.2889 111.059 22.8472C125.643 20.9786 140.398 19.9871 155.049 19.234C168.753 18.538 182.517 18.0884 196.341 17.885C201.025 17.8214 205.714 17.7944 210.408 17.804C220.982 17.804 231.557 18.0089 242.132 18.4189C245.616 18.5523 249.099 18.7112 252.583 18.8955C261.517 19.3595 270.434 19.9951 279.334 20.8023C283.609 21.19 287.875 21.6174 292.132 22.0845C324.55 25.6406 356.497 31.6705 387.343 41.0468C390.842 42.1082 394.326 43.2205 397.794 44.3836C410.765 48.6689 423.512 53.612 435.984 59.194C437.162 59.7247 438.337 60.2586 439.509 60.7956C447.297 64.3802 454.973 68.2429 462.54 72.3837C472.525 77.7755 482.142 83.8268 491.328 90.4975C494.913 93.1351 498.397 95.8871 501.779 98.7535C507.759 103.814 513.335 109.335 518.459 115.266C518.915 115.796 519.366 116.33 519.812 116.867C522.131 119.661 524.332 122.554 526.416 125.548C536.582 140.21 543.404 156.98 548.439 174.112C552.881 189.06 555.836 205.844 548.791 219.778Z" fill="#EF5B59"/>
<path opacity="0.1" d="M542.401 168.639H501.817V116.839H519.869C519.423 116.302 518.972 115.768 518.516 115.237H501.836V98.7249C498.46 95.8649 494.976 93.1128 491.385 90.4688V115.256H397.822V60.7622H439.537C438.362 60.2252 437.187 59.6913 436.012 59.1606H397.822V44.3502C394.339 43.1966 390.855 42.0844 387.371 41.0134V59.1272H253.842L253.524 58.8221L292.151 22.0321C287.894 21.5618 283.628 21.1343 279.353 20.7498L252.602 46.2235V18.8622C249.118 18.6779 245.635 18.519 242.151 18.3855V47.9825L210.427 17.7706C205.736 17.7706 201.047 17.7976 196.36 17.8516L239.381 58.8221L239.063 59.1272H111.068V22.8663C107.585 23.308 104.101 23.8069 100.617 24.363V59.1606H18.3562C17.9096 59.6849 17.4773 60.2188 17.0593 60.7622H100.608V115.237H14.0474C14.342 115.776 14.6507 116.314 14.969 116.839H100.608V168.639H58.4843C57.9142 169.192 57.3283 169.726 56.7266 170.241H100.608V223.248C104.091 223.747 107.575 224.268 111.059 224.811V170.241H242.141V236.657C245.625 236.657 249.109 236.703 252.593 236.795V170.241H387.362V251.548L387.794 251.596C391.138 251.971 394.481 252.322 397.822 252.649V170.241H491.357V250.59C492.155 250.442 492.953 250.285 493.732 250.113C494.511 249.942 495.214 249.813 495.955 249.637C497.906 249.22 499.855 248.779 501.803 248.311V170.241H542.715C542.61 169.707 542.506 169.173 542.401 168.639ZM242.141 168.639H111.068V116.839H242.141V168.639ZM242.141 115.251H111.068V60.7622H240.284L242.127 62.2209L242.141 115.251ZM387.362 168.639H252.602V116.839H387.362V168.639ZM387.362 115.251H252.602V60.7622H387.362V115.251ZM491.357 168.639H397.822V116.839H491.357V168.639Z" fill="#EF5B59"/>
<path d="M141.182 241.776C141.182 241.829 141.144 241.881 141.13 241.933C141.13 241.881 141.163 241.829 141.187 241.776H141.182Z" fill="#EAECF0"/>
<path d="M143.662 239.493H142.356H142.313H140.726L138.522 239.522L138.28 237.009L138.056 234.626L137.021 223.753L136.988 223.419V223.272L136.698 220.211L141.135 218.543L141.676 222.981L141.714 223.31V223.348L142.812 232.357L143.149 235.122L143.344 236.728L143.51 238.106V238.153L143.662 239.493Z" fill="#EAECF0"/>
<path d="M159.591 241.771L159.644 241.929H159.292L159.239 241.771H159.591Z" fill="#3A3768"/>
<path d="M228.398 178.969C228.398 179.064 228.398 179.117 228.398 179.117V179.174C228.398 179.174 224.256 190.533 222.906 200.229C222.815 200.864 222.739 201.5 222.678 202.136C222.612 202.808 222.56 203.466 222.531 204.104C222.493 204.853 222.484 205.577 222.503 206.268C222.503 206.426 222.503 206.588 222.503 206.745C222.503 207.064 222.536 207.393 222.555 207.732C222.574 208.07 222.602 208.409 222.631 208.761C222.659 209.114 222.688 209.424 222.721 209.762C223.743 220.249 227.624 235.603 227.624 235.603C227.624 235.603 227.752 236.018 227.918 236.723H226.845C220.161 236.833 213.462 237.024 206.759 237.253L205.553 237.291H205.154C190.902 237.796 176.65 238.468 162.436 238.95L158.964 239.064H158.46C153.52 239.223 148.584 239.345 143.653 239.431H142.346C142.681 238.957 143.067 238.52 143.496 238.13C143.856 237.794 144.246 237.491 144.66 237.224C146.917 235.811 149.376 234.752 151.952 234.083C152.495 233.934 153.057 233.865 153.619 233.878L156.945 233.944H157.458L162.56 234.044L206.322 234.917H206.431L206.74 234.855C207.248 234.728 207.743 234.552 208.218 234.33C209.04 233.982 209.758 233.428 210.304 232.72C210.85 232.011 211.205 231.174 211.334 230.288C211.334 230.14 211.372 229.983 211.382 229.812C211.396 229.58 211.396 229.347 211.382 229.116C211.382 228.954 211.382 228.782 211.344 228.606C211.306 228.429 211.296 228.253 211.263 228.072C210.208 222.156 208.412 203.947 208.412 203.947V204.004C208.412 204.004 208.412 203.227 208.455 201.921C208.455 201.821 208.455 201.711 208.455 201.602V201.32C208.455 201.03 208.488 200.715 208.507 200.367C208.507 200.162 208.536 199.952 208.55 199.733C208.574 199.414 208.602 199.085 208.631 198.742C208.629 198.721 208.629 198.7 208.631 198.68C208.65 198.464 208.669 198.244 208.688 198.022C208.688 198.022 208.688 197.974 208.688 197.95C209.396 190.919 211.624 179.789 218.664 175.666C221.966 173.726 224.151 173.335 225.59 173.716C227.69 174.269 228.218 176.462 228.332 177.887C228.332 177.982 228.332 178.073 228.332 178.163C228.369 178.43 228.391 178.699 228.398 178.969V178.969Z" fill="#3A3768"/>
<path opacity="0.1" d="M141.182 241.776C141.182 241.829 141.144 241.881 141.13 241.933C141.13 241.881 141.163 241.829 141.187 241.776H141.182Z" fill="black"/>
<path opacity="0.1" d="M159.591 241.771L159.644 241.929H159.292L159.239 241.771H159.591Z" fill="black"/>
<path opacity="0.1" d="M228.398 178.969C228.398 179.064 228.398 179.117 228.398 179.117C228.398 179.117 224.982 188.484 223.353 197.464C223.239 198.1 223.134 198.715 223.039 199.309C222.992 199.614 222.949 199.919 222.906 200.224C222.815 200.86 222.739 201.495 222.678 202.131C222.612 202.803 222.56 203.461 222.531 204.1C222.493 204.848 222.484 205.573 222.503 206.264C222.503 206.421 222.503 206.583 222.503 206.74C222.503 207.06 222.536 207.389 222.555 207.727C222.574 208.066 222.602 208.409 222.631 208.757C222.659 209.105 222.688 209.419 222.721 209.758C222.754 210.096 222.788 210.42 222.826 210.754C222.978 212.103 223.168 213.519 223.386 214.958C224.873 224.668 227.624 235.546 227.624 235.546C227.624 235.546 227.761 235.985 227.928 236.719H226.854C220.17 236.828 213.472 237.019 206.769 237.248L205.562 237.286H205.163C190.911 237.791 176.66 238.463 162.446 238.945L158.973 239.059H158.47C153.529 239.218 148.593 239.34 143.662 239.426H142.356H142.313C142.658 238.934 143.056 238.482 143.501 238.077C143.86 237.736 144.252 237.429 144.669 237.162C146.929 235.753 149.387 234.694 151.961 234.021C152.505 233.876 153.066 233.808 153.629 233.82L156.954 233.887H157.467L162.584 233.987L206.379 234.855H206.455C206.455 234.855 206.583 234.855 206.797 234.783C207.31 234.656 207.808 234.475 208.284 234.245C209.088 233.898 209.791 233.354 210.329 232.661C210.866 231.968 211.22 231.15 211.358 230.284C211.358 230.136 211.396 229.978 211.405 229.807C211.42 229.575 211.42 229.343 211.405 229.111C211.405 228.949 211.405 228.777 211.367 228.601C211.329 228.424 211.32 228.215 211.286 228.015C210.232 222.099 208.436 203.89 208.436 203.89C208.436 203.89 208.436 203.113 208.479 201.807C208.479 201.707 208.479 201.597 208.479 201.487V201.206C208.479 200.915 208.512 200.601 208.531 200.253C208.531 200.048 208.56 199.838 208.574 199.619C208.598 199.299 208.626 198.971 208.655 198.627C208.652 198.607 208.652 198.586 208.655 198.565C208.674 198.349 208.693 198.13 208.712 197.908C208.712 197.908 208.712 197.86 208.712 197.836C208.797 196.959 208.911 196.015 209.054 195.028C210.042 188.126 212.512 179.112 218.669 175.485C221.885 173.578 224.037 173.177 225.481 173.506C227.704 174.016 228.232 176.314 228.332 177.763C228.332 177.858 228.332 177.949 228.332 178.04C228.374 178.348 228.397 178.658 228.398 178.969V178.969Z" fill="black"/>
<path d="M141.182 241.776C141.182 241.829 141.144 241.881 141.13 241.933C141.13 241.881 141.163 241.829 141.187 241.776H141.182Z" fill="#3A3768"/>
<path d="M159.591 241.771L159.644 241.929H159.292L159.239 241.771H159.591Z" fill="#3A3768"/>
<path d="M227.182 178.564C227.182 178.564 220.982 195.562 221.282 205.735C221.581 215.907 226.422 235.022 226.422 235.022C226.422 235.022 226.631 235.694 226.854 236.766C220.17 236.876 213.472 237.067 206.769 237.295L205.562 237.334H205.163C190.911 237.839 176.66 238.511 162.446 238.992L158.973 239.107H158.47C153.529 239.266 148.593 239.388 143.662 239.474H142.356H142.313H140.726C141.38 238.373 142.271 237.433 143.334 236.723L143.463 236.633C145.724 235.247 148.181 234.211 150.75 233.558C151.294 233.413 151.855 233.346 152.417 233.358L156.807 233.444H157.32L162.607 233.549L205.244 234.402C205.854 234.287 206.446 234.093 207.006 233.825C207.192 233.739 207.373 233.642 207.548 233.534V233.534C208.083 233.225 208.564 232.831 208.973 232.367C209.871 231.342 210.469 229.816 210.07 227.6C209.011 221.684 207.22 203.475 207.22 203.475C207.22 203.475 206.916 181.319 217.5 175.098C221.776 172.586 224.18 172.672 225.524 173.668C225.564 173.694 225.602 173.723 225.638 173.754C227.491 175.251 227.182 178.564 227.182 178.564Z" fill="#3A3768"/>
<path d="M56.5889 220.273L56.4178 222.051L55.3822 232.962C53.7638 232.622 52.1486 232.266 50.5366 231.895L51.748 221.975L52.1566 218.605L56.5889 220.273Z" fill="#EAECF0"/>
<path d="M26.1852 216.746L52.0568 161.494L156.27 169.65L165.876 216.746H26.1852Z" fill="#EFC6CD"/>
<path d="M26.1852 221.565V216.746H165.876V223.791L26.1852 221.565Z" fill="#D48A9B"/>
<path d="M65.5769 208.676L128.075 209.953C128.214 209.956 128.351 209.926 128.475 209.865C128.6 209.804 128.708 209.714 128.79 209.602C128.873 209.491 128.927 209.361 128.949 209.223C128.971 209.086 128.96 208.946 128.916 208.814L119.173 182.444L77.0781 181.638L64.6268 207.217C64.5572 207.375 64.5281 207.549 64.5421 207.721C64.5562 207.894 64.613 208.06 64.7074 208.205C64.8018 208.35 64.9308 208.469 65.0826 208.551C65.2345 208.633 65.4044 208.676 65.5769 208.676Z" fill="#DFE6F5"/>
<path opacity="0.15" d="M65.5769 208.676L128.075 209.953C128.214 209.956 128.351 209.926 128.475 209.865C128.6 209.804 128.708 209.714 128.79 209.602C128.873 209.491 128.927 209.361 128.949 209.223C128.971 209.086 128.96 208.946 128.916 208.814L119.173 182.444L77.0781 181.638L64.6268 207.217C64.5572 207.375 64.5281 207.549 64.5421 207.721C64.5562 207.894 64.613 208.06 64.7074 208.205C64.8018 208.35 64.9308 208.469 65.0826 208.551C65.2345 208.633 65.4044 208.676 65.5769 208.676Z" fill="black"/>
<path d="M65.0734 207.575L128.218 208.909L119.634 182.821C119.495 182.398 119.229 182.029 118.873 181.764C118.516 181.499 118.087 181.352 117.643 181.343L77.0638 180.571L65.0734 207.575Z" fill="#DFE6F5"/>
<path d="M70.2894 201.668L77.8571 184.961C78.018 184.608 78.2762 184.31 78.6013 184.1C78.9263 183.891 79.3044 183.779 79.6908 183.779H98.4983C99.0313 183.779 99.5424 183.991 99.9192 184.369C100.296 184.747 100.508 185.26 100.508 185.795V203.847C100.507 204.12 100.452 204.39 100.345 204.642C100.237 204.893 100.08 205.119 99.883 205.308C99.6858 205.496 99.4526 205.643 99.1975 205.738C98.9423 205.834 98.6706 205.876 98.3986 205.863L72.0186 204.514C71.6916 204.498 71.3735 204.401 71.0921 204.233C70.8108 204.065 70.5746 203.831 70.4041 203.55C70.2337 203.27 70.1341 202.952 70.1141 202.624C70.0941 202.296 70.1543 201.968 70.2894 201.668V201.668Z" fill="#4C4C56"/>
<path d="M107.382 199.552L107.705 190.018C107.714 189.637 107.871 189.274 108.142 189.007C108.414 188.74 108.778 188.59 109.159 188.588H114.717C115.058 188.59 115.388 188.712 115.649 188.934C115.909 189.155 116.084 189.462 116.142 189.799L117.776 199.28C117.812 199.489 117.802 199.704 117.747 199.909C117.692 200.113 117.594 200.304 117.458 200.467C117.322 200.629 117.153 200.761 116.962 200.851C116.771 200.942 116.563 200.99 116.351 200.992L108.831 201.058C108.636 201.058 108.444 201.018 108.265 200.941C108.086 200.865 107.924 200.753 107.789 200.613C107.654 200.472 107.548 200.306 107.478 200.124C107.408 199.942 107.376 199.747 107.382 199.552Z" fill="#D1D9EC"/>
<path d="M33.7481 137.546L54.7029 135.791C55.009 135.751 55.32 135.811 55.5891 135.963C55.8581 136.116 56.0706 136.351 56.1945 136.635L76.0092 181.638L64.9498 206.55C65.2966 205.768 65.5532 211.85 63.0496 206.578L31.5581 140.658C31.1353 139.776 32.7647 137.67 33.7481 137.546Z" fill="#4C4C56"/>
<path opacity="0.15" d="M33.7481 137.546L54.7029 135.791C55.009 135.751 55.32 135.811 55.5891 135.963C55.8581 136.116 56.0706 136.351 56.1945 136.635L76.0092 181.638L64.9498 206.55C65.2966 205.768 65.5532 211.85 63.0496 206.578L31.5581 140.658C31.1353 139.776 32.7647 137.67 33.7481 137.546Z" fill="black"/>
<path d="M33.7481 137.546L55.767 134.724C56.0732 134.683 56.3842 134.744 56.6532 134.896C56.9222 135.048 57.1347 135.284 57.2587 135.567L77.0781 180.571L65.0876 207.575L32.6222 139.591C32.5227 139.385 32.474 139.158 32.4801 138.929C32.4862 138.7 32.5469 138.476 32.6573 138.276C32.7676 138.075 32.9242 137.904 33.1141 137.777C33.3039 137.65 33.5213 137.571 33.7481 137.546Z" fill="#4C4C56"/>
<path d="M39.2445 140.711L55.1637 138.223C55.4819 138.172 55.8078 138.231 56.0882 138.391C56.3686 138.55 56.587 138.8 56.7076 139.1L73.3821 180.027C73.4504 180.194 73.4832 180.374 73.4783 180.555C73.4734 180.735 73.4309 180.913 73.3536 181.076L65.7194 197.083C65.6158 197.305 65.451 197.494 65.2444 197.626C65.0378 197.758 64.798 197.828 64.5532 197.828C64.3083 197.828 64.0685 197.758 63.862 197.626C63.6554 197.494 63.4906 197.305 63.3869 197.083L38.1661 142.741C38.07 142.539 38.0226 142.318 38.0275 142.094C38.0325 141.87 38.0897 141.651 38.1946 141.453C38.2995 141.256 38.4491 141.085 38.6315 140.957C38.8138 140.828 39.0238 140.743 39.2445 140.711V140.711Z" fill="#EF5B59"/>
<path d="M209.101 232.929C209.101 232.929 208.773 233.472 208.294 234.359L208.251 234.44C207.823 235.203 207.301 236.204 206.769 237.3L205.562 237.338H205.163C190.911 237.844 176.66 238.516 162.446 238.997L158.973 239.112H158.47C153.529 239.27 148.593 239.393 143.662 239.479H142.356H142.313H140.726L138.522 239.507C136.232 239.529 133.947 239.542 131.667 239.545H128.95C120.579 239.522 112.242 239.336 103.957 238.902L103.035 238.849C104.665 235.293 107.577 229.464 109.943 227.6C111.771 226.17 124.907 224.582 136.988 223.419L138.261 223.295H138.289L141.662 222.981C146.284 222.557 150.479 222.213 153.472 221.98L153.748 221.956L152.189 216.712L149.933 209.086L150.574 202.679L150.626 202.164H150.555C149.912 202.233 149.262 202.151 148.655 201.926L126.094 201.144H125.686L117.021 200.834C112.375 200.667 109.073 200.543 108.945 200.52C108.809 200.497 108.675 200.46 108.546 200.41C108.344 200.333 108.157 200.22 107.995 200.076C107.805 199.914 107.645 199.721 107.52 199.504H107.425H107.216L105.99 199.585L105.368 199.628C105.344 199.562 105.325 199.495 105.301 199.433C105.244 199.247 105.187 199.071 105.135 198.889H104.807L100.532 198.799H100.456C100.456 198.799 89.4248 199.643 83.6623 197.536C81.5483 196.763 80.1422 195.596 80.2514 193.846C80.2754 193.448 80.3587 193.056 80.4985 192.683C78.6457 189.208 87.6956 182.868 94.5934 184.618C96.4572 185.152 98.4211 185.234 100.323 184.856C101.355 184.632 102.327 184.188 103.173 183.555C103.258 183.493 103.334 183.431 103.406 183.369C103.292 183.297 103.173 183.235 103.064 183.178C102.591 182.928 102.083 182.752 101.558 182.654L103.429 182.106H103.458C103.458 182.106 110.109 181.495 114.437 181.252H114.465C115.752 181.186 116.84 181.143 117.486 181.162C120.337 181.243 125.89 179.198 126.128 178.569C126.365 177.939 128.902 178.569 128.902 178.569L131.121 177.701C133.339 176.838 134.607 175.661 134.607 174.793C134.607 173.926 136.588 172.987 136.588 172.987C137.482 171.48 139.235 169.864 141.073 168.434C142.664 167.2 144.318 166.099 145.543 165.331C146.018 162.243 146.653 159.182 147.444 156.16C148.284 153.343 150.892 151.255 151.828 150.578L152.17 150.349C151.908 149.162 151.559 147.996 151.125 146.86C151.094 146.765 151.056 146.669 151.011 146.574C150.916 146.35 150.816 146.131 150.717 145.926L150.569 145.64C150.327 145.687 150.094 145.73 149.838 145.764C149.051 145.879 148.257 145.938 147.463 145.94C143.9 145.953 140.432 144.795 137.588 142.643C134.744 140.491 132.681 137.463 131.714 134.023C131.714 134.023 131.714 134.023 131.714 133.994C131.333 132.597 131.142 131.154 131.144 129.704C131.142 128.313 131.324 126.928 131.686 125.586C131.686 125.586 131.686 125.586 131.686 125.586C131.757 125.3 131.843 125.019 131.933 124.737C131.942 124.705 131.953 124.673 131.966 124.642C132.009 124.513 132.052 124.38 132.099 124.251C131.396 124.358 130.687 124.42 129.976 124.437H129.501C128.144 124.488 126.792 124.262 125.524 123.774V123.774C125.217 123.643 124.923 123.484 124.646 123.298C124.631 123.291 124.618 123.281 124.608 123.269C124.247 123.057 123.917 122.796 123.629 122.492C124.158 122.086 124.601 121.578 124.933 120.999C125.264 120.42 125.479 119.78 125.562 119.117C125.691 118.088 125.52 116.939 126.132 116.1C126.446 115.721 126.822 115.399 127.244 115.147C129.771 113.416 131.776 111.042 134.061 108.997C136.346 106.952 139.111 105.184 142.185 105.089C146.308 104.96 149.938 107.839 154.023 108.382C155.277 108.549 156.565 108.492 157.79 108.807C159.164 109.238 160.456 109.895 161.614 110.752C162.661 111.349 163.586 112.138 164.341 113.078C164.866 113.893 165.242 114.795 165.453 115.742C165.982 117.739 166.301 119.785 166.403 121.849C166.512 124.008 166.403 126.182 166.631 128.327C166.793 130.19 167.42 131.982 168.455 133.537H168.517C168.697 133.791 168.894 134.033 169.106 134.261C168.702 134.39 168.299 134.504 167.885 134.605C167.198 134.781 166.502 134.92 165.8 135.019C165.478 135.072 165.152 135.1 164.826 135.1C164.599 135.106 164.373 135.085 164.151 135.038L164.569 135.32L165.728 136.101L166.166 136.392L167.044 136.978C167.244 136.392 167.519 136.235 167.838 136.273C168.484 135.663 169.448 136.983 169.448 136.983C170.014 138.07 171.534 139.152 172.878 139.953C173.668 140.42 174.482 140.846 175.315 141.23C193.068 151.846 191.942 167.729 192.987 168.987C194.032 170.246 194.099 174.803 194.099 174.803C194.099 174.803 196.716 190.29 197.899 191.63C199.082 192.969 197.975 193.436 199.006 194.933C200.037 196.43 199.8 200.434 199.8 200.434C199.8 200.434 200.512 209.867 203.049 211.912C205.325 213.748 208.365 229.187 208.968 232.343L209.101 232.929Z" fill="url(#paint0_linear)"/>
<path d="M105.049 183.24C105.049 183.24 102.584 187.135 95.6005 185.342C88.6172 183.55 79.3773 190.328 82.0139 193.675C84.6504 197.021 101.653 192.721 101.653 192.721L108.175 191.396L107.748 185.948L105.049 183.24Z" fill="#D38884"/>
<path opacity="0.1" d="M105.049 183.24C105.049 183.24 102.584 187.135 95.6005 185.342C88.6172 183.55 79.3773 190.328 82.0139 193.675C84.6504 197.021 101.653 192.721 101.653 192.721L108.175 191.396L107.748 185.948L105.049 183.24Z" fill="black"/>
<path d="M107.32 183.03L104.294 182.873L102.432 183.416C102.432 183.416 108.332 184.274 106.707 192.297L113.068 191.911L107.32 183.03Z" fill="#A36468"/>
<path opacity="0.1" d="M107.32 183.03L104.294 182.873L102.432 183.416C102.432 183.416 108.332 184.274 106.707 192.297L113.068 191.911L107.32 183.03Z" fill="black"/>
<path d="M147.377 165.088C147.377 165.088 139.073 169.855 136.74 173.816C136.74 173.816 134.802 174.769 134.802 175.608C134.802 176.447 133.558 177.63 131.387 178.469L129.211 179.327C129.211 179.327 126.726 178.702 126.493 179.327C126.261 179.951 120.831 181.972 118.033 181.896C115.235 181.82 104.294 182.849 104.294 182.849C106.298 183.762 107.934 185.329 108.935 187.296C109.936 189.262 110.242 191.511 109.805 193.675L135.657 192.588L145.434 190.405L151.182 184.642L147.377 165.088Z" fill="#444053"/>
<path opacity="0.1" d="M147.377 165.088C147.377 165.088 139.073 169.855 136.74 173.816C136.74 173.816 134.802 174.769 134.802 175.608C134.802 176.447 133.558 177.63 131.387 178.469L129.211 179.327C129.211 179.327 126.726 178.702 126.493 179.327C126.261 179.951 120.831 181.972 118.033 181.896C115.235 181.82 104.294 182.849 104.294 182.849C106.298 183.762 107.934 185.329 108.935 187.296C109.936 189.262 110.242 191.511 109.805 193.675L135.657 192.588L145.434 190.405L151.182 184.642L147.377 165.088Z" fill="black"/>
<path d="M109.282 199.552L105.624 199.481L101.349 199.39C101.349 199.39 81.1588 200.949 81.5531 194.471C81.9474 187.993 97.477 185.719 99.6385 187.578C101.277 188.984 105.068 190.119 106.798 190.581C107.349 190.729 107.686 190.81 107.686 190.81L109.282 199.552Z" fill="#D38884"/>
<path opacity="0.1" d="M109.282 199.552L105.624 199.481C104.166 194.452 105.857 191.682 106.817 190.595C107.368 190.743 107.705 190.824 107.705 190.824L109.282 199.552Z" fill="black"/>
<path d="M111.748 199.828L107.947 200.095L106.142 200.219C103.658 192.898 107.672 190.014 107.672 190.014H108.859L110.802 190.247L111.748 199.828Z" fill="#A36468"/>
<path d="M157.781 151.226L153.277 159.807C153.277 159.807 152.588 151.117 150.584 147.022C150.071 145.973 149.472 145.23 148.774 145.006C146.873 144.405 157.8 132.388 157.8 132.388C158.166 132.464 160.256 133.818 162.816 135.567C165.633 137.474 169.025 139.8 171.306 141.288C175.633 144.057 157.781 151.226 157.781 151.226Z" fill="#D38884"/>
<path d="M152.004 151.388C152.004 151.388 148.384 153.719 147.377 157.147C146.37 160.574 145.434 166.728 145.434 166.728C145.434 166.728 147.068 181.448 147.919 182.149C148.769 182.849 152.004 197.569 152.004 197.569L155.14 195.467L151.026 176.929C151.026 176.929 153.762 153.109 152.004 151.388Z" fill="#444053"/>
<path opacity="0.1" d="M152.004 151.388C152.004 151.388 148.384 153.719 147.377 157.147C146.37 160.574 145.434 166.728 145.434 166.728C145.434 166.728 147.068 181.448 147.919 182.149C148.769 182.849 152.004 197.569 152.004 197.569L155.14 195.467L151.026 176.929C151.026 176.929 153.762 153.109 152.004 151.388Z" fill="black"/>
<path d="M167.757 184.227H149.662L152.593 155.583H167.757V184.227Z" fill="#A36468"/>
<path d="M125.834 241.776H126.052L125.643 241.934L125.834 241.776Z" fill="#67647E"/>
<path d="M159.876 228.73L156.337 230.093L155.862 230.269L143.121 235.184L138.261 237.057L131.648 239.607H128.95C120.579 239.583 112.242 239.398 103.957 238.964C105.562 235.432 108.37 229.778 110.66 227.953C112.446 226.522 125.225 224.978 137.021 223.815C138.493 223.672 139.947 223.534 141.363 223.405L141.7 223.372C146.384 222.943 150.622 222.595 153.577 222.356L154.052 222.318L157.767 222.032L158.156 221.641L158.631 223.681L159.025 225.312L159.876 228.73Z" fill="#67647E"/>
<path opacity="0.1" d="M125.834 241.776H126.052L125.643 241.934L125.834 241.776Z" fill="black"/>
<path opacity="0.1" d="M159.876 228.73L156.337 230.093L155.862 230.269L143.121 235.184L138.261 237.057L131.648 239.607H128.95C120.579 239.583 112.242 239.398 103.957 238.964C105.562 235.432 108.37 229.778 110.66 227.953C112.446 226.522 125.225 224.978 137.021 223.815C138.493 223.672 139.947 223.534 141.363 223.405L141.7 223.372C146.384 222.943 150.622 222.595 153.577 222.356L154.052 222.318L157.767 222.032L158.156 221.641L158.631 223.681L159.025 225.312L159.876 228.73Z" fill="black"/>
<path d="M125.834 241.776H126.052L125.643 241.934L125.834 241.776Z" fill="#67647E"/>
<path d="M141.182 241.776C141.182 241.829 141.144 241.881 141.13 241.933C141.13 241.881 141.163 241.829 141.187 241.776H141.182Z" fill="#67647E"/>
<path d="M159.644 241.929H159.292L159.239 241.771H159.591L159.644 241.929Z" fill="#67647E"/>
<path d="M162.902 223.748L162.607 233.558V234.087V234.14L162.46 238.997L158.987 239.112H158.484C153.543 239.271 148.607 239.393 143.676 239.479H142.37H142.327H140.741L138.536 239.507C136.246 239.529 133.961 239.542 131.681 239.545H128.95C131.42 238.01 134.617 236.318 138.056 234.626C139.6 233.863 141.201 233.105 142.807 232.357C147.083 230.365 151.41 228.482 154.94 226.98L155.391 226.789C156.759 226.208 157.999 225.688 159.059 225.25C161.348 224.296 162.802 223.724 162.902 223.686V223.748Z" fill="#67647E"/>
<path opacity="0.1" d="M131.173 183.431C132.061 185.29 132.978 187.187 134.446 188.636C134.679 188.865 135.083 189.075 135.292 188.822C135.357 188.717 135.389 188.593 135.382 188.469C135.337 187.593 135.04 186.749 134.527 186.038C134.052 185.304 133.491 184.637 133.068 183.874C132.646 183.111 132.161 181.643 131.211 181.443C129.99 181.186 130.902 182.868 131.173 183.431Z" fill="black"/>
<path opacity="0.1" d="M162.797 135.553C162.731 135.791 162.66 136.03 162.584 136.259C161.707 138.954 160.135 141.368 158.027 143.256C155.92 145.144 153.351 146.438 150.584 147.008C150.071 145.959 149.472 145.215 148.774 144.991C146.873 144.391 157.8 132.374 157.8 132.374C158.147 132.45 160.237 133.828 162.797 135.553Z" fill="black"/>
<path d="M163.367 130.972C163.367 134.146 162.43 137.248 160.673 139.886C158.916 142.525 156.418 144.581 153.496 145.796C150.574 147.01 147.359 147.328 144.257 146.709C141.156 146.09 138.306 144.562 136.07 142.318C133.834 140.074 132.311 137.215 131.694 134.102C131.077 130.99 131.394 127.764 132.604 124.832C133.814 121.9 135.864 119.394 138.493 117.631C141.123 115.868 144.214 114.927 147.377 114.927C149.478 114.923 151.559 115.335 153.501 116.14C155.443 116.944 157.208 118.126 158.694 119.617C160.179 121.108 161.357 122.878 162.159 124.827C162.961 126.776 163.372 128.864 163.367 130.972V130.972Z" fill="#D38884"/>
<path d="M153.51 154.806C153.51 154.806 150.185 158.858 150.717 161.508H154.75L157.7 158.172L153.51 154.806Z" fill="#67647E"/>
<path opacity="0.1" d="M165.339 137.698L152.655 155.197C152.655 155.197 155.914 159.873 157.467 160.107C159.021 160.34 167.881 139.409 167.881 139.409L165.339 137.698Z" fill="black"/>
<path d="M165.501 137.384L152.812 154.906C152.812 154.906 156.071 159.578 157.624 159.811C159.178 160.045 168.037 139.119 168.037 139.119L165.501 137.384Z" fill="#A36468"/>
<path d="M151.182 159.797C151.182 159.797 150.56 169.607 149.938 171.557C149.315 173.506 149.938 191.415 149.938 191.415L155.762 189.003L154.75 161.508L151.182 159.797Z" fill="#67647E"/>
<path opacity="0.1" d="M159.591 241.771L159.644 241.929H159.292L159.239 241.771H159.591Z" fill="black"/>
<path opacity="0.1" d="M207.306 233.325C207.306 233.325 207.196 233.506 207.016 233.801C206.835 234.097 206.641 234.464 206.389 234.931C206.376 234.949 206.365 234.968 206.355 234.988C206.004 235.641 205.586 236.442 205.163 237.314C190.911 237.82 176.66 238.492 162.446 238.973L158.973 239.088H158.47L156.978 234.035V233.983L156.821 233.449L155.871 230.274L154.921 227.047L153.938 223.605L153.577 222.356L153.482 222.042L151.933 216.751L149.833 209.567L150.512 202.712L150.56 202.193L151.173 196.053L151.258 194.232L151.306 193.279V193.007L151.41 190.795L151.724 184.217L151.885 180.852L151.914 180.342L152.237 173.587L153.154 170.827L153.629 169.455L154.683 166.266L154.911 165.479C155.244 164.283 155.914 161.918 156.541 159.644L156.598 159.449L156.641 159.301L157.087 157.685L157.643 155.612C157.852 154.816 157.99 154.248 158.023 154.053C158.075 153.715 158.973 152.218 160.151 150.24C162.527 146.297 166.099 140.496 166.508 138.551C166.509 138.536 166.509 138.52 166.508 138.504C166.532 138.385 166.565 138.269 166.607 138.156C166.802 137.574 167.082 137.417 167.377 137.455C167.511 137.477 167.639 137.527 167.752 137.603C168.039 137.796 168.289 138.038 168.493 138.318C169.049 139.39 170.536 140.463 171.852 141.259L172.109 141.407L172.261 141.497C173.353 142.122 174.237 142.522 174.237 142.522C191.624 153.038 190.541 168.773 191.548 170.017C192.555 171.261 192.636 175.785 192.636 175.785C192.636 175.785 195.196 191.129 196.36 192.469C197.524 193.808 196.441 194.261 197.448 195.743C198.455 197.226 198.222 201.144 198.222 201.144C198.222 201.144 198.921 210.487 201.405 212.513C203.89 214.539 207.306 233.325 207.306 233.325Z" fill="black"/>
<path d="M207.771 233.172L207.562 233.534C207.396 233.83 207.13 234.297 206.811 234.883L206.778 234.95C206.417 235.622 205.99 236.437 205.567 237.334H205.168C190.916 237.839 176.664 238.511 162.451 238.992L158.978 239.107L157.491 234.035V233.982L157.334 233.449L156.351 230.112L155.401 226.87L154.451 223.634L154.075 222.337L152.451 216.77L150.303 209.434L150.897 203.47L150.978 202.674L151.634 195.901L151.885 190.619L152.194 184.236L152.275 182.563L152.365 180.628L152.403 179.813L152.712 173.435L153.629 170.68L154.023 169.493L154.945 166.704L155.139 166.113C155.139 166.113 156.028 162.981 156.888 159.878C156.921 159.764 156.954 159.649 156.983 159.535C157.059 159.268 157.13 159.001 157.206 158.739C157.282 158.472 157.353 158.21 157.42 157.947C157.662 157.08 157.895 156.27 158.056 155.602C158.289 154.73 158.446 154.096 158.479 153.891C158.531 153.553 159.429 152.013 160.65 150.011C162.897 146.283 166.175 140.954 166.869 138.742C166.906 138.628 166.938 138.512 166.964 138.394V138.394C167.006 138.043 167.15 137.711 167.377 137.441C168.013 136.826 168.959 138.146 168.959 138.146C169.515 139.219 171.002 140.296 172.318 141.087C173.086 141.551 173.879 141.972 174.693 142.351C192.08 152.866 190.997 168.601 192.004 169.85C193.011 171.099 193.092 175.613 193.092 175.613C193.092 175.613 195.652 190.957 196.816 192.297C197.98 193.636 196.897 194.089 197.904 195.567C198.911 197.045 198.678 201.02 198.678 201.02C198.678 201.02 199.377 210.368 201.861 212.394C204.346 214.42 207.771 233.172 207.771 233.172Z" fill="#444053"/>
<path opacity="0.1" d="M172.318 141.392C170.612 143.881 167.833 148.257 167.092 151.403C167.092 151.403 164.375 154.21 163.363 154.053C162.351 153.896 164.313 156.155 164.313 156.155L153.638 170.999L155.154 166.437C155.154 166.437 158.337 155.221 158.479 154.21C158.622 153.2 166.351 141.621 166.964 138.709C167.439 136.378 168.959 138.475 168.959 138.475C169.51 139.524 170.997 140.606 172.318 141.392Z" fill="black"/>
<path d="M172.318 141.083C170.612 143.566 167.833 147.947 167.092 151.069C167.092 151.069 164.375 153.872 163.363 153.719C162.351 153.567 164.313 155.821 164.313 155.821L153.638 170.665L155.154 166.103C155.154 166.103 158.337 154.887 158.479 153.872C158.622 152.857 166.351 141.288 166.964 138.375C167.439 136.039 168.959 138.141 168.959 138.141C169.51 139.214 170.997 140.287 172.318 141.083Z" fill="#444053"/>
<path opacity="0.1" d="M186.655 171.838C186.736 175.241 181.766 179.889 181.534 180.161C181.301 180.432 166.085 193.031 166.085 193.031L155.158 201.44C153.927 202.459 152.454 203.142 150.883 203.423L151.629 195.901L152.365 180.647C154.071 178.74 155.724 176.738 155.762 176.099C155.838 174.779 158.612 173.373 158.612 173.373C158.612 173.373 160.555 171.738 160.242 170.804C159.928 169.869 161.272 165.393 161.272 165.393C161.971 152.695 175.011 151.45 175.011 151.45C175.011 151.45 181.301 153.943 185.724 156.589C190.146 159.235 186.579 168.439 186.655 171.838Z" fill="black"/>
<path opacity="0.1" d="M111.748 199.828L107.947 200.095C106.342 197.355 108.551 190.014 108.551 190.014H108.859L110.802 190.247L111.748 199.828Z" fill="black"/>
<path d="M175.011 150.678C175.011 150.678 161.971 151.927 161.272 164.621C161.272 164.621 159.952 169.064 160.261 169.998C160.569 170.932 158.631 172.567 158.631 172.567C158.631 172.567 155.838 173.969 155.781 175.294C155.724 176.619 148.655 183.845 148.655 183.845C148.655 183.845 145.71 187.211 138.878 187.564C132.047 187.916 128.864 190.014 128.864 190.014C128.864 190.014 125.539 187.678 123.116 188.379C120.693 189.079 108.912 190.014 108.912 190.014C108.912 190.014 105.781 200.424 109.686 201.077C110.161 201.154 148.593 202.479 148.593 202.479C148.593 202.479 151.22 203.723 155.177 200.687C159.135 197.65 166.104 192.273 166.104 192.273C166.104 192.273 181.306 179.655 181.553 179.403C181.8 179.15 186.778 174.479 186.674 171.08C186.569 167.681 190.17 158.486 185.724 155.826C181.277 153.166 175.011 150.678 175.011 150.678Z" fill="#444053"/>
<path opacity="0.1" d="M163.368 130.972C163.369 132.661 163.105 134.339 162.584 135.944C162.367 135.687 162.17 135.415 161.995 135.129C161.253 133.985 160.511 132.841 159.767 131.697C159.188 130.667 158.419 129.758 157.501 129.018C156.55 128.341 155.201 128.064 154.175 128.665C153.273 129.199 152.831 130.291 152.75 131.339C152.722 132.392 152.749 133.445 152.831 134.495C152.869 134.897 152.766 135.3 152.541 135.634C152.204 135.937 151.768 136.107 151.315 136.111L149.89 136.306C149.761 136.352 149.625 136.371 149.489 136.362C149.353 136.354 149.219 136.318 149.097 136.257C148.975 136.197 148.866 136.112 148.777 136.008C148.688 135.904 148.621 135.784 148.579 135.653C147.396 133.503 146.579 130.834 144.36 129.8C142.992 129.161 141.187 129.204 140.308 127.974C139.71 127.135 139.79 125.996 139.966 124.976C140.16 123.825 140.437 122.691 140.798 121.582C141.049 120.8 141.61 119.241 140.365 119.084C139.52 118.974 138.351 119.875 137.923 120.514C137.496 121.153 137.391 122.006 137.087 122.735C136.505 123.99 135.456 124.967 134.166 125.457C133.52 125.723 132.843 125.908 132.151 126.005C133.32 122.364 135.746 119.262 138.993 117.258C142.239 115.253 146.093 114.478 149.858 115.073C153.624 115.668 157.054 117.593 159.53 120.501C162.006 123.409 163.365 127.109 163.363 130.934L163.368 130.972Z" fill="black"/>
<path d="M137.928 120.109C137.496 120.771 137.396 121.596 137.092 122.325C136.51 123.579 135.464 124.556 134.175 125.047C132.895 125.528 131.538 125.771 130.171 125.762C127.957 125.829 125.486 125.49 124.061 123.789C124.581 123.385 125.016 122.883 125.342 122.31C125.668 121.738 125.879 121.106 125.962 120.452C126.085 119.432 125.919 118.293 126.522 117.458C126.83 117.093 127.196 116.782 127.605 116.538C130.085 114.822 132.042 112.468 134.285 110.446C136.527 108.425 139.23 106.666 142.242 106.571C146.275 106.447 149.843 109.298 153.833 109.836C155.059 110.003 156.322 109.946 157.52 110.256C158.867 110.676 160.134 111.32 161.268 112.162C162.294 112.759 163.201 113.541 163.942 114.47C164.454 115.28 164.823 116.174 165.03 117.11C165.555 119.088 165.874 121.116 165.98 123.159C166.09 125.295 165.98 127.45 166.208 129.576C166.436 131.702 167.111 133.866 168.56 135.439C167.503 135.774 166.421 136.024 165.325 136.187C164.639 136.35 163.92 136.294 163.268 136.025C162.74 135.688 162.308 135.22 162.014 134.667L159.786 131.234C159.207 130.205 158.438 129.295 157.52 128.555C156.569 127.879 155.22 127.602 154.194 128.203C153.292 128.737 152.855 129.828 152.769 130.877C152.741 131.929 152.768 132.983 152.85 134.033C152.888 134.435 152.785 134.837 152.56 135.172C152.221 135.476 151.784 135.645 151.33 135.648L149.904 135.844C149.776 135.889 149.639 135.908 149.503 135.9C149.367 135.892 149.234 135.856 149.111 135.795C148.989 135.734 148.88 135.649 148.791 135.546C148.702 135.442 148.635 135.321 148.593 135.191C147.41 133.036 146.593 130.372 144.375 129.337C143.007 128.698 141.201 128.741 140.322 127.512C139.724 126.673 139.805 125.533 139.98 124.513C140.174 123.363 140.452 122.229 140.812 121.119C141.064 120.338 141.624 118.779 140.38 118.617C139.524 118.526 138.356 119.427 137.928 120.109Z" fill="#444053"/>
<path opacity="0.1" d="M174.099 157.8C175.301 157.633 176.565 157.523 177.69 157.986C174.759 156.78 169.99 157.242 167.32 158.901C167.562 159.459 173.168 157.928 174.099 157.8Z" fill="black"/>
<path opacity="0.1" d="M175.5 161.708C178.422 161.904 181.439 162.314 184.208 161.361C181.89 160.56 179.339 161.065 176.897 160.822C174.949 160.626 172.968 159.95 171.068 160.445C170.275 160.65 167.353 161.999 167.553 162.986C170.047 161.878 172.786 161.438 175.5 161.708V161.708Z" fill="black"/>
<path opacity="0.1" d="M167.762 168.115C168.373 168.05 168.992 168.115 169.576 168.306C171.768 168.823 174.014 169.071 176.265 169.045C177.985 169.045 179.838 168.782 181.092 167.615L167.762 168.115Z" fill="black"/>
<path opacity="0.1" d="M158.351 183.03C160.394 183.972 162.64 184.381 164.883 184.222C167.116 184.057 169.323 183.631 171.458 182.954C172.408 182.673 173.443 182.32 173.999 181.491L158.351 183.03Z" fill="black"/>
<path opacity="0.1" d="M179.382 185.128C183.827 187.678 188.777 189.216 193.88 189.632C191.306 188.596 188.712 187.616 186.099 186.691C183.426 185.752 180.687 185.015 177.904 184.489C178.433 184.604 178.935 184.821 179.382 185.128Z" fill="black"/>
<path opacity="0.1" d="M186.56 182.396C187.453 182.546 188.359 182.595 189.263 182.544C189.738 182.544 190.303 182.477 190.584 182.067C188.546 182.153 186.536 181.629 184.546 181.176C183.98 181.043 182.964 180.728 182.489 181.066C183.391 181.715 185.42 182.168 186.56 182.396Z" fill="black"/>
<path opacity="0.1" d="M198.812 224.978C199.88 226.818 200.964 228.677 202.441 230.222C203.295 231.064 204.204 231.847 205.163 232.567C203.401 228.057 201.61 223.51 198.788 219.568C198.075 218.576 197.011 217.156 195.714 216.975C195.344 218.076 196.279 220.025 196.731 221.06C197.35 222.404 198.045 223.712 198.812 224.978V224.978Z" fill="black"/>
<path opacity="0.1" d="M146.873 191.258C146.793 192.02 146.731 192.864 147.173 193.489C147.391 193.797 147.711 194.018 148.075 194.113C147.847 194.056 147.6 191.815 147.543 191.51C147.439 190.886 147.543 189.718 147.101 189.256C146.987 189.914 146.945 190.59 146.873 191.258Z" fill="black"/>
<path opacity="0.1" d="M149.344 190.381C149.501 191.052 149.792 191.685 150.201 192.239C150.609 192.794 151.126 193.26 151.719 193.608C150.888 192.578 150.617 191.224 149.895 190.095C149.662 189.732 149.391 189.213 148.945 189.141C149.057 189.561 149.19 189.974 149.344 190.381V190.381Z" fill="black"/>
<path opacity="0.1" d="M147.254 176.652C146.552 177.071 145.773 177.339 144.964 177.442C144.155 177.545 143.333 177.479 142.55 177.248C142.194 177.143 141.363 176.772 141.562 176.247C141.762 175.723 142.726 176.085 143.121 176.133L145.187 176.395C145.567 176.443 146.945 176.833 147.254 176.652Z" fill="black"/>
<path opacity="0.1" d="M140.261 180.046C141.235 179.922 142.109 180.599 143.021 180.966C144.03 181.304 145.094 181.446 146.156 181.386C146.688 181.386 147.292 181.343 147.619 180.909C145.144 180.342 142.831 179.717 140.261 180.046Z" fill="black"/>
<path d="M152.004 151.384H152.161L153.325 155.583L152.004 156.994V151.384Z" fill="#A36468"/>
<g opacity="0.1">
<path opacity="0.1" d="M126.266 118.088C126.121 118.769 126.05 119.464 126.052 120.161C126.111 119.942 126.154 119.719 126.18 119.494C126.237 119.036 126.233 118.555 126.266 118.088Z" fill="black"/>
<path opacity="0.1" d="M140.436 118.631C140.552 118.638 140.664 118.668 140.767 118.721C140.87 118.774 140.961 118.847 141.034 118.937C141.107 119.026 141.161 119.13 141.192 119.241C141.224 119.353 141.231 119.47 141.215 119.584C141.439 118.793 141.562 117.821 140.593 117.678C139.748 117.573 138.579 118.474 138.151 119.132C137.724 119.789 137.619 120.624 137.315 121.353C136.735 122.608 135.688 123.585 134.398 124.075C133.118 124.556 131.761 124.798 130.394 124.79C128.379 124.852 126.151 124.57 124.693 123.236C124.518 123.422 124.329 123.594 124.128 123.751C125.553 125.452 128.023 125.791 130.242 125.724C131.607 125.732 132.963 125.49 134.242 125.009C135.531 124.518 136.579 123.541 137.163 122.287C137.467 121.558 137.562 120.733 137.995 120.071C138.427 119.408 139.591 118.526 140.436 118.631Z" fill="black"/>
<path opacity="0.1" d="M165.529 135.248C164.843 135.411 164.124 135.355 163.472 135.086C162.945 134.748 162.514 134.28 162.218 133.727C161.477 132.583 160.734 131.439 159.99 130.295C159.414 129.265 158.647 128.355 157.729 127.616C156.778 126.935 155.425 126.663 154.403 127.264C153.496 127.798 153.059 128.889 152.954 129.938C152.954 129.981 152.954 130.024 152.954 130.067C153.126 129.297 153.592 128.627 154.251 128.198C155.263 127.597 156.626 127.874 157.577 128.551C158.494 129.292 159.263 130.201 159.843 131.23C160.584 132.374 161.326 133.518 162.071 134.662C162.363 135.217 162.796 135.685 163.325 136.02C163.975 136.289 164.693 136.346 165.377 136.182C166.475 136.019 167.558 135.769 168.617 135.434C168.408 135.207 168.214 134.967 168.037 134.714C167.213 134.945 166.375 135.123 165.529 135.248Z" fill="black"/>
<path opacity="0.1" d="M152.755 134.233C152.416 134.533 151.981 134.702 151.529 134.709L150.104 134.905C149.975 134.95 149.839 134.969 149.702 134.961C149.566 134.953 149.433 134.917 149.311 134.856C149.189 134.795 149.08 134.71 148.991 134.607C148.902 134.503 148.834 134.382 148.793 134.252C147.61 132.097 146.793 129.433 144.574 128.398C143.206 127.759 141.406 127.802 140.527 126.572C140.081 125.822 139.93 124.931 140.104 124.075C140.08 124.222 140.047 124.365 140.023 124.508C139.852 125.529 139.767 126.668 140.37 127.507C141.249 128.737 143.054 128.694 144.417 129.332C146.641 130.367 147.458 133.031 148.641 135.186C148.748 135.457 148.94 135.686 149.187 135.839C149.434 135.922 149.699 135.933 149.952 135.873L151.377 135.677C151.83 135.673 152.265 135.503 152.603 135.2C152.83 134.867 152.933 134.463 152.892 134.061V134.061C152.851 134.122 152.805 134.179 152.755 134.233Z" fill="black"/>
</g>
<path d="M349.376 246.634L346.331 246.209V201.101L346.953 201.292L348.854 201.878V203.38V204.509V206.221L348.877 208.18L348.92 212.213V212.618V213.156V214.3V214.992V216.665V217.713L349.148 238.025V238.568L349.229 245.718V245.828L349.376 246.634Z" fill="#EAECF0"/>
<path d="M351.086 246.872L349.39 246.634V245.818V245.709L349.31 238.559V238.015L349.082 217.704V216.655V214.982V214.291V213.147V212.608V212.203L349.039 208.17L349.015 206.211V204.5V203.37V201.869H350.844V203.528V204.662V205.968V207.698L350.882 212.055V213.009V214.005V214.701V215.554V216.665L351.058 237.982V238.53L351.115 245.618V245.733L351.086 246.872Z" fill="#D3DAE1"/>
<path d="M535.884 195.51V234.445C534.981 235.08 534.056 235.705 533.109 236.318L533.071 203.904V200.462L535.884 195.51Z" fill="#EAECF0"/>
<path d="M537.86 194.947V232.939C537.214 233.458 536.554 233.959 535.884 234.45V195.51L537.86 194.947Z" fill="#D3DAE1"/>
<path d="M493.746 250.123C492.578 250.361 491.404 250.6 490.231 250.805L490.188 215.573V214.048L493.575 212.618V215.85L493.746 250.123Z" fill="#EAECF0"/>
<path d="M495.979 211.502V249.637C495.238 249.799 494.497 249.951 493.756 250.113L493.599 215.854V212.623L493.822 212.518L495.979 211.502Z" fill="#D3DAE1"/>
<path d="M294.626 239.569L291.467 239.25L291.063 199.523V198.389V197.631H294.165V198.656V199.79L294.626 239.569Z" fill="#EAECF0"/>
<path d="M296.977 239.822L294.602 239.569L294.127 199.79V198.656V197.631H296.526V198.866V200L296.977 239.822Z" fill="#D3DAE1"/>
<path opacity="0.1" d="M493.798 212.522L495.969 211.498V216.307L493.855 217.017L493.798 212.522Z" fill="black"/>
<path opacity="0.1" d="M537.855 194.938V202.298L535.884 202.96L533.067 203.899L533.062 200.458L535.884 195.505L537.855 194.938Z" fill="black"/>
<path d="M537.855 180.79V201.168L493.855 215.883L493.57 194.089L537.855 180.79Z" fill="#D48A9B"/>
<path d="M290.479 179.374L348.302 168.334L537.855 180.79L493.57 194.089L290.479 179.374Z" fill="#EFC6CD"/>
<path opacity="0.1" d="M296.545 197.631L296.564 199.995L294.17 199.786L291.058 199.519L291.044 197.631H296.545Z" fill="black"/>
<path opacity="0.1" d="M350.725 204.667L348.896 204.505L346.331 204.285V201.101L348.868 201.873H350.702L350.725 204.667Z" fill="black"/>
<path d="M290.479 179.374V198.336L493.855 215.883L493.57 194.089L290.479 179.374Z" fill="#D48A9B"/>
<path d="M451.732 201.921H425.167V192.249L451.732 194.127V201.921Z" fill="#D48A9B"/>
<path opacity="0.1" d="M451.732 201.921H425.167V192.249L451.732 194.127V201.921Z" fill="black"/>
<path opacity="0.1" d="M389.485 190.128V205.41L491.456 213.195V196.921L451.685 194.657L447.732 198.193L431.514 197.064L425.732 192.817L389.485 190.128Z" fill="black"/>
<path d="M388.92 189.561V204.848L490.891 212.627V196.354L451.119 194.089L447.171 197.631L430.948 196.497L425.167 192.249L388.92 189.561Z" fill="white"/>
<path d="M326.018 185.457L350.136 187.158L349.856 194.847H334.108L323.576 190.695L326.018 185.457Z" fill="#D48A9B"/>
<path opacity="0.1" d="M326.018 185.457L350.136 187.158L349.856 194.847H334.108L323.576 190.695L326.018 185.457Z" fill="black"/>
<path opacity="0.1" d="M293.866 183.335V197.064L386.383 204.424V189.847L350.702 187.721L346.892 190.552L332.507 189.704L326.583 186.024L293.866 183.335Z" fill="black"/>
<path d="M293.3 182.768V196.496L385.818 203.856V189.28L350.136 187.158L346.331 189.985L331.942 189.137L326.018 185.457L293.3 182.768Z" fill="white"/>
<path opacity="0.1" d="M491.466 182.821L504.435 183.674L482.948 190.128L472.003 189.337L491.466 182.821Z" fill="black"/>
<path d="M491.466 182.258L504.435 183.107L482.948 189.561L472.003 188.77L491.466 182.258Z" fill="white"/>
<path d="M489.917 183.722C490.43 183.498 490.976 183.912 491.523 184.017C491.832 184.079 492.155 184.017 492.473 184.079C493.11 184.165 493.737 184.589 494.345 184.375L489.917 183.722Z" fill="#D3DAE1"/>
<path d="M489.247 184.108C489.756 183.888 490.302 184.303 490.848 184.408C491.162 184.465 491.485 184.408 491.798 184.465C492.43 184.551 493.062 184.98 493.67 184.765L489.247 184.108Z" fill="#D3DAE1"/>
<path d="M487.708 184.889C488.216 184.67 488.763 185.08 489.309 185.185C489.622 185.247 489.941 185.185 490.259 185.247C490.896 185.333 491.527 185.762 492.131 185.542L487.708 184.889Z" fill="#D3DAE1"/>
<path opacity="0.1" d="M403.965 175.68L432.882 177.582L426.72 186.462L394.929 183.054L403.965 175.68Z" fill="black"/>
<path d="M403.4 175.113L432.316 177.01L426.155 185.895L394.359 182.487L403.4 175.113Z" fill="#3A3768"/>
<path d="M404.673 175.766L429.894 177.315L424.521 184.551L396.792 181.772L404.673 175.766Z" fill="#D5E1F4"/>
<path d="M387.761 248.335C387.761 248.469 387.761 248.607 387.737 248.74C387.713 248.874 387.737 248.979 387.699 249.098C387.598 249.938 387.365 250.757 387.01 251.524V251.524C375.062 250.175 363.086 248.555 351.096 246.891L349.4 246.653L346.355 246.228L343.789 245.871C340.982 245.8 338.182 245.537 335.409 245.084C333.663 244.825 331.933 244.459 330.231 243.988C322.63 242.944 314.987 241.938 307.367 241.023L306.374 240.904C306.554 240.093 306.706 239.603 306.706 239.603C306.706 239.603 308.341 233.158 309.699 225.955C309.999 224.392 310.284 222.8 310.531 221.222C310.73 219.959 310.911 218.71 311.063 217.508C311.148 216.846 311.22 216.198 311.281 215.564C311.315 215.249 311.343 214.934 311.367 214.61C311.391 214.286 311.419 213.933 311.443 213.604C311.467 213.276 311.476 212.985 311.49 212.685V212.236C311.49 211.593 311.49 210.921 311.467 210.23C311.226 206.787 310.686 203.372 309.851 200.024C309.718 199.452 309.581 198.88 309.438 198.322C309.395 198.141 309.348 197.965 309.3 197.788C307.766 191.825 305.975 186.953 305.975 186.953C305.973 186.926 305.973 186.899 305.975 186.872C305.977 186.853 305.977 186.834 305.975 186.815C305.977 186.775 305.977 186.736 305.975 186.696C305.975 186.543 305.975 186.31 305.975 186.029C305.975 185.971 305.975 185.909 305.975 185.847C306.01 185.347 306.096 184.852 306.231 184.37C306.283 184.198 306.343 184.03 306.412 183.865C306.582 183.385 306.865 182.954 307.237 182.609C307.61 182.263 308.06 182.014 308.55 181.882V181.882C309.894 181.534 311.927 181.882 314.996 183.707C315.496 183.997 315.973 184.325 316.421 184.689C316.649 184.87 316.896 185.061 317.086 185.266C320.602 188.55 322.474 193.97 323.471 198.918C323.509 199.094 323.543 199.271 323.576 199.447C323.695 200.057 323.794 200.653 323.885 201.239C324.046 202.269 324.174 203.261 324.269 204.181C324.269 204.428 324.322 204.657 324.345 204.91C324.369 205.163 324.393 205.387 324.407 205.615C324.469 206.359 324.512 207.045 324.54 207.627C324.621 209.171 324.607 210.12 324.607 210.12V210.168C324.607 210.168 324.607 210.239 324.583 210.373C324.58 210.385 324.58 210.398 324.583 210.411C324.583 210.468 324.583 210.539 324.583 210.62C324.583 210.702 324.583 210.759 324.583 210.84C324.564 211.04 324.54 211.274 324.512 211.54C324.469 211.95 324.421 212.432 324.364 212.97C324.326 213.371 324.279 213.805 324.231 214.262C324.127 215.216 324.013 216.322 323.889 217.485C323.861 217.704 323.837 217.923 323.813 218.142C323.704 219.139 323.59 220.178 323.471 221.227C323.343 222.418 323.2 223.61 323.063 224.787C323.029 225.045 322.996 225.302 322.968 225.555C322.616 228.415 322.265 231.013 321.98 232.629C321.935 232.868 321.903 233.11 321.885 233.353C321.88 233.436 321.88 233.519 321.885 233.601C321.87 233.817 321.87 234.034 321.885 234.249C322.117 238.32 326.502 239.016 326.502 239.016L346.412 238.621L349.367 238.563L351.086 238.53L366.606 238.22L368.032 238.192L375.751 238.039C376.275 238.027 376.798 238.089 377.305 238.225C379.688 238.867 381.962 239.865 384.051 241.185C384.703 241.605 385.29 242.119 385.794 242.71C385.819 242.734 385.841 242.759 385.861 242.787C386.914 244.053 387.564 245.607 387.728 247.248C387.728 247.358 387.728 247.468 387.728 247.577C387.766 247.806 387.766 248.064 387.761 248.335Z" fill="#3A3768"/>
<path opacity="0.1" d="M387.761 248.335C387.761 248.469 387.761 248.607 387.737 248.74C387.713 248.874 387.737 248.979 387.699 249.098C387.586 249.938 387.345 250.757 386.986 251.524C375.039 250.175 363.062 248.555 351.072 246.891L349.376 246.653L346.331 246.228L343.766 245.871C340.958 245.8 338.158 245.537 335.386 245.084C333.639 244.825 331.91 244.459 330.208 243.988C322.607 242.944 314.963 241.938 307.343 241.023L306.35 240.904C306.531 240.065 306.692 239.555 306.692 239.555C306.692 239.555 308.027 234.311 309.296 227.957C309.386 227.519 309.471 227.08 309.557 226.637L309.685 225.965C309.98 224.406 310.265 222.804 310.516 221.231C310.716 219.968 310.896 218.719 311.048 217.518C311.134 216.855 311.205 216.207 311.267 215.573C311.3 215.259 311.329 214.944 311.353 214.62C311.376 214.296 311.405 213.943 311.429 213.614C311.452 213.285 311.462 212.994 311.476 212.694V212.246C311.476 211.602 311.476 210.93 311.452 210.239C311.219 206.797 310.683 203.381 309.851 200.033C309.718 199.455 309.581 198.888 309.438 198.332C309.391 198.151 309.348 197.974 309.3 197.798C307.761 191.815 305.975 186.915 305.975 186.915C305.976 186.904 305.976 186.893 305.975 186.882C305.977 186.863 305.977 186.844 305.975 186.825C305.977 186.785 305.977 186.745 305.975 186.706C305.975 186.553 305.975 186.319 305.975 186.038C305.975 185.981 305.975 185.919 305.975 185.857C306.005 185.357 306.086 184.862 306.217 184.379C306.269 184.212 306.326 184.041 306.393 183.874C306.564 183.368 306.86 182.914 307.254 182.555C307.648 182.195 308.127 181.942 308.645 181.82C309.989 181.505 311.999 181.896 315.001 183.66C315.521 183.966 316.017 184.314 316.483 184.699V184.699C316.706 184.885 316.92 185.071 317.129 185.271C320.616 188.574 322.474 193.984 323.462 198.918C323.5 199.094 323.533 199.276 323.566 199.452C323.685 200.057 323.785 200.658 323.875 201.239C324.037 202.269 324.16 203.256 324.255 204.171C324.279 204.424 324.307 204.672 324.326 204.91C324.345 205.148 324.374 205.387 324.388 205.615C324.45 206.359 324.493 207.045 324.521 207.627C324.602 209.171 324.588 210.12 324.588 210.12V210.282C324.588 210.311 324.588 210.339 324.588 210.373C324.585 210.385 324.585 210.398 324.588 210.411C324.588 210.468 324.588 210.539 324.588 210.62C324.588 210.702 324.588 210.759 324.588 210.84C324.569 211.04 324.545 211.274 324.516 211.54C324.474 211.95 324.426 212.432 324.369 212.971C324.322 213.366 324.279 213.8 324.231 214.262C324.127 215.216 324.013 216.322 323.889 217.485C323.861 217.704 323.837 217.923 323.813 218.142C323.704 219.139 323.585 220.187 323.471 221.236C323.333 222.428 323.196 223.619 323.053 224.792C323.02 225.05 322.991 225.307 322.958 225.56C322.611 228.42 322.265 230.979 321.98 232.586C321.933 232.843 321.901 233.102 321.885 233.363C321.88 233.445 321.88 233.528 321.885 233.611C321.87 233.827 321.87 234.043 321.885 234.259C322.155 238.282 326.502 238.954 326.502 238.954L346.412 238.563L349.362 238.501L351.086 238.468L366.635 238.163L368.089 238.134L375.78 237.982C376.304 237.965 376.828 238.027 377.333 238.168C379.735 238.792 382.027 239.781 384.131 241.099C384.795 241.525 385.391 242.049 385.899 242.653C385.923 242.676 385.945 242.702 385.965 242.73C387.017 244.001 387.66 245.564 387.808 247.21C387.808 247.32 387.808 247.43 387.808 247.539C387.765 247.806 387.765 248.064 387.761 248.335Z" fill="black"/>
<path d="M387.794 251.596L387.01 251.505C375.063 250.156 363.086 248.535 351.096 246.872L349.4 246.634L346.355 246.209L343.79 245.852C340.982 245.781 338.182 245.518 335.41 245.065C333.663 244.806 331.934 244.44 330.231 243.969C322.631 242.925 314.987 241.919 307.367 241.004C307.491 240.335 307.649 239.673 307.842 239.021C307.842 239.021 312.355 221.188 312.635 211.707C312.735 208.318 312.065 204.123 311.158 200.124C311.025 199.547 310.892 198.975 310.749 198.413L310.621 197.879C309.011 191.611 307.096 186.367 307.096 186.367C307.051 185.718 307.088 185.066 307.205 184.427C307.235 184.255 307.273 184.085 307.319 183.917C307.502 183.118 307.931 182.397 308.545 181.858C308.573 181.833 308.603 181.81 308.635 181.791C309.885 180.838 312.127 180.771 316.117 183.116C316.926 183.595 317.674 184.169 318.346 184.827C318.536 185.009 318.726 185.199 318.906 185.395C322.113 188.879 323.813 194.218 324.707 198.994L324.806 199.523C324.911 200.119 325.001 200.706 325.087 201.273C325.087 201.273 325.087 201.306 325.087 201.32C325.196 202.074 325.286 202.793 325.362 203.48C325.584 205.501 325.699 207.533 325.704 209.567C325.704 209.567 325.519 211.45 325.229 214.162C325.12 215.225 324.992 216.417 324.854 217.675C324.854 217.737 324.854 217.799 324.854 217.866L324.783 218.533C324.54 220.731 324.274 223.076 324.003 225.25C323.975 225.517 323.942 225.779 323.908 226.036C323.604 228.482 323.3 230.655 323.049 232.071C322.06 237.591 327.562 238.439 327.562 238.439L346.345 238.068L349.291 238.01L351.015 237.972H351.737H351.97L366.868 237.677H368.293L376.844 237.505C377.368 237.492 377.892 237.556 378.397 237.696C380.8 238.32 383.093 239.307 385.2 240.623C385.791 241.005 386.329 241.464 386.801 241.986C386.831 242.015 386.858 242.047 386.882 242.081C387.999 243.376 388.686 244.988 388.85 246.693C389.013 248.397 388.644 250.111 387.794 251.596Z" fill="#3A3768"/>
<path d="M454.948 165.431L460.758 177.92H459.784L452.972 165.579L454.948 165.431Z" fill="#4C4C56"/>
<path opacity="0.1" d="M454.948 165.431L460.758 177.92H459.784L452.972 165.579L454.948 165.431Z" fill="black"/>
<path d="M454.948 177.92H460.758V179.226L454.948 179.374V177.92Z" fill="#4C4C56"/>
<path opacity="0.1" d="M454.948 177.92H460.758V179.226L454.948 179.374V177.92Z" fill="black"/>
<path d="M409.756 119.475V163.086C409.756 163.945 410.096 164.768 410.701 165.375C411.306 165.982 412.126 166.323 412.981 166.323H485.428C485.854 166.323 486.276 166.238 486.669 166.072C487.062 165.906 487.419 165.664 487.717 165.359C488.016 165.053 488.251 164.691 488.408 164.294C488.566 163.896 488.643 163.471 488.634 163.043L487.813 119.394C487.796 118.551 487.451 117.749 486.852 117.159C486.252 116.568 485.446 116.238 484.606 116.238H412.981C412.558 116.238 412.138 116.322 411.747 116.484C411.356 116.647 411 116.886 410.701 117.186C410.401 117.487 410.163 117.843 410.001 118.236C409.839 118.629 409.756 119.05 409.756 119.475V119.475Z" fill="#4C4C56"/>
<path opacity="0.1" d="M409.756 119.475V163.086C409.756 163.945 410.096 164.768 410.701 165.375C411.306 165.982 412.126 166.323 412.981 166.323H485.428C485.854 166.323 486.276 166.238 486.669 166.072C487.062 165.906 487.419 165.664 487.717 165.359C488.016 165.053 488.251 164.691 488.408 164.294C488.566 163.896 488.643 163.471 488.634 163.043L487.813 119.394C487.796 118.551 487.451 117.749 486.852 117.159C486.252 116.568 485.446 116.238 484.606 116.238H412.981C412.558 116.238 412.138 116.322 411.747 116.484C411.356 116.647 411 116.886 410.701 117.186C410.401 117.487 410.163 117.843 410.001 118.236C409.839 118.629 409.756 119.05 409.756 119.475V119.475Z" fill="black"/>
<path d="M407.143 119.475V163.086C407.143 163.945 407.483 164.768 408.088 165.375C408.693 165.982 409.513 166.323 410.369 166.323H482.815C483.241 166.323 483.663 166.238 484.056 166.072C484.449 165.906 484.805 165.664 485.103 165.358C485.401 165.053 485.636 164.691 485.793 164.293C485.95 163.896 486.026 163.471 486.017 163.043L485.195 119.394C485.179 118.552 484.835 117.75 484.236 117.16C483.637 116.57 482.832 116.239 481.993 116.238H410.388C409.963 116.236 409.541 116.317 409.148 116.479C408.754 116.641 408.396 116.879 408.095 117.179C407.793 117.48 407.554 117.838 407.391 118.232C407.227 118.626 407.143 119.048 407.143 119.475V119.475Z" fill="#4C4C56"/>
<path d="M409.994 122.201V160.598C409.994 161.456 410.333 162.28 410.938 162.887C411.543 163.493 412.364 163.834 413.219 163.834H480.302C481.152 163.834 481.968 163.496 482.569 162.892C483.171 162.289 483.509 161.47 483.509 160.617V122.178C483.507 121.325 483.169 120.508 482.568 119.905C481.967 119.303 481.152 118.965 480.302 118.965H413.219C412.364 118.965 411.543 119.306 410.938 119.913C410.333 120.52 409.994 121.343 409.994 122.201V122.201Z" fill="#EF5B59"/>
<path d="M439.02 165.608L445.39 177.92H459.784L452.587 163.834L439.02 165.608Z" fill="#4C4C56"/>
<path d="M433.946 177.92L432.882 179.226H454.948V177.92H433.946Z" fill="#4C4C56"/>
<path d="M339.408 126.474C339.797 128.585 340.187 130.698 340.901 132.712C340.905 132.726 340.91 132.74 340.915 132.754C340.923 132.774 340.931 132.796 340.939 132.827C340.849 132.794 340.767 132.744 340.697 132.679C340.557 132.529 340.454 132.347 340.398 132.15C339.672 130.12 339.276 127.996 338.881 125.877C338.4 123.292 337.92 120.715 336.844 118.326C336.533 117.709 336.261 117.072 336.032 116.419C335.988 116.281 335.952 116.141 335.922 116L336.032 115.933L336.151 115.885L336.269 115.852L336.388 115.823C336.414 116.245 336.487 116.662 336.607 117.068C336.835 117.719 337.103 118.356 337.409 118.974C338.462 121.346 338.935 123.908 339.408 126.474Z" fill="url(#paint1_linear)"/>
<path d="M356.787 135.219C356.039 136.065 355.424 137.02 354.963 138.051C354.892 138.208 354.82 138.361 354.754 138.528C352.654 143.294 351.941 150.039 351.941 150.039C351.941 150.039 350.64 149.453 348.797 148.538C345.362 146.831 340.06 143.99 337.918 141.726C336.968 140.701 336.626 139.796 337.414 139.162C337.585 139.023 337.761 138.866 337.937 138.685C338.544 138.076 339.099 137.415 339.595 136.711C340.279 135.758 340.953 134.695 341.59 133.604C341.965 132.965 342.322 132.321 342.654 131.697L342.787 131.449C344.212 128.737 345.253 126.42 345.253 126.42C345.253 126.42 345.728 126.573 346.497 126.844C350.046 128.117 359.818 131.983 356.787 135.219Z" fill="#EFB7B9"/>
<path d="M421.813 245.661C421.813 245.661 422.393 249.98 423.129 254.537L421.442 254.451C416.933 254.216 412.418 253.916 407.899 253.55C405.333 247.587 402.673 240.508 402.673 240.399C402.673 240.289 402.592 237.958 402.502 235.355C402.473 234.44 402.44 233.496 402.412 232.61C402.364 231.265 402.321 230.055 402.298 229.302C402.298 228.787 402.269 228.482 402.269 228.482C402.269 228.482 399.827 228.911 397.633 229.211L396.659 229.34C396.155 229.402 395.709 229.449 395.305 229.478C394.957 229.531 394.603 229.531 394.255 229.478C393.504 229.187 395.063 221.851 395.063 221.851L398.939 212.437L400.022 209.815L400.497 209.696C400.73 209.639 401.044 209.572 401.419 209.5C405.12 208.819 415.005 207.951 416.682 217.742C418.758 229.835 419.058 232.553 419.058 232.553L421.813 245.661Z" fill="#EFB7B9"/>
<path opacity="0.05" d="M421.813 245.661C421.813 245.661 422.393 249.98 423.129 254.537L421.442 254.451C416.933 254.216 412.418 253.916 407.899 253.55C405.333 247.587 402.673 240.508 402.673 240.399C402.673 240.289 402.592 237.958 402.502 235.355C402.473 234.44 402.44 233.496 402.412 232.61C402.364 231.265 402.321 230.055 402.298 229.302C402.298 228.787 402.269 228.482 402.269 228.482C402.269 228.482 399.827 228.911 397.633 229.211L396.659 229.34C396.155 229.402 395.709 229.449 395.305 229.478C394.957 229.531 394.603 229.531 394.255 229.478C393.504 229.187 395.063 221.851 395.063 221.851L398.939 212.437L400.022 209.815L400.497 209.696C400.73 209.639 401.044 209.572 401.419 209.5C405.12 208.819 415.005 207.951 416.682 217.742C418.758 229.835 419.058 232.553 419.058 232.553L421.813 245.661Z" fill="black"/>
<path d="M421.442 254.451C416.933 254.216 412.418 253.916 407.899 253.55L406.188 253.412L405.433 253.35C403.305 248.197 401.414 243.159 401.414 243.068C401.414 242.977 401.333 240.627 401.243 238.025C401.134 234.774 401.01 231.151 401.01 231.151L400.692 231.203L400.559 231.227H400.502H400.388L399.623 231.356L399.205 231.423C398.45 231.547 397.538 231.685 396.644 231.814L396.445 231.842L395.922 231.909L395.447 231.966C395.082 232.014 394.735 232.052 394.421 232.081L394.036 232.114C393.689 232.17 393.334 232.17 392.987 232.114C392.236 231.823 393.794 224.487 393.794 224.487L398.754 212.451L398.925 212.403C399.186 212.337 399.737 212.208 400.483 212.079C400.763 212.031 401.072 211.984 401.405 211.941C405.709 211.388 413.899 211.545 415.414 220.378C417.49 232.471 417.789 235.189 417.789 235.189L420.559 248.335C420.559 248.335 420.92 251.052 421.442 254.451Z" fill="#EFB7B9"/>
<path opacity="0.1" d="M401.243 238.025C401.134 234.774 401.01 231.146 401.01 231.146C401.01 231.146 396.26 231.98 394.046 232.143L394.492 230.627C394.492 230.627 402.625 228.372 402.796 229.645C402.92 230.536 401.875 235.274 401.243 238.025Z" fill="black"/>
<path opacity="0.1" d="M401.414 209.476V212.923C401.414 212.923 401.01 219.12 397.837 228.601C397.77 228.806 397.699 229.006 397.623 229.206C397.29 230.118 396.897 231.007 396.445 231.866C395.552 231.99 394.687 232.095 394.046 232.143C393.698 232.196 393.344 232.196 392.996 232.143C392.245 231.852 393.799 224.516 393.799 224.516L398.758 212.484L398.934 212.437L400.012 209.81C400.012 209.81 400.545 209.639 401.414 209.476Z" fill="black"/>
<path d="M400.492 208.933V212.923C400.492 212.923 400.089 219.12 396.915 228.606C396.834 228.853 396.744 229.082 396.654 229.335C396.564 229.588 396.445 229.888 396.326 230.155C396.065 230.789 395.77 231.404 395.462 231.995C392.977 236.719 389.191 240.098 386.787 241.957C386.435 242.229 386.108 242.467 385.837 242.668H385.813C385.338 242.992 384.996 243.225 384.777 243.364C384.559 243.502 384.54 243.511 384.54 243.511C382.288 242.124 375.889 241.891 375.889 241.891L360.953 244.612C357.689 245.177 354.394 245.552 351.086 245.737L349.39 245.818C348.412 245.857 347.395 245.88 346.355 245.885C345.514 245.885 344.659 245.885 343.79 245.852C340.982 245.781 338.182 245.518 335.41 245.065C333.885 244.814 332.375 244.478 330.887 244.06C329.826 243.765 328.781 243.414 327.756 243.011C317.305 238.892 320.027 229.125 321.79 224.897C321.885 224.673 321.975 224.468 322.06 224.277C322.45 223.415 322.74 222.909 322.74 222.909L323.433 221.227L324.569 218.467L324.82 217.861L324.892 217.685L325.733 215.64L337.609 214.095L346.336 212.961L348.991 212.618L350.792 212.384L354.227 211.936L355.519 211.769C356.316 211.645 357.121 211.581 357.927 211.579C358.363 211.558 358.799 211.623 359.21 211.769C360.16 212.203 367.4 211.016 367.4 211.016C367.4 211.016 373.048 209.281 378.008 209.858C380.461 210.028 382.921 210.044 385.376 209.905V209.905L385.984 209.877L386.773 209.843H386.944C393.367 209.543 400.492 208.933 400.492 208.933Z" fill="#444053"/>
<path opacity="0.1" d="M357.761 220.907C357.761 220.907 352.06 233.925 351.823 234.154C351.585 234.383 351.595 238.444 351.823 238.206C352.051 237.968 359.956 220.388 359.956 220.388L357.761 220.907Z" fill="black"/>
<path opacity="0.1" d="M385.381 209.896C385.381 209.896 382.497 211.765 381.633 213.271C380.768 214.777 372.868 229.759 370.911 231.957C369.285 233.923 367.819 236.015 366.526 238.215C366.298 238.611 366.298 241.099 367.68 238.725C369.063 236.352 368.721 235.951 371.428 233.005C374.136 230.059 377.129 223.4 378.288 222.07C379.447 220.74 381.058 216.746 383.077 214.372L386.944 209.839L385.381 209.896Z" fill="black"/>
<path opacity="0.1" d="M386.074 235.603C386.074 235.603 384.055 234.216 382.155 236.585C380.255 238.954 386.074 235.603 386.074 235.603Z" fill="black"/>
<path opacity="0.1" d="M388.554 236.318C388.554 236.318 386.882 239.245 386.074 239.479C385.267 239.712 388.554 236.318 388.554 236.318Z" fill="black"/>
<path opacity="0.1" d="M386.074 237.048C386.074 237.048 384.749 239.364 383.594 239.131L386.074 237.048Z" fill="black"/>
<path d="M376.739 174.503C376.739 174.503 388.963 173.983 390.174 173.578C391.385 173.173 402.108 171.785 402.108 171.785C402.108 171.785 433.879 174.04 424.829 176.762C415.78 179.484 403.495 178.321 403.495 178.321C403.495 178.321 391.499 181.448 389.656 183.088C387.813 184.727 374.203 184.765 374.203 184.765L376.739 174.503Z" fill="#EFB7B9"/>
<path opacity="0.05" d="M376.739 174.503C376.739 174.503 388.963 173.983 390.174 173.578C391.385 173.173 402.108 171.785 402.108 171.785C402.108 171.785 433.879 174.04 424.829 176.762C415.78 179.484 403.495 178.321 403.495 178.321C403.495 178.321 391.499 181.448 389.656 183.088C387.813 184.727 374.203 184.765 374.203 184.765L376.739 174.503Z" fill="black"/>
<path d="M333.257 146.56C333.257 146.56 322.07 150.373 327.49 160.097C332.911 169.822 339.889 174.398 339.889 174.398L357.88 186.896C357.88 186.896 365.433 191.234 368.892 189.442L374.54 188.965L375.49 174.093C375.49 174.093 370.739 177.796 365.571 172.663C360.402 167.529 354.036 164.039 353.519 161.265C353.001 158.491 339.77 144.186 333.257 146.56Z" fill="#A36468"/>
<path d="M368.602 178.035C368.602 178.035 374.426 180.118 374.198 180.232C373.97 180.347 368.602 182.372 368.602 182.372L369.006 190.3L376.906 189.866C376.906 189.866 379.789 175.432 377.31 173.983L368.602 173.578V178.035Z" fill="#67647E"/>
<path opacity="0.1" d="M368.602 178.035C368.602 178.035 374.426 180.118 374.198 180.232C373.97 180.347 368.602 182.372 368.602 182.372L369.006 190.3L376.906 189.866C376.906 189.866 379.789 175.432 377.31 173.983L368.602 173.578V178.035Z" fill="black"/>
<path opacity="0.1" d="M356.787 135.219C356.039 136.065 355.424 137.02 354.963 138.051C354.892 138.208 354.82 138.361 354.754 138.528C350.511 138.528 347.462 135.219 344.858 132.259C344.383 131.711 343.181 132.541 342.787 131.926C342.744 131.854 342.702 131.783 342.654 131.711L342.787 131.463C344.212 128.751 345.253 126.434 345.253 126.434C345.253 126.434 345.728 126.587 346.497 126.859C350.046 128.117 359.818 131.983 356.787 135.219Z" fill="black"/>
<path d="M369.139 123.708C369.137 127.489 367.649 131.117 364.996 133.803C362.343 136.489 358.741 138.016 354.972 138.051H354.835C352.805 138.052 350.798 137.619 348.948 136.781C347.099 135.942 345.448 134.718 344.108 133.189C343.628 132.642 343.19 132.061 342.797 131.449C341.596 129.572 340.848 127.44 340.612 125.222C340.375 123.004 340.657 120.761 341.436 118.672C342.214 116.583 343.467 114.704 345.095 113.185C346.722 111.666 348.681 110.549 350.814 109.922C352.947 109.295 355.197 109.176 357.384 109.574C359.572 109.971 361.636 110.875 363.415 112.213C365.194 113.551 366.637 115.286 367.63 117.282C368.624 119.277 369.14 121.477 369.139 123.708Z" fill="#EFB7B9"/>
<path opacity="0.1" d="M354.592 212.689C354.592 212.689 353.504 214.024 352.303 215.268C351.395 216.221 350.426 217.094 349.804 217.318C348.379 217.842 341.847 222.814 341.847 222.814C341.847 222.814 336.659 226.346 335.333 227.385C334.008 228.424 329.219 227.791 329.219 227.791C329.219 227.791 324.611 226.78 321.756 224.93C322.034 224.251 322.351 223.589 322.706 222.947L325.704 215.654L337.581 214.115L354.592 212.689Z" fill="black"/>
<path d="M354.36 211.765C354.36 211.765 353.276 213.099 352.075 214.343C351.167 215.297 350.174 216.169 349.576 216.393C348.151 216.913 341.618 221.889 341.618 221.889C341.618 221.889 336.426 225.421 335.101 226.46C333.775 227.5 328.991 226.866 328.991 226.866C328.991 226.866 322.417 225.436 320.108 222.814C318.493 220.988 320.165 217.604 321.305 215.74C321.78 214.944 322.184 214.424 322.184 214.424L354.36 211.765Z" fill="#67647E"/>
<path d="M362.896 166.923C358.972 166.575 346.056 150.716 346.056 150.716L346.35 150.311L349.058 146.55H355.39L356.089 150.02C360.906 156.799 363.742 161.513 364.512 164.211C365.067 166.175 364.54 167.071 362.896 166.923Z" fill="#67647E"/>
<path opacity="0.1" d="M362.896 166.923C358.972 166.575 346.056 150.716 346.056 150.716L346.35 150.311C348.665 152.443 350.841 154.723 352.863 157.137C362.317 168.301 364.189 165.183 364.512 164.211C365.067 166.175 364.54 167.071 362.896 166.923Z" fill="black"/>
<path opacity="0.1" d="M354.359 211.765C354.359 211.765 353.276 213.099 352.074 214.343C351.441 214.59 350.772 214.735 350.093 214.772C348.592 214.715 345.134 217.089 345.134 217.089C345.134 217.089 339.025 216.741 337.87 217.375C336.716 218.009 332.274 218.128 332.274 218.128C324.146 220.454 321.899 216.922 321.305 215.745C321.78 214.949 322.184 214.429 322.184 214.429L354.359 211.765Z" fill="black"/>
<path d="M368.478 177.31C368.478 177.534 368.435 177.758 368.407 177.973C368.378 178.187 368.35 178.407 368.317 178.612C368.163 179.789 367.811 180.932 367.276 181.991C366.241 183.726 363.067 190.495 363.067 190.495L362.854 191.744L362.744 192.397L362.63 193.041L361.856 197.602L361.509 202.87C361.509 202.87 359.609 205.53 358.801 206.683C357.994 207.837 358.108 209.519 358.398 210.735C358.687 211.95 355.747 212.122 355.747 212.122C355.747 212.122 351.595 214.148 350.093 214.091C348.592 214.034 345.134 216.398 345.134 216.398C345.134 216.398 339.025 216.05 337.87 216.689C336.716 217.327 332.274 217.442 332.274 217.442C323.571 219.925 321.609 215.702 321.205 214.834C320.801 213.967 322.934 210.439 322.934 210.439C322.934 210.439 323.41 205.982 324.317 205.634C325.224 205.287 326.336 199.39 326.336 199.39C326.336 199.39 325.989 197.593 326.74 196.611C327.49 195.629 327.433 192.85 328.412 191.52C329.391 190.19 327.376 185.733 327.723 184.575C328.07 183.416 326.626 178.731 326.74 177.515C326.854 176.3 326.455 175.318 325.528 172.887C324.74 170.813 324.963 161.599 325.053 158.958C325.053 158.51 325.077 158.253 325.077 158.253C325.077 158.253 325.885 155.645 328.018 150.44C329.633 146.498 333.267 145.006 334.934 144.519C335.22 144.433 335.511 144.361 335.804 144.305C336.222 144.365 336.633 144.469 337.029 144.615C338.711 145.182 342.075 146.788 346.873 151.288C348.996 153.284 350.999 155.404 352.873 157.638C363.69 170.394 364.573 164.44 364.573 164.44C364.573 164.44 365.048 165.527 367.276 169.865C368.469 172.172 368.687 174.927 368.478 177.31Z" fill="#A36468"/>
<path opacity="0.1" d="M350.668 145.849L339.818 137.164C339.818 137.164 335.908 137.641 334.293 144.229L345.462 154.043L350.668 145.849Z" fill="black"/>
<path d="M350.668 145.849L348.768 148.514L346.839 151.245L345.386 153.386L336.469 145.849L334.934 144.515L334.075 143.781C334.944 140.22 336.488 138.442 337.718 137.584C338.277 137.155 338.928 136.863 339.619 136.731L350.668 145.849Z" fill="#67647E"/>
<path d="M425.286 180.232C416.231 182.949 403.951 181.796 403.951 181.796C403.951 181.796 391.956 184.918 390.112 186.562C388.925 187.606 382.858 187.993 378.711 188.15C376.407 188.236 374.682 188.24 374.682 188.24L377.215 177.978L378.678 177.911C381.96 177.758 389.699 177.367 390.649 177.048C391.861 176.643 402.583 175.256 402.583 175.256C402.583 175.256 434.335 177.51 425.286 180.232Z" fill="#EFB7B9"/>
<path opacity="0.1" d="M368.317 178.588C368.163 179.765 367.811 180.908 367.276 181.967C366.241 183.702 363.067 190.471 363.067 190.471L362.63 193.041C361.158 192.492 359.728 191.832 358.355 191.067L340.35 178.554C340.35 178.554 333.372 173.983 327.951 164.254C322.531 154.525 333.718 150.716 333.718 150.716C340.231 148.333 353.438 162.633 353.956 165.412C354.474 168.191 360.82 171.662 366.008 176.81C366.692 177.507 367.469 178.105 368.317 178.588V178.588Z" fill="black"/>
<path opacity="0.1" d="M368.478 177.31C368.435 177.763 368.383 178.197 368.317 178.611C368.163 179.789 367.811 180.932 367.276 181.991C366.241 183.726 363.067 190.495 363.067 190.495L362.854 191.744C361.297 191.18 359.787 190.492 358.341 189.685L340.35 177.167C340.35 177.167 333.372 172.596 327.951 162.867C322.531 153.138 333.718 149.324 333.718 149.324C340.231 146.941 353.438 161.241 353.956 164.02C354.474 166.799 360.82 170.27 366.008 175.423C366.733 176.172 367.565 176.809 368.478 177.31Z" fill="black"/>
<path d="M375.927 177.572L375.006 192.44L369.352 192.917C369.229 192.982 369.1 193.038 368.968 193.083C365.367 194.409 358.341 190.371 358.341 190.371L340.35 177.858C340.35 177.858 333.372 173.287 327.951 163.558C322.531 153.829 333.718 150.02 333.718 150.02C340.231 147.637 353.438 161.937 353.956 164.716C354.474 167.495 360.82 170.966 366.008 176.114C366.768 176.881 367.643 177.524 368.602 178.02C369.747 178.624 371.035 178.902 372.327 178.823C373.618 178.744 374.863 178.311 375.927 177.572V177.572Z" fill="#A36468"/>
<path opacity="0.1" d="M375.927 177.572L375.006 192.44L369.352 192.917C369.229 192.982 369.1 193.038 368.968 193.084L368.602 185.857C368.602 185.857 373.965 183.831 374.198 183.717C374.431 183.602 368.602 181.519 368.602 181.519V178.063C369.751 178.661 371.041 178.931 372.333 178.845C373.624 178.758 374.867 178.318 375.927 177.572Z" fill="black"/>
<path opacity="0.1" d="M378.687 188.126C376.383 188.212 374.659 188.217 374.659 188.217L377.215 177.978L378.678 177.911C379.618 179.536 379.214 184.313 378.687 188.126Z" fill="black"/>
<path d="M369.062 181.505C369.062 181.505 374.887 183.588 374.659 183.702C374.431 183.817 369.062 185.843 369.062 185.843L369.466 193.77L377.367 193.336C377.367 193.336 380.25 178.902 377.77 177.453L369.062 177.048V181.505Z" fill="#67647E"/>
<path opacity="0.1" d="M334.526 190.996C334.526 190.996 332.564 192.845 330.949 193.336L334.526 190.996Z" fill="black"/>
<path opacity="0.1" d="M329.856 196.492C329.856 196.492 334.64 196.315 335.215 195.333C335.79 194.351 329.856 196.492 329.856 196.492Z" fill="black"/>
<path opacity="0.1" d="M327.49 203.375C327.78 203.375 333.543 202.565 333.775 201.812L327.49 203.375Z" fill="black"/>
<path opacity="0.1" d="M325.704 207.775C327.78 207.713 331.296 205.458 331.296 205.458L325.704 207.775Z" fill="black"/>
<path opacity="0.1" d="M339.139 208.928C339.139 208.928 351.652 208.928 352.227 206.616C352.801 204.305 339.139 208.928 339.139 208.928Z" fill="black"/>
<path opacity="0.1" d="M348.535 176.586C348.768 176.586 358.398 176.586 359.319 175.256C360.241 173.926 348.535 176.586 348.535 176.586Z" fill="black"/>
<path opacity="0.1" d="M337.932 138.699C338.01 139.172 338.052 139.65 338.056 140.129C338.056 140.662 338.008 141.193 337.913 141.717C337.723 142.711 337.423 143.682 337.02 144.61L336.92 144.844C336.778 145.177 336.626 145.501 336.469 145.826C335.763 147.27 334.93 148.648 333.98 149.944C331.811 152.833 329.304 155.45 326.512 157.738C326.027 158.148 325.538 158.553 325.044 158.953C325.044 158.505 325.068 158.248 325.068 158.248C325.068 158.248 325.875 155.64 328.008 150.435C329.623 146.493 333.258 145.001 334.925 144.515L334.065 143.781C334.934 140.22 336.478 138.442 337.709 137.584C337.785 137.937 337.875 138.308 337.932 138.699Z" fill="black"/>
<path opacity="0.1" d="M367.048 116.257C366.902 116.294 366.761 116.35 366.63 116.424C365.728 116.924 365.466 118.111 364.73 118.86C363.88 119.742 362.55 119.875 361.338 120.028C360.127 120.18 358.773 120.481 358.132 121.524C357.656 122.301 357.699 123.279 357.528 124.175C357.51 124.336 357.445 124.488 357.343 124.613C357.18 124.746 356.973 124.814 356.763 124.804C354.388 124.971 352.659 124.151 350.436 123.574C349.39 123.307 348.174 123.341 347.376 124.051C346.654 124.704 346.455 125.772 346.474 126.749V126.835C346.576 127.784 346.605 128.741 346.559 129.695C346.45 130.433 346.168 131.134 345.736 131.742C345.304 132.349 344.734 132.845 344.075 133.189C343.52 133.487 342.907 133.663 342.279 133.704C342.036 133.729 341.791 133.693 341.566 133.599C341.989 132.874 342.393 132.169 342.763 131.449C341.733 129.85 341.029 128.061 340.694 126.187C340.36 124.312 340.4 122.389 340.813 120.531C341.226 118.672 342.003 116.914 343.1 115.36C344.197 113.806 345.59 112.486 347.201 111.478C348.811 110.47 350.604 109.793 352.478 109.487C354.351 109.181 356.266 109.253 358.112 109.697C359.957 110.142 361.696 110.95 363.227 112.075C364.758 113.201 366.051 114.621 367.029 116.252L367.048 116.257Z" fill="black"/>
<path d="M370.963 114.427C370.789 114.817 370.515 115.154 370.169 115.404C369.086 116.109 367.533 115.332 366.402 115.962C365.495 116.462 365.238 117.649 364.502 118.397C363.656 119.279 362.326 119.413 361.11 119.565C359.894 119.718 358.549 120.018 357.903 121.062C357.428 121.839 357.476 122.812 357.3 123.712C357.284 123.874 357.219 124.027 357.115 124.151C356.951 124.283 356.745 124.35 356.535 124.342C354.16 124.509 352.431 123.684 350.208 123.112C349.167 122.845 347.951 122.878 347.153 123.589C346.355 124.299 346.231 125.314 346.246 126.291C346.344 127.267 346.374 128.248 346.336 129.228C346.171 130.279 345.661 131.245 344.886 131.971C344.111 132.697 343.117 133.143 342.06 133.236C341.906 133.26 341.749 133.252 341.598 133.213C341.447 133.175 341.306 133.107 341.181 133.012C341.044 132.864 340.945 132.684 340.892 132.488C339.31 128.026 339.324 123.074 337.405 118.745C337.095 118.129 336.827 117.492 336.602 116.839C336.564 116.705 336.526 116.567 336.497 116.429C336.441 116.154 336.403 115.875 336.383 115.595C336.187 115.623 336.001 115.7 335.842 115.819C335.785 115.867 335.734 115.921 335.69 115.981C335.418 116.437 335.279 116.96 335.291 117.492C334.936 123.451 335.513 129.43 337.001 135.21C337.455 136.653 337.731 138.147 337.823 139.657C337.77 141.291 337.382 142.896 336.683 144.372C333.704 151.264 327.718 156.313 321.766 160.874C322.377 160.216 322.85 159.441 323.153 158.594C323.457 157.748 323.586 156.848 323.533 155.95C323.43 156.293 323.236 156.601 322.97 156.84C322.704 157.079 322.378 157.239 322.027 157.304C321.323 157.424 320.603 157.413 319.904 157.271C320.816 156.97 321.172 155.893 321.4 154.959C321.866 153.052 322.298 151.128 322.697 149.186C323.122 147.333 323.402 145.449 323.533 143.552C323.604 141.941 323.481 140.325 323.414 138.709C323.273 134.278 323.432 129.843 323.889 125.433C324.241 121.62 324.877 117.497 327.666 114.894C328.87 113.873 330.214 113.032 331.656 112.396C331.656 111.919 335.139 110.966 335.599 110.899C335.791 110.862 335.984 110.84 336.179 110.833C336.428 110.796 336.682 110.84 336.905 110.957C337.127 111.075 337.307 111.259 337.419 111.486C337.59 111.176 337.78 110.871 337.979 110.58C338.254 110.18 338.555 109.799 338.882 109.441C340.692 107.439 343.039 106.028 345.134 104.331C345.903 103.639 346.736 103.022 347.623 102.491C348.783 101.906 350.055 101.58 351.352 101.537C353.497 101.416 355.643 101.754 357.647 102.529C360.535 103.644 363.058 105.646 366.046 106.457C366.784 106.617 367.512 106.819 368.226 107.062C368.912 107.334 369.533 107.747 370.05 108.275C370.566 108.802 370.968 109.432 371.227 110.125C371.487 110.817 371.599 111.556 371.557 112.295C371.514 113.033 371.319 113.754 370.982 114.412L370.963 114.427Z" fill="#444053"/>
<g opacity="0.1">
<path opacity="0.1" d="M322.854 157.123C323.2 156.228 323.348 155.268 323.286 154.31C323.182 154.653 322.986 154.961 322.72 155.2C322.453 155.439 322.127 155.599 321.775 155.664C321.594 155.708 321.41 155.735 321.224 155.745C320.987 156.508 320.611 157.242 319.885 157.48C320.584 157.624 321.304 157.637 322.008 157.519C322.313 157.444 322.601 157.31 322.854 157.123Z" fill="black"/>
<path opacity="0.1" d="M371.305 110.628C371.27 111.381 371.075 112.119 370.735 112.792C370.555 113.173 370.28 113.501 369.937 113.745C368.858 114.451 367.3 113.678 366.169 114.303C365.267 114.803 365.006 115.995 364.269 116.739C363.419 117.621 362.089 117.759 360.877 117.907C359.666 118.054 358.312 118.383 357.671 119.403C357.196 120.18 357.238 121.157 357.067 122.054C357.064 122.148 357.04 122.24 356.999 122.324C356.957 122.408 356.899 122.483 356.826 122.542C356.754 122.602 356.67 122.646 356.58 122.671C356.49 122.696 356.395 122.702 356.303 122.688C353.927 122.854 352.198 122.03 349.975 121.453C348.93 121.186 347.713 121.219 346.915 121.93C346.193 122.587 345.994 123.65 346.013 124.632C346.112 125.606 346.141 126.586 346.098 127.564C345.94 128.618 345.431 129.588 344.655 130.316C343.879 131.044 342.882 131.489 341.823 131.578C341.669 131.6 341.512 131.592 341.361 131.553C341.21 131.515 341.069 131.447 340.944 131.354C340.807 131.203 340.707 131.022 340.654 130.825C339.072 126.363 339.082 121.41 337.162 117.087C336.857 116.468 336.591 115.831 336.364 115.18C336.243 114.775 336.168 114.358 336.141 113.936C335.868 113.968 335.619 114.107 335.447 114.322C335.18 114.78 335.042 115.302 335.048 115.833C334.827 119.653 334.986 123.485 335.523 127.273C335.18 124.085 335.102 120.874 335.291 117.673C335.28 117.142 335.418 116.618 335.69 116.162C335.773 116.053 335.877 115.963 335.997 115.897C336.116 115.83 336.248 115.789 336.383 115.776C336.409 116.197 336.483 116.615 336.602 117.02C336.829 117.672 337.097 118.309 337.405 118.927C339.305 123.255 339.305 128.203 340.892 132.664C340.947 132.861 341.048 133.043 341.186 133.194C341.306 133.295 341.446 133.37 341.596 133.415C341.747 133.461 341.904 133.474 342.06 133.456C343.117 133.362 344.111 132.917 344.886 132.19C345.661 131.464 346.171 130.498 346.336 129.447C346.374 128.467 346.344 127.486 346.246 126.511C346.246 125.529 346.431 124.466 347.153 123.808C347.951 123.083 349.167 123.055 350.208 123.331C352.431 123.903 354.151 124.728 356.535 124.561C356.745 124.57 356.951 124.502 357.115 124.37C357.219 124.244 357.284 124.09 357.3 123.927C357.476 123.031 357.424 122.054 357.903 121.281C358.55 120.237 359.899 119.932 361.11 119.78C362.322 119.627 363.656 119.499 364.507 118.617C365.224 117.868 365.481 116.681 366.407 116.176C367.533 115.552 369.091 116.329 370.174 115.623C370.52 115.373 370.794 115.036 370.968 114.646C371.592 113.4 371.713 111.961 371.305 110.628V110.628Z" fill="black"/>
<path opacity="0.1" d="M337.595 138.032C337.542 139.665 337.156 141.269 336.459 142.746C333.794 148.91 328.721 153.6 323.424 157.781C323.2 159.028 322.626 160.185 321.771 161.117C327.718 156.56 333.714 151.512 336.687 144.62C337.387 143.144 337.775 141.539 337.828 139.905C337.816 139.208 337.735 138.513 337.585 137.832C337.59 137.879 337.595 137.956 337.595 138.032Z" fill="black"/>
</g>
<path opacity="0.1" d="M338.189 110.575C337.761 112.549 337.172 115.113 336.73 116.434C336.676 116.158 336.638 115.879 336.616 115.599C336.421 115.628 336.237 115.705 336.079 115.823C336.079 114.436 336.246 112.372 336.388 110.828C336.638 110.791 336.892 110.835 337.116 110.952C337.339 111.069 337.52 111.254 337.633 111.481C337.785 111.176 337.989 110.871 338.189 110.575Z" fill="black"/>
<path d="M337.961 110.575C337.533 112.549 336.944 115.113 336.502 116.434C336.446 116.158 336.407 115.88 336.388 115.599C336.192 115.628 336.006 115.705 335.847 115.823C335.847 114.436 336.013 112.372 336.16 110.828C336.409 110.792 336.663 110.835 336.886 110.952C337.108 111.07 337.288 111.255 337.4 111.481C337.571 111.176 337.785 110.871 337.961 110.575Z" fill="#67647E"/>
<g opacity="0.7">
<path opacity="0.7" d="M434.697 3.59415H513.399V80.4061H434.697V3.59415Z" fill="#2E001E"/>
<path opacity="0.7" d="M431.138 -0.0143127V83.9955H516.996V-0.0143127H431.138ZM434.715 3.57984H513.418V80.4061H434.696L434.715 3.57984Z" fill="#FF2BC2"/>
<path opacity="0.7" d="M493.49 35.2885C492.832 35.0177 492.124 34.8941 491.414 34.9262C486.91 34.9262 483.903 38.4108 483.903 44.1881C483.903 50.7949 486.981 53.45 490.986 53.45C491.827 53.4754 492.665 53.3411 493.456 53.0543V35.2885H493.49ZM477.452 44.4789C477.452 36.1132 482.815 29.5779 491.618 29.5779C492.238 29.5644 492.858 29.5899 493.475 29.6542V20.3208C493.475 20.2247 493.513 20.1326 493.581 20.0646C493.649 19.9967 493.741 19.9585 493.836 19.9585H499.594C499.879 19.9585 499.95 20.0681 499.95 20.2493V53.0543C499.929 54.2297 499.989 55.4052 500.131 56.5722C500.131 56.8248 500.131 56.863 499.917 56.9679C497.056 58.3359 493.927 59.0475 490.758 59.0509C482.996 59.0509 477.456 54.2412 477.456 44.4789H477.452ZM465.252 38.6634L475.281 58.1405C475.461 58.4265 475.352 58.7125 475.067 58.7125H468.844C468.683 58.7328 468.52 58.6963 468.383 58.6094C468.246 58.5224 468.144 58.3903 468.093 58.2358C465.803 53.4976 463.466 48.5799 461.081 43.4826H461.01C458.863 48.2923 456.502 53.5358 454.212 58.2597C454.154 58.3817 454.063 58.4842 453.948 58.5545C453.833 58.6248 453.7 58.6598 453.566 58.6553H447.628C447.271 58.6553 447.238 58.3645 447.414 58.15L457.214 39.2354L447.737 20.4829C447.693 20.4363 447.664 20.3774 447.653 20.314C447.643 20.2505 447.652 20.1855 447.679 20.1273C447.707 20.0691 447.751 20.0205 447.806 19.9878C447.861 19.9552 447.925 19.94 447.989 19.9442H454.141C454.497 19.9442 454.677 20.0157 454.782 20.3399C457.038 25.1066 459.328 29.8162 461.475 34.6402H461.547C463.618 29.902 465.908 25.1066 468.093 20.4257C468.269 20.1349 468.378 19.949 468.734 19.949H474.497C474.782 19.949 474.886 20.1635 474.711 20.4876L465.266 38.6872L465.252 38.6634Z" fill="#FF2BC2"/>
</g>
<g opacity="0.7">
<path opacity="0.7" d="M108.479 34.5259L135.377 87.3466L90.1707 34.5259H108.479Z" fill="#EA6C00"/>
<path opacity="0.7" d="M162.28 34.5259L135.382 87.3466L180.588 34.5259H162.28Z" fill="#EA6C00"/>
<path opacity="0.7" d="M108.479 34.5259H162.27L135.377 87.3466L108.479 34.5259Z" fill="#FDAD00"/>
<path opacity="0.7" d="M135.377 5.25302L109.895 7.95579L108.47 34.5259L135.377 5.25302Z" fill="#FDD231"/>
<path opacity="0.7" d="M135.377 5.25302L160.854 7.95579L162.28 34.5259L135.377 5.25302Z" fill="#FDD231"/>
<path opacity="0.7" d="M180.588 34.5259L160.864 7.95581L162.289 34.5259H180.588Z" fill="#FDAD00"/>
<path opacity="0.7" d="M90.1707 34.5259L109.895 7.95581L108.47 34.5259H90.1707Z" fill="#FDAD00"/>
<path opacity="0.7" d="M135.377 5.25302L108.479 34.5259H162.27L135.377 5.25302Z" fill="#FEEEB7"/>
</g>
</g>
<defs>
<linearGradient id="paint0_linear" x1="24153.1" y1="71856.1" x2="59111.6" y2="71856.1" gradientUnits="userSpaceOnUse">
<stop stop-color="#808080" stop-opacity="0.25"/>
<stop offset="0.54" stop-color="#808080" stop-opacity="0.12"/>
<stop offset="1" stop-color="#808080" stop-opacity="0.1"/>
</linearGradient>
<linearGradient id="paint1_linear" x1="-108046" y1="45714.1" x2="-108046" y2="24880.4" gradientUnits="userSpaceOnUse">
<stop stop-color="#808080" stop-opacity="0.25"/>
<stop offset="0.54" stop-color="#808080" stop-opacity="0.12"/>
<stop offset="1" stop-color="#808080" stop-opacity="0.1"/>
</linearGradient>
<clipPath id="clip0">
<rect width="553" height="265" fill="white"/>
</clipPath>
</defs>
</svg>
