<svg width="472" height="341" viewBox="0 0 472 341" fill="none" xmlns="http://www.w3.org/2000/svg">
<g clip-path="url(#clip0)">
<path opacity="0.1" d="M150.693 12.8631C163.438 1.58732 183.438 -0.724209 201.64 0.173513C258.819 2.99678 310.433 30.4445 355.076 61.4918C371.241 72.7286 387.153 84.8413 397.644 100.319C419.017 131.822 412.666 175.472 382.97 201.424C372.864 210.258 360.616 217.036 348.041 223.025C325.682 233.698 301.556 242.264 276.184 244.71C258.086 246.444 239.767 245.035 221.778 242.611C171.517 235.823 122.18 220.835 80.8294 195.218C62.6929 183.968 45.5944 169.99 38.1182 151.793C30.642 133.596 35.427 110.546 53.9474 99.7773C61.6068 95.3234 70.7667 93.3111 79.7303 91.4246C92.9292 88.6447 106.338 85.9038 118.25 80.2529C130.55 74.4156 145.114 63.1225 142.676 50.2031C140.068 36.3166 137.97 24.1388 150.693 12.8631Z" fill="#EF5B59"/>
<path opacity="0.1" d="M370.949 310.087C397.318 310.087 418.694 308.724 418.694 307.043C418.694 305.361 397.318 303.998 370.949 303.998C344.58 303.998 323.204 305.361 323.204 307.043C323.204 308.724 344.58 310.087 370.949 310.087Z" fill="#EF5B59"/>
<path opacity="0.1" d="M246.85 289.713C273.219 289.713 294.595 288.35 294.595 286.668C294.595 284.987 273.219 283.624 246.85 283.624C220.481 283.624 199.105 284.987 199.105 286.668C199.105 288.35 220.481 289.713 246.85 289.713Z" fill="#EF5B59"/>
<path opacity="0.1" d="M71.5649 338.008C97.9336 338.008 119.31 336.645 119.31 334.963C119.31 333.282 97.9336 331.919 71.5649 331.919C45.1961 331.919 23.8201 333.282 23.8201 334.963C23.8201 336.645 45.1961 338.008 71.5649 338.008Z" fill="#EF5B59"/>
<path opacity="0.1" d="M162.291 341C173.141 341 181.937 340.439 181.937 339.747C181.937 339.054 173.141 338.493 162.291 338.493C151.441 338.493 142.646 339.054 142.646 339.747C142.646 340.439 151.441 341 162.291 341Z" fill="#EF5B59"/>
<path opacity="0.1" d="M456.686 308.452C465.141 308.452 471.996 308.015 471.996 307.476C471.996 306.937 465.141 306.501 456.686 306.501C448.23 306.501 441.375 306.937 441.375 307.476C441.375 308.015 448.23 308.452 456.686 308.452Z" fill="#EF5B59"/>
<path opacity="0.1" d="M316.169 287.969C323.338 287.969 329.149 287.599 329.149 287.141C329.149 286.684 323.338 286.313 316.169 286.313C308.999 286.313 303.188 286.684 303.188 287.141C303.188 287.599 308.999 287.969 316.169 287.969Z" fill="#EF5B59"/>
<path d="M458.888 284.058C458.888 284.058 460.938 286.725 457.946 290.749C454.954 294.774 452.476 298.17 453.475 300.676C453.475 300.676 457.998 293.204 461.676 293.1C465.353 292.996 462.94 288.555 458.888 284.058Z" fill="#EF5B59"/>
<path opacity="0.1" d="M458.888 284.058C459.073 284.315 459.219 284.597 459.325 284.895C462.914 289.088 464.825 293 461.375 293.1C458.16 293.191 454.304 298.907 453.379 300.351C453.409 300.462 453.446 300.57 453.488 300.676C453.488 300.676 458.012 293.204 461.689 293.1C465.366 292.996 462.941 288.555 458.888 284.058Z" fill="black"/>
<path d="M462.705 287.453C462.705 288.394 462.6 289.153 462.469 289.153C462.338 289.153 462.234 288.394 462.234 287.453C462.234 286.512 462.365 286.959 462.495 286.959C462.626 286.959 462.705 286.516 462.705 287.453Z" fill="#FFD037"/>
<path d="M464.014 288.577C463.185 289.01 462.465 289.296 462.4 289.184C462.334 289.071 462.958 288.611 463.787 288.16C464.615 287.709 464.288 288.039 464.349 288.16C464.41 288.282 464.842 288.126 464.014 288.577Z" fill="#FFD037"/>
<path d="M448.066 284.058C448.066 284.058 446.016 286.725 449.013 290.749C452.01 294.774 454.478 298.17 453.479 300.676C453.479 300.676 448.961 293.204 445.279 293.1C441.598 292.996 444.019 288.555 448.066 284.058Z" fill="#EF5B59"/>
<path opacity="0.1" d="M448.067 284.058C447.881 284.314 447.734 284.596 447.63 284.895C444.041 289.088 442.126 293 445.576 293.1C448.791 293.191 452.651 298.907 453.571 300.351C453.541 300.462 453.505 300.57 453.462 300.676C453.462 300.676 448.943 293.204 445.262 293.1C441.581 292.996 444.019 288.555 448.067 284.058Z" fill="black"/>
<path d="M444.254 287.453C444.254 288.394 444.359 289.153 444.49 289.153C444.621 289.153 444.73 288.394 444.73 287.453C444.73 286.512 444.595 286.959 444.464 286.959C444.333 286.959 444.254 286.516 444.254 287.453Z" fill="#FFD037"/>
<path d="M442.946 288.577C443.774 289.01 444.499 289.296 444.56 289.184C444.621 289.071 444.001 288.611 443.172 288.16C442.344 287.709 442.671 288.039 442.61 288.16C442.549 288.282 442.117 288.126 442.946 288.577Z" fill="#FFD037"/>
<path d="M444.93 300.329C444.93 300.329 450.662 300.156 452.389 298.933C454.116 297.71 461.204 296.248 461.636 298.208C462.068 300.169 470.246 307.962 463.778 308.014C457.309 308.066 448.743 307.012 447.015 305.971C445.288 304.931 444.93 300.329 444.93 300.329Z" fill="#A8A8A8"/>
<path opacity="0.2" d="M463.87 307.333C457.401 307.385 448.834 306.332 447.111 305.286C445.803 304.493 445.275 301.639 445.101 300.321H444.909C444.909 300.321 445.271 304.918 446.994 305.959C448.716 306.999 457.283 308.053 463.756 308.001C465.623 308.001 466.269 307.329 466.234 306.349C465.972 306.952 465.261 307.32 463.87 307.333Z" fill="black"/>
<path d="M318.472 267.118C318.472 267.118 320.216 269.395 317.66 272.838C315.104 276.282 312.984 279.187 313.839 281.334C313.839 281.334 317.704 274.942 320.853 274.829C324.002 274.716 321.926 270.96 318.472 267.118Z" fill="#EF5B59"/>
<path opacity="0.1" d="M318.472 267.118C318.624 267.339 318.744 267.58 318.829 267.834C321.883 271.42 323.536 274.772 320.574 274.85C317.826 274.929 314.524 279.82 313.735 281.056C313.761 281.151 313.793 281.244 313.831 281.334C313.831 281.334 317.695 274.942 320.844 274.829C323.994 274.716 321.926 270.96 318.472 267.118Z" fill="black"/>
<path d="M321.731 270.024C321.731 270.826 321.639 271.476 321.53 271.476C321.421 271.476 321.324 270.826 321.324 270.024C321.324 269.221 321.438 269.59 321.552 269.59C321.665 269.59 321.731 269.221 321.731 270.024Z" fill="#FFD037"/>
<path d="M322.851 270.982C322.14 271.364 321.542 271.598 321.468 271.498C321.394 271.398 321.948 271.012 322.655 270.631C323.361 270.249 323.091 270.527 323.139 270.631C323.187 270.735 323.558 270.596 322.851 270.982Z" fill="#FFD037"/>
<path d="M309.207 267.118C309.207 267.118 307.462 269.395 310.014 272.838C312.566 276.282 314.694 279.187 313.839 281.334C313.839 281.334 309.97 274.942 306.821 274.829C303.672 274.716 305.744 270.96 309.207 267.118Z" fill="#EF5B59"/>
<path opacity="0.1" d="M309.207 267.118C309.052 267.338 308.93 267.579 308.845 267.834C305.792 271.42 304.139 274.772 307.1 274.85C309.853 274.929 313.15 279.82 313.94 281.056C313.914 281.148 313.883 281.243 313.848 281.334C313.848 281.334 309.979 274.942 306.83 274.829C303.681 274.716 305.744 270.96 309.207 267.118Z" fill="black"/>
<path d="M305.944 270.024C305.944 270.826 306.036 271.476 306.15 271.476C306.264 271.476 306.351 270.826 306.351 270.024C306.351 269.221 306.237 269.59 306.124 269.59C306.01 269.59 305.944 269.221 305.944 270.024Z" fill="#FFD037"/>
<path d="M304.828 270.982C305.534 271.364 306.136 271.598 306.206 271.498C306.276 271.398 305.731 271.012 305.02 270.631C304.309 270.249 304.584 270.527 304.536 270.631C304.488 270.735 304.117 270.596 304.828 270.982Z" fill="#FFD037"/>
<path d="M306.503 281.039C306.503 281.039 311.406 280.887 312.884 279.842C314.363 278.797 320.43 277.544 320.797 279.222C321.163 280.9 328.164 287.57 322.628 287.614C317.093 287.657 309.765 286.746 308.291 285.879C306.817 285.012 306.503 281.039 306.503 281.039Z" fill="#A8A8A8"/>
<path opacity="0.2" d="M322.729 287.028C317.189 287.076 309.861 286.161 308.387 285.294C307.266 284.613 306.817 282.171 306.669 281.043H306.503C306.503 281.043 306.812 284.973 308.291 285.866C309.77 286.759 317.093 287.661 322.629 287.601C324.225 287.601 324.779 287.024 324.748 286.187C324.543 286.725 323.915 287.02 322.729 287.028Z" fill="black"/>
<g opacity="0.8">
<path opacity="0.8" d="M64.4594 269.651C70.9097 269.653 77.2144 271.557 82.5765 275.122C87.9386 278.687 92.1173 283.752 94.5843 289.678C97.0513 295.603 97.6959 302.123 96.4366 308.413C95.1772 314.703 92.0705 320.48 87.5092 325.015C82.9478 329.549 77.1367 332.638 70.8103 333.889C64.484 335.14 57.9266 334.498 51.967 332.045C46.0075 329.591 40.9135 325.436 37.3289 320.104C33.7443 314.772 31.8302 308.503 31.8284 302.09C31.8256 297.829 32.6677 293.609 34.3066 289.672C35.9455 285.734 38.349 282.157 41.3797 279.144C44.4104 276.131 48.0088 273.742 51.969 272.113C55.9293 270.484 60.1737 269.647 64.4594 269.651V269.651Z" fill="#E74D89"/>
<path opacity="0.8" d="M64.4594 336.819C57.5506 336.812 50.7992 334.768 45.0583 330.946C39.3175 327.125 34.8449 321.697 32.2058 315.348C29.5667 309 28.8795 302.017 30.2312 295.28C31.5828 288.544 34.9126 282.357 39.7997 277.501C44.6868 272.646 50.9118 269.34 57.6881 268.001C64.4644 266.662 71.4878 267.351 77.8707 269.979C84.2536 272.608 89.7095 277.059 93.5489 282.77C97.3883 288.481 99.4389 295.195 99.4415 302.064C99.4334 311.284 95.7443 320.123 89.1849 326.64C82.6255 333.157 73.7324 336.818 64.4594 336.819V336.819ZM93.9499 306.822C87.9107 305.071 81.5641 304.627 75.3379 305.521C77.8881 312.395 79.8335 319.476 81.1522 326.684C84.5443 324.426 87.4315 321.497 89.6335 318.079C91.8354 314.662 93.3049 310.829 93.9499 306.822ZM76.1318 329.425C74.7276 321.744 72.5953 314.212 69.7634 306.93C69.7032 306.959 69.6382 306.976 69.5715 306.982C52.7086 312.824 46.6675 324.429 46.1222 325.513C51.3573 329.569 57.8055 331.768 64.442 331.763C68.4531 331.79 72.4268 330.995 76.1143 329.425H76.1318ZM42.2707 321.953C42.9512 320.812 51.1514 307.338 66.5662 302.363C66.9457 302.229 67.3557 302.12 67.7396 302.012C67.0024 300.325 66.1824 298.642 65.3056 296.986C50.3881 301.414 35.9024 301.223 34.5895 301.197C34.5895 301.496 34.5633 301.795 34.5633 302.09C34.572 309.431 37.3182 316.508 42.2707 321.953ZM35.2176 296.032C44.539 295.991 53.8177 294.777 62.8325 292.419C59.4533 286.51 55.7578 280.786 51.7621 275.271C47.5802 277.228 43.9106 280.12 41.0403 283.722C38.1701 287.323 36.1772 291.537 35.2176 296.032V296.032ZM57.463 273.263C61.5608 278.795 65.2866 284.59 68.6163 290.611C79.2461 286.647 83.7257 280.666 84.2753 279.907C78.8147 275.085 71.7627 272.426 64.4594 272.435C62.1026 272.452 59.7553 272.736 57.463 273.281V273.263ZM87.5816 283.342C86.9535 284.188 81.9505 290.572 70.9106 295.051C71.5911 296.465 72.2759 297.905 72.904 299.345C73.1221 299.861 73.3402 300.377 73.5626 300.867C83.5076 299.614 93.3741 301.626 94.3599 301.817C94.2863 295.069 91.8946 288.549 87.5816 283.338V283.342Z" fill="#B2215A"/>
</g>
<path d="M145.35 203.093C144.56 202.109 143.662 195.339 143.662 195.339L140.172 178.087L138.367 168.147C138.367 168.147 137.93 155.592 130.027 149.364L129.412 148.883C129.412 148.77 129.412 148.662 129.412 148.549C129.34 147.337 129.073 146.143 128.622 145.015C128.431 144.649 128.334 144.242 128.339 143.831C128.359 143.668 128.413 143.512 128.496 143.371C128.866 142.866 129.354 142.458 129.918 142.183C131.353 141.315 132.574 139.949 132.906 138.332C132.903 138.295 132.903 138.259 132.906 138.223C132.906 138.154 132.906 138.08 132.936 138.006C132.967 137.933 132.936 137.928 132.936 137.885C132.94 137.81 132.94 137.734 132.936 137.659V137.564C132.936 137.477 132.936 137.386 132.936 137.295C132.934 137.276 132.934 137.257 132.936 137.239C132.936 137.139 132.914 137.035 132.897 136.935V136.913C132.818 136.327 132.591 135.769 132.237 135.293C131.883 134.817 131.414 134.437 130.873 134.19C131.069 134.143 131.252 134.052 131.408 133.923C131.563 133.795 131.686 133.632 131.767 133.448C131.821 133.342 131.863 133.23 131.894 133.114C131.923 133.007 131.942 132.896 131.95 132.785C131.95 132.785 131.95 132.75 131.95 132.733C131.957 132.637 131.957 132.542 131.95 132.446C131.95 132.416 131.95 132.386 131.95 132.355C131.937 132.26 131.917 132.166 131.889 132.074C131.891 132.049 131.891 132.024 131.889 132L131.863 131.939C131.571 131.106 130.877 130.465 130.28 129.797C126.834 125.959 126.166 120.559 125.229 115.555C124.71 112.779 123.728 109.617 121.024 108.564C120.259 108.323 119.482 108.126 118.695 107.974C116.296 107.341 114.333 105.675 111.986 104.86C110.401 104.319 108.706 104.177 107.053 104.448C105.792 104.656 104.737 105.272 103.52 105.563C100.903 106.2 97.7272 105.489 95.6684 107.592C94.2247 109.054 94.1112 111.283 93.4003 113.187C92.0568 116.721 88.5673 119.293 87.6644 122.966C87.0843 125.334 87.6862 127.737 88.3187 130.118C88.795 131.717 89.1163 133.358 89.2783 135.018C89.3023 135.437 89.3023 135.857 89.2783 136.276C89.1851 137.499 88.9072 138.7 88.4539 139.841C85.5053 140.925 82.4564 142.204 82.2296 142.924C81.7934 144.342 74.6748 148.384 74.6748 148.384C74.6748 148.384 71.9705 150.678 71.9705 151.55C71.9705 152.422 71.072 155.154 70.5049 155.154C69.9379 155.154 68.8169 166.183 68.8169 166.183V177.649C68.8169 177.649 64.6513 191.189 63.6917 203.202C63.6917 203.202 62.008 210.874 64.756 215.275C65.1155 215.873 65.5741 216.405 66.1125 216.85L67.5171 220.497C68.0112 219.677 68.6391 218.944 69.3752 218.329C69.445 218.784 69.5235 219.317 69.6195 219.911C69.7372 220.657 69.8768 221.503 70.0557 222.41C69.1833 223.767 67.0765 226.608 64.5466 227.67C62.2087 228.65 65.2533 231.244 67.3557 232.757C66.7974 235.52 65.9904 238.911 65.3361 239.353C64.2064 240.117 60.6035 249.727 60.6035 249.727C60.6035 249.727 53.5068 266.207 63.7048 268.072C73.9028 269.937 79.1021 265.561 79.1021 265.561H81.5448C81.5448 265.561 84.5152 263.896 84.5981 260.452C86.2599 259.09 88.8116 256.931 89.3307 256.059C89.8497 255.187 88.419 252.351 87.5118 250.803L87.7517 250.369C87.7517 250.369 97.4481 238.031 98.6868 239.34C99.9256 240.65 100.715 242.723 100.152 244.037L100.685 251.596V263.388C100.685 263.388 99.2931 268.74 100.685 269.286C102.076 269.833 100.685 271.888 100.685 271.888C100.685 271.888 101.204 274.291 101.3 275.054C101.349 276.037 101.349 277.021 101.3 278.003L100.833 289.799L99.9299 307.268C99.9299 307.268 98.918 308.691 99.7075 309.671C100.497 310.651 100.144 312.949 99.9299 313.383C99.7162 313.817 99.5941 317.425 99.5941 317.425C99.5941 317.425 96.3227 320.808 98.918 321.684L99.0183 321.714C97.9453 322.703 97.9322 324.928 98.0151 325.617C98.098 326.307 97.3259 329.087 96.7458 330.661C96.6298 331.061 96.4502 331.44 96.2137 331.784C95.8167 332.062 96.2137 335.119 96.2137 335.119C96.2137 335.119 108.889 336.156 109.962 335.119C110.398 334.716 110.289 333.736 109.984 332.604C109.497 330.961 108.848 329.371 108.047 327.855C107.31 326.493 107.655 324.745 107.655 324.745V323.444C108.505 323.579 109.059 323.657 109.059 323.657C109.059 323.657 110.638 322.356 109.962 321.146C109.286 319.936 111.201 313.179 111.201 313.179C111.201 313.179 113.343 305.533 113.343 304.77C113.343 304.007 116.16 294.071 116.16 294.071C116.16 294.071 120.33 276.49 118.302 268.189C118.302 268.189 120.104 266.116 119.877 265.587C119.65 265.058 119.126 262.746 119.898 261.766C120.671 260.786 123.938 248.552 124.84 246.479C125.255 245.52 126.293 242.875 127.287 240.295C131.776 239.627 137.123 238.395 137.123 238.395C137.123 238.395 136.325 235.017 135.732 231.565L136.221 229.192L136.395 228.373C136.798 228.766 137.156 229.202 137.464 229.674L138.362 225.307C138.362 225.307 138.463 225.155 138.633 224.873C139.684 223.238 143.514 217.361 145.35 215.579C147.492 213.467 146.144 204.073 145.35 203.093Z" fill="url(#paint0_linear)"/>
<path d="M118.005 130.031H105.574V143.909H118.005V130.031Z" fill="#925978"/>
<path opacity="0.1" d="M118.005 130.031H105.574V143.909H118.005V130.031Z" fill="black"/>
<path d="M87.3591 249.619C87.3591 249.619 90.5214 254.606 89.7581 255.907C88.9948 257.208 83.7693 261.437 83.7693 261.437L82.2252 251.028L87.3591 249.619Z" fill="#FF6484"/>
<path d="M77.5449 265.665L79.8524 265.34H82.2165C82.2165 265.34 85.357 263.544 85.1782 259.81C84.9994 256.076 85.1782 252.438 85.1782 252.438L77.5449 265.665Z" fill="#575988"/>
<path opacity="0.1" d="M77.5449 265.665L79.8524 265.34H82.2165C82.2165 265.34 85.357 263.544 85.1782 259.81C84.9994 256.076 85.1782 252.438 85.1782 252.438L77.5449 265.665Z" fill="black"/>
<path d="M82.2165 214.816L69.1309 229.127C69.1309 229.127 67.6043 238.56 66.5138 239.319C65.4233 240.078 61.96 249.619 61.96 249.619C61.96 249.619 55.0988 265.99 64.961 267.834C74.8231 269.677 79.8436 265.34 79.8436 265.34L88.2184 250.269C88.2184 250.269 97.6007 238.018 98.8002 239.319C99.9997 240.62 100.763 242.68 100.218 243.981L100.728 251.462V263.171C100.728 263.171 99.3847 268.484 100.728 269.026C102.072 269.568 100.728 271.628 100.728 271.628C100.728 271.628 101.234 274.014 101.326 274.772C101.417 275.531 101.326 277.7 101.326 277.7L100.89 289.409L100.017 306.757C100.017 306.757 99.0357 308.166 99.7991 309.142C100.562 310.118 100.235 312.394 100.017 312.828C99.7991 313.262 99.69 316.84 99.69 316.84C99.69 316.84 96.5277 320.201 99.0357 321.068C101.544 321.935 108.85 323.02 108.85 323.02C108.85 323.02 110.377 321.719 109.722 320.526C109.068 319.333 110.922 312.611 110.922 312.611C110.922 312.611 112.994 305.022 112.994 304.263C112.994 303.504 115.72 293.638 115.72 293.638C115.72 293.638 119.755 276.182 117.792 267.942C117.792 267.942 119.536 265.882 119.318 265.34C119.1 264.798 118.59 262.521 119.318 261.545C120.047 260.569 123.244 248.426 124.116 246.366C124.989 244.306 128.696 234.332 128.696 234.332V215.9L82.2165 214.816Z" fill="#575988"/>
<path d="M121.281 149.438L113.753 163.581L111.768 167.302L111.467 167.87L92.0568 168.629C92.0568 168.629 91.5028 167.41 90.7177 165.519C89.3611 162.245 87.3111 156.945 86.2773 152.474C86.0215 151.404 85.8321 150.319 85.7103 149.226C85.4224 146.52 85.8586 144.59 87.6033 144.425C88.0441 144.385 88.4885 144.431 88.9119 144.559C90.1248 144.916 91.3952 145.038 92.6543 144.919C97.2604 144.364 98.6083 139.529 98.8351 134.984C98.8351 134.663 98.8656 134.342 98.87 134.025C98.87 133.041 98.87 132.087 98.8045 131.211C98.7172 129.725 98.5453 128.245 98.2899 126.778C99.4426 126.217 100.65 125.774 101.893 125.456C105.574 124.519 110.76 124.545 110.83 132.091C110.822 133.763 110.989 135.432 111.327 137.07C111.524 138.003 111.839 138.908 112.265 139.763C113.543 142.204 115.319 142.469 116.152 142.439C116.306 142.439 116.459 142.423 116.61 142.391L121.281 149.438Z" fill="#FFC5CB"/>
<path opacity="0.1" d="M101.906 157.626C102.174 158.395 102.312 159.202 102.311 160.016C102.394 160.872 102.373 161.736 102.25 162.588C102.126 163.449 101.696 164.238 101.038 164.812" fill="black"/>
<path opacity="0.1" d="M107.397 138.171C113.841 138.171 119.065 132.977 119.065 126.57C119.065 120.163 113.841 114.969 107.397 114.969C100.953 114.969 95.7295 120.163 95.7295 126.57C95.7295 132.977 100.953 138.171 107.397 138.171Z" fill="black"/>
<path d="M119.061 126.137C119.062 128.468 118.356 130.745 117.036 132.672C115.715 134.599 113.841 136.085 111.658 136.936C109.476 137.788 107.085 137.966 104.799 137.447C102.513 136.927 100.438 135.735 98.8438 134.025C98.7421 133.922 98.646 133.813 98.556 133.7C97.3279 132.282 96.463 130.591 96.0351 128.769C95.6072 126.947 95.6289 125.049 96.0985 123.238C96.568 121.426 97.4714 119.754 98.7316 118.365C99.9918 116.976 101.571 115.91 103.335 115.259C105.1 114.608 106.996 114.391 108.863 114.627C110.729 114.863 112.511 115.544 114.055 116.613C115.6 117.681 116.861 119.106 117.732 120.764C118.603 122.422 119.057 124.266 119.057 126.137H119.061Z" fill="#FFC5CB"/>
<path opacity="0.1" d="M88.6676 155.076C88.6676 155.076 92.8114 165.81 101.535 164.075C101.535 164.075 110.342 164.76 115.384 158.329C120.426 151.897 120.727 195.192 120.727 195.192L118.764 223.923C118.764 223.923 104.706 232.271 98.5995 231.187C92.4929 230.103 89.5487 226.85 89.5487 226.85C89.5487 226.85 83.115 220.887 81.3702 220.128C79.6255 219.369 82.1335 182.398 82.1335 182.398L84.2054 168.52L88.6676 155.076Z" fill="black"/>
<path d="M88.6676 154.209C88.6676 154.209 92.8114 164.942 101.535 163.208C101.535 163.208 110.342 163.893 115.384 157.461C120.426 151.03 120.727 194.324 120.727 194.324L118.764 223.056C118.764 223.056 104.706 231.404 98.5995 230.32C92.4929 229.236 89.5487 225.983 89.5487 225.983C89.5487 225.983 83.115 220.02 81.3702 219.261C79.6255 218.502 82.1335 181.531 82.1335 181.531L84.2054 167.653L88.6676 154.209Z" fill="#E8F4FF"/>
<path opacity="0.1" d="M88.2314 214.816C88.2314 214.816 97.6094 225.224 97.0642 226.308C96.5189 227.393 88.0133 217.96 88.2314 214.816Z" fill="black"/>
<path opacity="0.1" d="M86.6176 188.934C86.6176 188.934 89.6142 193.097 91.4898 192.663Z" fill="black"/>
<path opacity="0.1" d="M93.0949 144.559C93.0949 144.559 93.0949 144.685 93.0644 144.919C92.964 146.251 92.5889 151.078 92.0829 156.455C91.7994 159.491 91.4767 162.674 91.1452 165.519C90.6043 170.147 90.0285 173.85 89.54 174.375C88.1224 175.893 88.6676 190.204 88.6676 190.204V208.311C88.6676 208.311 87.4725 214.057 86.4867 215.358C85.5009 216.659 83.0932 221.538 81.1652 222.188C80.487 222.558 79.8776 223.041 79.3638 223.615C77.6191 225.35 75.1503 228.243 73.2572 230.524C71.6957 232.428 70.5398 233.898 70.5398 233.898C70.5398 233.898 62.9065 229.127 66.1779 227.718C68.6249 226.664 70.6488 223.845 71.5081 222.514C71.8004 222.08 71.9443 221.772 71.9443 221.772C72.0988 220.761 72.3306 219.764 72.6378 218.788C72.9148 217.869 73.3216 216.992 73.8461 216.186C74.2453 215.515 74.8939 215.028 75.6519 214.829C78.4871 214.287 79.9047 187.507 79.9047 187.507L71.181 168.581L70.3086 166.69C70.3086 166.69 71.3991 155.74 71.9443 155.74C72.4895 155.74 73.3619 153.029 73.3619 152.162C73.3619 151.294 75.979 149.018 75.979 149.018C75.979 149.018 82.8969 144.993 83.3331 143.584C83.5643 142.842 86.7353 141.502 89.6883 140.4C92.3403 139.411 94.8135 138.614 94.8135 138.614C96.2572 140.799 93.0949 144.559 93.0949 144.559Z" fill="black"/>
<path d="M92.6587 144.559C92.6587 144.559 92.6587 144.685 92.6282 144.919C92.5279 146.251 92.1528 151.078 91.6468 156.455C91.3633 159.491 91.0405 162.674 90.709 165.519C90.1681 170.147 89.5924 173.85 89.1038 174.375C87.6862 175.893 88.2315 190.204 88.2315 190.204V208.311C88.2315 208.311 87.0363 214.057 86.0505 215.358C85.0648 216.659 82.657 221.538 80.7291 222.188C80.0508 222.558 79.4414 223.041 78.9276 223.615C77.1829 225.35 74.7141 228.243 72.8211 230.524C71.2595 232.428 70.1036 233.898 70.1036 233.898C70.1036 233.898 62.4704 229.127 65.7418 227.718C68.1888 226.664 70.2127 223.845 71.072 222.514C71.3642 222.08 71.5081 221.772 71.5081 221.772C71.6626 220.761 71.8945 219.764 72.2017 218.788C72.4786 217.869 72.8854 216.992 73.4099 216.186C73.8091 215.515 74.4578 215.028 75.2157 214.829C78.0509 214.287 79.4685 187.507 79.4685 187.507L70.7448 168.581L69.8724 166.69C69.8724 166.69 70.9629 155.74 71.5081 155.74C72.0534 155.74 72.9257 153.029 72.9257 152.162C72.9257 151.294 75.5428 149.018 75.5428 149.018C75.5428 149.018 82.4607 144.993 82.8969 143.584C83.1281 142.842 86.2992 141.502 89.2521 140.4C91.9041 139.411 94.3773 138.614 94.3773 138.614C95.8211 140.799 92.6587 144.559 92.6587 144.559Z" fill="#FF6484"/>
<path opacity="0.1" d="M136.033 169.47L126.616 180.446C126.616 180.446 134.794 222.622 133.813 224.574C133.738 224.736 133.689 224.908 133.669 225.085C133.568 226.096 133.587 227.115 133.726 228.121C133.839 229.184 134.013 230.363 134.21 231.539C134.786 234.965 135.558 238.321 135.558 238.321C135.558 238.321 124.544 240.923 121.163 240.598C117.783 240.273 119.746 234.852 120.291 232.358C120.836 229.865 116.584 226.373 116.584 226.373L110.586 201.892C110.586 201.892 110.15 196.471 108.841 193.869C107.533 191.267 108.732 188.448 108.296 184.762C107.986 182.134 109.888 172.74 111.323 167.28C111.868 165.203 112.348 163.698 112.632 163.346C112.644 163.327 112.659 163.31 112.675 163.294C113.548 162.535 112.675 158.09 112.675 158.09C112.675 158.09 114.747 146.381 114.529 145.405C114.407 144.85 115.092 143.488 115.707 142.417C116.174 141.606 116.601 140.96 116.601 140.96C116.601 140.96 120.819 143.618 128.051 149.43L128.705 149.959C136.338 156.139 136.775 168.607 136.775 168.607L136.033 169.47Z" fill="black"/>
<path d="M136.469 169.47L127.052 180.446C127.052 180.446 135.23 222.622 134.249 224.574C134.174 224.736 134.126 224.908 134.105 225.085C134.004 226.096 134.023 227.115 134.162 228.121C134.275 229.184 134.45 230.363 134.646 231.539C135.222 234.965 135.994 238.321 135.994 238.321C135.994 238.321 124.98 240.923 121.6 240.598C118.219 240.273 120.182 234.852 120.727 232.358C121.272 229.865 117.02 226.373 117.02 226.373L111.022 201.892C111.022 201.892 110.586 196.471 109.277 193.869C107.969 191.267 109.168 188.448 108.732 184.762C108.422 182.134 110.324 172.74 111.759 167.28C112.305 165.203 112.784 163.698 113.068 163.346C113.08 163.327 113.095 163.31 113.111 163.294C113.984 162.535 113.111 158.09 113.111 158.09C113.111 158.09 115.183 146.381 114.965 145.405C114.843 144.85 115.528 143.488 116.143 142.417C116.61 141.606 117.037 140.96 117.037 140.96C117.037 140.96 121.255 143.618 128.487 149.43L129.141 149.959C136.774 156.139 137.211 168.607 137.211 168.607L136.469 169.47Z" fill="#FF6484"/>
<path opacity="0.1" d="M116.583 175.351C116.474 176.218 119.201 222.297 122.036 225.007L116.583 175.351Z" fill="black"/>
<path d="M79.8175 239.427C76.7642 241.335 74.4349 236.313 72.8385 230.524C72.0926 227.805 71.5299 224.916 71.0938 222.496C70.9324 221.594 70.7972 220.762 70.6837 220.016C70.3828 218.081 70.2476 216.815 70.2476 216.815L73.4579 216.173L77.0084 215.466L77.4446 219.452L77.6496 221.26C77.6496 221.26 78.2079 222.18 78.9582 223.615C81.065 227.813 84.6417 236.439 79.8175 239.427Z" fill="#FFC5CB"/>
<path d="M135.885 225.463L135.121 229.205L134.646 231.56L134.62 231.677C134.62 231.677 125.089 244.523 122.036 239.21C119.702 235.151 125.394 228.494 128.203 225.584C129.076 224.682 129.669 224.14 129.669 224.14L134.105 225.085L135.885 225.463Z" fill="#FFC5CB"/>
<path d="M109.714 334.404C108.675 335.431 96.41 334.404 96.41 334.404C96.41 334.404 96.0261 331.368 96.41 331.095C96.6413 330.752 96.8152 330.374 96.9247 329.976C97.4873 328.393 98.2332 325.639 98.1547 324.971C98.0457 324.052 98.1024 320.365 100.606 320.634C100.606 320.634 103.877 314.021 107.48 322.152V324.104C107.3 325.148 107.432 326.221 107.86 327.191C108.636 328.699 109.264 330.278 109.735 331.906C110.032 333.029 110.119 333.996 109.714 334.404Z" fill="#FF6484"/>
<path d="M109.714 334.404C108.676 335.432 96.41 334.404 96.41 334.404C96.41 334.404 96.0261 331.368 96.41 331.095C96.6413 330.752 96.8152 330.374 96.9247 329.976C98.5473 329.286 100.754 328.618 102.298 329.2C104.248 329.937 107.847 331.229 109.714 331.906C110.032 333.029 110.119 333.996 109.714 334.404Z" fill="#E8F4FF"/>
<path opacity="0.1" d="M98.8089 134.984C99.1186 136.224 99.5461 137.477 99.5635 138.744C99.5897 140.478 98.8351 142.152 98.0325 143.714C97.1165 145.5 96.0828 147.417 96.3881 149.399C96.5533 150.15 96.7705 150.889 97.038 151.611C97.7154 153.937 97.4945 156.43 96.4186 158.602C95.7033 160.037 94.2377 161.425 92.6718 160.961C92.554 159.43 92.3621 157.761 91.6337 156.455C91.3456 155.925 90.9489 155.461 90.4691 155.093C89.335 154.226 87.7691 154.044 86.7397 153.064C86.5546 152.888 86.392 152.69 86.2555 152.474C85.754 151.633 85.5398 150.653 85.6449 149.681C85.6449 149.534 85.6754 149.386 85.7016 149.247C85.9118 148.192 86.267 147.171 86.7571 146.212C87.0276 145.631 87.3111 145.049 87.5946 144.477C88.2505 143.181 88.8018 141.835 89.2434 140.452C91.8954 139.464 94.3685 138.666 94.3685 138.666C95.821 140.834 92.6587 144.611 92.6587 144.611C92.6587 144.611 92.6587 144.737 92.6282 144.971C97.2343 144.364 98.5996 139.529 98.8089 134.984Z" fill="black"/>
<path opacity="0.1" d="M105.343 118.669C104.069 119.072 102.852 119.878 102.29 121.093C101.688 122.437 101.998 123.99 101.854 125.456C101.821 125.777 101.76 126.095 101.67 126.405C101.13 128.205 99.4328 129.476 98.7654 131.211C98.7174 131.341 98.6738 131.471 98.6346 131.61C98.4584 132.293 98.4272 133.004 98.543 133.7C96.9837 131.895 96.0208 129.657 95.7848 127.29C95.5488 124.922 96.0511 122.54 97.2237 120.466C98.3962 118.392 100.182 116.727 102.339 115.697C104.496 114.667 106.92 114.321 109.281 114.708C111.642 115.094 113.826 116.194 115.537 117.857C117.248 119.52 118.403 121.666 118.846 124.004C119.288 126.343 118.996 128.759 118.009 130.927C117.022 133.094 115.388 134.907 113.33 136.12C113.823 134.658 114.342 133.201 114.743 131.709C115.685 128.201 115.846 124.146 113.626 121.262C112.662 120.059 111.359 119.169 109.883 118.707C108.407 118.245 106.827 118.232 105.343 118.669V118.669Z" fill="black"/>
<path opacity="0.1" d="M128.129 153.784C127.745 155.167 126.768 156.685 125.329 156.62C124.644 156.59 124.02 156.186 123.336 156.121C122.363 156.035 121.443 156.659 120.858 157.422C120.328 158.242 119.867 159.103 119.48 159.998C118.407 162.071 116.304 163.936 113.984 163.611L113.744 163.568C113.506 163.52 113.274 163.449 113.05 163.355C110.97 162.488 109.844 159.825 109.919 157.47C110.006 154.786 111.136 152.244 111.506 149.581C111.851 147.127 111.537 144.624 111.803 142.161C111.893 141.348 112.039 140.543 112.239 139.75C113.517 142.191 115.292 142.456 116.126 142.426C116.592 141.615 117.02 140.968 117.02 140.968C117.02 140.968 121.238 143.627 128.47 149.438C128.634 150.895 128.518 152.37 128.129 153.784V153.784Z" fill="black"/>
<path d="M111.685 105.779C113.949 106.59 115.855 108.243 118.176 108.872C118.938 109.021 119.691 109.215 120.431 109.453C123.048 110.498 123.999 113.638 124.5 116.392C125.403 121.362 126.053 126.722 129.386 130.534C129.979 131.211 130.668 131.861 130.943 132.702C131.217 133.544 130.847 134.706 129.961 134.893C131.479 135.53 132.225 137.395 131.907 139.004C131.588 140.613 130.406 141.94 129.015 142.825C128.365 143.258 127.58 143.692 127.492 144.455C127.487 144.865 127.581 145.269 127.767 145.635C128.666 147.954 128.796 150.497 128.138 152.895C127.754 154.274 126.777 155.796 125.338 155.731C124.653 155.701 124.029 155.297 123.349 155.232C122.372 155.146 121.456 155.77 120.867 156.533C120.336 157.352 119.875 158.214 119.488 159.109C118.42 161.182 116.317 163.047 113.993 162.722C111.319 162.345 109.844 159.252 109.927 156.581C110.01 153.91 111.149 151.355 111.519 148.692C111.86 146.238 111.546 143.735 111.816 141.272C112.209 137.664 113.827 134.311 114.769 130.807C115.711 127.303 115.868 123.244 113.648 120.36C112.685 119.154 111.382 118.262 109.905 117.798C108.428 117.334 106.845 117.32 105.36 117.758C104.082 118.161 102.87 118.968 102.307 120.182C101.574 121.821 102.198 123.773 101.683 125.495C101.103 127.429 99.1841 128.756 98.6301 130.699C97.9846 133.036 99.5025 135.413 99.5461 137.833C99.5723 139.568 98.8177 141.242 98.0195 142.803C97.0991 144.59 96.0654 146.507 96.3751 148.489C96.5388 149.24 96.7545 149.979 97.0206 150.7C97.7126 153.037 97.4978 155.547 96.4187 157.735C95.7033 159.17 94.2116 160.558 92.6718 160.094C92.5017 157.947 92.1964 155.527 90.4691 154.226C89.3307 153.359 87.7648 153.177 86.7354 152.192C86.3119 151.742 85.9935 151.205 85.8027 150.619C85.612 150.033 85.5536 149.412 85.6318 148.801C85.7957 147.58 86.1721 146.397 86.7441 145.305C87.9959 142.616 89.5182 139.936 89.6927 136.979C89.9544 132.516 87.0756 128.118 88.1224 123.764C88.9948 120.121 92.3796 117.567 93.662 114.045C94.3468 112.155 94.4558 109.939 95.8429 108.486C97.8494 106.4 100.916 107.107 103.454 106.478C104.632 106.183 105.635 105.576 106.874 105.372C108.486 105.091 110.144 105.231 111.685 105.779Z" fill="#925978"/>
<path opacity="0.1" d="M80.7161 198.327C80.7161 198.327 80.7161 208.085 80.7161 212.422C80.7161 213.003 80.7161 213.606 80.6812 214.213C80.5329 218.116 79.9353 222.18 79.9353 222.18C79.2374 221.158 78.3974 220.239 77.4403 219.452C75.351 217.817 73.5714 218.025 72.2323 218.771C71.6537 219.105 71.1301 219.524 70.6795 220.016C70.3785 218.081 70.2433 216.815 70.2433 216.815L73.4536 216.173C73.8528 215.502 74.5015 215.015 75.2594 214.816C78.0946 214.274 79.5122 187.494 79.5122 187.494L70.7885 168.568V167.644L73.7371 162.982C78.6442 158.754 79.8437 164.825 79.8437 164.825C79.8437 164.825 80.7161 181.305 80.7161 181.739C80.7161 182.173 80.7161 198.327 80.7161 198.327Z" fill="black"/>
<path d="M79.8437 197.36C79.8437 197.36 79.8437 207.118 79.8437 211.455C79.8437 212.036 79.8437 212.639 79.8088 213.246C79.6605 217.149 79.063 221.213 79.063 221.213C72.9564 212.647 68.6468 220.605 68.6468 220.605L67.2859 216.984C66.7651 216.54 66.3228 216.012 65.9774 215.423C63.321 211.051 64.948 203.432 64.948 203.432C65.8771 191.505 69.9074 178.061 69.9074 178.061V166.677L72.8648 162.015C77.7718 157.787 79.8437 163.858 79.8437 163.858C79.8437 163.858 79.8437 180.338 79.8437 180.772C79.8437 181.205 79.8437 197.36 79.8437 197.36Z" fill="#FF6484"/>
<path opacity="0.1" d="M79.8175 212.812C79.6692 216.715 79.0716 220.779 79.0716 220.779C72.965 212.214 68.6555 220.172 68.6555 220.172L67.2946 216.551C66.7738 216.106 66.3315 215.579 65.9861 214.989C68.83 213.432 75.098 210.561 79.8175 212.812Z" fill="black"/>
<path d="M79.8175 213.246C79.6692 217.149 79.0716 221.213 79.0716 221.213C72.965 212.647 68.6555 220.605 68.6555 220.605L67.2946 216.984C66.7738 216.54 66.3315 216.012 65.9861 215.423C68.83 213.866 75.098 210.995 79.8175 213.246Z" fill="#FF6484"/>
<path opacity="0.1" d="M79.8175 213.246C79.6692 217.149 79.0716 221.213 79.0716 221.213C72.965 212.647 68.6555 220.605 68.6555 220.605L67.2946 216.984C66.7738 216.54 66.3315 216.012 65.9861 215.423C68.83 213.866 75.098 210.995 79.8175 213.246Z" fill="white"/>
<path opacity="0.1" d="M71.5562 183.916C71.5562 183.916 73.519 194.65 75.4818 197.794C77.4446 200.938 71.5562 183.916 71.5562 183.916Z" fill="black"/>
<path opacity="0.1" d="M66.5312 202.131C66.5312 202.131 67.7308 208.636 70.2388 209.395C72.7469 210.154 66.5312 202.131 66.5312 202.131Z" fill="black"/>
<path opacity="0.1" d="M134.105 225.085L135.885 225.463L135.121 229.205C134.832 228.825 134.511 228.47 134.162 228.143C132.546 226.611 130.433 225.703 128.203 225.584C127.234 225.522 126.261 225.583 125.307 225.766C125.722 224.293 125.997 222.785 126.127 221.26C126.205 220.688 126.109 220.105 125.852 219.586C124.98 218.394 124.544 207.335 124.544 207.335C124.544 207.335 125.307 201.697 125.743 200.613C126.18 199.529 123.781 193.986 123.89 192.312C123.999 190.638 125.307 176.218 125.307 175.459C125.307 174.7 128.142 159.847 134.031 165.484L136.321 168.629L136.469 169.47L127.052 180.447C127.052 180.447 135.23 222.622 134.249 224.574C134.174 224.736 134.126 224.908 134.105 225.085V225.085Z" fill="black"/>
<path d="M143.963 215.683C142.183 217.453 138.48 223.29 137.464 224.912L137.202 225.346L136.33 229.683C136.33 229.683 133.276 224.478 126.188 225.779C126.603 224.306 126.878 222.798 127.008 221.273C127.086 220.701 126.99 220.118 126.734 219.599C125.861 218.407 125.425 207.348 125.425 207.348C125.425 207.348 126.188 201.71 126.624 200.626C127.061 199.542 124.662 193.999 124.771 192.325C124.88 190.651 126.188 176.231 126.188 175.472C126.188 174.713 129.024 159.86 134.912 165.498L137.202 168.642L138.947 178.508L142.327 195.638C142.327 195.638 143.2 202.361 143.963 203.336C144.726 204.312 146.026 213.623 143.963 215.683Z" fill="#FF6484"/>
<path opacity="0.1" d="M137.455 224.478L137.193 224.912L136.321 229.249C136.321 229.249 133.268 224.045 126.18 225.346C126.595 223.873 126.869 222.364 127 220.84C129.429 220.992 134.323 221.672 137.455 224.478Z" fill="black"/>
<path d="M137.455 224.912L137.193 225.346L136.321 229.682C136.321 229.682 133.268 224.478 126.18 225.779C126.595 224.306 126.869 222.798 127 221.273C129.429 221.425 134.323 222.106 137.455 224.912Z" fill="#FF6484"/>
<path opacity="0.1" d="M137.455 224.912L137.193 225.346L136.321 229.682C136.321 229.682 133.268 224.478 126.18 225.779C126.595 224.306 126.869 222.798 127 221.273C129.429 221.425 134.323 222.106 137.455 224.912Z" fill="white"/>
<path opacity="0.1" d="M130.323 194.433C130.323 194.433 137.739 194.342 138.829 198.18C139.919 202.018 130.323 194.433 130.323 194.433Z" fill="black"/>
<path opacity="0.1" d="M128.906 205.275C128.906 205.275 141.446 204.733 140.901 210.154C140.356 215.575 128.906 205.275 128.906 205.275Z" fill="black"/>
<path opacity="0.1" d="M129.669 213.623C129.669 213.623 130.65 213.406 131.305 215.683C131.959 217.96 129.669 213.623 129.669 213.623Z" fill="black"/>
<path opacity="0.1" d="M104.27 266.641C104.27 266.641 107.258 265.773 108.632 266.641C110.006 267.508 104.27 266.641 104.27 266.641Z" fill="black"/>
<path opacity="0.1" d="M104.807 269.785C104.807 269.785 111.895 269.893 112.549 270.652C113.203 271.411 104.807 269.785 104.807 269.785Z" fill="black"/>
<g opacity="0.1">
<path opacity="0.1" d="M89.7101 135.677C89.9195 132.13 88.1616 128.63 87.9436 125.156C87.7167 128.66 89.5051 132.191 89.6883 135.764C89.6976 135.736 89.7048 135.707 89.7101 135.677V135.677Z" fill="black"/>
<path opacity="0.1" d="M98.0369 141.541C97.1296 143.302 96.1177 145.184 96.3794 147.14C96.5669 145.652 97.3346 144.212 98.0369 142.846C98.8351 141.285 99.5897 139.628 99.5679 137.876C99.5679 137.685 99.5548 137.495 99.5286 137.304C99.376 138.787 98.7217 140.201 98.0369 141.541Z" fill="black"/>
<path opacity="0.1" d="M129.952 133.609C130.276 133.745 130.572 133.939 130.825 134.181C131.042 133.726 131.083 133.207 130.938 132.724C130.938 132.724 130.938 132.685 130.916 132.663C130.855 132.892 130.733 133.1 130.563 133.266C130.394 133.432 130.183 133.551 129.952 133.609V133.609Z" fill="black"/>
<path opacity="0.1" d="M96.4186 156.429C95.7032 157.865 94.2115 159.252 92.6718 158.788C92.5016 156.642 92.1963 154.222 90.469 152.921C89.3306 152.053 87.7647 151.871 86.7396 150.891C86.1256 150.27 85.7439 149.459 85.6579 148.593C85.6579 148.662 85.6361 148.731 85.6317 148.801C85.5532 149.412 85.6118 150.034 85.8034 150.62C85.9949 151.206 86.3147 151.743 86.7396 152.192C87.7647 153.177 89.3306 153.372 90.469 154.226C92.2138 155.527 92.5016 157.947 92.6718 160.094C94.2115 160.558 95.7032 159.17 96.4186 157.735C97.1643 156.211 97.4965 154.52 97.3825 152.83C97.3 154.08 96.9725 155.303 96.4186 156.429V156.429Z" fill="black"/>
<path opacity="0.1" d="M131.898 137.72C131.579 139.325 130.397 140.656 129.01 141.541C128.356 141.975 127.571 142.408 127.484 143.171C127.464 143.468 127.514 143.765 127.632 144.039C127.989 143.541 128.462 143.137 129.01 142.859C130.397 141.992 131.579 140.643 131.898 139.038C131.983 138.572 131.983 138.095 131.898 137.629C131.899 137.659 131.899 137.69 131.898 137.72Z" fill="black"/>
<path opacity="0.1" d="M128.129 151.611C127.745 152.99 126.773 154.512 125.329 154.447C124.644 154.417 124.02 154.013 123.34 153.948C122.363 153.862 121.447 154.486 120.858 155.249C120.328 156.068 119.868 156.93 119.484 157.826C118.411 159.899 116.309 161.763 113.988 161.438C111.668 161.113 110.18 158.628 109.953 156.195C109.953 156.329 109.923 156.464 109.923 156.603C109.836 159.287 111.31 162.366 113.988 162.743C116.309 163.069 118.411 161.204 119.484 159.131C119.867 158.235 120.327 157.373 120.858 156.555C121.447 155.779 122.363 155.154 123.34 155.254C124.02 155.319 124.648 155.722 125.329 155.753C126.773 155.818 127.745 154.295 128.129 152.916C128.467 151.694 128.598 150.425 128.517 149.161C128.478 149.989 128.347 150.81 128.129 151.611V151.611Z" fill="black"/>
<path opacity="0.1" d="M113.639 120.394C114.745 121.91 115.354 123.727 115.384 125.599C115.497 123.239 115.052 120.915 113.639 119.067C112.676 117.861 111.373 116.969 109.896 116.505C108.419 116.042 106.836 116.028 105.352 116.465C104.074 116.869 102.861 117.675 102.298 118.89C101.561 120.529 102.185 122.485 101.67 124.202C101.09 126.136 99.1709 127.463 98.6169 129.406C98.4555 130.029 98.417 130.677 98.5035 131.315C98.5269 131.111 98.5648 130.91 98.6169 130.712C99.1534 128.769 101.073 127.442 101.67 125.508C102.185 123.773 101.561 121.834 102.298 120.195C102.844 118.981 104.043 118.174 105.352 117.771C106.839 117.336 108.423 117.353 109.9 117.82C111.377 118.288 112.679 119.185 113.639 120.394V120.394Z" fill="black"/>
</g>
<g opacity="0.8">
<path opacity="0.8" d="M247.692 286.673C267.012 286.673 282.674 271.101 282.674 251.891C282.674 232.682 267.012 217.11 247.692 217.11C228.372 217.11 212.71 232.682 212.71 251.891C212.71 271.101 228.372 286.673 247.692 286.673Z" fill="#1769FF"/>
<path opacity="0.8" d="M237.42 236.127C238.807 236.116 240.191 236.249 241.55 236.526C242.692 236.747 243.778 237.189 244.748 237.827C245.636 238.435 246.348 239.265 246.811 240.234C247.337 241.4 247.589 242.669 247.548 243.946C247.597 245.35 247.217 246.735 246.458 247.919C245.636 249.055 244.525 249.953 243.239 250.521C244.997 250.954 246.543 251.995 247.6 253.457C248.449 254.824 248.94 256.381 249.029 257.985C249.118 259.589 248.803 261.19 248.111 262.642C247.516 263.777 246.656 264.752 245.603 265.487C244.511 266.242 243.292 266.795 242.004 267.122C240.65 267.474 239.256 267.652 237.856 267.651H222.502V236.127H237.42ZM236.547 248.886C237.633 248.933 238.704 248.628 239.601 248.019C240.403 247.44 240.803 246.483 240.8 245.148C240.824 244.521 240.686 243.898 240.399 243.339C240.148 242.884 239.781 242.502 239.335 242.233C238.862 241.959 238.343 241.773 237.804 241.682C237.209 241.58 236.606 241.529 236.002 241.531H229.459V248.903L236.547 248.886ZM236.949 262.261C237.605 262.264 238.26 262.197 238.903 262.061C239.486 261.946 240.043 261.722 240.543 261.402C241.023 261.086 241.414 260.653 241.677 260.144C241.985 259.511 242.134 258.813 242.113 258.11C242.113 256.497 241.655 255.339 240.735 254.641C239.67 253.903 238.389 253.537 237.093 253.6H229.503V262.274L236.949 262.261ZM257.842 261.597C258.79 262.511 260.151 262.968 261.925 262.968C263.098 262.996 264.251 262.66 265.222 262.005C265.999 261.546 266.594 260.838 266.91 259.997H272.459C271.569 262.735 270.206 264.692 268.371 265.869C266.366 267.097 264.043 267.714 261.689 267.643C260.021 267.665 258.365 267.37 256.808 266.775C255.413 266.239 254.154 265.402 253.122 264.325C252.093 263.231 251.299 261.94 250.789 260.53C250.228 258.972 249.951 257.328 249.969 255.673C249.953 254.045 250.239 252.428 250.811 250.903C251.337 249.484 252.15 248.188 253.201 247.095C254.251 246.003 255.516 245.136 256.917 244.549C258.428 243.915 260.054 243.599 261.693 243.621C263.463 243.58 265.216 243.967 266.801 244.749C268.213 245.47 269.437 246.51 270.374 247.784C271.323 249.086 272.009 250.559 272.393 252.121C272.808 253.78 272.955 255.495 272.829 257.2H256.254C256.341 259.221 256.861 260.695 257.807 261.602L257.842 261.597ZM264.969 249.593C264.213 248.769 263.066 248.357 261.528 248.357C260.663 248.327 259.804 248.5 259.02 248.864C258.401 249.162 257.856 249.592 257.423 250.122C257.039 250.591 256.752 251.13 256.577 251.709C256.429 252.198 256.333 252.701 256.289 253.21H266.531C266.24 251.622 265.714 250.417 264.952 249.593H264.969ZM255.19 237.719H268.001V241.253H255.19V237.719Z" fill="white"/>
</g>
<g opacity="0.8">
<path opacity="0.8" d="M405.774 272.261C405.774 272.587 405.774 272.916 405.774 273.246C405.536 281.572 402.3 289.537 396.657 295.692C391.013 301.848 383.335 305.786 375.019 306.791C373.622 306.957 372.216 307.039 370.81 307.038C363.891 307.038 357.127 304.998 351.374 301.176C345.621 297.354 341.137 291.922 338.49 285.566C335.842 279.211 335.15 272.217 336.5 265.47C337.85 258.723 341.182 252.525 346.075 247.661C350.968 242.797 357.201 239.485 363.988 238.144C370.774 236.802 377.808 237.491 384.2 240.125C390.592 242.758 396.055 247.216 399.898 252.937C403.742 258.657 405.792 265.382 405.792 272.261H405.774Z" fill="#B3BBC6"/>
<path opacity="0.8" d="M405.757 273.246C405.518 281.572 402.283 289.537 396.639 295.692C390.995 301.848 383.318 305.786 375.001 306.791L346.44 285.666L350.008 262.681L364.132 263.549L372.166 270.245L377.88 260.986L387.476 268.913L392.636 272.587V260.994L405.643 272.964C405.674 273.059 405.722 273.15 405.757 273.246Z" fill="#666C76"/>
<path opacity="0.8" d="M368.288 273.116C368.288 265.743 363.73 260.747 355.05 260.747H346.479V285.562H355.229C363.656 285.562 368.288 280.488 368.288 273.116ZM362.064 273.155C362.064 278.476 359.316 280.779 354.906 280.779H352.66V265.531H354.906C359.137 265.531 362.064 267.938 362.064 273.155ZM392.92 285.562V260.747H387.166V274.625L377.98 260.747H371.974V285.558H377.727V270.709L387.563 285.558H392.92V285.562Z" fill="white"/>
</g>
<path d="M379.472 235.26C379.036 234.392 374.966 228.59 374.966 228.59L374.844 228.069L373.509 222.149L373.418 221.716C374.29 221.495 374.918 221.221 375.115 220.879C376.074 219.209 374.303 217.179 374.303 217.179L373.932 208.402L372.973 187.151C372.973 187.151 370.98 180.039 370.683 178.374C370.386 176.708 367.656 173.221 367.656 173.221C367.656 173.221 368.245 171.487 367.507 170.246C366.77 169.006 365.143 163.208 365.143 163.208L363.743 147.161L363.076 131.375C363.745 131.371 364.413 131.433 365.069 131.562C365.165 131.64 365.113 131.445 364.973 131.094C365.007 131.099 365.04 131.111 365.069 131.128C365.296 131.31 364.69 129.953 364.035 128.569L363.957 128.409C364.271 127.277 365.571 122.693 366.474 121.036C367.145 119.813 365.854 111.37 364.869 105.602C364.799 105.19 364.729 104.795 364.664 104.413C366.264 101.629 368.101 98.4719 368.101 98.4719C368.101 98.4719 372.75 85.2706 374.67 79.5374C376.589 73.8041 374.67 58.9375 374.67 58.9375C374.67 58.9375 374.67 58.2089 374.565 57.0726C374.264 54.0022 373.112 47.9956 368.69 45.6624C362.635 42.4705 360.716 38.5544 360.716 38.5544C360.716 38.5544 353.161 31.7196 352.206 34.0137L352.141 33.8836C351.576 32.7366 351.162 31.5226 350.906 30.2711C350.88 30.141 350.858 30.0108 350.836 29.8851C351.802 29.1273 352.641 28.2228 353.323 27.2049C353.323 27.3957 353.292 27.5866 353.279 27.7774C353.279 27.8988 353.279 28.0202 353.279 28.1373V28.3021C353.275 28.3816 353.275 28.4612 353.279 28.5407C353.279 28.5884 353.279 28.6361 353.279 28.6838C353.559 28.7109 353.84 28.6529 354.085 28.5173C354.331 28.3817 354.529 28.1751 354.653 27.9248C354.89 27.4242 355.047 26.8903 355.12 26.3419C355.375 25.174 355.843 24.0627 356.503 23.0633C357.148 22.0788 358.012 21.09 358.125 19.9668C358.143 19.8024 358.143 19.6367 358.125 19.4724C358.068 18.8999 357.798 18.3665 357.715 17.7984C357.68 17.5103 357.68 17.219 357.715 16.931V16.931C357.715 16.7619 357.754 16.5927 357.781 16.4279C357.807 16.2631 357.85 15.9942 357.881 15.7514C357.911 15.5085 357.938 15.3741 357.959 15.1833V15.1616C358.02 14.6618 358.02 14.1565 357.959 13.6567C357.922 13.1947 357.774 12.7483 357.529 12.3545C357.283 11.9608 356.946 11.6311 356.546 11.3929C356.11 11.1717 355.608 11.1023 355.172 10.8811C354.021 10.2957 353.654 8.89052 352.991 7.80632C352.52 7.08355 351.883 6.48272 351.132 6.05359C350.381 5.62447 349.538 5.37939 348.673 5.33867C346.928 5.26928 345.218 6.02822 343.504 5.77235C342.409 5.59887 341.402 5.00907 340.294 4.93101C338.676 4.81825 337.219 5.79837 335.906 6.73946C334.977 7.40299 333.987 8.15326 333.681 9.24614C333.437 10.1395 333.681 11.1674 333.175 11.948C332.848 12.4554 332.255 12.746 331.889 13.249C331.586 13.6491 331.432 14.141 331.452 14.6412C331.452 14.6845 331.452 14.7322 331.452 14.7799C331.452 14.8276 331.452 14.9361 331.452 15.0141C331.483 15.3481 331.544 15.6863 331.601 16.0159C331.603 16.0506 331.603 16.0853 331.601 16.12C331.732 17.0351 331.435 17.6769 331.103 18.5703C330.962 18.947 330.883 19.3438 330.868 19.7456C330.868 19.7456 330.868 19.7846 330.868 19.8063C330.868 19.828 330.868 19.8627 330.868 19.893C330.863 19.9768 330.863 20.0608 330.868 20.1446V20.1446C330.907 20.4564 331.044 20.7479 331.261 20.9772C331.369 20.8002 331.519 20.6515 331.697 20.5436C331.697 20.6737 331.697 20.8038 331.697 20.9382V20.9642C331.698 22.493 332.007 24.0061 332.607 25.4139C333.206 26.8218 334.083 28.0958 335.186 29.1608C335.186 29.2866 335.151 29.4167 335.134 29.5425C334.946 30.8435 334.698 32.2747 334.397 33.6451L334.292 34.0788H332.111C332.111 34.0788 332.482 32.4828 328.862 34.4431C325.241 36.4033 320.81 37.3444 320.138 37.7044C319.466 38.0643 311.279 44.3831 311.279 44.3831C311.279 44.3831 304.187 48.4423 304.409 55.4073L303.598 63.2136L303.009 77.794C303.009 77.794 301.901 90.2016 303.009 91.9407C304.117 93.6797 306.036 103.984 305.665 105.289C305.399 106.235 308.073 112.879 309.931 116.752C309.432 117.275 308.97 117.831 308.548 118.417C308.548 118.417 307.807 121.323 307.807 121.613C307.807 121.613 307.807 121.644 307.842 121.661C306.206 123.309 303.598 126.019 303.598 126.618C303.598 127.485 304.117 128.244 303.305 128.192C302.494 128.14 302.468 129.086 302.516 129.662C302.564 130.239 301.53 129.376 301.604 130.46C301.678 131.545 294.071 148.597 294.071 148.597C294.071 148.597 290.604 156.941 289.273 158.32C287.943 159.699 286.098 165.792 286.246 168.039C286.395 170.285 286.469 170.945 285.875 170.945C285.282 170.945 284.105 172.974 284.105 172.974L278.273 190.82C278.273 190.82 276.572 196.332 276.057 196.263C275.542 196.194 274.382 205.735 274.382 205.735C274.382 205.735 273.13 208.562 272.908 208.562C272.864 208.562 273.069 208.766 273.449 209.087L273.196 209.299C272.647 209.766 272.072 210.201 271.473 210.6C271.451 210.6 268.101 208.289 265.802 208.506C263.504 208.723 258.788 209.299 256.42 207.638C255.111 206.71 252.35 205.904 250.13 205.869C248.359 205.843 246.924 206.303 246.824 207.638C246.601 210.609 254.871 216.199 254.871 216.199C254.871 216.199 263.595 218.663 265.283 220.97C266.971 223.277 273.946 226.772 273.946 226.772C273.946 226.772 276.044 225.853 276.833 224.929C276.928 224.841 277.002 224.734 277.052 224.615C277.101 224.496 277.125 224.368 277.121 224.24C276.973 223.151 280 219.036 280 219.036L280.436 216.993C280.65 215.982 280.92 214.751 281.186 213.671C281.221 213.523 281.256 213.379 281.291 213.237C281.637 213.255 281.983 213.201 282.307 213.081C285.26 211.923 285.557 208.744 285.557 208.744L289.976 199.555C289.976 199.555 291.895 194.259 292.484 193.314C293.073 192.368 297.652 182.871 297.652 182.871C297.652 182.871 298.464 178.807 299.205 177.576C299.947 176.344 300.017 173.672 300.017 173.672C300.017 173.672 301.565 169.609 303.192 168.013C304.364 166.76 305.38 165.373 306.219 163.88C306.219 163.88 312.936 153.359 317.516 150.388C317.516 150.388 328.521 137.039 329.184 135.877C329.847 134.715 331.915 131.67 334.418 134.424C336.922 137.178 339.583 140.739 339.583 140.739L344.093 152.925L349.114 168.538C349.114 168.538 351.473 172.306 351.329 173.104C351.185 173.902 355.168 181.015 355.168 181.015C355.168 181.015 356.716 183.617 356.424 184.918C356.132 186.219 357.532 187.52 357.532 187.52L357.968 192.815C357.968 192.815 359.595 198.019 359.15 198.839C358.705 199.659 360.703 204.642 360.703 204.642C360.703 204.642 360.703 209.065 361.44 210.518C362.177 211.971 363.076 217.769 363.002 218.203C362.928 218.637 363.002 222.631 363.002 222.631C363.002 222.631 363.521 222.631 364.345 222.605L364.38 223.038L364.746 227.406L364.781 227.809C364.583 227.961 364.42 228.153 364.304 228.373C364.187 228.593 364.119 228.836 364.105 229.084C364.105 230.264 364.28 233.729 364.428 236.457C364.463 237.181 364.502 237.849 364.537 238.408C364.549 238.604 364.6 238.795 364.689 238.97C364.778 239.144 364.902 239.299 365.053 239.425C365.204 239.55 365.379 239.644 365.568 239.699C365.757 239.755 365.955 239.772 366.151 239.748C368.251 239.485 370.38 239.564 372.454 239.982C374.752 240.507 377.117 240.68 379.468 240.494C379.468 240.494 379.629 238.859 379.655 237.393C379.677 236.457 379.642 235.594 379.472 235.26Z" fill="url(#paint1_linear)"/>
<path d="M373.823 228.793H363.865L363.769 227.627L363.407 223.273L363.137 219.977H371.861L372.393 222.375L373.706 228.273L373.823 228.793Z" fill="#FFAAB0"/>
<path d="M282.294 211.299C282.107 211.481 281.797 212.578 281.483 213.901C280.92 216.225 280.332 219.248 280.332 219.248L279.965 219.335L272.201 221.2C272.201 221.2 268.132 211.949 270.02 211.732C270.686 211.594 271.315 211.316 271.865 210.917C272.488 210.507 273.084 210.058 273.649 209.573C274.683 208.705 275.473 207.899 275.473 207.899C275.473 207.899 282.805 210.791 282.294 211.299Z" fill="#FFAAB0"/>
<path opacity="0.1" d="M282.295 211.299C282.107 211.481 281.797 212.578 281.483 213.901C278.801 213.745 274.744 210.579 273.632 209.564C274.666 208.697 275.455 207.89 275.455 207.89C275.455 207.89 282.805 210.791 282.295 211.299Z" fill="black"/>
<path opacity="0.1" d="M372.388 222.371C369.998 223.012 365.614 223.208 363.403 223.268L363.133 219.972H371.856L372.388 222.371Z" fill="black"/>
<path d="M309.12 120.95C309.12 120.95 303.667 126.297 303.667 127.164C303.667 128.032 304.178 128.782 303.38 128.734C302.581 128.686 302.555 129.623 302.603 130.2C302.651 130.777 301.635 129.909 301.705 130.994C301.774 132.078 294.289 149.065 294.289 149.065C294.289 149.065 290.874 157.379 289.566 158.749C288.257 160.12 286.438 166.196 286.586 168.438C286.735 170.68 286.805 171.326 286.22 171.326C285.636 171.326 284.475 173.351 284.475 173.351L278.735 191.132C278.735 191.132 277.06 196.627 276.554 196.553C276.048 196.48 274.809 206.021 274.809 206.021C274.809 206.021 273.571 208.84 273.353 208.84C273.135 208.84 279.677 214.477 282.587 213.324C285.496 212.17 285.784 208.987 285.784 208.987L290.146 199.88C290.146 199.88 292.039 194.602 292.619 193.661C293.199 192.72 297.709 183.252 297.709 183.252C297.709 183.252 298.507 179.206 299.236 177.979C299.964 176.751 300.034 174.076 300.034 174.076C300.034 174.076 301.561 170.025 303.161 168.438C304.315 167.187 305.316 165.804 306.141 164.318C306.141 164.318 312.758 153.836 317.263 150.874C317.263 150.874 328.094 137.573 328.748 136.415C329.402 135.257 331.439 132.225 333.913 134.971C336.386 137.716 338.998 141.259 338.998 141.259L343.434 153.402L348.376 168.941C348.376 168.941 350.706 172.701 350.557 173.495C350.409 174.288 354.339 181.375 354.339 181.375C354.339 181.375 355.866 183.977 355.573 185.278C355.281 186.579 356.664 187.88 356.664 187.88L357.1 193.158C357.1 193.158 358.701 198.362 358.265 199.155C357.829 199.949 359.791 204.936 359.791 204.936C359.791 204.936 359.791 209.347 360.52 210.791C361.248 212.235 362.116 218.021 362.046 218.454C361.977 218.888 362.046 222.865 362.046 222.865C362.046 222.865 373.017 222.791 373.963 221.13C374.91 219.469 373.165 217.444 373.165 217.444L372.798 208.696L371.856 187.52C371.856 187.52 369.893 180.433 369.601 178.772C369.309 177.111 366.622 173.642 366.622 173.642C366.622 173.642 367.202 171.907 366.474 170.676C365.745 169.444 364.149 163.667 364.149 163.667L362.766 147.69L362.055 130.274L309.12 120.95Z" fill="#DCE6F2"/>
<path opacity="0.1" d="M364.079 132.152C363.643 131.787 345.759 131.644 345.541 131.644C345.323 131.644 338.562 128.968 338.562 128.968C338.562 128.968 323.514 126.514 321.189 127.598C318.864 128.682 311.663 125.573 311.663 125.573V124.198C311.663 124.198 307.811 122.897 307.811 122.611C307.811 122.324 308.54 119.427 308.54 119.427L308.976 119.276L310.642 118.708L361.75 126.874C361.75 126.874 362.426 128.253 363.058 129.602C363.691 130.95 364.302 132.334 364.079 132.152Z" fill="black"/>
<path d="M364.079 131.718C363.643 131.354 345.759 131.211 345.541 131.211C345.323 131.211 338.562 128.535 338.562 128.535C338.562 128.535 323.514 126.08 321.189 127.164C318.864 128.248 311.663 125.139 311.663 125.139V123.764C311.663 123.764 307.811 122.463 307.811 122.177C307.811 121.891 308.54 118.994 308.54 118.994L308.976 118.842L310.642 118.274L361.75 126.44C361.75 126.44 362.426 127.819 363.058 129.168C363.691 130.517 364.302 131.9 364.079 131.718Z" fill="#F1FAFF"/>
<path opacity="0.1" d="M280.746 216.772L280.31 218.814C280.31 218.814 280.166 219.014 279.943 219.335L272.201 221.2C272.201 221.2 268.132 211.949 270.02 211.732C270.686 211.594 271.315 211.316 271.865 210.917C271.468 213.814 273.728 216.863 273.728 216.863C276.916 219.248 280.746 216.772 280.746 216.772Z" fill="black"/>
<path d="M280.746 217.21L280.31 219.252C280.31 219.252 277.331 223.372 277.475 224.457C277.478 224.585 277.455 224.712 277.406 224.831C277.357 224.95 277.284 225.057 277.191 225.146V225.146C276.415 226.066 274.347 226.981 274.347 226.981C274.347 226.981 267.517 223.511 265.842 221.2C264.167 218.888 255.591 216.429 255.591 216.429C255.591 216.429 247.452 210.861 247.67 207.899C247.766 206.598 249.179 206.112 250.924 206.138C253.105 206.164 255.822 206.975 257.118 207.899C259.447 209.56 264.097 208.983 266.352 208.766C268.607 208.549 271.922 210.856 271.922 210.856C271.167 213.892 273.693 217.296 273.693 217.296C276.916 219.686 280.746 217.21 280.746 217.21Z" fill="#575988"/>
<path d="M277.213 225.142C276.436 226.061 274.369 226.976 274.369 226.976C274.369 226.976 267.538 223.507 265.863 221.195C264.188 218.884 255.613 216.425 255.613 216.425C255.613 216.425 247.474 210.856 247.692 207.894C247.788 206.593 249.201 206.108 250.946 206.134C252.254 208.302 254.187 211.316 255.613 212.157C257.942 213.532 262.522 216.134 262.522 216.134C262.522 216.134 269.789 220.688 270.299 221.195C270.718 221.616 274.927 224.383 277.213 225.142Z" fill="#F1FAFF"/>
<path opacity="0.1" d="M373.832 228.789H363.861L363.765 227.622C365.021 226.447 367.713 225.888 367.713 225.888C369.579 225.32 373.021 227.757 373.701 228.26L373.832 228.789Z" fill="black"/>
<path d="M378.443 237.558C378.417 239.02 378.255 240.646 378.255 240.646C375.941 240.832 373.612 240.661 371.35 240.139C369.31 239.72 367.214 239.641 365.148 239.904C364.954 239.927 364.757 239.91 364.57 239.854C364.383 239.799 364.21 239.705 364.06 239.58C363.911 239.455 363.789 239.3 363.702 239.126C363.616 238.952 363.566 238.763 363.556 238.569C363.525 238.014 363.486 237.346 363.451 236.626C363.303 233.924 363.133 230.472 363.133 229.297C363.133 227.276 367.713 226.335 367.713 226.335C369.789 225.701 373.819 228.793 373.819 228.793C373.819 228.793 377.819 234.574 378.255 235.442C378.425 235.776 378.46 236.634 378.443 237.558Z" fill="#575988"/>
<path d="M378.443 237.558C378.417 239.02 378.255 240.646 378.255 240.646C375.941 240.832 373.612 240.661 371.35 240.139C369.31 239.72 367.214 239.641 365.148 239.904C364.954 239.927 364.757 239.91 364.57 239.854C364.383 239.799 364.21 239.705 364.06 239.58C363.911 239.455 363.789 239.3 363.702 239.126C363.616 238.952 363.566 238.763 363.556 238.569C363.525 238.014 363.486 237.346 363.451 236.626C365.126 236.374 367.595 236.131 369.313 236.526C371.311 236.986 375.9 237.372 378.443 237.558Z" fill="#F1FAFF"/>
<path opacity="0.1" d="M279.132 194.134C279.132 194.134 277.605 196.736 279.132 197.928C280.659 199.121 279.132 194.134 279.132 194.134Z" fill="black"/>
<path opacity="0.1" d="M361.135 204.217C361.571 205.084 362.732 206.385 362.531 207.903C362.33 209.421 361.135 204.217 361.135 204.217Z" fill="black"/>
<path d="M359.791 45.6321C359.791 45.6321 353.131 44.9599 346.226 44.0492L345.943 44.0101C337.925 42.9476 329.699 41.5728 331.291 40.571C332.002 40.1373 332.6 39.0358 333.093 37.648C333.4 36.7592 333.657 35.8543 333.865 34.9375V34.9375C333.9 34.7944 333.93 34.6469 333.965 34.5038C334.266 33.1377 334.506 31.7109 334.693 30.4185C335.064 27.7861 335.217 25.6871 335.217 25.6871C335.217 25.6871 352.302 19.2512 350.195 27.2743C349.876 28.5626 349.855 29.9061 350.134 31.2035C350.385 32.4496 350.794 33.6591 351.351 34.8031C354.073 40.5797 359.791 45.6321 359.791 45.6321Z" fill="#FFAAB0"/>
<path opacity="0.1" d="M350.195 27.2699C349.876 28.5582 349.855 29.9017 350.134 31.1991C347.917 32.9871 345.113 33.8962 342.262 33.7512C339.412 33.6063 336.715 32.4176 334.693 30.4141C335.064 27.7817 335.217 25.6827 335.217 25.6827C335.217 25.6827 352.302 19.2468 350.195 27.2699Z" fill="black"/>
<path d="M354.409 21.8402C354.412 24.8883 353.198 27.8128 351.033 29.9705C349.961 31.0389 348.687 31.8869 347.286 32.466C345.884 33.0452 344.381 33.3441 342.863 33.3458C341.345 33.3475 339.842 33.052 338.439 32.476C337.036 31.9 335.76 31.0549 334.686 29.9889C332.516 27.8361 331.295 24.9143 331.291 21.8663V21.8402C331.291 18.7922 332.509 15.869 334.677 13.7138C336.844 11.5585 339.784 10.3477 342.85 10.3477C345.916 10.3477 348.856 11.5585 351.023 13.7138C353.191 15.869 354.409 18.7922 354.409 21.8402V21.8402Z" fill="#FFAAB0"/>
<path opacity="0.1" d="M346.379 43.5764C346.346 43.7392 346.295 43.8977 346.226 44.0491L345.943 44.0101C337.926 42.9476 329.699 41.5728 331.291 40.571C332.002 40.1373 332.6 39.0358 333.093 37.648C333.4 36.7592 333.657 35.8543 333.865 34.9375V34.9375C333.9 34.7944 333.93 34.6469 333.965 34.5038H334.301C334.327 34.6859 335.173 40.2414 342.671 41.1912L342.924 41.2215C345.851 41.5468 346.597 42.5009 346.379 43.5764Z" fill="black"/>
<path d="M345.943 44.0101C345.576 45.8099 342.488 47.9436 342.488 47.9436L333.908 46.352C333.908 46.352 328.53 41.5815 328.53 41.4383C328.53 41.2952 331.727 34.9331 331.727 34.9331H333.865C333.891 35.1153 334.737 40.6707 342.235 41.6205L342.488 41.6508C345.415 41.9804 346.161 42.9345 345.943 44.0101Z" fill="#F1FAFF"/>
<path opacity="0.1" d="M359.791 45.6321C359.791 45.6321 352.948 44.9425 345.943 44.0101C345.576 45.8099 342.488 47.9436 342.488 47.9436L333.908 46.352C333.908 46.352 328.53 41.5815 328.53 41.4384C328.53 41.2953 331.727 34.9331 331.727 34.9331H331.836C332.118 35.8949 332.541 36.8098 333.093 37.648C334.44 39.695 337.018 41.9371 341.816 41.6552L342.218 41.6249C349.419 41.0307 351.037 36.0737 351.334 34.7987C354.073 40.5797 359.791 45.6321 359.791 45.6321Z" fill="black"/>
<path opacity="0.1" d="M363.059 129.168L362.915 129.693C361.17 128.392 348.451 127.524 348.451 127.524C348.451 127.524 345.105 127.134 341.908 126.627C339.587 126.258 337.345 125.824 336.521 125.43C336.329 125.345 336.133 125.271 335.932 125.208C333.036 124.306 324.155 123.261 324.155 123.261C324.155 123.261 319.793 125.213 317.469 124.345C315.144 123.478 308.527 119.427 308.527 119.427C308.527 119.427 308.671 119.211 308.963 118.842L310.629 118.274L361.737 126.44C361.737 126.44 362.43 127.819 363.059 129.168Z" fill="black"/>
<path d="M363.878 106.313C364.851 112.063 366.12 120.473 365.462 121.691C364.441 123.569 362.914 129.281 362.914 129.281C361.17 127.98 348.451 127.112 348.451 127.112C348.451 127.112 345.105 126.722 341.908 126.215C339.587 125.846 337.345 125.412 336.521 125.018C336.329 124.933 336.133 124.859 335.932 124.796C333.036 123.894 324.155 122.849 324.155 122.849C324.155 122.849 319.793 124.801 317.468 123.933C315.144 123.066 308.527 119.015 308.527 119.015C309.479 117.717 310.577 116.53 311.798 115.477C314.049 113.451 318.192 96.0303 318.088 95.8134C317.983 95.5966 316.958 90.0324 317.25 86.7798C317.543 83.5272 316.378 67.6241 316.378 67.6241C316.378 67.6241 304.684 63.1224 304.479 56.1835C304.274 49.2446 311.24 45.1984 311.24 45.1984C311.24 45.1984 319.309 38.91 319.963 38.5457C320.618 38.1814 324.979 37.2446 328.543 35.2931C332.107 33.3415 331.74 34.9331 331.74 34.9331C331.74 34.9331 333.197 42.5963 341.847 42.0889C350.496 41.5814 351.443 34.9331 351.443 34.9331C352.372 32.6216 359.822 39.4868 359.822 39.4868C359.822 39.4868 361.711 43.3899 367.673 46.5688C372.035 48.8933 373.16 54.8781 373.457 57.9356C373.566 59.0675 373.562 59.7961 373.562 59.7961L356.04 72.3035L362.928 100.853C362.928 100.853 363.364 103.182 363.878 106.313Z" fill="#575988"/>
<path d="M320.535 121.167C320.535 121.167 326.279 130.994 332.238 128.249C333.58 127.642 334.695 126.627 335.422 125.352C337.773 121.31 335.422 116.153 330.868 114.943C329.189 114.509 327.379 114.236 325.913 114.509C321.769 115.238 320.535 121.167 320.535 121.167Z" fill="#FFAAB0"/>
<path opacity="0.1" d="M320.535 121.167C320.535 121.167 326.279 130.994 332.238 128.249C333.58 127.642 334.695 126.627 335.422 125.352C337.773 121.31 335.422 116.153 330.868 114.943C329.189 114.509 327.379 114.236 325.913 114.509C321.769 115.238 320.535 121.167 320.535 121.167Z" fill="black"/>
<path opacity="0.1" d="M312.103 49.3921C312.103 49.3921 316.635 52.4279 316.731 57.1984L312.103 49.3921Z" fill="black"/>
<path opacity="0.1" d="M319.226 51.7036C319.226 51.9942 317.918 72.0867 320.243 78.9519C322.567 85.8171 319.226 51.7036 319.226 51.7036Z" fill="black"/>
<path opacity="0.1" d="M354.409 21.8402C354.414 24.0673 353.764 26.2472 352.538 28.1112C352.538 27.9638 352.538 27.8207 352.538 27.6775C352.463 26.4719 351.822 25.3834 351.199 24.3425C350.774 23.5149 350.18 22.785 349.454 22.2001C349.242 22.0777 349.044 21.9322 348.865 21.7665C348.464 21.3328 348.507 20.6432 348.429 20.0317C348.313 19.232 347.948 18.4885 347.385 17.9053C346.823 17.322 346.091 16.9282 345.293 16.7791C344.961 16.6968 344.611 16.7466 344.316 16.9179C344.019 17.1261 343.879 17.512 343.631 17.7506C343.238 18.1018 342.636 18.0585 342.117 17.9587C340.974 17.7332 339.784 17.3212 338.676 17.6855C336.774 18.3143 336.059 20.9294 334.109 21.4152C333.531 21.5009 332.948 21.5415 332.364 21.5366C331.989 21.561 331.624 21.6724 331.3 21.8619V21.8358C331.3 18.7878 332.518 15.8646 334.685 13.7094C336.853 11.5541 339.793 10.3433 342.859 10.3433C345.924 10.3433 348.864 11.5541 351.032 13.7094C353.2 15.8646 354.418 18.7878 354.418 21.8358L354.409 21.8402Z" fill="black"/>
<path d="M331.405 14.2118C331.767 13.7304 332.347 13.4399 332.674 12.9325C333.171 12.1562 332.927 11.1327 333.171 10.2436C333.468 9.15509 334.445 8.40916 335.352 7.74562C336.661 6.80887 338.078 5.83308 339.67 5.94151C340.761 6.01957 341.751 6.60938 342.833 6.78285C344.521 7.05607 346.213 6.30146 347.923 6.34917C348.778 6.39181 349.61 6.63778 350.349 7.06642C351.088 7.49507 351.713 8.09385 352.171 8.81248C352.847 9.88801 353.205 11.2888 354.352 11.8483C354.788 12.0694 355.277 12.1388 355.704 12.36C356.1 12.5997 356.433 12.9297 356.675 13.3226C356.917 13.7155 357.061 14.1601 357.096 14.6195C357.156 15.5361 357.091 16.4566 356.904 17.356C356.818 17.8091 356.798 18.272 356.843 18.7308C356.921 19.2989 357.192 19.828 357.248 20.4005C357.379 21.7015 356.376 22.8421 355.648 23.9567C355.001 24.9566 354.542 26.0643 354.291 27.2266C354.22 27.7734 354.064 28.3059 353.829 28.8052C353.707 29.0529 353.513 29.2581 353.271 29.3936C353.03 29.5291 352.753 29.5886 352.477 29.5642C352.394 28.7792 352.59 27.9856 352.538 27.1963C352.464 25.9906 351.822 24.9021 351.199 23.8656C350.775 23.036 350.181 22.3045 349.454 21.7189C349.242 21.5978 349.046 21.4522 348.869 21.2852C348.464 20.8515 348.507 20.1663 348.433 19.5505C348.316 18.7516 347.951 18.009 347.389 17.4266C346.826 16.8442 346.095 16.4511 345.297 16.3022C344.966 16.2186 344.616 16.2668 344.32 16.4366C344.023 16.6448 343.884 17.0308 343.635 17.2693C343.243 17.6206 342.641 17.5815 342.122 17.4775C340.979 17.2563 339.788 16.8399 338.68 17.2042C336.778 17.8331 336.063 20.4482 334.113 20.9339C333.536 21.022 332.952 21.0626 332.368 21.0553C332.074 21.056 331.784 21.1269 331.523 21.262C331.262 21.397 331.037 21.5924 330.868 21.8316C330.284 21.2245 330.401 20.2357 330.689 19.4464C331.025 18.5226 331.33 17.8678 331.165 16.8963C330.999 15.9249 330.781 15.0402 331.405 14.2118Z" fill="#794F6A"/>
<path opacity="0.1" d="M288.946 171.907C288.946 171.907 284.803 174.076 286.983 174.509C289.164 174.943 288.946 171.907 288.946 171.907Z" fill="black"/>
<path opacity="0.1" d="M357.209 177.112C357.209 177.112 359.499 174.076 362.007 175.919C364.515 177.762 357.209 177.112 357.209 177.112Z" fill="black"/>
<path opacity="0.1" d="M362.531 179.063C362.531 179.063 365.388 178.087 367.133 179.063H362.531Z" fill="black"/>
<path opacity="0.1" d="M306.067 129.84C306.067 129.84 312.173 135.695 314.136 135.912C316.099 136.128 306.067 129.84 306.067 129.84Z" fill="black"/>
<path opacity="0.1" d="M306.939 52.8615L305.351 56.1835L304.549 63.9898L303.969 78.5181C303.969 78.5181 302.878 90.8781 303.969 92.6128C305.059 94.3475 306.948 104.613 306.586 105.914C306.224 107.215 311.384 119.358 312.33 120.082C313.277 120.806 316.618 120.95 318.507 120.585L321.961 123.851L331.74 114.878L325.704 110.324C325.704 110.324 327.086 108.009 323.235 105.48C323.235 105.48 321.49 102.587 321.416 101.07C321.325 97.9731 320.786 94.9058 319.815 91.9623C318.437 87.916 317.634 65.4383 317.634 65.4383C317.634 65.4383 314.354 49.0277 306.939 52.8615Z" fill="black"/>
<path d="M306.067 52.8615L304.479 56.1835L303.676 63.9898L303.096 78.5181C303.096 78.5181 302.006 90.8781 303.096 92.6128C304.187 94.3475 306.075 104.613 305.713 105.914C305.351 107.215 310.511 119.358 311.458 120.082C312.404 120.806 315.746 120.95 317.634 120.585L321.089 123.851L330.868 114.878L324.831 110.324C324.831 110.324 326.214 108.009 322.363 105.48C322.363 105.48 320.618 102.587 320.544 101.07C320.453 97.9731 319.914 94.9058 318.943 91.9623C317.564 87.916 316.762 65.4383 316.762 65.4383C316.762 65.4383 313.482 49.0277 306.067 52.8615Z" fill="#575988"/>
<path opacity="0.1" d="M321.263 107.215C320.827 107.432 312.029 115.529 315.301 115.746C318.572 115.962 321.263 107.215 321.263 107.215Z" fill="black"/>
<path d="M332.456 116.973C332.456 116.973 319.881 118.274 320.535 123.335C321.189 128.396 330.131 133.271 332.966 131.735C335.801 130.2 338.2 128.734 338.2 128.734L332.456 116.973Z" fill="#FFAAB0"/>
<path opacity="0.1" d="M370.84 56.331L372.659 59.8005C372.659 59.8005 374.547 74.6151 372.659 80.3267C370.77 86.0383 366.19 99.1918 366.19 99.1918C366.19 99.1918 360.664 108.807 360.52 109.24C360.376 109.674 349.903 124.705 348.014 125.503C346.126 126.301 342.562 125.881 342.344 125.005C342.126 124.129 337.328 128.734 337.328 128.734C337.328 128.734 328.081 117.623 329.551 116.465C331.021 115.307 335.474 115.021 335.474 115.021C335.474 115.021 335.801 116.105 336.163 113.863C336.525 111.621 338.2 110.468 339.435 110.611C340.669 110.754 340.163 109.457 340.381 108.082C340.599 106.708 344.015 104.253 344.015 104.253C344.015 104.253 345.69 101.577 345.69 99.9855C345.69 98.3939 349.179 97.0234 349.467 97.0234C349.755 97.0234 349.685 96.3729 349.685 94.0614C349.685 91.7498 351.43 87.6255 351.43 87.6255L352.507 74.6151L354.4 61.3878C354.4 61.3878 359.573 45.2721 370.84 56.331Z" fill="black"/>
<path opacity="0.1" d="M362.928 100.853C362.928 100.853 363.364 103.182 363.892 106.291C363.019 107.848 362.326 109.088 362.273 109.236C362.129 109.67 351.661 124.705 349.772 125.499C347.884 126.293 344.32 125.876 344.102 125.005C344.006 124.614 343.007 125.304 341.921 126.193C340.569 127.303 339.081 128.73 339.081 128.73C339.081 128.73 337.616 126.969 335.945 124.775C333.415 121.461 330.419 117.164 331.3 116.465C332.77 115.307 337.228 115.021 337.228 115.021C337.228 115.021 337.555 116.105 337.917 113.863C338.279 111.621 339.954 110.468 341.188 110.611C342.423 110.754 341.917 109.453 342.135 108.082C342.353 106.712 345.768 104.249 345.768 104.249C345.768 104.249 347.439 101.577 347.439 99.9854C347.439 98.3938 350.928 97.0234 351.22 97.0234C351.513 97.0234 351.439 96.3729 351.439 94.057C351.439 91.7411 353.183 87.6255 353.183 87.6255L354.261 74.615L356.149 61.3877C356.149 61.3877 361.314 45.2678 372.58 56.3267L373.422 57.9356C373.531 59.0675 373.527 59.7961 373.527 59.7961L356.005 72.3035L362.928 100.853Z" fill="black"/>
<path d="M371.712 56.331L373.531 59.8005C373.531 59.8005 375.42 74.6151 373.531 80.3267C371.643 86.0383 367.063 99.1918 367.063 99.1918C367.063 99.1918 361.536 108.807 361.392 109.24C361.248 109.674 350.776 124.705 348.887 125.503C346.998 126.301 343.435 125.881 343.216 125.005C342.998 124.129 338.2 128.734 338.2 128.734C338.2 128.734 328.953 117.623 330.423 116.465C331.893 115.307 336.347 115.021 336.347 115.021C336.347 115.021 336.674 116.105 337.036 113.863C337.398 111.621 339.073 110.468 340.307 110.611C341.542 110.754 341.036 109.457 341.254 108.082C341.472 106.708 344.887 104.253 344.887 104.253C344.887 104.253 346.562 101.577 346.562 99.9855C346.562 98.3939 350.051 97.0234 350.339 97.0234C350.627 97.0234 350.557 96.3729 350.557 94.0614C350.557 91.7498 352.302 87.6255 352.302 87.6255L353.38 74.6151L355.273 61.3878C355.273 61.3878 360.446 45.2721 371.712 56.331Z" fill="#575988"/>
<path opacity="0.1" d="M339.291 114.414C339.291 114.414 339.727 115.39 341.69 115.745C343.653 116.101 339.291 114.414 339.291 114.414Z" fill="black"/>
<path opacity="0.1" d="M362.771 56.4004C362.701 56.6172 356.228 63.8901 357.536 65.7853C358.845 67.6805 362.771 56.4004 362.771 56.4004Z" fill="black"/>
<path opacity="0.1" d="M355.43 89.7939C355.43 89.7939 359.137 93.4109 358.409 95.1456C357.68 96.8803 355.43 89.7939 355.43 89.7939Z" fill="black"/>
<path opacity="0.1" d="M356.01 82.9287C356.228 83.2887 364.227 84.2298 364.664 87.2655C365.1 90.3013 356.01 82.9287 356.01 82.9287Z" fill="black"/>
<g opacity="0.1">
<path opacity="0.1" d="M356.821 17.9197C356.821 17.7549 356.86 17.5858 356.887 17.4167C357.05 16.5899 357.12 15.7478 357.096 14.9056C357.061 15.4564 356.965 16.0072 356.887 16.5493C356.8 17.0007 356.777 17.4621 356.821 17.9197V17.9197Z" fill="black"/>
<path opacity="0.1" d="M331.169 17.0697C331.221 16.7494 331.221 16.4229 331.169 16.1026C331.117 15.7947 331.06 15.4867 331.029 15.1788C330.983 15.7795 331.03 16.3836 331.169 16.9699V17.0697Z" fill="black"/>
<path opacity="0.1" d="M357.209 20.2833C357.022 21.3155 356.241 22.2392 355.643 23.1543C354.994 24.1513 354.534 25.2581 354.287 26.4199C354.212 26.966 354.056 27.498 353.824 27.9985C353.704 28.247 353.51 28.4529 353.268 28.5886C353.026 28.7242 352.749 28.7831 352.472 28.7575C352.474 28.7431 352.474 28.7285 352.472 28.7141C352.448 29.0172 352.448 29.3217 352.472 29.6248C352.749 29.6505 353.026 29.5916 353.268 29.4559C353.51 29.3203 353.704 29.1144 353.824 28.8659C354.056 28.3653 354.212 27.8333 354.287 27.2873C354.534 26.1255 354.994 25.0187 355.643 24.0217C356.367 22.9071 357.388 21.7839 357.24 20.4611C357.257 20.4004 357.218 20.344 357.209 20.2833Z" fill="black"/>
<path opacity="0.1" d="M352.533 26.3938C352.459 25.1882 351.818 24.0953 351.194 23.0588C350.772 22.2221 350.178 21.4832 349.449 20.8904C349.237 20.7681 349.04 20.6226 348.861 20.4567C348.459 20.023 348.503 19.3335 348.424 18.722C348.307 17.9231 347.942 17.1805 347.38 16.5981C346.818 16.0157 346.086 15.6226 345.288 15.4737C344.957 15.3901 344.607 15.4383 344.311 15.6081C344.015 15.8163 343.875 16.2023 343.626 16.4451C343.406 16.59 343.155 16.6839 342.893 16.7199C342.631 16.7559 342.365 16.7332 342.113 16.6533C340.97 16.4278 339.779 16.0115 338.671 16.3801C336.77 17.0046 336.054 19.6197 334.1 20.1054C333.523 20.193 332.939 20.235 332.355 20.2312C332.062 20.2299 331.772 20.2995 331.512 20.434C331.251 20.5684 331.027 20.7637 330.859 21.0031C330.66 20.7928 330.528 20.5288 330.48 20.2442C330.412 20.526 330.41 20.8196 330.476 21.1019C330.542 21.3842 330.673 21.6474 330.859 21.8705C331.027 21.6311 331.251 21.4358 331.512 21.3013C331.772 21.1669 332.062 21.0973 332.355 21.0986C332.939 21.1024 333.523 21.0603 334.1 20.9728C336.045 20.4871 336.77 17.872 338.671 17.2475C339.779 16.8788 340.97 17.2952 342.113 17.5207C342.365 17.6005 342.631 17.6233 342.893 17.5872C343.155 17.5512 343.406 17.4573 343.626 17.3125C343.897 17.0696 344.015 16.6837 344.311 16.4755C344.607 16.3057 344.957 16.2574 345.288 16.3411C346.086 16.4899 346.818 16.8831 347.38 17.4655C347.942 18.0479 348.307 18.7904 348.424 19.5893C348.499 20.1878 348.455 20.86 348.861 21.3241C349.04 21.49 349.237 21.6355 349.449 21.7578C350.178 22.3506 350.772 23.0895 351.194 23.9262C351.8 24.9366 352.415 25.9948 352.503 27.1614C352.53 26.9065 352.541 26.6501 352.533 26.3938V26.3938Z" fill="black"/>
</g>
<path d="M209.172 63.6776V109.188C209.171 109.284 209.189 109.379 209.226 109.468C209.262 109.556 209.316 109.637 209.385 109.704C209.453 109.772 209.534 109.825 209.624 109.861C209.713 109.897 209.809 109.914 209.905 109.912C222.511 109.522 233.023 99.1615 233.023 86.4329C233.023 73.7043 222.52 63.3393 209.905 62.9533C209.809 62.951 209.713 62.9681 209.623 63.0036C209.533 63.0391 209.452 63.0923 209.383 63.1599C209.315 63.2276 209.261 63.3084 209.225 63.3973C209.188 63.4863 209.171 63.5816 209.172 63.6776V63.6776Z" fill="#61BEEC"/>
<path d="M177.693 125.828V88.1632C177.648 82.1396 179.589 76.2673 183.219 71.4448C186.652 66.9605 191.996 62.9012 200.074 62.9533C200.183 62.9527 200.29 62.9734 200.391 63.0143C200.492 63.0552 200.584 63.1154 200.661 63.1915C200.738 63.2676 200.8 63.3582 200.842 63.4579C200.884 63.5577 200.906 63.6647 200.907 63.7729V102.544C200.907 102.544 202.215 123.734 178.155 126.241C178.098 126.244 178.04 126.236 177.985 126.217C177.931 126.198 177.881 126.169 177.838 126.131C177.795 126.092 177.76 126.046 177.735 125.994C177.71 125.942 177.696 125.886 177.693 125.828V125.828Z" fill="#4064AC"/>
<path opacity="0.1" d="M78.509 58.7032C86.0973 58.7032 92.2488 52.587 92.2488 45.0422C92.2488 37.4975 86.0973 31.3812 78.509 31.3812C70.9207 31.3812 64.7692 37.4975 64.7692 45.0422C64.7692 52.587 70.9207 58.7032 78.509 58.7032Z" fill="#EF5B59"/>
<path opacity="0.1" d="M49.7207 20.9729C54.4182 20.9729 58.2263 17.1867 58.2263 12.5161C58.2263 7.84557 54.4182 4.05933 49.7207 4.05933C45.0232 4.05933 41.2151 7.84557 41.2151 12.5161C41.2151 17.1867 45.0232 20.9729 49.7207 20.9729Z" fill="#EF5B59"/>
<path opacity="0.1" d="M5.23422 36.5855C8.125 36.5855 10.4684 34.2555 10.4684 31.3813C10.4684 28.5071 8.125 26.1771 5.23422 26.1771C2.34344 26.1771 0 28.5071 0 31.3813C0 34.2555 2.34344 36.5855 5.23422 36.5855Z" fill="#EF5B59"/>
<path d="M178.779 291.404C178.361 291.974 178.026 292.601 177.785 293.265C177.724 293.425 177.663 293.612 177.601 293.789C177.491 293.738 177.376 293.698 177.257 293.672C176.749 293.544 176.223 293.498 175.7 293.538C175.7 293.338 175.726 293.104 175.73 292.905C175.796 290.619 175.525 287.432 173.331 288.78C171.229 290.082 172.729 292.25 174.086 293.642L174.435 293.98C173.196 294.848 172.96 296.899 172.755 299.028C172.55 301.158 170.732 303.491 169.523 304.814C169.401 304.948 169.292 305.07 169.183 305.182C168.695 304.794 168.13 304.512 167.525 304.358C166.919 304.203 166.288 304.178 165.672 304.285C165.624 304.098 165.571 303.903 165.51 303.695C164.538 300.169 162.509 294.097 159.919 292.796L160.259 292.363C161.358 290.932 162.597 288.806 160.769 288.264C158.941 287.722 158.776 290.108 158.876 291.894C158.876 292.115 158.911 292.328 158.928 292.527C158.563 292.544 158.205 292.635 157.877 292.795C157.548 292.955 157.256 293.179 157.018 293.456L156.734 293.126C155.251 291.391 152.534 288.629 151.71 290.715C150.946 292.658 153.337 295.177 155.02 296.639L155.125 296.73C153.995 301.292 158.928 305.009 161.585 306.635L161.929 306.843C158.265 311.137 156.002 319.182 156.002 319.182L166.265 321.003C166.265 321.003 173.065 315.166 172.193 309.688H172.263C179.063 308.335 180.607 301.127 179.551 296.847C179.59 296.847 179.63 296.817 179.669 296.795C180.907 296.292 181.992 295.477 182.818 294.431C184.72 291.79 180.733 288.824 178.779 291.404Z" fill="#EF5B59"/>
<path opacity="0.1" d="M178.779 291.404C178.361 291.974 178.026 292.601 177.785 293.265C177.724 293.425 177.663 293.612 177.601 293.789C177.491 293.738 177.376 293.698 177.257 293.672C176.749 293.544 176.223 293.498 175.7 293.538C175.7 293.338 175.726 293.104 175.73 292.905C175.796 290.619 175.525 287.432 173.331 288.78C171.229 290.082 172.729 292.25 174.086 293.642L174.435 293.98C173.196 294.848 172.96 296.899 172.755 299.028C172.55 301.158 170.732 303.491 169.523 304.814C169.401 304.948 169.292 305.07 169.183 305.182C168.695 304.794 168.13 304.512 167.525 304.358C166.919 304.203 166.288 304.178 165.672 304.285C165.624 304.098 165.571 303.903 165.51 303.695C164.538 300.169 162.509 294.097 159.919 292.796L160.259 292.363C161.358 290.932 162.597 288.806 160.769 288.264C158.941 287.722 158.776 290.108 158.876 291.894C158.876 292.115 158.911 292.328 158.928 292.527C158.563 292.544 158.205 292.635 157.877 292.795C157.548 292.955 157.256 293.179 157.018 293.456L156.734 293.126C155.251 291.391 152.534 288.629 151.71 290.715C150.946 292.658 153.337 295.177 155.02 296.639L155.125 296.73C153.995 301.292 158.928 305.009 161.585 306.635L161.929 306.843C158.265 311.137 156.002 319.182 156.002 319.182L166.265 321.003C166.265 321.003 173.065 315.166 172.193 309.688H172.263C179.063 308.335 180.607 301.127 179.551 296.847C179.59 296.847 179.63 296.817 179.669 296.795C180.907 296.292 181.992 295.477 182.818 294.431C184.72 291.79 180.733 288.824 178.779 291.404Z" fill="black"/>
<path d="M158.357 294.345L157.157 297.814C157.157 297.814 156.49 297.346 155.648 296.608C153.964 295.147 151.574 292.627 152.337 290.684C153.162 288.598 155.879 291.352 157.362 293.096C157.96 293.807 158.357 294.345 158.357 294.345Z" fill="#EF5B59"/>
<path d="M160.887 292.363C160.522 292.838 160.132 293.294 159.718 293.729C159.616 293.121 159.544 292.509 159.504 291.894C159.404 290.107 159.596 287.735 161.397 288.264C163.199 288.793 161.986 290.923 160.887 292.363Z" fill="#EF5B59"/>
<path d="M176.358 292.905C176.323 294.054 176.21 294.969 176.21 294.969C175.682 294.568 175.183 294.132 174.714 293.664C173.357 292.263 171.857 290.103 173.959 288.802C176.153 287.432 176.424 290.628 176.358 292.905Z" fill="#EF5B59"/>
<path d="M183.446 294.409C182.62 295.455 181.535 296.27 180.297 296.773C179.954 296.923 179.601 297.051 179.241 297.155L177.828 295.181C177.978 294.53 178.173 293.889 178.413 293.265C178.654 292.601 178.989 291.974 179.407 291.404C181.361 288.824 185.348 291.79 183.446 294.409Z" fill="#EF5B59"/>
<path opacity="0.1" d="M157.362 293.117C157.96 293.807 158.357 294.344 158.357 294.344L157.157 297.814C157.157 297.814 156.49 297.346 155.648 296.608C155.836 295.49 156.301 294.437 157 293.542C157.118 293.403 157.245 293.252 157.362 293.117Z" fill="black"/>
<path opacity="0.1" d="M160.887 292.363C160.522 292.838 160.131 293.294 159.718 293.729C159.616 293.121 159.544 292.509 159.504 291.894C160.003 291.902 160.487 292.066 160.887 292.363V292.363Z" fill="black"/>
<path d="M166.788 306.21L163.8 307.511C163.8 307.511 163.151 307.199 162.213 306.622C159.077 304.701 152.774 299.874 157 294.184C161.227 288.494 164.751 298.699 166.138 303.69C166.562 305.187 166.788 306.21 166.788 306.21Z" fill="#EF5B59"/>
<path opacity="0.1" d="M174.714 293.664C175.147 293.218 175.736 292.954 176.358 292.926C176.323 294.076 176.21 294.991 176.21 294.991C175.682 294.582 175.182 294.139 174.714 293.664V293.664Z" fill="black"/>
<path opacity="0.1" d="M180.297 296.773C179.954 296.923 179.601 297.051 179.241 297.155L177.828 295.182C177.978 294.53 178.173 293.889 178.413 293.265C179.324 293.798 179.996 295.112 180.297 296.773Z" fill="black"/>
<path d="M172.891 309.666L172.389 309.753C162.387 311.267 169.091 305.898 169.091 305.898C169.091 305.898 169.528 305.464 170.151 304.813C171.36 303.491 173.174 301.171 173.383 299.028C173.697 295.806 174.06 292.783 177.885 293.672C181.64 294.531 182.347 307.78 172.891 309.666Z" fill="#EF5B59"/>
<path d="M172.707 334.425H153.598V339.421H172.707V334.425Z" fill="#D4DFEC"/>
<path d="M175.53 318.188H150.562V335.622H175.53V318.188Z" fill="#D4DFEC"/>
<path opacity="0.1" d="M172.707 334.425H153.598V339.421H172.707V334.425Z" fill="black"/>
<path opacity="0.1" d="M175.53 318.188H150.562V335.622H175.53V318.188Z" fill="black"/>
<path d="M173.964 334.425H154.854V339.421H173.964V334.425Z" fill="#D4DFEC"/>
<path opacity="0.1" d="M166.138 303.695C166.575 305.187 166.788 306.21 166.788 306.21L163.8 307.511C163.8 307.511 163.151 307.199 162.213 306.622C163.382 305.152 164.699 304.037 166.138 303.695Z" fill="black"/>
<path opacity="0.1" d="M172.891 309.667L172.389 309.753C162.387 311.267 169.091 305.898 169.091 305.898C169.091 305.898 169.528 305.464 170.151 304.813C172.018 306.301 172.79 307.975 172.891 309.667Z" fill="black"/>
<path d="M156.612 319.173C156.612 319.173 162.213 299.223 170.068 305.382C177.924 311.54 166.876 320.994 166.876 320.994L156.612 319.173Z" fill="#EF5B59"/>
<path opacity="0.1" d="M159.46 297.94C159.807 297.94 160.089 297.66 160.089 297.315C160.089 296.97 159.807 296.691 159.46 296.691C159.113 296.691 158.832 296.97 158.832 297.315C158.832 297.66 159.113 297.94 159.46 297.94Z" fill="black"/>
<path opacity="0.1" d="M159.408 300.854C159.755 300.854 160.036 300.574 160.036 300.229C160.036 299.885 159.755 299.605 159.408 299.605C159.061 299.605 158.78 299.885 158.78 300.229C158.78 300.574 159.061 300.854 159.408 300.854Z" fill="black"/>
<path opacity="0.1" d="M177.623 298.512C177.97 298.512 178.251 298.233 178.251 297.888C178.251 297.543 177.97 297.263 177.623 297.263C177.276 297.263 176.995 297.543 176.995 297.888C176.995 298.233 177.276 298.512 177.623 298.512Z" fill="black"/>
<path opacity="0.1" d="M162.967 313.453C163.314 313.453 163.595 313.173 163.595 312.828C163.595 312.483 163.314 312.204 162.967 312.204C162.62 312.204 162.339 312.483 162.339 312.828C162.339 313.173 162.62 313.453 162.967 313.453Z" fill="black"/>
<path opacity="0.1" d="M176.315 303.352C176.662 303.352 176.943 303.072 176.943 302.728C176.943 302.383 176.662 302.103 176.315 302.103C175.968 302.103 175.687 302.383 175.687 302.728C175.687 303.072 175.968 303.352 176.315 303.352Z" fill="black"/>
<path opacity="0.1" d="M169.824 309.81C170.171 309.81 170.452 309.53 170.452 309.185C170.452 308.84 170.171 308.561 169.824 308.561C169.477 308.561 169.196 308.84 169.196 309.185C169.196 309.53 169.477 309.81 169.824 309.81Z" fill="black"/>
<path opacity="0.1" d="M161.606 299.189C161.953 299.189 162.235 298.909 162.235 298.564C162.235 298.219 161.953 297.94 161.606 297.94C161.26 297.94 160.978 298.219 160.978 298.564C160.978 298.909 161.26 299.189 161.606 299.189Z" fill="black"/>
<path opacity="0.1" d="M175.896 300.386C176.243 300.386 176.524 300.106 176.524 299.761C176.524 299.416 176.243 299.137 175.896 299.137C175.549 299.137 175.268 299.416 175.268 299.761C175.268 300.106 175.549 300.386 175.896 300.386Z" fill="black"/>
<path opacity="0.1" d="M173.75 305.226C174.097 305.226 174.378 304.946 174.378 304.601C174.378 304.256 174.097 303.977 173.75 303.977C173.403 303.977 173.122 304.256 173.122 304.601C173.122 304.946 173.403 305.226 173.75 305.226Z" fill="black"/>
<path opacity="0.1" d="M167.155 312.984C167.502 312.984 167.783 312.705 167.783 312.36C167.783 312.015 167.502 311.735 167.155 311.735C166.808 311.735 166.527 312.015 166.527 312.36C166.527 312.705 166.808 312.984 167.155 312.984Z" fill="black"/>
<path opacity="0.1" d="M165.794 309.914C166.141 309.914 166.422 309.634 166.422 309.289C166.422 308.944 166.141 308.665 165.794 308.665C165.447 308.665 165.166 308.944 165.166 309.289C165.166 309.634 165.447 309.914 165.794 309.914Z" fill="black"/>
<path opacity="0.1" d="M162.549 302.988C162.896 302.988 163.177 302.708 163.177 302.363C163.177 302.018 162.896 301.739 162.549 301.739C162.202 301.739 161.921 302.018 161.921 302.363C161.921 302.708 162.202 302.988 162.549 302.988Z" fill="black"/>
<path opacity="0.1" d="M173.964 334.425H154.854V336.251H173.964V334.425Z" fill="black"/>
<path d="M176.786 318.188H151.818V335.622H176.786V318.188Z" fill="#D4DFEC"/>
<path opacity="0.1" d="M167.992 315.794C168.339 315.794 168.62 315.515 168.62 315.17C168.62 314.825 168.339 314.545 167.992 314.545C167.645 314.545 167.364 314.825 167.364 315.17C167.364 315.515 167.645 315.794 167.992 315.794Z" fill="black"/>
<path opacity="0.1" d="M164.224 316.575C164.57 316.575 164.852 316.295 164.852 315.951C164.852 315.606 164.57 315.326 164.224 315.326C163.877 315.326 163.595 315.606 163.595 315.951C163.595 316.295 163.877 316.575 164.224 316.575Z" fill="black"/>
</g>
<defs>
<linearGradient id="paint0_linear" x1="102.351" y1="335.57" x2="102.351" y2="104.305" gradientUnits="userSpaceOnUse">
<stop stop-color="#808080" stop-opacity="0.25"/>
<stop offset="0.54" stop-color="#808080" stop-opacity="0.12"/>
<stop offset="1" stop-color="#808080" stop-opacity="0.1"/>
</linearGradient>
<linearGradient id="paint1_linear" x1="103481" y1="144113" x2="103481" y2="16073.5" gradientUnits="userSpaceOnUse">
<stop stop-color="#808080" stop-opacity="0.25"/>
<stop offset="0.54" stop-color="#808080" stop-opacity="0.12"/>
<stop offset="1" stop-color="#808080" stop-opacity="0.1"/>
</linearGradient>
<clipPath id="clip0">
<rect width="472" height="341" fill="white"/>
</clipPath>
</defs>
</svg>
