<svg width="737" height="524" viewBox="0 0 737 524" fill="none" xmlns="http://www.w3.org/2000/svg">
<g clip-path="url(#clip0)">
<path opacity="0.2" d="M104.031 28.9566C98.5655 28.8039 92.9642 28.9566 87.8376 30.4967C73.8885 34.6921 67.2768 48.4203 69.4265 60.2831C71.5761 72.1459 80.4189 82.4818 89.5939 91.9282C98.769 101.375 108.71 110.715 113.742 122.007C116.251 127.643 117.424 133.956 114.874 139.585C110.941 148.261 99.0809 153.107 87.6952 154.117C76.3094 155.126 64.8763 153.161 53.4498 152.503C48.6555 152.231 43.7255 152.198 39.2092 153.466C34.2521 154.847 30.1223 157.668 26.3248 160.609C11.4807 172.133 -0.400099 187.873 1.53934 204.382C3.70934 223.122 23.063 237.933 44.2612 245.879C51.2798 248.534 58.7053 250.645 64.883 254.402C81.158 264.314 84.8131 282.901 83.1924 299.304C81.5717 315.708 76.0518 332.131 79.1237 348.389C82.7381 367.301 98.7351 384.388 120.313 392.368C139.538 399.477 163.598 399.006 180.666 388.976C188.987 384.076 195.28 377.272 200.752 370.235C208.878 359.844 215.591 348.464 220.723 336.38C223.103 330.744 225.341 324.683 230.895 320.766C234.286 318.357 238.68 317.009 243.027 315.96C256.128 312.8 269.928 311.937 283.151 309.123C296.375 306.308 309.646 301.057 316.834 291.677C327.006 278.4 322.259 261.393 322.306 245.779C322.388 210.158 348.828 178.274 358.586 143.548C361.773 132.203 362.96 119.65 355.84 109.527C351.004 102.656 342.847 97.697 334.275 93.8666C315.416 85.4425 293.981 81.6918 272.898 78.0407C243.596 72.969 208.015 72.3118 185.305 55.9018C163.543 40.1821 133.726 28.9566 104.031 28.9566Z" fill="#FE4D33"/>
<g opacity="0.5">
<path opacity="0.5" d="M18.5399 231.912C17.0888 234.009 15.8953 237.056 17.794 240.608C21.5237 247.578 30.7462 246.144 35.2286 252.816C36.4263 254.665 37.0939 256.795 37.1613 258.983C37.3308 262.76 36.1373 265.734 35.5202 269.06C34.7131 272.982 35.3421 277.057 37.2969 280.571C39.4973 284.239 42.8178 287.139 46.7906 288.862C50.2626 290.362 53.5719 290.748 56.8947 291.478C61.0168 292.403 65.0318 293.738 68.8772 295.461C70.7049 296.211 72.4239 297.193 73.9902 298.382C75.9007 300.023 77.6344 301.851 79.1643 303.838L93.5881 321.271C95.4208 323.621 97.4632 325.807 99.6912 327.803C102.122 329.722 104.793 331.331 107.639 332.589C113.396 335.397 119.418 338.272 124.416 337.946C129.413 337.621 132.885 332.901 130.519 326.303C128.281 320.023 121.974 314.732 119.113 308.465C114.603 298.587 120.51 291.206 116.732 281.314C113.111 271.808 102.96 265.435 96.4769 256.752C91.8249 250.579 89.2345 243.396 85.0437 236.91C78.9406 227.617 69.8537 220.507 61.3093 216.909C53.7948 213.782 45.5663 212.666 37.4664 213.676C34.3742 214.008 31.3294 214.572 29.1323 216.384C26.7995 218.31 27.0979 221.908 25.5789 224.463C23.8361 227.404 20.5133 229.07 18.5399 231.912Z" fill="#FE4D33"/>
<path opacity="0.5" d="M27.5929 218.542C27.5929 218.542 99.7997 284.627 128.918 336.081" stroke="#535461" stroke-width="2" stroke-miterlimit="10"/>
<path opacity="0.5" d="M18.0721 241.013C18.0721 241.013 46.9263 235.523 66.8971 257.542" stroke="#535461" stroke-width="2" stroke-miterlimit="10"/>
<path opacity="0.5" d="M38.5786 282.509C38.5786 282.509 70.4504 260.689 81.4767 273.382" stroke="#535461" stroke-width="2" stroke-miterlimit="10"/>
<path opacity="0.5" d="M61.1737 216.75C61.1737 216.75 57.817 233.452 69.8944 260.735" stroke="#535461" stroke-width="2" stroke-miterlimit="10"/>
<path opacity="0.5" d="M116.699 281.573C116.699 281.573 113.878 292.527 91.2011 284.474" stroke="#535461" stroke-width="2" stroke-miterlimit="10"/>
<path opacity="0.5" d="M93.6762 319.89C93.6762 319.89 107.517 304.23 101.224 296.543" stroke="#535461" stroke-width="2" stroke-miterlimit="10"/>
</g>
<path d="M4.97069 155.258C1.58007 159.182 -1.59356 164.612 0.901941 169.969C5.70307 180.484 23.4767 175.339 29.8172 185.131C31.7159 188.058 31.9736 191.637 31.5329 194.83C30.6784 201.076 27.5184 206.38 25.3348 212.089C23.1512 217.798 22.0188 224.702 25.0974 230.73C28.0609 236.565 34.3064 240.249 40.3553 241.716C46.4041 243.184 52.4666 242.852 58.5087 243.044C65.6867 243.32 72.8138 244.348 79.7679 246.111C82.8242 246.789 85.75 247.941 88.4343 249.523C91.5198 251.455 94.0153 254.29 96.4566 257.078L118.157 281.832C121.039 285.151 123.982 288.471 127.555 290.907C131.678 293.715 136.371 295.142 140.989 296.516C150.924 299.49 161.333 302.491 170.827 300.453C180.32 298.415 188.288 289.533 185.915 279.25C183.657 269.458 173.471 262.515 170.04 252.922C164.615 237.806 178.008 223.786 173.987 208.405C170.135 193.655 153.06 186.047 143.566 173.56C136.785 164.612 134.113 153.419 128.186 143.9C119.628 130.159 104.709 121.057 89.8584 117.599C75.0075 114.14 60.0684 115.753 46.1397 119.212C40.24 120.679 34.3403 122.531 29.6612 126.195C24.6906 130.092 24.1209 136.007 20.4998 140.707C16.3022 146.17 9.54126 149.948 4.97069 155.258Z" fill="#FE4D33"/>
<path d="M26.0942 130.298C26.0942 130.298 141.152 218.92 179.866 295.992" stroke="#535461" stroke-width="2" stroke-miterlimit="10"/>
<path d="M1.2681 170.527C1.2681 170.527 57.1253 152.835 87.7562 183.578" stroke="#535461" stroke-width="2" stroke-miterlimit="10"/>
<path d="M26.9012 233.591C26.9012 233.591 93.4321 187.786 110.25 205.65" stroke="#535461" stroke-width="2" stroke-miterlimit="10"/>
<path d="M89.6888 117.34C89.6888 117.34 78.2218 146.144 92.4013 188.012" stroke="#535461" stroke-width="2" stroke-miterlimit="10"/>
<path d="M173.81 208.823C173.81 208.823 165.123 227.895 125.053 221.224" stroke="#535461" stroke-width="2" stroke-miterlimit="10"/>
<path d="M118.74 279.462C118.74 279.462 149.574 249.271 140.148 238.304" stroke="#535461" stroke-width="2" stroke-miterlimit="10"/>
<path opacity="0.1" d="M419.061 512.27C593.212 512.27 734.389 475.261 734.389 429.609C734.389 383.957 593.212 346.948 419.061 346.948C244.91 346.948 103.733 383.957 103.733 429.609C103.733 475.261 244.91 512.27 419.061 512.27Z" fill="#FE4D33"/>
<path d="M664.664 0.272156C664.664 0.272156 640.367 24.0574 654.086 59.3537C667.804 94.6499 630.568 153.346 630.568 153.346C630.568 153.346 630.968 153.287 631.708 153.161C681.611 144.531 706.41 88.6621 678.661 47.1523C668.347 31.7248 659.877 13.6286 664.664 0.272156Z" fill="#FE4D33"/>
<path d="M664.664 0.272156C664.664 0.272156 650.946 29.4279 664.664 53.2132C678.383 76.9985 667.018 143.754 630.568 153.346" stroke="#535461" stroke-width="2" stroke-miterlimit="10"/>
<path d="M707.942 96.4821C707.942 96.4821 680.214 92.1606 677.691 116.484C675.168 140.807 624.377 144.179 624.377 144.179L625.326 144.796C667.261 171.741 707.379 161.963 701.276 126.209C699.059 112.879 699.242 99.496 707.942 96.4821Z" fill="#FE4D33"/>
<path opacity="0.2" d="M707.942 96.4821C707.942 96.4821 680.214 92.1606 677.691 116.484C675.168 140.807 624.377 144.179 624.377 144.179L625.326 144.796C667.261 171.741 707.379 161.963 701.276 126.209C699.059 112.879 699.242 99.496 707.942 96.4821Z" fill="#F5F5F5"/>
<path d="M707.942 96.4821C707.942 96.4821 686.419 101.129 688.188 120.261C689.958 139.393 656.228 162.381 624.377 144.159" stroke="#535461" stroke-width="2" stroke-miterlimit="10"/>
<path d="M167.294 185.742C167.294 185.742 158.302 155.869 168.982 133.869C173.52 124.673 174.888 114.284 172.881 104.262C171.891 99.5127 170.459 94.8619 168.602 90.3682" stroke="#535461" stroke-width="2" stroke-miterlimit="10"/>
<path d="M175.234 76.4608C175.234 80.1252 168.453 90.7399 168.453 90.7399C168.453 90.7399 161.672 80.1185 161.672 76.4608C161.672 74.7002 162.386 73.0117 163.658 71.7667C164.93 70.5218 166.655 69.8224 168.453 69.8224C170.252 69.8224 171.976 70.5218 173.248 71.7667C174.52 73.0117 175.234 74.7002 175.234 76.4608Z" fill="#FE4D33"/>
<path d="M186.437 96.7477C184.403 99.8212 172.82 105.132 172.82 105.132C172.82 105.132 173.03 92.612 175.065 89.5384C175.527 88.7639 176.146 88.0893 176.882 87.5553C177.619 87.0212 178.458 86.6389 179.35 86.4313C180.241 86.2238 181.167 86.1953 182.07 86.3476C182.973 86.4999 183.835 86.8299 184.605 87.3176C185.374 87.8052 186.034 88.4405 186.546 89.185C187.057 89.9295 187.409 90.7677 187.58 91.6491C187.752 92.5305 187.739 93.4367 187.542 94.313C187.346 95.1893 186.97 96.0176 186.437 96.7477V96.7477Z" fill="#FE4D33"/>
<path d="M185.949 131.413C182.606 133.06 169.87 131.924 169.87 131.924C169.87 131.924 176.509 121.223 179.846 119.577C180.644 119.14 181.525 118.865 182.435 118.77C183.344 118.674 184.264 118.76 185.139 119.022C186.014 119.284 186.826 119.717 187.526 120.294C188.226 120.871 188.799 121.581 189.211 122.38C189.623 123.18 189.866 124.053 189.924 124.947C189.982 125.841 189.855 126.737 189.551 127.582C189.246 128.426 188.769 129.202 188.15 129.861C187.531 130.521 186.783 131.051 185.949 131.42V131.413Z" fill="#FE4D33"/>
<path d="M179.547 157.555C176.536 159.733 163.788 160.715 163.788 160.715C163.788 160.715 168.48 149.071 171.491 146.894C172.202 146.325 173.023 145.903 173.906 145.654C174.788 145.405 175.713 145.334 176.624 145.446C177.535 145.557 178.414 145.849 179.206 146.302C179.999 146.756 180.689 147.362 181.235 148.085C181.782 148.808 182.172 149.632 182.383 150.506C182.594 151.381 182.622 152.289 182.464 153.174C182.306 154.06 181.966 154.905 181.465 155.658C180.963 156.411 180.311 157.056 179.547 157.555V157.555Z" fill="#FE4D33"/>
<path d="M158.6 105.842C161.312 108.391 173.783 111.04 173.783 111.04C173.783 111.04 170.725 98.8852 168.039 96.3361C167.412 95.6808 166.656 95.1568 165.816 94.796C164.975 94.4352 164.069 94.2449 163.152 94.2368C162.235 94.2287 161.325 94.403 160.479 94.7489C159.632 95.0949 158.866 95.6054 158.227 96.2495C157.588 96.8937 157.089 97.6581 156.76 98.4965C156.431 99.335 156.28 100.23 156.315 101.127C156.349 102.025 156.57 102.906 156.963 103.717C157.356 104.529 157.913 105.254 158.6 105.849V105.842Z" fill="#FE4D33"/>
<path d="M151.5 136.512C154.843 138.158 167.578 137.023 167.578 137.023C167.578 137.023 160.939 126.322 157.603 124.675C156.01 123.971 154.2 123.896 152.552 124.466C150.904 125.036 149.544 126.207 148.756 127.735C147.969 129.263 147.815 131.029 148.326 132.666C148.837 134.302 149.974 135.683 151.5 136.518V136.512Z" fill="#FE4D33"/>
<path d="M148.787 167.247C151.798 169.425 164.547 170.407 164.547 170.407C164.547 170.407 159.854 158.763 156.844 156.586C155.395 155.64 153.63 155.276 151.914 155.569C150.199 155.862 148.664 156.79 147.628 158.16C146.593 159.531 146.135 161.239 146.351 162.931C146.567 164.622 147.439 166.168 148.787 167.247V167.247Z" fill="#FE4D33"/>
<path d="M727.228 359.468H669.527C670.862 356.857 671.558 353.977 671.561 351.057V93.8334C671.557 88.8197 669.52 84.0126 665.897 80.4687C662.275 76.9247 657.363 74.9339 652.241 74.9339H205.58C200.457 74.9339 195.542 76.9265 191.919 80.4734C188.296 84.0202 186.261 88.8307 186.261 93.8467V351.057C186.263 353.977 186.96 356.857 188.295 359.468H128.552C127.198 359.468 125.899 359.995 124.942 360.932C123.984 361.87 123.446 363.141 123.446 364.467V368.496C123.446 375.915 126.457 383.031 131.816 388.277C137.175 393.523 144.443 396.47 152.022 396.47H703.799C711.378 396.47 718.646 393.523 724.005 388.277C729.364 383.031 732.375 375.915 732.375 368.496V364.467C732.375 363.807 732.242 363.154 731.983 362.544C731.724 361.935 731.344 361.383 730.865 360.918C730.387 360.453 729.819 360.086 729.195 359.837C728.571 359.588 727.902 359.463 727.228 359.468ZM371.694 375.466L366.744 369.963H489.559L484.08 375.466H371.694Z" fill="url(#paint0_linear)"/>
<path d="M650.268 78.5652H207.506C198.795 78.5652 191.733 85.4783 191.733 94.006V351.489C191.733 360.016 198.795 366.93 207.506 366.93H650.268C658.979 366.93 666.041 360.016 666.041 351.489V94.006C666.041 85.4783 658.979 78.5652 650.268 78.5652Z" fill="#535461"/>
<path d="M655.062 120.599H201.722V356.175H655.062V120.599Z" fill="#F1F1F4"/>
<path d="M428.392 103.977C430.598 103.977 432.386 102.226 432.386 100.067C432.386 97.9074 430.598 96.1568 428.392 96.1568C426.186 96.1568 424.398 97.9074 424.398 100.067C424.398 102.226 426.186 103.977 428.392 103.977Z" fill="white"/>
<path d="M498.388 356.66L482.791 372.3H372.935L358.857 356.66H135.313C133.989 356.66 132.72 357.175 131.784 358.091C130.848 359.007 130.322 360.25 130.322 361.546V365.489C130.322 369.082 131.046 372.639 132.451 375.958C133.857 379.277 135.917 382.292 138.513 384.831C141.11 387.37 144.192 389.383 147.584 390.754C150.976 392.126 154.611 392.83 158.281 392.826H697.526C704.933 392.826 712.035 389.946 717.272 384.819C722.509 379.692 725.452 372.739 725.452 365.489V361.546C725.452 360.25 724.926 359.007 723.99 358.091C723.054 357.175 721.784 356.66 720.461 356.66H498.388Z" fill="#535461"/>
<path d="M353.351 138.549H229.41V229.986H353.351V138.549Z" fill="white"/>
<path opacity="0.2" d="M282.846 146.462H241.535V169.318H282.846V146.462Z" fill="#FE4D33"/>
<path d="M341.226 146.462H292.726V151.74H341.226V146.462Z" fill="#E6E8EC"/>
<path d="M326.856 155.252H292.726V160.529H326.856V155.252Z" fill="#E6E8EC"/>
<path d="M341.226 164.041H292.726V169.318H341.226V164.041Z" fill="#E6E8EC"/>
<path d="M341.226 172.837H241.535V178.114H341.226V172.837Z" fill="#E6E8EC"/>
<path d="M341.226 181.626H241.535V186.903H341.226V181.626Z" fill="#E6E8EC"/>
<path d="M341.226 190.422H241.535V195.699H341.226V190.422Z" fill="#E6E8EC"/>
<path d="M333.143 199.211H241.535V204.488H333.143V199.211Z" fill="#E6E8EC"/>
<path d="M341.226 208H241.535V213.278H341.226V208Z" fill="#E6E8EC"/>
<path d="M341.226 216.796H241.535V222.074H341.226V216.796Z" fill="#E6E8EC"/>
<path d="M489.864 138.549H365.923V229.986H489.864V138.549Z" fill="white"/>
<path opacity="0.2" d="M419.353 146.462H378.041V169.318H419.353V146.462Z" fill="#FE4D33"/>
<path d="M477.739 146.462H429.24V151.74H477.739V146.462Z" fill="#E6E8EC"/>
<path d="M463.37 155.252H429.24V160.529H463.37V155.252Z" fill="#E6E8EC"/>
<path d="M477.739 164.041H429.24V169.318H477.739V164.041Z" fill="#E6E8EC"/>
<path d="M477.732 172.837H378.041V178.114H477.732V172.837Z" fill="#E6E8EC"/>
<path d="M477.732 181.626H378.041V186.903H477.732V181.626Z" fill="#E6E8EC"/>
<path d="M477.732 190.422H378.041V195.699H477.732V190.422Z" fill="#E6E8EC"/>
<path d="M469.649 199.211H378.041V204.488H469.649V199.211Z" fill="#E6E8EC"/>
<path d="M477.732 208H378.041V213.278H477.732V208Z" fill="#E6E8EC"/>
<path d="M477.732 216.796H378.041V222.074H477.732V216.796Z" fill="#E6E8EC"/>
<path d="M626.371 138.549H502.43V229.986H626.371V138.549Z" fill="white"/>
<path opacity="0.2" d="M555.866 146.462H514.555V169.318H555.866V146.462Z" fill="#FE4D33"/>
<path d="M614.246 146.462H565.746V151.74H614.246V146.462Z" fill="#E6E8EC"/>
<path d="M599.876 155.252H565.746V160.529H599.876V155.252Z" fill="#E6E8EC"/>
<path d="M614.246 164.041H565.746V169.318H614.246V164.041Z" fill="#E6E8EC"/>
<path d="M614.246 172.837H514.555V178.114H614.246V172.837Z" fill="#E6E8EC"/>
<path d="M614.246 181.626H514.555V186.903H614.246V181.626Z" fill="#E6E8EC"/>
<path d="M614.246 190.422H514.555V195.699H614.246V190.422Z" fill="#E6E8EC"/>
<path d="M606.163 199.211H514.555V204.488H606.163V199.211Z" fill="#E6E8EC"/>
<path d="M614.246 208H514.555V213.278H614.246V208Z" fill="#E6E8EC"/>
<path d="M614.246 216.796H514.555V222.074H614.246V216.796Z" fill="#E6E8EC"/>
<path d="M353.351 241.411H229.41V332.848H353.351V241.411Z" fill="white"/>
<path opacity="0.2" d="M282.846 249.324H241.535V272.18H282.846V249.324Z" fill="#FE4D33"/>
<path d="M341.226 249.324H292.726V254.602H341.226V249.324Z" fill="#E6E8EC"/>
<path d="M326.856 258.12H292.726V263.397H326.856V258.12Z" fill="#E6E8EC"/>
<path d="M341.226 266.909H292.726V272.187H341.226V266.909Z" fill="#E6E8EC"/>
<path d="M341.226 275.698H241.535V280.976H341.226V275.698Z" fill="#E6E8EC"/>
<path d="M341.226 284.494H241.535V289.772H341.226V284.494Z" fill="#E6E8EC"/>
<path d="M341.226 293.283H241.535V298.561H341.226V293.283Z" fill="#E6E8EC"/>
<path d="M333.143 302.079H241.535V307.357H333.143V302.079Z" fill="#E6E8EC"/>
<path d="M341.226 310.868H241.535V316.146H341.226V310.868Z" fill="#E6E8EC"/>
<path d="M341.226 319.658H241.535V324.935H341.226V319.658Z" fill="#E6E8EC"/>
<path d="M489.864 241.411H365.923V332.848H489.864V241.411Z" fill="white"/>
<path opacity="0.2" d="M419.353 249.324H378.041V272.18H419.353V249.324Z" fill="#FE4D33"/>
<path d="M477.739 249.324H429.24V254.602H477.739V249.324Z" fill="#E6E8EC"/>
<path d="M463.37 258.12H429.24V263.397H463.37V258.12Z" fill="#E6E8EC"/>
<path d="M477.739 266.909H429.24V272.187H477.739V266.909Z" fill="#E6E8EC"/>
<path d="M477.732 275.698H378.041V280.976H477.732V275.698Z" fill="#E6E8EC"/>
<path d="M477.732 284.494H378.041V289.772H477.732V284.494Z" fill="#E6E8EC"/>
<path d="M477.732 293.283H378.041V298.561H477.732V293.283Z" fill="#E6E8EC"/>
<path d="M469.649 302.079H378.041V307.357H469.649V302.079Z" fill="#E6E8EC"/>
<path d="M477.732 310.868H378.041V316.146H477.732V310.868Z" fill="#E6E8EC"/>
<path d="M477.732 319.658H378.041V324.935H477.732V319.658Z" fill="#E6E8EC"/>
<path opacity="0.1" d="M626.371 241.411H502.43V332.848H626.371V241.411Z" fill="black"/>
<path d="M299.779 169.318H108.548C106.245 169.314 103.964 169.754 101.836 170.613C99.707 171.473 97.7723 172.735 96.1423 174.326C94.5123 175.918 93.2189 177.809 92.3361 179.891C91.4533 181.973 90.9985 184.205 90.9976 186.459V445.846C91.0003 448.099 91.4562 450.329 92.3394 452.408C93.2225 454.488 94.5156 456.377 96.1447 457.968C97.7738 459.558 99.7071 460.819 101.834 461.678C103.961 462.537 106.24 462.977 108.541 462.973H299.772C302.073 462.977 304.352 462.537 306.479 461.678C308.606 460.819 310.539 459.558 312.168 457.968C313.797 456.377 315.09 454.488 315.973 452.408C316.857 450.329 317.312 448.099 317.315 445.846V186.459C317.314 184.206 316.86 181.975 315.978 179.894C315.096 177.813 313.804 175.923 312.175 174.331C310.547 172.739 308.614 171.477 306.487 170.617C304.359 169.757 302.08 169.316 299.779 169.318V169.318Z" fill="url(#paint1_linear)"/>
<path d="M301.067 172.837H107.259C99.7687 172.837 93.6966 178.781 93.6966 186.113V447.055C93.6966 454.387 99.7687 460.331 107.259 460.331H301.067C308.558 460.331 314.63 454.387 314.63 447.055V186.113C314.63 178.781 308.558 172.837 301.067 172.837Z" fill="#535461"/>
<path d="M303.4 200.034H104.92V433.141H303.4V200.034Z" fill="#F1F1F4"/>
<path d="M203.261 188.663C204.748 188.663 205.953 187.483 205.953 186.027C205.953 184.572 204.748 183.392 203.261 183.392C201.774 183.392 200.569 184.572 200.569 186.027C200.569 187.483 201.774 188.663 203.261 188.663Z" fill="white"/>
<path d="M203.261 454.178C207.725 454.178 211.344 450.635 211.344 446.265C211.344 441.894 207.725 438.352 203.261 438.352C198.797 438.352 195.178 441.894 195.178 446.265C195.178 450.635 198.797 454.178 203.261 454.178Z" fill="white"/>
<path d="M170.108 223.853H113.498V265.621H170.108V223.853Z" fill="white"/>
<path opacity="0.2" d="M137.91 227.47H119.038V237.913H137.91V227.47Z" fill="#FE4D33"/>
<path d="M164.574 227.47H142.42V229.88H164.574V227.47Z" fill="#E6E8EC"/>
<path d="M158.01 231.487H142.42V233.896H158.01V231.487Z" fill="#E6E8EC"/>
<path d="M164.574 235.503H142.42V237.913H164.574V235.503Z" fill="#E6E8EC"/>
<path d="M164.574 239.519H119.038V241.929H164.574V239.519Z" fill="#E6E8EC"/>
<path d="M164.574 243.535H119.038V245.945H164.574V243.535Z" fill="#E6E8EC"/>
<path d="M164.574 247.552H119.038V249.961H164.574V247.552Z" fill="#E6E8EC"/>
<path d="M160.885 251.568H119.038V253.978H160.885V251.568Z" fill="#E6E8EC"/>
<path d="M164.574 255.584H119.038V257.994H164.574V255.584Z" fill="#E6E8EC"/>
<path d="M164.574 259.6H119.038V262.01H164.574V259.6Z" fill="#E6E8EC"/>
<path d="M232.468 223.853H175.858V265.621H232.468V223.853Z" fill="white"/>
<path opacity="0.2" d="M200.264 227.47H181.392V237.913H200.264V227.47Z" fill="#FE4D33"/>
<path d="M226.935 227.47H204.78V229.88H226.935V227.47Z" fill="#E6E8EC"/>
<path d="M220.37 231.487H204.78V233.896H220.37V231.487Z" fill="#E6E8EC"/>
<path d="M226.935 235.503H204.78V237.913H226.935V235.503Z" fill="#E6E8EC"/>
<path d="M226.928 239.519H181.392V241.929H226.928V239.519Z" fill="#E6E8EC"/>
<path d="M226.928 243.535H181.392V245.945H226.928V243.535Z" fill="#E6E8EC"/>
<path d="M226.928 247.552H181.392V249.961H226.928V247.552Z" fill="#E6E8EC"/>
<path d="M223.239 251.568H181.392V253.978H223.239V251.568Z" fill="#E6E8EC"/>
<path d="M226.928 255.584H181.392V257.994H226.928V255.584Z" fill="#E6E8EC"/>
<path d="M226.928 259.6H181.392V262.01H226.928V259.6Z" fill="#E6E8EC"/>
<path d="M294.822 223.853H238.212V265.621H294.822V223.853Z" fill="white"/>
<path opacity="0.2" d="M262.624 227.47H243.752V237.913H262.624V227.47Z" fill="#FE4D33"/>
<path d="M289.288 227.47H267.134V229.88H289.288V227.47Z" fill="#E6E8EC"/>
<path d="M282.724 231.487H267.134V233.896H282.724V231.487Z" fill="#E6E8EC"/>
<path d="M289.288 235.503H267.134V237.913H289.288V235.503Z" fill="#E6E8EC"/>
<path d="M289.288 239.519H243.752V241.929H289.288V239.519Z" fill="#E6E8EC"/>
<path d="M289.288 243.535H243.752V245.945H289.288V243.535Z" fill="#E6E8EC"/>
<path d="M289.288 247.552H243.752V249.961H289.288V247.552Z" fill="#E6E8EC"/>
<path d="M285.599 251.568H243.752V253.978H285.599V251.568Z" fill="#E6E8EC"/>
<path d="M289.288 255.584H243.752V257.994H289.288V255.584Z" fill="#E6E8EC"/>
<path d="M289.288 259.6H243.752V262.01H289.288V259.6Z" fill="#E6E8EC"/>
<path d="M170.108 270.839H113.498V312.608H170.108V270.839Z" fill="white"/>
<path opacity="0.2" d="M137.91 274.457H119.038V284.899H137.91V274.457Z" fill="#FE4D33"/>
<path d="M164.574 274.457H142.42V276.867H164.574V274.457Z" fill="#E6E8EC"/>
<path d="M158.01 278.473H142.42V280.883H158.01V278.473Z" fill="#E6E8EC"/>
<path d="M164.574 282.489H142.42V284.899H164.574V282.489Z" fill="#E6E8EC"/>
<path d="M164.574 286.506H119.038V288.915H164.574V286.506Z" fill="#E6E8EC"/>
<path d="M164.574 290.522H119.038V292.931H164.574V290.522Z" fill="#E6E8EC"/>
<path d="M164.574 294.538H119.038V296.948H164.574V294.538Z" fill="#E6E8EC"/>
<path d="M160.885 298.554H119.038V300.964H160.885V298.554Z" fill="#E6E8EC"/>
<path d="M164.574 302.57H119.038V304.98H164.574V302.57Z" fill="#E6E8EC"/>
<path d="M164.574 306.587H119.038V308.996H164.574V306.587Z" fill="#E6E8EC"/>
<path d="M232.468 270.839H175.858V312.608H232.468V270.839Z" fill="white"/>
<path opacity="0.2" d="M200.264 274.457H181.392V284.899H200.264V274.457Z" fill="#FE4D33"/>
<path d="M226.935 274.457H204.78V276.867H226.935V274.457Z" fill="#E6E8EC"/>
<path d="M220.37 278.473H204.78V280.883H220.37V278.473Z" fill="#E6E8EC"/>
<path d="M226.935 282.489H204.78V284.899H226.935V282.489Z" fill="#E6E8EC"/>
<path d="M226.928 286.506H181.392V288.915H226.928V286.506Z" fill="#E6E8EC"/>
<path d="M226.928 290.522H181.392V292.931H226.928V290.522Z" fill="#E6E8EC"/>
<path d="M226.928 294.538H181.392V296.948H226.928V294.538Z" fill="#E6E8EC"/>
<path d="M223.239 298.554H181.392V300.964H223.239V298.554Z" fill="#E6E8EC"/>
<path d="M226.928 302.57H181.392V304.98H226.928V302.57Z" fill="#E6E8EC"/>
<path d="M226.928 306.587H181.392V308.996H226.928V306.587Z" fill="#E6E8EC"/>
<path d="M294.822 270.839H238.212V312.608H294.822V270.839Z" fill="white"/>
<path opacity="0.2" d="M262.624 274.457H243.752V284.899H262.624V274.457Z" fill="#FE4D33"/>
<path d="M289.288 274.457H267.134V276.867H289.288V274.457Z" fill="#E6E8EC"/>
<path d="M282.724 278.473H267.134V280.883H282.724V278.473Z" fill="#E6E8EC"/>
<path d="M289.288 282.489H267.134V284.899H289.288V282.489Z" fill="#E6E8EC"/>
<path d="M289.288 286.506H243.752V288.915H289.288V286.506Z" fill="#E6E8EC"/>
<path d="M289.288 290.522H243.752V292.931H289.288V290.522Z" fill="#E6E8EC"/>
<path d="M289.288 294.538H243.752V296.948H289.288V294.538Z" fill="#E6E8EC"/>
<path d="M285.599 298.554H243.752V300.964H285.599V298.554Z" fill="#E6E8EC"/>
<path d="M289.288 302.57H243.752V304.98H289.288V302.57Z" fill="#E6E8EC"/>
<path d="M289.288 306.587H243.752V308.996H289.288V306.587Z" fill="#E6E8EC"/>
<path d="M170.108 319.684H113.498V361.453H170.108V319.684Z" fill="white"/>
<path opacity="0.2" d="M137.91 323.302H119.038V333.744H137.91V323.302Z" fill="#FE4D33"/>
<path d="M164.574 323.302H142.42V325.712H164.574V323.302Z" fill="#E6E8EC"/>
<path d="M158.01 327.318H142.42V329.728H158.01V327.318Z" fill="#E6E8EC"/>
<path d="M164.574 331.335H142.42V333.744H164.574V331.335Z" fill="#E6E8EC"/>
<path d="M164.574 335.351H119.038V337.76H164.574V335.351Z" fill="#E6E8EC"/>
<path d="M164.574 339.367H119.038V341.777H164.574V339.367Z" fill="#E6E8EC"/>
<path d="M164.574 343.383H119.038V345.793H164.574V343.383Z" fill="#E6E8EC"/>
<path d="M160.885 347.399H119.038V349.809H160.885V347.399Z" fill="#E6E8EC"/>
<path d="M164.574 351.416H119.038V353.825H164.574V351.416Z" fill="#E6E8EC"/>
<path d="M164.574 355.432H119.038V357.842H164.574V355.432Z" fill="#E6E8EC"/>
<path d="M232.468 319.684H175.858V361.453H232.468V319.684Z" fill="white"/>
<path opacity="0.2" d="M200.264 323.302H181.392V333.744H200.264V323.302Z" fill="#FE4D33"/>
<path d="M226.935 323.302H204.78V325.712H226.935V323.302Z" fill="#E6E8EC"/>
<path d="M220.37 327.318H204.78V329.728H220.37V327.318Z" fill="#E6E8EC"/>
<path d="M226.935 331.335H204.78V333.744H226.935V331.335Z" fill="#E6E8EC"/>
<path d="M226.928 335.351H181.392V337.76H226.928V335.351Z" fill="#E6E8EC"/>
<path d="M226.928 339.367H181.392V341.777H226.928V339.367Z" fill="#E6E8EC"/>
<path d="M226.928 343.383H181.392V345.793H226.928V343.383Z" fill="#E6E8EC"/>
<path d="M223.239 347.399H181.392V349.809H223.239V347.399Z" fill="#E6E8EC"/>
<path d="M226.928 351.416H181.392V353.825H226.928V351.416Z" fill="#E6E8EC"/>
<path d="M226.928 355.432H181.392V357.842H226.928V355.432Z" fill="#E6E8EC"/>
<path d="M294.822 319.684H238.212V361.453H294.822V319.684Z" fill="white"/>
<path opacity="0.2" d="M262.624 323.302H243.752V333.744H262.624V323.302Z" fill="#FE4D33"/>
<path d="M289.288 323.302H267.134V325.712H289.288V323.302Z" fill="#E6E8EC"/>
<path d="M282.724 327.318H267.134V329.728H282.724V327.318Z" fill="#E6E8EC"/>
<path d="M289.288 331.335H267.134V333.744H289.288V331.335Z" fill="#E6E8EC"/>
<path d="M289.288 335.351H243.752V337.76H289.288V335.351Z" fill="#E6E8EC"/>
<path d="M289.288 339.367H243.752V341.777H289.288V339.367Z" fill="#E6E8EC"/>
<path d="M289.288 343.383H243.752V345.793H289.288V343.383Z" fill="#E6E8EC"/>
<path d="M285.599 347.399H243.752V349.809H285.599V347.399Z" fill="#E6E8EC"/>
<path d="M289.288 351.416H243.752V353.825H289.288V351.416Z" fill="#E6E8EC"/>
<path d="M289.288 355.432H243.752V357.842H289.288V355.432Z" fill="#E6E8EC"/>
<path d="M170.108 366.671H113.498V408.439H170.108V366.671Z" fill="white"/>
<path opacity="0.2" d="M137.91 370.288H119.038V380.731H137.91V370.288Z" fill="#FE4D33"/>
<path d="M164.574 370.288H142.42V372.698H164.574V370.288Z" fill="#E6E8EC"/>
<path d="M158.01 374.305H142.42V376.714H158.01V374.305Z" fill="#E6E8EC"/>
<path d="M164.574 378.321H142.42V380.731H164.574V378.321Z" fill="#E6E8EC"/>
<path d="M164.574 382.337H119.038V384.747H164.574V382.337Z" fill="#E6E8EC"/>
<path d="M164.574 386.353H119.038V388.763H164.574V386.353Z" fill="#E6E8EC"/>
<path d="M164.574 390.37H119.038V392.779H164.574V390.37Z" fill="#E6E8EC"/>
<path d="M160.885 394.386H119.038V396.796H160.885V394.386Z" fill="#E6E8EC"/>
<path d="M164.574 398.402H119.038V400.812H164.574V398.402Z" fill="#E6E8EC"/>
<path d="M164.574 402.418H119.038V404.828H164.574V402.418Z" fill="#E6E8EC"/>
<path d="M232.468 366.671H175.858V408.439H232.468V366.671Z" fill="white"/>
<path opacity="0.2" d="M200.264 370.288H181.392V380.731H200.264V370.288Z" fill="#FE4D33"/>
<path d="M226.935 370.288H204.78V372.698H226.935V370.288Z" fill="#E6E8EC"/>
<path d="M220.37 374.305H204.78V376.714H220.37V374.305Z" fill="#E6E8EC"/>
<path d="M226.935 378.321H204.78V380.731H226.935V378.321Z" fill="#E6E8EC"/>
<path d="M226.928 382.337H181.392V384.747H226.928V382.337Z" fill="#E6E8EC"/>
<path d="M226.928 386.353H181.392V388.763H226.928V386.353Z" fill="#E6E8EC"/>
<path d="M226.928 390.37H181.392V392.779H226.928V390.37Z" fill="#E6E8EC"/>
<path d="M223.239 394.386H181.392V396.796H223.239V394.386Z" fill="#E6E8EC"/>
<path d="M226.928 398.402H181.392V400.812H226.928V398.402Z" fill="#E6E8EC"/>
<path d="M226.928 402.418H181.392V404.828H226.928V402.418Z" fill="#E6E8EC"/>
<path opacity="0.1" d="M294.822 366.671H238.212V408.439H294.822V366.671Z" fill="black"/>
<path d="M154.016 257.237H55.8233C54.548 257.234 53.2848 257.478 52.1056 257.953C50.9264 258.428 49.8544 259.126 48.9508 260.007C48.0471 260.888 47.3296 261.935 46.8391 263.087C46.3487 264.239 46.0948 265.475 46.0922 266.723V477.219C46.0948 478.468 46.3487 479.703 46.8391 480.856C47.3296 482.008 48.0471 483.055 48.9508 483.935C49.8544 484.816 50.9264 485.514 52.1056 485.99C53.2848 486.465 54.548 486.708 55.8233 486.706H154.016C155.291 486.708 156.554 486.465 157.733 485.99C158.913 485.514 159.985 484.816 160.888 483.935C161.792 483.055 162.509 482.008 163 480.856C163.49 479.703 163.744 478.468 163.747 477.219V266.73C163.745 265.481 163.492 264.245 163.002 263.092C162.512 261.938 161.794 260.891 160.891 260.01C159.987 259.128 158.915 258.429 157.735 257.954C156.555 257.478 155.292 257.234 154.016 257.237V257.237Z" fill="url(#paint2_linear)"/>
<path d="M155.392 259.003H54.4535C50.3338 259.003 46.9941 262.272 46.9941 266.305V478.534C46.9941 482.567 50.3338 485.836 54.4535 485.836H155.392C159.512 485.836 162.852 482.567 162.852 478.534V266.305C162.852 262.272 159.512 259.003 155.392 259.003Z" fill="#535461"/>
<path d="M154.314 280.1H55.5249V464.726H154.314V280.1Z" fill="#F1F1F4"/>
<path d="M93.2422 270.427C93.7366 270.427 94.1374 270.035 94.1374 269.551C94.1374 269.067 93.7366 268.675 93.2422 268.675C92.7479 268.675 92.3471 269.067 92.3471 269.551C92.3471 270.035 92.7479 270.427 93.2422 270.427Z" fill="white"/>
<path d="M116.821 268.668H98.4163C98.0418 268.668 97.7382 268.966 97.7382 269.332V269.764C97.7382 270.13 98.0418 270.427 98.4163 270.427H116.821C117.195 270.427 117.499 270.13 117.499 269.764V269.332C117.499 268.966 117.195 268.668 116.821 268.668Z" fill="white"/>
<path d="M104.472 479.676C107.944 479.676 110.758 476.92 110.758 473.522C110.758 470.123 107.944 467.368 104.472 467.368C101 467.368 98.1857 470.123 98.1857 473.522C98.1857 476.92 101 479.676 104.472 479.676Z" fill="white"/>
<path opacity="0.1" d="M138.602 291.152H71.2371V340.854H138.602V291.152Z" fill="black"/>
<path d="M138.602 347.067H71.2371V396.769H138.602V347.067Z" fill="white"/>
<path opacity="0.2" d="M100.281 351.369H77.8284V363.796H100.281V351.369Z" fill="#FE4D33"/>
<path d="M132.011 351.369H105.652V354.237H132.011V351.369Z" fill="#E6E8EC"/>
<path d="M124.205 356.149H105.652V359.017H124.205V356.149Z" fill="#E6E8EC"/>
<path d="M132.011 360.922H105.652V363.789H132.011V360.922Z" fill="#E6E8EC"/>
<path d="M132.017 365.701H77.8284V368.569H132.017V365.701Z" fill="#E6E8EC"/>
<path d="M132.017 370.481H77.8284V373.349H132.017V370.481Z" fill="#E6E8EC"/>
<path d="M132.017 375.261H77.8284V378.128H132.017V375.261Z" fill="#E6E8EC"/>
<path d="M127.623 380.04H77.8284V382.908H127.623V380.04Z" fill="#E6E8EC"/>
<path d="M132.017 384.82H77.8284V387.688H132.017V384.82Z" fill="#E6E8EC"/>
<path d="M132.017 389.6H77.8284V392.467H132.017V389.6Z" fill="#E6E8EC"/>
<path d="M138.602 403.095H71.2371V452.797H138.602V403.095Z" fill="white"/>
<path opacity="0.2" d="M100.281 407.397H77.8284V419.824H100.281V407.397Z" fill="#FE4D33"/>
<path d="M132.011 407.397H105.652V410.265H132.011V407.397Z" fill="#E6E8EC"/>
<path d="M124.205 412.177H105.652V415.044H124.205V412.177Z" fill="#E6E8EC"/>
<path d="M132.011 416.956H105.652V419.824H132.011V416.956Z" fill="#E6E8EC"/>
<path d="M132.017 421.736H77.8284V424.604H132.017V421.736Z" fill="#E6E8EC"/>
<path d="M132.017 426.515H77.8284V429.383H132.017V426.515Z" fill="#E6E8EC"/>
<path d="M132.017 431.295H77.8284V434.163H132.017V431.295Z" fill="#E6E8EC"/>
<path d="M127.623 436.075H77.8284V438.943H127.623V436.075Z" fill="#E6E8EC"/>
<path d="M132.017 440.848H77.8284V443.715H132.017V440.848Z" fill="#E6E8EC"/>
<path d="M132.017 445.627H77.8284V448.495H132.017V445.627Z" fill="#E6E8EC"/>
<path d="M368.669 426.575C364.112 421.165 358.593 414.945 359.366 407.742C359.99 401.907 358.491 396.517 358.789 390.668C359.21 382.357 357.494 375.845 351.377 370.514C347.804 367.401 341.829 364.951 340.053 365.575C336.526 366.81 332.681 366.339 329.053 367.168C326.3 367.832 324.463 368.768 323.33 369.983C321.045 371.975 321.004 374.803 322.048 377.823C321.137 379.455 320.586 381.256 320.433 383.109C320.28 384.963 320.528 386.827 321.16 388.581C321.792 390.335 322.794 391.938 324.102 393.287C325.409 394.636 326.993 395.701 328.748 396.411C326.205 397.446 324.001 399.843 323.154 404.702C322.551 408.041 321.643 411.32 320.441 414.5C319.903 414.751 319.35 414.973 318.787 415.164C318.909 415.21 319.038 415.244 319.166 415.29C318.902 415.39 318.631 415.489 318.366 415.582C318.854 415.768 319.358 415.91 319.872 416.007C318.022 420.708 315.535 425.144 312.48 429.197C312.48 429.197 304.804 430.857 301.82 427.956C301.82 427.956 302.308 428.514 302.966 429.35C300.043 428.162 295.256 426.23 291.16 424.637C288.19 423.482 287.423 424.637 287.464 426.243C286.734 426.326 286.028 426.552 285.389 426.907C284.511 426.355 283.591 425.872 282.636 425.46C280.927 425.048 275.387 422.141 269.84 432.098C266.612 437.894 258.311 448.462 251.971 456.289C239.595 461.858 223.49 468.902 217.509 470.687H213.684C213.182 469.884 212.83 469.36 212.83 469.36L212.531 469.552L212.402 469.36C212.402 469.36 204.868 474.464 197.219 474.504C196.131 474.487 195.048 474.349 193.991 474.093C190.472 473.223 187.997 472.838 186.227 472.871C184.131 472.838 182.945 473.323 182.205 474.239C182.109 474.359 182.021 474.486 181.941 474.617V474.617C181.859 474.753 181.784 474.892 181.717 475.035V475.035C181.649 475.181 181.588 475.334 181.527 475.493C181.504 475.633 181.513 475.776 181.554 475.912C181.595 476.047 181.667 476.172 181.765 476.277C181.867 476.421 181.978 476.558 182.097 476.688L182.307 476.914C183.822 478.295 185.463 479.537 187.21 480.625C187.841 481.043 188.505 481.468 189.204 481.906L190.526 482.729L191.706 483.453L192.181 483.738L192.71 484.057L193.652 484.621L194.215 484.953L195.273 485.571L196.127 486.068C198.365 487.396 200.603 488.618 202.61 489.726L204.021 490.503L204.156 490.576L205.058 491.067L206.625 491.917L207.703 492.494L208.205 492.766L208.747 493.052L208.856 493.112L209.792 493.61C209.984 493.641 210.182 493.631 210.37 493.58C210.559 493.53 210.734 493.44 210.883 493.317C211.155 492.189 211.819 489.773 212.524 489.587C213.23 489.401 216.308 484.117 217.183 480.598H225.504C227.139 480.464 228.764 480.222 230.366 479.875C228.216 481.375 226.087 482.318 224.432 481.913C220.933 481.063 217.617 483.148 217.285 485.232L217.244 485.358C217.244 485.398 217.244 485.444 217.244 485.484C217.244 485.524 217.244 485.584 217.244 485.637C217.244 485.69 217.244 485.723 217.244 485.763C217.244 485.803 217.244 485.863 217.244 485.916C217.244 485.969 217.244 486.002 217.244 486.042C217.244 486.082 217.244 486.148 217.244 486.195C217.244 486.241 217.244 486.274 217.244 486.314C217.244 486.354 217.244 486.427 217.285 486.48C217.326 486.533 217.285 486.553 217.285 486.586C217.31 486.659 217.34 486.73 217.373 486.799V486.852C217.419 486.939 217.471 487.023 217.529 487.104L217.597 487.19L217.732 487.356L217.827 487.449L217.983 487.595L218.099 487.688L218.282 487.821L218.417 487.907L218.641 488.033L218.79 488.113L219.068 488.239L219.211 488.299C219.36 488.359 219.516 488.418 219.685 488.471C219.855 488.525 220.269 488.644 220.628 488.73L220.987 488.817L221.51 488.936L221.788 488.996L222.927 489.222L223.483 489.321L223.937 489.401L224.982 489.58L227.016 489.905L228.813 490.171L231.153 490.496L231.668 490.563L232.509 490.675L233.716 490.835L234.543 490.941L236.679 491.206L237.357 491.286L238.714 491.445C240.484 491.651 242.199 491.85 243.772 492.023L245.597 492.222L246.519 492.322L246.912 492.362L248.017 492.481L248.635 492.547L249.387 492.627L250.452 492.733H250.567L251.245 492.8C251.33 492.808 251.416 492.799 251.497 492.773C251.578 492.747 251.653 492.705 251.717 492.65C251.78 492.594 251.832 492.526 251.867 492.451C251.903 492.375 251.922 492.292 251.923 492.209V492.209C251.923 492.209 251.923 492.162 251.923 492.142C251.988 492.048 252.023 491.937 252.025 491.824C252.042 490.831 252.17 489.843 252.405 488.876C252.452 488.71 252.507 488.538 252.561 488.372L252.629 488.179C252.703 487.974 252.778 487.768 252.866 487.555C252.926 487.406 252.979 487.253 253.022 487.097L253.063 486.951C253.063 486.872 253.103 486.785 253.124 486.699C253.985 483.831 252.947 478.487 252.649 476.39C252.555 475.713 252.399 475.047 252.181 474.398C252.235 474.403 252.29 474.403 252.344 474.398C252.786 474.237 253.202 474.013 253.578 473.734C259.864 471.537 265.174 469.028 266.849 466.512C269.574 465.801 272.47 466.097 274.987 467.342C278.242 468.928 302.878 476.795 314.352 480.432C316.386 482.172 318.027 483.187 318.915 483.088C318.915 483.088 333.515 485.398 339.388 480.884C339.91 481.236 340.236 481.428 340.236 481.428C340.236 481.428 348.766 477.279 350.048 471.889C350.462 470.143 350.835 467.561 351.215 464.706C353.195 462.754 354.309 460.116 354.314 457.364C354.578 448.303 358.165 437.953 360.824 428.733C364.051 428.978 365.299 428.388 368.283 426.954L368.154 426.788L368.669 426.575ZM319.763 440.144L318.136 439.606C318.687 438.885 319.162 438.111 319.553 437.296L319.763 440.144ZM310.581 443.955L320.468 449.763L320.557 450.945C320.436 451.844 320.463 452.756 320.638 453.647C316.284 449.856 311.185 445.256 310.588 443.955H310.581ZM306.546 435.497C305.468 435.059 304.573 434.667 303.963 434.342L306.255 434.482C306.391 434.809 306.491 435.149 306.553 435.497H306.546ZM280.1 444.957C280.1 444.957 281.808 441.226 285.647 447.446C286.243 448.416 287.342 449.949 288.793 451.861L277.631 450.394C278.791 448.748 279.623 446.904 280.086 444.957H280.1Z" fill="url(#paint3_linear)"/>
<path d="M304.654 429.961C304.654 429.961 296.829 426.735 290.658 424.318C284.487 421.902 288.19 429.961 288.19 429.961C288.19 429.961 298.484 432.782 298.484 433.187C298.484 433.592 307.13 433.99 307.13 433.99L304.654 429.961Z" fill="#F7C4A7"/>
<path opacity="0.05" d="M304.654 429.961C304.654 429.961 296.829 426.735 290.658 424.318C284.487 421.902 288.19 429.961 288.19 429.961C288.19 429.961 298.484 432.782 298.484 433.187C298.484 433.592 307.13 433.99 307.13 433.99L304.654 429.961Z" fill="black"/>
<path d="M337.984 398.123C337.984 398.123 323.988 390.867 321.513 404.974C319.972 413.562 316.459 421.694 311.239 428.759C311.239 428.759 303.827 430.372 300.945 427.551C300.945 427.551 307.943 435.61 304.648 436.42C304.648 436.42 312.06 441.658 315.355 440.044C318.651 438.431 321.119 427.551 322.354 424.73C323.588 421.908 328.118 397.313 337.984 398.123Z" fill="#575988"/>
<path opacity="0.1" d="M337.984 398.123C337.984 398.123 323.988 390.867 321.513 404.974C319.972 413.562 316.459 421.694 311.239 428.759C311.239 428.759 303.827 430.372 300.945 427.551C300.945 427.551 307.943 435.61 304.648 436.42C304.648 436.42 312.06 441.658 315.355 440.044C318.651 438.431 321.119 427.551 322.354 424.73C323.588 421.908 328.118 397.313 337.984 398.123Z" fill="black"/>
<path d="M330.179 393.284C330.179 393.284 338.825 402.956 339.239 411.015C339.653 419.074 349.119 402.551 349.946 402.146C350.774 401.741 341.707 388.046 340.88 383.618C340.053 379.191 330.179 393.284 330.179 393.284Z" fill="#F7C4A7"/>
<path d="M336.147 397.42L330.695 402.252L333.265 412.429L340.263 405.983L339.442 399.537L336.147 397.42Z" fill="#F7C4A7"/>
<path d="M222.31 469.061H212.843L216.546 477.923L225.605 475.507L222.31 469.061Z" fill="#F7C4A7"/>
<path opacity="0.1" d="M215.027 467.78C215.027 467.78 205.235 474.464 196.846 472.38C188.458 470.296 186.193 471.052 185.216 473.767C184.314 476.237 208.618 489.308 212.491 491.372C212.552 491.412 212.622 491.436 212.695 491.443C212.768 491.449 212.841 491.438 212.909 491.409C212.976 491.381 213.035 491.337 213.08 491.28C213.126 491.224 213.156 491.158 213.169 491.087C213.433 489.992 214.071 487.642 214.749 487.462C215.637 487.23 219.699 479.815 219.496 476.887C219.292 473.96 215.027 467.78 215.027 467.78Z" fill="black"/>
<path d="M214.62 467.78C214.62 467.78 204.828 474.464 196.439 472.38C188.051 470.296 185.786 471.052 184.809 473.767C183.908 476.237 208.212 489.308 212.084 491.372C212.145 491.412 212.215 491.436 212.288 491.443C212.361 491.449 212.434 491.438 212.502 491.409C212.569 491.381 212.628 491.337 212.673 491.28C212.719 491.224 212.749 491.158 212.762 491.087C213.026 489.992 213.664 487.642 214.342 487.462C215.23 487.23 219.292 479.815 219.089 476.887C218.885 473.96 214.62 467.78 214.62 467.78Z" fill="#F3B5B7"/>
<path d="M295.595 451.728L268.009 448.104C268.009 448.104 223.13 469.061 217.78 469.466L219.014 478.76H227.247C230.542 478.76 262.651 471.909 267.181 465.058C269.802 464.374 272.588 464.66 275.007 465.861C279.123 467.853 318.651 480.373 318.651 480.373L295.595 451.728Z" fill="#575988"/>
<path opacity="0.1" d="M295.595 451.728L268.009 448.104C268.009 448.104 223.13 469.061 217.78 469.466L219.014 478.76H227.247C230.542 478.76 262.651 471.909 267.181 465.058C269.802 464.374 272.588 464.66 275.007 465.861C279.123 467.853 318.651 480.373 318.651 480.373L295.595 451.728Z" fill="black"/>
<path d="M246.6 464.221L242.07 469.864L246.6 472.28L253.192 467.448L246.6 464.221Z" fill="#F7C4A7"/>
<path d="M325.236 457.769C325.236 457.769 310.425 445.355 309.388 443.098C308.35 440.841 284.067 425.533 282.419 425.128C280.771 424.723 275.421 421.902 270.07 431.574C264.72 441.246 244.979 464.62 244.979 464.62C244.979 464.62 251.157 473.084 253.212 472.679C255.267 472.274 278.303 453.335 279.971 444.061C279.971 444.061 281.619 440.436 285.321 446.477C289.024 452.518 312.907 481.541 317.437 481.136C317.437 481.136 335.143 483.957 338.846 477.107C342.548 470.256 325.236 457.769 325.236 457.769Z" fill="#575988"/>
<path d="M321.079 392.7H259.43V438.179H321.079V392.7Z" fill="url(#paint4_linear)"/>
<path d="M318.556 394.552H261.946V436.32H318.556V394.552Z" fill="white"/>
<path opacity="0.2" d="M286.359 398.17H267.487V408.612H286.359V398.17Z" fill="#FE4D33"/>
<path d="M313.023 398.17H290.868V400.579H313.023V398.17Z" fill="#E6E8EC"/>
<path d="M306.458 402.186H290.868V404.596H306.458V402.186Z" fill="#E6E8EC"/>
<path d="M313.023 406.202H290.868V408.612H313.023V406.202Z" fill="#E6E8EC"/>
<path d="M313.023 410.218H267.487V412.628H313.023V410.218Z" fill="#E6E8EC"/>
<path d="M313.023 414.234H267.487V416.644H313.023V414.234Z" fill="#E6E8EC"/>
<path d="M313.023 418.251H267.487V420.66H313.023V418.251Z" fill="#E6E8EC"/>
<path d="M309.334 422.267H267.487V424.677H309.334V422.267Z" fill="#E6E8EC"/>
<path d="M313.023 426.283H267.487V428.693H313.023V426.283Z" fill="#E6E8EC"/>
<path d="M313.023 430.299H267.487V432.709H313.023V430.299Z" fill="#E6E8EC"/>
<path d="M333.678 398.727C333.678 398.727 328.531 400.945 328.118 410.212C327.704 419.479 318.624 435.199 318.624 435.199L319.444 453.739C319.444 453.739 329.325 463.412 330.152 469.459C330.979 475.507 337.984 479.536 337.984 479.536C337.984 479.536 346.217 475.507 347.478 470.242C348.739 464.978 349.513 452.106 351.594 447.267C353.676 442.428 352.415 412.203 352.415 412.203L346.237 401.721L342.942 398.097L334.295 407.769C334.295 407.769 329.562 401.542 333.678 398.727Z" fill="#F3B5B7"/>
<path opacity="0.1" d="M321.533 447.692C321.533 447.692 320.299 433.18 324.001 429.961L331.413 409.382C331.413 409.382 334.092 399.511 333.678 398.701C333.265 397.891 324.001 406.561 324.001 406.561L317.824 427.923L319.472 450.493L321.533 447.692Z" fill="black"/>
<path d="M321.119 447.692C321.119 447.692 319.885 433.18 323.588 429.961L331 409.382C331 409.382 333.882 399.305 333.468 398.502C333.054 397.698 323.588 406.561 323.588 406.561L317.41 427.923L319.058 450.493L321.119 447.692Z" fill="#575988"/>
<path d="M324.001 441.246C324.001 441.246 303.4 434.8 302.179 433.187C300.959 431.574 287.769 421.099 283.239 428.348C278.709 435.597 300.118 437.641 300.118 437.641L321.94 450.54L324.001 441.246Z" fill="#F7C4A7"/>
<path opacity="0.1" d="M247.489 469.824L241.385 468.749C241.385 468.749 231.403 481.262 226.209 479.994C221.015 478.726 216.227 484.203 221.72 485.969C226.684 487.555 248.106 489.779 252.202 490.191C252.285 490.202 252.371 490.196 252.452 490.172C252.533 490.149 252.608 490.109 252.672 490.055C252.736 490.001 252.788 489.934 252.824 489.859C252.859 489.784 252.879 489.703 252.88 489.62C252.899 488.065 253.207 486.526 253.788 485.079C254.887 482.424 253.788 476.768 253.483 474.617C253.314 473.349 252.907 472.123 252.283 470.999L247.489 469.824Z" fill="black"/>
<path d="M247.394 470.216L241.291 469.141C241.291 469.141 231.322 481.661 226.094 480.386C220.865 479.111 216.112 484.595 221.605 486.36C226.568 487.947 247.99 490.171 252.086 490.582C252.17 490.594 252.255 490.588 252.336 490.564C252.418 490.541 252.493 490.501 252.557 490.447C252.621 490.393 252.673 490.326 252.708 490.251C252.744 490.176 252.763 490.094 252.764 490.012C252.784 488.457 253.092 486.918 253.673 485.471C254.772 482.816 253.673 477.16 253.368 475.009C253.198 473.741 252.791 472.514 252.168 471.391L247.394 470.216Z" fill="#F3B5B7"/>
<path opacity="0.1" d="M333.265 397.924C340.542 397.924 346.441 392.149 346.441 385.026C346.441 377.902 340.542 372.127 333.265 372.127C325.988 372.127 320.089 377.902 320.089 385.026C320.089 392.149 325.988 397.924 333.265 397.924Z" fill="black"/>
<path d="M332.03 397.924C339.307 397.924 345.206 392.149 345.206 385.026C345.206 377.902 339.307 372.127 332.03 372.127C324.754 372.127 318.854 377.902 318.854 385.026C318.854 392.149 324.754 397.924 332.03 397.924Z" fill="#F7C4A7"/>
<path d="M344.996 397.718C344.996 397.718 360.641 402.956 360.641 413.843C360.641 424.73 351.994 442.056 351.581 456.162C351.167 470.269 328.525 468.251 328.525 468.251C328.525 468.251 325.229 420.694 328.525 417.062C331.82 413.431 346.644 399.331 344.996 397.718Z" fill="#575988"/>
<path opacity="0.1" d="M342.114 420.289C342.114 420.289 336.35 445.275 322.76 440.868C322.76 440.868 315.762 450.945 320.726 455.379C320.726 455.379 332.668 458.2 340.487 450.54C348.305 442.879 354.056 440.044 355.29 430.751C356.524 421.457 357.325 408.585 353.256 409.793C349.187 411.002 342.114 420.289 342.114 420.289Z" fill="black"/>
<path d="M342.528 419.884C342.528 419.884 336.764 444.871 323.174 440.463C323.174 440.463 316.176 450.54 321.14 454.974C321.14 454.974 333.082 457.796 340.9 450.135C348.719 442.474 354.463 439.653 355.724 430.386C356.985 421.119 357.759 408.22 353.69 409.428C349.621 410.637 342.528 419.884 342.528 419.884Z" fill="#575988"/>
<path d="M254.027 484.176C254.027 484.216 254.027 484.256 253.986 484.289C253.691 484.977 253.464 485.691 253.307 486.42C253.402 486.102 253.517 485.756 253.653 485.458C253.827 485.046 253.952 484.616 254.027 484.176V484.176Z" fill="#DDDBE2"/>
<path d="M221.937 485.185C220.241 484.641 219.529 483.745 219.502 482.802C218.824 484.13 219.245 485.59 221.638 486.36C226.602 487.947 248.031 490.171 252.12 490.582C252.204 490.594 252.29 490.587 252.372 490.564C252.454 490.54 252.529 490.499 252.593 490.444C252.657 490.39 252.709 490.322 252.744 490.246C252.78 490.171 252.798 490.088 252.798 490.005V490.005C252.801 489.858 252.747 489.715 252.648 489.605C252.549 489.494 252.412 489.424 252.263 489.407C247.753 488.93 226.833 486.745 221.937 485.185Z" fill="#DDDBE2"/>
<path d="M185.372 473.057C185.478 472.76 185.612 472.473 185.772 472.201C185.328 472.641 184.995 473.178 184.803 473.767C183.901 476.237 208.205 489.301 212.077 491.372C212.138 491.41 212.208 491.433 212.281 491.439C212.353 491.444 212.426 491.433 212.493 491.404C212.56 491.376 212.618 491.333 212.664 491.277C212.71 491.222 212.741 491.157 212.755 491.087V491.087C212.778 490.994 212.769 490.896 212.73 490.809C212.691 490.721 212.623 490.649 212.538 490.602C208.239 488.305 184.477 475.5 185.372 473.057Z" fill="#DDDBE2"/>
<path d="M214.878 486.752C214.661 486.812 214.444 487.091 214.247 487.489H214.315C214.491 487.443 214.803 487.097 215.183 486.56C215.097 486.646 214.993 486.712 214.878 486.752V486.752Z" fill="#DDDBE2"/>
<path opacity="0.1" d="M330.2 396.377C329.04 398.88 328.796 401.688 327.941 404.343C327.109 406.914 325.682 409.261 323.77 411.203C321.859 413.144 319.515 414.627 316.922 415.536C321.201 417.209 326.246 415.164 329.555 411.778C332.865 408.393 334.797 403.885 336.655 399.504C341.456 402.664 340.873 409.926 342.48 415.582C343.173 418.042 344.397 420.328 346.07 422.286C347.743 424.243 349.826 425.826 352.178 426.927C354.521 427.957 357.068 428.465 359.637 428.415C362.205 428.364 364.729 427.756 367.028 426.635C362.627 421.377 356.362 414.168 357.108 407.171C357.711 401.502 353.554 397.174 353.846 391.491C354.253 383.419 351.133 379.337 345.2 374.159C341.748 371.132 347.18 366.856 342.731 368.111C340.982 368.602 339.137 366.783 337.422 367.374C334.031 368.569 330.308 368.118 326.809 368.921C308.615 373.09 331.881 392.72 330.2 396.377Z" fill="black"/>
<path d="M330.613 395.972C329.454 398.475 329.209 401.283 328.355 403.938C327.523 406.509 326.095 408.856 324.184 410.798C322.272 412.739 319.929 414.222 317.335 415.131C321.614 416.804 326.66 414.759 329.969 411.373C333.278 407.988 335.211 403.48 337.069 399.099C341.87 402.259 341.287 409.521 342.894 415.177C343.587 417.637 344.811 419.923 346.484 421.881C348.157 423.838 350.24 425.421 352.591 426.522C354.934 427.552 357.482 428.06 360.05 428.01C362.618 427.959 365.143 427.351 367.442 426.23C363.041 420.972 357.189 414.945 357.948 407.975C358.552 402.305 357.65 396.483 357.948 390.801C358.355 382.729 354.32 374.955 348.414 369.777C344.962 366.75 339.598 366.365 337.856 366.969C334.465 368.164 330.742 367.713 327.243 368.516C309.028 372.692 332.308 392.315 330.613 395.972Z" fill="#B96B6B"/>
<path d="M111.097 518.703C134.832 511.553 148.842 512.144 148.842 512.144L146.895 501.343C147.504 500.945 148.055 500.469 148.537 499.929C148.537 499.929 146.102 486.819 148.537 483.539C150.971 480.26 157.671 450.467 157.671 450.467V440.33C169.877 436.161 184.152 412.024 184.152 412.024L202.115 457.304C202.115 457.304 220.072 492.169 222.506 493.357C224.453 494.307 225.422 502.107 225.741 505.207L225.592 505.253C225.667 506.003 225.7 506.468 225.7 506.468L225.843 506.375V506.468C226.144 506.263 226.462 506.081 226.792 505.924C223.286 509.867 218.038 515.536 213.671 519.28C211.263 521.345 215.583 522.938 217.604 522.905C218.753 522.868 219.901 523.028 220.994 523.376C231.227 526.835 248.051 514.208 248.051 514.208L243.84 502.711C244.939 502.625 245.617 502.585 245.617 502.585C245.617 502.585 231.919 455.505 225.524 451.031C223.503 449.588 221.68 447.897 220.099 445.999C217.058 442.381 215.525 437.772 215.807 433.094L218.051 394.465C221.659 393.948 223.985 393.516 223.985 393.516C223.985 393.516 224.826 382.961 224.799 374.862C224.799 370.647 224.622 366.949 223.985 365.502C223.232 363.79 222.995 360.364 222.981 356.925C222.981 352.279 223.374 347.924 223.374 347.924C223.374 347.924 228.243 341.664 234.943 327.345C237.893 321.045 238.659 316.06 238.592 312.488C238.637 310.824 238.473 309.161 238.103 307.536C237.914 306.732 237.562 305.974 237.07 305.305C236.577 304.636 235.954 304.07 235.235 303.639C231.383 301.329 222.615 295.627 220.031 290.104C216.749 283.093 212.009 282.098 211.819 282.058L211.528 280.823C213.345 279.352 214.673 277.382 215.339 275.167C216.329 272.18 216.532 268.994 217.373 265.96C217.78 264.499 218.343 263.085 218.729 261.625C219.115 260.155 219.3 258.642 219.279 257.124C219.352 254.914 218.887 252.718 217.922 250.718C216.349 247.552 213.216 245.062 209.649 244.651C207.683 244.425 205.506 244.757 203.892 243.635C202.78 242.858 202.197 241.537 201.179 240.614C199.247 238.822 196.155 238.915 193.639 239.751C190.251 240.889 187.349 243.101 185.393 246.038C184.22 247.804 183.399 249.829 181.894 251.349C180.625 252.617 178.964 253.427 177.567 254.555C176.533 255.345 175.692 256.351 175.106 257.499C174.519 258.648 174.202 259.91 174.176 261.193C174.176 261.193 174.176 261.26 174.176 261.293C174.176 261.459 174.176 261.625 174.176 261.791C174.244 264.353 176.068 266.902 178.632 267.42C179.303 267.541 179.989 267.559 180.666 267.473C180.088 269.564 179.947 271.748 180.252 273.894C180.557 276.039 181.302 278.103 182.441 279.96C183.58 281.817 185.091 283.43 186.882 284.702C188.673 285.974 190.709 286.879 192.866 287.362C192.825 287.574 192.777 287.787 192.73 288.026H192.872C192.579 289.059 192.212 290.07 191.774 291.053H191.577L192.072 290.19L185.088 289.719C183.054 289.569 181.015 289.942 179.174 290.801C176.767 291.942 174.136 294.12 173.81 298.236C173.2 305.949 158.281 317.567 158.281 317.567C153.107 325.612 119.316 327.099 119.316 327.099C119.316 327.099 119.465 327.285 119.533 327.385L118.855 327.259L116.298 326.8C116.298 326.8 108.385 303.858 100.776 308.027C93.1676 312.196 113.864 334.846 113.864 334.846L119.845 335.238L120.449 335.278C120.229 336.763 119.914 338.233 119.506 339.679V339.679C119.425 339.971 119.364 340.157 119.35 340.203C119.35 340.203 135.083 338.424 148.448 338.71H149.655L150.51 338.67C151.188 345.859 161.658 360.47 161.658 360.47L168.121 361.798L168.609 361.898C166.527 366.114 163.881 370.04 160.743 373.574L158.614 385.198L158.783 385.158L158.614 386.094C158.978 386.007 159.316 385.834 159.597 385.59C155.426 396.424 148.509 413.285 143.702 419.167C136.398 428.109 137.307 442.401 137.307 442.401C137.307 442.401 130.003 479.948 130.309 486.799C130.344 490.105 129.43 493.355 127.671 496.179C126.238 497.789 124.979 499.54 123.914 501.403C118.435 510.644 109.605 510.033 109.605 510.033C101.997 514.826 111.097 518.703 111.097 518.703ZM158.112 336.951L158.898 336.645L159.081 336.572L159.834 336.254L159.963 336.194L160.641 335.888L160.79 335.822L161.509 335.47L161.679 335.384L162.357 335.032H162.411L163.089 334.647L163.252 334.554L163.93 334.169L164.039 334.103L164.628 333.751L164.764 333.671L165.395 333.28L165.537 333.187L166.12 332.808L166.175 332.775L166.771 332.37L166.907 332.277L167.477 331.879L167.565 331.819L168.067 331.461L168.175 331.381L168.697 330.989L168.806 330.91L169.28 330.545H169.321L169.803 330.166L169.904 330.086L170.359 329.721L170.399 329.688L170.806 329.35L170.874 329.29L171.274 328.951L171.335 328.898L171.701 328.573L172.054 328.261L172.101 328.214L172.78 327.551L173.77 327.471C174.61 328.54 174.943 330.432 174.977 332.602C174.882 338.172 173.159 345.049 173.159 345.049C173.012 348.463 172.406 351.842 171.355 355.1C170.613 355.06 169.884 354.887 169.206 354.589C169.206 354.589 169.165 354.801 169.104 355.16L168.521 355.014L165.558 354.29C165.558 354.29 163.096 342.022 158.112 336.951Z" fill="url(#paint5_linear)"/>
<path d="M240.66 495.667L246.309 511.075C246.309 511.075 230.841 522.692 220.791 520.289C219.277 519.921 217.735 519.677 216.18 519.559C214.098 519.406 210.517 517.926 212.728 516.034C219.862 509.927 229.369 498.582 229.369 498.582L240.66 495.667Z" fill="#4F4D59"/>
<path d="M146.753 494.214L149.425 509.05C149.425 509.05 135.754 508.466 112.576 515.45C112.576 515.45 103.658 511.666 111.09 507.012C111.09 507.012 119.709 507.597 125.06 498.575C130.41 489.553 133.679 490.722 133.679 490.722L146.753 494.214Z" fill="#4F4D59"/>
<path d="M217.482 386.572L214.864 431.713C214.584 436.524 216.214 441.255 219.414 444.917C220.861 446.598 222.509 448.103 224.324 449.398C230.563 453.759 243.935 499.724 243.935 499.724C243.935 499.724 228.779 500.593 224.622 503.507C224.622 503.507 223.734 491.87 221.354 490.709C218.973 489.547 201.444 455.525 201.444 455.525L183.901 411.3C183.901 411.3 169.931 434.867 158.044 438.936V448.827C158.044 448.827 151.507 477.916 149.127 481.116C146.746 484.316 149.127 497.115 149.127 497.115C149.127 497.115 142.291 505.552 126.545 496.53C126.545 496.53 131.597 491.001 131.292 484.309C130.987 477.618 138.141 440.974 138.141 440.974C138.141 440.974 137.253 427.033 144.38 418.284C151.507 409.535 163.367 376.104 163.367 376.104L171.545 358.877L217.482 386.572Z" fill="#787C9C"/>
<g opacity="0.1">
<path opacity="0.1" d="M241.107 499.737C241.107 499.737 227.735 453.773 221.496 449.411C219.578 448.039 217.844 446.435 216.335 444.638C213.283 441.026 211.748 436.412 212.043 431.733L214.661 386.592L170.833 360.145L171.43 358.89L217.332 386.586L214.715 431.727C214.42 436.406 215.955 441.02 219.007 444.632C220.516 446.428 222.25 448.032 224.168 449.405C230.407 453.766 243.779 499.73 243.779 499.73C243.779 499.73 228.623 500.6 224.466 503.514C224.466 503.514 224.432 503.063 224.358 502.326C230.203 500.367 241.107 499.737 241.107 499.737Z" fill="black"/>
<path opacity="0.1" d="M146.312 497.134C146.312 497.134 143.932 484.336 146.312 481.136C148.692 477.936 155.23 448.847 155.23 448.847V438.956C167.117 434.88 181.087 411.32 181.087 411.32L182.124 413.942C178.096 420.196 167.348 435.723 157.908 438.956V448.847C157.908 448.847 151.371 477.936 148.991 481.136C146.611 484.336 148.991 497.134 148.991 497.134C148.991 497.134 145.675 501.217 138.351 500.666C143.81 500.208 146.312 497.134 146.312 497.134Z" fill="black"/>
</g>
<path d="M115.254 335.955L121.093 336.333L124.172 336.532V329.23L120.103 328.513L117.6 328.068C117.6 328.068 109.877 305.671 102.444 309.74C95.0121 313.809 115.254 335.955 115.254 335.955Z" fill="#714B4F"/>
<path d="M208.863 276.03C208.863 276.03 212.728 290.575 213.915 299.596C215.101 308.618 186.281 301.342 186.281 301.342C186.281 301.342 197.273 288.251 191.028 281.268L208.863 276.03Z" fill="#714B4F"/>
<path d="M177.662 336.539L177.065 342.069L186.274 341.485L195.483 333.631L204.692 308.319L210.646 299.311L215.101 293.781L213.318 287.09C213.318 287.09 212.504 287.754 211.128 288.816C206.604 292.208 195.985 299.251 188.227 297.306C187.868 297.219 187.515 297.11 187.169 296.981L175.58 316.471L177.662 336.539Z" fill="#E6E6F0"/>
<path opacity="0.1" d="M210.944 285.37C210.944 285.37 215.691 286.24 218.967 293.224C221.482 298.594 229.966 304.13 233.757 306.407C234.479 306.84 235.106 307.41 235.6 308.084C236.094 308.758 236.445 309.522 236.632 310.331C237.398 313.65 237.69 319.824 233.526 328.719C226.989 342.66 222.235 348.793 222.235 348.793C222.235 348.793 221.048 362.734 222.832 366.83C224.615 370.926 222.832 393.304 222.832 393.304C222.832 393.304 191.638 399.119 181.229 393.304C170.82 387.488 172.312 365.031 172.312 365.031C172.312 365.031 162.506 385.411 158.959 385.995L160.994 374.65C160.994 374.65 172.583 362.429 173.2 346.722C173.2 346.722 176.767 332.47 173.797 328.686C173.797 328.686 123.575 332.762 120.605 329.27C120.605 329.27 153.589 327.816 158.641 319.976C158.641 319.976 173.2 308.631 173.797 301.07C173.884 299.652 174.338 298.279 175.118 297.08C175.898 295.881 176.976 294.897 178.252 294.219C180.273 293.094 182.593 292.588 184.911 292.766L191.625 293.217C191.625 293.217 180.042 313.252 180.659 315.907C181.276 318.562 180.063 339.759 180.063 339.759C180.063 339.759 193.435 311.539 199.376 308.339C205.316 305.139 212.131 292.009 212.131 292.009L210.944 285.37Z" fill="black"/>
<path opacity="0.1" d="M177.662 336.539L177.065 342.069L186.274 341.485L195.483 333.631L204.692 308.319L210.646 299.311L215.101 293.781L213.318 287.09C213.318 287.09 212.504 287.754 211.128 288.816L211.534 291.113C211.534 291.113 204.699 304.25 198.759 307.45C192.818 310.649 179.446 338.869 179.446 338.869C179.446 338.869 180.632 317.626 180.042 315.017C179.635 313.238 184.843 303.433 188.227 297.306C187.868 297.219 187.515 297.11 187.169 296.981L175.58 316.471L177.662 336.539Z" fill="black"/>
<path opacity="0.1" d="M121.093 336.34L124.172 336.539V329.237L120.103 328.52C121.534 330.379 121.486 333.605 121.093 336.34Z" fill="black"/>
<path d="M210.944 284.468C210.944 284.468 215.691 285.337 218.967 292.321C221.482 297.691 229.966 303.228 233.757 305.505C234.479 305.937 235.106 306.507 235.6 307.181C236.094 307.855 236.445 308.619 236.632 309.428C237.398 312.747 237.69 318.921 233.526 327.816C226.989 341.757 222.235 347.891 222.235 347.891C222.235 347.891 221.048 361.831 222.832 365.927C224.615 370.023 222.832 392.401 222.832 392.401C222.832 392.401 191.638 398.216 181.229 392.401C170.82 386.586 172.312 364.181 172.312 364.181C172.312 364.181 162.506 384.541 158.959 385.119L160.994 373.774C160.994 373.774 172.583 361.552 173.2 345.846C173.2 345.846 176.767 331.593 173.797 327.81C173.797 327.81 162.208 340.031 149.133 339.759C136.059 339.486 120.605 341.212 120.605 341.212C120.605 341.212 123.575 331.919 120.605 328.414C120.605 328.414 153.589 326.96 158.641 319.12C158.641 319.12 173.2 307.775 173.797 300.214C173.88 298.79 174.334 297.411 175.115 296.207C175.896 295.004 176.978 294.015 178.259 293.336C180.28 292.211 182.6 291.705 184.918 291.883L191.631 292.334C191.631 292.334 180.042 312.395 180.659 315.011C181.276 317.626 180.063 338.862 180.063 338.862C180.063 338.862 193.435 310.643 199.376 307.443C205.316 304.243 212.151 291.106 212.151 291.106L210.965 284.468" fill="#67647E"/>
<path opacity="0.1" d="M217.482 315.011C217.482 315.011 210.348 338.577 206.191 341.485C202.034 344.392 176.774 359.229 169.341 355.737C169.341 355.737 167.558 364.467 170.23 366.498C170.23 366.498 197.938 365.436 198.162 365.336C198.162 365.336 216.288 363.006 219.258 354.283C222.228 345.561 225.795 330.717 225.795 330.717L217.482 315.011Z" fill="black"/>
<path d="M179.445 341.631C180.019 341.631 180.483 340.98 180.483 340.177C180.483 339.374 180.019 338.723 179.445 338.723C178.872 338.723 178.408 339.374 178.408 340.177C178.408 340.98 178.872 341.631 179.445 341.631Z" fill="#BA7855"/>
<path d="M176.475 351.814C177.048 351.814 177.513 351.163 177.513 350.36C177.513 349.557 177.048 348.906 176.475 348.906C175.902 348.906 175.438 349.557 175.438 350.36C175.438 351.163 175.902 351.814 176.475 351.814Z" fill="#BA7855"/>
<g opacity="0.1">
<path opacity="0.1" d="M220.75 392.102C220.75 392.102 222.534 369.704 220.75 365.628C218.967 361.552 220.153 347.592 220.153 347.592C220.153 347.592 224.9 341.485 231.444 327.517C235.608 318.622 235.309 312.448 234.55 309.129C234.362 308.32 234.01 307.556 233.515 306.882C233.02 306.208 232.392 305.638 231.668 305.206C227.877 302.929 219.394 297.392 216.885 292.022C215.04 288.085 212.728 286.087 211.053 285.098L210.938 284.434C210.938 284.434 215.684 285.304 218.96 292.288C221.476 297.658 229.959 303.194 233.743 305.471C234.467 305.903 235.095 306.473 235.59 307.147C236.085 307.821 236.437 308.585 236.625 309.395C237.391 312.714 237.683 318.888 233.519 327.783C226.982 341.724 222.228 347.857 222.228 347.857C222.228 347.857 221.042 361.798 222.825 365.894C224.609 369.99 222.825 392.368 222.825 392.368C222.825 392.368 200.535 396.523 187.352 394.299C200.671 395.846 220.75 392.102 220.75 392.102Z" fill="black"/>
<path opacity="0.1" d="M180.659 315.011C181.066 316.803 180.659 327.345 180.327 333.797C178.889 336.672 177.987 338.57 177.987 338.57C177.987 338.57 179.174 317.328 178.584 314.719C178.021 312.229 188.458 293.974 189.495 292.148L191.659 292.294C191.659 292.294 180.042 312.395 180.659 315.011Z" fill="black"/>
<path opacity="0.1" d="M147.051 339.447C160.126 339.739 171.715 327.498 171.715 327.498C172.065 327.973 172.321 328.509 172.468 329.077C169.077 332.204 159.583 339.951 149.133 339.699C136.059 339.407 120.605 341.153 120.605 341.153C120.605 341.153 120.666 340.96 120.761 340.628C129.495 339.757 138.272 339.363 147.051 339.447Z" fill="black"/>
<path opacity="0.1" d="M170.23 363.882C170.23 363.882 170.108 365.701 170.176 368.43C167.083 374.404 161.455 384.707 158.939 385.119L159.38 382.729C163.706 377.411 170.23 363.882 170.23 363.882Z" fill="black"/>
</g>
<path d="M173.668 290.469H102.634V342.872H173.668V290.469Z" fill="url(#paint6_linear)"/>
<path d="M171.83 291.816H104.465V341.518H171.83V291.816Z" fill="white"/>
<path opacity="0.2" d="M133.509 296.118H111.057V308.545H133.509V296.118Z" fill="#FE4D33"/>
<path d="M165.239 296.118H138.88V298.986H165.239V296.118Z" fill="#E6E8EC"/>
<path d="M157.434 300.898H138.88V303.765H157.434V300.898Z" fill="#E6E8EC"/>
<path d="M165.239 305.677H138.88V308.545H165.239V305.677Z" fill="#E6E8EC"/>
<path d="M165.246 310.457H111.057V313.325H165.246V310.457Z" fill="#E6E8EC"/>
<path d="M165.246 315.236H111.057V318.104H165.246V315.236Z" fill="#E6E8EC"/>
<path d="M165.246 320.009H111.057V322.877H165.246V320.009Z" fill="#E6E8EC"/>
<path d="M160.851 324.789H111.057V327.657H160.851V324.789Z" fill="#E6E8EC"/>
<path d="M165.246 329.569H111.057V332.436H165.246V329.569Z" fill="#E6E8EC"/>
<path d="M165.246 334.348H111.057V337.216H165.246V334.348Z" fill="#E6E8EC"/>
<path d="M161.909 360.975L168.223 362.302L173.2 363.305L170.528 356.003L168.67 355.545L165.774 354.841C165.774 354.841 161.618 334.494 153.297 335.955C144.976 337.415 161.909 360.975 161.909 360.975Z" fill="#714B4F"/>
<path opacity="0.1" d="M168.223 362.276L173.2 363.305L170.528 356.003L168.67 355.545C168.254 357.764 168.104 360.023 168.223 362.276V362.276Z" fill="black"/>
<path d="M217.482 314.433C217.482 314.433 210.348 337.999 206.191 340.907C202.034 343.815 176.774 358.651 169.341 355.16C169.341 355.16 167.558 363.889 170.23 365.92C170.23 365.92 197.938 364.858 198.162 364.759C198.162 364.759 216.288 362.429 219.258 353.706C222.228 344.983 225.795 330.14 225.795 330.14L217.482 314.433Z" fill="#67647E"/>
<path opacity="0.1" d="M208.564 276.614C208.564 276.614 209.168 278.891 209.975 282.204C208.326 285.252 205.698 287.684 202.497 289.124C199.295 290.563 195.698 290.931 192.262 290.17C192.974 287.183 192.818 284.195 190.729 281.826L208.564 276.614Z" fill="black"/>
<path d="M196.087 289.997C204.948 289.997 212.131 282.965 212.131 274.291C212.131 265.617 204.948 258.585 196.087 258.585C187.226 258.585 180.042 265.617 180.042 274.291C180.042 282.965 187.226 289.997 196.087 289.997Z" fill="#714B4F"/>
<path opacity="0.1" d="M182.151 269.963C180.986 270.279 179.766 270.352 178.571 270.175C176.068 269.671 174.285 267.181 174.224 264.679C174.249 263.425 174.559 262.192 175.131 261.07C175.704 259.949 176.524 258.966 177.533 258.193C178.889 257.084 180.517 256.294 181.758 255.06C183.229 253.593 184.03 251.614 185.149 249.888C187.06 247.022 189.896 244.863 193.205 243.754C195.666 242.938 198.677 242.845 200.569 244.598C201.539 245.494 202.108 246.788 203.193 247.545C204.767 248.64 206.896 248.315 208.815 248.534C210.555 248.796 212.201 249.473 213.61 250.506C215.019 251.539 216.146 252.895 216.892 254.456C218.349 257.617 218.627 261.178 217.678 264.519C217.305 265.947 216.763 267.334 216.363 268.755C215.529 271.715 215.332 274.822 214.369 277.743C213.406 280.664 211.419 283.518 208.415 284.381C208.653 281.107 207.992 277.829 206.503 274.888C206.256 274.248 205.772 273.721 205.146 273.415C204.61 273.28 204.048 273.28 203.512 273.415C199.75 273.961 195.911 273.2 192.662 271.264C191.523 270.6 189.746 268.27 188.526 268.038C186.986 267.765 183.779 269.604 182.151 269.963Z" fill="black"/>
<path d="M182.151 269.379C180.986 269.695 179.766 269.768 178.571 269.591C176.068 269.086 174.285 266.597 174.224 264.094C174.249 262.841 174.559 261.608 175.131 260.486C175.704 259.364 176.524 258.381 177.533 257.609C178.889 256.5 180.517 255.71 181.758 254.475C183.229 253.008 184.03 251.03 185.149 249.304C187.06 246.438 189.896 244.279 193.205 243.17C195.666 242.354 198.677 242.261 200.569 244.013C201.539 244.91 202.108 246.204 203.193 246.961C204.767 248.056 206.896 247.731 208.815 247.95C210.555 248.212 212.201 248.889 213.61 249.922C215.019 250.954 216.146 252.311 216.892 253.871C218.349 257.032 218.627 260.594 217.678 263.935C217.305 265.362 216.763 266.75 216.363 268.17C215.529 271.131 215.332 274.238 214.369 277.159C213.406 280.08 211.419 282.934 208.415 283.797C208.653 280.523 207.992 277.245 206.503 274.304C206.256 273.663 205.772 273.137 205.146 272.831C204.61 272.696 204.048 272.696 203.512 272.831C199.75 273.377 195.911 272.616 192.662 270.68C191.523 270.016 189.746 267.686 188.526 267.453C186.986 267.181 183.779 269.027 182.151 269.379Z" fill="#503F43"/>
<path d="M58.434 504.709C59.6769 503.717 60.5826 502.379 61.0313 500.872C61.3703 499.345 60.7058 497.52 59.2139 496.962C57.5457 496.338 55.7622 497.466 54.4128 498.615C53.0633 499.763 51.5104 501.064 49.7405 500.819C50.6501 500.012 51.3307 498.987 51.7157 497.846C52.1008 496.705 52.1772 495.485 51.9376 494.307C51.8611 493.818 51.6501 493.359 51.3273 492.979C50.3982 492.01 48.7233 492.428 47.6112 493.191C44.0849 495.621 43.1016 500.308 43.0813 504.53C42.7287 503.009 43.027 501.423 43.0135 499.883C42.9999 498.343 42.5659 496.564 41.2232 495.754C40.3906 495.316 39.4556 495.098 38.5107 495.123C36.9239 495.063 35.1608 495.223 34.0758 496.358C32.7195 497.765 33.0789 500.135 34.2521 501.669C35.4252 503.202 37.2019 504.191 38.843 505.267C40.1582 506.032 41.2801 507.078 42.1251 508.327C42.2245 508.5 42.3063 508.682 42.3692 508.871H52.2902C54.5209 507.762 56.5876 506.362 58.434 504.709V504.709Z" fill="#FE4D33"/>
<path d="M647.725 412.435C648.968 411.444 649.873 410.106 650.322 408.599C650.661 407.072 649.997 405.246 648.505 404.689C646.837 404.065 645.053 405.193 643.704 406.341C642.354 407.49 640.801 408.791 639.031 408.545C639.941 407.738 640.622 406.714 641.007 405.573C641.392 404.431 641.468 403.212 641.228 402.033C641.152 401.545 640.941 401.086 640.618 400.706C639.689 399.736 638.014 400.155 636.902 400.918C633.376 403.348 632.392 408.034 632.372 412.256C632.02 410.736 632.318 409.15 632.304 407.609C632.291 406.069 631.857 404.29 630.514 403.48C629.681 403.042 628.746 402.825 627.802 402.85C626.215 402.79 624.452 402.949 623.367 404.084C622.01 405.492 622.37 407.862 623.543 409.395C624.716 410.929 626.493 411.918 628.134 412.993C629.449 413.759 630.571 414.805 631.416 416.053C631.515 416.227 631.597 416.409 631.66 416.598H641.595C643.82 415.487 645.883 414.087 647.725 412.435V412.435Z" fill="#FE4D33"/>
<path d="M735.867 212.886C734.464 208.863 732.436 203.765 730.836 202.563C730.738 202.486 730.631 202.422 730.517 202.371H730.32V197.399L726.536 197.989C725.935 196.193 725.482 194.353 725.18 192.486C725.545 192.844 726.009 193.087 726.515 193.186C727.02 193.286 727.545 193.236 728.022 193.044C727.961 192.944 727.906 192.838 727.852 192.732L728.022 192.659C727.426 191.63 727.11 190.469 727.106 189.287C727.136 188.207 727.312 187.135 727.628 186.1C728.306 183.81 729.452 181.672 730.09 179.369C730.497 177.887 730.689 176.356 730.66 174.822C730.68 172.22 730.076 169.651 728.896 167.32C728.598 166.647 728.132 166.058 727.54 165.608C727.008 165.318 726.46 165.057 725.899 164.824C724.958 164.204 724.148 163.413 723.512 162.494C720.824 159.289 717.225 156.937 713.171 155.736C712.114 155.35 710.968 155.26 709.861 155.477C707.318 156.141 706.396 159.228 704.335 160.848C702.517 162.275 700.022 162.421 697.737 162.899C695.451 163.377 693.152 164.326 691.593 166.052C690.518 167.255 689.932 168.802 689.945 170.4C689.882 171.147 690.017 171.897 690.335 172.578C690.653 173.259 691.144 173.849 691.762 174.291C692.466 174.742 693.264 175.036 694.097 175.151C694.931 175.266 695.78 175.198 696.584 174.954C695.955 177.079 695.782 179.308 696.075 181.502C696.369 183.695 697.122 185.805 698.288 187.7C699.454 189.595 701.007 191.234 702.851 192.513C704.694 193.793 706.788 194.685 709 195.135L709.441 195.912C710.804 198.395 711.838 201.039 712.52 203.778C709.034 205.71 705.23 207.522 702.931 207.695C702.838 208.574 702.67 209.445 702.429 210.297C701.892 212.434 700.859 214.422 699.411 216.106C696.285 219.544 682.228 245.54 682.228 245.54C682.228 245.54 681.787 246.576 681.061 248.342C672.334 249.39 658.087 250.904 654.113 250.127L638.516 235.603C638.516 235.603 633.471 239.373 633.911 243.954L631.097 241.338C631.097 241.338 616.26 252.424 639.689 259.687L675.338 263.736C671.947 273.767 668.774 285.443 669.757 291.796H670.049C670.73 291.796 671.41 291.745 672.083 291.644L672.022 292.772L668.591 352.956C668.591 352.956 667.811 364.042 678.356 369.007C678.356 369.007 691.24 406.083 686.168 410.291C686.168 410.291 686.771 410.603 687.788 411.035L677.189 420.229C677.189 420.229 669.377 422.141 665.085 421.756C664.33 421.654 663.564 421.828 662.933 422.245C662.301 422.661 661.848 423.29 661.66 424.013C661.66 424.092 661.66 424.172 661.62 424.252V424.351C661.62 424.431 661.62 424.511 661.62 424.597C661.62 424.683 661.62 424.657 661.62 424.69C661.62 424.723 661.62 424.829 661.62 424.902C661.62 424.975 661.62 424.962 661.62 424.989C661.62 425.015 661.62 425.155 661.667 425.234V425.327C661.69 425.416 661.719 425.504 661.755 425.593L661.789 425.672C661.823 425.759 661.864 425.845 661.911 425.931V425.991C661.959 426.077 662.013 426.157 662.067 426.243L662.115 426.316C662.178 426.405 662.248 426.493 662.325 426.582L662.386 426.648C662.467 426.741 662.555 426.827 662.644 426.914L662.684 426.947L662.976 427.193L663.037 427.239C663.145 427.325 663.267 427.405 663.39 427.485L663.471 427.538C663.6 427.617 663.735 427.697 663.878 427.77H663.939L664.38 427.983H664.441L664.956 428.182L665.064 428.222L665.627 428.401H665.722L666.339 428.56H666.387L667.065 428.693H667.201L667.933 428.799H668.075L668.903 428.879C670.51 428.998 672.673 429.045 675.175 429.031C675.175 429.031 675.175 429.091 675.175 429.124C675.175 429.158 675.175 429.264 675.175 429.337V429.423C675.175 429.503 675.175 429.589 675.223 429.669V429.762C675.245 429.85 675.275 429.939 675.311 430.027L675.345 430.107C675.379 430.193 675.419 430.279 675.467 430.366V430.425C675.514 430.512 675.569 430.591 675.623 430.678L675.67 430.751C675.734 430.839 675.804 430.928 675.881 431.016L675.942 431.083C676.023 431.176 676.111 431.262 676.199 431.348L676.24 431.381L676.532 431.627L676.593 431.673C676.701 431.76 676.823 431.839 676.945 431.919L677.033 431.972C677.162 432.052 677.298 432.132 677.44 432.205H677.501L677.942 432.417H678.003L678.519 432.616L678.627 432.656L679.19 432.835H679.285L679.902 432.995H679.949L680.627 433.127H680.763L681.495 433.233H681.638L682.465 433.313C692.637 434.077 725.024 431.786 725.024 431.786V431.7V431.587C725.343 430.107 726.903 421.503 721.369 415.144C721.532 414.978 721.695 414.799 721.844 414.613C721.844 414.613 717.551 407.35 719.891 405.054C722.23 402.757 708.18 363.006 708.18 363.006C708.18 363.006 700.761 351.542 705.054 338.544C709.346 325.546 704.66 311.406 704.66 311.406C704.66 311.406 714.9 308.425 715.11 296.085C715.11 295.713 715.11 295.328 715.11 294.936C715.335 294.968 715.561 294.981 715.788 294.976C715.933 294.986 716.078 294.986 716.222 294.976C716.222 294.976 714.269 288.099 716.616 283.127C718.962 278.154 724.034 282.742 728.72 262.488C732.111 247.83 735.094 230.969 736.485 222.764C737.089 219.47 736.877 216.083 735.867 212.886V212.886ZM646.755 255.883L643.195 252.564C644.375 253.042 645.684 253.513 647.148 253.964L660.575 255.491C654.581 256.035 649.013 256.328 646.755 255.889V255.883Z" fill="url(#paint7_linear)"/>
<path d="M680.743 253.938C680.743 253.938 653.123 257.695 647.365 256.593L632.019 242.321C632.019 242.321 617.44 253.214 640.462 260.344L683.428 265.223L680.743 253.938Z" fill="#FDC2CC"/>
<path opacity="0.05" d="M680.743 253.938C680.743 253.938 653.123 257.695 647.365 256.593L632.019 242.321C632.019 242.321 617.44 253.214 640.462 260.344L683.428 265.223L680.743 253.938Z" fill="black"/>
<path d="M690.718 406.408L677.291 418.052C677.291 418.052 669.621 419.93 665.397 419.552C661.172 419.173 659.26 425.938 669.235 426.688C679.21 427.438 711.048 425.188 711.048 425.188C711.048 425.188 714.12 413.172 704.911 406.408H690.718Z" fill="#47465A"/>
<path opacity="0.05" d="M690.718 406.408L677.291 418.052C677.291 418.052 669.621 419.93 665.397 419.552C661.172 419.173 659.26 425.938 669.235 426.688C679.21 427.438 711.048 425.188 711.048 425.188C711.048 425.188 714.12 413.172 704.911 406.408H690.718Z" fill="black"/>
<path opacity="0.3" d="M711.53 419.983C711.507 421.352 711.346 422.715 711.048 424.053C711.048 424.053 679.176 426.303 669.235 425.553C664.441 425.194 662.399 423.442 662.033 421.762C661.599 423.688 663.335 426.237 669.235 426.681C679.21 427.432 711.048 425.181 711.048 425.181C711.422 423.474 711.583 421.729 711.53 419.983V419.983Z" fill="white"/>
<path d="M706.444 193.475C706.444 193.475 714.886 205.119 711.815 213.005C708.743 220.892 727.906 204.741 727.906 204.741C727.906 204.741 721.769 194.226 724.835 182.96L706.444 193.475Z" fill="#FDC2CC"/>
<path d="M704.172 410.909L690.745 422.552C690.745 422.552 683.075 424.431 678.851 424.053C674.626 423.674 672.714 430.439 682.689 431.189C692.664 431.939 724.502 429.689 724.502 429.689C724.502 429.689 727.574 417.673 718.365 410.909H704.172Z" fill="#47465A"/>
<path d="M707.983 408.28C705.983 410.696 703.162 411.599 700.212 411.765C693.505 412.077 686.12 408.28 686.12 408.28C691.105 404.151 678.451 367.719 678.451 367.719C668.096 362.84 668.862 351.947 668.862 351.947L672.253 292.819L673.1 277.969L683.842 271.583L692.312 277.942L700.341 283.976C700.862 285.895 701.198 287.858 701.344 289.838C702.273 303.639 691.132 306.885 691.132 306.885C691.132 306.885 695.736 320.779 691.518 333.545C687.3 346.311 694.59 357.576 694.59 357.576C694.59 357.576 708.403 396.63 706.118 398.887C703.833 401.144 707.983 408.28 707.983 408.28Z" fill="#565171"/>
<path opacity="0.05" d="M707.983 408.28C705.983 410.696 703.162 411.599 700.212 411.765C693.505 412.077 686.12 408.28 686.12 408.28C691.105 404.151 678.451 367.719 678.451 367.719C668.096 362.84 668.862 351.947 668.862 351.947L672.253 292.819L673.1 277.969L683.842 271.583L692.312 277.942L700.341 283.976C700.862 285.895 701.198 287.858 701.344 289.838C702.273 303.639 691.132 306.885 691.132 306.885C691.132 306.885 695.736 320.779 691.518 333.545C687.3 346.311 694.59 357.576 694.59 357.576C694.59 357.576 708.403 396.63 706.118 398.887C703.833 401.144 707.983 408.28 707.983 408.28Z" fill="black"/>
<path d="M721.41 412.787C714.886 420.674 699.547 412.787 699.547 412.787C699.86 412.51 700.093 412.157 700.225 411.765C703.04 404.277 690.732 368.476 690.732 368.476C680.377 363.597 679.203 351.953 679.203 351.953L676.491 291.776L676.138 283.983L692.278 277.949L697.235 276.097L713.733 288.49C714.448 291.049 714.804 293.691 714.791 296.344C714.581 308.472 704.525 311.399 704.525 311.399C704.525 311.399 709.129 325.294 704.911 338.059C700.693 350.825 707.983 362.09 707.983 362.09C707.983 362.09 721.796 401.144 719.511 403.401C717.226 405.658 721.41 412.787 721.41 412.787Z" fill="#565171"/>
<path opacity="0.1" d="M714.791 296.337C711.475 295.872 704.762 291.962 701.31 289.838C699.995 289.028 699.154 288.51 699.154 288.51C699.154 288.51 695.702 279.124 686.493 286.26C683.499 288.64 680.118 290.512 676.491 291.796C675.104 292.277 673.673 292.628 672.219 292.845L673.066 277.995L683.808 271.609L692.278 277.969L697.235 276.116L713.733 288.51C714.445 291.061 714.801 293.693 714.791 296.337V296.337Z" fill="black"/>
<path d="M735.556 224.297C734.199 232.356 731.256 248.919 727.927 263.324C723.322 283.239 718.338 278.719 716.032 283.605C713.727 288.49 715.646 295.248 715.646 295.248C711.808 295.627 699.147 287.362 699.147 287.362C699.147 287.362 695.695 277.975 686.486 285.111C677.277 292.248 669.988 291.869 669.988 291.869C668.068 279.476 682.262 246.43 682.262 246.43C682.262 246.43 696.075 220.892 699.14 217.513C700.562 215.858 701.576 213.904 702.104 211.804C702.339 210.967 702.502 210.112 702.592 209.248C707.576 208.87 719.857 200.618 719.857 200.618L729.446 199.118V203.997C729.557 204.046 729.662 204.109 729.758 204.183C731.338 205.365 733.325 210.377 734.701 214.327C735.82 217.531 736.113 220.956 735.556 224.297V224.297Z" fill="#F68080"/>
<path opacity="0.1" d="M727.906 208.876C727.906 208.876 717.931 200.99 702.972 226.528C688.012 252.066 684.56 247.93 684.56 247.93C684.56 247.93 687.632 259.215 686.093 261.452C686.093 261.452 696.448 260.702 700.286 261.452C704.124 262.202 727.906 232.927 727.906 232.927C727.906 232.927 740.208 216.384 727.906 208.876Z" fill="black"/>
<path opacity="0.1" d="M727.547 207.37C727.547 207.37 717.572 199.483 702.612 225.021C687.653 250.559 684.201 246.423 684.201 246.423C684.201 246.423 696.095 259.189 699.927 259.945C703.758 260.702 727.547 231.4 727.547 231.4C727.547 231.4 739.821 214.884 727.547 207.37Z" fill="black"/>
<path opacity="0.1" d="M685.761 259.009C685.917 256.228 684.845 251.335 684.228 248.8C686.561 248.501 688.033 248.302 688.033 248.302L690.745 259.587L685.761 259.009Z" fill="black"/>
<path opacity="0.1" d="M725.241 183.717L706.83 194.232C707.605 195.341 708.321 196.489 708.973 197.671C710.035 197.883 711.117 197.989 712.201 197.989C717.117 197.989 719.41 192.938 722.373 189.539C722.163 186.81 724.421 186.737 725.241 183.717Z" fill="black"/>
<path d="M711.821 197.233C720.72 197.233 727.933 190.171 727.933 181.46C727.933 172.749 720.72 165.687 711.821 165.687C702.923 165.687 695.709 172.749 695.709 181.46C695.709 190.171 702.923 197.233 711.821 197.233Z" fill="#FDC2CC"/>
<path d="M686.92 199.437H557.161V295.162H686.92V199.437Z" fill="url(#paint8_linear)"/>
<path d="M684.011 201.581H560.07V293.018H684.011V201.581Z" fill="white"/>
<path opacity="0.2" d="M613.507 209.494H572.195V232.35H613.507V209.494Z" fill="#FE4D33"/>
<path d="M671.886 209.494H623.387V214.771H671.886V209.494Z" fill="#E6E8EC"/>
<path d="M657.517 218.29H623.387V223.567H657.517V218.29Z" fill="#E6E8EC"/>
<path d="M671.886 227.079H623.387V232.356H671.886V227.079Z" fill="#E6E8EC"/>
<path d="M671.886 235.868H572.195V241.146H671.886V235.868Z" fill="#E6E8EC"/>
<path d="M671.886 244.664H572.195V249.941H671.886V244.664Z" fill="#E6E8EC"/>
<path d="M671.886 253.453H572.195V258.731H671.886V253.453Z" fill="#E6E8EC"/>
<path d="M663.803 262.249H572.195V267.526H663.803V262.249Z" fill="#E6E8EC"/>
<path d="M671.886 271.038H572.195V276.316H671.886V271.038Z" fill="#E6E8EC"/>
<path d="M671.886 279.827H572.195V285.105H671.886V279.827Z" fill="#E6E8EC"/>
<path opacity="0.1" d="M691.437 168.701C693.063 167.069 695.176 165.983 697.472 165.601C699.71 165.13 702.165 164.983 703.955 163.609C705.989 162.023 706.884 159.009 709.38 158.338C710.466 158.125 711.591 158.212 712.628 158.591C716.616 159.768 720.156 162.079 722.8 165.229C723.423 166.132 724.217 166.909 725.14 167.519C725.691 167.748 726.23 168.005 726.754 168.289C727.328 168.733 727.78 169.311 728.069 169.969C729.868 173.525 730.283 177.6 729.236 181.433C728.612 183.697 727.486 185.795 726.821 188.072C726.157 190.349 725.987 192.878 727.208 194.889C726.028 195.48 724.536 194.737 723.817 193.661C723.098 192.586 722.854 191.258 722.461 190.017C721.694 187.575 720.256 185.386 718.304 183.69C717.097 182.642 714.913 181.938 714.093 183.292C713.767 183.817 713.788 184.48 713.51 185.025C712.96 186.087 711.374 186.299 710.323 185.689C709.309 185.004 708.598 183.97 708.329 182.794C706.749 177.563 704.057 174.271 698.34 176.508C696.211 177.344 693.702 177.908 691.654 176.475C688.982 174.583 689.504 170.839 691.437 168.701Z" fill="black"/>
<path d="M691.437 168.323C693.063 166.69 695.176 165.605 697.472 165.222C699.71 164.751 702.165 164.605 703.955 163.231C705.989 161.644 706.884 158.631 709.38 157.96C710.466 157.747 711.591 157.834 712.628 158.212C716.616 159.39 720.156 161.7 722.8 164.851C723.423 165.754 724.217 166.531 725.14 167.141C725.691 167.37 726.23 167.627 726.754 167.911C727.328 168.355 727.78 168.932 728.069 169.591C729.868 173.146 730.283 177.222 729.236 181.055C728.612 183.319 727.486 185.416 726.821 187.693C726.157 189.97 725.987 192.5 727.208 194.511C726.028 195.102 724.536 194.358 723.817 193.283C723.098 192.207 722.854 190.88 722.461 189.638C721.694 187.197 720.256 185.008 718.304 183.312C717.097 182.263 714.913 181.56 714.093 182.914C713.767 183.438 713.788 184.102 713.51 184.646C712.96 185.708 711.374 185.921 710.323 185.31C709.309 184.626 708.598 183.592 708.329 182.416C706.749 177.185 704.057 173.892 698.34 176.129C696.211 176.966 693.702 177.53 691.654 176.096C688.982 174.204 689.504 170.467 691.437 168.323Z" fill="#B96B6B"/>
<path opacity="0.05" d="M729.778 204.183H721.98C721.98 204.183 706.634 211.691 706.254 211.319C705.996 211.067 703.623 211.499 702.117 211.811C702.353 210.974 702.516 210.119 702.606 209.255C707.59 208.876 719.871 200.625 719.871 200.625L729.459 199.125V204.004C729.573 204.05 729.68 204.111 729.778 204.183Z" fill="black"/>
<path opacity="0.3" d="M724.957 424.491C724.934 425.86 724.773 427.223 724.475 428.56C724.475 428.56 692.603 430.811 682.662 430.06C677.868 429.702 675.826 427.949 675.46 426.27C675.026 428.195 676.762 430.744 682.662 431.189C692.637 431.939 724.475 429.689 724.475 429.689C724.849 427.981 725.01 426.236 724.957 424.491V424.491Z" fill="white"/>
<g opacity="0.05">
<path opacity="0.05" d="M682.852 284.707C677.678 288.69 673.1 290.356 670.096 291.02C670.096 291.298 670.151 291.577 670.191 291.843C670.191 291.843 677.481 292.221 686.69 285.085C688.116 283.888 689.802 283.026 691.62 282.562C689.613 281.653 686.744 281.713 682.852 284.707Z" fill="black"/>
<path opacity="0.05" d="M734.918 214.34C733.562 210.357 731.528 205.378 729.975 204.196C729.879 204.122 729.774 204.06 729.663 204.01C729.663 204.01 726.489 204.117 726.591 204.196C728.171 205.378 729.703 210.012 731.08 213.961C732.189 217.163 732.476 220.583 731.914 223.919C730.558 231.978 727.615 248.541 724.285 262.946C719.681 282.861 714.697 278.34 712.391 283.226C710.506 287.209 711.448 292.48 711.855 294.253C713.496 294.916 714.92 295.335 715.843 295.242C715.843 295.242 713.923 288.484 716.229 283.598C718.535 278.712 723.519 283.22 728.123 263.318C731.453 248.919 734.382 232.35 735.752 224.291C736.313 220.957 736.026 217.539 734.918 214.34Z" fill="black"/>
</g>
<path d="M690.718 259.574L685.761 259.009L647.786 254.688C624.77 247.552 639.343 236.665 639.343 236.665L654.689 250.937C659.117 251.807 676.477 249.782 684.255 248.806C686.588 248.508 688.06 248.308 688.06 248.308L690.718 259.574Z" fill="#FDC2CC"/>
<path d="M727.906 208.126C727.906 208.126 717.931 200.24 702.972 225.778C688.012 251.316 684.56 247.18 684.56 247.18C684.56 247.18 687.632 258.465 686.093 260.702C686.093 260.702 696.448 259.952 700.286 260.702C704.124 261.452 727.906 232.157 727.906 232.157C727.906 232.157 740.208 215.634 727.906 208.126Z" fill="#F68080"/>
</g>
<defs>
<linearGradient id="paint0_linear" x1="427.89" y1="396.47" x2="427.89" y2="74.9207" gradientUnits="userSpaceOnUse">
<stop stop-color="#808080" stop-opacity="0.25"/>
<stop offset="0.54" stop-color="#808080" stop-opacity="0.12"/>
<stop offset="1" stop-color="#808080" stop-opacity="0.1"/>
</linearGradient>
<linearGradient id="paint1_linear" x1="81035.7" y1="221154" x2="81035.7" y2="91255.3" gradientUnits="userSpaceOnUse">
<stop stop-color="#808080" stop-opacity="0.25"/>
<stop offset="0.54" stop-color="#808080" stop-opacity="0.12"/>
<stop offset="1" stop-color="#808080" stop-opacity="0.1"/>
</linearGradient>
<linearGradient id="paint2_linear" x1="24907.7" y1="181145" x2="24907.7" y2="101825" gradientUnits="userSpaceOnUse">
<stop stop-color="#808080" stop-opacity="0.25"/>
<stop offset="0.54" stop-color="#808080" stop-opacity="0.12"/>
<stop offset="1" stop-color="#808080" stop-opacity="0.1"/>
</linearGradient>
<linearGradient id="paint3_linear" x1="86692" y1="102735" x2="86692" y2="77981.9" gradientUnits="userSpaceOnUse">
<stop stop-color="#808080" stop-opacity="0.25"/>
<stop offset="0.54" stop-color="#808080" stop-opacity="0.12"/>
<stop offset="1" stop-color="#808080" stop-opacity="0.1"/>
</linearGradient>
<linearGradient id="paint4_linear" x1="23844.2" y1="28854.2" x2="29448.7" y2="28854.2" gradientUnits="userSpaceOnUse">
<stop stop-color="#808080" stop-opacity="0.25"/>
<stop offset="0.54" stop-color="#808080" stop-opacity="0.12"/>
<stop offset="1" stop-color="#808080" stop-opacity="0.1"/>
</linearGradient>
<linearGradient id="paint5_linear" x1="-76092.6" y1="240745" x2="-76092.6" y2="118574" gradientUnits="userSpaceOnUse">
<stop stop-color="#808080" stop-opacity="0.25"/>
<stop offset="0.54" stop-color="#808080" stop-opacity="0.12"/>
<stop offset="1" stop-color="#808080" stop-opacity="0.1"/>
</linearGradient>
<linearGradient id="paint6_linear" x1="14573.6" y1="27356.8" x2="14573.6" y2="23220.1" gradientUnits="userSpaceOnUse">
<stop stop-color="#808080" stop-opacity="0.25"/>
<stop offset="0.54" stop-color="#808080" stop-opacity="0.12"/>
<stop offset="1" stop-color="#808080" stop-opacity="0.1"/>
</linearGradient>
<linearGradient id="paint7_linear" x1="117819" y1="197217" x2="117819" y2="80570.1" gradientUnits="userSpaceOnUse">
<stop stop-color="#808080" stop-opacity="0.25"/>
<stop offset="0.54" stop-color="#808080" stop-opacity="0.12"/>
<stop offset="1" stop-color="#808080" stop-opacity="0.1"/>
</linearGradient>
<linearGradient id="paint8_linear" x1="119585" y1="42761.8" x2="119585" y2="28958.2" gradientUnits="userSpaceOnUse">
<stop stop-color="#808080" stop-opacity="0.25"/>
<stop offset="0.54" stop-color="#808080" stop-opacity="0.12"/>
<stop offset="1" stop-color="#808080" stop-opacity="0.1"/>
</linearGradient>
<clipPath id="clip0">
<rect width="737" height="524" fill="white"/>
</clipPath>
</defs>
</svg>
