<?xml version="1.0" encoding="utf-8"?>
<!-- Generator: Adobe Illustrator 23.0.3, SVG Export Plug-In . SVG Version: 6.00 Build 0)  -->
<svg version="1.1"
	 id="logosvg.com" inkscape:version="0.91 r13725" sodipodi:docname="Amazon II.svg" xmlns:cc="http://creativecommons.org/ns#" xmlns:dc="http://purl.org/dc/elements/1.1/" xmlns:inkscape="http://www.inkscape.org/namespaces/inkscape" xmlns:rdf="http://www.w3.org/1999/02/22-rdf-syntax-ns#" xmlns:sodipodi="http://sodipodi.sourceforge.net/DTD/sodipodi-0.dtd" xmlns:svg="http://www.w3.org/2000/svg"
	 xmlns="http://www.w3.org/2000/svg" xmlns:xlink="http://www.w3.org/1999/xlink" x="0px" y="0px" viewBox="0 0 400 300"
	 style="enable-background:new 0 0 400 300;" xml:space="preserve">
<style type="text/css">
	.st0{fill-rule:evenodd;clip-rule:evenodd;fill:#7D7D7D;}
	.st1{fill-rule:evenodd;clip-rule:evenodd;}
</style>
<path fill="#7D7D7D" id="orange" class="st0" d="M246.8,183c-22.6,16.7-55.3,25.5-83.5,25.5c-39.5,0-75.1-14.6-102.1-38.9c-2.1-1.9-0.2-4.5,2.3-3
	c29.1,16.9,65,27.1,102.1,27.1c25,0,52.6-5.2,77.9-15.9C247.4,176.1,250.6,180.3,246.8,183 M256.2,172.3c-2.9-3.7-19.1-1.7-26.4-0.9
	c-2.2,0.3-2.6-1.7-0.6-3c12.9-9.1,34.1-6.5,36.6-3.4c2.5,3.1-0.6,24.3-12.8,34.4c-1.9,1.6-3.6,0.7-2.8-1.3
	C253,191.3,259.1,176,256.2,172.3"/>
<path fill="#7D7D7D" id="text" class="st1" d="M230.3,104.2v-8.8c0-1.3,1-2.2,2.2-2.2h39.6c1.3,0,2.3,0.9,2.3,2.2v7.6c0,1.3-1.1,2.9-3,5.6
	l-20.5,29.3c7.6-0.2,15.7,0.9,22.6,4.8c1.6,0.9,2,2.2,2.1,3.4v9.4c0,1.3-1.4,2.8-2.9,2c-12.2-6.4-28.3-7.1-41.8,0.1
	c-1.4,0.7-2.8-0.7-2.8-2v-9c0-1.4,0-3.9,1.5-6.1l23.7-34.1h-20.7C231.4,106.4,230.3,105.5,230.3,104.2 M86,159.3H74
	c-1.2-0.1-2.1-0.9-2.1-2V95.5c0-1.2,1-2.2,2.3-2.2h11.2c1.2,0.1,2.1,0.9,2.2,2.1v8.1h0.2c2.9-7.8,8.4-11.4,15.8-11.4
	c7.5,0,12.2,3.6,15.6,11.4c2.9-7.8,9.5-11.4,16.6-11.4c5,0,10.6,2.1,13.9,6.8c3.8,5.2,3,12.7,3,19.4l0,39c0,1.2-1,2.2-2.3,2.2h-12
	c-1.2-0.1-2.2-1-2.2-2.2v-32.7c0-2.6,0.2-9.1-0.3-11.6c-0.9-4.1-3.6-5.3-7.1-5.3c-2.9,0-6,1.9-7.2,5.1c-1.2,3.1-1.1,8.3-1.1,11.8
	v32.7c0,1.2-1,2.2-2.3,2.2h-12c-1.2-0.1-2.2-1-2.2-2.2l0-32.7c0-6.9,1.1-17-7.4-17c-8.6,0-8.3,9.9-8.3,17v32.7
	C88.4,158.3,87.3,159.3,86,159.3 M308.5,92c17.9,0,27.5,15.3,27.5,34.8c0,18.8-10.7,33.8-27.5,33.8c-17.5,0-27.1-15.3-27.1-34.4
	C281.4,106.9,291.1,92,308.5,92 M308.6,104.6c-8.9,0-9.4,12.1-9.4,19.6c0,7.5-0.1,23.7,9.3,23.7c9.3,0,9.8-13,9.8-20.9
	c0-5.2-0.2-11.4-1.8-16.4C315.1,106.3,312.4,104.6,308.6,104.6 M359.1,159.3h-12c-1.2-0.1-2.2-1-2.2-2.2l0-61.8c0.1-1.1,1.1-2,2.3-2
	h11.2c1,0.1,1.9,0.8,2.1,1.7v9.4h0.2c3.4-8.4,8.1-12.5,16.4-12.5c5.4,0,10.7,1.9,14,7.3c3.1,4.9,3.1,13.3,3.1,19.2v38.9
	c-0.1,1.1-1.1,1.9-2.3,1.9H380c-1.1-0.1-2-0.9-2.1-1.9v-33.5c0-6.8,0.8-16.6-7.5-16.6c-2.9,0-5.6,2-7,4.9c-1.7,3.8-1.9,7.5-1.9,11.7
	v33.3C361.5,158.3,360.4,159.3,359.1,159.3 M198.8,129.8c0,4.7,0.1,8.6-2.3,12.8c-1.9,3.4-5,5.5-8.3,5.5c-4.6,0-7.3-3.5-7.3-8.7
	c0-10.3,9.2-12.1,17.9-12.1L198.8,129.8 M210.9,159.2c-0.8,0.7-1.9,0.8-2.8,0.3c-4-3.3-4.7-4.9-6.9-8c-6.6,6.7-11.3,8.8-19.8,8.8
	c-10.1,0-18-6.2-18-18.8c0-9.8,5.3-16.4,12.8-19.7c6.5-2.9,15.7-3.4,22.6-4.2V116c0-2.9,0.2-6.2-1.5-8.7c-1.5-2.2-4.3-3.1-6.8-3.1
	c-4.6,0-8.7,2.4-9.7,7.2c-0.2,1.1-1,2.1-2.1,2.2l-11.7-1.3c-1-0.2-2.1-1-1.8-2.5c2.7-14.2,15.5-18.4,26.9-18.4
	c5.9,0,13.5,1.6,18.1,6c5.9,5.5,5.3,12.8,5.3,20.7v18.8c0,5.6,2.3,8.1,4.5,11.2c0.8,1.1,0.9,2.4-0.1,3.2
	C217.7,153.3,213.4,157.1,210.9,159.2L210.9,159.2 M41,129.8c0,4.7,0.1,8.6-2.3,12.8c-1.9,3.4-4.9,5.5-8.3,5.5
	c-4.6,0-7.3-3.5-7.3-8.7c0-10.3,9.2-12.1,17.9-12.1V129.8 M53.2,159.2c-0.8,0.7-1.9,0.8-2.8,0.3c-4-3.3-4.7-4.9-6.9-8
	c-6.6,6.7-11.3,8.8-19.8,8.8c-10.1,0-18-6.2-18-18.8c0-9.8,5.3-16.4,12.8-19.7c6.5-2.9,15.7-3.4,22.6-4.2V116c0-2.9,0.2-6.2-1.5-8.7
	c-1.5-2.2-4.3-3.1-6.8-3.1c-4.6,0-8.7,2.4-9.7,7.2c-0.2,1.1-1,2.1-2.1,2.2l-11.7-1.3c-1-0.2-2.1-1-1.8-2.5
	c2.7-14.2,15.5-18.4,26.9-18.4c5.9,0,13.5,1.6,18.1,6c5.9,5.5,5.3,12.8,5.3,20.7v18.8c0,5.6,2.3,8.1,4.5,11.2c0.8,1.1,0.9,2.4,0,3.2
	C60,153.3,55.6,157.1,53.2,159.2L53.2,159.2"/>
</svg>
