<?xml version="1.0" encoding="utf-8"?>
<!-- Generator: Adobe Illustrator 14.0.0, SVG Export Plug-In . SVG Version: 6.00 Build 43363)  -->
<!DOCTYPE svg PUBLIC "-//W3C//DTD SVG 1.1//EN" "http://www.w3.org/Graphics/SVG/1.1/DTD/svg11.dtd">
<svg version="1.1"
	 id="google" xmlns:cc="http://creativecommons.org/ns#" xmlns:rdf="http://www.w3.org/1999/02/22-rdf-syntax-ns#" xmlns:dc="http://purl.org/dc/elements/1.1/"
	 xmlns="http://www.w3.org/2000/svg" xmlns:xlink="http://www.w3.org/1999/xlink" x="0px" y="0px" width="578.5px"
	 height="204.78px" viewBox="0 0 578.5 204.78" enable-background="new 0 0 578.5 204.78" xml:space="preserve">
<path id="g_1_" fill="#7D7D7D" d="M147.451,75.004H82.452v19.288h46.098c-2.277,27.046-24.78,38.581-46.02,38.581
	c-27.175,0-50.889-21.381-50.889-51.35c0-29.194,22.605-51.677,50.949-51.677c21.867,0,34.752,13.939,34.752,13.939L130.848,29.8
	c0,0-17.334-19.297-48.948-19.297c-40.257,0-71.4,33.976-71.4,70.675c0,35.961,29.295,71.026,72.426,71.026
	c37.934,0,65.702-25.986,65.702-64.414c0-8.106-1.177-12.792-1.177-12.792L147.451,75.004z"/>
<path id="o_1_" fill="#7D7D7D" d="M200.696,61.036c-26.671,0-45.785,20.852-45.785,45.17c0,24.678,18.54,45.917,46.098,45.917
	c24.948,0,45.387-19.068,45.387-45.386C246.396,76.571,222.621,61.036,200.696,61.036L200.696,61.036z M200.961,78.925
	c13.115,0,25.544,10.604,25.544,27.69c0,16.724-12.376,27.63-25.604,27.63c-14.536,0-26.003-11.642-26.003-27.763
	C174.898,90.707,186.223,78.925,200.961,78.925L200.961,78.925z"/>
<path id="o" fill="#7D7D7D" d="M300.271,61.036c-26.671,0-45.785,20.852-45.785,45.17c0,24.678,18.54,45.917,46.098,45.917
	c24.948,0,45.386-19.068,45.386-45.386C345.971,76.571,322.196,61.036,300.271,61.036L300.271,61.036z M300.536,78.925
	c13.117,0,25.545,10.604,25.545,27.69c0,16.724-12.376,27.63-25.605,27.63c-14.535,0-26.002-11.642-26.002-27.763
	C274.474,90.707,285.798,78.925,300.536,78.925L300.536,78.925z"/>
<path id="g" fill="#7D7D7D" d="M397.939,61.083c-24.481,0-43.724,21.441-43.724,45.507c0,27.413,22.309,45.591,43.302,45.591
	c12.98,0,19.882-5.152,24.978-11.066v8.98c0,15.712-9.54,25.123-23.94,25.123c-13.912,0-20.889-10.344-23.314-16.214l-17.503,7.318
	c6.209,13.13,18.709,26.822,40.963,26.822c24.34,0,42.891-15.331,42.891-47.485V63.822h-19.095v7.715
	C416.625,65.21,408.595,61.084,397.939,61.083L397.939,61.083z M399.711,78.937c12.002,0,24.328,10.249,24.328,27.75
	c0,17.79-12.299,27.594-24.593,27.594c-13.052,0-25.195-10.597-25.195-27.425C374.251,89.371,386.863,78.937,399.711,78.937
	L399.711,78.937z"/>
<path id="e" fill="#7D7D7D" d="M526.493,60.975c-23.093,0-42.481,18.373-42.481,45.483c0,28.687,21.611,45.7,44.7,45.7
	c19.27,0,31.096-10.542,38.153-19.987l-15.744-10.476c-4.085,6.34-10.915,12.537-22.313,12.537
	c-12.805,0-18.691-7.011-22.338-13.803l61.067-25.339l-3.17-7.426c-5.899-14.542-19.662-26.687-37.872-26.687L526.493,60.975z
	 M527.288,78.491c8.322,0,14.31,4.424,16.854,9.728l-40.781,17.046C501.602,92.068,514.104,78.491,527.288,78.491L527.288,78.491z"
	/>
<path id="l" fill="#7D7D7D" d="M454.898,149.454h20.059V15.213h-20.059V149.454z"/>
</svg>
