<?xml version="1.0" standalone="no"?>
<!DOCTYPE svg PUBLIC "-//W3C//DTD SVG 20010904//EN"
 "http://www.w3.org/TR/2001/REC-SVG-20010904/DTD/svg10.dtd">
<svg version="1.0" xmlns="http://www.w3.org/2000/svg"
 width="2934.000000pt" height="822.000000pt" viewBox="0 0 2934.000000 822.000000"
 preserveAspectRatio="xMidYMid meet">

<g transform="translate(0.000000,822.000000) scale(0.100000,-0.100000)"
fill="#000000" stroke="none">
<path d="M2582 6839 c-514 -61 -951 -417 -1116 -910 -69 -206 -66 -101 -66
-2089 0 -1986 -3 -1883 65 -2087 69 -206 168 -366 325 -523 201 -202 420 -319
706 -377 84 -17 194 -18 1914 -18 1751 0 1829 1 1915 19 289 60 521 189 722
399 181 190 286 390 345 660 l23 102 0 1825 0 1825 -23 102 c-59 270 -164 470
-345 660 -199 208 -414 328 -705 395 l-97 22 -1795 2 c-987 1 -1828 -2 -1868
-7z m3723 -486 c38 -13 102 -38 142 -57 260 -124 442 -363 492 -650 15 -83 15
-3529 0 -3612 -34 -195 -126 -365 -272 -500 -84 -78 -150 -120 -264 -169 -161
-69 -43 -66 -2028 -63 -1973 3 -1808 -2 -1967 62 -251 102 -449 331 -521 606
l-22 85 0 1785 0 1785 23 85 c28 106 94 245 156 327 122 161 325 288 526 328
52 11 418 13 1865 12 l1800 -2 70 -22z"/>
<path d="M4331 4881 c-26 -27 -77 -105 -115 -172 -95 -172 -170 -282 -224
-329 -66 -59 -171 -107 -297 -136 -409 -94 -415 -96 -415 -162 0 -50 40 -108
179 -257 253 -272 283 -368 237 -764 -40 -341 -6 -357 370 -183 176 81 247
102 348 102 107 0 191 -24 379 -109 240 -108 298 -120 334 -64 22 34 22 148
-2 333 -22 173 -17 312 14 393 33 84 106 186 227 317 124 134 163 188 171 234
4 27 0 36 -26 58 -40 35 -92 51 -299 93 -363 75 -427 122 -618 464 -76 138
-155 231 -194 231 -16 0 -39 -17 -69 -49z"/>
<path d="M17625 5549 c-449 -58 -725 -300 -823 -724 -39 -168 -44 -282 -40
-1065 5 -819 6 -835 68 -1022 54 -162 125 -275 233 -374 169 -155 385 -229
702 -241 604 -22 957 193 1080 659 48 185 50 221 50 1053 0 704 -2 791 -18
895 -78 496 -355 765 -842 820 -107 12 -312 11 -410 -1z m323 -503 c113 -30
191 -100 248 -220 64 -135 65 -160 61 -1043 -3 -721 -4 -793 -21 -847 -67
-225 -209 -327 -435 -313 -194 11 -311 101 -374 286 -22 66 -22 68 -25 886 -2
722 -1 830 13 900 19 94 60 184 109 241 37 44 130 98 192 113 60 14 173 12
232 -3z"/>
<path d="M9531 3869 c-227 -897 -416 -1639 -418 -1650 -5 -18 4 -19 330 -19
l335 0 5 23 c3 12 47 202 97 421 50 220 93 403 96 408 3 4 164 8 358 8 l354 0
20 -107 c11 -60 46 -253 78 -430 l57 -323 340 0 c267 0 338 3 334 13 -2 6
-168 749 -367 1650 l-364 1637 -420 0 -421 0 -414 -1631z m958 425 c67 -408
121 -744 121 -748 0 -9 -548 -8 -553 2 -2 4 60 331 138 727 78 396 145 738
150 760 6 34 9 37 16 20 4 -11 62 -354 128 -761z"/>
<path d="M11940 3850 l0 -1650 315 0 315 0 0 669 0 669 338 5 c297 4 347 7
418 25 374 96 621 414 665 858 18 182 -12 392 -78 546 -87 205 -226 355 -408
443 -171 82 -135 79 -892 83 l-673 3 0 -1651z m1103 1146 c130 -36 214 -104
267 -219 91 -196 53 -492 -81 -626 -96 -96 -192 -121 -466 -121 l-193 0 0 496
0 497 208 -6 c141 -4 225 -10 265 -21z"/>
<path d="M14350 3850 l0 -1650 310 0 310 0 0 669 0 669 338 5 c359 5 410 11
532 60 199 81 380 264 470 475 112 263 117 602 15 872 -72 189 -227 368 -392
453 -182 94 -154 91 -915 95 l-668 3 0 -1651z m1000 1161 c203 -22 319 -105
382 -276 19 -52 22 -80 22 -210 0 -130 -3 -158 -22 -209 -44 -117 -99 -184
-195 -232 -82 -42 -163 -54 -374 -54 l-193 0 0 495 0 495 148 0 c81 0 185 -4
232 -9z"/>
<path d="M19300 3851 l0 -1651 629 0 c676 0 703 2 843 53 182 66 337 210 443
410 110 207 179 487 206 838 13 178 6 823 -10 944 -78 555 -277 878 -617 995
-153 54 -144 53 -841 57 l-653 4 0 -1650z m1093 1159 c211 -31 319 -197 372
-573 35 -249 41 -712 14 -1032 -34 -393 -139 -626 -316 -696 -55 -22 -71 -23
-298 -24 l-240 0 -3 1155 c-1 635 0 1161 3 1168 6 15 364 17 468 2z"/>
<path d="M21840 3850 l0 -1650 880 0 880 0 0 250 0 250 -570 0 -570 0 0 515 0
515 445 0 445 0 0 250 0 250 -445 0 -445 0 0 385 0 385 570 0 570 0 0 250 0
250 -880 0 -880 0 0 -1650z"/>
<path d="M24725 5488 c-2 -7 -189 -742 -415 -1633 -226 -891 -413 -1628 -416
-1637 -5 -17 15 -18 330 -18 l336 0 5 23 c3 12 48 204 99 427 l93 405 356 3
c196 1 357 1 358 0 0 -2 35 -194 77 -428 l77 -425 339 -3 338 -2 -5 22 c-4 13
-166 745 -362 1626 -195 882 -358 1615 -361 1628 l-6 24 -419 0 c-327 0 -421
-3 -424 -12z m544 -1178 c67 -410 121 -751 121 -757 0 -10 -62 -13 -275 -13
-213 0 -275 3 -275 13 -1 30 295 1516 301 1509 3 -4 61 -342 128 -752z"/>
<path d="M26650 3850 l0 -1650 880 0 880 0 0 250 0 250 -570 0 -570 0 0 1400
0 1400 -310 0 -310 0 0 -1650z"/>
</g>
</svg>
