<svg width="400" height="300" viewBox="0 0 400 300" fill="none" xmlns="http://www.w3.org/2000/svg">
<path d="M29.2305 186.691H14.5305V149.991H4.53052V137.991H14.5305V129.491C14.5305 119.391 18.9305 112.191 33.6305 112.191C36.7305 112.191 41.6305 112.791 41.6305 112.791V123.891H36.5305C31.3305 123.891 29.2305 125.491 29.2305 129.891V137.991H41.4305L40.3305 149.991H29.2305V186.691V186.691ZM63.0305 136.991C62.8305 136.991 62.6305 136.991 62.3305 136.991C48.6305 136.991 42.4305 147.291 42.4305 161.891C42.4305 180.291 50.5305 187.591 62.4305 187.591C69.2305 187.591 73.7305 184.691 76.4305 179.391V186.691H90.4305V137.991H76.4305V145.491C74.3305 140.691 69.7305 137.091 63.0305 136.991ZM66.6305 148.491C72.3305 148.491 75.8305 152.491 75.8305 159.291V166.291C75.8305 170.891 73.0305 176.291 66.6305 176.291C56.8305 176.291 57.1305 165.791 57.1305 162.191C57.1305 150.391 62.3305 148.491 66.6305 148.491ZM96.2305 162.291C96.2305 156.391 95.9305 136.991 121.131 136.991C131.231 136.991 135.531 140.191 135.531 140.191L132.131 150.691C132.131 150.691 127.931 148.391 122.431 148.391C115.431 148.391 110.931 152.491 110.931 159.691V164.891C110.931 171.791 115.231 176.391 122.431 176.391C127.431 176.391 132.031 174.091 132.031 174.091L135.431 184.391C135.431 184.391 131.531 187.591 121.231 187.591C97.2305 187.691 96.2305 170.291 96.2305 162.291ZM217.631 137.091C231.331 137.091 237.631 147.391 237.631 161.991C237.631 180.391 229.531 187.691 217.631 187.691C210.831 187.691 205.731 184.791 203.031 179.491V186.791H189.231V113.791L203.931 112.491V144.991C206.031 139.091 213.031 137.091 217.631 137.091ZM213.531 148.491C207.831 148.491 203.931 152.491 203.931 159.291V166.291C203.931 170.891 206.631 176.291 213.531 176.291C223.331 176.291 223.031 165.791 223.031 162.191C223.031 150.391 217.831 148.491 213.531 148.491ZM161.031 137.091C145.531 137.091 137.331 145.491 137.331 160.591V163.391C137.331 182.891 148.831 187.891 162.531 187.891C175.831 187.891 181.831 184.191 181.831 184.191L179.131 174.291C179.131 174.291 172.031 177.291 164.331 177.291C156.331 177.291 152.831 175.291 151.931 167.491H183.031V159.491C183.031 143.191 173.831 137.091 161.031 137.091ZM161.331 146.991C166.731 146.991 170.131 150.291 169.931 157.891H151.831C152.231 149.891 156.031 146.991 161.331 146.991ZM266.931 136.991C251.031 136.991 242.631 145.991 242.631 161.991C242.631 183.991 257.031 187.591 266.931 187.591C281.431 187.591 291.031 179.791 291.031 162.191C291.031 143.891 280.231 136.991 266.931 136.991ZM266.731 148.591C273.731 148.591 276.531 153.791 276.531 159.791V164.891C276.531 172.091 272.631 176.291 266.731 176.291C261.231 176.291 257.331 172.391 257.331 164.891V159.791C257.331 151.791 261.931 148.591 266.731 148.591ZM320.331 136.991C304.431 136.991 296.031 145.991 296.031 161.991C296.031 183.991 310.431 187.591 320.331 187.591C334.831 187.591 344.431 179.791 344.431 162.191C344.431 143.891 333.631 136.991 320.331 136.991ZM320.131 148.591C327.131 148.591 329.931 153.791 329.931 159.791V164.891C329.931 172.091 326.031 176.291 320.131 176.291C314.631 176.291 310.731 172.391 310.731 164.891V159.791C310.731 151.791 315.331 148.591 320.131 148.591ZM350.031 186.691V113.691L364.731 112.391V161.291L379.331 137.991H394.931L379.731 162.191L395.531 186.691H379.931L364.731 162.891V186.691H350.031V186.691Z" fill="#F4F7FE"/>
</svg>
