<?xml version="1.0" encoding="utf-8"?>
<!-- Generator: Adobe Illustrator 23.0.3, SVG Export Plug-In . SVG Version: 6.00 Build 0)  -->
<svg version="1.1"
	 id="logosvg.com" inkscape:version="0.92.4 (5da689c313, 2019-01-14)" sodipodi:docname="Facebook_2015.svg" xmlns:cc="http://creativecommons.org/ns#" xmlns:dc="http://purl.org/dc/elements/1.1/" xmlns:inkscape="http://www.inkscape.org/namespaces/inkscape" xmlns:rdf="http://www.w3.org/1999/02/22-rdf-syntax-ns#" xmlns:sodipodi="http://sodipodi.sourceforge.net/DTD/sodipodi-0.dtd" xmlns:svg="http://www.w3.org/2000/svg"
	 xmlns="http://www.w3.org/2000/svg" xmlns:xlink="http://www.w3.org/1999/xlink" x="0px" y="0px" viewBox="0 0 400 300"
	 style="enable-background:new 0 0 400 300;" xml:space="preserve">
<style type="text/css">
	.st0{fill:#7D7D7D;}
</style>
<path fill="#7D7D7D" id="logosvg.com_1_" transform="translate(-288.26952,-1729.2091)" inkscape:groupmode="layer" inkscape:label="Layer 1" class="st0" d="
	M317.5,1915.9h-14.7v-36.7h-10v-12h10v-8.5c0-10.1,4.4-17.3,19.1-17.3c3.1,0,8,0.6,8,0.6v11.1h-5.1c-5.2,0-7.3,1.6-7.3,6v8.1h12.2
	l-1.1,12h-11.1V1915.9z M351.3,1866.2c-0.2,0-0.4,0-0.7,0c-13.7,0-19.9,10.3-19.9,24.9c0,18.4,8.1,25.7,20,25.7
	c6.8,0,11.3-2.9,14-8.2v7.3h14v-48.7h-14v7.5C362.6,1869.9,358,1866.3,351.3,1866.2L351.3,1866.2z M354.9,1877.7
	c5.7,0,9.2,4,9.2,10.8l0,7c0,4.6-2.8,10-9.2,10c-9.8,0-9.5-10.5-9.5-14.1C345.4,1879.6,350.6,1877.7,354.9,1877.7L354.9,1877.7z
	 M384.5,1891.5c0-5.9-0.3-25.3,24.9-25.3c10.1,0,14.4,3.2,14.4,3.2l-3.4,10.5c0,0-4.2-2.3-9.7-2.3c-7,0-11.5,4.1-11.5,11.3l0,5.2
	c0,6.9,4.3,11.5,11.5,11.5c5,0,9.6-2.3,9.6-2.3l3.4,10.3c0,0-3.9,3.2-14.2,3.2C385.5,1916.9,384.5,1899.5,384.5,1891.5z
	 M505.9,1866.3c13.7,0,20,10.3,20,24.9c0,18.4-8.1,25.7-20,25.7c-6.8,0-11.9-2.9-14.6-8.2v7.3l-13.8,0v-73l14.7-1.3v32.5
	C494.3,1868.3,501.3,1866.3,505.9,1866.3L505.9,1866.3z M501.8,1877.7c-5.7,0-9.6,4-9.6,10.8l0,7c0,4.6,2.7,10,9.6,10
	c9.8,0,9.5-10.5,9.5-14.1C511.3,1879.6,506.1,1877.7,501.8,1877.7L501.8,1877.7z M449.3,1866.3c-15.5,0-23.7,8.4-23.7,23.5v2.8
	c0,19.5,11.5,24.5,25.2,24.5c13.3,0,19.3-3.7,19.3-3.7l-2.7-9.9c0,0-7.1,3-14.8,3c-8,0-11.5-2-12.4-9.8h31.1v-8
	C471.3,1872.4,462.1,1866.3,449.3,1866.3z M449.6,1876.2c5.4,0,8.8,3.3,8.6,10.9h-18.1C440.5,1879.1,444.3,1876.2,449.6,1876.2z
	 M555.2,1866.2c-15.9,0-24.3,9-24.3,25c0,22,14.4,25.6,24.3,25.6c14.5,0,24.1-7.8,24.1-25.4C579.3,1873.1,568.5,1866.2,555.2,1866.2
	z M555,1877.8c7,0,9.8,5.2,9.8,11.2v5.1c0,7.2-3.9,11.4-9.8,11.4c-5.5,0-9.4-3.9-9.4-11.4v-5.1C545.6,1881,550.2,1877.8,555,1877.8z
	 M608.6,1866.2c-15.9,0-24.3,9-24.3,25c0,22,14.4,25.6,24.3,25.6c14.5,0,24.1-7.8,24.1-25.4C632.7,1873.1,621.9,1866.2,608.6,1866.2
	z M608.4,1877.8c7,0,9.8,5.2,9.8,11.2v5.1c0,7.2-3.9,11.4-9.8,11.4c-5.5,0-9.4-3.9-9.4-11.4v-5.1
	C599,1881,603.6,1877.8,608.4,1877.8z M638.3,1915.9v-73l14.7-1.3v48.9l14.6-23.3h15.6l-15.2,24.2l15.8,24.5h-15.6l-15.2-23.8v23.8
	H638.3z"/>
</svg>
