<?xml version="1.0" encoding="iso-8859-1"?>
<!-- Generator: Adobe Illustrator 19.0.0, SVG Export Plug-In . SVG Version: 6.00 Build 0)  -->
<svg version="1.1" id="Capa_1" xmlns="http://www.w3.org/2000/svg" xmlns:xlink="http://www.w3.org/1999/xlink" x="0px" y="0px"
	 viewBox="0 0 512 512" style="enable-background:new 0 0 512 512;" xml:space="preserve">
<g>
	<path style="fill:#7D7D7D;" d="M243.206,388.211C-20.446,412.532-1.738,260.667,55.922,197.777V184.06
		C13.49,221.273-9.505,268.362,3.741,323.984c32.202,135.787,298.001,115.947,421.48,48.123v-38.79
		C380.07,360.219,305.406,382.44,243.206,388.211z"/>
	<path style="fill:#7D7D7D;" d="M509.731,183.131C485.732,65.967,258.24,58.539,111.597,147.804v9.861
		c146.476-75.307,354.247-74.849,373.163,33.082c6.347,35.702-13.763,72.9-49.692,94.316v28.006
		C478.288,297.215,522.62,245.939,509.731,183.131z"/>
</g>
<g>
	<path style="fill:#7D7D7D;" d="M424.573,333.694v20.836c-126.236,69.338-412.074,91.828-424.3-69.432
		c-0.805,12.451,0.26,25.416,3.468,38.888c32.202,135.787,298.001,115.947,421.48,48.123v-38.79
		C425.009,333.443,424.786,333.568,424.573,333.694z"/>
	<path style="fill:#7D7D7D;" d="M435.068,285.062v28.006c4.327-1.587,8.665-3.536,12.957-5.809v-11.923
		c0-3.923,1.952-7.592,5.214-9.771c32.643-21.802,50.516-57.092,44.482-91.032c-7.066-40.319-40.488-65.639-87.221-77.617
		c39.89,13.148,67.866,37.348,74.26,73.831C491.107,226.449,470.997,263.647,435.068,285.062z"/>
</g>
<g>
	<path style="fill:#7D7D7D;" d="M415.775,166.07h-23.996c-0.699,0-1.265,0.566-1.265,1.265v116.88
		c0,13.513,6.375,25.307,25.116,27.655c0.749,0.094,1.411-0.505,1.411-1.26V167.335C417.041,166.636,416.474,166.07,415.775,166.07z
		"/>
	<path style="fill:#7D7D7D;" d="M99.916,209.207H75.871c-0.699,0-1.265,0.566-1.265,1.265l-0.014,75.924
		c0,13.562,6.396,25.344,25.181,27.658c0.748,0.092,1.408-0.506,1.408-1.26V210.472C101.181,209.773,100.615,209.207,99.916,209.207
		z"/>
	<path style="fill:#7D7D7D;" d="M74.606,170.93v22.615c0,0.699,0.566,1.265,1.265,1.265h23.962c0.699,0,1.265-0.566,1.265-1.265
		V170.93c0-0.699-0.566-1.265-1.265-1.265H75.871C75.172,169.664,74.606,170.231,74.606,170.93z"/>
	<path style="fill:#7D7D7D;" d="M260.047,312.985c-21.472,0-30.559-14.923-30.559-29.624V182.137c0-0.699,0.566-1.265,1.265-1.265
		h23.767c0.699,0,1.265,0.566,1.265,1.265v25.804c0,0.699,0.566,1.265,1.265,1.265h17.272c0.699,0,1.265,0.566,1.265,1.265v18.71
		c0,0.699-0.566,1.265-1.265,1.265H257.05c-0.699,0-1.265,0.566-1.265,1.265v50.024c0,5.993,2.845,9.333,9.094,9.333h9.443
		c0.699,0,1.265,0.566,1.265,1.265v19.385c0,0.699-0.566,1.265-1.265,1.265h-14.275"/>
	<path style="fill:#7D7D7D;" d="M308.434,269.32c0,13.458,8.416,23.346,23.305,23.346c11.159,0,16.905-2.96,23.278-9.039
		c0.491-0.468,1.262-0.479,1.753-0.012l14.415,13.731c0.521,0.496,0.526,1.335,0.007,1.834
		c-10.137,9.741-20.968,15.624-39.648,15.624c-25.166,0-49.276-13.736-49.276-53.776c0-34.232,21.069-53.581,48.693-53.581
		c28.082,0,44.221,22.652,44.221,52.387v8.22c0,0.699-0.566,1.265-1.265,1.265L308.434,269.32 M310.962,240.085
		c-1.534,3.376-2.194,6.081-2.454,9.942c-0.049,0.734,0.528,1.363,1.264,1.363h37.844c0.729,0,1.319-0.616,1.263-1.343
		C346.702,221.934,317.678,225.75,310.962,240.085z"/>
	<path style="fill:#7D7D7D;" d="M172.602,230.447c7.711,0,10.916,3.812,10.916,10v71.426c0,0.699,0.566,1.265,1.265,1.265h23.771
		c0.699,0,1.265-0.566,1.265-1.265v-71.579c0-14.761-7.864-31.059-30.96-31.059l-53.065-0.027c-0.699,0-1.266,0.566-1.266,1.265
		v101.4c0,0.699,0.566,1.265,1.265,1.265h23.781c0.699,0,1.265-0.566,1.265-1.265v-80.161c0-0.699,0.566-1.265,1.265-1.265
		L172.602,230.447L172.602,230.447z"/>
</g>
<g>
	<path style="fill:#7D7D7D;" d="M403.907,284.215v-116.88c0-0.699,0.566-1.265,1.265-1.265h-13.393
		c-0.699,0-1.265,0.566-1.265,1.265v116.88c0,13.513,6.375,25.307,25.116,27.655c0.749,0.094,1.411-0.505,1.411-1.26v-2.234
		C407.459,303.417,403.907,294.296,403.907,284.215z"/>
	<path style="fill:#7D7D7D;" d="M87.985,286.396l0.014-75.924c0-0.698,0.566-1.265,1.265-1.265H75.871
		c-0.699,0-1.265,0.566-1.265,1.265l-0.014,75.924c0,13.562,6.397,25.344,25.181,27.658c0.749,0.092,1.409-0.506,1.409-1.26v-2.198
		C91.554,305.654,87.985,296.522,87.985,286.396z"/>
	<path style="fill:#7D7D7D;" d="M87.999,193.544v-22.615c0-0.699,0.566-1.265,1.265-1.265H75.871c-0.699,0-1.265,0.566-1.265,1.265
		v22.615c0,0.699,0.566,1.265,1.265,1.265h13.393C88.565,194.809,87.999,194.243,87.999,193.544z"/>
	<path style="fill:#7D7D7D;" d="M242.882,283.361V182.138c0-0.699,0.566-1.265,1.265-1.265h-13.393
		c-0.699,0-1.265,0.566-1.265,1.265v101.224c0,14.701,9.086,29.624,30.559,29.624h13.393
		C251.968,312.985,242.882,298.062,242.882,283.361z"/>
	<path style="fill:#7D7D7D;" d="M295.662,261.029c0-31.296,17.613-50.141,41.742-53.146c-2.074-0.277-4.216-0.435-6.442-0.435
		c-27.624,0-48.692,19.349-48.692,53.581c0,40.04,24.11,53.776,49.276,53.776c2.478,0,4.81-0.111,7.028-0.313
		C315.857,312.276,295.662,297.673,295.662,261.029z"/>
	<path style="fill:#7D7D7D;" d="M137.92,311.873v-101.4c0-0.687,0.55-1.24,1.232-1.258l-13.359-0.007
		c-0.699,0-1.266,0.566-1.266,1.265v101.4c0,0.699,0.566,1.265,1.265,1.265h13.393C138.487,313.138,137.92,312.571,137.92,311.873z"
		/>
</g>
<g>
</g>
<g>
</g>
<g>
</g>
<g>
</g>
<g>
</g>
<g>
</g>
<g>
</g>
<g>
</g>
<g>
</g>
<g>
</g>
<g>
</g>
<g>
</g>
<g>
</g>
<g>
</g>
<g>
</g>
</svg>
