<svg width="100" height="100" viewBox="0 0 100 100" fill="none" xmlns="http://www.w3.org/2000/svg">
<g clip-path="url(#clip0)">
<path d="M99.9387 41.2536C97.8762 29.3581 48.1149 31.2224 16.8286 44.3839L14.3422 45.4745C4.89945 49.8042 -0.650936 54.614 0.0611733 58.7452C2.13637 70.7243 52.3485 68.7071 83.4522 55.496L87.1614 53.8134C95.6854 49.671 100.613 45.1614 99.9387 41.2536Z" fill="#F4F7FE"/>
<path d="M5.19828 58.7453C4.48617 54.6141 10.0366 49.8041 19.4793 45.4746L21.9657 44.384C37.5096 37.8451 59.1608 33.7118 76.5407 33.3342C57.9696 32.9069 33.5959 37.3305 16.8286 44.384L14.3422 45.4746C4.89945 49.8043 -0.650936 54.6141 0.0611733 58.7453C1.00063 64.1684 12.4829 67.0154 28.5829 66.6653C15.2223 66.3574 6.03442 63.5719 5.19828 58.7453Z" fill="#F4F7FE"/>
<path d="M83.7065 49.5744V50.5879C83.7065 50.7541 83.8413 50.8889 84.0075 50.8889H84.5848C84.6958 50.8889 84.7858 50.9789 84.7858 51.0899V52.424C84.7909 52.5613 84.7827 52.709 84.7604 52.827C84.7157 53.1139 84.4461 53.5992 83.6801 53.5992C82.9172 53.5992 82.6526 53.1139 82.6049 52.827C82.5856 52.709 82.5764 52.5615 82.5764 52.424V47.5785C82.5764 47.4057 82.5887 47.2196 82.6252 47.0791C82.6772 46.8207 82.9051 46.31 83.6741 46.31C84.4809 46.31 84.6813 46.8461 84.726 47.0791C84.7575 47.2307 84.7606 47.4871 84.7606 47.4871V47.8022C84.7606 47.9524 84.8823 48.074 85.0325 48.074H87.0747C87.2626 48.074 87.4149 47.9217 87.4149 47.7338V47.7262C87.4149 47.7262 87.426 47.3631 87.3946 47.0242C87.1961 45.0354 85.5665 44.4088 83.6956 44.4088C81.8237 44.4088 80.2276 45.0426 79.9956 47.0242C79.9752 47.2072 79.9426 47.5338 79.9426 47.7262V52.185C79.9426 52.3772 79.9477 52.5278 79.9833 52.8838C80.1491 54.7342 81.6862 55.4402 83.4524 55.4963L87.1616 53.8137C87.2836 53.543 87.3651 53.2338 87.3997 52.8838C87.4282 52.5278 87.4311 52.3772 87.4383 52.185V49.5865C87.4383 49.4518 87.3292 49.3426 87.1944 49.3426H83.9387C83.8104 49.3424 83.7065 49.4463 83.7065 49.5744Z" fill="#343A40"/>
<path d="M21.2223 51.551C20.7797 49.3241 16.7788 48.6668 16.4786 47.4249C16.4297 47.2122 16.4409 46.9864 16.4684 46.8694C16.5426 46.5307 16.7696 46.1541 17.4319 46.1541C18.0514 46.1541 18.4147 46.5407 18.4147 47.1186V47.542C18.4147 47.67 18.5184 47.7739 18.6465 47.7739H20.7124C20.8958 47.7739 21.0444 47.6252 21.0444 47.4418V47.0272C21.0444 44.7241 18.9772 44.3557 17.4848 44.3557C17.26 44.3557 17.0403 44.3639 16.8286 44.3842L14.3422 45.4749C14.0706 45.8024 13.8834 46.2073 13.802 46.711C13.7247 47.187 13.7124 47.6041 13.8233 48.1403C14.279 50.3061 18.0278 50.9358 18.5731 52.3051C18.6749 52.5616 18.6422 52.8872 18.5924 53.0875C18.5059 53.4457 18.2678 53.8038 17.5629 53.8038C16.9057 53.8038 16.51 53.4192 16.51 52.8403L16.5067 52.0315C16.5063 51.9145 16.4114 51.82 16.2944 51.82H13.9624C13.8053 51.82 13.678 51.9473 13.678 52.1043V52.6307C13.678 55 15.5286 55.7131 17.5092 55.7131C19.4157 55.7131 20.9813 55.061 21.2356 53.2868C21.3627 52.3731 21.267 51.7748 21.2223 51.551Z" fill="#343A40"/>
<path d="M28.7375 55.0741L27.4072 45.986C27.3945 45.8997 27.2701 45.8995 27.2572 45.9858L25.8894 55.1047C25.8732 55.2135 25.7797 55.2938 25.6697 55.2938H23.2244C23.1148 55.2938 23.032 55.1944 23.0517 55.0866L24.9068 45.018C24.9416 44.8295 25.106 44.6926 25.2976 44.6926H29.3762C29.5367 44.6926 29.6744 44.8073 29.7035 44.9653L31.5588 55.0776C31.5795 55.1901 31.493 55.294 31.3785 55.294H28.9912C28.864 55.2936 28.756 55.2003 28.7375 55.0741Z" fill="#343A40"/>
<path d="M42.7804 54.9483L42.7144 45.98C42.714 45.9221 42.6302 45.9147 42.6199 45.9716L40.9373 55.0755C40.9138 55.2018 40.8037 55.2936 40.6752 55.2936H38.5535C38.3617 55.2936 38.1972 55.1567 38.1623 54.968L36.5111 46.0239C36.4996 45.961 36.407 45.9692 36.4066 46.0331L36.34 55.0835C36.3392 55.1997 36.2447 55.2936 36.1283 55.2936H33.9814C33.8285 55.2936 33.7052 55.1678 33.7086 55.0149L33.9257 45.0038C33.9295 44.8307 34.0709 44.6923 34.2441 44.6923H37.9379C38.1078 44.6923 38.2525 44.8157 38.2795 44.9835L39.4599 52.3352C39.4789 52.4528 39.6478 52.4528 39.6668 52.3352L40.8509 44.9604C40.8757 44.8059 41.0089 44.6925 41.1654 44.6925H44.9621C45.0882 44.6925 45.1914 44.7932 45.1941 44.9194L45.4179 54.9288C45.4224 55.129 45.2613 55.2938 45.0611 55.2938H43.1285C42.9373 55.2936 42.782 55.1395 42.7804 54.9483Z" fill="#343A40"/>
<path d="M55.4812 53.256C55.232 55.0109 53.6765 55.6548 51.7914 55.6548C49.8259 55.6548 47.9998 54.9498 47.9998 52.607V52.0187C47.9998 51.8965 48.099 51.7972 48.2212 51.7972H50.5376C50.6822 51.7972 50.7996 51.9144 50.7996 52.0591V52.8146C50.7996 53.3863 51.1953 53.7658 51.8505 53.7658C52.5515 53.7658 52.7865 53.4127 52.8669 53.0607C52.9158 52.8654 52.9421 52.5379 52.8476 52.2814C52.3105 50.9273 48.5994 50.3049 48.1476 48.1613C48.0306 47.6312 48.048 47.2152 48.1212 46.7482C48.4011 45.032 49.9168 44.4154 51.7724 44.4154C53.2496 44.4154 55.2851 44.7734 55.2851 47.0593V47.5025C55.2851 47.6638 55.1543 47.7947 54.9929 47.7947H52.9548C52.8058 47.7947 52.6851 47.674 52.6851 47.525V47.1478C52.6851 46.5771 52.3281 46.1945 51.7197 46.1945C51.0666 46.1945 50.8396 46.5648 50.7623 46.9037C50.7378 47.0185 50.7267 47.2414 50.7724 47.4531C51.0724 48.6779 55.0269 49.3392 55.4623 51.5386C55.5095 51.7595 55.5992 52.3496 55.4812 53.256Z" fill="#343A40"/>
<path d="M65.3725 52.9926C65.1854 54.9733 63.635 55.6153 61.6928 55.6153C59.7528 55.6153 58.2014 54.9733 58.0182 52.9926C58.0061 52.8868 57.9918 52.4879 57.9948 52.2928V45.0997C57.9948 44.8749 58.177 44.6926 58.4018 44.6926H60.2913C60.495 44.6926 60.6602 44.8579 60.6602 45.0616V52.536C60.6551 52.6713 60.6602 52.827 60.6866 52.9389C60.7375 53.2014 60.9653 53.708 61.6926 53.708C62.4282 53.708 62.6489 53.2014 62.7049 52.9389C62.7284 52.827 62.7334 52.6713 62.7284 52.536V45.0176C62.7284 44.8381 62.8739 44.6926 63.0534 44.6926H65.0307C65.2311 44.6926 65.3936 44.8551 65.3936 45.0555V52.2928C65.4051 52.4879 65.3887 52.8868 65.3725 52.9926Z" fill="#343A40"/>
<path d="M76.8423 55.1828H73.6664C73.5234 55.1828 73.3972 55.0893 73.3558 54.9524L70.9337 46.9584C70.9052 46.8641 70.766 46.886 70.7677 46.9844L70.9021 54.8418C70.9052 55.0291 70.7544 55.1826 70.5671 55.1826H68.6519C68.4687 55.1826 68.3201 55.034 68.3201 54.8508V45.0449C68.3201 44.85 68.4781 44.6922 68.6728 44.6922H71.8851C72.091 44.6922 72.2722 44.8281 72.3296 45.0258L74.5988 52.8283C74.6169 52.8906 74.7089 52.8768 74.708 52.8119L74.5794 45.053C74.5761 44.8547 74.7361 44.692 74.9343 44.692H76.9099C77.0585 44.692 77.1789 44.8125 77.1789 44.961V54.8463C77.1783 55.0324 77.0279 55.1828 76.8423 55.1828Z" fill="#343A40"/>
</g>
<defs>
<clipPath id="clip0">
<rect width="100" height="100" fill="white"/>
</clipPath>
</defs>
</svg>
