<?xml version="1.0" encoding="iso-8859-1"?>
<!-- Generator: Adobe Illustrator 19.0.0, SVG Export Plug-In . SVG Version: 6.00 Build 0)  -->
<svg version="1.1" id="Capa_1" xmlns="http://www.w3.org/2000/svg" xmlns:xlink="http://www.w3.org/1999/xlink" x="0px" y="0px"
	 viewBox="0 0 512 512" style="enable-background:new 0 0 512 512;" xml:space="preserve">
<path style="fill:#7D7D7D;" d="M511.686,211.219c-10.56-60.905-265.338-51.36-425.524,16.027l-12.73,5.584
	c-48.347,22.168-76.765,46.794-73.119,67.946c10.625,61.333,267.711,51.005,426.962-16.636l18.991-8.615
	C489.909,254.316,515.139,231.227,511.686,211.219z"/>
<path style="fill:#7D7D7D;" d="M26.615,300.776c-3.646-21.152,24.772-45.779,73.119-67.946l12.73-5.584
	c79.585-33.479,190.439-54.642,279.424-56.575c-95.084-2.188-219.877,20.461-305.726,56.575l-12.73,5.584
	c-48.347,22.168-76.765,46.794-73.119,67.946c4.81,27.766,63.599,42.343,146.031,40.55C77.938,339.75,30.896,325.488,26.615,300.776
	z"/>
<g>
	<path style="fill:#343a40;" d="M428.577,253.821v5.189c0,0.851,0.69,1.541,1.541,1.541h2.956c0.568,0,1.029,0.461,1.029,1.029
		v6.831c0.026,0.703-0.016,1.459-0.13,2.063c-0.229,1.469-1.609,3.954-5.531,3.954c-3.906,0-5.261-2.485-5.505-3.954
		c-0.099-0.604-0.146-1.359-0.146-2.063v-24.809c0-0.885,0.063-1.838,0.25-2.557c0.266-1.323,1.433-3.938,5.37-3.938
		c4.131,0,5.157,2.745,5.386,3.938c0.161,0.776,0.177,2.089,0.177,2.089v1.613c0,0.769,0.623,1.392,1.392,1.392h10.456
		c0.962,0,1.742-0.78,1.742-1.742v-0.039c0,0,0.057-1.859-0.104-3.594c-1.016-10.183-9.36-13.391-18.939-13.391
		c-9.584,0-17.756,3.245-18.944,13.391c-0.104,0.937-0.271,2.609-0.271,3.594v22.829c0,0.984,0.026,1.755,0.208,3.578
		c0.849,9.474,8.719,13.089,17.762,13.376l18.991-8.615c0.625-1.386,1.042-2.969,1.219-4.761c0.146-1.823,0.161-2.594,0.198-3.578
		v-13.304c0-0.69-0.559-1.249-1.249-1.249h-16.669C429.109,252.633,428.577,253.165,428.577,253.821z"/>
	<path style="fill:#343a40;" d="M108.658,263.941c-2.266-11.402-22.751-14.767-24.288-21.126c-0.25-1.089-0.193-2.245-0.052-2.844
		c0.38-1.734,1.542-3.662,4.933-3.662c3.172,0,5.032,1.979,5.032,4.938v2.168c0,0.655,0.531,1.187,1.187,1.187h10.577
		c0.939,0,1.7-0.761,1.7-1.7v-2.123c0-11.792-10.584-13.678-18.225-13.678c-1.151,0-2.276,0.042-3.36,0.146l-12.73,5.584
		c-1.391,1.677-2.349,3.75-2.766,6.329c-0.396,2.437-0.459,4.573,0.109,7.318c2.333,11.089,21.527,14.313,24.319,21.324
		c0.521,1.313,0.354,2.98,0.099,4.006c-0.443,1.834-1.662,3.667-5.271,3.667c-3.365,0-5.391-1.969-5.391-4.933l-0.017-4.141
		c-0.002-0.599-0.488-1.083-1.087-1.083h-11.94c-0.804,0-1.456,0.652-1.456,1.456v2.695c0,12.131,9.475,15.782,19.616,15.782
		c9.761,0,17.777-3.339,19.079-12.423C109.377,268.15,108.887,265.087,108.658,263.941z"/>
	<path style="fill:#343a40;" d="M147.136,281.979l-6.811-46.531c-0.065-0.442-0.702-0.443-0.768-0.001l-7.003,46.689
		c-0.083,0.557-0.562,0.968-1.125,0.968h-12.52c-0.561,0-0.985-0.509-0.884-1.061l9.498-51.551c0.178-0.965,1.02-1.666,2.001-1.666
		h20.882c0.822,0,1.527,0.587,1.676,1.396l9.499,51.775c0.106,0.576-0.337,1.108-0.923,1.108h-12.223
		C147.784,283.103,147.231,282.625,147.136,281.979z"/>
	<path style="fill:#343a40;" d="M219.036,281.335l-0.338-45.918c-0.002-0.296-0.431-0.334-0.484-0.043l-8.615,46.612
		c-0.12,0.647-0.684,1.117-1.342,1.117h-10.863c-0.982,0-1.824-0.701-2.003-1.667l-8.454-45.794
		c-0.059-0.322-0.533-0.28-0.535,0.047l-0.341,46.338c-0.004,0.595-0.488,1.076-1.084,1.076h-10.992
		c-0.783,0-1.414-0.644-1.397-1.427l1.112-51.257c0.019-0.886,0.743-1.595,1.63-1.595h18.912c0.87,0,1.611,0.632,1.749,1.491
		l6.044,37.641c0.097,0.602,0.962,0.602,1.059,0l6.063-37.759c0.127-0.791,0.809-1.372,1.61-1.372h19.439
		c0.646,0,1.174,0.516,1.188,1.162l1.146,51.248c0.023,1.025-0.802,1.869-1.827,1.869h-9.895
		C219.839,283.103,219.044,282.314,219.036,281.335z"/>
	<path style="fill:#343a40;" d="M284.064,272.671c-1.276,8.985-9.24,12.282-18.892,12.282c-10.063,0-19.413-3.61-19.413-15.605
		v-3.012c0-0.626,0.508-1.134,1.134-1.134h11.86c0.74,0,1.341,0.6,1.341,1.341v3.868c0,2.927,2.026,4.87,5.381,4.87
		c3.589,0,4.792-1.808,5.204-3.61c0.25-1,0.385-2.677-0.099-3.99c-2.75-6.933-21.751-10.12-24.064-21.095
		c-0.599-2.714-0.51-4.844-0.135-7.235c1.433-8.787,9.193-11.944,18.694-11.944c7.563,0,17.985,1.833,17.985,13.537v2.269
		c0,0.826-0.67,1.496-1.496,1.496h-10.435c-0.763,0-1.381-0.618-1.381-1.381v-1.931c0-2.922-1.828-4.881-4.943-4.881
		c-3.344,0-4.506,1.896-4.902,3.631c-0.125,0.588-0.182,1.729,0.052,2.813c1.536,6.271,21.783,9.657,24.012,20.918
		C284.209,265.009,284.668,268.03,284.064,272.671"/>
	<path style="fill:#343a40;" d="M334.707,271.322c-0.958,10.141-8.896,13.428-18.84,13.428c-9.933,0-17.876-3.287-18.814-13.428
		c-0.062-0.542-0.135-2.584-0.12-3.583V230.91c0-1.151,0.933-2.084,2.084-2.084h9.674c1.043,0,1.889,0.846,1.889,1.889v38.269
		c-0.026,0.693,0,1.49,0.135,2.063c0.261,1.344,1.427,3.938,5.151,3.938c3.766,0,4.896-2.594,5.183-3.938
		c0.12-0.573,0.146-1.37,0.12-2.063v-38.494c0-0.919,0.745-1.664,1.664-1.664h10.124c1.026,0,1.858,0.832,1.858,1.858v37.055
		C334.874,268.738,334.79,270.78,334.707,271.322"/>
	<path style="fill:#343a40;" d="M393.433,282.536h-16.261c-0.732,0-1.378-0.479-1.59-1.18l-12.401-40.929
		c-0.146-0.483-0.859-0.371-0.85,0.133l0.688,40.23c0.016,0.959-0.756,1.745-1.715,1.745h-9.806c-0.938,0-1.699-0.761-1.699-1.699
		v-50.206c0-0.998,0.809-1.806,1.806-1.806h16.447c1.054,0,1.982,0.696,2.276,1.708l11.618,39.949
		c0.093,0.319,0.564,0.248,0.559-0.084l-0.658-39.726c-0.017-1.015,0.802-1.848,1.817-1.848h10.115c0.761,0,1.377,0.617,1.377,1.377
		v50.613C395.153,281.766,394.383,282.536,393.433,282.536z"/>
</g>
<g>
</g>
<g>
</g>
<g>
</g>
<g>
</g>
<g>
</g>
<g>
</g>
<g>
</g>
<g>
</g>
<g>
</g>
<g>
</g>
<g>
</g>
<g>
</g>
<g>
</g>
<g>
</g>
<g>
</g>
</svg>
